M48
;DRILL file {KiCad 5.0.1-33cea8e~66~ubuntu18.04.1} date Sun 14 Oct 2018 22:24:35 MSK
;FORMAT={-:-/ absolute / inch / decimal}
FMAT,2
INCH,TZ
T1C0.0150
T2C0.0200
T3C0.0394
T4C0.0472
%
G90
G05
M72
T1
X2.1654Y-3.4646
X2.1654Y-5.0394
X2.6102Y-2.8937
X2.7441Y-3.267
X2.7559Y-2.2835
X2.7559Y-5.315
X2.7885Y-2.9936
X2.8415Y-3.3159
X2.8972Y-2.9847
X2.9043Y-4.5236
X2.9219Y-4.0849
X2.9539Y-4.524
X3.0126Y-2.7181
X3.0149Y-3.8681
X3.0249Y-2.8758
X3.0382Y-3.0152
X3.0663Y-4.8636
X3.2886Y-4.5647
X3.3034Y-4.8746
X3.3187Y-4.7737
X3.3465Y-5.315
X3.382Y-4.5018
X3.4685Y-4.6566
X3.5433Y-2.2835
X3.5433Y-3.4646
X3.5433Y-4.5276
X4.2057Y-3.6598
X4.2683Y-3.1009
X4.3971Y-3.0303
X4.5561Y-4.643
X4.5705Y-3.139
X4.6457Y-2.2835
X4.6457Y-3.4646
X4.678Y-3.0299
X4.8957Y-4.7465
X5.1181Y-3.8189
X5.1869Y-2.8424
X5.2312Y-2.822
X5.2794Y-2.8031
X5.3254Y-2.796
X5.3543Y-3.2283
X5.5407Y-2.9861
X5.7087Y-2.2835
X5.7087Y-3.4646
X5.7087Y-4.3307
X5.7087Y-4.8425
X5.7087Y-5.315
X5.8341Y-3.7738
X5.9859Y-2.6234
X6.0649Y-2.4943
X6.1024Y-3.5433
X6.1032Y-3.7882
X6.109Y-3.748
X6.3342Y-4.2254
X6.4187Y-4.4964
X6.4961Y-4.0157
X6.513Y-4.4112
X6.5582Y-4.4209
X6.6929Y-2.2835
X6.6929Y-3.2283
X6.6929Y-5.315
X6.8128Y-2.7938
X6.9924Y-2.7836
X7.3228Y-3.2283
X7.3228Y-5.0394
T2
X2.9016Y-4.5936
X2.902Y-4.685
X3.0585Y-4.7717
X3.5772Y-4.8396
X4.1053Y-3.8249
X4.372Y-4.8
X4.5954Y-4.7874
X4.6108Y-3.2524
X5.4705Y-3.0004
X5.6378Y-3.676
X5.6571Y-3.7575
X5.7541Y-3.3919
X6.5718Y-3.5685
X6.5841Y-4.0191
X6.97Y-4.1233
T3
X6.3197Y-4.365
T4
X4.0669Y-2.2913
X4.0669Y-4.5748
X2.1378Y-4.5748
X5.248Y-4.5748
X2.1378Y-2.2913
X5.248Y-2.2913
X7.1772Y-2.2913
X7.1772Y-4.5748
T0
M30
