G04 #@! TF.GenerationSoftware,KiCad,Pcbnew,5.0.1-33cea8e~66~ubuntu18.04.1*
G04 #@! TF.CreationDate,2018-10-14T22:24:42+03:00*
G04 #@! TF.ProjectId,AA-PI-Display-Board-RaspberryPi3,41412D50492D446973706C61792D426F,02*
G04 #@! TF.SameCoordinates,Original*
G04 #@! TF.FileFunction,Other,Fab,Top*
%FSLAX46Y46*%
G04 Gerber Fmt 4.6, Leading zero omitted, Abs format (unit mm)*
G04 Created by KiCad (PCBNEW 5.0.1-33cea8e~66~ubuntu18.04.1) date Sun 14 Oct 2018 22:24:42 MSK*
%MOMM*%
%LPD*%
G01*
G04 APERTURE LIST*
%ADD10C,0.100000*%
%ADD11C,0.203200*%
%ADD12C,0.150000*%
%ADD13C,0.050800*%
%ADD14C,0.080000*%
%ADD15C,0.120000*%
%ADD16C,0.130000*%
%ADD17C,0.075000*%
G04 APERTURE END LIST*
D10*
G04 #@! TO.C,C23*
X83150000Y-77500000D02*
X81950000Y-77500000D01*
X81950000Y-77500000D02*
X81950000Y-75500000D01*
X81950000Y-75500000D02*
X83150000Y-75500000D01*
X83150000Y-75500000D02*
X83150000Y-77500000D01*
D11*
G04 #@! TO.C,J4*
X112250000Y-139700000D02*
X121250000Y-139700000D01*
X112250000Y-139694000D02*
X112250000Y-136690000D01*
X121250000Y-136700000D02*
X121250000Y-139694000D01*
D12*
G04 #@! TO.C,J1*
X153550000Y-88150000D02*
X153550000Y-80750000D01*
X148200000Y-80750000D02*
X149200000Y-80750000D01*
X151600000Y-80750000D02*
X153550000Y-80750000D01*
X151600000Y-88150000D02*
X153550000Y-88150000D01*
X148200000Y-88150000D02*
X149200000Y-88150000D01*
X148200000Y-82750000D02*
X148200000Y-80750000D01*
X148200000Y-88150000D02*
X148200000Y-86150000D01*
D10*
G04 #@! TO.C,C1*
X172200000Y-69300000D02*
X172200000Y-71300000D01*
X171000000Y-69300000D02*
X172200000Y-69300000D01*
X171000000Y-71300000D02*
X171000000Y-69300000D01*
X172200000Y-71300000D02*
X171000000Y-71300000D01*
G04 #@! TO.C,C2*
X173550000Y-64800000D02*
X174750000Y-64800000D01*
X174750000Y-64800000D02*
X174750000Y-66800000D01*
X174750000Y-66800000D02*
X173550000Y-66800000D01*
X173550000Y-66800000D02*
X173550000Y-64800000D01*
G04 #@! TO.C,C3*
X108030000Y-114940000D02*
X109630000Y-114940000D01*
X109630000Y-114940000D02*
X109630000Y-118140000D01*
X109630000Y-118140000D02*
X108030000Y-118140000D01*
X108030000Y-118140000D02*
X108030000Y-114940000D01*
G04 #@! TO.C,C4*
X178450000Y-71400000D02*
X178450000Y-69400000D01*
X179650000Y-71400000D02*
X178450000Y-71400000D01*
X179650000Y-69400000D02*
X179650000Y-71400000D01*
X178450000Y-69400000D02*
X179650000Y-69400000D01*
G04 #@! TO.C,C5*
X117100000Y-119750000D02*
X117100000Y-118150000D01*
X117100000Y-118150000D02*
X120300000Y-118150000D01*
X120300000Y-118150000D02*
X120300000Y-119750000D01*
X120300000Y-119750000D02*
X117100000Y-119750000D01*
G04 #@! TO.C,C6*
X172730000Y-99760000D02*
X172730000Y-96960000D01*
X172730000Y-96960000D02*
X172030000Y-96260000D01*
X172030000Y-96260000D02*
X169930000Y-96260000D01*
X169930000Y-96260000D02*
X169930000Y-99760000D01*
X169930000Y-99760000D02*
X172730000Y-99760000D01*
G04 #@! TO.C,C7*
X124350000Y-123000000D02*
X124350000Y-121400000D01*
X124350000Y-121400000D02*
X127550000Y-121400000D01*
X127550000Y-121400000D02*
X127550000Y-123000000D01*
X127550000Y-123000000D02*
X124350000Y-123000000D01*
G04 #@! TO.C,C8*
X181946000Y-103982000D02*
X184746000Y-103982000D01*
X181946000Y-100482000D02*
X181946000Y-103982000D01*
X184046000Y-100482000D02*
X181946000Y-100482000D01*
X184746000Y-101182000D02*
X184046000Y-100482000D01*
X184746000Y-103982000D02*
X184746000Y-101182000D01*
G04 #@! TO.C,C9*
X183438000Y-96406000D02*
X183438000Y-98406000D01*
X182238000Y-96406000D02*
X183438000Y-96406000D01*
X182238000Y-98406000D02*
X182238000Y-96406000D01*
X183438000Y-98406000D02*
X182238000Y-98406000D01*
G04 #@! TO.C,C10*
X160550000Y-116300000D02*
X157350000Y-116300000D01*
X160550000Y-114700000D02*
X160550000Y-116300000D01*
X157350000Y-114700000D02*
X160550000Y-114700000D01*
X157350000Y-116300000D02*
X157350000Y-114700000D01*
G04 #@! TO.C,C11*
X65500000Y-81850000D02*
X65500000Y-79050000D01*
X65500000Y-79050000D02*
X65100000Y-78650000D01*
X65100000Y-78650000D02*
X63900000Y-78650000D01*
X63900000Y-78650000D02*
X63900000Y-81850000D01*
X63900000Y-81850000D02*
X65500000Y-81850000D01*
G04 #@! TO.C,C12*
X77900000Y-81850000D02*
X79500000Y-81850000D01*
X77900000Y-78650000D02*
X77900000Y-81850000D01*
X79100000Y-78650000D02*
X77900000Y-78650000D01*
X79500000Y-79050000D02*
X79100000Y-78650000D01*
X79500000Y-81850000D02*
X79500000Y-79050000D01*
G04 #@! TO.C,C13*
X138850000Y-92550000D02*
X138850000Y-90950000D01*
X138850000Y-90950000D02*
X142050000Y-90950000D01*
X142050000Y-90950000D02*
X142050000Y-92550000D01*
X142050000Y-92550000D02*
X138850000Y-92550000D01*
G04 #@! TO.C,C14*
X61350000Y-81700000D02*
X61350000Y-79700000D01*
X62550000Y-81700000D02*
X61350000Y-81700000D01*
X62550000Y-79700000D02*
X62550000Y-81700000D01*
X61350000Y-79700000D02*
X62550000Y-79700000D01*
G04 #@! TO.C,C15*
X82100000Y-81700000D02*
X80900000Y-81700000D01*
X80900000Y-81700000D02*
X80900000Y-79700000D01*
X80900000Y-79700000D02*
X82100000Y-79700000D01*
X82100000Y-79700000D02*
X82100000Y-81700000D01*
G04 #@! TO.C,C16*
X73000000Y-87300000D02*
X73000000Y-85300000D01*
X74200000Y-87300000D02*
X73000000Y-87300000D01*
X74200000Y-85300000D02*
X74200000Y-87300000D01*
X73000000Y-85300000D02*
X74200000Y-85300000D01*
G04 #@! TO.C,C17*
X69300000Y-85300000D02*
X70500000Y-85300000D01*
X70500000Y-85300000D02*
X70500000Y-87300000D01*
X70500000Y-87300000D02*
X69300000Y-87300000D01*
X69300000Y-87300000D02*
X69300000Y-85300000D01*
G04 #@! TO.C,C18*
X103802000Y-97890000D02*
X103802000Y-99090000D01*
X103802000Y-99090000D02*
X101802000Y-99090000D01*
X101802000Y-99090000D02*
X101802000Y-97890000D01*
X101802000Y-97890000D02*
X103802000Y-97890000D01*
G04 #@! TO.C,C19*
X67470000Y-66430000D02*
X67470000Y-69230000D01*
X67470000Y-69230000D02*
X67870000Y-69630000D01*
X67870000Y-69630000D02*
X69070000Y-69630000D01*
X69070000Y-69630000D02*
X69070000Y-66430000D01*
X69070000Y-66430000D02*
X67470000Y-66430000D01*
G04 #@! TO.C,C20*
X167700000Y-113050000D02*
X167700000Y-109850000D01*
X169300000Y-113050000D02*
X167700000Y-113050000D01*
X169300000Y-109850000D02*
X169300000Y-113050000D01*
X167700000Y-109850000D02*
X169300000Y-109850000D01*
G04 #@! TO.C,C21*
X75570000Y-69460000D02*
X74370000Y-69460000D01*
X74370000Y-69460000D02*
X74370000Y-67460000D01*
X74370000Y-67460000D02*
X75570000Y-67460000D01*
X75570000Y-67460000D02*
X75570000Y-69460000D01*
G04 #@! TO.C,C22*
X81950000Y-73000000D02*
X81950000Y-71000000D01*
X83150000Y-73000000D02*
X81950000Y-73000000D01*
X83150000Y-71000000D02*
X83150000Y-73000000D01*
X81950000Y-71000000D02*
X83150000Y-71000000D01*
G04 #@! TO.C,C24*
X175500000Y-115700000D02*
X175500000Y-109400000D01*
X175500000Y-109400000D02*
X174500000Y-108400000D01*
X174500000Y-108400000D02*
X171200000Y-108400000D01*
X171200000Y-108400000D02*
X171200000Y-115700000D01*
X171200000Y-115700000D02*
X175500000Y-115700000D01*
G04 #@! TO.C,C25*
X112500000Y-95450000D02*
X112500000Y-98650000D01*
X110900000Y-95450000D02*
X112500000Y-95450000D01*
X110900000Y-98650000D02*
X110900000Y-95450000D01*
X112500000Y-98650000D02*
X110900000Y-98650000D01*
G04 #@! TO.C,C26*
X72380000Y-69480000D02*
X71180000Y-69480000D01*
X71180000Y-69480000D02*
X71180000Y-67480000D01*
X71180000Y-67480000D02*
X72380000Y-67480000D01*
X72380000Y-67480000D02*
X72380000Y-69480000D01*
G04 #@! TO.C,C27*
X152070000Y-92080000D02*
X148870000Y-92080000D01*
X152070000Y-90480000D02*
X152070000Y-92080000D01*
X148870000Y-90480000D02*
X152070000Y-90480000D01*
X148870000Y-92080000D02*
X148870000Y-90480000D01*
G04 #@! TO.C,D1*
X169000000Y-70400000D02*
X169000000Y-70650000D01*
X168650000Y-70400000D02*
X169000000Y-69900000D01*
X169350000Y-70400000D02*
X168650000Y-70400000D01*
X169000000Y-69900000D02*
X169350000Y-70400000D01*
X169000000Y-69900000D02*
X169000000Y-69700000D01*
X169350000Y-69900000D02*
X168650000Y-69900000D01*
X168300000Y-69300000D02*
X169700000Y-69300000D01*
X168300000Y-71100000D02*
X168300000Y-69300000D01*
X169700000Y-71100000D02*
X168300000Y-71100000D01*
X169700000Y-69300000D02*
X169700000Y-71100000D01*
G04 #@! TO.C,D2*
X66478980Y-127500560D02*
X67279080Y-128651180D01*
X66478980Y-127500560D02*
X65729680Y-128651180D01*
X65729680Y-128651180D02*
X67279080Y-128651180D01*
X67279080Y-127500560D02*
X65678880Y-127500560D01*
X66478980Y-128651180D02*
X66478980Y-129649400D01*
X66478980Y-127500560D02*
X66478980Y-126598860D01*
X68480000Y-130450000D02*
X68480000Y-125850000D01*
X68480000Y-130450000D02*
X64480000Y-130450000D01*
X64480000Y-125850000D02*
X68480000Y-125850000D01*
X64480000Y-130450000D02*
X64480000Y-125850000D01*
G04 #@! TO.C,D3*
X95598980Y-123300560D02*
X96399080Y-124451180D01*
X95598980Y-123300560D02*
X94849680Y-124451180D01*
X94849680Y-124451180D02*
X96399080Y-124451180D01*
X96399080Y-123300560D02*
X94798880Y-123300560D01*
X95598980Y-124451180D02*
X95598980Y-125449400D01*
X95598980Y-123300560D02*
X95598980Y-122398860D01*
X97600000Y-126250000D02*
X97600000Y-121650000D01*
X97600000Y-126250000D02*
X93600000Y-126250000D01*
X93600000Y-121650000D02*
X97600000Y-121650000D01*
X93600000Y-126250000D02*
X93600000Y-121650000D01*
G04 #@! TO.C,D4*
X104200000Y-121650000D02*
X104200000Y-126250000D01*
X104200000Y-126250000D02*
X100200000Y-126250000D01*
X100200000Y-121650000D02*
X104200000Y-121650000D01*
X100200000Y-121650000D02*
X100200000Y-126250000D01*
X102201020Y-124599440D02*
X102201020Y-125501140D01*
X102201020Y-123448820D02*
X102201020Y-122450600D01*
X101400920Y-124599440D02*
X103001120Y-124599440D01*
X102950320Y-123448820D02*
X101400920Y-123448820D01*
X102201020Y-124599440D02*
X102950320Y-123448820D01*
X102201020Y-124599440D02*
X101400920Y-123448820D01*
G04 #@! TO.C,D5*
X114716000Y-123340000D02*
X112916000Y-123340000D01*
X112916000Y-123340000D02*
X112916000Y-121940000D01*
X112916000Y-121940000D02*
X114716000Y-121940000D01*
X114716000Y-121940000D02*
X114716000Y-123340000D01*
X114116000Y-122990000D02*
X114116000Y-122290000D01*
X114116000Y-122640000D02*
X114316000Y-122640000D01*
X114116000Y-122640000D02*
X113616000Y-122990000D01*
X113616000Y-122990000D02*
X113616000Y-122290000D01*
X113616000Y-122290000D02*
X114116000Y-122640000D01*
X113616000Y-122640000D02*
X113366000Y-122640000D01*
G04 #@! TO.C,D6*
X126868000Y-129294000D02*
X126868000Y-130994000D01*
X126868000Y-130994000D02*
X127168000Y-131294000D01*
X127168000Y-131294000D02*
X128068000Y-131294000D01*
X128068000Y-131294000D02*
X128068000Y-129294000D01*
X128068000Y-129294000D02*
X126868000Y-129294000D01*
G04 #@! TO.C,D7*
X142400000Y-95250000D02*
X142400000Y-99850000D01*
X142400000Y-99850000D02*
X138400000Y-99850000D01*
X138400000Y-95250000D02*
X142400000Y-95250000D01*
X138400000Y-95250000D02*
X138400000Y-99850000D01*
X140401020Y-98199440D02*
X140401020Y-99101140D01*
X140401020Y-97048820D02*
X140401020Y-96050600D01*
X139600920Y-98199440D02*
X141201120Y-98199440D01*
X141150320Y-97048820D02*
X139600920Y-97048820D01*
X140401020Y-98199440D02*
X141150320Y-97048820D01*
X140401020Y-98199440D02*
X139600920Y-97048820D01*
G04 #@! TO.C,D8*
X109750000Y-105850000D02*
X109750000Y-101250000D01*
X109750000Y-101250000D02*
X112750000Y-101250000D01*
X112750000Y-105850000D02*
X109750000Y-105850000D01*
X112750000Y-105850000D02*
X112750000Y-101250000D01*
X111248980Y-102900560D02*
X111248980Y-101998860D01*
X111248980Y-104051180D02*
X111248980Y-105049400D01*
X112049080Y-102900560D02*
X110448880Y-102900560D01*
X110499680Y-104051180D02*
X112049080Y-104051180D01*
X111248980Y-102900560D02*
X110499680Y-104051180D01*
X111248980Y-102900560D02*
X112049080Y-104051180D01*
G04 #@! TO.C,F1*
X109550000Y-123900000D02*
X109550000Y-125500000D01*
X109550000Y-125500000D02*
X106350000Y-125500000D01*
X106350000Y-125500000D02*
X106350000Y-123900000D01*
X106350000Y-123900000D02*
X109550000Y-123900000D01*
G04 #@! TO.C,F2*
X109550000Y-121780000D02*
X106350000Y-121780000D01*
X109550000Y-120180000D02*
X109550000Y-121780000D01*
X106350000Y-120180000D02*
X109550000Y-120180000D01*
X106350000Y-121780000D02*
X106350000Y-120180000D01*
G04 #@! TO.C,J2*
X59600000Y-134550000D02*
X59600000Y-139650000D01*
X67500000Y-134100000D02*
X60050000Y-134100000D01*
X59600000Y-134550000D02*
X60050000Y-134100000D01*
X59600000Y-139670000D02*
X67500000Y-139670000D01*
X67500000Y-139670000D02*
X67500000Y-134100000D01*
G04 #@! TO.C,J3*
X98650000Y-130950000D02*
X99000000Y-130450000D01*
X104100000Y-139650000D02*
X104100000Y-130450000D01*
X96400000Y-139650000D02*
X104100000Y-139650000D01*
X96400000Y-130450000D02*
X96400000Y-139650000D01*
X96400000Y-130450000D02*
X104100000Y-130450000D01*
X98300000Y-130450000D02*
X98650000Y-130950000D01*
G04 #@! TO.C,J5*
X120250000Y-79375000D02*
X120250000Y-87325000D01*
X125250000Y-79375000D02*
X125250000Y-87325000D01*
X120250000Y-79375000D02*
X125250000Y-79375000D01*
X120250000Y-87325000D02*
X125250000Y-87325000D01*
X123750000Y-82100000D02*
X123250000Y-82100000D01*
X123250000Y-82100000D02*
X123250000Y-82600000D01*
X123250000Y-82600000D02*
X123750000Y-82600000D01*
X123750000Y-82600000D02*
X123750000Y-82100000D01*
X123750000Y-84100000D02*
X123250000Y-84100000D01*
X123250000Y-84100000D02*
X123250000Y-84600000D01*
X123250000Y-84600000D02*
X123750000Y-84600000D01*
X123750000Y-84600000D02*
X123750000Y-84100000D01*
X120250000Y-81850000D02*
X120957107Y-82350000D01*
X120957107Y-82350000D02*
X120250000Y-82850000D01*
G04 #@! TO.C,J11*
X120957107Y-105850000D02*
X120250000Y-106350000D01*
X120250000Y-105350000D02*
X120957107Y-105850000D01*
X123750000Y-108100000D02*
X123750000Y-107600000D01*
X123250000Y-108100000D02*
X123750000Y-108100000D01*
X123250000Y-107600000D02*
X123250000Y-108100000D01*
X123750000Y-107600000D02*
X123250000Y-107600000D01*
X123750000Y-106100000D02*
X123750000Y-105600000D01*
X123250000Y-106100000D02*
X123750000Y-106100000D01*
X123250000Y-105600000D02*
X123250000Y-106100000D01*
X123750000Y-105600000D02*
X123250000Y-105600000D01*
X120250000Y-110825000D02*
X125250000Y-110825000D01*
X120250000Y-102875000D02*
X125250000Y-102875000D01*
X125250000Y-102875000D02*
X125250000Y-110825000D01*
X120250000Y-102875000D02*
X120250000Y-110825000D01*
G04 #@! TO.C,J12*
X120250000Y-90975000D02*
X120250000Y-98925000D01*
X125250000Y-90975000D02*
X125250000Y-98925000D01*
X120250000Y-90975000D02*
X125250000Y-90975000D01*
X120250000Y-98925000D02*
X125250000Y-98925000D01*
X123750000Y-93700000D02*
X123250000Y-93700000D01*
X123250000Y-93700000D02*
X123250000Y-94200000D01*
X123250000Y-94200000D02*
X123750000Y-94200000D01*
X123750000Y-94200000D02*
X123750000Y-93700000D01*
X123750000Y-95700000D02*
X123250000Y-95700000D01*
X123250000Y-95700000D02*
X123250000Y-96200000D01*
X123250000Y-96200000D02*
X123750000Y-96200000D01*
X123750000Y-96200000D02*
X123750000Y-95700000D01*
X120250000Y-93450000D02*
X120957107Y-93950000D01*
X120957107Y-93950000D02*
X120250000Y-94450000D01*
D11*
G04 #@! TO.C,L1*
X145600000Y-103650000D02*
X151600000Y-103650000D01*
X151600000Y-116650000D02*
X145600000Y-116650000D01*
D13*
X143600000Y-113650000D02*
X143453600Y-113796400D01*
X143453600Y-114503600D02*
G75*
G02X143453600Y-113796400I353600J353600D01*
G01*
X143453600Y-114503600D02*
X144246400Y-115296400D01*
X144953600Y-115296400D02*
G75*
G02X144246400Y-115296400I-353600J353600D01*
G01*
X144953600Y-115296400D02*
X145100000Y-115150000D01*
X152100000Y-115150000D02*
X152246400Y-115296400D01*
X152953600Y-115296400D02*
G75*
G02X152246400Y-115296400I-353600J353600D01*
G01*
X152953600Y-115296400D02*
X153746400Y-114503600D01*
X153746400Y-113796400D02*
G75*
G02X153746400Y-114503600I-353600J-353600D01*
G01*
X153746400Y-113796400D02*
X153600000Y-113650000D01*
X145100000Y-105150000D02*
X144953600Y-105003600D01*
X144246400Y-105003600D02*
G75*
G02X144953600Y-105003600I353600J-353600D01*
G01*
X144246400Y-105003600D02*
X143453600Y-105796400D01*
X143453600Y-106503600D02*
G75*
G02X143453600Y-105796400I353600J353600D01*
G01*
X143453600Y-106503600D02*
X143600000Y-106650000D01*
X153600000Y-106650000D02*
X153746400Y-106503600D01*
X153746400Y-105796400D02*
G75*
G02X153746400Y-106503600I-353600J-353600D01*
G01*
X153746400Y-105796400D02*
X152953600Y-105003600D01*
X152246400Y-105003600D02*
G75*
G02X152953600Y-105003600I353600J-353600D01*
G01*
X152246400Y-105003600D02*
X152100000Y-105150000D01*
X145100001Y-115150000D02*
G75*
G03X152100000Y-115150000I3499999J5000003D01*
G01*
X153600000Y-113649999D02*
G75*
G03X153600000Y-106650000I-5000003J3499999D01*
G01*
X152099999Y-105150000D02*
G75*
G03X145100000Y-105150000I-3499999J-5000003D01*
G01*
X143600000Y-106650001D02*
G75*
G03X143600000Y-113650000I5000003J-3499999D01*
G01*
D11*
X154256800Y-110150000D02*
G75*
G03X154256800Y-110150000I-5656800J0D01*
G01*
D10*
G04 #@! TO.C,L2*
X64000000Y-75750000D02*
X64000000Y-73750000D01*
X65200000Y-75750000D02*
X64000000Y-75750000D01*
X65200000Y-73750000D02*
X65200000Y-75750000D01*
X64000000Y-73750000D02*
X65200000Y-73750000D01*
G04 #@! TO.C,L3*
X65200000Y-71400000D02*
X64000000Y-71400000D01*
X64000000Y-71400000D02*
X64000000Y-69400000D01*
X64000000Y-69400000D02*
X65200000Y-69400000D01*
X65200000Y-69400000D02*
X65200000Y-71400000D01*
D11*
G04 #@! TO.C,L4*
X106200000Y-100850000D02*
X103700000Y-100850000D01*
X102700000Y-103850000D02*
G75*
G03X102700000Y-102850000I-166701J500000D01*
G01*
X103700000Y-105850000D02*
X106200000Y-105850000D01*
X102700000Y-103850000D02*
X102450000Y-103850000D01*
X102700000Y-102850000D02*
X102450000Y-102850000D01*
X103700001Y-105850000D02*
G75*
G02X102450000Y-103850000I1124998J2093750D01*
G01*
X103700002Y-100850000D02*
G75*
G03X102450000Y-102850000I999799J-2015501D01*
G01*
X107200000Y-102850000D02*
G75*
G03X107200000Y-103850000I166701J-500000D01*
G01*
X107200000Y-102850000D02*
X107450000Y-102850000D01*
X107200000Y-103850000D02*
X107450000Y-103850000D01*
X106199999Y-100850000D02*
G75*
G02X107450000Y-102850000I-1124998J-2093750D01*
G01*
X106199998Y-105850000D02*
G75*
G03X107450000Y-103850000I-999799J2015501D01*
G01*
D10*
G04 #@! TO.C,Q1*
X176050000Y-68780000D02*
X174650000Y-68780000D01*
X174650000Y-71820000D02*
X174650000Y-68780000D01*
X176050000Y-71250000D02*
X175500000Y-71820000D01*
X175500000Y-71820000D02*
X174650000Y-71820000D01*
X176050000Y-71250000D02*
X176050000Y-68800000D01*
G04 #@! TO.C,Q2*
X178600000Y-65050000D02*
X176150000Y-65050000D01*
X179170000Y-65600000D02*
X179170000Y-66450000D01*
X178600000Y-65050000D02*
X179170000Y-65600000D01*
X179170000Y-66450000D02*
X176130000Y-66450000D01*
X176130000Y-65050000D02*
X176130000Y-66450000D01*
G04 #@! TO.C,Q3*
X180280000Y-65050000D02*
X180280000Y-66450000D01*
X183320000Y-66450000D02*
X180280000Y-66450000D01*
X182750000Y-65050000D02*
X183320000Y-65600000D01*
X183320000Y-65600000D02*
X183320000Y-66450000D01*
X182750000Y-65050000D02*
X180300000Y-65050000D01*
G04 #@! TO.C,Q4*
X117180000Y-114850000D02*
X117180000Y-116250000D01*
X120220000Y-116250000D02*
X117180000Y-116250000D01*
X119650000Y-114850000D02*
X120220000Y-115400000D01*
X120220000Y-115400000D02*
X120220000Y-116250000D01*
X119650000Y-114850000D02*
X117200000Y-114850000D01*
G04 #@! TO.C,Q5*
X114354000Y-117568000D02*
X111904000Y-117568000D01*
X114924000Y-118118000D02*
X114924000Y-118968000D01*
X114354000Y-117568000D02*
X114924000Y-118118000D01*
X114924000Y-118968000D02*
X111884000Y-118968000D01*
X111884000Y-117568000D02*
X111884000Y-118968000D01*
G04 #@! TO.C,Q6*
X125900000Y-124900000D02*
X125900000Y-127350000D01*
X126450000Y-124330000D02*
X127300000Y-124330000D01*
X125900000Y-124900000D02*
X126450000Y-124330000D01*
X127300000Y-124330000D02*
X127300000Y-127370000D01*
X125900000Y-127370000D02*
X127300000Y-127370000D01*
G04 #@! TO.C,Q7*
X147720000Y-95950000D02*
X147720000Y-94550000D01*
X144680000Y-94550000D02*
X147720000Y-94550000D01*
X145250000Y-95950000D02*
X144680000Y-95400000D01*
X144680000Y-95400000D02*
X144680000Y-94550000D01*
X145250000Y-95950000D02*
X147700000Y-95950000D01*
G04 #@! TO.C,Q8*
X144700000Y-90200000D02*
X144700000Y-92650000D01*
X145250000Y-89630000D02*
X146100000Y-89630000D01*
X144700000Y-90200000D02*
X145250000Y-89630000D01*
X146100000Y-89630000D02*
X146100000Y-92670000D01*
X144700000Y-92670000D02*
X146100000Y-92670000D01*
G04 #@! TO.C,R1*
X168400000Y-64800000D02*
X169600000Y-64800000D01*
X169600000Y-64800000D02*
X169600000Y-66800000D01*
X169600000Y-66800000D02*
X168400000Y-66800000D01*
X168400000Y-66800000D02*
X168400000Y-64800000D01*
G04 #@! TO.C,R2*
X171000000Y-66800000D02*
X171000000Y-64800000D01*
X172200000Y-66800000D02*
X171000000Y-66800000D01*
X172200000Y-64800000D02*
X172200000Y-66800000D01*
X171000000Y-64800000D02*
X172200000Y-64800000D01*
G04 #@! TO.C,R3*
X119850000Y-121450000D02*
X121850000Y-121450000D01*
X119850000Y-122650000D02*
X119850000Y-121450000D01*
X121850000Y-122650000D02*
X119850000Y-122650000D01*
X121850000Y-121450000D02*
X121850000Y-122650000D01*
G04 #@! TO.C,R4*
X72370000Y-119020000D02*
X72370000Y-120220000D01*
X72370000Y-120220000D02*
X70370000Y-120220000D01*
X70370000Y-120220000D02*
X70370000Y-119020000D01*
X70370000Y-119020000D02*
X72370000Y-119020000D01*
G04 #@! TO.C,R5*
X70370000Y-116520000D02*
X72370000Y-116520000D01*
X70370000Y-117720000D02*
X70370000Y-116520000D01*
X72370000Y-117720000D02*
X70370000Y-117720000D01*
X72370000Y-116520000D02*
X72370000Y-117720000D01*
G04 #@! TO.C,R6*
X181400000Y-69650000D02*
X181400000Y-68450000D01*
X181400000Y-68450000D02*
X183400000Y-68450000D01*
X183400000Y-68450000D02*
X183400000Y-69650000D01*
X183400000Y-69650000D02*
X181400000Y-69650000D01*
G04 #@! TO.C,R7*
X181425000Y-70900000D02*
X183425000Y-70900000D01*
X181425000Y-72100000D02*
X181425000Y-70900000D01*
X183425000Y-72100000D02*
X181425000Y-72100000D01*
X183425000Y-70900000D02*
X183425000Y-72100000D01*
G04 #@! TO.C,R8*
X114300000Y-114120000D02*
X114300000Y-115320000D01*
X114300000Y-115320000D02*
X112300000Y-115320000D01*
X112300000Y-115320000D02*
X112300000Y-114120000D01*
X112300000Y-114120000D02*
X114300000Y-114120000D01*
G04 #@! TO.C,R9*
X185800000Y-66800000D02*
X184600000Y-66800000D01*
X184600000Y-66800000D02*
X184600000Y-64800000D01*
X184600000Y-64800000D02*
X185800000Y-64800000D01*
X185800000Y-64800000D02*
X185800000Y-66800000D01*
G04 #@! TO.C,R10*
X128068000Y-134374000D02*
X128068000Y-136374000D01*
X126868000Y-134374000D02*
X128068000Y-134374000D01*
X126868000Y-136374000D02*
X126868000Y-134374000D01*
X128068000Y-136374000D02*
X126868000Y-136374000D01*
G04 #@! TO.C,R11*
X151350000Y-99600000D02*
X149350000Y-99600000D01*
X151350000Y-98400000D02*
X151350000Y-99600000D01*
X149350000Y-98400000D02*
X151350000Y-98400000D01*
X149350000Y-99600000D02*
X149350000Y-98400000D01*
G04 #@! TO.C,R12*
X78150000Y-87300000D02*
X76950000Y-87300000D01*
X76950000Y-87300000D02*
X76950000Y-85300000D01*
X76950000Y-85300000D02*
X78150000Y-85300000D01*
X78150000Y-85300000D02*
X78150000Y-87300000D01*
G04 #@! TO.C,R13*
X66600000Y-85300000D02*
X66600000Y-87300000D01*
X65400000Y-85300000D02*
X66600000Y-85300000D01*
X65400000Y-87300000D02*
X65400000Y-85300000D01*
X66600000Y-87300000D02*
X65400000Y-87300000D01*
G04 #@! TO.C,R14*
X81250000Y-85000000D02*
X83250000Y-85000000D01*
X81250000Y-86200000D02*
X81250000Y-85000000D01*
X83250000Y-86200000D02*
X81250000Y-86200000D01*
X83250000Y-85000000D02*
X83250000Y-86200000D01*
G04 #@! TO.C,R15*
X60300000Y-86200000D02*
X60300000Y-85000000D01*
X60300000Y-85000000D02*
X62300000Y-85000000D01*
X62300000Y-85000000D02*
X62300000Y-86200000D01*
X62300000Y-86200000D02*
X60300000Y-86200000D01*
G04 #@! TO.C,R16*
X153900000Y-98400000D02*
X155900000Y-98400000D01*
X153900000Y-99600000D02*
X153900000Y-98400000D01*
X155900000Y-99600000D02*
X153900000Y-99600000D01*
X155900000Y-98400000D02*
X155900000Y-99600000D01*
G04 #@! TO.C,R17*
X146850000Y-98400000D02*
X146850000Y-99600000D01*
X146850000Y-99600000D02*
X144850000Y-99600000D01*
X144850000Y-99600000D02*
X144850000Y-98400000D01*
X144850000Y-98400000D02*
X146850000Y-98400000D01*
G04 #@! TO.C,R18*
X167236000Y-116144000D02*
X167236000Y-114944000D01*
X167236000Y-114944000D02*
X169236000Y-114944000D01*
X169236000Y-114944000D02*
X169236000Y-116144000D01*
X169236000Y-116144000D02*
X167236000Y-116144000D01*
G04 #@! TO.C,R19*
X164900000Y-116144000D02*
X162900000Y-116144000D01*
X164900000Y-114944000D02*
X164900000Y-116144000D01*
X162900000Y-114944000D02*
X164900000Y-114944000D01*
X162900000Y-116144000D02*
X162900000Y-114944000D01*
G04 #@! TO.C,R20*
X142050000Y-89600000D02*
X140050000Y-89600000D01*
X142050000Y-88400000D02*
X142050000Y-89600000D01*
X140050000Y-88400000D02*
X142050000Y-88400000D01*
X140050000Y-89600000D02*
X140050000Y-88400000D01*
G04 #@! TO.C,R21*
X150250000Y-94500000D02*
X151450000Y-94500000D01*
X151450000Y-94500000D02*
X151450000Y-96500000D01*
X151450000Y-96500000D02*
X150250000Y-96500000D01*
X150250000Y-96500000D02*
X150250000Y-94500000D01*
G04 #@! TO.C,R22*
X103802000Y-93826000D02*
X103802000Y-95026000D01*
X103802000Y-95026000D02*
X101802000Y-95026000D01*
X101802000Y-95026000D02*
X101802000Y-93826000D01*
X101802000Y-93826000D02*
X103802000Y-93826000D01*
G04 #@! TO.C,R23*
X166886000Y-106900000D02*
X166886000Y-105700000D01*
X166886000Y-105700000D02*
X168886000Y-105700000D01*
X168886000Y-105700000D02*
X168886000Y-106900000D01*
X168886000Y-106900000D02*
X166886000Y-106900000D01*
G04 #@! TO.C,R24*
X162750000Y-95750000D02*
X162750000Y-96950000D01*
X162750000Y-96950000D02*
X160750000Y-96950000D01*
X160750000Y-96950000D02*
X160750000Y-95750000D01*
X160750000Y-95750000D02*
X162750000Y-95750000D01*
G04 #@! TO.C,R25*
X160450000Y-99600000D02*
X158450000Y-99600000D01*
X160450000Y-98400000D02*
X160450000Y-99600000D01*
X158450000Y-98400000D02*
X160450000Y-98400000D01*
X158450000Y-99600000D02*
X158450000Y-98400000D01*
G04 #@! TO.C,R26*
X160750000Y-94400000D02*
X160750000Y-93200000D01*
X160750000Y-93200000D02*
X162750000Y-93200000D01*
X162750000Y-93200000D02*
X162750000Y-94400000D01*
X162750000Y-94400000D02*
X160750000Y-94400000D01*
G04 #@! TO.C,R27*
X162314000Y-105700000D02*
X164314000Y-105700000D01*
X162314000Y-106900000D02*
X162314000Y-105700000D01*
X164314000Y-106900000D02*
X162314000Y-106900000D01*
X164314000Y-105700000D02*
X164314000Y-106900000D01*
G04 #@! TO.C,R28*
X165000000Y-99600000D02*
X163000000Y-99600000D01*
X165000000Y-98400000D02*
X165000000Y-99600000D01*
X163000000Y-98400000D02*
X165000000Y-98400000D01*
X163000000Y-99600000D02*
X163000000Y-98400000D01*
G04 #@! TO.C,R29*
X159850000Y-105700000D02*
X159850000Y-106900000D01*
X159850000Y-106900000D02*
X157850000Y-106900000D01*
X157850000Y-106900000D02*
X157850000Y-105700000D01*
X157850000Y-105700000D02*
X159850000Y-105700000D01*
G04 #@! TO.C,R30*
X106882000Y-93826000D02*
X108882000Y-93826000D01*
X106882000Y-95026000D02*
X106882000Y-93826000D01*
X108882000Y-95026000D02*
X106882000Y-95026000D01*
X108882000Y-93826000D02*
X108882000Y-95026000D01*
G04 #@! TO.C,SW2*
X106750000Y-88430000D02*
X106750000Y-87130000D01*
X106750000Y-87130000D02*
X106550000Y-86930000D01*
X106550000Y-86930000D02*
X105700000Y-86930000D01*
X105700000Y-86930000D02*
X105500000Y-87130000D01*
X105500000Y-87130000D02*
X105450000Y-87180000D01*
X105450000Y-87180000D02*
X105450000Y-88480000D01*
X108700000Y-91080000D02*
X108700000Y-88480000D01*
X108700000Y-88480000D02*
X102000000Y-88480000D01*
X102000000Y-88480000D02*
X102000000Y-91080000D01*
X102000000Y-91080000D02*
X108700000Y-91080000D01*
G04 #@! TO.C,U2*
X179854000Y-98096000D02*
X180854000Y-99096000D01*
X179854000Y-98096000D02*
X174154000Y-98096000D01*
X180854000Y-99096000D02*
X180854000Y-101796000D01*
X174154000Y-98096000D02*
X174154000Y-101796000D01*
X180854000Y-101796000D02*
X174154000Y-101796000D01*
G04 #@! TO.C,Y1*
X77610000Y-76650000D02*
X77610000Y-72050000D01*
X77610000Y-72050000D02*
X77810000Y-71850000D01*
X77810000Y-71850000D02*
X80610000Y-71850000D01*
X80610000Y-71850000D02*
X80810000Y-72050000D01*
X80810000Y-72050000D02*
X80810000Y-76650000D01*
X80810000Y-76650000D02*
X80610000Y-76850000D01*
X80610000Y-76850000D02*
X77810000Y-76850000D01*
X77810000Y-76850000D02*
X77610000Y-76650000D01*
X79810000Y-76850000D02*
X80810000Y-75850000D01*
G04 #@! TD*
G04 #@! TO.C,C23*
D14*
X82728571Y-76821428D02*
X82752380Y-76845238D01*
X82776190Y-76916666D01*
X82776190Y-76964285D01*
X82752380Y-77035714D01*
X82704761Y-77083333D01*
X82657142Y-77107142D01*
X82561904Y-77130952D01*
X82490476Y-77130952D01*
X82395238Y-77107142D01*
X82347619Y-77083333D01*
X82300000Y-77035714D01*
X82276190Y-76964285D01*
X82276190Y-76916666D01*
X82300000Y-76845238D01*
X82323809Y-76821428D01*
X82323809Y-76630952D02*
X82300000Y-76607142D01*
X82276190Y-76559523D01*
X82276190Y-76440476D01*
X82300000Y-76392857D01*
X82323809Y-76369047D01*
X82371428Y-76345238D01*
X82419047Y-76345238D01*
X82490476Y-76369047D01*
X82776190Y-76654761D01*
X82776190Y-76345238D01*
X82276190Y-76178571D02*
X82276190Y-75869047D01*
X82466666Y-76035714D01*
X82466666Y-75964285D01*
X82490476Y-75916666D01*
X82514285Y-75892857D01*
X82561904Y-75869047D01*
X82680952Y-75869047D01*
X82728571Y-75892857D01*
X82752380Y-75916666D01*
X82776190Y-75964285D01*
X82776190Y-76107142D01*
X82752380Y-76154761D01*
X82728571Y-76178571D01*
G04 #@! TO.C,U3*
D15*
X71261904Y-77309523D02*
X71909523Y-77309523D01*
X71985714Y-77271428D01*
X72023809Y-77233333D01*
X72061904Y-77157142D01*
X72061904Y-77004761D01*
X72023809Y-76928571D01*
X71985714Y-76890476D01*
X71909523Y-76852380D01*
X71261904Y-76852380D01*
X71261904Y-76547619D02*
X71261904Y-76052380D01*
X71566666Y-76319047D01*
X71566666Y-76204761D01*
X71604761Y-76128571D01*
X71642857Y-76090476D01*
X71719047Y-76052380D01*
X71909523Y-76052380D01*
X71985714Y-76090476D01*
X72023809Y-76128571D01*
X72061904Y-76204761D01*
X72061904Y-76433333D01*
X72023809Y-76509523D01*
X71985714Y-76547619D01*
G04 #@! TO.C,C1*
D14*
X171778571Y-70383333D02*
X171802380Y-70407142D01*
X171826190Y-70478571D01*
X171826190Y-70526190D01*
X171802380Y-70597619D01*
X171754761Y-70645238D01*
X171707142Y-70669047D01*
X171611904Y-70692857D01*
X171540476Y-70692857D01*
X171445238Y-70669047D01*
X171397619Y-70645238D01*
X171350000Y-70597619D01*
X171326190Y-70526190D01*
X171326190Y-70478571D01*
X171350000Y-70407142D01*
X171373809Y-70383333D01*
X171826190Y-69907142D02*
X171826190Y-70192857D01*
X171826190Y-70050000D02*
X171326190Y-70050000D01*
X171397619Y-70097619D01*
X171445238Y-70145238D01*
X171469047Y-70192857D01*
G04 #@! TO.C,C2*
X174328571Y-65883333D02*
X174352380Y-65907142D01*
X174376190Y-65978571D01*
X174376190Y-66026190D01*
X174352380Y-66097619D01*
X174304761Y-66145238D01*
X174257142Y-66169047D01*
X174161904Y-66192857D01*
X174090476Y-66192857D01*
X173995238Y-66169047D01*
X173947619Y-66145238D01*
X173900000Y-66097619D01*
X173876190Y-66026190D01*
X173876190Y-65978571D01*
X173900000Y-65907142D01*
X173923809Y-65883333D01*
X173923809Y-65692857D02*
X173900000Y-65669047D01*
X173876190Y-65621428D01*
X173876190Y-65502380D01*
X173900000Y-65454761D01*
X173923809Y-65430952D01*
X173971428Y-65407142D01*
X174019047Y-65407142D01*
X174090476Y-65430952D01*
X174376190Y-65716666D01*
X174376190Y-65407142D01*
G04 #@! TO.C,C3*
D15*
X109115714Y-116673333D02*
X109153809Y-116711428D01*
X109191904Y-116825714D01*
X109191904Y-116901904D01*
X109153809Y-117016190D01*
X109077619Y-117092380D01*
X109001428Y-117130476D01*
X108849047Y-117168571D01*
X108734761Y-117168571D01*
X108582380Y-117130476D01*
X108506190Y-117092380D01*
X108430000Y-117016190D01*
X108391904Y-116901904D01*
X108391904Y-116825714D01*
X108430000Y-116711428D01*
X108468095Y-116673333D01*
X108391904Y-116406666D02*
X108391904Y-115911428D01*
X108696666Y-116178095D01*
X108696666Y-116063809D01*
X108734761Y-115987619D01*
X108772857Y-115949523D01*
X108849047Y-115911428D01*
X109039523Y-115911428D01*
X109115714Y-115949523D01*
X109153809Y-115987619D01*
X109191904Y-116063809D01*
X109191904Y-116292380D01*
X109153809Y-116368571D01*
X109115714Y-116406666D01*
G04 #@! TO.C,C4*
D14*
X179228571Y-70483333D02*
X179252380Y-70507142D01*
X179276190Y-70578571D01*
X179276190Y-70626190D01*
X179252380Y-70697619D01*
X179204761Y-70745238D01*
X179157142Y-70769047D01*
X179061904Y-70792857D01*
X178990476Y-70792857D01*
X178895238Y-70769047D01*
X178847619Y-70745238D01*
X178800000Y-70697619D01*
X178776190Y-70626190D01*
X178776190Y-70578571D01*
X178800000Y-70507142D01*
X178823809Y-70483333D01*
X178942857Y-70054761D02*
X179276190Y-70054761D01*
X178752380Y-70173809D02*
X179109523Y-70292857D01*
X179109523Y-69983333D01*
G04 #@! TO.C,C5*
D15*
X118566666Y-119235714D02*
X118528571Y-119273809D01*
X118414285Y-119311904D01*
X118338095Y-119311904D01*
X118223809Y-119273809D01*
X118147619Y-119197619D01*
X118109523Y-119121428D01*
X118071428Y-118969047D01*
X118071428Y-118854761D01*
X118109523Y-118702380D01*
X118147619Y-118626190D01*
X118223809Y-118550000D01*
X118338095Y-118511904D01*
X118414285Y-118511904D01*
X118528571Y-118550000D01*
X118566666Y-118588095D01*
X119290476Y-118511904D02*
X118909523Y-118511904D01*
X118871428Y-118892857D01*
X118909523Y-118854761D01*
X118985714Y-118816666D01*
X119176190Y-118816666D01*
X119252380Y-118854761D01*
X119290476Y-118892857D01*
X119328571Y-118969047D01*
X119328571Y-119159523D01*
X119290476Y-119235714D01*
X119252380Y-119273809D01*
X119176190Y-119311904D01*
X118985714Y-119311904D01*
X118909523Y-119273809D01*
X118871428Y-119235714D01*
G04 #@! TO.C,C6*
D16*
X171644285Y-98156666D02*
X171686190Y-98198571D01*
X171728095Y-98324285D01*
X171728095Y-98408095D01*
X171686190Y-98533809D01*
X171602380Y-98617619D01*
X171518571Y-98659523D01*
X171350952Y-98701428D01*
X171225238Y-98701428D01*
X171057619Y-98659523D01*
X170973809Y-98617619D01*
X170890000Y-98533809D01*
X170848095Y-98408095D01*
X170848095Y-98324285D01*
X170890000Y-98198571D01*
X170931904Y-98156666D01*
X170848095Y-97402380D02*
X170848095Y-97570000D01*
X170890000Y-97653809D01*
X170931904Y-97695714D01*
X171057619Y-97779523D01*
X171225238Y-97821428D01*
X171560476Y-97821428D01*
X171644285Y-97779523D01*
X171686190Y-97737619D01*
X171728095Y-97653809D01*
X171728095Y-97486190D01*
X171686190Y-97402380D01*
X171644285Y-97360476D01*
X171560476Y-97318571D01*
X171350952Y-97318571D01*
X171267142Y-97360476D01*
X171225238Y-97402380D01*
X171183333Y-97486190D01*
X171183333Y-97653809D01*
X171225238Y-97737619D01*
X171267142Y-97779523D01*
X171350952Y-97821428D01*
G04 #@! TO.C,C7*
D15*
X125816666Y-122485714D02*
X125778571Y-122523809D01*
X125664285Y-122561904D01*
X125588095Y-122561904D01*
X125473809Y-122523809D01*
X125397619Y-122447619D01*
X125359523Y-122371428D01*
X125321428Y-122219047D01*
X125321428Y-122104761D01*
X125359523Y-121952380D01*
X125397619Y-121876190D01*
X125473809Y-121800000D01*
X125588095Y-121761904D01*
X125664285Y-121761904D01*
X125778571Y-121800000D01*
X125816666Y-121838095D01*
X126083333Y-121761904D02*
X126616666Y-121761904D01*
X126273809Y-122561904D01*
G04 #@! TO.C,C8*
D16*
X183660285Y-102378666D02*
X183702190Y-102420571D01*
X183744095Y-102546285D01*
X183744095Y-102630095D01*
X183702190Y-102755809D01*
X183618380Y-102839619D01*
X183534571Y-102881523D01*
X183366952Y-102923428D01*
X183241238Y-102923428D01*
X183073619Y-102881523D01*
X182989809Y-102839619D01*
X182906000Y-102755809D01*
X182864095Y-102630095D01*
X182864095Y-102546285D01*
X182906000Y-102420571D01*
X182947904Y-102378666D01*
X183241238Y-101875809D02*
X183199333Y-101959619D01*
X183157428Y-102001523D01*
X183073619Y-102043428D01*
X183031714Y-102043428D01*
X182947904Y-102001523D01*
X182906000Y-101959619D01*
X182864095Y-101875809D01*
X182864095Y-101708190D01*
X182906000Y-101624380D01*
X182947904Y-101582476D01*
X183031714Y-101540571D01*
X183073619Y-101540571D01*
X183157428Y-101582476D01*
X183199333Y-101624380D01*
X183241238Y-101708190D01*
X183241238Y-101875809D01*
X183283142Y-101959619D01*
X183325047Y-102001523D01*
X183408857Y-102043428D01*
X183576476Y-102043428D01*
X183660285Y-102001523D01*
X183702190Y-101959619D01*
X183744095Y-101875809D01*
X183744095Y-101708190D01*
X183702190Y-101624380D01*
X183660285Y-101582476D01*
X183576476Y-101540571D01*
X183408857Y-101540571D01*
X183325047Y-101582476D01*
X183283142Y-101624380D01*
X183241238Y-101708190D01*
G04 #@! TO.C,C9*
D14*
X183016571Y-97489333D02*
X183040380Y-97513142D01*
X183064190Y-97584571D01*
X183064190Y-97632190D01*
X183040380Y-97703619D01*
X182992761Y-97751238D01*
X182945142Y-97775047D01*
X182849904Y-97798857D01*
X182778476Y-97798857D01*
X182683238Y-97775047D01*
X182635619Y-97751238D01*
X182588000Y-97703619D01*
X182564190Y-97632190D01*
X182564190Y-97584571D01*
X182588000Y-97513142D01*
X182611809Y-97489333D01*
X183064190Y-97251238D02*
X183064190Y-97156000D01*
X183040380Y-97108380D01*
X183016571Y-97084571D01*
X182945142Y-97036952D01*
X182849904Y-97013142D01*
X182659428Y-97013142D01*
X182611809Y-97036952D01*
X182588000Y-97060761D01*
X182564190Y-97108380D01*
X182564190Y-97203619D01*
X182588000Y-97251238D01*
X182611809Y-97275047D01*
X182659428Y-97298857D01*
X182778476Y-97298857D01*
X182826095Y-97275047D01*
X182849904Y-97251238D01*
X182873714Y-97203619D01*
X182873714Y-97108380D01*
X182849904Y-97060761D01*
X182826095Y-97036952D01*
X182778476Y-97013142D01*
G04 #@! TO.C,C10*
D15*
X158435714Y-115785714D02*
X158397619Y-115823809D01*
X158283333Y-115861904D01*
X158207142Y-115861904D01*
X158092857Y-115823809D01*
X158016666Y-115747619D01*
X157978571Y-115671428D01*
X157940476Y-115519047D01*
X157940476Y-115404761D01*
X157978571Y-115252380D01*
X158016666Y-115176190D01*
X158092857Y-115100000D01*
X158207142Y-115061904D01*
X158283333Y-115061904D01*
X158397619Y-115100000D01*
X158435714Y-115138095D01*
X159197619Y-115861904D02*
X158740476Y-115861904D01*
X158969047Y-115861904D02*
X158969047Y-115061904D01*
X158892857Y-115176190D01*
X158816666Y-115252380D01*
X158740476Y-115290476D01*
X159692857Y-115061904D02*
X159769047Y-115061904D01*
X159845238Y-115100000D01*
X159883333Y-115138095D01*
X159921428Y-115214285D01*
X159959523Y-115366666D01*
X159959523Y-115557142D01*
X159921428Y-115709523D01*
X159883333Y-115785714D01*
X159845238Y-115823809D01*
X159769047Y-115861904D01*
X159692857Y-115861904D01*
X159616666Y-115823809D01*
X159578571Y-115785714D01*
X159540476Y-115709523D01*
X159502380Y-115557142D01*
X159502380Y-115366666D01*
X159540476Y-115214285D01*
X159578571Y-115138095D01*
X159616666Y-115100000D01*
X159692857Y-115061904D01*
G04 #@! TO.C,C11*
X64985714Y-80764285D02*
X65023809Y-80802380D01*
X65061904Y-80916666D01*
X65061904Y-80992857D01*
X65023809Y-81107142D01*
X64947619Y-81183333D01*
X64871428Y-81221428D01*
X64719047Y-81259523D01*
X64604761Y-81259523D01*
X64452380Y-81221428D01*
X64376190Y-81183333D01*
X64300000Y-81107142D01*
X64261904Y-80992857D01*
X64261904Y-80916666D01*
X64300000Y-80802380D01*
X64338095Y-80764285D01*
X65061904Y-80002380D02*
X65061904Y-80459523D01*
X65061904Y-80230952D02*
X64261904Y-80230952D01*
X64376190Y-80307142D01*
X64452380Y-80383333D01*
X64490476Y-80459523D01*
X65061904Y-79240476D02*
X65061904Y-79697619D01*
X65061904Y-79469047D02*
X64261904Y-79469047D01*
X64376190Y-79545238D01*
X64452380Y-79621428D01*
X64490476Y-79697619D01*
G04 #@! TO.C,C12*
X78985714Y-80764285D02*
X79023809Y-80802380D01*
X79061904Y-80916666D01*
X79061904Y-80992857D01*
X79023809Y-81107142D01*
X78947619Y-81183333D01*
X78871428Y-81221428D01*
X78719047Y-81259523D01*
X78604761Y-81259523D01*
X78452380Y-81221428D01*
X78376190Y-81183333D01*
X78300000Y-81107142D01*
X78261904Y-80992857D01*
X78261904Y-80916666D01*
X78300000Y-80802380D01*
X78338095Y-80764285D01*
X79061904Y-80002380D02*
X79061904Y-80459523D01*
X79061904Y-80230952D02*
X78261904Y-80230952D01*
X78376190Y-80307142D01*
X78452380Y-80383333D01*
X78490476Y-80459523D01*
X78338095Y-79697619D02*
X78300000Y-79659523D01*
X78261904Y-79583333D01*
X78261904Y-79392857D01*
X78300000Y-79316666D01*
X78338095Y-79278571D01*
X78414285Y-79240476D01*
X78490476Y-79240476D01*
X78604761Y-79278571D01*
X79061904Y-79735714D01*
X79061904Y-79240476D01*
G04 #@! TO.C,C13*
X139935714Y-92035714D02*
X139897619Y-92073809D01*
X139783333Y-92111904D01*
X139707142Y-92111904D01*
X139592857Y-92073809D01*
X139516666Y-91997619D01*
X139478571Y-91921428D01*
X139440476Y-91769047D01*
X139440476Y-91654761D01*
X139478571Y-91502380D01*
X139516666Y-91426190D01*
X139592857Y-91350000D01*
X139707142Y-91311904D01*
X139783333Y-91311904D01*
X139897619Y-91350000D01*
X139935714Y-91388095D01*
X140697619Y-92111904D02*
X140240476Y-92111904D01*
X140469047Y-92111904D02*
X140469047Y-91311904D01*
X140392857Y-91426190D01*
X140316666Y-91502380D01*
X140240476Y-91540476D01*
X140964285Y-91311904D02*
X141459523Y-91311904D01*
X141192857Y-91616666D01*
X141307142Y-91616666D01*
X141383333Y-91654761D01*
X141421428Y-91692857D01*
X141459523Y-91769047D01*
X141459523Y-91959523D01*
X141421428Y-92035714D01*
X141383333Y-92073809D01*
X141307142Y-92111904D01*
X141078571Y-92111904D01*
X141002380Y-92073809D01*
X140964285Y-92035714D01*
G04 #@! TO.C,C14*
D14*
X62128571Y-81021428D02*
X62152380Y-81045238D01*
X62176190Y-81116666D01*
X62176190Y-81164285D01*
X62152380Y-81235714D01*
X62104761Y-81283333D01*
X62057142Y-81307142D01*
X61961904Y-81330952D01*
X61890476Y-81330952D01*
X61795238Y-81307142D01*
X61747619Y-81283333D01*
X61700000Y-81235714D01*
X61676190Y-81164285D01*
X61676190Y-81116666D01*
X61700000Y-81045238D01*
X61723809Y-81021428D01*
X62176190Y-80545238D02*
X62176190Y-80830952D01*
X62176190Y-80688095D02*
X61676190Y-80688095D01*
X61747619Y-80735714D01*
X61795238Y-80783333D01*
X61819047Y-80830952D01*
X61842857Y-80116666D02*
X62176190Y-80116666D01*
X61652380Y-80235714D02*
X62009523Y-80354761D01*
X62009523Y-80045238D01*
G04 #@! TO.C,C15*
X81678571Y-81021428D02*
X81702380Y-81045238D01*
X81726190Y-81116666D01*
X81726190Y-81164285D01*
X81702380Y-81235714D01*
X81654761Y-81283333D01*
X81607142Y-81307142D01*
X81511904Y-81330952D01*
X81440476Y-81330952D01*
X81345238Y-81307142D01*
X81297619Y-81283333D01*
X81250000Y-81235714D01*
X81226190Y-81164285D01*
X81226190Y-81116666D01*
X81250000Y-81045238D01*
X81273809Y-81021428D01*
X81726190Y-80545238D02*
X81726190Y-80830952D01*
X81726190Y-80688095D02*
X81226190Y-80688095D01*
X81297619Y-80735714D01*
X81345238Y-80783333D01*
X81369047Y-80830952D01*
X81226190Y-80092857D02*
X81226190Y-80330952D01*
X81464285Y-80354761D01*
X81440476Y-80330952D01*
X81416666Y-80283333D01*
X81416666Y-80164285D01*
X81440476Y-80116666D01*
X81464285Y-80092857D01*
X81511904Y-80069047D01*
X81630952Y-80069047D01*
X81678571Y-80092857D01*
X81702380Y-80116666D01*
X81726190Y-80164285D01*
X81726190Y-80283333D01*
X81702380Y-80330952D01*
X81678571Y-80354761D01*
G04 #@! TO.C,C16*
X73778571Y-86621428D02*
X73802380Y-86645238D01*
X73826190Y-86716666D01*
X73826190Y-86764285D01*
X73802380Y-86835714D01*
X73754761Y-86883333D01*
X73707142Y-86907142D01*
X73611904Y-86930952D01*
X73540476Y-86930952D01*
X73445238Y-86907142D01*
X73397619Y-86883333D01*
X73350000Y-86835714D01*
X73326190Y-86764285D01*
X73326190Y-86716666D01*
X73350000Y-86645238D01*
X73373809Y-86621428D01*
X73826190Y-86145238D02*
X73826190Y-86430952D01*
X73826190Y-86288095D02*
X73326190Y-86288095D01*
X73397619Y-86335714D01*
X73445238Y-86383333D01*
X73469047Y-86430952D01*
X73326190Y-85716666D02*
X73326190Y-85811904D01*
X73350000Y-85859523D01*
X73373809Y-85883333D01*
X73445238Y-85930952D01*
X73540476Y-85954761D01*
X73730952Y-85954761D01*
X73778571Y-85930952D01*
X73802380Y-85907142D01*
X73826190Y-85859523D01*
X73826190Y-85764285D01*
X73802380Y-85716666D01*
X73778571Y-85692857D01*
X73730952Y-85669047D01*
X73611904Y-85669047D01*
X73564285Y-85692857D01*
X73540476Y-85716666D01*
X73516666Y-85764285D01*
X73516666Y-85859523D01*
X73540476Y-85907142D01*
X73564285Y-85930952D01*
X73611904Y-85954761D01*
G04 #@! TO.C,C17*
X70078571Y-86621428D02*
X70102380Y-86645238D01*
X70126190Y-86716666D01*
X70126190Y-86764285D01*
X70102380Y-86835714D01*
X70054761Y-86883333D01*
X70007142Y-86907142D01*
X69911904Y-86930952D01*
X69840476Y-86930952D01*
X69745238Y-86907142D01*
X69697619Y-86883333D01*
X69650000Y-86835714D01*
X69626190Y-86764285D01*
X69626190Y-86716666D01*
X69650000Y-86645238D01*
X69673809Y-86621428D01*
X70126190Y-86145238D02*
X70126190Y-86430952D01*
X70126190Y-86288095D02*
X69626190Y-86288095D01*
X69697619Y-86335714D01*
X69745238Y-86383333D01*
X69769047Y-86430952D01*
X69626190Y-85978571D02*
X69626190Y-85645238D01*
X70126190Y-85859523D01*
G04 #@! TO.C,C18*
X102480571Y-98668571D02*
X102456761Y-98692380D01*
X102385333Y-98716190D01*
X102337714Y-98716190D01*
X102266285Y-98692380D01*
X102218666Y-98644761D01*
X102194857Y-98597142D01*
X102171047Y-98501904D01*
X102171047Y-98430476D01*
X102194857Y-98335238D01*
X102218666Y-98287619D01*
X102266285Y-98240000D01*
X102337714Y-98216190D01*
X102385333Y-98216190D01*
X102456761Y-98240000D01*
X102480571Y-98263809D01*
X102956761Y-98716190D02*
X102671047Y-98716190D01*
X102813904Y-98716190D02*
X102813904Y-98216190D01*
X102766285Y-98287619D01*
X102718666Y-98335238D01*
X102671047Y-98359047D01*
X103242476Y-98430476D02*
X103194857Y-98406666D01*
X103171047Y-98382857D01*
X103147238Y-98335238D01*
X103147238Y-98311428D01*
X103171047Y-98263809D01*
X103194857Y-98240000D01*
X103242476Y-98216190D01*
X103337714Y-98216190D01*
X103385333Y-98240000D01*
X103409142Y-98263809D01*
X103432952Y-98311428D01*
X103432952Y-98335238D01*
X103409142Y-98382857D01*
X103385333Y-98406666D01*
X103337714Y-98430476D01*
X103242476Y-98430476D01*
X103194857Y-98454285D01*
X103171047Y-98478095D01*
X103147238Y-98525714D01*
X103147238Y-98620952D01*
X103171047Y-98668571D01*
X103194857Y-98692380D01*
X103242476Y-98716190D01*
X103337714Y-98716190D01*
X103385333Y-98692380D01*
X103409142Y-98668571D01*
X103432952Y-98620952D01*
X103432952Y-98525714D01*
X103409142Y-98478095D01*
X103385333Y-98454285D01*
X103337714Y-98430476D01*
G04 #@! TO.C,C19*
D15*
X68555714Y-68544285D02*
X68593809Y-68582380D01*
X68631904Y-68696666D01*
X68631904Y-68772857D01*
X68593809Y-68887142D01*
X68517619Y-68963333D01*
X68441428Y-69001428D01*
X68289047Y-69039523D01*
X68174761Y-69039523D01*
X68022380Y-69001428D01*
X67946190Y-68963333D01*
X67870000Y-68887142D01*
X67831904Y-68772857D01*
X67831904Y-68696666D01*
X67870000Y-68582380D01*
X67908095Y-68544285D01*
X68631904Y-67782380D02*
X68631904Y-68239523D01*
X68631904Y-68010952D02*
X67831904Y-68010952D01*
X67946190Y-68087142D01*
X68022380Y-68163333D01*
X68060476Y-68239523D01*
X68631904Y-67401428D02*
X68631904Y-67249047D01*
X68593809Y-67172857D01*
X68555714Y-67134761D01*
X68441428Y-67058571D01*
X68289047Y-67020476D01*
X67984285Y-67020476D01*
X67908095Y-67058571D01*
X67870000Y-67096666D01*
X67831904Y-67172857D01*
X67831904Y-67325238D01*
X67870000Y-67401428D01*
X67908095Y-67439523D01*
X67984285Y-67477619D01*
X68174761Y-67477619D01*
X68250952Y-67439523D01*
X68289047Y-67401428D01*
X68327142Y-67325238D01*
X68327142Y-67172857D01*
X68289047Y-67096666D01*
X68250952Y-67058571D01*
X68174761Y-67020476D01*
G04 #@! TO.C,C20*
X168785714Y-111964285D02*
X168823809Y-112002380D01*
X168861904Y-112116666D01*
X168861904Y-112192857D01*
X168823809Y-112307142D01*
X168747619Y-112383333D01*
X168671428Y-112421428D01*
X168519047Y-112459523D01*
X168404761Y-112459523D01*
X168252380Y-112421428D01*
X168176190Y-112383333D01*
X168100000Y-112307142D01*
X168061904Y-112192857D01*
X168061904Y-112116666D01*
X168100000Y-112002380D01*
X168138095Y-111964285D01*
X168138095Y-111659523D02*
X168100000Y-111621428D01*
X168061904Y-111545238D01*
X168061904Y-111354761D01*
X168100000Y-111278571D01*
X168138095Y-111240476D01*
X168214285Y-111202380D01*
X168290476Y-111202380D01*
X168404761Y-111240476D01*
X168861904Y-111697619D01*
X168861904Y-111202380D01*
X168061904Y-110707142D02*
X168061904Y-110630952D01*
X168100000Y-110554761D01*
X168138095Y-110516666D01*
X168214285Y-110478571D01*
X168366666Y-110440476D01*
X168557142Y-110440476D01*
X168709523Y-110478571D01*
X168785714Y-110516666D01*
X168823809Y-110554761D01*
X168861904Y-110630952D01*
X168861904Y-110707142D01*
X168823809Y-110783333D01*
X168785714Y-110821428D01*
X168709523Y-110859523D01*
X168557142Y-110897619D01*
X168366666Y-110897619D01*
X168214285Y-110859523D01*
X168138095Y-110821428D01*
X168100000Y-110783333D01*
X168061904Y-110707142D01*
G04 #@! TO.C,C21*
D14*
X75148571Y-68781428D02*
X75172380Y-68805238D01*
X75196190Y-68876666D01*
X75196190Y-68924285D01*
X75172380Y-68995714D01*
X75124761Y-69043333D01*
X75077142Y-69067142D01*
X74981904Y-69090952D01*
X74910476Y-69090952D01*
X74815238Y-69067142D01*
X74767619Y-69043333D01*
X74720000Y-68995714D01*
X74696190Y-68924285D01*
X74696190Y-68876666D01*
X74720000Y-68805238D01*
X74743809Y-68781428D01*
X74743809Y-68590952D02*
X74720000Y-68567142D01*
X74696190Y-68519523D01*
X74696190Y-68400476D01*
X74720000Y-68352857D01*
X74743809Y-68329047D01*
X74791428Y-68305238D01*
X74839047Y-68305238D01*
X74910476Y-68329047D01*
X75196190Y-68614761D01*
X75196190Y-68305238D01*
X75196190Y-67829047D02*
X75196190Y-68114761D01*
X75196190Y-67971904D02*
X74696190Y-67971904D01*
X74767619Y-68019523D01*
X74815238Y-68067142D01*
X74839047Y-68114761D01*
G04 #@! TO.C,C22*
X82728571Y-72321428D02*
X82752380Y-72345238D01*
X82776190Y-72416666D01*
X82776190Y-72464285D01*
X82752380Y-72535714D01*
X82704761Y-72583333D01*
X82657142Y-72607142D01*
X82561904Y-72630952D01*
X82490476Y-72630952D01*
X82395238Y-72607142D01*
X82347619Y-72583333D01*
X82300000Y-72535714D01*
X82276190Y-72464285D01*
X82276190Y-72416666D01*
X82300000Y-72345238D01*
X82323809Y-72321428D01*
X82323809Y-72130952D02*
X82300000Y-72107142D01*
X82276190Y-72059523D01*
X82276190Y-71940476D01*
X82300000Y-71892857D01*
X82323809Y-71869047D01*
X82371428Y-71845238D01*
X82419047Y-71845238D01*
X82490476Y-71869047D01*
X82776190Y-72154761D01*
X82776190Y-71845238D01*
X82323809Y-71654761D02*
X82300000Y-71630952D01*
X82276190Y-71583333D01*
X82276190Y-71464285D01*
X82300000Y-71416666D01*
X82323809Y-71392857D01*
X82371428Y-71369047D01*
X82419047Y-71369047D01*
X82490476Y-71392857D01*
X82776190Y-71678571D01*
X82776190Y-71369047D01*
G04 #@! TO.C,C24*
D12*
X173707142Y-112692857D02*
X173754761Y-112740476D01*
X173802380Y-112883333D01*
X173802380Y-112978571D01*
X173754761Y-113121428D01*
X173659523Y-113216666D01*
X173564285Y-113264285D01*
X173373809Y-113311904D01*
X173230952Y-113311904D01*
X173040476Y-113264285D01*
X172945238Y-113216666D01*
X172850000Y-113121428D01*
X172802380Y-112978571D01*
X172802380Y-112883333D01*
X172850000Y-112740476D01*
X172897619Y-112692857D01*
X172897619Y-112311904D02*
X172850000Y-112264285D01*
X172802380Y-112169047D01*
X172802380Y-111930952D01*
X172850000Y-111835714D01*
X172897619Y-111788095D01*
X172992857Y-111740476D01*
X173088095Y-111740476D01*
X173230952Y-111788095D01*
X173802380Y-112359523D01*
X173802380Y-111740476D01*
X173135714Y-110883333D02*
X173802380Y-110883333D01*
X172754761Y-111121428D02*
X173469047Y-111359523D01*
X173469047Y-110740476D01*
G04 #@! TO.C,C25*
D15*
X111985714Y-97564285D02*
X112023809Y-97602380D01*
X112061904Y-97716666D01*
X112061904Y-97792857D01*
X112023809Y-97907142D01*
X111947619Y-97983333D01*
X111871428Y-98021428D01*
X111719047Y-98059523D01*
X111604761Y-98059523D01*
X111452380Y-98021428D01*
X111376190Y-97983333D01*
X111300000Y-97907142D01*
X111261904Y-97792857D01*
X111261904Y-97716666D01*
X111300000Y-97602380D01*
X111338095Y-97564285D01*
X111338095Y-97259523D02*
X111300000Y-97221428D01*
X111261904Y-97145238D01*
X111261904Y-96954761D01*
X111300000Y-96878571D01*
X111338095Y-96840476D01*
X111414285Y-96802380D01*
X111490476Y-96802380D01*
X111604761Y-96840476D01*
X112061904Y-97297619D01*
X112061904Y-96802380D01*
X111261904Y-96078571D02*
X111261904Y-96459523D01*
X111642857Y-96497619D01*
X111604761Y-96459523D01*
X111566666Y-96383333D01*
X111566666Y-96192857D01*
X111604761Y-96116666D01*
X111642857Y-96078571D01*
X111719047Y-96040476D01*
X111909523Y-96040476D01*
X111985714Y-96078571D01*
X112023809Y-96116666D01*
X112061904Y-96192857D01*
X112061904Y-96383333D01*
X112023809Y-96459523D01*
X111985714Y-96497619D01*
G04 #@! TO.C,C26*
D14*
X71958571Y-68801428D02*
X71982380Y-68825238D01*
X72006190Y-68896666D01*
X72006190Y-68944285D01*
X71982380Y-69015714D01*
X71934761Y-69063333D01*
X71887142Y-69087142D01*
X71791904Y-69110952D01*
X71720476Y-69110952D01*
X71625238Y-69087142D01*
X71577619Y-69063333D01*
X71530000Y-69015714D01*
X71506190Y-68944285D01*
X71506190Y-68896666D01*
X71530000Y-68825238D01*
X71553809Y-68801428D01*
X71553809Y-68610952D02*
X71530000Y-68587142D01*
X71506190Y-68539523D01*
X71506190Y-68420476D01*
X71530000Y-68372857D01*
X71553809Y-68349047D01*
X71601428Y-68325238D01*
X71649047Y-68325238D01*
X71720476Y-68349047D01*
X72006190Y-68634761D01*
X72006190Y-68325238D01*
X71506190Y-67896666D02*
X71506190Y-67991904D01*
X71530000Y-68039523D01*
X71553809Y-68063333D01*
X71625238Y-68110952D01*
X71720476Y-68134761D01*
X71910952Y-68134761D01*
X71958571Y-68110952D01*
X71982380Y-68087142D01*
X72006190Y-68039523D01*
X72006190Y-67944285D01*
X71982380Y-67896666D01*
X71958571Y-67872857D01*
X71910952Y-67849047D01*
X71791904Y-67849047D01*
X71744285Y-67872857D01*
X71720476Y-67896666D01*
X71696666Y-67944285D01*
X71696666Y-68039523D01*
X71720476Y-68087142D01*
X71744285Y-68110952D01*
X71791904Y-68134761D01*
G04 #@! TO.C,C27*
D15*
X149955714Y-91565714D02*
X149917619Y-91603809D01*
X149803333Y-91641904D01*
X149727142Y-91641904D01*
X149612857Y-91603809D01*
X149536666Y-91527619D01*
X149498571Y-91451428D01*
X149460476Y-91299047D01*
X149460476Y-91184761D01*
X149498571Y-91032380D01*
X149536666Y-90956190D01*
X149612857Y-90880000D01*
X149727142Y-90841904D01*
X149803333Y-90841904D01*
X149917619Y-90880000D01*
X149955714Y-90918095D01*
X150260476Y-90918095D02*
X150298571Y-90880000D01*
X150374761Y-90841904D01*
X150565238Y-90841904D01*
X150641428Y-90880000D01*
X150679523Y-90918095D01*
X150717619Y-90994285D01*
X150717619Y-91070476D01*
X150679523Y-91184761D01*
X150222380Y-91641904D01*
X150717619Y-91641904D01*
X150984285Y-90841904D02*
X151517619Y-90841904D01*
X151174761Y-91641904D01*
G04 #@! TO.C,D6*
D14*
X127694190Y-130663047D02*
X127194190Y-130663047D01*
X127194190Y-130544000D01*
X127218000Y-130472571D01*
X127265619Y-130424952D01*
X127313238Y-130401142D01*
X127408476Y-130377333D01*
X127479904Y-130377333D01*
X127575142Y-130401142D01*
X127622761Y-130424952D01*
X127670380Y-130472571D01*
X127694190Y-130544000D01*
X127694190Y-130663047D01*
X127194190Y-129948761D02*
X127194190Y-130044000D01*
X127218000Y-130091619D01*
X127241809Y-130115428D01*
X127313238Y-130163047D01*
X127408476Y-130186857D01*
X127598952Y-130186857D01*
X127646571Y-130163047D01*
X127670380Y-130139238D01*
X127694190Y-130091619D01*
X127694190Y-129996380D01*
X127670380Y-129948761D01*
X127646571Y-129924952D01*
X127598952Y-129901142D01*
X127479904Y-129901142D01*
X127432285Y-129924952D01*
X127408476Y-129948761D01*
X127384666Y-129996380D01*
X127384666Y-130091619D01*
X127408476Y-130139238D01*
X127432285Y-130163047D01*
X127479904Y-130186857D01*
G04 #@! TO.C,D7*
D12*
X137852380Y-98288095D02*
X136852380Y-98288095D01*
X136852380Y-98050000D01*
X136900000Y-97907142D01*
X136995238Y-97811904D01*
X137090476Y-97764285D01*
X137280952Y-97716666D01*
X137423809Y-97716666D01*
X137614285Y-97764285D01*
X137709523Y-97811904D01*
X137804761Y-97907142D01*
X137852380Y-98050000D01*
X137852380Y-98288095D01*
X136852380Y-97383333D02*
X136852380Y-96716666D01*
X137852380Y-97145238D01*
G04 #@! TO.C,D8*
X114202380Y-104288095D02*
X113202380Y-104288095D01*
X113202380Y-104050000D01*
X113250000Y-103907142D01*
X113345238Y-103811904D01*
X113440476Y-103764285D01*
X113630952Y-103716666D01*
X113773809Y-103716666D01*
X113964285Y-103764285D01*
X114059523Y-103811904D01*
X114154761Y-103907142D01*
X114202380Y-104050000D01*
X114202380Y-104288095D01*
X113630952Y-103145238D02*
X113583333Y-103240476D01*
X113535714Y-103288095D01*
X113440476Y-103335714D01*
X113392857Y-103335714D01*
X113297619Y-103288095D01*
X113250000Y-103240476D01*
X113202380Y-103145238D01*
X113202380Y-102954761D01*
X113250000Y-102859523D01*
X113297619Y-102811904D01*
X113392857Y-102764285D01*
X113440476Y-102764285D01*
X113535714Y-102811904D01*
X113583333Y-102859523D01*
X113630952Y-102954761D01*
X113630952Y-103145238D01*
X113678571Y-103240476D01*
X113726190Y-103288095D01*
X113821428Y-103335714D01*
X114011904Y-103335714D01*
X114107142Y-103288095D01*
X114154761Y-103240476D01*
X114202380Y-103145238D01*
X114202380Y-102954761D01*
X114154761Y-102859523D01*
X114107142Y-102811904D01*
X114011904Y-102764285D01*
X113821428Y-102764285D01*
X113726190Y-102811904D01*
X113678571Y-102859523D01*
X113630952Y-102954761D01*
G04 #@! TO.C,F1*
D15*
X107683333Y-124642857D02*
X107416666Y-124642857D01*
X107416666Y-125061904D02*
X107416666Y-124261904D01*
X107797619Y-124261904D01*
X108521428Y-125061904D02*
X108064285Y-125061904D01*
X108292857Y-125061904D02*
X108292857Y-124261904D01*
X108216666Y-124376190D01*
X108140476Y-124452380D01*
X108064285Y-124490476D01*
G04 #@! TO.C,F2*
X107683333Y-120922857D02*
X107416666Y-120922857D01*
X107416666Y-121341904D02*
X107416666Y-120541904D01*
X107797619Y-120541904D01*
X108064285Y-120618095D02*
X108102380Y-120580000D01*
X108178571Y-120541904D01*
X108369047Y-120541904D01*
X108445238Y-120580000D01*
X108483333Y-120618095D01*
X108521428Y-120694285D01*
X108521428Y-120770476D01*
X108483333Y-120884761D01*
X108026190Y-121341904D01*
X108521428Y-121341904D01*
G04 #@! TO.C,J2*
D12*
X63216666Y-136802380D02*
X63216666Y-137516666D01*
X63169047Y-137659523D01*
X63073809Y-137754761D01*
X62930952Y-137802380D01*
X62835714Y-137802380D01*
X63645238Y-136897619D02*
X63692857Y-136850000D01*
X63788095Y-136802380D01*
X64026190Y-136802380D01*
X64121428Y-136850000D01*
X64169047Y-136897619D01*
X64216666Y-136992857D01*
X64216666Y-137088095D01*
X64169047Y-137230952D01*
X63597619Y-137802380D01*
X64216666Y-137802380D01*
G04 #@! TO.C,J3*
X99916666Y-134852380D02*
X99916666Y-135566666D01*
X99869047Y-135709523D01*
X99773809Y-135804761D01*
X99630952Y-135852380D01*
X99535714Y-135852380D01*
X100297619Y-134852380D02*
X100916666Y-134852380D01*
X100583333Y-135233333D01*
X100726190Y-135233333D01*
X100821428Y-135280952D01*
X100869047Y-135328571D01*
X100916666Y-135423809D01*
X100916666Y-135661904D01*
X100869047Y-135757142D01*
X100821428Y-135804761D01*
X100726190Y-135852380D01*
X100440476Y-135852380D01*
X100345238Y-135804761D01*
X100297619Y-135757142D01*
G04 #@! TO.C,J5*
X121452380Y-83683333D02*
X122166666Y-83683333D01*
X122309523Y-83730952D01*
X122404761Y-83826190D01*
X122452380Y-83969047D01*
X122452380Y-84064285D01*
X121452380Y-82730952D02*
X121452380Y-83207142D01*
X121928571Y-83254761D01*
X121880952Y-83207142D01*
X121833333Y-83111904D01*
X121833333Y-82873809D01*
X121880952Y-82778571D01*
X121928571Y-82730952D01*
X122023809Y-82683333D01*
X122261904Y-82683333D01*
X122357142Y-82730952D01*
X122404761Y-82778571D01*
X122452380Y-82873809D01*
X122452380Y-83111904D01*
X122404761Y-83207142D01*
X122357142Y-83254761D01*
G04 #@! TO.C,J11*
X121452380Y-107659523D02*
X122166666Y-107659523D01*
X122309523Y-107707142D01*
X122404761Y-107802380D01*
X122452380Y-107945238D01*
X122452380Y-108040476D01*
X122452380Y-106659523D02*
X122452380Y-107230952D01*
X122452380Y-106945238D02*
X121452380Y-106945238D01*
X121595238Y-107040476D01*
X121690476Y-107135714D01*
X121738095Y-107230952D01*
X122452380Y-105707142D02*
X122452380Y-106278571D01*
X122452380Y-105992857D02*
X121452380Y-105992857D01*
X121595238Y-106088095D01*
X121690476Y-106183333D01*
X121738095Y-106278571D01*
G04 #@! TO.C,J12*
X121452380Y-95759523D02*
X122166666Y-95759523D01*
X122309523Y-95807142D01*
X122404761Y-95902380D01*
X122452380Y-96045238D01*
X122452380Y-96140476D01*
X122452380Y-94759523D02*
X122452380Y-95330952D01*
X122452380Y-95045238D02*
X121452380Y-95045238D01*
X121595238Y-95140476D01*
X121690476Y-95235714D01*
X121738095Y-95330952D01*
X121547619Y-94378571D02*
X121500000Y-94330952D01*
X121452380Y-94235714D01*
X121452380Y-93997619D01*
X121500000Y-93902380D01*
X121547619Y-93854761D01*
X121642857Y-93807142D01*
X121738095Y-93807142D01*
X121880952Y-93854761D01*
X122452380Y-94426190D01*
X122452380Y-93807142D01*
G04 #@! TO.C,L2*
D14*
X64826190Y-74833333D02*
X64826190Y-75071428D01*
X64326190Y-75071428D01*
X64373809Y-74690476D02*
X64350000Y-74666666D01*
X64326190Y-74619047D01*
X64326190Y-74500000D01*
X64350000Y-74452380D01*
X64373809Y-74428571D01*
X64421428Y-74404761D01*
X64469047Y-74404761D01*
X64540476Y-74428571D01*
X64826190Y-74714285D01*
X64826190Y-74404761D01*
G04 #@! TO.C,L3*
X64826190Y-70483333D02*
X64826190Y-70721428D01*
X64326190Y-70721428D01*
X64326190Y-70364285D02*
X64326190Y-70054761D01*
X64516666Y-70221428D01*
X64516666Y-70150000D01*
X64540476Y-70102380D01*
X64564285Y-70078571D01*
X64611904Y-70054761D01*
X64730952Y-70054761D01*
X64778571Y-70078571D01*
X64802380Y-70102380D01*
X64826190Y-70150000D01*
X64826190Y-70292857D01*
X64802380Y-70340476D01*
X64778571Y-70364285D01*
G04 #@! TO.C,Q1*
D17*
X175623809Y-70347619D02*
X175600000Y-70395238D01*
X175552380Y-70442857D01*
X175480952Y-70514285D01*
X175457142Y-70561904D01*
X175457142Y-70609523D01*
X175576190Y-70585714D02*
X175552380Y-70633333D01*
X175504761Y-70680952D01*
X175409523Y-70704761D01*
X175242857Y-70704761D01*
X175147619Y-70680952D01*
X175100000Y-70633333D01*
X175076190Y-70585714D01*
X175076190Y-70490476D01*
X175100000Y-70442857D01*
X175147619Y-70395238D01*
X175242857Y-70371428D01*
X175409523Y-70371428D01*
X175504761Y-70395238D01*
X175552380Y-70442857D01*
X175576190Y-70490476D01*
X175576190Y-70585714D01*
X175576190Y-69895238D02*
X175576190Y-70180952D01*
X175576190Y-70038095D02*
X175076190Y-70038095D01*
X175147619Y-70085714D01*
X175195238Y-70133333D01*
X175219047Y-70180952D01*
G04 #@! TO.C,Q2*
X177602380Y-66023809D02*
X177554761Y-66000000D01*
X177507142Y-65952380D01*
X177435714Y-65880952D01*
X177388095Y-65857142D01*
X177340476Y-65857142D01*
X177364285Y-65976190D02*
X177316666Y-65952380D01*
X177269047Y-65904761D01*
X177245238Y-65809523D01*
X177245238Y-65642857D01*
X177269047Y-65547619D01*
X177316666Y-65500000D01*
X177364285Y-65476190D01*
X177459523Y-65476190D01*
X177507142Y-65500000D01*
X177554761Y-65547619D01*
X177578571Y-65642857D01*
X177578571Y-65809523D01*
X177554761Y-65904761D01*
X177507142Y-65952380D01*
X177459523Y-65976190D01*
X177364285Y-65976190D01*
X177769047Y-65523809D02*
X177792857Y-65500000D01*
X177840476Y-65476190D01*
X177959523Y-65476190D01*
X178007142Y-65500000D01*
X178030952Y-65523809D01*
X178054761Y-65571428D01*
X178054761Y-65619047D01*
X178030952Y-65690476D01*
X177745238Y-65976190D01*
X178054761Y-65976190D01*
G04 #@! TO.C,Q3*
X181752380Y-66023809D02*
X181704761Y-66000000D01*
X181657142Y-65952380D01*
X181585714Y-65880952D01*
X181538095Y-65857142D01*
X181490476Y-65857142D01*
X181514285Y-65976190D02*
X181466666Y-65952380D01*
X181419047Y-65904761D01*
X181395238Y-65809523D01*
X181395238Y-65642857D01*
X181419047Y-65547619D01*
X181466666Y-65500000D01*
X181514285Y-65476190D01*
X181609523Y-65476190D01*
X181657142Y-65500000D01*
X181704761Y-65547619D01*
X181728571Y-65642857D01*
X181728571Y-65809523D01*
X181704761Y-65904761D01*
X181657142Y-65952380D01*
X181609523Y-65976190D01*
X181514285Y-65976190D01*
X181895238Y-65476190D02*
X182204761Y-65476190D01*
X182038095Y-65666666D01*
X182109523Y-65666666D01*
X182157142Y-65690476D01*
X182180952Y-65714285D01*
X182204761Y-65761904D01*
X182204761Y-65880952D01*
X182180952Y-65928571D01*
X182157142Y-65952380D01*
X182109523Y-65976190D01*
X181966666Y-65976190D01*
X181919047Y-65952380D01*
X181895238Y-65928571D01*
G04 #@! TO.C,Q4*
X118652380Y-115823809D02*
X118604761Y-115800000D01*
X118557142Y-115752380D01*
X118485714Y-115680952D01*
X118438095Y-115657142D01*
X118390476Y-115657142D01*
X118414285Y-115776190D02*
X118366666Y-115752380D01*
X118319047Y-115704761D01*
X118295238Y-115609523D01*
X118295238Y-115442857D01*
X118319047Y-115347619D01*
X118366666Y-115300000D01*
X118414285Y-115276190D01*
X118509523Y-115276190D01*
X118557142Y-115300000D01*
X118604761Y-115347619D01*
X118628571Y-115442857D01*
X118628571Y-115609523D01*
X118604761Y-115704761D01*
X118557142Y-115752380D01*
X118509523Y-115776190D01*
X118414285Y-115776190D01*
X119057142Y-115442857D02*
X119057142Y-115776190D01*
X118938095Y-115252380D02*
X118819047Y-115609523D01*
X119128571Y-115609523D01*
G04 #@! TO.C,Q5*
X113356380Y-118541809D02*
X113308761Y-118518000D01*
X113261142Y-118470380D01*
X113189714Y-118398952D01*
X113142095Y-118375142D01*
X113094476Y-118375142D01*
X113118285Y-118494190D02*
X113070666Y-118470380D01*
X113023047Y-118422761D01*
X112999238Y-118327523D01*
X112999238Y-118160857D01*
X113023047Y-118065619D01*
X113070666Y-118018000D01*
X113118285Y-117994190D01*
X113213523Y-117994190D01*
X113261142Y-118018000D01*
X113308761Y-118065619D01*
X113332571Y-118160857D01*
X113332571Y-118327523D01*
X113308761Y-118422761D01*
X113261142Y-118470380D01*
X113213523Y-118494190D01*
X113118285Y-118494190D01*
X113784952Y-117994190D02*
X113546857Y-117994190D01*
X113523047Y-118232285D01*
X113546857Y-118208476D01*
X113594476Y-118184666D01*
X113713523Y-118184666D01*
X113761142Y-118208476D01*
X113784952Y-118232285D01*
X113808761Y-118279904D01*
X113808761Y-118398952D01*
X113784952Y-118446571D01*
X113761142Y-118470380D01*
X113713523Y-118494190D01*
X113594476Y-118494190D01*
X113546857Y-118470380D01*
X113523047Y-118446571D01*
G04 #@! TO.C,Q7*
X146152380Y-95523809D02*
X146104761Y-95500000D01*
X146057142Y-95452380D01*
X145985714Y-95380952D01*
X145938095Y-95357142D01*
X145890476Y-95357142D01*
X145914285Y-95476190D02*
X145866666Y-95452380D01*
X145819047Y-95404761D01*
X145795238Y-95309523D01*
X145795238Y-95142857D01*
X145819047Y-95047619D01*
X145866666Y-95000000D01*
X145914285Y-94976190D01*
X146009523Y-94976190D01*
X146057142Y-95000000D01*
X146104761Y-95047619D01*
X146128571Y-95142857D01*
X146128571Y-95309523D01*
X146104761Y-95404761D01*
X146057142Y-95452380D01*
X146009523Y-95476190D01*
X145914285Y-95476190D01*
X146295238Y-94976190D02*
X146628571Y-94976190D01*
X146414285Y-95476190D01*
G04 #@! TO.C,Q8*
X145673809Y-91197619D02*
X145650000Y-91245238D01*
X145602380Y-91292857D01*
X145530952Y-91364285D01*
X145507142Y-91411904D01*
X145507142Y-91459523D01*
X145626190Y-91435714D02*
X145602380Y-91483333D01*
X145554761Y-91530952D01*
X145459523Y-91554761D01*
X145292857Y-91554761D01*
X145197619Y-91530952D01*
X145150000Y-91483333D01*
X145126190Y-91435714D01*
X145126190Y-91340476D01*
X145150000Y-91292857D01*
X145197619Y-91245238D01*
X145292857Y-91221428D01*
X145459523Y-91221428D01*
X145554761Y-91245238D01*
X145602380Y-91292857D01*
X145626190Y-91340476D01*
X145626190Y-91435714D01*
X145340476Y-90935714D02*
X145316666Y-90983333D01*
X145292857Y-91007142D01*
X145245238Y-91030952D01*
X145221428Y-91030952D01*
X145173809Y-91007142D01*
X145150000Y-90983333D01*
X145126190Y-90935714D01*
X145126190Y-90840476D01*
X145150000Y-90792857D01*
X145173809Y-90769047D01*
X145221428Y-90745238D01*
X145245238Y-90745238D01*
X145292857Y-90769047D01*
X145316666Y-90792857D01*
X145340476Y-90840476D01*
X145340476Y-90935714D01*
X145364285Y-90983333D01*
X145388095Y-91007142D01*
X145435714Y-91030952D01*
X145530952Y-91030952D01*
X145578571Y-91007142D01*
X145602380Y-90983333D01*
X145626190Y-90935714D01*
X145626190Y-90840476D01*
X145602380Y-90792857D01*
X145578571Y-90769047D01*
X145530952Y-90745238D01*
X145435714Y-90745238D01*
X145388095Y-90769047D01*
X145364285Y-90792857D01*
X145340476Y-90840476D01*
G04 #@! TO.C,R1*
D14*
X169226190Y-65883333D02*
X168988095Y-66050000D01*
X169226190Y-66169047D02*
X168726190Y-66169047D01*
X168726190Y-65978571D01*
X168750000Y-65930952D01*
X168773809Y-65907142D01*
X168821428Y-65883333D01*
X168892857Y-65883333D01*
X168940476Y-65907142D01*
X168964285Y-65930952D01*
X168988095Y-65978571D01*
X168988095Y-66169047D01*
X169226190Y-65407142D02*
X169226190Y-65692857D01*
X169226190Y-65550000D02*
X168726190Y-65550000D01*
X168797619Y-65597619D01*
X168845238Y-65645238D01*
X168869047Y-65692857D01*
G04 #@! TO.C,R2*
X171826190Y-65883333D02*
X171588095Y-66050000D01*
X171826190Y-66169047D02*
X171326190Y-66169047D01*
X171326190Y-65978571D01*
X171350000Y-65930952D01*
X171373809Y-65907142D01*
X171421428Y-65883333D01*
X171492857Y-65883333D01*
X171540476Y-65907142D01*
X171564285Y-65930952D01*
X171588095Y-65978571D01*
X171588095Y-66169047D01*
X171373809Y-65692857D02*
X171350000Y-65669047D01*
X171326190Y-65621428D01*
X171326190Y-65502380D01*
X171350000Y-65454761D01*
X171373809Y-65430952D01*
X171421428Y-65407142D01*
X171469047Y-65407142D01*
X171540476Y-65430952D01*
X171826190Y-65716666D01*
X171826190Y-65407142D01*
G04 #@! TO.C,R3*
X120766666Y-122276190D02*
X120600000Y-122038095D01*
X120480952Y-122276190D02*
X120480952Y-121776190D01*
X120671428Y-121776190D01*
X120719047Y-121800000D01*
X120742857Y-121823809D01*
X120766666Y-121871428D01*
X120766666Y-121942857D01*
X120742857Y-121990476D01*
X120719047Y-122014285D01*
X120671428Y-122038095D01*
X120480952Y-122038095D01*
X120933333Y-121776190D02*
X121242857Y-121776190D01*
X121076190Y-121966666D01*
X121147619Y-121966666D01*
X121195238Y-121990476D01*
X121219047Y-122014285D01*
X121242857Y-122061904D01*
X121242857Y-122180952D01*
X121219047Y-122228571D01*
X121195238Y-122252380D01*
X121147619Y-122276190D01*
X121004761Y-122276190D01*
X120957142Y-122252380D01*
X120933333Y-122228571D01*
G04 #@! TO.C,R4*
X71286666Y-119846190D02*
X71120000Y-119608095D01*
X71000952Y-119846190D02*
X71000952Y-119346190D01*
X71191428Y-119346190D01*
X71239047Y-119370000D01*
X71262857Y-119393809D01*
X71286666Y-119441428D01*
X71286666Y-119512857D01*
X71262857Y-119560476D01*
X71239047Y-119584285D01*
X71191428Y-119608095D01*
X71000952Y-119608095D01*
X71715238Y-119512857D02*
X71715238Y-119846190D01*
X71596190Y-119322380D02*
X71477142Y-119679523D01*
X71786666Y-119679523D01*
G04 #@! TO.C,R5*
X71286666Y-117346190D02*
X71120000Y-117108095D01*
X71000952Y-117346190D02*
X71000952Y-116846190D01*
X71191428Y-116846190D01*
X71239047Y-116870000D01*
X71262857Y-116893809D01*
X71286666Y-116941428D01*
X71286666Y-117012857D01*
X71262857Y-117060476D01*
X71239047Y-117084285D01*
X71191428Y-117108095D01*
X71000952Y-117108095D01*
X71739047Y-116846190D02*
X71500952Y-116846190D01*
X71477142Y-117084285D01*
X71500952Y-117060476D01*
X71548571Y-117036666D01*
X71667619Y-117036666D01*
X71715238Y-117060476D01*
X71739047Y-117084285D01*
X71762857Y-117131904D01*
X71762857Y-117250952D01*
X71739047Y-117298571D01*
X71715238Y-117322380D01*
X71667619Y-117346190D01*
X71548571Y-117346190D01*
X71500952Y-117322380D01*
X71477142Y-117298571D01*
G04 #@! TO.C,R6*
X182316666Y-69276190D02*
X182150000Y-69038095D01*
X182030952Y-69276190D02*
X182030952Y-68776190D01*
X182221428Y-68776190D01*
X182269047Y-68800000D01*
X182292857Y-68823809D01*
X182316666Y-68871428D01*
X182316666Y-68942857D01*
X182292857Y-68990476D01*
X182269047Y-69014285D01*
X182221428Y-69038095D01*
X182030952Y-69038095D01*
X182745238Y-68776190D02*
X182650000Y-68776190D01*
X182602380Y-68800000D01*
X182578571Y-68823809D01*
X182530952Y-68895238D01*
X182507142Y-68990476D01*
X182507142Y-69180952D01*
X182530952Y-69228571D01*
X182554761Y-69252380D01*
X182602380Y-69276190D01*
X182697619Y-69276190D01*
X182745238Y-69252380D01*
X182769047Y-69228571D01*
X182792857Y-69180952D01*
X182792857Y-69061904D01*
X182769047Y-69014285D01*
X182745238Y-68990476D01*
X182697619Y-68966666D01*
X182602380Y-68966666D01*
X182554761Y-68990476D01*
X182530952Y-69014285D01*
X182507142Y-69061904D01*
G04 #@! TO.C,R7*
X182341666Y-71726190D02*
X182175000Y-71488095D01*
X182055952Y-71726190D02*
X182055952Y-71226190D01*
X182246428Y-71226190D01*
X182294047Y-71250000D01*
X182317857Y-71273809D01*
X182341666Y-71321428D01*
X182341666Y-71392857D01*
X182317857Y-71440476D01*
X182294047Y-71464285D01*
X182246428Y-71488095D01*
X182055952Y-71488095D01*
X182508333Y-71226190D02*
X182841666Y-71226190D01*
X182627380Y-71726190D01*
G04 #@! TO.C,R8*
X113216666Y-114946190D02*
X113050000Y-114708095D01*
X112930952Y-114946190D02*
X112930952Y-114446190D01*
X113121428Y-114446190D01*
X113169047Y-114470000D01*
X113192857Y-114493809D01*
X113216666Y-114541428D01*
X113216666Y-114612857D01*
X113192857Y-114660476D01*
X113169047Y-114684285D01*
X113121428Y-114708095D01*
X112930952Y-114708095D01*
X113502380Y-114660476D02*
X113454761Y-114636666D01*
X113430952Y-114612857D01*
X113407142Y-114565238D01*
X113407142Y-114541428D01*
X113430952Y-114493809D01*
X113454761Y-114470000D01*
X113502380Y-114446190D01*
X113597619Y-114446190D01*
X113645238Y-114470000D01*
X113669047Y-114493809D01*
X113692857Y-114541428D01*
X113692857Y-114565238D01*
X113669047Y-114612857D01*
X113645238Y-114636666D01*
X113597619Y-114660476D01*
X113502380Y-114660476D01*
X113454761Y-114684285D01*
X113430952Y-114708095D01*
X113407142Y-114755714D01*
X113407142Y-114850952D01*
X113430952Y-114898571D01*
X113454761Y-114922380D01*
X113502380Y-114946190D01*
X113597619Y-114946190D01*
X113645238Y-114922380D01*
X113669047Y-114898571D01*
X113692857Y-114850952D01*
X113692857Y-114755714D01*
X113669047Y-114708095D01*
X113645238Y-114684285D01*
X113597619Y-114660476D01*
G04 #@! TO.C,R9*
X185426190Y-65883333D02*
X185188095Y-66050000D01*
X185426190Y-66169047D02*
X184926190Y-66169047D01*
X184926190Y-65978571D01*
X184950000Y-65930952D01*
X184973809Y-65907142D01*
X185021428Y-65883333D01*
X185092857Y-65883333D01*
X185140476Y-65907142D01*
X185164285Y-65930952D01*
X185188095Y-65978571D01*
X185188095Y-66169047D01*
X185426190Y-65645238D02*
X185426190Y-65550000D01*
X185402380Y-65502380D01*
X185378571Y-65478571D01*
X185307142Y-65430952D01*
X185211904Y-65407142D01*
X185021428Y-65407142D01*
X184973809Y-65430952D01*
X184950000Y-65454761D01*
X184926190Y-65502380D01*
X184926190Y-65597619D01*
X184950000Y-65645238D01*
X184973809Y-65669047D01*
X185021428Y-65692857D01*
X185140476Y-65692857D01*
X185188095Y-65669047D01*
X185211904Y-65645238D01*
X185235714Y-65597619D01*
X185235714Y-65502380D01*
X185211904Y-65454761D01*
X185188095Y-65430952D01*
X185140476Y-65407142D01*
G04 #@! TO.C,R10*
X127694190Y-135695428D02*
X127456095Y-135862095D01*
X127694190Y-135981142D02*
X127194190Y-135981142D01*
X127194190Y-135790666D01*
X127218000Y-135743047D01*
X127241809Y-135719238D01*
X127289428Y-135695428D01*
X127360857Y-135695428D01*
X127408476Y-135719238D01*
X127432285Y-135743047D01*
X127456095Y-135790666D01*
X127456095Y-135981142D01*
X127694190Y-135219238D02*
X127694190Y-135504952D01*
X127694190Y-135362095D02*
X127194190Y-135362095D01*
X127265619Y-135409714D01*
X127313238Y-135457333D01*
X127337047Y-135504952D01*
X127194190Y-134909714D02*
X127194190Y-134862095D01*
X127218000Y-134814476D01*
X127241809Y-134790666D01*
X127289428Y-134766857D01*
X127384666Y-134743047D01*
X127503714Y-134743047D01*
X127598952Y-134766857D01*
X127646571Y-134790666D01*
X127670380Y-134814476D01*
X127694190Y-134862095D01*
X127694190Y-134909714D01*
X127670380Y-134957333D01*
X127646571Y-134981142D01*
X127598952Y-135004952D01*
X127503714Y-135028761D01*
X127384666Y-135028761D01*
X127289428Y-135004952D01*
X127241809Y-134981142D01*
X127218000Y-134957333D01*
X127194190Y-134909714D01*
G04 #@! TO.C,R11*
X150028571Y-99226190D02*
X149861904Y-98988095D01*
X149742857Y-99226190D02*
X149742857Y-98726190D01*
X149933333Y-98726190D01*
X149980952Y-98750000D01*
X150004761Y-98773809D01*
X150028571Y-98821428D01*
X150028571Y-98892857D01*
X150004761Y-98940476D01*
X149980952Y-98964285D01*
X149933333Y-98988095D01*
X149742857Y-98988095D01*
X150504761Y-99226190D02*
X150219047Y-99226190D01*
X150361904Y-99226190D02*
X150361904Y-98726190D01*
X150314285Y-98797619D01*
X150266666Y-98845238D01*
X150219047Y-98869047D01*
X150980952Y-99226190D02*
X150695238Y-99226190D01*
X150838095Y-99226190D02*
X150838095Y-98726190D01*
X150790476Y-98797619D01*
X150742857Y-98845238D01*
X150695238Y-98869047D01*
G04 #@! TO.C,R12*
X77776190Y-86621428D02*
X77538095Y-86788095D01*
X77776190Y-86907142D02*
X77276190Y-86907142D01*
X77276190Y-86716666D01*
X77300000Y-86669047D01*
X77323809Y-86645238D01*
X77371428Y-86621428D01*
X77442857Y-86621428D01*
X77490476Y-86645238D01*
X77514285Y-86669047D01*
X77538095Y-86716666D01*
X77538095Y-86907142D01*
X77776190Y-86145238D02*
X77776190Y-86430952D01*
X77776190Y-86288095D02*
X77276190Y-86288095D01*
X77347619Y-86335714D01*
X77395238Y-86383333D01*
X77419047Y-86430952D01*
X77323809Y-85954761D02*
X77300000Y-85930952D01*
X77276190Y-85883333D01*
X77276190Y-85764285D01*
X77300000Y-85716666D01*
X77323809Y-85692857D01*
X77371428Y-85669047D01*
X77419047Y-85669047D01*
X77490476Y-85692857D01*
X77776190Y-85978571D01*
X77776190Y-85669047D01*
G04 #@! TO.C,R13*
X66226190Y-86621428D02*
X65988095Y-86788095D01*
X66226190Y-86907142D02*
X65726190Y-86907142D01*
X65726190Y-86716666D01*
X65750000Y-86669047D01*
X65773809Y-86645238D01*
X65821428Y-86621428D01*
X65892857Y-86621428D01*
X65940476Y-86645238D01*
X65964285Y-86669047D01*
X65988095Y-86716666D01*
X65988095Y-86907142D01*
X66226190Y-86145238D02*
X66226190Y-86430952D01*
X66226190Y-86288095D02*
X65726190Y-86288095D01*
X65797619Y-86335714D01*
X65845238Y-86383333D01*
X65869047Y-86430952D01*
X65726190Y-85978571D02*
X65726190Y-85669047D01*
X65916666Y-85835714D01*
X65916666Y-85764285D01*
X65940476Y-85716666D01*
X65964285Y-85692857D01*
X66011904Y-85669047D01*
X66130952Y-85669047D01*
X66178571Y-85692857D01*
X66202380Y-85716666D01*
X66226190Y-85764285D01*
X66226190Y-85907142D01*
X66202380Y-85954761D01*
X66178571Y-85978571D01*
G04 #@! TO.C,R14*
X81928571Y-85826190D02*
X81761904Y-85588095D01*
X81642857Y-85826190D02*
X81642857Y-85326190D01*
X81833333Y-85326190D01*
X81880952Y-85350000D01*
X81904761Y-85373809D01*
X81928571Y-85421428D01*
X81928571Y-85492857D01*
X81904761Y-85540476D01*
X81880952Y-85564285D01*
X81833333Y-85588095D01*
X81642857Y-85588095D01*
X82404761Y-85826190D02*
X82119047Y-85826190D01*
X82261904Y-85826190D02*
X82261904Y-85326190D01*
X82214285Y-85397619D01*
X82166666Y-85445238D01*
X82119047Y-85469047D01*
X82833333Y-85492857D02*
X82833333Y-85826190D01*
X82714285Y-85302380D02*
X82595238Y-85659523D01*
X82904761Y-85659523D01*
G04 #@! TO.C,R15*
X60978571Y-85826190D02*
X60811904Y-85588095D01*
X60692857Y-85826190D02*
X60692857Y-85326190D01*
X60883333Y-85326190D01*
X60930952Y-85350000D01*
X60954761Y-85373809D01*
X60978571Y-85421428D01*
X60978571Y-85492857D01*
X60954761Y-85540476D01*
X60930952Y-85564285D01*
X60883333Y-85588095D01*
X60692857Y-85588095D01*
X61454761Y-85826190D02*
X61169047Y-85826190D01*
X61311904Y-85826190D02*
X61311904Y-85326190D01*
X61264285Y-85397619D01*
X61216666Y-85445238D01*
X61169047Y-85469047D01*
X61907142Y-85326190D02*
X61669047Y-85326190D01*
X61645238Y-85564285D01*
X61669047Y-85540476D01*
X61716666Y-85516666D01*
X61835714Y-85516666D01*
X61883333Y-85540476D01*
X61907142Y-85564285D01*
X61930952Y-85611904D01*
X61930952Y-85730952D01*
X61907142Y-85778571D01*
X61883333Y-85802380D01*
X61835714Y-85826190D01*
X61716666Y-85826190D01*
X61669047Y-85802380D01*
X61645238Y-85778571D01*
G04 #@! TO.C,R16*
X154578571Y-99226190D02*
X154411904Y-98988095D01*
X154292857Y-99226190D02*
X154292857Y-98726190D01*
X154483333Y-98726190D01*
X154530952Y-98750000D01*
X154554761Y-98773809D01*
X154578571Y-98821428D01*
X154578571Y-98892857D01*
X154554761Y-98940476D01*
X154530952Y-98964285D01*
X154483333Y-98988095D01*
X154292857Y-98988095D01*
X155054761Y-99226190D02*
X154769047Y-99226190D01*
X154911904Y-99226190D02*
X154911904Y-98726190D01*
X154864285Y-98797619D01*
X154816666Y-98845238D01*
X154769047Y-98869047D01*
X155483333Y-98726190D02*
X155388095Y-98726190D01*
X155340476Y-98750000D01*
X155316666Y-98773809D01*
X155269047Y-98845238D01*
X155245238Y-98940476D01*
X155245238Y-99130952D01*
X155269047Y-99178571D01*
X155292857Y-99202380D01*
X155340476Y-99226190D01*
X155435714Y-99226190D01*
X155483333Y-99202380D01*
X155507142Y-99178571D01*
X155530952Y-99130952D01*
X155530952Y-99011904D01*
X155507142Y-98964285D01*
X155483333Y-98940476D01*
X155435714Y-98916666D01*
X155340476Y-98916666D01*
X155292857Y-98940476D01*
X155269047Y-98964285D01*
X155245238Y-99011904D01*
G04 #@! TO.C,R17*
X145528571Y-99226190D02*
X145361904Y-98988095D01*
X145242857Y-99226190D02*
X145242857Y-98726190D01*
X145433333Y-98726190D01*
X145480952Y-98750000D01*
X145504761Y-98773809D01*
X145528571Y-98821428D01*
X145528571Y-98892857D01*
X145504761Y-98940476D01*
X145480952Y-98964285D01*
X145433333Y-98988095D01*
X145242857Y-98988095D01*
X146004761Y-99226190D02*
X145719047Y-99226190D01*
X145861904Y-99226190D02*
X145861904Y-98726190D01*
X145814285Y-98797619D01*
X145766666Y-98845238D01*
X145719047Y-98869047D01*
X146171428Y-98726190D02*
X146504761Y-98726190D01*
X146290476Y-99226190D01*
G04 #@! TO.C,R18*
X167914571Y-115770190D02*
X167747904Y-115532095D01*
X167628857Y-115770190D02*
X167628857Y-115270190D01*
X167819333Y-115270190D01*
X167866952Y-115294000D01*
X167890761Y-115317809D01*
X167914571Y-115365428D01*
X167914571Y-115436857D01*
X167890761Y-115484476D01*
X167866952Y-115508285D01*
X167819333Y-115532095D01*
X167628857Y-115532095D01*
X168390761Y-115770190D02*
X168105047Y-115770190D01*
X168247904Y-115770190D02*
X168247904Y-115270190D01*
X168200285Y-115341619D01*
X168152666Y-115389238D01*
X168105047Y-115413047D01*
X168676476Y-115484476D02*
X168628857Y-115460666D01*
X168605047Y-115436857D01*
X168581238Y-115389238D01*
X168581238Y-115365428D01*
X168605047Y-115317809D01*
X168628857Y-115294000D01*
X168676476Y-115270190D01*
X168771714Y-115270190D01*
X168819333Y-115294000D01*
X168843142Y-115317809D01*
X168866952Y-115365428D01*
X168866952Y-115389238D01*
X168843142Y-115436857D01*
X168819333Y-115460666D01*
X168771714Y-115484476D01*
X168676476Y-115484476D01*
X168628857Y-115508285D01*
X168605047Y-115532095D01*
X168581238Y-115579714D01*
X168581238Y-115674952D01*
X168605047Y-115722571D01*
X168628857Y-115746380D01*
X168676476Y-115770190D01*
X168771714Y-115770190D01*
X168819333Y-115746380D01*
X168843142Y-115722571D01*
X168866952Y-115674952D01*
X168866952Y-115579714D01*
X168843142Y-115532095D01*
X168819333Y-115508285D01*
X168771714Y-115484476D01*
G04 #@! TO.C,R19*
X163578571Y-115770190D02*
X163411904Y-115532095D01*
X163292857Y-115770190D02*
X163292857Y-115270190D01*
X163483333Y-115270190D01*
X163530952Y-115294000D01*
X163554761Y-115317809D01*
X163578571Y-115365428D01*
X163578571Y-115436857D01*
X163554761Y-115484476D01*
X163530952Y-115508285D01*
X163483333Y-115532095D01*
X163292857Y-115532095D01*
X164054761Y-115770190D02*
X163769047Y-115770190D01*
X163911904Y-115770190D02*
X163911904Y-115270190D01*
X163864285Y-115341619D01*
X163816666Y-115389238D01*
X163769047Y-115413047D01*
X164292857Y-115770190D02*
X164388095Y-115770190D01*
X164435714Y-115746380D01*
X164459523Y-115722571D01*
X164507142Y-115651142D01*
X164530952Y-115555904D01*
X164530952Y-115365428D01*
X164507142Y-115317809D01*
X164483333Y-115294000D01*
X164435714Y-115270190D01*
X164340476Y-115270190D01*
X164292857Y-115294000D01*
X164269047Y-115317809D01*
X164245238Y-115365428D01*
X164245238Y-115484476D01*
X164269047Y-115532095D01*
X164292857Y-115555904D01*
X164340476Y-115579714D01*
X164435714Y-115579714D01*
X164483333Y-115555904D01*
X164507142Y-115532095D01*
X164530952Y-115484476D01*
G04 #@! TO.C,R20*
X140728571Y-89226190D02*
X140561904Y-88988095D01*
X140442857Y-89226190D02*
X140442857Y-88726190D01*
X140633333Y-88726190D01*
X140680952Y-88750000D01*
X140704761Y-88773809D01*
X140728571Y-88821428D01*
X140728571Y-88892857D01*
X140704761Y-88940476D01*
X140680952Y-88964285D01*
X140633333Y-88988095D01*
X140442857Y-88988095D01*
X140919047Y-88773809D02*
X140942857Y-88750000D01*
X140990476Y-88726190D01*
X141109523Y-88726190D01*
X141157142Y-88750000D01*
X141180952Y-88773809D01*
X141204761Y-88821428D01*
X141204761Y-88869047D01*
X141180952Y-88940476D01*
X140895238Y-89226190D01*
X141204761Y-89226190D01*
X141514285Y-88726190D02*
X141561904Y-88726190D01*
X141609523Y-88750000D01*
X141633333Y-88773809D01*
X141657142Y-88821428D01*
X141680952Y-88916666D01*
X141680952Y-89035714D01*
X141657142Y-89130952D01*
X141633333Y-89178571D01*
X141609523Y-89202380D01*
X141561904Y-89226190D01*
X141514285Y-89226190D01*
X141466666Y-89202380D01*
X141442857Y-89178571D01*
X141419047Y-89130952D01*
X141395238Y-89035714D01*
X141395238Y-88916666D01*
X141419047Y-88821428D01*
X141442857Y-88773809D01*
X141466666Y-88750000D01*
X141514285Y-88726190D01*
G04 #@! TO.C,R21*
X151076190Y-95821428D02*
X150838095Y-95988095D01*
X151076190Y-96107142D02*
X150576190Y-96107142D01*
X150576190Y-95916666D01*
X150600000Y-95869047D01*
X150623809Y-95845238D01*
X150671428Y-95821428D01*
X150742857Y-95821428D01*
X150790476Y-95845238D01*
X150814285Y-95869047D01*
X150838095Y-95916666D01*
X150838095Y-96107142D01*
X150623809Y-95630952D02*
X150600000Y-95607142D01*
X150576190Y-95559523D01*
X150576190Y-95440476D01*
X150600000Y-95392857D01*
X150623809Y-95369047D01*
X150671428Y-95345238D01*
X150719047Y-95345238D01*
X150790476Y-95369047D01*
X151076190Y-95654761D01*
X151076190Y-95345238D01*
X151076190Y-94869047D02*
X151076190Y-95154761D01*
X151076190Y-95011904D02*
X150576190Y-95011904D01*
X150647619Y-95059523D01*
X150695238Y-95107142D01*
X150719047Y-95154761D01*
G04 #@! TO.C,R22*
X102480571Y-94652190D02*
X102313904Y-94414095D01*
X102194857Y-94652190D02*
X102194857Y-94152190D01*
X102385333Y-94152190D01*
X102432952Y-94176000D01*
X102456761Y-94199809D01*
X102480571Y-94247428D01*
X102480571Y-94318857D01*
X102456761Y-94366476D01*
X102432952Y-94390285D01*
X102385333Y-94414095D01*
X102194857Y-94414095D01*
X102671047Y-94199809D02*
X102694857Y-94176000D01*
X102742476Y-94152190D01*
X102861523Y-94152190D01*
X102909142Y-94176000D01*
X102932952Y-94199809D01*
X102956761Y-94247428D01*
X102956761Y-94295047D01*
X102932952Y-94366476D01*
X102647238Y-94652190D01*
X102956761Y-94652190D01*
X103147238Y-94199809D02*
X103171047Y-94176000D01*
X103218666Y-94152190D01*
X103337714Y-94152190D01*
X103385333Y-94176000D01*
X103409142Y-94199809D01*
X103432952Y-94247428D01*
X103432952Y-94295047D01*
X103409142Y-94366476D01*
X103123428Y-94652190D01*
X103432952Y-94652190D01*
G04 #@! TO.C,R23*
X167564571Y-106526190D02*
X167397904Y-106288095D01*
X167278857Y-106526190D02*
X167278857Y-106026190D01*
X167469333Y-106026190D01*
X167516952Y-106050000D01*
X167540761Y-106073809D01*
X167564571Y-106121428D01*
X167564571Y-106192857D01*
X167540761Y-106240476D01*
X167516952Y-106264285D01*
X167469333Y-106288095D01*
X167278857Y-106288095D01*
X167755047Y-106073809D02*
X167778857Y-106050000D01*
X167826476Y-106026190D01*
X167945523Y-106026190D01*
X167993142Y-106050000D01*
X168016952Y-106073809D01*
X168040761Y-106121428D01*
X168040761Y-106169047D01*
X168016952Y-106240476D01*
X167731238Y-106526190D01*
X168040761Y-106526190D01*
X168207428Y-106026190D02*
X168516952Y-106026190D01*
X168350285Y-106216666D01*
X168421714Y-106216666D01*
X168469333Y-106240476D01*
X168493142Y-106264285D01*
X168516952Y-106311904D01*
X168516952Y-106430952D01*
X168493142Y-106478571D01*
X168469333Y-106502380D01*
X168421714Y-106526190D01*
X168278857Y-106526190D01*
X168231238Y-106502380D01*
X168207428Y-106478571D01*
G04 #@! TO.C,R24*
X161428571Y-96576190D02*
X161261904Y-96338095D01*
X161142857Y-96576190D02*
X161142857Y-96076190D01*
X161333333Y-96076190D01*
X161380952Y-96100000D01*
X161404761Y-96123809D01*
X161428571Y-96171428D01*
X161428571Y-96242857D01*
X161404761Y-96290476D01*
X161380952Y-96314285D01*
X161333333Y-96338095D01*
X161142857Y-96338095D01*
X161619047Y-96123809D02*
X161642857Y-96100000D01*
X161690476Y-96076190D01*
X161809523Y-96076190D01*
X161857142Y-96100000D01*
X161880952Y-96123809D01*
X161904761Y-96171428D01*
X161904761Y-96219047D01*
X161880952Y-96290476D01*
X161595238Y-96576190D01*
X161904761Y-96576190D01*
X162333333Y-96242857D02*
X162333333Y-96576190D01*
X162214285Y-96052380D02*
X162095238Y-96409523D01*
X162404761Y-96409523D01*
G04 #@! TO.C,R25*
X159128571Y-99226190D02*
X158961904Y-98988095D01*
X158842857Y-99226190D02*
X158842857Y-98726190D01*
X159033333Y-98726190D01*
X159080952Y-98750000D01*
X159104761Y-98773809D01*
X159128571Y-98821428D01*
X159128571Y-98892857D01*
X159104761Y-98940476D01*
X159080952Y-98964285D01*
X159033333Y-98988095D01*
X158842857Y-98988095D01*
X159319047Y-98773809D02*
X159342857Y-98750000D01*
X159390476Y-98726190D01*
X159509523Y-98726190D01*
X159557142Y-98750000D01*
X159580952Y-98773809D01*
X159604761Y-98821428D01*
X159604761Y-98869047D01*
X159580952Y-98940476D01*
X159295238Y-99226190D01*
X159604761Y-99226190D01*
X160057142Y-98726190D02*
X159819047Y-98726190D01*
X159795238Y-98964285D01*
X159819047Y-98940476D01*
X159866666Y-98916666D01*
X159985714Y-98916666D01*
X160033333Y-98940476D01*
X160057142Y-98964285D01*
X160080952Y-99011904D01*
X160080952Y-99130952D01*
X160057142Y-99178571D01*
X160033333Y-99202380D01*
X159985714Y-99226190D01*
X159866666Y-99226190D01*
X159819047Y-99202380D01*
X159795238Y-99178571D01*
G04 #@! TO.C,R26*
X161428571Y-94026190D02*
X161261904Y-93788095D01*
X161142857Y-94026190D02*
X161142857Y-93526190D01*
X161333333Y-93526190D01*
X161380952Y-93550000D01*
X161404761Y-93573809D01*
X161428571Y-93621428D01*
X161428571Y-93692857D01*
X161404761Y-93740476D01*
X161380952Y-93764285D01*
X161333333Y-93788095D01*
X161142857Y-93788095D01*
X161619047Y-93573809D02*
X161642857Y-93550000D01*
X161690476Y-93526190D01*
X161809523Y-93526190D01*
X161857142Y-93550000D01*
X161880952Y-93573809D01*
X161904761Y-93621428D01*
X161904761Y-93669047D01*
X161880952Y-93740476D01*
X161595238Y-94026190D01*
X161904761Y-94026190D01*
X162333333Y-93526190D02*
X162238095Y-93526190D01*
X162190476Y-93550000D01*
X162166666Y-93573809D01*
X162119047Y-93645238D01*
X162095238Y-93740476D01*
X162095238Y-93930952D01*
X162119047Y-93978571D01*
X162142857Y-94002380D01*
X162190476Y-94026190D01*
X162285714Y-94026190D01*
X162333333Y-94002380D01*
X162357142Y-93978571D01*
X162380952Y-93930952D01*
X162380952Y-93811904D01*
X162357142Y-93764285D01*
X162333333Y-93740476D01*
X162285714Y-93716666D01*
X162190476Y-93716666D01*
X162142857Y-93740476D01*
X162119047Y-93764285D01*
X162095238Y-93811904D01*
G04 #@! TO.C,R27*
X162992571Y-106526190D02*
X162825904Y-106288095D01*
X162706857Y-106526190D02*
X162706857Y-106026190D01*
X162897333Y-106026190D01*
X162944952Y-106050000D01*
X162968761Y-106073809D01*
X162992571Y-106121428D01*
X162992571Y-106192857D01*
X162968761Y-106240476D01*
X162944952Y-106264285D01*
X162897333Y-106288095D01*
X162706857Y-106288095D01*
X163183047Y-106073809D02*
X163206857Y-106050000D01*
X163254476Y-106026190D01*
X163373523Y-106026190D01*
X163421142Y-106050000D01*
X163444952Y-106073809D01*
X163468761Y-106121428D01*
X163468761Y-106169047D01*
X163444952Y-106240476D01*
X163159238Y-106526190D01*
X163468761Y-106526190D01*
X163635428Y-106026190D02*
X163968761Y-106026190D01*
X163754476Y-106526190D01*
G04 #@! TO.C,R28*
X163678571Y-99226190D02*
X163511904Y-98988095D01*
X163392857Y-99226190D02*
X163392857Y-98726190D01*
X163583333Y-98726190D01*
X163630952Y-98750000D01*
X163654761Y-98773809D01*
X163678571Y-98821428D01*
X163678571Y-98892857D01*
X163654761Y-98940476D01*
X163630952Y-98964285D01*
X163583333Y-98988095D01*
X163392857Y-98988095D01*
X163869047Y-98773809D02*
X163892857Y-98750000D01*
X163940476Y-98726190D01*
X164059523Y-98726190D01*
X164107142Y-98750000D01*
X164130952Y-98773809D01*
X164154761Y-98821428D01*
X164154761Y-98869047D01*
X164130952Y-98940476D01*
X163845238Y-99226190D01*
X164154761Y-99226190D01*
X164440476Y-98940476D02*
X164392857Y-98916666D01*
X164369047Y-98892857D01*
X164345238Y-98845238D01*
X164345238Y-98821428D01*
X164369047Y-98773809D01*
X164392857Y-98750000D01*
X164440476Y-98726190D01*
X164535714Y-98726190D01*
X164583333Y-98750000D01*
X164607142Y-98773809D01*
X164630952Y-98821428D01*
X164630952Y-98845238D01*
X164607142Y-98892857D01*
X164583333Y-98916666D01*
X164535714Y-98940476D01*
X164440476Y-98940476D01*
X164392857Y-98964285D01*
X164369047Y-98988095D01*
X164345238Y-99035714D01*
X164345238Y-99130952D01*
X164369047Y-99178571D01*
X164392857Y-99202380D01*
X164440476Y-99226190D01*
X164535714Y-99226190D01*
X164583333Y-99202380D01*
X164607142Y-99178571D01*
X164630952Y-99130952D01*
X164630952Y-99035714D01*
X164607142Y-98988095D01*
X164583333Y-98964285D01*
X164535714Y-98940476D01*
G04 #@! TO.C,R29*
X158528571Y-106526190D02*
X158361904Y-106288095D01*
X158242857Y-106526190D02*
X158242857Y-106026190D01*
X158433333Y-106026190D01*
X158480952Y-106050000D01*
X158504761Y-106073809D01*
X158528571Y-106121428D01*
X158528571Y-106192857D01*
X158504761Y-106240476D01*
X158480952Y-106264285D01*
X158433333Y-106288095D01*
X158242857Y-106288095D01*
X158719047Y-106073809D02*
X158742857Y-106050000D01*
X158790476Y-106026190D01*
X158909523Y-106026190D01*
X158957142Y-106050000D01*
X158980952Y-106073809D01*
X159004761Y-106121428D01*
X159004761Y-106169047D01*
X158980952Y-106240476D01*
X158695238Y-106526190D01*
X159004761Y-106526190D01*
X159242857Y-106526190D02*
X159338095Y-106526190D01*
X159385714Y-106502380D01*
X159409523Y-106478571D01*
X159457142Y-106407142D01*
X159480952Y-106311904D01*
X159480952Y-106121428D01*
X159457142Y-106073809D01*
X159433333Y-106050000D01*
X159385714Y-106026190D01*
X159290476Y-106026190D01*
X159242857Y-106050000D01*
X159219047Y-106073809D01*
X159195238Y-106121428D01*
X159195238Y-106240476D01*
X159219047Y-106288095D01*
X159242857Y-106311904D01*
X159290476Y-106335714D01*
X159385714Y-106335714D01*
X159433333Y-106311904D01*
X159457142Y-106288095D01*
X159480952Y-106240476D01*
G04 #@! TO.C,R30*
X107560571Y-94652190D02*
X107393904Y-94414095D01*
X107274857Y-94652190D02*
X107274857Y-94152190D01*
X107465333Y-94152190D01*
X107512952Y-94176000D01*
X107536761Y-94199809D01*
X107560571Y-94247428D01*
X107560571Y-94318857D01*
X107536761Y-94366476D01*
X107512952Y-94390285D01*
X107465333Y-94414095D01*
X107274857Y-94414095D01*
X107727238Y-94152190D02*
X108036761Y-94152190D01*
X107870095Y-94342666D01*
X107941523Y-94342666D01*
X107989142Y-94366476D01*
X108012952Y-94390285D01*
X108036761Y-94437904D01*
X108036761Y-94556952D01*
X108012952Y-94604571D01*
X107989142Y-94628380D01*
X107941523Y-94652190D01*
X107798666Y-94652190D01*
X107751047Y-94628380D01*
X107727238Y-94604571D01*
X108346285Y-94152190D02*
X108393904Y-94152190D01*
X108441523Y-94176000D01*
X108465333Y-94199809D01*
X108489142Y-94247428D01*
X108512952Y-94342666D01*
X108512952Y-94461714D01*
X108489142Y-94556952D01*
X108465333Y-94604571D01*
X108441523Y-94628380D01*
X108393904Y-94652190D01*
X108346285Y-94652190D01*
X108298666Y-94628380D01*
X108274857Y-94604571D01*
X108251047Y-94556952D01*
X108227238Y-94461714D01*
X108227238Y-94342666D01*
X108251047Y-94247428D01*
X108274857Y-94199809D01*
X108298666Y-94176000D01*
X108346285Y-94152190D01*
G04 #@! TO.C,U2*
D15*
X176894476Y-99507904D02*
X176894476Y-100155523D01*
X176932571Y-100231714D01*
X176970666Y-100269809D01*
X177046857Y-100307904D01*
X177199238Y-100307904D01*
X177275428Y-100269809D01*
X177313523Y-100231714D01*
X177351619Y-100155523D01*
X177351619Y-99507904D01*
X177694476Y-99584095D02*
X177732571Y-99546000D01*
X177808761Y-99507904D01*
X177999238Y-99507904D01*
X178075428Y-99546000D01*
X178113523Y-99584095D01*
X178151619Y-99660285D01*
X178151619Y-99736476D01*
X178113523Y-99850761D01*
X177656380Y-100307904D01*
X178151619Y-100307904D01*
G04 #@! TO.C,Y1*
D12*
X79186190Y-74826190D02*
X79662380Y-74826190D01*
X78662380Y-75159523D02*
X79186190Y-74826190D01*
X78662380Y-74492857D01*
X79662380Y-73635714D02*
X79662380Y-74207142D01*
X79662380Y-73921428D02*
X78662380Y-73921428D01*
X78805238Y-74016666D01*
X78900476Y-74111904D01*
X78948095Y-74207142D01*
G04 #@! TD*
M02*
