G04 #@! TF.GenerationSoftware,KiCad,Pcbnew,5.0.1-33cea8e~68~ubuntu18.04.1*
G04 #@! TF.CreationDate,2018-11-04T18:28:43+03:00*
G04 #@! TF.ProjectId,AA-PI-Display-Board-RaspberryPi3,41412D50492D446973706C61792D426F,02*
G04 #@! TF.SameCoordinates,Original*
G04 #@! TF.FileFunction,Copper,L2,Bot,Signal*
G04 #@! TF.FilePolarity,Positive*
%FSLAX46Y46*%
G04 Gerber Fmt 4.6, Leading zero omitted, Abs format (unit mm)*
G04 Created by KiCad (PCBNEW 5.0.1-33cea8e~68~ubuntu18.04.1) date Sun 04 Nov 2018 18:28:43 MSK*
%MOMM*%
%LPD*%
G01*
G04 APERTURE LIST*
G04 #@! TA.AperFunction,ComponentPad*
%ADD10R,2.410000X3.290000*%
G04 #@! TD*
G04 #@! TA.AperFunction,ComponentPad*
%ADD11C,5.400000*%
G04 #@! TD*
G04 #@! TA.AperFunction,SMDPad,CuDef*
%ADD12R,2.000000X1.600000*%
G04 #@! TD*
G04 #@! TA.AperFunction,ViaPad*
%ADD13C,0.762000*%
G04 #@! TD*
G04 #@! TA.AperFunction,ViaPad*
%ADD14C,1.016000*%
G04 #@! TD*
G04 #@! TA.AperFunction,Conductor*
%ADD15C,0.254000*%
G04 #@! TD*
G04 #@! TA.AperFunction,Conductor*
%ADD16C,0.508000*%
G04 #@! TD*
G04 APERTURE END LIST*
D10*
G04 #@! TO.P,U5,17*
G04 #@! TO.N,GND*
X160520000Y-110872000D03*
G04 #@! TD*
D11*
G04 #@! TO.P,SS8,1*
G04 #@! TO.N,N/C*
X103300000Y-116200000D03*
G04 #@! TD*
G04 #@! TO.P,SS7,1*
G04 #@! TO.N,N/C*
X54300000Y-116200000D03*
G04 #@! TD*
G04 #@! TO.P,SS6,1*
G04 #@! TO.N,N/C*
X103300000Y-58200000D03*
G04 #@! TD*
G04 #@! TO.P,SS5,1*
G04 #@! TO.N,N/C*
X54300000Y-58200000D03*
G04 #@! TD*
G04 #@! TO.P,SS4,1*
G04 #@! TO.N,N/C*
X182300000Y-116200000D03*
G04 #@! TD*
G04 #@! TO.P,SS3,1*
G04 #@! TO.N,N/C*
X133300000Y-116200000D03*
G04 #@! TD*
G04 #@! TO.P,SS1,1*
G04 #@! TO.N,N/C*
X133300000Y-58200000D03*
G04 #@! TD*
G04 #@! TO.P,SS2,1*
G04 #@! TO.N,N/C*
X182300000Y-58200000D03*
G04 #@! TD*
D12*
G04 #@! TO.P,SW1,1*
G04 #@! TO.N,GND*
X185350000Y-101100000D03*
G04 #@! TO.P,SW1,2*
G04 #@! TO.N,Net-(C1-Pad1)*
X185350000Y-93300000D03*
G04 #@! TD*
D13*
G04 #@! TO.N,Net-(C1-Pad1)*
X173044000Y-70962400D03*
D14*
G04 #@! TO.N,V_SW*
X143200000Y-93370000D03*
X138950200Y-76210990D03*
D13*
G04 #@! TO.N,GND*
X130000000Y-97000000D03*
X163035000Y-114207900D03*
X85000000Y-135000000D03*
X90000000Y-115000000D03*
X155000000Y-90000000D03*
X165000000Y-102000000D03*
X145000000Y-88000000D03*
X136000000Y-82000000D03*
X70000000Y-135000000D03*
X55000000Y-128000000D03*
X55000000Y-88000000D03*
X90000000Y-88000000D03*
X90000000Y-58000000D03*
X70000000Y-58000000D03*
X118000000Y-58000000D03*
X145000000Y-58000000D03*
X170000000Y-58000000D03*
X145000000Y-135000000D03*
X170000000Y-135000000D03*
X116090000Y-79730000D03*
X145000000Y-123000000D03*
X145000000Y-110000000D03*
X170000000Y-82000000D03*
X118000000Y-88000000D03*
X186000000Y-82000000D03*
X186000000Y-128000000D03*
G04 #@! TO.N,V_LOAD*
X166577800Y-112290700D03*
X177607800Y-70703400D03*
D14*
G04 #@! TO.N,+5V*
X167236400Y-102085300D03*
X166922600Y-90640900D03*
X104273800Y-97152300D03*
X117114900Y-82612000D03*
G04 #@! TO.N,+3V3*
X177038400Y-104731100D03*
X77684700Y-121201800D03*
X143690000Y-95440000D03*
D13*
X84295500Y-121251400D03*
D14*
X146154300Y-86153600D03*
D13*
G04 #@! TO.N,Net-(C16-Pad1)*
X72174023Y-84224023D03*
X69700521Y-82982028D03*
G04 #@! TO.N,Net-(C19-Pad1)*
X76832700Y-73046200D03*
X76520000Y-69040000D03*
G04 #@! TO.N,I2C_SDA*
X75030000Y-114910000D03*
D14*
X73710000Y-119000000D03*
D13*
X76577600Y-98249900D03*
X108414900Y-78762100D03*
X77170000Y-76587200D03*
G04 #@! TO.N,I2C_SCL*
X73770000Y-114900000D03*
X118820000Y-76960000D03*
X74216800Y-103755700D03*
X73587900Y-75811300D03*
X111685100Y-76968400D03*
D14*
X73700000Y-116678210D03*
D13*
G04 #@! TO.N,DSI_D0_N*
X83529800Y-115942200D03*
X153790000Y-62970000D03*
G04 #@! TO.N,DSI_CLK_N*
X150350000Y-70960000D03*
X157300000Y-69690000D03*
G04 #@! TO.N,DSI_CLK_P*
X85904000Y-114344800D03*
X156293066Y-68973750D03*
G04 #@! TO.N,DSI_D1_N*
X140734700Y-75845700D03*
X88100000Y-118278500D03*
X148590000Y-72730000D03*
X160300000Y-71580000D03*
G04 #@! TO.N,DSI_D1_P*
X149473000Y-71937000D03*
X159290000Y-71150000D03*
G04 #@! TO.N,PWM_CABC*
X106825400Y-92957900D03*
X83907400Y-123814800D03*
G04 #@! TO.N,CHRG_PG*
X131748400Y-72197900D03*
X148185100Y-95855000D03*
G04 #@! TO.N,CHRG_STAT1*
X132872100Y-71679200D03*
X155168600Y-95200200D03*
G04 #@! TO.N,CHRG_STAT2*
X134097000Y-71197500D03*
X155021875Y-96219367D03*
G04 #@! TO.N,LOW_BATT*
X165430900Y-112044900D03*
X160888800Y-107326300D03*
X135265600Y-71019010D03*
G04 #@! TO.N,I2S_BCLK*
X70828300Y-76036600D03*
X66300000Y-73500000D03*
G04 #@! TO.N,Net-(Q5-Pad1)*
X124351300Y-120561900D03*
X115724100Y-117931600D03*
D14*
G04 #@! TO.N,/V_USB*
X116722100Y-121600000D03*
X111050000Y-121918790D03*
D13*
G04 #@! TO.N,/V_F2*
X77883600Y-123535900D03*
D14*
X90861000Y-122927000D03*
G04 #@! TD*
D15*
G04 #@! TO.N,Net-(C1-Pad1)*
X176091400Y-70962400D02*
X173044000Y-70962400D01*
X177239500Y-69814300D02*
X176091400Y-70962400D01*
X178496900Y-70335100D02*
X177976100Y-69814300D01*
X184477000Y-92627000D02*
X184477000Y-92447400D01*
X178496900Y-74146900D02*
X178496900Y-70335100D01*
X177976100Y-69814300D02*
X177239500Y-69814300D01*
X184477000Y-92447400D02*
X180550000Y-88520400D01*
X180550000Y-76200000D02*
X178496900Y-74146900D01*
X185350000Y-93300000D02*
X184477000Y-92627000D01*
X180550000Y-88520400D02*
X180550000Y-76200000D01*
D16*
G04 #@! TO.N,V_SW*
X143210000Y-80470790D02*
X139458199Y-76718989D01*
X139458199Y-76718989D02*
X138950200Y-76210990D01*
X143210000Y-93370000D02*
X143210000Y-80470790D01*
D15*
G04 #@! TO.N,GND*
X160710000Y-113400000D02*
X160520000Y-113210000D01*
X163035000Y-114207900D02*
X162227100Y-113400000D01*
X160520000Y-113210000D02*
X160520000Y-110872000D01*
X162227100Y-113400000D02*
X160710000Y-113400000D01*
X170282100Y-114207900D02*
X163035000Y-114207900D01*
X185350000Y-101100000D02*
X183590000Y-101100000D01*
X182717000Y-101773000D02*
X170282100Y-114207900D01*
X183590000Y-101773000D02*
X182717000Y-101773000D01*
X183590000Y-101100000D02*
X183590000Y-101773000D01*
D16*
G04 #@! TO.N,V_LOAD*
X177607800Y-71592200D02*
X177607800Y-70703400D01*
X177607800Y-72292200D02*
X177607800Y-71542200D01*
X168350000Y-102650000D02*
X168350000Y-81550000D01*
X166577800Y-112290700D02*
X166577800Y-104422200D01*
X168350000Y-81550000D02*
X177607800Y-72292200D01*
X166577800Y-104422200D02*
X168350000Y-102650000D01*
G04 #@! TO.N,+5V*
X104273800Y-97152300D02*
X104273800Y-96766900D01*
X104273800Y-96766900D02*
X107714500Y-93326200D01*
X107714500Y-93326200D02*
X107714500Y-92012400D01*
X107714500Y-92012400D02*
X117114900Y-82612000D01*
X166922600Y-90640900D02*
X166922600Y-101771500D01*
X166922600Y-101771500D02*
X167236400Y-102085300D01*
X132558900Y-70130000D02*
X135820000Y-70130000D01*
X117114900Y-82612000D02*
X120076900Y-82612000D01*
X120076900Y-82612000D02*
X132558900Y-70130000D01*
X160740900Y-90640900D02*
X166922600Y-90640900D01*
X142372400Y-72272400D02*
X160740900Y-90640900D01*
X135800800Y-70130000D02*
X137943200Y-72272400D01*
X137943200Y-72272400D02*
X142372400Y-72272400D01*
G04 #@! TO.N,+3V3*
X177038400Y-104731100D02*
X168589700Y-113179800D01*
X168589700Y-113179800D02*
X166946100Y-113179800D01*
X166946100Y-113179800D02*
X166209500Y-113179800D01*
X166209500Y-113179800D02*
X165308400Y-113179800D01*
X165308400Y-113179800D02*
X165062600Y-112934000D01*
X165062600Y-112934000D02*
X164541800Y-112413200D01*
X164541800Y-112413200D02*
X162233100Y-110104500D01*
X162233100Y-110104500D02*
X162233100Y-109016500D01*
X162233100Y-109016500D02*
X161935500Y-108718900D01*
X161935500Y-108718900D02*
X161808500Y-108718900D01*
X161808500Y-108718900D02*
X159791600Y-108718900D01*
X159791600Y-108718900D02*
X147816800Y-96744100D01*
X147816800Y-96744100D02*
X147296000Y-96223300D01*
X147296000Y-96223300D02*
X147296000Y-95486700D01*
X147296000Y-95486700D02*
X147296000Y-94175000D01*
X147296000Y-94175000D02*
X147463300Y-94007700D01*
X146154300Y-86153600D02*
X146154300Y-92698700D01*
X146154300Y-92698700D02*
X147463300Y-94007700D01*
X84295500Y-121251400D02*
X77734300Y-121251400D01*
X77734300Y-121251400D02*
X77684700Y-121201800D01*
X147463300Y-94007700D02*
X146037500Y-95433500D01*
X146037500Y-95433500D02*
X144268300Y-95433500D01*
X84834315Y-121251400D02*
X84295500Y-121251400D01*
X85485715Y-120600000D02*
X84834315Y-121251400D01*
X144268300Y-95433500D02*
X136166500Y-95433500D01*
X111000000Y-120600000D02*
X85485715Y-120600000D01*
X136166500Y-95433500D02*
X111000000Y-120600000D01*
D15*
G04 #@! TO.N,Net-(C16-Pad1)*
X70239336Y-82982028D02*
X69700521Y-82982028D01*
X70932028Y-82982028D02*
X70239336Y-82982028D01*
X72174023Y-84224023D02*
X70932028Y-82982028D01*
G04 #@! TO.N,Net-(C19-Pad1)*
X76832700Y-69342700D02*
X76832700Y-73046200D01*
X76500000Y-69010000D02*
X76832700Y-69342700D01*
G04 #@! TO.N,I2C_SDA*
X108414900Y-78762100D02*
X79344900Y-78762100D01*
X79344900Y-78762100D02*
X77170000Y-76587200D01*
X76577600Y-98249900D02*
X77180000Y-97647500D01*
X77180000Y-76597200D02*
X77170000Y-76587200D01*
X77180000Y-97647500D02*
X77180000Y-76597200D01*
X75030000Y-117680000D02*
X73710000Y-119000000D01*
X75030000Y-114910000D02*
X75030000Y-117680000D01*
G04 #@! TO.N,I2C_SCL*
X74216800Y-103755700D02*
X73587900Y-103126800D01*
X73587900Y-103126800D02*
X73587900Y-75811300D01*
X111685100Y-76968400D02*
X118911700Y-76968400D01*
X111685100Y-76968400D02*
X78808600Y-76968400D01*
X78808600Y-76968400D02*
X77538300Y-75698100D01*
X77538300Y-75698100D02*
X76801700Y-75698100D01*
X76801700Y-75698100D02*
X76688500Y-75811300D01*
X76688500Y-75811300D02*
X73587900Y-75811300D01*
X73770000Y-114900000D02*
X73770000Y-116608210D01*
X73770000Y-116608210D02*
X73700000Y-116678210D01*
G04 #@! TO.N,DSI_D0_N*
X115590700Y-81980700D02*
X83529800Y-114041600D01*
X130854000Y-70038600D02*
X119804800Y-81087800D01*
X116483600Y-81087800D02*
X115590700Y-81980700D01*
X119804800Y-81087800D02*
X116483600Y-81087800D01*
X83529800Y-114041600D02*
X83529800Y-115942200D01*
X137910000Y-62970000D02*
X153251185Y-62970000D01*
X153251185Y-62970000D02*
X153790000Y-62970000D01*
X130840000Y-70040000D02*
X137910000Y-62970000D01*
G04 #@! TO.N,DSI_CLK_N*
X150350000Y-70960000D02*
X151620000Y-69690000D01*
X156761185Y-69690000D02*
X157300000Y-69690000D01*
X151620000Y-69690000D02*
X156761185Y-69690000D01*
G04 #@! TO.N,DSI_CLK_P*
X85904000Y-112565500D02*
X85904000Y-114344800D01*
X116746600Y-81722900D02*
X85904000Y-112565500D01*
X120067900Y-81722900D02*
X116746600Y-81722900D01*
X132480800Y-69310000D02*
X120067900Y-81722900D01*
X156300000Y-68980000D02*
X156300000Y-68980000D01*
X155754251Y-68973750D02*
X156293066Y-68973750D01*
X132460000Y-69340000D02*
X132485011Y-69314989D01*
X151446250Y-68973750D02*
X155754251Y-68973750D01*
X151105011Y-69314989D02*
X151446250Y-68973750D01*
X132485011Y-69314989D02*
X151105011Y-69314989D01*
G04 #@! TO.N,DSI_D1_N*
X139376921Y-75321989D02*
X131056511Y-75321989D01*
X88480999Y-117897501D02*
X88100000Y-118278500D01*
X131056511Y-75321989D02*
X88480999Y-117897501D01*
X139900632Y-75845700D02*
X139376921Y-75321989D01*
X140734700Y-75845700D02*
X139900632Y-75845700D01*
X148590000Y-72730000D02*
X159150000Y-72730000D01*
X159150000Y-72730000D02*
X160300000Y-71580000D01*
X160300000Y-71580000D02*
X160300000Y-71580000D01*
X160300000Y-71580000D02*
X160300000Y-71580000D01*
G04 #@! TO.N,DSI_D1_P*
X150011815Y-71937000D02*
X150014815Y-71940000D01*
X149473000Y-71937000D02*
X150011815Y-71937000D01*
X150014815Y-71940000D02*
X158500000Y-71940000D01*
X158500000Y-71940000D02*
X159290000Y-71150000D01*
X159290000Y-71150000D02*
X159290000Y-71150000D01*
G04 #@! TO.N,PWM_CABC*
X106825400Y-92957900D02*
X86793100Y-112990200D01*
X86793100Y-112990200D02*
X86793100Y-114713100D01*
X86793100Y-114713100D02*
X86272300Y-115233900D01*
X86272300Y-115233900D02*
X81193500Y-120312700D01*
X81193500Y-120312700D02*
X77316400Y-120312700D01*
X77316400Y-120312700D02*
X76795600Y-120833500D01*
X76795600Y-120833500D02*
X76795600Y-121570100D01*
X76795600Y-121570100D02*
X76795600Y-123705300D01*
X76795600Y-123705300D02*
X76994500Y-123904200D01*
X76994500Y-123904200D02*
X77515300Y-124425000D01*
X77515300Y-124425000D02*
X78251900Y-124425000D01*
X78251900Y-124425000D02*
X83297200Y-124425000D01*
X83297200Y-124425000D02*
X83907400Y-123814800D01*
G04 #@! TO.N,CHRG_PG*
X148185100Y-95316185D02*
X148185100Y-95855000D01*
X148185100Y-93831300D02*
X148185100Y-95316185D01*
X147043400Y-92689600D02*
X148185100Y-93831300D01*
X147043400Y-85785300D02*
X147043400Y-92689600D01*
X146418800Y-85160700D02*
X147043400Y-85785300D01*
X134364478Y-74813978D02*
X140960378Y-74813978D01*
X131748400Y-72197900D02*
X134364478Y-74813978D01*
X140960378Y-74813978D02*
X141623800Y-75477400D01*
X141623800Y-75477400D02*
X141623800Y-77118700D01*
X146418800Y-81913700D02*
X146418800Y-85160700D01*
X141623800Y-77118700D02*
X146418800Y-81913700D01*
G04 #@! TO.N,CHRG_STAT1*
X147678500Y-85522300D02*
X147678500Y-87710100D01*
X147053900Y-84897700D02*
X147678500Y-85522300D01*
X132872100Y-71679200D02*
X135370600Y-74177700D01*
X147678500Y-87710100D02*
X155168600Y-95200200D01*
X135370600Y-74177700D02*
X141222200Y-74177700D01*
X147053900Y-81650700D02*
X147053900Y-84897700D01*
X141222200Y-74177700D02*
X142258900Y-75214400D01*
X142258900Y-75214400D02*
X142258900Y-76855700D01*
X142258900Y-76855700D02*
X147053900Y-81650700D01*
G04 #@! TO.N,CHRG_STAT2*
X155560690Y-96219367D02*
X155021875Y-96219367D01*
X156057700Y-94831900D02*
X156057700Y-95722357D01*
X156057700Y-95722357D02*
X155560690Y-96219367D01*
X148313600Y-85259200D02*
X148313600Y-87087800D01*
X147689000Y-84634600D02*
X148313600Y-85259200D01*
X136529500Y-73630000D02*
X141572700Y-73630000D01*
X134097000Y-71197500D02*
X136529500Y-73630000D01*
X142894000Y-74951300D02*
X142894000Y-76592600D01*
X141572700Y-73630000D02*
X142894000Y-74951300D01*
X148313600Y-87087800D02*
X156057700Y-94831900D01*
X142894000Y-76592600D02*
X147689000Y-81387600D01*
X147689000Y-81387600D02*
X147689000Y-84634600D01*
G04 #@! TO.N,LOW_BATT*
X165430900Y-112044900D02*
X162868200Y-109482200D01*
X162868200Y-109482200D02*
X162868200Y-108753500D01*
X162868200Y-108753500D02*
X162198500Y-108083800D01*
X162198500Y-108083800D02*
X162071500Y-108083800D01*
X162071500Y-108083800D02*
X161646300Y-108083800D01*
X161646300Y-108083800D02*
X160888800Y-107326300D01*
X135646599Y-71400009D02*
X135265600Y-71019010D01*
X141930900Y-73090000D02*
X137336590Y-73090000D01*
X160888800Y-107326300D02*
X160888800Y-92047900D01*
X137336590Y-73090000D02*
X135646599Y-71400009D01*
X160888800Y-92047900D02*
X141930900Y-73090000D01*
G04 #@! TO.N,I2S_BCLK*
X68291700Y-73500000D02*
X70828300Y-76036600D01*
X66300000Y-73500000D02*
X68291700Y-73500000D01*
G04 #@! TO.N,Net-(Q5-Pad1)*
X124351300Y-120561900D02*
X118354400Y-120561900D01*
X118354400Y-120561900D02*
X115724100Y-117931600D01*
D16*
G04 #@! TO.N,/V_USB*
X111718790Y-121250000D02*
X111050000Y-121918790D01*
X116372100Y-121250000D02*
X111718790Y-121250000D01*
X116722100Y-121600000D02*
X116372100Y-121250000D01*
G04 #@! TO.N,/V_F2*
X77883600Y-123535900D02*
X82928900Y-123535900D01*
X82928900Y-123535900D02*
X83539100Y-122925700D01*
X83539100Y-122925700D02*
X84275700Y-122925700D01*
X84275700Y-122925700D02*
X84277000Y-122927000D01*
X84277000Y-122927000D02*
X90861000Y-122927000D01*
G04 #@! TD*
D15*
G04 #@! TO.N,GND*
G36*
X101174061Y-55609536D02*
X100709536Y-56074061D01*
X100344561Y-56620285D01*
X100093162Y-57227216D01*
X99965000Y-57871531D01*
X99965000Y-58528469D01*
X100093162Y-59172784D01*
X100344561Y-59779715D01*
X100709536Y-60325939D01*
X101174061Y-60790464D01*
X101720285Y-61155439D01*
X102327216Y-61406838D01*
X102971531Y-61535000D01*
X103628469Y-61535000D01*
X104272784Y-61406838D01*
X104879715Y-61155439D01*
X105425939Y-60790464D01*
X105890464Y-60325939D01*
X106255439Y-59779715D01*
X106506838Y-59172784D01*
X106635000Y-58528469D01*
X106635000Y-57871531D01*
X106506838Y-57227216D01*
X106255439Y-56620285D01*
X105890464Y-56074061D01*
X105425939Y-55609536D01*
X105034074Y-55347700D01*
X131565926Y-55347700D01*
X131174061Y-55609536D01*
X130709536Y-56074061D01*
X130344561Y-56620285D01*
X130093162Y-57227216D01*
X129965000Y-57871531D01*
X129965000Y-58528469D01*
X130093162Y-59172784D01*
X130344561Y-59779715D01*
X130709536Y-60325939D01*
X131174061Y-60790464D01*
X131720285Y-61155439D01*
X132327216Y-61406838D01*
X132971531Y-61535000D01*
X133628469Y-61535000D01*
X134272784Y-61406838D01*
X134879715Y-61155439D01*
X135425939Y-60790464D01*
X135890464Y-60325939D01*
X136255439Y-59779715D01*
X136506838Y-59172784D01*
X136635000Y-58528469D01*
X136635000Y-57871531D01*
X136506838Y-57227216D01*
X136255439Y-56620285D01*
X135890464Y-56074061D01*
X135425939Y-55609536D01*
X135034074Y-55347700D01*
X180565926Y-55347700D01*
X180174061Y-55609536D01*
X179709536Y-56074061D01*
X179344561Y-56620285D01*
X179093162Y-57227216D01*
X178965000Y-57871531D01*
X178965000Y-58528469D01*
X179093162Y-59172784D01*
X179344561Y-59779715D01*
X179709536Y-60325939D01*
X180174061Y-60790464D01*
X180720285Y-61155439D01*
X181327216Y-61406838D01*
X181971531Y-61535000D01*
X182628469Y-61535000D01*
X183272784Y-61406838D01*
X183879715Y-61155439D01*
X184425939Y-60790464D01*
X184890464Y-60325939D01*
X185255439Y-59779715D01*
X185506838Y-59172784D01*
X185635000Y-58528469D01*
X185635000Y-57871531D01*
X185506838Y-57227216D01*
X185255439Y-56620285D01*
X184890464Y-56074061D01*
X184425939Y-55609536D01*
X184034074Y-55347700D01*
X187768319Y-55347700D01*
X188256294Y-55395547D01*
X188695211Y-55528063D01*
X189100026Y-55743308D01*
X189455321Y-56033079D01*
X189747570Y-56386346D01*
X189965634Y-56789650D01*
X190101212Y-57227626D01*
X190152301Y-57713706D01*
X190152300Y-136668319D01*
X190104453Y-137156296D01*
X189971937Y-137595212D01*
X189756695Y-138000023D01*
X189466919Y-138355323D01*
X189113654Y-138647570D01*
X188710350Y-138865635D01*
X188272370Y-139001213D01*
X187786303Y-139052300D01*
X53831681Y-139052300D01*
X53343704Y-139004453D01*
X52904788Y-138871937D01*
X52499977Y-138656695D01*
X52144677Y-138366919D01*
X51852430Y-138013654D01*
X51634365Y-137610350D01*
X51498787Y-137172370D01*
X51447700Y-136686303D01*
X51447700Y-133688212D01*
X96915000Y-133688212D01*
X96915000Y-133911788D01*
X96958617Y-134131067D01*
X97044176Y-134337624D01*
X97168388Y-134523520D01*
X97326480Y-134681612D01*
X97512376Y-134805824D01*
X97718933Y-134891383D01*
X97938212Y-134935000D01*
X98161788Y-134935000D01*
X98381067Y-134891383D01*
X98587624Y-134805824D01*
X98773520Y-134681612D01*
X98931612Y-134523520D01*
X99055824Y-134337624D01*
X99141383Y-134131067D01*
X99185000Y-133911788D01*
X99185000Y-133688212D01*
X101315000Y-133688212D01*
X101315000Y-133911788D01*
X101358617Y-134131067D01*
X101444176Y-134337624D01*
X101568388Y-134523520D01*
X101726480Y-134681612D01*
X101912376Y-134805824D01*
X102118933Y-134891383D01*
X102338212Y-134935000D01*
X102561788Y-134935000D01*
X102781067Y-134891383D01*
X102987624Y-134805824D01*
X103173520Y-134681612D01*
X103296467Y-134558665D01*
X115315000Y-134558665D01*
X115315000Y-134841335D01*
X115370147Y-135118574D01*
X115478320Y-135379727D01*
X115635363Y-135614759D01*
X115835241Y-135814637D01*
X116070273Y-135971680D01*
X116331426Y-136079853D01*
X116608665Y-136135000D01*
X116891335Y-136135000D01*
X117168574Y-136079853D01*
X117429727Y-135971680D01*
X117664759Y-135814637D01*
X117864637Y-135614759D01*
X118021680Y-135379727D01*
X118129853Y-135118574D01*
X118185000Y-134841335D01*
X118185000Y-134558665D01*
X118129853Y-134281426D01*
X118021680Y-134020273D01*
X117864637Y-133785241D01*
X117664759Y-133585363D01*
X117429727Y-133428320D01*
X117168574Y-133320147D01*
X116891335Y-133265000D01*
X116608665Y-133265000D01*
X116331426Y-133320147D01*
X116070273Y-133428320D01*
X115835241Y-133585363D01*
X115635363Y-133785241D01*
X115478320Y-134020273D01*
X115370147Y-134281426D01*
X115315000Y-134558665D01*
X103296467Y-134558665D01*
X103331612Y-134523520D01*
X103455824Y-134337624D01*
X103541383Y-134131067D01*
X103585000Y-133911788D01*
X103585000Y-133688212D01*
X103541383Y-133468933D01*
X103455824Y-133262376D01*
X103331612Y-133076480D01*
X103173520Y-132918388D01*
X102987624Y-132794176D01*
X102781067Y-132708617D01*
X102561788Y-132665000D01*
X102338212Y-132665000D01*
X102118933Y-132708617D01*
X101912376Y-132794176D01*
X101726480Y-132918388D01*
X101568388Y-133076480D01*
X101444176Y-133262376D01*
X101358617Y-133468933D01*
X101315000Y-133688212D01*
X99185000Y-133688212D01*
X99141383Y-133468933D01*
X99055824Y-133262376D01*
X98931612Y-133076480D01*
X98773520Y-132918388D01*
X98587624Y-132794176D01*
X98381067Y-132708617D01*
X98161788Y-132665000D01*
X97938212Y-132665000D01*
X97718933Y-132708617D01*
X97512376Y-132794176D01*
X97326480Y-132918388D01*
X97168388Y-133076480D01*
X97044176Y-133262376D01*
X96958617Y-133468933D01*
X96915000Y-133688212D01*
X51447700Y-133688212D01*
X51447700Y-128810000D01*
X73507573Y-128810000D01*
X73537210Y-129110913D01*
X73624983Y-129400261D01*
X73767519Y-129666927D01*
X73959339Y-129900661D01*
X74193073Y-130092481D01*
X74459739Y-130235017D01*
X74749087Y-130322790D01*
X74974592Y-130345000D01*
X87325408Y-130345000D01*
X87550913Y-130322790D01*
X87840261Y-130235017D01*
X88106927Y-130092481D01*
X88148132Y-130058665D01*
X115315000Y-130058665D01*
X115315000Y-130341335D01*
X115370147Y-130618574D01*
X115478320Y-130879727D01*
X115635363Y-131114759D01*
X115835241Y-131314637D01*
X116070273Y-131471680D01*
X116331426Y-131579853D01*
X116608665Y-131635000D01*
X116891335Y-131635000D01*
X117168574Y-131579853D01*
X117429727Y-131471680D01*
X117664759Y-131314637D01*
X117864637Y-131114759D01*
X118021680Y-130879727D01*
X118129853Y-130618574D01*
X118185000Y-130341335D01*
X118185000Y-130058665D01*
X118129853Y-129781426D01*
X118021680Y-129520273D01*
X117864637Y-129285241D01*
X117664759Y-129085363D01*
X117429727Y-128928320D01*
X117168574Y-128820147D01*
X116891335Y-128765000D01*
X116608665Y-128765000D01*
X116331426Y-128820147D01*
X116070273Y-128928320D01*
X115835241Y-129085363D01*
X115635363Y-129285241D01*
X115478320Y-129520273D01*
X115370147Y-129781426D01*
X115315000Y-130058665D01*
X88148132Y-130058665D01*
X88340661Y-129900661D01*
X88532481Y-129666927D01*
X88675017Y-129400261D01*
X88762790Y-129110913D01*
X88792427Y-128810000D01*
X88762790Y-128509087D01*
X88675017Y-128219739D01*
X88532481Y-127953073D01*
X88340661Y-127719339D01*
X88106927Y-127527519D01*
X87840261Y-127384983D01*
X87550913Y-127297210D01*
X87325408Y-127275000D01*
X74974592Y-127275000D01*
X74749087Y-127297210D01*
X74459739Y-127384983D01*
X74193073Y-127527519D01*
X73959339Y-127719339D01*
X73767519Y-127953073D01*
X73624983Y-128219739D01*
X73537210Y-128509087D01*
X73507573Y-128810000D01*
X51447700Y-128810000D01*
X51447700Y-120833500D01*
X76029914Y-120833500D01*
X76033600Y-120870923D01*
X76033600Y-121532675D01*
X76033601Y-123667867D01*
X76029914Y-123705300D01*
X76044627Y-123854678D01*
X76088199Y-123998315D01*
X76158955Y-124130692D01*
X76230321Y-124217651D01*
X76254179Y-124246722D01*
X76283249Y-124270579D01*
X76429221Y-124416551D01*
X76950020Y-124937351D01*
X76973878Y-124966422D01*
X77089908Y-125061645D01*
X77222285Y-125132402D01*
X77365922Y-125175974D01*
X77477874Y-125187000D01*
X77477876Y-125187000D01*
X77515299Y-125190686D01*
X77552722Y-125187000D01*
X83259777Y-125187000D01*
X83297200Y-125190686D01*
X83334623Y-125187000D01*
X83334626Y-125187000D01*
X83446578Y-125175974D01*
X83590215Y-125132402D01*
X83722592Y-125061645D01*
X83838622Y-124966422D01*
X83862483Y-124937347D01*
X83969030Y-124830800D01*
X84007467Y-124830800D01*
X84203756Y-124791756D01*
X84388656Y-124715168D01*
X84555062Y-124603979D01*
X84696579Y-124462462D01*
X84807768Y-124296056D01*
X84884356Y-124111156D01*
X84923400Y-123914867D01*
X84923400Y-123816000D01*
X90134137Y-123816000D01*
X90319587Y-123939913D01*
X90527599Y-124026075D01*
X90748424Y-124070000D01*
X90973576Y-124070000D01*
X91194401Y-124026075D01*
X91402413Y-123939913D01*
X91589620Y-123814826D01*
X91748826Y-123655620D01*
X91873913Y-123468413D01*
X91960075Y-123260401D01*
X92004000Y-123039576D01*
X92004000Y-122814424D01*
X91960075Y-122593599D01*
X91873913Y-122385587D01*
X91748826Y-122198380D01*
X91589620Y-122039174D01*
X91402413Y-121914087D01*
X91194401Y-121827925D01*
X90973576Y-121784000D01*
X90748424Y-121784000D01*
X90527599Y-121827925D01*
X90319587Y-121914087D01*
X90134137Y-122038000D01*
X85248574Y-122038000D01*
X85330606Y-121994153D01*
X85465974Y-121883059D01*
X85493813Y-121849137D01*
X85853951Y-121489000D01*
X109990851Y-121489000D01*
X109950925Y-121585389D01*
X109907000Y-121806214D01*
X109907000Y-122031366D01*
X109950925Y-122252191D01*
X110037087Y-122460203D01*
X110162174Y-122647410D01*
X110321380Y-122806616D01*
X110508587Y-122931703D01*
X110716599Y-123017865D01*
X110937424Y-123061790D01*
X111162576Y-123061790D01*
X111383401Y-123017865D01*
X111591413Y-122931703D01*
X111778620Y-122806616D01*
X111937826Y-122647410D01*
X112062913Y-122460203D01*
X112149075Y-122252191D01*
X112171590Y-122139000D01*
X115708187Y-122139000D01*
X115709187Y-122141413D01*
X115834274Y-122328620D01*
X115993480Y-122487826D01*
X116180687Y-122612913D01*
X116388699Y-122699075D01*
X116609524Y-122743000D01*
X116834676Y-122743000D01*
X117055501Y-122699075D01*
X117263513Y-122612913D01*
X117450720Y-122487826D01*
X117609926Y-122328620D01*
X117735013Y-122141413D01*
X117821175Y-121933401D01*
X117865100Y-121712576D01*
X117865100Y-121487424D01*
X117821175Y-121266599D01*
X117735013Y-121058587D01*
X117657603Y-120942734D01*
X117789121Y-121074252D01*
X117812978Y-121103322D01*
X117842048Y-121127179D01*
X117929007Y-121198545D01*
X117949619Y-121209562D01*
X118061385Y-121269302D01*
X118205022Y-121312874D01*
X118316974Y-121323900D01*
X118316977Y-121323900D01*
X118354400Y-121327586D01*
X118391823Y-121323900D01*
X123676459Y-121323900D01*
X123703638Y-121351079D01*
X123870044Y-121462268D01*
X124054944Y-121538856D01*
X124251233Y-121577900D01*
X124451367Y-121577900D01*
X124647656Y-121538856D01*
X124832556Y-121462268D01*
X124998962Y-121351079D01*
X125140479Y-121209562D01*
X125251668Y-121043156D01*
X125328256Y-120858256D01*
X125367300Y-120661967D01*
X125367300Y-120461833D01*
X125328256Y-120265544D01*
X125251668Y-120080644D01*
X125140479Y-119914238D01*
X124998962Y-119772721D01*
X124832556Y-119661532D01*
X124647656Y-119584944D01*
X124451367Y-119545900D01*
X124251233Y-119545900D01*
X124054944Y-119584944D01*
X123870044Y-119661532D01*
X123703638Y-119772721D01*
X123676459Y-119799900D01*
X118670031Y-119799900D01*
X116740100Y-117869970D01*
X116740100Y-117831533D01*
X116701056Y-117635244D01*
X116624468Y-117450344D01*
X116513279Y-117283938D01*
X116371762Y-117142421D01*
X116205356Y-117031232D01*
X116020456Y-116954644D01*
X115922146Y-116935089D01*
X116985704Y-115871531D01*
X129965000Y-115871531D01*
X129965000Y-116528469D01*
X130093162Y-117172784D01*
X130344561Y-117779715D01*
X130709536Y-118325939D01*
X131174061Y-118790464D01*
X131720285Y-119155439D01*
X132327216Y-119406838D01*
X132971531Y-119535000D01*
X133628469Y-119535000D01*
X134272784Y-119406838D01*
X134879715Y-119155439D01*
X135425939Y-118790464D01*
X135890464Y-118325939D01*
X136255439Y-117779715D01*
X136506838Y-117172784D01*
X136635000Y-116528469D01*
X136635000Y-115871531D01*
X178965000Y-115871531D01*
X178965000Y-116528469D01*
X179093162Y-117172784D01*
X179344561Y-117779715D01*
X179709536Y-118325939D01*
X180174061Y-118790464D01*
X180720285Y-119155439D01*
X181327216Y-119406838D01*
X181971531Y-119535000D01*
X182628469Y-119535000D01*
X183272784Y-119406838D01*
X183879715Y-119155439D01*
X184425939Y-118790464D01*
X184890464Y-118325939D01*
X185255439Y-117779715D01*
X185506838Y-117172784D01*
X185635000Y-116528469D01*
X185635000Y-115871531D01*
X185506838Y-115227216D01*
X185255439Y-114620285D01*
X184890464Y-114074061D01*
X184425939Y-113609536D01*
X183879715Y-113244561D01*
X183272784Y-112993162D01*
X182628469Y-112865000D01*
X181971531Y-112865000D01*
X181327216Y-112993162D01*
X180720285Y-113244561D01*
X180174061Y-113609536D01*
X179709536Y-114074061D01*
X179344561Y-114620285D01*
X179093162Y-115227216D01*
X178965000Y-115871531D01*
X136635000Y-115871531D01*
X136506838Y-115227216D01*
X136255439Y-114620285D01*
X135890464Y-114074061D01*
X135425939Y-113609536D01*
X134879715Y-113244561D01*
X134272784Y-112993162D01*
X133628469Y-112865000D01*
X132971531Y-112865000D01*
X132327216Y-112993162D01*
X131720285Y-113244561D01*
X131174061Y-113609536D01*
X130709536Y-114074061D01*
X130344561Y-114620285D01*
X130093162Y-115227216D01*
X129965000Y-115871531D01*
X116985704Y-115871531D01*
X121699485Y-111157750D01*
X158680000Y-111157750D01*
X158680000Y-112579542D01*
X158704403Y-112702223D01*
X158752270Y-112817785D01*
X158821763Y-112921789D01*
X158910211Y-113010237D01*
X159014215Y-113079730D01*
X159129777Y-113127597D01*
X159252458Y-113152000D01*
X160234250Y-113152000D01*
X160393000Y-112993250D01*
X160393000Y-110999000D01*
X158838750Y-110999000D01*
X158680000Y-111157750D01*
X121699485Y-111157750D01*
X136534736Y-96322500D01*
X142956054Y-96322500D01*
X142961380Y-96327826D01*
X143148587Y-96452913D01*
X143356599Y-96539075D01*
X143577424Y-96583000D01*
X143802576Y-96583000D01*
X144023401Y-96539075D01*
X144231413Y-96452913D01*
X144418620Y-96327826D01*
X144423946Y-96322500D01*
X145993840Y-96322500D01*
X146037500Y-96326800D01*
X146081160Y-96322500D01*
X146081167Y-96322500D01*
X146211774Y-96309636D01*
X146379351Y-96258803D01*
X146404854Y-96245171D01*
X146407000Y-96266960D01*
X146407000Y-96266966D01*
X146413825Y-96336256D01*
X146419864Y-96397574D01*
X146429627Y-96429759D01*
X146470697Y-96565150D01*
X146553247Y-96719590D01*
X146664341Y-96854959D01*
X146698264Y-96882799D01*
X147157301Y-97341835D01*
X147157305Y-97341840D01*
X158749168Y-108933704D01*
X158704403Y-109041777D01*
X158680000Y-109164458D01*
X158680000Y-110586250D01*
X158838750Y-110745000D01*
X160393000Y-110745000D01*
X160393000Y-110725000D01*
X160647000Y-110725000D01*
X160647000Y-110745000D01*
X160667000Y-110745000D01*
X160667000Y-110999000D01*
X160647000Y-110999000D01*
X160647000Y-112993250D01*
X160805750Y-113152000D01*
X161787542Y-113152000D01*
X161910223Y-113127597D01*
X162025785Y-113079730D01*
X162129789Y-113010237D01*
X162218237Y-112921789D01*
X162287730Y-112817785D01*
X162335597Y-112702223D01*
X162360000Y-112579542D01*
X162360000Y-111488635D01*
X163944059Y-113072695D01*
X163944065Y-113072700D01*
X164403101Y-113531735D01*
X164403105Y-113531740D01*
X164648901Y-113777536D01*
X164676741Y-113811459D01*
X164812109Y-113922553D01*
X164966549Y-114005103D01*
X165086866Y-114041600D01*
X165134125Y-114055936D01*
X165150725Y-114057571D01*
X165264733Y-114068800D01*
X165264740Y-114068800D01*
X165308400Y-114073100D01*
X165352060Y-114068800D01*
X168546040Y-114068800D01*
X168589700Y-114073100D01*
X168633360Y-114068800D01*
X168633367Y-114068800D01*
X168763974Y-114055936D01*
X168931551Y-114005103D01*
X169085991Y-113922553D01*
X169221359Y-113811459D01*
X169249199Y-113777536D01*
X177153048Y-105873688D01*
X177371801Y-105830175D01*
X177579813Y-105744013D01*
X177767020Y-105618926D01*
X177926226Y-105459720D01*
X178051313Y-105272513D01*
X178137475Y-105064501D01*
X178181400Y-104843676D01*
X178181400Y-104618524D01*
X178137475Y-104397699D01*
X178051313Y-104189687D01*
X177926226Y-104002480D01*
X177767020Y-103843274D01*
X177579813Y-103718187D01*
X177371801Y-103632025D01*
X177150976Y-103588100D01*
X176925824Y-103588100D01*
X176704999Y-103632025D01*
X176496987Y-103718187D01*
X176309780Y-103843274D01*
X176150574Y-104002480D01*
X176025487Y-104189687D01*
X175939325Y-104397699D01*
X175895812Y-104616452D01*
X168221465Y-112290800D01*
X167593800Y-112290800D01*
X167593800Y-112190633D01*
X167554756Y-111994344D01*
X167478168Y-111809444D01*
X167466800Y-111792431D01*
X167466800Y-104790435D01*
X168947737Y-103309498D01*
X168981659Y-103281659D01*
X169092753Y-103146291D01*
X169175303Y-102991851D01*
X169223251Y-102833785D01*
X169226136Y-102824276D01*
X169234466Y-102739700D01*
X169239000Y-102693667D01*
X169239000Y-102693661D01*
X169243300Y-102650001D01*
X169239000Y-102606341D01*
X169239000Y-101385750D01*
X183715000Y-101385750D01*
X183715000Y-101962542D01*
X183739403Y-102085223D01*
X183787270Y-102200785D01*
X183856763Y-102304789D01*
X183945211Y-102393237D01*
X184049215Y-102462730D01*
X184164777Y-102510597D01*
X184287458Y-102535000D01*
X185064250Y-102535000D01*
X185223000Y-102376250D01*
X185223000Y-101227000D01*
X185477000Y-101227000D01*
X185477000Y-102376250D01*
X185635750Y-102535000D01*
X186412542Y-102535000D01*
X186535223Y-102510597D01*
X186650785Y-102462730D01*
X186754789Y-102393237D01*
X186843237Y-102304789D01*
X186912730Y-102200785D01*
X186960597Y-102085223D01*
X186985000Y-101962542D01*
X186985000Y-101385750D01*
X186826250Y-101227000D01*
X185477000Y-101227000D01*
X185223000Y-101227000D01*
X183873750Y-101227000D01*
X183715000Y-101385750D01*
X169239000Y-101385750D01*
X169239000Y-100237458D01*
X183715000Y-100237458D01*
X183715000Y-100814250D01*
X183873750Y-100973000D01*
X185223000Y-100973000D01*
X185223000Y-99823750D01*
X185477000Y-99823750D01*
X185477000Y-100973000D01*
X186826250Y-100973000D01*
X186985000Y-100814250D01*
X186985000Y-100237458D01*
X186960597Y-100114777D01*
X186912730Y-99999215D01*
X186843237Y-99895211D01*
X186754789Y-99806763D01*
X186650785Y-99737270D01*
X186535223Y-99689403D01*
X186412542Y-99665000D01*
X185635750Y-99665000D01*
X185477000Y-99823750D01*
X185223000Y-99823750D01*
X185064250Y-99665000D01*
X184287458Y-99665000D01*
X184164777Y-99689403D01*
X184049215Y-99737270D01*
X183945211Y-99806763D01*
X183856763Y-99895211D01*
X183787270Y-99999215D01*
X183739403Y-100114777D01*
X183715000Y-100237458D01*
X169239000Y-100237458D01*
X169239000Y-81918235D01*
X177734900Y-73422335D01*
X177734900Y-74109477D01*
X177731214Y-74146900D01*
X177734900Y-74184323D01*
X177734900Y-74184325D01*
X177745926Y-74296277D01*
X177789498Y-74439914D01*
X177822435Y-74501535D01*
X177860255Y-74572292D01*
X177885532Y-74603092D01*
X177955478Y-74688322D01*
X177984554Y-74712184D01*
X179193981Y-75921612D01*
X178920515Y-75838657D01*
X178600000Y-75807089D01*
X178279484Y-75838657D01*
X177971285Y-75932148D01*
X177687248Y-76083969D01*
X177438286Y-76288286D01*
X177233969Y-76537249D01*
X177082148Y-76821286D01*
X176988657Y-77129485D01*
X176965000Y-77369679D01*
X176965001Y-91530322D01*
X176988658Y-91770516D01*
X177082149Y-92078715D01*
X177233970Y-92362752D01*
X177438287Y-92611714D01*
X177687249Y-92816031D01*
X177971286Y-92967852D01*
X178279485Y-93061343D01*
X178600000Y-93092911D01*
X178920516Y-93061343D01*
X179228715Y-92967852D01*
X179512752Y-92816031D01*
X179761714Y-92611714D01*
X179966031Y-92362752D01*
X180117852Y-92078715D01*
X180211343Y-91770516D01*
X180235000Y-91530322D01*
X180235000Y-89283030D01*
X183711928Y-92759958D01*
X183711928Y-94100000D01*
X183724188Y-94224482D01*
X183760498Y-94344180D01*
X183819463Y-94454494D01*
X183898815Y-94551185D01*
X183995506Y-94630537D01*
X184105820Y-94689502D01*
X184225518Y-94725812D01*
X184350000Y-94738072D01*
X186350000Y-94738072D01*
X186474482Y-94725812D01*
X186594180Y-94689502D01*
X186704494Y-94630537D01*
X186801185Y-94551185D01*
X186880537Y-94454494D01*
X186939502Y-94344180D01*
X186975812Y-94224482D01*
X186988072Y-94100000D01*
X186988072Y-92500000D01*
X186975812Y-92375518D01*
X186939502Y-92255820D01*
X186880537Y-92145506D01*
X186801185Y-92048815D01*
X186704494Y-91969463D01*
X186594180Y-91910498D01*
X186474482Y-91874188D01*
X186350000Y-91861928D01*
X184969158Y-91861928D01*
X181312000Y-88204770D01*
X181312000Y-76237423D01*
X181315686Y-76200000D01*
X181312000Y-76162574D01*
X181300974Y-76050622D01*
X181257402Y-75906985D01*
X181218573Y-75834341D01*
X181186645Y-75774607D01*
X181115279Y-75687648D01*
X181091422Y-75658578D01*
X181062352Y-75634721D01*
X179258900Y-73831270D01*
X179258900Y-70372522D01*
X179262586Y-70335099D01*
X179258900Y-70297674D01*
X179247874Y-70185722D01*
X179204302Y-70042085D01*
X179133545Y-69909708D01*
X179038322Y-69793678D01*
X179009251Y-69769820D01*
X178541383Y-69301953D01*
X178517522Y-69272878D01*
X178401492Y-69177655D01*
X178269115Y-69106898D01*
X178125478Y-69063326D01*
X178013526Y-69052300D01*
X178013523Y-69052300D01*
X177976100Y-69048614D01*
X177938677Y-69052300D01*
X177276923Y-69052300D01*
X177239500Y-69048614D01*
X177202077Y-69052300D01*
X177202074Y-69052300D01*
X177090122Y-69063326D01*
X176946485Y-69106898D01*
X176916121Y-69123128D01*
X176814107Y-69177655D01*
X176795016Y-69193323D01*
X176698078Y-69272878D01*
X176674216Y-69301954D01*
X175775770Y-70200400D01*
X173718841Y-70200400D01*
X173691662Y-70173221D01*
X173525256Y-70062032D01*
X173340356Y-69985444D01*
X173144067Y-69946400D01*
X172943933Y-69946400D01*
X172747644Y-69985444D01*
X172562744Y-70062032D01*
X172396338Y-70173221D01*
X172254821Y-70314738D01*
X172143632Y-70481144D01*
X172067044Y-70666044D01*
X172028000Y-70862333D01*
X172028000Y-71062467D01*
X172067044Y-71258756D01*
X172143632Y-71443656D01*
X172254821Y-71610062D01*
X172396338Y-71751579D01*
X172562744Y-71862768D01*
X172747644Y-71939356D01*
X172943933Y-71978400D01*
X173144067Y-71978400D01*
X173340356Y-71939356D01*
X173525256Y-71862768D01*
X173691662Y-71751579D01*
X173718841Y-71724400D01*
X176053977Y-71724400D01*
X176091400Y-71728086D01*
X176128823Y-71724400D01*
X176128826Y-71724400D01*
X176240778Y-71713374D01*
X176384415Y-71669802D01*
X176516792Y-71599045D01*
X176632822Y-71503822D01*
X176656684Y-71474746D01*
X176718800Y-71412630D01*
X176718800Y-71923965D01*
X167752259Y-80890506D01*
X167718342Y-80918341D01*
X167690507Y-80952258D01*
X167690505Y-80952260D01*
X167607248Y-81053709D01*
X167524698Y-81208148D01*
X167473864Y-81375726D01*
X167456700Y-81550000D01*
X167461001Y-81593670D01*
X167461001Y-89626739D01*
X167256001Y-89541825D01*
X167035176Y-89497900D01*
X166810024Y-89497900D01*
X166589199Y-89541825D01*
X166381187Y-89627987D01*
X166195737Y-89751900D01*
X161109136Y-89751900D01*
X143031899Y-71674664D01*
X143004059Y-71640741D01*
X142868691Y-71529647D01*
X142714251Y-71447097D01*
X142546674Y-71396264D01*
X142416067Y-71383400D01*
X142416060Y-71383400D01*
X142372400Y-71379100D01*
X142328740Y-71383400D01*
X138311436Y-71383400D01*
X137005024Y-70076989D01*
X149842767Y-70076989D01*
X149702338Y-70170821D01*
X149560821Y-70312338D01*
X149449632Y-70478744D01*
X149373044Y-70663644D01*
X149334000Y-70859933D01*
X149334000Y-70928744D01*
X149176644Y-70960044D01*
X148991744Y-71036632D01*
X148825338Y-71147821D01*
X148683821Y-71289338D01*
X148572632Y-71455744D01*
X148496044Y-71640644D01*
X148481103Y-71715756D01*
X148293644Y-71753044D01*
X148108744Y-71829632D01*
X147942338Y-71940821D01*
X147800821Y-72082338D01*
X147689632Y-72248744D01*
X147613044Y-72433644D01*
X147574000Y-72629933D01*
X147574000Y-72830067D01*
X147613044Y-73026356D01*
X147689632Y-73211256D01*
X147800821Y-73377662D01*
X147942338Y-73519179D01*
X148108744Y-73630368D01*
X148293644Y-73706956D01*
X148489933Y-73746000D01*
X148690067Y-73746000D01*
X148886356Y-73706956D01*
X149071256Y-73630368D01*
X149237662Y-73519179D01*
X149264841Y-73492000D01*
X159112577Y-73492000D01*
X159150000Y-73495686D01*
X159187423Y-73492000D01*
X159187426Y-73492000D01*
X159299378Y-73480974D01*
X159443015Y-73437402D01*
X159575392Y-73366645D01*
X159691422Y-73271422D01*
X159715284Y-73242346D01*
X160361630Y-72596000D01*
X160400067Y-72596000D01*
X160596356Y-72556956D01*
X160781256Y-72480368D01*
X160947662Y-72369179D01*
X161089179Y-72227662D01*
X161200368Y-72061256D01*
X161276956Y-71876356D01*
X161316000Y-71680067D01*
X161316000Y-71479933D01*
X161276956Y-71283644D01*
X161200368Y-71098744D01*
X161089179Y-70932338D01*
X160947662Y-70790821D01*
X160781256Y-70679632D01*
X160596356Y-70603044D01*
X160400067Y-70564000D01*
X160199933Y-70564000D01*
X160129713Y-70577968D01*
X160079179Y-70502338D01*
X159937662Y-70360821D01*
X159771256Y-70249632D01*
X159586356Y-70173044D01*
X159390067Y-70134000D01*
X159189933Y-70134000D01*
X158993644Y-70173044D01*
X158808744Y-70249632D01*
X158642338Y-70360821D01*
X158500821Y-70502338D01*
X158389632Y-70668744D01*
X158313044Y-70853644D01*
X158274000Y-71049933D01*
X158274000Y-71088370D01*
X158184370Y-71178000D01*
X151342542Y-71178000D01*
X151366000Y-71060067D01*
X151366000Y-71021630D01*
X151935631Y-70452000D01*
X156625159Y-70452000D01*
X156652338Y-70479179D01*
X156818744Y-70590368D01*
X157003644Y-70666956D01*
X157199933Y-70706000D01*
X157400067Y-70706000D01*
X157596356Y-70666956D01*
X157781256Y-70590368D01*
X157947662Y-70479179D01*
X158089179Y-70337662D01*
X158200368Y-70171256D01*
X158276956Y-69986356D01*
X158316000Y-69790067D01*
X158316000Y-69589933D01*
X158276956Y-69393644D01*
X158200368Y-69208744D01*
X158089179Y-69042338D01*
X157947662Y-68900821D01*
X157781256Y-68789632D01*
X157596356Y-68713044D01*
X157400067Y-68674000D01*
X157268616Y-68674000D01*
X157193434Y-68492494D01*
X157082245Y-68326088D01*
X156940728Y-68184571D01*
X156774322Y-68073382D01*
X156589422Y-67996794D01*
X156393133Y-67957750D01*
X156192999Y-67957750D01*
X155996710Y-67996794D01*
X155811810Y-68073382D01*
X155645404Y-68184571D01*
X155618225Y-68211750D01*
X151483673Y-68211750D01*
X151446250Y-68208064D01*
X151408827Y-68211750D01*
X151408824Y-68211750D01*
X151296872Y-68222776D01*
X151153235Y-68266348D01*
X151020858Y-68337105D01*
X150904828Y-68432328D01*
X150880966Y-68461404D01*
X150789381Y-68552989D01*
X133404641Y-68552989D01*
X138225631Y-63732000D01*
X153115159Y-63732000D01*
X153142338Y-63759179D01*
X153308744Y-63870368D01*
X153493644Y-63946956D01*
X153689933Y-63986000D01*
X153890067Y-63986000D01*
X154086356Y-63946956D01*
X154271256Y-63870368D01*
X154437662Y-63759179D01*
X154579179Y-63617662D01*
X154690368Y-63451256D01*
X154766956Y-63266356D01*
X154806000Y-63070067D01*
X154806000Y-62869933D01*
X154766956Y-62673644D01*
X154690368Y-62488744D01*
X154579179Y-62322338D01*
X154437662Y-62180821D01*
X154271256Y-62069632D01*
X154086356Y-61993044D01*
X153890067Y-61954000D01*
X153689933Y-61954000D01*
X153493644Y-61993044D01*
X153308744Y-62069632D01*
X153142338Y-62180821D01*
X153115159Y-62208000D01*
X137947423Y-62208000D01*
X137910000Y-62204314D01*
X137872577Y-62208000D01*
X137872574Y-62208000D01*
X137760622Y-62219026D01*
X137616985Y-62262598D01*
X137555364Y-62295535D01*
X137484607Y-62333355D01*
X137401904Y-62401228D01*
X137368578Y-62428578D01*
X137344721Y-62457648D01*
X130274721Y-69527649D01*
X130217058Y-69597911D01*
X119489170Y-80325800D01*
X116521022Y-80325800D01*
X116483599Y-80322114D01*
X116446176Y-80325800D01*
X116446174Y-80325800D01*
X116334222Y-80336826D01*
X116190585Y-80380398D01*
X116058208Y-80451155D01*
X115942178Y-80546378D01*
X115918321Y-80575449D01*
X107564096Y-88929674D01*
X107541647Y-88907225D01*
X107363940Y-88788485D01*
X107166483Y-88706696D01*
X106956863Y-88665000D01*
X106743137Y-88665000D01*
X106533517Y-88706696D01*
X106336060Y-88788485D01*
X106158353Y-88907225D01*
X106007225Y-89058353D01*
X105888485Y-89236060D01*
X105806696Y-89433517D01*
X105765000Y-89643137D01*
X105765000Y-89856863D01*
X105806696Y-90066483D01*
X105888485Y-90263940D01*
X106007225Y-90441647D01*
X106029674Y-90464096D01*
X83017454Y-113476316D01*
X82988378Y-113500178D01*
X82942994Y-113555479D01*
X82893155Y-113616208D01*
X82861147Y-113676091D01*
X82822398Y-113748586D01*
X82778826Y-113892223D01*
X82767800Y-114004174D01*
X82764114Y-114041600D01*
X82767800Y-114079024D01*
X82767801Y-115267358D01*
X82740621Y-115294538D01*
X82629432Y-115460944D01*
X82552844Y-115645844D01*
X82513800Y-115842133D01*
X82513800Y-116042267D01*
X82552844Y-116238556D01*
X82629432Y-116423456D01*
X82740621Y-116589862D01*
X82882138Y-116731379D01*
X83048544Y-116842568D01*
X83233444Y-116919156D01*
X83429733Y-116958200D01*
X83470369Y-116958200D01*
X80877870Y-119550700D01*
X77353822Y-119550700D01*
X77316399Y-119547014D01*
X77278976Y-119550700D01*
X77278974Y-119550700D01*
X77167022Y-119561726D01*
X77023385Y-119605298D01*
X76891008Y-119676055D01*
X76774978Y-119771278D01*
X76751120Y-119800349D01*
X76283253Y-120268217D01*
X76254178Y-120292078D01*
X76205796Y-120351032D01*
X76158955Y-120408108D01*
X76124174Y-120473180D01*
X76088198Y-120540486D01*
X76044626Y-120684123D01*
X76039311Y-120738092D01*
X76029914Y-120833500D01*
X51447700Y-120833500D01*
X51447700Y-117934074D01*
X51709536Y-118325939D01*
X52174061Y-118790464D01*
X52720285Y-119155439D01*
X53327216Y-119406838D01*
X53971531Y-119535000D01*
X54628469Y-119535000D01*
X55272784Y-119406838D01*
X55879715Y-119155439D01*
X56425939Y-118790464D01*
X56890464Y-118325939D01*
X57255439Y-117779715D01*
X57506838Y-117172784D01*
X57627607Y-116565634D01*
X72557000Y-116565634D01*
X72557000Y-116790786D01*
X72600925Y-117011611D01*
X72687087Y-117219623D01*
X72812174Y-117406830D01*
X72971380Y-117566036D01*
X73158587Y-117691123D01*
X73366599Y-117777285D01*
X73587424Y-117821210D01*
X73811160Y-117821210D01*
X73775370Y-117857000D01*
X73597424Y-117857000D01*
X73376599Y-117900925D01*
X73168587Y-117987087D01*
X72981380Y-118112174D01*
X72822174Y-118271380D01*
X72697087Y-118458587D01*
X72610925Y-118666599D01*
X72567000Y-118887424D01*
X72567000Y-119112576D01*
X72610925Y-119333401D01*
X72697087Y-119541413D01*
X72822174Y-119728620D01*
X72981380Y-119887826D01*
X73168587Y-120012913D01*
X73376599Y-120099075D01*
X73597424Y-120143000D01*
X73822576Y-120143000D01*
X74043401Y-120099075D01*
X74251413Y-120012913D01*
X74438620Y-119887826D01*
X74597826Y-119728620D01*
X74722913Y-119541413D01*
X74809075Y-119333401D01*
X74853000Y-119112576D01*
X74853000Y-118934630D01*
X75542352Y-118245279D01*
X75571422Y-118221422D01*
X75606702Y-118178433D01*
X75666645Y-118105393D01*
X75729880Y-117987087D01*
X75737402Y-117973015D01*
X75780974Y-117829378D01*
X75792000Y-117717426D01*
X75792000Y-117717423D01*
X75795686Y-117680000D01*
X75792000Y-117642577D01*
X75792000Y-115584841D01*
X75819179Y-115557662D01*
X75930368Y-115391256D01*
X76006956Y-115206356D01*
X76046000Y-115010067D01*
X76046000Y-114809933D01*
X76006956Y-114613644D01*
X75930368Y-114428744D01*
X75819179Y-114262338D01*
X75677662Y-114120821D01*
X75511256Y-114009632D01*
X75326356Y-113933044D01*
X75130067Y-113894000D01*
X74929933Y-113894000D01*
X74733644Y-113933044D01*
X74548744Y-114009632D01*
X74407483Y-114104020D01*
X74251256Y-113999632D01*
X74066356Y-113923044D01*
X73870067Y-113884000D01*
X73669933Y-113884000D01*
X73473644Y-113923044D01*
X73288744Y-113999632D01*
X73122338Y-114110821D01*
X72980821Y-114252338D01*
X72869632Y-114418744D01*
X72793044Y-114603644D01*
X72754000Y-114799933D01*
X72754000Y-115000067D01*
X72793044Y-115196356D01*
X72869632Y-115381256D01*
X72980821Y-115547662D01*
X73008000Y-115574841D01*
X73008001Y-115765915D01*
X72971380Y-115790384D01*
X72812174Y-115949590D01*
X72687087Y-116136797D01*
X72600925Y-116344809D01*
X72557000Y-116565634D01*
X57627607Y-116565634D01*
X57635000Y-116528469D01*
X57635000Y-115871531D01*
X57506838Y-115227216D01*
X57255439Y-114620285D01*
X56890464Y-114074061D01*
X56425939Y-113609536D01*
X55879715Y-113244561D01*
X55272784Y-112993162D01*
X54628469Y-112865000D01*
X53971531Y-112865000D01*
X53327216Y-112993162D01*
X52720285Y-113244561D01*
X52174061Y-113609536D01*
X51709536Y-114074061D01*
X51447700Y-114465926D01*
X51447700Y-82881961D01*
X68684521Y-82881961D01*
X68684521Y-83082095D01*
X68723565Y-83278384D01*
X68800153Y-83463284D01*
X68911342Y-83629690D01*
X69052859Y-83771207D01*
X69219265Y-83882396D01*
X69404165Y-83958984D01*
X69600454Y-83998028D01*
X69800588Y-83998028D01*
X69996877Y-83958984D01*
X70181777Y-83882396D01*
X70348183Y-83771207D01*
X70375362Y-83744028D01*
X70616398Y-83744028D01*
X71158023Y-84285654D01*
X71158023Y-84324090D01*
X71197067Y-84520379D01*
X71273655Y-84705279D01*
X71384844Y-84871685D01*
X71526361Y-85013202D01*
X71692767Y-85124391D01*
X71877667Y-85200979D01*
X72073956Y-85240023D01*
X72274090Y-85240023D01*
X72470379Y-85200979D01*
X72655279Y-85124391D01*
X72821685Y-85013202D01*
X72825901Y-85008986D01*
X72825900Y-103089377D01*
X72822214Y-103126800D01*
X72825900Y-103164223D01*
X72825900Y-103164225D01*
X72836926Y-103276177D01*
X72880498Y-103419814D01*
X72913435Y-103481435D01*
X72951255Y-103552192D01*
X72980724Y-103588100D01*
X73046478Y-103668222D01*
X73075553Y-103692083D01*
X73200800Y-103817330D01*
X73200800Y-103855767D01*
X73239844Y-104052056D01*
X73316432Y-104236956D01*
X73427621Y-104403362D01*
X73569138Y-104544879D01*
X73735544Y-104656068D01*
X73920444Y-104732656D01*
X74116733Y-104771700D01*
X74316867Y-104771700D01*
X74513156Y-104732656D01*
X74698056Y-104656068D01*
X74864462Y-104544879D01*
X75005979Y-104403362D01*
X75117168Y-104236956D01*
X75193756Y-104052056D01*
X75232800Y-103855767D01*
X75232800Y-103655633D01*
X75193756Y-103459344D01*
X75117168Y-103274444D01*
X75005979Y-103108038D01*
X74864462Y-102966521D01*
X74698056Y-102855332D01*
X74513156Y-102778744D01*
X74349900Y-102746271D01*
X74349900Y-76573300D01*
X76154000Y-76573300D01*
X76154000Y-76687267D01*
X76193044Y-76883556D01*
X76269632Y-77068456D01*
X76380821Y-77234862D01*
X76418001Y-77272042D01*
X76418000Y-97245742D01*
X76281244Y-97272944D01*
X76096344Y-97349532D01*
X75929938Y-97460721D01*
X75788421Y-97602238D01*
X75677232Y-97768644D01*
X75600644Y-97953544D01*
X75561600Y-98149833D01*
X75561600Y-98349967D01*
X75600644Y-98546256D01*
X75677232Y-98731156D01*
X75788421Y-98897562D01*
X75929938Y-99039079D01*
X76096344Y-99150268D01*
X76281244Y-99226856D01*
X76477533Y-99265900D01*
X76677667Y-99265900D01*
X76873956Y-99226856D01*
X77058856Y-99150268D01*
X77225262Y-99039079D01*
X77366779Y-98897562D01*
X77477968Y-98731156D01*
X77554556Y-98546256D01*
X77593600Y-98349967D01*
X77593600Y-98311531D01*
X77692352Y-98212778D01*
X77721422Y-98188922D01*
X77816645Y-98072892D01*
X77887402Y-97940515D01*
X77930974Y-97796878D01*
X77942000Y-97684926D01*
X77942000Y-97684924D01*
X77945686Y-97647501D01*
X77942000Y-97610078D01*
X77942000Y-89643137D01*
X102765000Y-89643137D01*
X102765000Y-89856863D01*
X102806696Y-90066483D01*
X102888485Y-90263940D01*
X103007225Y-90441647D01*
X103158353Y-90592775D01*
X103336060Y-90711515D01*
X103533517Y-90793304D01*
X103743137Y-90835000D01*
X103956863Y-90835000D01*
X104166483Y-90793304D01*
X104363940Y-90711515D01*
X104541647Y-90592775D01*
X104692775Y-90441647D01*
X104811515Y-90263940D01*
X104893304Y-90066483D01*
X104935000Y-89856863D01*
X104935000Y-89643137D01*
X104893304Y-89433517D01*
X104811515Y-89236060D01*
X104692775Y-89058353D01*
X104541647Y-88907225D01*
X104363940Y-88788485D01*
X104166483Y-88706696D01*
X103956863Y-88665000D01*
X103743137Y-88665000D01*
X103533517Y-88706696D01*
X103336060Y-88788485D01*
X103158353Y-88907225D01*
X103007225Y-89058353D01*
X102888485Y-89236060D01*
X102806696Y-89433517D01*
X102765000Y-89643137D01*
X77942000Y-89643137D01*
X77942000Y-78436831D01*
X78779621Y-79274452D01*
X78803478Y-79303522D01*
X78919508Y-79398745D01*
X79051885Y-79469502D01*
X79195522Y-79513074D01*
X79307474Y-79524100D01*
X79307476Y-79524100D01*
X79344899Y-79527786D01*
X79382322Y-79524100D01*
X107740059Y-79524100D01*
X107767238Y-79551279D01*
X107933644Y-79662468D01*
X108118544Y-79739056D01*
X108314833Y-79778100D01*
X108514967Y-79778100D01*
X108711256Y-79739056D01*
X108896156Y-79662468D01*
X109062562Y-79551279D01*
X109204079Y-79409762D01*
X109315268Y-79243356D01*
X109391856Y-79058456D01*
X109430900Y-78862167D01*
X109430900Y-78662033D01*
X109391856Y-78465744D01*
X109315268Y-78280844D01*
X109204079Y-78114438D01*
X109062562Y-77972921D01*
X108896156Y-77861732D01*
X108711256Y-77785144D01*
X108514967Y-77746100D01*
X108314833Y-77746100D01*
X108118544Y-77785144D01*
X107933644Y-77861732D01*
X107767238Y-77972921D01*
X107740059Y-78000100D01*
X79660531Y-78000100D01*
X79390831Y-77730400D01*
X111010259Y-77730400D01*
X111037438Y-77757579D01*
X111203844Y-77868768D01*
X111388744Y-77945356D01*
X111585033Y-77984400D01*
X111785167Y-77984400D01*
X111981456Y-77945356D01*
X112166356Y-77868768D01*
X112332762Y-77757579D01*
X112359941Y-77730400D01*
X118153559Y-77730400D01*
X118172338Y-77749179D01*
X118338744Y-77860368D01*
X118523644Y-77936956D01*
X118719933Y-77976000D01*
X118920067Y-77976000D01*
X119116356Y-77936956D01*
X119301256Y-77860368D01*
X119467662Y-77749179D01*
X119609179Y-77607662D01*
X119720368Y-77441256D01*
X119796956Y-77256356D01*
X119836000Y-77060067D01*
X119836000Y-76859933D01*
X119796956Y-76663644D01*
X119720368Y-76478744D01*
X119609179Y-76312338D01*
X119467662Y-76170821D01*
X119301256Y-76059632D01*
X119116356Y-75983044D01*
X118920067Y-75944000D01*
X118719933Y-75944000D01*
X118523644Y-75983044D01*
X118338744Y-76059632D01*
X118172338Y-76170821D01*
X118136759Y-76206400D01*
X112359941Y-76206400D01*
X112332762Y-76179221D01*
X112166356Y-76068032D01*
X111981456Y-75991444D01*
X111785167Y-75952400D01*
X111585033Y-75952400D01*
X111388744Y-75991444D01*
X111203844Y-76068032D01*
X111037438Y-76179221D01*
X111010259Y-76206400D01*
X79124231Y-76206400D01*
X78103584Y-75185754D01*
X78079722Y-75156678D01*
X77963692Y-75061455D01*
X77831315Y-74990698D01*
X77687678Y-74947126D01*
X77575726Y-74936100D01*
X77575723Y-74936100D01*
X77538300Y-74932414D01*
X77500877Y-74936100D01*
X76839123Y-74936100D01*
X76801700Y-74932414D01*
X76764277Y-74936100D01*
X76764274Y-74936100D01*
X76652322Y-74947126D01*
X76508685Y-74990698D01*
X76399048Y-75049300D01*
X74262741Y-75049300D01*
X74235562Y-75022121D01*
X74069156Y-74910932D01*
X73884256Y-74834344D01*
X73687967Y-74795300D01*
X73487833Y-74795300D01*
X73291544Y-74834344D01*
X73106644Y-74910932D01*
X72940238Y-75022121D01*
X72798721Y-75163638D01*
X72687532Y-75330044D01*
X72610944Y-75514944D01*
X72571900Y-75711233D01*
X72571900Y-75911367D01*
X72610944Y-76107656D01*
X72687532Y-76292556D01*
X72798721Y-76458962D01*
X72825901Y-76486142D01*
X72825901Y-83439060D01*
X72821685Y-83434844D01*
X72655279Y-83323655D01*
X72470379Y-83247067D01*
X72274090Y-83208023D01*
X72235654Y-83208023D01*
X71497312Y-82469682D01*
X71473450Y-82440606D01*
X71357420Y-82345383D01*
X71225043Y-82274626D01*
X71081406Y-82231054D01*
X70969454Y-82220028D01*
X70969451Y-82220028D01*
X70932028Y-82216342D01*
X70894605Y-82220028D01*
X70375362Y-82220028D01*
X70348183Y-82192849D01*
X70181777Y-82081660D01*
X69996877Y-82005072D01*
X69800588Y-81966028D01*
X69600454Y-81966028D01*
X69404165Y-82005072D01*
X69219265Y-82081660D01*
X69052859Y-82192849D01*
X68911342Y-82334366D01*
X68800153Y-82500772D01*
X68723565Y-82685672D01*
X68684521Y-82881961D01*
X51447700Y-82881961D01*
X51447700Y-73399933D01*
X65284000Y-73399933D01*
X65284000Y-73600067D01*
X65323044Y-73796356D01*
X65399632Y-73981256D01*
X65510821Y-74147662D01*
X65652338Y-74289179D01*
X65818744Y-74400368D01*
X66003644Y-74476956D01*
X66199933Y-74516000D01*
X66400067Y-74516000D01*
X66596356Y-74476956D01*
X66781256Y-74400368D01*
X66947662Y-74289179D01*
X66974841Y-74262000D01*
X67976070Y-74262000D01*
X69812300Y-76098231D01*
X69812300Y-76136667D01*
X69851344Y-76332956D01*
X69927932Y-76517856D01*
X70039121Y-76684262D01*
X70180638Y-76825779D01*
X70347044Y-76936968D01*
X70531944Y-77013556D01*
X70728233Y-77052600D01*
X70928367Y-77052600D01*
X71124656Y-77013556D01*
X71309556Y-76936968D01*
X71475962Y-76825779D01*
X71617479Y-76684262D01*
X71728668Y-76517856D01*
X71805256Y-76332956D01*
X71844300Y-76136667D01*
X71844300Y-75936533D01*
X71805256Y-75740244D01*
X71728668Y-75555344D01*
X71617479Y-75388938D01*
X71475962Y-75247421D01*
X71309556Y-75136232D01*
X71124656Y-75059644D01*
X70928367Y-75020600D01*
X70889931Y-75020600D01*
X68856984Y-72987654D01*
X68833122Y-72958578D01*
X68717092Y-72863355D01*
X68584715Y-72792598D01*
X68441078Y-72749026D01*
X68329126Y-72738000D01*
X68329123Y-72738000D01*
X68291700Y-72734314D01*
X68254277Y-72738000D01*
X66974841Y-72738000D01*
X66947662Y-72710821D01*
X66781256Y-72599632D01*
X66596356Y-72523044D01*
X66400067Y-72484000D01*
X66199933Y-72484000D01*
X66003644Y-72523044D01*
X65818744Y-72599632D01*
X65652338Y-72710821D01*
X65510821Y-72852338D01*
X65399632Y-73018744D01*
X65323044Y-73203644D01*
X65284000Y-73399933D01*
X51447700Y-73399933D01*
X51447700Y-68939933D01*
X75504000Y-68939933D01*
X75504000Y-69140067D01*
X75543044Y-69336356D01*
X75619632Y-69521256D01*
X75730821Y-69687662D01*
X75872338Y-69829179D01*
X76038744Y-69940368D01*
X76070700Y-69953605D01*
X76070701Y-72371358D01*
X76043521Y-72398538D01*
X75932332Y-72564944D01*
X75855744Y-72749844D01*
X75816700Y-72946133D01*
X75816700Y-73146267D01*
X75855744Y-73342556D01*
X75932332Y-73527456D01*
X76043521Y-73693862D01*
X76185038Y-73835379D01*
X76351444Y-73946568D01*
X76536344Y-74023156D01*
X76732633Y-74062200D01*
X76932767Y-74062200D01*
X77129056Y-74023156D01*
X77313956Y-73946568D01*
X77480362Y-73835379D01*
X77621879Y-73693862D01*
X77733068Y-73527456D01*
X77809656Y-73342556D01*
X77848700Y-73146267D01*
X77848700Y-72946133D01*
X77809656Y-72749844D01*
X77733068Y-72564944D01*
X77621879Y-72398538D01*
X77594700Y-72371359D01*
X77594700Y-69380123D01*
X77598386Y-69342700D01*
X77594643Y-69304697D01*
X77583674Y-69193322D01*
X77540102Y-69049685D01*
X77536000Y-69042011D01*
X77536000Y-68939933D01*
X77496956Y-68743644D01*
X77420368Y-68558744D01*
X77309179Y-68392338D01*
X77167662Y-68250821D01*
X77001256Y-68139632D01*
X76816356Y-68063044D01*
X76620067Y-68024000D01*
X76419933Y-68024000D01*
X76223644Y-68063044D01*
X76038744Y-68139632D01*
X75872338Y-68250821D01*
X75730821Y-68392338D01*
X75619632Y-68558744D01*
X75543044Y-68743644D01*
X75504000Y-68939933D01*
X51447700Y-68939933D01*
X51447700Y-59934074D01*
X51709536Y-60325939D01*
X52174061Y-60790464D01*
X52720285Y-61155439D01*
X53327216Y-61406838D01*
X53971531Y-61535000D01*
X54628469Y-61535000D01*
X55272784Y-61406838D01*
X55879715Y-61155439D01*
X56425939Y-60790464D01*
X56890464Y-60325939D01*
X57255439Y-59779715D01*
X57506838Y-59172784D01*
X57635000Y-58528469D01*
X57635000Y-57871531D01*
X57506838Y-57227216D01*
X57255439Y-56620285D01*
X56890464Y-56074061D01*
X56425939Y-55609536D01*
X56034074Y-55347700D01*
X101565926Y-55347700D01*
X101174061Y-55609536D01*
X101174061Y-55609536D01*
G37*
X101174061Y-55609536D02*
X100709536Y-56074061D01*
X100344561Y-56620285D01*
X100093162Y-57227216D01*
X99965000Y-57871531D01*
X99965000Y-58528469D01*
X100093162Y-59172784D01*
X100344561Y-59779715D01*
X100709536Y-60325939D01*
X101174061Y-60790464D01*
X101720285Y-61155439D01*
X102327216Y-61406838D01*
X102971531Y-61535000D01*
X103628469Y-61535000D01*
X104272784Y-61406838D01*
X104879715Y-61155439D01*
X105425939Y-60790464D01*
X105890464Y-60325939D01*
X106255439Y-59779715D01*
X106506838Y-59172784D01*
X106635000Y-58528469D01*
X106635000Y-57871531D01*
X106506838Y-57227216D01*
X106255439Y-56620285D01*
X105890464Y-56074061D01*
X105425939Y-55609536D01*
X105034074Y-55347700D01*
X131565926Y-55347700D01*
X131174061Y-55609536D01*
X130709536Y-56074061D01*
X130344561Y-56620285D01*
X130093162Y-57227216D01*
X129965000Y-57871531D01*
X129965000Y-58528469D01*
X130093162Y-59172784D01*
X130344561Y-59779715D01*
X130709536Y-60325939D01*
X131174061Y-60790464D01*
X131720285Y-61155439D01*
X132327216Y-61406838D01*
X132971531Y-61535000D01*
X133628469Y-61535000D01*
X134272784Y-61406838D01*
X134879715Y-61155439D01*
X135425939Y-60790464D01*
X135890464Y-60325939D01*
X136255439Y-59779715D01*
X136506838Y-59172784D01*
X136635000Y-58528469D01*
X136635000Y-57871531D01*
X136506838Y-57227216D01*
X136255439Y-56620285D01*
X135890464Y-56074061D01*
X135425939Y-55609536D01*
X135034074Y-55347700D01*
X180565926Y-55347700D01*
X180174061Y-55609536D01*
X179709536Y-56074061D01*
X179344561Y-56620285D01*
X179093162Y-57227216D01*
X178965000Y-57871531D01*
X178965000Y-58528469D01*
X179093162Y-59172784D01*
X179344561Y-59779715D01*
X179709536Y-60325939D01*
X180174061Y-60790464D01*
X180720285Y-61155439D01*
X181327216Y-61406838D01*
X181971531Y-61535000D01*
X182628469Y-61535000D01*
X183272784Y-61406838D01*
X183879715Y-61155439D01*
X184425939Y-60790464D01*
X184890464Y-60325939D01*
X185255439Y-59779715D01*
X185506838Y-59172784D01*
X185635000Y-58528469D01*
X185635000Y-57871531D01*
X185506838Y-57227216D01*
X185255439Y-56620285D01*
X184890464Y-56074061D01*
X184425939Y-55609536D01*
X184034074Y-55347700D01*
X187768319Y-55347700D01*
X188256294Y-55395547D01*
X188695211Y-55528063D01*
X189100026Y-55743308D01*
X189455321Y-56033079D01*
X189747570Y-56386346D01*
X189965634Y-56789650D01*
X190101212Y-57227626D01*
X190152301Y-57713706D01*
X190152300Y-136668319D01*
X190104453Y-137156296D01*
X189971937Y-137595212D01*
X189756695Y-138000023D01*
X189466919Y-138355323D01*
X189113654Y-138647570D01*
X188710350Y-138865635D01*
X188272370Y-139001213D01*
X187786303Y-139052300D01*
X53831681Y-139052300D01*
X53343704Y-139004453D01*
X52904788Y-138871937D01*
X52499977Y-138656695D01*
X52144677Y-138366919D01*
X51852430Y-138013654D01*
X51634365Y-137610350D01*
X51498787Y-137172370D01*
X51447700Y-136686303D01*
X51447700Y-133688212D01*
X96915000Y-133688212D01*
X96915000Y-133911788D01*
X96958617Y-134131067D01*
X97044176Y-134337624D01*
X97168388Y-134523520D01*
X97326480Y-134681612D01*
X97512376Y-134805824D01*
X97718933Y-134891383D01*
X97938212Y-134935000D01*
X98161788Y-134935000D01*
X98381067Y-134891383D01*
X98587624Y-134805824D01*
X98773520Y-134681612D01*
X98931612Y-134523520D01*
X99055824Y-134337624D01*
X99141383Y-134131067D01*
X99185000Y-133911788D01*
X99185000Y-133688212D01*
X101315000Y-133688212D01*
X101315000Y-133911788D01*
X101358617Y-134131067D01*
X101444176Y-134337624D01*
X101568388Y-134523520D01*
X101726480Y-134681612D01*
X101912376Y-134805824D01*
X102118933Y-134891383D01*
X102338212Y-134935000D01*
X102561788Y-134935000D01*
X102781067Y-134891383D01*
X102987624Y-134805824D01*
X103173520Y-134681612D01*
X103296467Y-134558665D01*
X115315000Y-134558665D01*
X115315000Y-134841335D01*
X115370147Y-135118574D01*
X115478320Y-135379727D01*
X115635363Y-135614759D01*
X115835241Y-135814637D01*
X116070273Y-135971680D01*
X116331426Y-136079853D01*
X116608665Y-136135000D01*
X116891335Y-136135000D01*
X117168574Y-136079853D01*
X117429727Y-135971680D01*
X117664759Y-135814637D01*
X117864637Y-135614759D01*
X118021680Y-135379727D01*
X118129853Y-135118574D01*
X118185000Y-134841335D01*
X118185000Y-134558665D01*
X118129853Y-134281426D01*
X118021680Y-134020273D01*
X117864637Y-133785241D01*
X117664759Y-133585363D01*
X117429727Y-133428320D01*
X117168574Y-133320147D01*
X116891335Y-133265000D01*
X116608665Y-133265000D01*
X116331426Y-133320147D01*
X116070273Y-133428320D01*
X115835241Y-133585363D01*
X115635363Y-133785241D01*
X115478320Y-134020273D01*
X115370147Y-134281426D01*
X115315000Y-134558665D01*
X103296467Y-134558665D01*
X103331612Y-134523520D01*
X103455824Y-134337624D01*
X103541383Y-134131067D01*
X103585000Y-133911788D01*
X103585000Y-133688212D01*
X103541383Y-133468933D01*
X103455824Y-133262376D01*
X103331612Y-133076480D01*
X103173520Y-132918388D01*
X102987624Y-132794176D01*
X102781067Y-132708617D01*
X102561788Y-132665000D01*
X102338212Y-132665000D01*
X102118933Y-132708617D01*
X101912376Y-132794176D01*
X101726480Y-132918388D01*
X101568388Y-133076480D01*
X101444176Y-133262376D01*
X101358617Y-133468933D01*
X101315000Y-133688212D01*
X99185000Y-133688212D01*
X99141383Y-133468933D01*
X99055824Y-133262376D01*
X98931612Y-133076480D01*
X98773520Y-132918388D01*
X98587624Y-132794176D01*
X98381067Y-132708617D01*
X98161788Y-132665000D01*
X97938212Y-132665000D01*
X97718933Y-132708617D01*
X97512376Y-132794176D01*
X97326480Y-132918388D01*
X97168388Y-133076480D01*
X97044176Y-133262376D01*
X96958617Y-133468933D01*
X96915000Y-133688212D01*
X51447700Y-133688212D01*
X51447700Y-128810000D01*
X73507573Y-128810000D01*
X73537210Y-129110913D01*
X73624983Y-129400261D01*
X73767519Y-129666927D01*
X73959339Y-129900661D01*
X74193073Y-130092481D01*
X74459739Y-130235017D01*
X74749087Y-130322790D01*
X74974592Y-130345000D01*
X87325408Y-130345000D01*
X87550913Y-130322790D01*
X87840261Y-130235017D01*
X88106927Y-130092481D01*
X88148132Y-130058665D01*
X115315000Y-130058665D01*
X115315000Y-130341335D01*
X115370147Y-130618574D01*
X115478320Y-130879727D01*
X115635363Y-131114759D01*
X115835241Y-131314637D01*
X116070273Y-131471680D01*
X116331426Y-131579853D01*
X116608665Y-131635000D01*
X116891335Y-131635000D01*
X117168574Y-131579853D01*
X117429727Y-131471680D01*
X117664759Y-131314637D01*
X117864637Y-131114759D01*
X118021680Y-130879727D01*
X118129853Y-130618574D01*
X118185000Y-130341335D01*
X118185000Y-130058665D01*
X118129853Y-129781426D01*
X118021680Y-129520273D01*
X117864637Y-129285241D01*
X117664759Y-129085363D01*
X117429727Y-128928320D01*
X117168574Y-128820147D01*
X116891335Y-128765000D01*
X116608665Y-128765000D01*
X116331426Y-128820147D01*
X116070273Y-128928320D01*
X115835241Y-129085363D01*
X115635363Y-129285241D01*
X115478320Y-129520273D01*
X115370147Y-129781426D01*
X115315000Y-130058665D01*
X88148132Y-130058665D01*
X88340661Y-129900661D01*
X88532481Y-129666927D01*
X88675017Y-129400261D01*
X88762790Y-129110913D01*
X88792427Y-128810000D01*
X88762790Y-128509087D01*
X88675017Y-128219739D01*
X88532481Y-127953073D01*
X88340661Y-127719339D01*
X88106927Y-127527519D01*
X87840261Y-127384983D01*
X87550913Y-127297210D01*
X87325408Y-127275000D01*
X74974592Y-127275000D01*
X74749087Y-127297210D01*
X74459739Y-127384983D01*
X74193073Y-127527519D01*
X73959339Y-127719339D01*
X73767519Y-127953073D01*
X73624983Y-128219739D01*
X73537210Y-128509087D01*
X73507573Y-128810000D01*
X51447700Y-128810000D01*
X51447700Y-120833500D01*
X76029914Y-120833500D01*
X76033600Y-120870923D01*
X76033600Y-121532675D01*
X76033601Y-123667867D01*
X76029914Y-123705300D01*
X76044627Y-123854678D01*
X76088199Y-123998315D01*
X76158955Y-124130692D01*
X76230321Y-124217651D01*
X76254179Y-124246722D01*
X76283249Y-124270579D01*
X76429221Y-124416551D01*
X76950020Y-124937351D01*
X76973878Y-124966422D01*
X77089908Y-125061645D01*
X77222285Y-125132402D01*
X77365922Y-125175974D01*
X77477874Y-125187000D01*
X77477876Y-125187000D01*
X77515299Y-125190686D01*
X77552722Y-125187000D01*
X83259777Y-125187000D01*
X83297200Y-125190686D01*
X83334623Y-125187000D01*
X83334626Y-125187000D01*
X83446578Y-125175974D01*
X83590215Y-125132402D01*
X83722592Y-125061645D01*
X83838622Y-124966422D01*
X83862483Y-124937347D01*
X83969030Y-124830800D01*
X84007467Y-124830800D01*
X84203756Y-124791756D01*
X84388656Y-124715168D01*
X84555062Y-124603979D01*
X84696579Y-124462462D01*
X84807768Y-124296056D01*
X84884356Y-124111156D01*
X84923400Y-123914867D01*
X84923400Y-123816000D01*
X90134137Y-123816000D01*
X90319587Y-123939913D01*
X90527599Y-124026075D01*
X90748424Y-124070000D01*
X90973576Y-124070000D01*
X91194401Y-124026075D01*
X91402413Y-123939913D01*
X91589620Y-123814826D01*
X91748826Y-123655620D01*
X91873913Y-123468413D01*
X91960075Y-123260401D01*
X92004000Y-123039576D01*
X92004000Y-122814424D01*
X91960075Y-122593599D01*
X91873913Y-122385587D01*
X91748826Y-122198380D01*
X91589620Y-122039174D01*
X91402413Y-121914087D01*
X91194401Y-121827925D01*
X90973576Y-121784000D01*
X90748424Y-121784000D01*
X90527599Y-121827925D01*
X90319587Y-121914087D01*
X90134137Y-122038000D01*
X85248574Y-122038000D01*
X85330606Y-121994153D01*
X85465974Y-121883059D01*
X85493813Y-121849137D01*
X85853951Y-121489000D01*
X109990851Y-121489000D01*
X109950925Y-121585389D01*
X109907000Y-121806214D01*
X109907000Y-122031366D01*
X109950925Y-122252191D01*
X110037087Y-122460203D01*
X110162174Y-122647410D01*
X110321380Y-122806616D01*
X110508587Y-122931703D01*
X110716599Y-123017865D01*
X110937424Y-123061790D01*
X111162576Y-123061790D01*
X111383401Y-123017865D01*
X111591413Y-122931703D01*
X111778620Y-122806616D01*
X111937826Y-122647410D01*
X112062913Y-122460203D01*
X112149075Y-122252191D01*
X112171590Y-122139000D01*
X115708187Y-122139000D01*
X115709187Y-122141413D01*
X115834274Y-122328620D01*
X115993480Y-122487826D01*
X116180687Y-122612913D01*
X116388699Y-122699075D01*
X116609524Y-122743000D01*
X116834676Y-122743000D01*
X117055501Y-122699075D01*
X117263513Y-122612913D01*
X117450720Y-122487826D01*
X117609926Y-122328620D01*
X117735013Y-122141413D01*
X117821175Y-121933401D01*
X117865100Y-121712576D01*
X117865100Y-121487424D01*
X117821175Y-121266599D01*
X117735013Y-121058587D01*
X117657603Y-120942734D01*
X117789121Y-121074252D01*
X117812978Y-121103322D01*
X117842048Y-121127179D01*
X117929007Y-121198545D01*
X117949619Y-121209562D01*
X118061385Y-121269302D01*
X118205022Y-121312874D01*
X118316974Y-121323900D01*
X118316977Y-121323900D01*
X118354400Y-121327586D01*
X118391823Y-121323900D01*
X123676459Y-121323900D01*
X123703638Y-121351079D01*
X123870044Y-121462268D01*
X124054944Y-121538856D01*
X124251233Y-121577900D01*
X124451367Y-121577900D01*
X124647656Y-121538856D01*
X124832556Y-121462268D01*
X124998962Y-121351079D01*
X125140479Y-121209562D01*
X125251668Y-121043156D01*
X125328256Y-120858256D01*
X125367300Y-120661967D01*
X125367300Y-120461833D01*
X125328256Y-120265544D01*
X125251668Y-120080644D01*
X125140479Y-119914238D01*
X124998962Y-119772721D01*
X124832556Y-119661532D01*
X124647656Y-119584944D01*
X124451367Y-119545900D01*
X124251233Y-119545900D01*
X124054944Y-119584944D01*
X123870044Y-119661532D01*
X123703638Y-119772721D01*
X123676459Y-119799900D01*
X118670031Y-119799900D01*
X116740100Y-117869970D01*
X116740100Y-117831533D01*
X116701056Y-117635244D01*
X116624468Y-117450344D01*
X116513279Y-117283938D01*
X116371762Y-117142421D01*
X116205356Y-117031232D01*
X116020456Y-116954644D01*
X115922146Y-116935089D01*
X116985704Y-115871531D01*
X129965000Y-115871531D01*
X129965000Y-116528469D01*
X130093162Y-117172784D01*
X130344561Y-117779715D01*
X130709536Y-118325939D01*
X131174061Y-118790464D01*
X131720285Y-119155439D01*
X132327216Y-119406838D01*
X132971531Y-119535000D01*
X133628469Y-119535000D01*
X134272784Y-119406838D01*
X134879715Y-119155439D01*
X135425939Y-118790464D01*
X135890464Y-118325939D01*
X136255439Y-117779715D01*
X136506838Y-117172784D01*
X136635000Y-116528469D01*
X136635000Y-115871531D01*
X178965000Y-115871531D01*
X178965000Y-116528469D01*
X179093162Y-117172784D01*
X179344561Y-117779715D01*
X179709536Y-118325939D01*
X180174061Y-118790464D01*
X180720285Y-119155439D01*
X181327216Y-119406838D01*
X181971531Y-119535000D01*
X182628469Y-119535000D01*
X183272784Y-119406838D01*
X183879715Y-119155439D01*
X184425939Y-118790464D01*
X184890464Y-118325939D01*
X185255439Y-117779715D01*
X185506838Y-117172784D01*
X185635000Y-116528469D01*
X185635000Y-115871531D01*
X185506838Y-115227216D01*
X185255439Y-114620285D01*
X184890464Y-114074061D01*
X184425939Y-113609536D01*
X183879715Y-113244561D01*
X183272784Y-112993162D01*
X182628469Y-112865000D01*
X181971531Y-112865000D01*
X181327216Y-112993162D01*
X180720285Y-113244561D01*
X180174061Y-113609536D01*
X179709536Y-114074061D01*
X179344561Y-114620285D01*
X179093162Y-115227216D01*
X178965000Y-115871531D01*
X136635000Y-115871531D01*
X136506838Y-115227216D01*
X136255439Y-114620285D01*
X135890464Y-114074061D01*
X135425939Y-113609536D01*
X134879715Y-113244561D01*
X134272784Y-112993162D01*
X133628469Y-112865000D01*
X132971531Y-112865000D01*
X132327216Y-112993162D01*
X131720285Y-113244561D01*
X131174061Y-113609536D01*
X130709536Y-114074061D01*
X130344561Y-114620285D01*
X130093162Y-115227216D01*
X129965000Y-115871531D01*
X116985704Y-115871531D01*
X121699485Y-111157750D01*
X158680000Y-111157750D01*
X158680000Y-112579542D01*
X158704403Y-112702223D01*
X158752270Y-112817785D01*
X158821763Y-112921789D01*
X158910211Y-113010237D01*
X159014215Y-113079730D01*
X159129777Y-113127597D01*
X159252458Y-113152000D01*
X160234250Y-113152000D01*
X160393000Y-112993250D01*
X160393000Y-110999000D01*
X158838750Y-110999000D01*
X158680000Y-111157750D01*
X121699485Y-111157750D01*
X136534736Y-96322500D01*
X142956054Y-96322500D01*
X142961380Y-96327826D01*
X143148587Y-96452913D01*
X143356599Y-96539075D01*
X143577424Y-96583000D01*
X143802576Y-96583000D01*
X144023401Y-96539075D01*
X144231413Y-96452913D01*
X144418620Y-96327826D01*
X144423946Y-96322500D01*
X145993840Y-96322500D01*
X146037500Y-96326800D01*
X146081160Y-96322500D01*
X146081167Y-96322500D01*
X146211774Y-96309636D01*
X146379351Y-96258803D01*
X146404854Y-96245171D01*
X146407000Y-96266960D01*
X146407000Y-96266966D01*
X146413825Y-96336256D01*
X146419864Y-96397574D01*
X146429627Y-96429759D01*
X146470697Y-96565150D01*
X146553247Y-96719590D01*
X146664341Y-96854959D01*
X146698264Y-96882799D01*
X147157301Y-97341835D01*
X147157305Y-97341840D01*
X158749168Y-108933704D01*
X158704403Y-109041777D01*
X158680000Y-109164458D01*
X158680000Y-110586250D01*
X158838750Y-110745000D01*
X160393000Y-110745000D01*
X160393000Y-110725000D01*
X160647000Y-110725000D01*
X160647000Y-110745000D01*
X160667000Y-110745000D01*
X160667000Y-110999000D01*
X160647000Y-110999000D01*
X160647000Y-112993250D01*
X160805750Y-113152000D01*
X161787542Y-113152000D01*
X161910223Y-113127597D01*
X162025785Y-113079730D01*
X162129789Y-113010237D01*
X162218237Y-112921789D01*
X162287730Y-112817785D01*
X162335597Y-112702223D01*
X162360000Y-112579542D01*
X162360000Y-111488635D01*
X163944059Y-113072695D01*
X163944065Y-113072700D01*
X164403101Y-113531735D01*
X164403105Y-113531740D01*
X164648901Y-113777536D01*
X164676741Y-113811459D01*
X164812109Y-113922553D01*
X164966549Y-114005103D01*
X165086866Y-114041600D01*
X165134125Y-114055936D01*
X165150725Y-114057571D01*
X165264733Y-114068800D01*
X165264740Y-114068800D01*
X165308400Y-114073100D01*
X165352060Y-114068800D01*
X168546040Y-114068800D01*
X168589700Y-114073100D01*
X168633360Y-114068800D01*
X168633367Y-114068800D01*
X168763974Y-114055936D01*
X168931551Y-114005103D01*
X169085991Y-113922553D01*
X169221359Y-113811459D01*
X169249199Y-113777536D01*
X177153048Y-105873688D01*
X177371801Y-105830175D01*
X177579813Y-105744013D01*
X177767020Y-105618926D01*
X177926226Y-105459720D01*
X178051313Y-105272513D01*
X178137475Y-105064501D01*
X178181400Y-104843676D01*
X178181400Y-104618524D01*
X178137475Y-104397699D01*
X178051313Y-104189687D01*
X177926226Y-104002480D01*
X177767020Y-103843274D01*
X177579813Y-103718187D01*
X177371801Y-103632025D01*
X177150976Y-103588100D01*
X176925824Y-103588100D01*
X176704999Y-103632025D01*
X176496987Y-103718187D01*
X176309780Y-103843274D01*
X176150574Y-104002480D01*
X176025487Y-104189687D01*
X175939325Y-104397699D01*
X175895812Y-104616452D01*
X168221465Y-112290800D01*
X167593800Y-112290800D01*
X167593800Y-112190633D01*
X167554756Y-111994344D01*
X167478168Y-111809444D01*
X167466800Y-111792431D01*
X167466800Y-104790435D01*
X168947737Y-103309498D01*
X168981659Y-103281659D01*
X169092753Y-103146291D01*
X169175303Y-102991851D01*
X169223251Y-102833785D01*
X169226136Y-102824276D01*
X169234466Y-102739700D01*
X169239000Y-102693667D01*
X169239000Y-102693661D01*
X169243300Y-102650001D01*
X169239000Y-102606341D01*
X169239000Y-101385750D01*
X183715000Y-101385750D01*
X183715000Y-101962542D01*
X183739403Y-102085223D01*
X183787270Y-102200785D01*
X183856763Y-102304789D01*
X183945211Y-102393237D01*
X184049215Y-102462730D01*
X184164777Y-102510597D01*
X184287458Y-102535000D01*
X185064250Y-102535000D01*
X185223000Y-102376250D01*
X185223000Y-101227000D01*
X185477000Y-101227000D01*
X185477000Y-102376250D01*
X185635750Y-102535000D01*
X186412542Y-102535000D01*
X186535223Y-102510597D01*
X186650785Y-102462730D01*
X186754789Y-102393237D01*
X186843237Y-102304789D01*
X186912730Y-102200785D01*
X186960597Y-102085223D01*
X186985000Y-101962542D01*
X186985000Y-101385750D01*
X186826250Y-101227000D01*
X185477000Y-101227000D01*
X185223000Y-101227000D01*
X183873750Y-101227000D01*
X183715000Y-101385750D01*
X169239000Y-101385750D01*
X169239000Y-100237458D01*
X183715000Y-100237458D01*
X183715000Y-100814250D01*
X183873750Y-100973000D01*
X185223000Y-100973000D01*
X185223000Y-99823750D01*
X185477000Y-99823750D01*
X185477000Y-100973000D01*
X186826250Y-100973000D01*
X186985000Y-100814250D01*
X186985000Y-100237458D01*
X186960597Y-100114777D01*
X186912730Y-99999215D01*
X186843237Y-99895211D01*
X186754789Y-99806763D01*
X186650785Y-99737270D01*
X186535223Y-99689403D01*
X186412542Y-99665000D01*
X185635750Y-99665000D01*
X185477000Y-99823750D01*
X185223000Y-99823750D01*
X185064250Y-99665000D01*
X184287458Y-99665000D01*
X184164777Y-99689403D01*
X184049215Y-99737270D01*
X183945211Y-99806763D01*
X183856763Y-99895211D01*
X183787270Y-99999215D01*
X183739403Y-100114777D01*
X183715000Y-100237458D01*
X169239000Y-100237458D01*
X169239000Y-81918235D01*
X177734900Y-73422335D01*
X177734900Y-74109477D01*
X177731214Y-74146900D01*
X177734900Y-74184323D01*
X177734900Y-74184325D01*
X177745926Y-74296277D01*
X177789498Y-74439914D01*
X177822435Y-74501535D01*
X177860255Y-74572292D01*
X177885532Y-74603092D01*
X177955478Y-74688322D01*
X177984554Y-74712184D01*
X179193981Y-75921612D01*
X178920515Y-75838657D01*
X178600000Y-75807089D01*
X178279484Y-75838657D01*
X177971285Y-75932148D01*
X177687248Y-76083969D01*
X177438286Y-76288286D01*
X177233969Y-76537249D01*
X177082148Y-76821286D01*
X176988657Y-77129485D01*
X176965000Y-77369679D01*
X176965001Y-91530322D01*
X176988658Y-91770516D01*
X177082149Y-92078715D01*
X177233970Y-92362752D01*
X177438287Y-92611714D01*
X177687249Y-92816031D01*
X177971286Y-92967852D01*
X178279485Y-93061343D01*
X178600000Y-93092911D01*
X178920516Y-93061343D01*
X179228715Y-92967852D01*
X179512752Y-92816031D01*
X179761714Y-92611714D01*
X179966031Y-92362752D01*
X180117852Y-92078715D01*
X180211343Y-91770516D01*
X180235000Y-91530322D01*
X180235000Y-89283030D01*
X183711928Y-92759958D01*
X183711928Y-94100000D01*
X183724188Y-94224482D01*
X183760498Y-94344180D01*
X183819463Y-94454494D01*
X183898815Y-94551185D01*
X183995506Y-94630537D01*
X184105820Y-94689502D01*
X184225518Y-94725812D01*
X184350000Y-94738072D01*
X186350000Y-94738072D01*
X186474482Y-94725812D01*
X186594180Y-94689502D01*
X186704494Y-94630537D01*
X186801185Y-94551185D01*
X186880537Y-94454494D01*
X186939502Y-94344180D01*
X186975812Y-94224482D01*
X186988072Y-94100000D01*
X186988072Y-92500000D01*
X186975812Y-92375518D01*
X186939502Y-92255820D01*
X186880537Y-92145506D01*
X186801185Y-92048815D01*
X186704494Y-91969463D01*
X186594180Y-91910498D01*
X186474482Y-91874188D01*
X186350000Y-91861928D01*
X184969158Y-91861928D01*
X181312000Y-88204770D01*
X181312000Y-76237423D01*
X181315686Y-76200000D01*
X181312000Y-76162574D01*
X181300974Y-76050622D01*
X181257402Y-75906985D01*
X181218573Y-75834341D01*
X181186645Y-75774607D01*
X181115279Y-75687648D01*
X181091422Y-75658578D01*
X181062352Y-75634721D01*
X179258900Y-73831270D01*
X179258900Y-70372522D01*
X179262586Y-70335099D01*
X179258900Y-70297674D01*
X179247874Y-70185722D01*
X179204302Y-70042085D01*
X179133545Y-69909708D01*
X179038322Y-69793678D01*
X179009251Y-69769820D01*
X178541383Y-69301953D01*
X178517522Y-69272878D01*
X178401492Y-69177655D01*
X178269115Y-69106898D01*
X178125478Y-69063326D01*
X178013526Y-69052300D01*
X178013523Y-69052300D01*
X177976100Y-69048614D01*
X177938677Y-69052300D01*
X177276923Y-69052300D01*
X177239500Y-69048614D01*
X177202077Y-69052300D01*
X177202074Y-69052300D01*
X177090122Y-69063326D01*
X176946485Y-69106898D01*
X176916121Y-69123128D01*
X176814107Y-69177655D01*
X176795016Y-69193323D01*
X176698078Y-69272878D01*
X176674216Y-69301954D01*
X175775770Y-70200400D01*
X173718841Y-70200400D01*
X173691662Y-70173221D01*
X173525256Y-70062032D01*
X173340356Y-69985444D01*
X173144067Y-69946400D01*
X172943933Y-69946400D01*
X172747644Y-69985444D01*
X172562744Y-70062032D01*
X172396338Y-70173221D01*
X172254821Y-70314738D01*
X172143632Y-70481144D01*
X172067044Y-70666044D01*
X172028000Y-70862333D01*
X172028000Y-71062467D01*
X172067044Y-71258756D01*
X172143632Y-71443656D01*
X172254821Y-71610062D01*
X172396338Y-71751579D01*
X172562744Y-71862768D01*
X172747644Y-71939356D01*
X172943933Y-71978400D01*
X173144067Y-71978400D01*
X173340356Y-71939356D01*
X173525256Y-71862768D01*
X173691662Y-71751579D01*
X173718841Y-71724400D01*
X176053977Y-71724400D01*
X176091400Y-71728086D01*
X176128823Y-71724400D01*
X176128826Y-71724400D01*
X176240778Y-71713374D01*
X176384415Y-71669802D01*
X176516792Y-71599045D01*
X176632822Y-71503822D01*
X176656684Y-71474746D01*
X176718800Y-71412630D01*
X176718800Y-71923965D01*
X167752259Y-80890506D01*
X167718342Y-80918341D01*
X167690507Y-80952258D01*
X167690505Y-80952260D01*
X167607248Y-81053709D01*
X167524698Y-81208148D01*
X167473864Y-81375726D01*
X167456700Y-81550000D01*
X167461001Y-81593670D01*
X167461001Y-89626739D01*
X167256001Y-89541825D01*
X167035176Y-89497900D01*
X166810024Y-89497900D01*
X166589199Y-89541825D01*
X166381187Y-89627987D01*
X166195737Y-89751900D01*
X161109136Y-89751900D01*
X143031899Y-71674664D01*
X143004059Y-71640741D01*
X142868691Y-71529647D01*
X142714251Y-71447097D01*
X142546674Y-71396264D01*
X142416067Y-71383400D01*
X142416060Y-71383400D01*
X142372400Y-71379100D01*
X142328740Y-71383400D01*
X138311436Y-71383400D01*
X137005024Y-70076989D01*
X149842767Y-70076989D01*
X149702338Y-70170821D01*
X149560821Y-70312338D01*
X149449632Y-70478744D01*
X149373044Y-70663644D01*
X149334000Y-70859933D01*
X149334000Y-70928744D01*
X149176644Y-70960044D01*
X148991744Y-71036632D01*
X148825338Y-71147821D01*
X148683821Y-71289338D01*
X148572632Y-71455744D01*
X148496044Y-71640644D01*
X148481103Y-71715756D01*
X148293644Y-71753044D01*
X148108744Y-71829632D01*
X147942338Y-71940821D01*
X147800821Y-72082338D01*
X147689632Y-72248744D01*
X147613044Y-72433644D01*
X147574000Y-72629933D01*
X147574000Y-72830067D01*
X147613044Y-73026356D01*
X147689632Y-73211256D01*
X147800821Y-73377662D01*
X147942338Y-73519179D01*
X148108744Y-73630368D01*
X148293644Y-73706956D01*
X148489933Y-73746000D01*
X148690067Y-73746000D01*
X148886356Y-73706956D01*
X149071256Y-73630368D01*
X149237662Y-73519179D01*
X149264841Y-73492000D01*
X159112577Y-73492000D01*
X159150000Y-73495686D01*
X159187423Y-73492000D01*
X159187426Y-73492000D01*
X159299378Y-73480974D01*
X159443015Y-73437402D01*
X159575392Y-73366645D01*
X159691422Y-73271422D01*
X159715284Y-73242346D01*
X160361630Y-72596000D01*
X160400067Y-72596000D01*
X160596356Y-72556956D01*
X160781256Y-72480368D01*
X160947662Y-72369179D01*
X161089179Y-72227662D01*
X161200368Y-72061256D01*
X161276956Y-71876356D01*
X161316000Y-71680067D01*
X161316000Y-71479933D01*
X161276956Y-71283644D01*
X161200368Y-71098744D01*
X161089179Y-70932338D01*
X160947662Y-70790821D01*
X160781256Y-70679632D01*
X160596356Y-70603044D01*
X160400067Y-70564000D01*
X160199933Y-70564000D01*
X160129713Y-70577968D01*
X160079179Y-70502338D01*
X159937662Y-70360821D01*
X159771256Y-70249632D01*
X159586356Y-70173044D01*
X159390067Y-70134000D01*
X159189933Y-70134000D01*
X158993644Y-70173044D01*
X158808744Y-70249632D01*
X158642338Y-70360821D01*
X158500821Y-70502338D01*
X158389632Y-70668744D01*
X158313044Y-70853644D01*
X158274000Y-71049933D01*
X158274000Y-71088370D01*
X158184370Y-71178000D01*
X151342542Y-71178000D01*
X151366000Y-71060067D01*
X151366000Y-71021630D01*
X151935631Y-70452000D01*
X156625159Y-70452000D01*
X156652338Y-70479179D01*
X156818744Y-70590368D01*
X157003644Y-70666956D01*
X157199933Y-70706000D01*
X157400067Y-70706000D01*
X157596356Y-70666956D01*
X157781256Y-70590368D01*
X157947662Y-70479179D01*
X158089179Y-70337662D01*
X158200368Y-70171256D01*
X158276956Y-69986356D01*
X158316000Y-69790067D01*
X158316000Y-69589933D01*
X158276956Y-69393644D01*
X158200368Y-69208744D01*
X158089179Y-69042338D01*
X157947662Y-68900821D01*
X157781256Y-68789632D01*
X157596356Y-68713044D01*
X157400067Y-68674000D01*
X157268616Y-68674000D01*
X157193434Y-68492494D01*
X157082245Y-68326088D01*
X156940728Y-68184571D01*
X156774322Y-68073382D01*
X156589422Y-67996794D01*
X156393133Y-67957750D01*
X156192999Y-67957750D01*
X155996710Y-67996794D01*
X155811810Y-68073382D01*
X155645404Y-68184571D01*
X155618225Y-68211750D01*
X151483673Y-68211750D01*
X151446250Y-68208064D01*
X151408827Y-68211750D01*
X151408824Y-68211750D01*
X151296872Y-68222776D01*
X151153235Y-68266348D01*
X151020858Y-68337105D01*
X150904828Y-68432328D01*
X150880966Y-68461404D01*
X150789381Y-68552989D01*
X133404641Y-68552989D01*
X138225631Y-63732000D01*
X153115159Y-63732000D01*
X153142338Y-63759179D01*
X153308744Y-63870368D01*
X153493644Y-63946956D01*
X153689933Y-63986000D01*
X153890067Y-63986000D01*
X154086356Y-63946956D01*
X154271256Y-63870368D01*
X154437662Y-63759179D01*
X154579179Y-63617662D01*
X154690368Y-63451256D01*
X154766956Y-63266356D01*
X154806000Y-63070067D01*
X154806000Y-62869933D01*
X154766956Y-62673644D01*
X154690368Y-62488744D01*
X154579179Y-62322338D01*
X154437662Y-62180821D01*
X154271256Y-62069632D01*
X154086356Y-61993044D01*
X153890067Y-61954000D01*
X153689933Y-61954000D01*
X153493644Y-61993044D01*
X153308744Y-62069632D01*
X153142338Y-62180821D01*
X153115159Y-62208000D01*
X137947423Y-62208000D01*
X137910000Y-62204314D01*
X137872577Y-62208000D01*
X137872574Y-62208000D01*
X137760622Y-62219026D01*
X137616985Y-62262598D01*
X137555364Y-62295535D01*
X137484607Y-62333355D01*
X137401904Y-62401228D01*
X137368578Y-62428578D01*
X137344721Y-62457648D01*
X130274721Y-69527649D01*
X130217058Y-69597911D01*
X119489170Y-80325800D01*
X116521022Y-80325800D01*
X116483599Y-80322114D01*
X116446176Y-80325800D01*
X116446174Y-80325800D01*
X116334222Y-80336826D01*
X116190585Y-80380398D01*
X116058208Y-80451155D01*
X115942178Y-80546378D01*
X115918321Y-80575449D01*
X107564096Y-88929674D01*
X107541647Y-88907225D01*
X107363940Y-88788485D01*
X107166483Y-88706696D01*
X106956863Y-88665000D01*
X106743137Y-88665000D01*
X106533517Y-88706696D01*
X106336060Y-88788485D01*
X106158353Y-88907225D01*
X106007225Y-89058353D01*
X105888485Y-89236060D01*
X105806696Y-89433517D01*
X105765000Y-89643137D01*
X105765000Y-89856863D01*
X105806696Y-90066483D01*
X105888485Y-90263940D01*
X106007225Y-90441647D01*
X106029674Y-90464096D01*
X83017454Y-113476316D01*
X82988378Y-113500178D01*
X82942994Y-113555479D01*
X82893155Y-113616208D01*
X82861147Y-113676091D01*
X82822398Y-113748586D01*
X82778826Y-113892223D01*
X82767800Y-114004174D01*
X82764114Y-114041600D01*
X82767800Y-114079024D01*
X82767801Y-115267358D01*
X82740621Y-115294538D01*
X82629432Y-115460944D01*
X82552844Y-115645844D01*
X82513800Y-115842133D01*
X82513800Y-116042267D01*
X82552844Y-116238556D01*
X82629432Y-116423456D01*
X82740621Y-116589862D01*
X82882138Y-116731379D01*
X83048544Y-116842568D01*
X83233444Y-116919156D01*
X83429733Y-116958200D01*
X83470369Y-116958200D01*
X80877870Y-119550700D01*
X77353822Y-119550700D01*
X77316399Y-119547014D01*
X77278976Y-119550700D01*
X77278974Y-119550700D01*
X77167022Y-119561726D01*
X77023385Y-119605298D01*
X76891008Y-119676055D01*
X76774978Y-119771278D01*
X76751120Y-119800349D01*
X76283253Y-120268217D01*
X76254178Y-120292078D01*
X76205796Y-120351032D01*
X76158955Y-120408108D01*
X76124174Y-120473180D01*
X76088198Y-120540486D01*
X76044626Y-120684123D01*
X76039311Y-120738092D01*
X76029914Y-120833500D01*
X51447700Y-120833500D01*
X51447700Y-117934074D01*
X51709536Y-118325939D01*
X52174061Y-118790464D01*
X52720285Y-119155439D01*
X53327216Y-119406838D01*
X53971531Y-119535000D01*
X54628469Y-119535000D01*
X55272784Y-119406838D01*
X55879715Y-119155439D01*
X56425939Y-118790464D01*
X56890464Y-118325939D01*
X57255439Y-117779715D01*
X57506838Y-117172784D01*
X57627607Y-116565634D01*
X72557000Y-116565634D01*
X72557000Y-116790786D01*
X72600925Y-117011611D01*
X72687087Y-117219623D01*
X72812174Y-117406830D01*
X72971380Y-117566036D01*
X73158587Y-117691123D01*
X73366599Y-117777285D01*
X73587424Y-117821210D01*
X73811160Y-117821210D01*
X73775370Y-117857000D01*
X73597424Y-117857000D01*
X73376599Y-117900925D01*
X73168587Y-117987087D01*
X72981380Y-118112174D01*
X72822174Y-118271380D01*
X72697087Y-118458587D01*
X72610925Y-118666599D01*
X72567000Y-118887424D01*
X72567000Y-119112576D01*
X72610925Y-119333401D01*
X72697087Y-119541413D01*
X72822174Y-119728620D01*
X72981380Y-119887826D01*
X73168587Y-120012913D01*
X73376599Y-120099075D01*
X73597424Y-120143000D01*
X73822576Y-120143000D01*
X74043401Y-120099075D01*
X74251413Y-120012913D01*
X74438620Y-119887826D01*
X74597826Y-119728620D01*
X74722913Y-119541413D01*
X74809075Y-119333401D01*
X74853000Y-119112576D01*
X74853000Y-118934630D01*
X75542352Y-118245279D01*
X75571422Y-118221422D01*
X75606702Y-118178433D01*
X75666645Y-118105393D01*
X75729880Y-117987087D01*
X75737402Y-117973015D01*
X75780974Y-117829378D01*
X75792000Y-117717426D01*
X75792000Y-117717423D01*
X75795686Y-117680000D01*
X75792000Y-117642577D01*
X75792000Y-115584841D01*
X75819179Y-115557662D01*
X75930368Y-115391256D01*
X76006956Y-115206356D01*
X76046000Y-115010067D01*
X76046000Y-114809933D01*
X76006956Y-114613644D01*
X75930368Y-114428744D01*
X75819179Y-114262338D01*
X75677662Y-114120821D01*
X75511256Y-114009632D01*
X75326356Y-113933044D01*
X75130067Y-113894000D01*
X74929933Y-113894000D01*
X74733644Y-113933044D01*
X74548744Y-114009632D01*
X74407483Y-114104020D01*
X74251256Y-113999632D01*
X74066356Y-113923044D01*
X73870067Y-113884000D01*
X73669933Y-113884000D01*
X73473644Y-113923044D01*
X73288744Y-113999632D01*
X73122338Y-114110821D01*
X72980821Y-114252338D01*
X72869632Y-114418744D01*
X72793044Y-114603644D01*
X72754000Y-114799933D01*
X72754000Y-115000067D01*
X72793044Y-115196356D01*
X72869632Y-115381256D01*
X72980821Y-115547662D01*
X73008000Y-115574841D01*
X73008001Y-115765915D01*
X72971380Y-115790384D01*
X72812174Y-115949590D01*
X72687087Y-116136797D01*
X72600925Y-116344809D01*
X72557000Y-116565634D01*
X57627607Y-116565634D01*
X57635000Y-116528469D01*
X57635000Y-115871531D01*
X57506838Y-115227216D01*
X57255439Y-114620285D01*
X56890464Y-114074061D01*
X56425939Y-113609536D01*
X55879715Y-113244561D01*
X55272784Y-112993162D01*
X54628469Y-112865000D01*
X53971531Y-112865000D01*
X53327216Y-112993162D01*
X52720285Y-113244561D01*
X52174061Y-113609536D01*
X51709536Y-114074061D01*
X51447700Y-114465926D01*
X51447700Y-82881961D01*
X68684521Y-82881961D01*
X68684521Y-83082095D01*
X68723565Y-83278384D01*
X68800153Y-83463284D01*
X68911342Y-83629690D01*
X69052859Y-83771207D01*
X69219265Y-83882396D01*
X69404165Y-83958984D01*
X69600454Y-83998028D01*
X69800588Y-83998028D01*
X69996877Y-83958984D01*
X70181777Y-83882396D01*
X70348183Y-83771207D01*
X70375362Y-83744028D01*
X70616398Y-83744028D01*
X71158023Y-84285654D01*
X71158023Y-84324090D01*
X71197067Y-84520379D01*
X71273655Y-84705279D01*
X71384844Y-84871685D01*
X71526361Y-85013202D01*
X71692767Y-85124391D01*
X71877667Y-85200979D01*
X72073956Y-85240023D01*
X72274090Y-85240023D01*
X72470379Y-85200979D01*
X72655279Y-85124391D01*
X72821685Y-85013202D01*
X72825901Y-85008986D01*
X72825900Y-103089377D01*
X72822214Y-103126800D01*
X72825900Y-103164223D01*
X72825900Y-103164225D01*
X72836926Y-103276177D01*
X72880498Y-103419814D01*
X72913435Y-103481435D01*
X72951255Y-103552192D01*
X72980724Y-103588100D01*
X73046478Y-103668222D01*
X73075553Y-103692083D01*
X73200800Y-103817330D01*
X73200800Y-103855767D01*
X73239844Y-104052056D01*
X73316432Y-104236956D01*
X73427621Y-104403362D01*
X73569138Y-104544879D01*
X73735544Y-104656068D01*
X73920444Y-104732656D01*
X74116733Y-104771700D01*
X74316867Y-104771700D01*
X74513156Y-104732656D01*
X74698056Y-104656068D01*
X74864462Y-104544879D01*
X75005979Y-104403362D01*
X75117168Y-104236956D01*
X75193756Y-104052056D01*
X75232800Y-103855767D01*
X75232800Y-103655633D01*
X75193756Y-103459344D01*
X75117168Y-103274444D01*
X75005979Y-103108038D01*
X74864462Y-102966521D01*
X74698056Y-102855332D01*
X74513156Y-102778744D01*
X74349900Y-102746271D01*
X74349900Y-76573300D01*
X76154000Y-76573300D01*
X76154000Y-76687267D01*
X76193044Y-76883556D01*
X76269632Y-77068456D01*
X76380821Y-77234862D01*
X76418001Y-77272042D01*
X76418000Y-97245742D01*
X76281244Y-97272944D01*
X76096344Y-97349532D01*
X75929938Y-97460721D01*
X75788421Y-97602238D01*
X75677232Y-97768644D01*
X75600644Y-97953544D01*
X75561600Y-98149833D01*
X75561600Y-98349967D01*
X75600644Y-98546256D01*
X75677232Y-98731156D01*
X75788421Y-98897562D01*
X75929938Y-99039079D01*
X76096344Y-99150268D01*
X76281244Y-99226856D01*
X76477533Y-99265900D01*
X76677667Y-99265900D01*
X76873956Y-99226856D01*
X77058856Y-99150268D01*
X77225262Y-99039079D01*
X77366779Y-98897562D01*
X77477968Y-98731156D01*
X77554556Y-98546256D01*
X77593600Y-98349967D01*
X77593600Y-98311531D01*
X77692352Y-98212778D01*
X77721422Y-98188922D01*
X77816645Y-98072892D01*
X77887402Y-97940515D01*
X77930974Y-97796878D01*
X77942000Y-97684926D01*
X77942000Y-97684924D01*
X77945686Y-97647501D01*
X77942000Y-97610078D01*
X77942000Y-89643137D01*
X102765000Y-89643137D01*
X102765000Y-89856863D01*
X102806696Y-90066483D01*
X102888485Y-90263940D01*
X103007225Y-90441647D01*
X103158353Y-90592775D01*
X103336060Y-90711515D01*
X103533517Y-90793304D01*
X103743137Y-90835000D01*
X103956863Y-90835000D01*
X104166483Y-90793304D01*
X104363940Y-90711515D01*
X104541647Y-90592775D01*
X104692775Y-90441647D01*
X104811515Y-90263940D01*
X104893304Y-90066483D01*
X104935000Y-89856863D01*
X104935000Y-89643137D01*
X104893304Y-89433517D01*
X104811515Y-89236060D01*
X104692775Y-89058353D01*
X104541647Y-88907225D01*
X104363940Y-88788485D01*
X104166483Y-88706696D01*
X103956863Y-88665000D01*
X103743137Y-88665000D01*
X103533517Y-88706696D01*
X103336060Y-88788485D01*
X103158353Y-88907225D01*
X103007225Y-89058353D01*
X102888485Y-89236060D01*
X102806696Y-89433517D01*
X102765000Y-89643137D01*
X77942000Y-89643137D01*
X77942000Y-78436831D01*
X78779621Y-79274452D01*
X78803478Y-79303522D01*
X78919508Y-79398745D01*
X79051885Y-79469502D01*
X79195522Y-79513074D01*
X79307474Y-79524100D01*
X79307476Y-79524100D01*
X79344899Y-79527786D01*
X79382322Y-79524100D01*
X107740059Y-79524100D01*
X107767238Y-79551279D01*
X107933644Y-79662468D01*
X108118544Y-79739056D01*
X108314833Y-79778100D01*
X108514967Y-79778100D01*
X108711256Y-79739056D01*
X108896156Y-79662468D01*
X109062562Y-79551279D01*
X109204079Y-79409762D01*
X109315268Y-79243356D01*
X109391856Y-79058456D01*
X109430900Y-78862167D01*
X109430900Y-78662033D01*
X109391856Y-78465744D01*
X109315268Y-78280844D01*
X109204079Y-78114438D01*
X109062562Y-77972921D01*
X108896156Y-77861732D01*
X108711256Y-77785144D01*
X108514967Y-77746100D01*
X108314833Y-77746100D01*
X108118544Y-77785144D01*
X107933644Y-77861732D01*
X107767238Y-77972921D01*
X107740059Y-78000100D01*
X79660531Y-78000100D01*
X79390831Y-77730400D01*
X111010259Y-77730400D01*
X111037438Y-77757579D01*
X111203844Y-77868768D01*
X111388744Y-77945356D01*
X111585033Y-77984400D01*
X111785167Y-77984400D01*
X111981456Y-77945356D01*
X112166356Y-77868768D01*
X112332762Y-77757579D01*
X112359941Y-77730400D01*
X118153559Y-77730400D01*
X118172338Y-77749179D01*
X118338744Y-77860368D01*
X118523644Y-77936956D01*
X118719933Y-77976000D01*
X118920067Y-77976000D01*
X119116356Y-77936956D01*
X119301256Y-77860368D01*
X119467662Y-77749179D01*
X119609179Y-77607662D01*
X119720368Y-77441256D01*
X119796956Y-77256356D01*
X119836000Y-77060067D01*
X119836000Y-76859933D01*
X119796956Y-76663644D01*
X119720368Y-76478744D01*
X119609179Y-76312338D01*
X119467662Y-76170821D01*
X119301256Y-76059632D01*
X119116356Y-75983044D01*
X118920067Y-75944000D01*
X118719933Y-75944000D01*
X118523644Y-75983044D01*
X118338744Y-76059632D01*
X118172338Y-76170821D01*
X118136759Y-76206400D01*
X112359941Y-76206400D01*
X112332762Y-76179221D01*
X112166356Y-76068032D01*
X111981456Y-75991444D01*
X111785167Y-75952400D01*
X111585033Y-75952400D01*
X111388744Y-75991444D01*
X111203844Y-76068032D01*
X111037438Y-76179221D01*
X111010259Y-76206400D01*
X79124231Y-76206400D01*
X78103584Y-75185754D01*
X78079722Y-75156678D01*
X77963692Y-75061455D01*
X77831315Y-74990698D01*
X77687678Y-74947126D01*
X77575726Y-74936100D01*
X77575723Y-74936100D01*
X77538300Y-74932414D01*
X77500877Y-74936100D01*
X76839123Y-74936100D01*
X76801700Y-74932414D01*
X76764277Y-74936100D01*
X76764274Y-74936100D01*
X76652322Y-74947126D01*
X76508685Y-74990698D01*
X76399048Y-75049300D01*
X74262741Y-75049300D01*
X74235562Y-75022121D01*
X74069156Y-74910932D01*
X73884256Y-74834344D01*
X73687967Y-74795300D01*
X73487833Y-74795300D01*
X73291544Y-74834344D01*
X73106644Y-74910932D01*
X72940238Y-75022121D01*
X72798721Y-75163638D01*
X72687532Y-75330044D01*
X72610944Y-75514944D01*
X72571900Y-75711233D01*
X72571900Y-75911367D01*
X72610944Y-76107656D01*
X72687532Y-76292556D01*
X72798721Y-76458962D01*
X72825901Y-76486142D01*
X72825901Y-83439060D01*
X72821685Y-83434844D01*
X72655279Y-83323655D01*
X72470379Y-83247067D01*
X72274090Y-83208023D01*
X72235654Y-83208023D01*
X71497312Y-82469682D01*
X71473450Y-82440606D01*
X71357420Y-82345383D01*
X71225043Y-82274626D01*
X71081406Y-82231054D01*
X70969454Y-82220028D01*
X70969451Y-82220028D01*
X70932028Y-82216342D01*
X70894605Y-82220028D01*
X70375362Y-82220028D01*
X70348183Y-82192849D01*
X70181777Y-82081660D01*
X69996877Y-82005072D01*
X69800588Y-81966028D01*
X69600454Y-81966028D01*
X69404165Y-82005072D01*
X69219265Y-82081660D01*
X69052859Y-82192849D01*
X68911342Y-82334366D01*
X68800153Y-82500772D01*
X68723565Y-82685672D01*
X68684521Y-82881961D01*
X51447700Y-82881961D01*
X51447700Y-73399933D01*
X65284000Y-73399933D01*
X65284000Y-73600067D01*
X65323044Y-73796356D01*
X65399632Y-73981256D01*
X65510821Y-74147662D01*
X65652338Y-74289179D01*
X65818744Y-74400368D01*
X66003644Y-74476956D01*
X66199933Y-74516000D01*
X66400067Y-74516000D01*
X66596356Y-74476956D01*
X66781256Y-74400368D01*
X66947662Y-74289179D01*
X66974841Y-74262000D01*
X67976070Y-74262000D01*
X69812300Y-76098231D01*
X69812300Y-76136667D01*
X69851344Y-76332956D01*
X69927932Y-76517856D01*
X70039121Y-76684262D01*
X70180638Y-76825779D01*
X70347044Y-76936968D01*
X70531944Y-77013556D01*
X70728233Y-77052600D01*
X70928367Y-77052600D01*
X71124656Y-77013556D01*
X71309556Y-76936968D01*
X71475962Y-76825779D01*
X71617479Y-76684262D01*
X71728668Y-76517856D01*
X71805256Y-76332956D01*
X71844300Y-76136667D01*
X71844300Y-75936533D01*
X71805256Y-75740244D01*
X71728668Y-75555344D01*
X71617479Y-75388938D01*
X71475962Y-75247421D01*
X71309556Y-75136232D01*
X71124656Y-75059644D01*
X70928367Y-75020600D01*
X70889931Y-75020600D01*
X68856984Y-72987654D01*
X68833122Y-72958578D01*
X68717092Y-72863355D01*
X68584715Y-72792598D01*
X68441078Y-72749026D01*
X68329126Y-72738000D01*
X68329123Y-72738000D01*
X68291700Y-72734314D01*
X68254277Y-72738000D01*
X66974841Y-72738000D01*
X66947662Y-72710821D01*
X66781256Y-72599632D01*
X66596356Y-72523044D01*
X66400067Y-72484000D01*
X66199933Y-72484000D01*
X66003644Y-72523044D01*
X65818744Y-72599632D01*
X65652338Y-72710821D01*
X65510821Y-72852338D01*
X65399632Y-73018744D01*
X65323044Y-73203644D01*
X65284000Y-73399933D01*
X51447700Y-73399933D01*
X51447700Y-68939933D01*
X75504000Y-68939933D01*
X75504000Y-69140067D01*
X75543044Y-69336356D01*
X75619632Y-69521256D01*
X75730821Y-69687662D01*
X75872338Y-69829179D01*
X76038744Y-69940368D01*
X76070700Y-69953605D01*
X76070701Y-72371358D01*
X76043521Y-72398538D01*
X75932332Y-72564944D01*
X75855744Y-72749844D01*
X75816700Y-72946133D01*
X75816700Y-73146267D01*
X75855744Y-73342556D01*
X75932332Y-73527456D01*
X76043521Y-73693862D01*
X76185038Y-73835379D01*
X76351444Y-73946568D01*
X76536344Y-74023156D01*
X76732633Y-74062200D01*
X76932767Y-74062200D01*
X77129056Y-74023156D01*
X77313956Y-73946568D01*
X77480362Y-73835379D01*
X77621879Y-73693862D01*
X77733068Y-73527456D01*
X77809656Y-73342556D01*
X77848700Y-73146267D01*
X77848700Y-72946133D01*
X77809656Y-72749844D01*
X77733068Y-72564944D01*
X77621879Y-72398538D01*
X77594700Y-72371359D01*
X77594700Y-69380123D01*
X77598386Y-69342700D01*
X77594643Y-69304697D01*
X77583674Y-69193322D01*
X77540102Y-69049685D01*
X77536000Y-69042011D01*
X77536000Y-68939933D01*
X77496956Y-68743644D01*
X77420368Y-68558744D01*
X77309179Y-68392338D01*
X77167662Y-68250821D01*
X77001256Y-68139632D01*
X76816356Y-68063044D01*
X76620067Y-68024000D01*
X76419933Y-68024000D01*
X76223644Y-68063044D01*
X76038744Y-68139632D01*
X75872338Y-68250821D01*
X75730821Y-68392338D01*
X75619632Y-68558744D01*
X75543044Y-68743644D01*
X75504000Y-68939933D01*
X51447700Y-68939933D01*
X51447700Y-59934074D01*
X51709536Y-60325939D01*
X52174061Y-60790464D01*
X52720285Y-61155439D01*
X53327216Y-61406838D01*
X53971531Y-61535000D01*
X54628469Y-61535000D01*
X55272784Y-61406838D01*
X55879715Y-61155439D01*
X56425939Y-60790464D01*
X56890464Y-60325939D01*
X57255439Y-59779715D01*
X57506838Y-59172784D01*
X57635000Y-58528469D01*
X57635000Y-57871531D01*
X57506838Y-57227216D01*
X57255439Y-56620285D01*
X56890464Y-56074061D01*
X56425939Y-55609536D01*
X56034074Y-55347700D01*
X101565926Y-55347700D01*
X101174061Y-55609536D01*
G36*
X131100738Y-72987079D02*
X131267144Y-73098268D01*
X131452044Y-73174856D01*
X131648333Y-73213900D01*
X131686770Y-73213900D01*
X133032858Y-74559989D01*
X131093926Y-74559989D01*
X131056510Y-74556304D01*
X131019094Y-74559989D01*
X131019085Y-74559989D01*
X130907133Y-74571015D01*
X130763496Y-74614587D01*
X130631119Y-74685344D01*
X130515089Y-74780567D01*
X130491232Y-74809637D01*
X88038370Y-117262500D01*
X87999933Y-117262500D01*
X87803644Y-117301544D01*
X87618744Y-117378132D01*
X87452338Y-117489321D01*
X87310821Y-117630838D01*
X87199632Y-117797244D01*
X87123044Y-117982144D01*
X87084000Y-118178433D01*
X87084000Y-118378567D01*
X87123044Y-118574856D01*
X87199632Y-118759756D01*
X87310821Y-118926162D01*
X87452338Y-119067679D01*
X87618744Y-119178868D01*
X87803644Y-119255456D01*
X87999933Y-119294500D01*
X88200067Y-119294500D01*
X88396356Y-119255456D01*
X88581256Y-119178868D01*
X88747662Y-119067679D01*
X88889179Y-118926162D01*
X89000368Y-118759756D01*
X89076956Y-118574856D01*
X89116000Y-118378567D01*
X89116000Y-118340130D01*
X91584599Y-115871531D01*
X99965000Y-115871531D01*
X99965000Y-116528469D01*
X100093162Y-117172784D01*
X100344561Y-117779715D01*
X100709536Y-118325939D01*
X101174061Y-118790464D01*
X101720285Y-119155439D01*
X102327216Y-119406838D01*
X102971531Y-119535000D01*
X103628469Y-119535000D01*
X104272784Y-119406838D01*
X104879715Y-119155439D01*
X105425939Y-118790464D01*
X105890464Y-118325939D01*
X106255439Y-117779715D01*
X106506838Y-117172784D01*
X106635000Y-116528469D01*
X106635000Y-115871531D01*
X106506838Y-115227216D01*
X106255439Y-114620285D01*
X105890464Y-114074061D01*
X105425939Y-113609536D01*
X104879715Y-113244561D01*
X104272784Y-112993162D01*
X103628469Y-112865000D01*
X102971531Y-112865000D01*
X102327216Y-112993162D01*
X101720285Y-113244561D01*
X101174061Y-113609536D01*
X100709536Y-114074061D01*
X100344561Y-114620285D01*
X100093162Y-115227216D01*
X99965000Y-115871531D01*
X91584599Y-115871531D01*
X131372142Y-76083989D01*
X137810069Y-76083989D01*
X137807200Y-76098414D01*
X137807200Y-76323566D01*
X137851125Y-76544391D01*
X137937287Y-76752403D01*
X138062374Y-76939610D01*
X138221580Y-77098816D01*
X138408787Y-77223903D01*
X138616799Y-77310065D01*
X138835553Y-77353578D01*
X142321001Y-80839027D01*
X142321000Y-92632554D01*
X142312174Y-92641380D01*
X142187087Y-92828587D01*
X142100925Y-93036599D01*
X142057000Y-93257424D01*
X142057000Y-93482576D01*
X142100925Y-93703401D01*
X142187087Y-93911413D01*
X142312174Y-94098620D01*
X142471380Y-94257826D01*
X142658587Y-94382913D01*
X142866599Y-94469075D01*
X143035474Y-94502666D01*
X142972865Y-94544500D01*
X136210160Y-94544500D01*
X136166500Y-94540200D01*
X136122840Y-94544500D01*
X136122833Y-94544500D01*
X136008825Y-94555729D01*
X135992225Y-94557364D01*
X135966357Y-94565211D01*
X135824649Y-94608197D01*
X135670209Y-94690747D01*
X135534841Y-94801841D01*
X135507006Y-94835758D01*
X110631765Y-119711000D01*
X85529375Y-119711000D01*
X85485715Y-119706700D01*
X85442055Y-119711000D01*
X85442048Y-119711000D01*
X85328040Y-119722229D01*
X85311440Y-119723864D01*
X85295762Y-119728620D01*
X85143864Y-119774697D01*
X84989424Y-119857247D01*
X84854056Y-119968341D01*
X84826220Y-120002259D01*
X84560310Y-120268169D01*
X84395567Y-120235400D01*
X84195433Y-120235400D01*
X83999144Y-120274444D01*
X83814244Y-120351032D01*
X83797231Y-120362400D01*
X82221430Y-120362400D01*
X86837579Y-115746252D01*
X86837583Y-115746247D01*
X87305451Y-115278380D01*
X87334522Y-115254522D01*
X87429745Y-115138492D01*
X87500502Y-115006115D01*
X87544074Y-114862478D01*
X87555100Y-114750526D01*
X87555100Y-114750524D01*
X87558786Y-114713101D01*
X87555100Y-114675678D01*
X87555100Y-113305830D01*
X103233452Y-97627479D01*
X103260887Y-97693713D01*
X103385974Y-97880920D01*
X103545180Y-98040126D01*
X103732387Y-98165213D01*
X103940399Y-98251375D01*
X104161224Y-98295300D01*
X104386376Y-98295300D01*
X104607201Y-98251375D01*
X104815213Y-98165213D01*
X105002420Y-98040126D01*
X105161626Y-97880920D01*
X105286713Y-97693713D01*
X105372875Y-97485701D01*
X105416800Y-97264876D01*
X105416800Y-97039724D01*
X105390488Y-96907447D01*
X108312243Y-93985693D01*
X108346159Y-93957859D01*
X108457253Y-93822491D01*
X108539803Y-93668051D01*
X108587319Y-93511409D01*
X108590636Y-93500475D01*
X108607801Y-93326200D01*
X108603500Y-93282532D01*
X108603500Y-92380635D01*
X117229548Y-83754588D01*
X117448301Y-83711075D01*
X117656313Y-83624913D01*
X117841763Y-83501000D01*
X120033240Y-83501000D01*
X120076900Y-83505300D01*
X120120560Y-83501000D01*
X120120567Y-83501000D01*
X120251174Y-83488136D01*
X120418751Y-83437303D01*
X120573191Y-83354753D01*
X120708559Y-83243659D01*
X120736399Y-83209736D01*
X131029897Y-72916238D01*
X131100738Y-72987079D01*
X131100738Y-72987079D01*
G37*
X131100738Y-72987079D02*
X131267144Y-73098268D01*
X131452044Y-73174856D01*
X131648333Y-73213900D01*
X131686770Y-73213900D01*
X133032858Y-74559989D01*
X131093926Y-74559989D01*
X131056510Y-74556304D01*
X131019094Y-74559989D01*
X131019085Y-74559989D01*
X130907133Y-74571015D01*
X130763496Y-74614587D01*
X130631119Y-74685344D01*
X130515089Y-74780567D01*
X130491232Y-74809637D01*
X88038370Y-117262500D01*
X87999933Y-117262500D01*
X87803644Y-117301544D01*
X87618744Y-117378132D01*
X87452338Y-117489321D01*
X87310821Y-117630838D01*
X87199632Y-117797244D01*
X87123044Y-117982144D01*
X87084000Y-118178433D01*
X87084000Y-118378567D01*
X87123044Y-118574856D01*
X87199632Y-118759756D01*
X87310821Y-118926162D01*
X87452338Y-119067679D01*
X87618744Y-119178868D01*
X87803644Y-119255456D01*
X87999933Y-119294500D01*
X88200067Y-119294500D01*
X88396356Y-119255456D01*
X88581256Y-119178868D01*
X88747662Y-119067679D01*
X88889179Y-118926162D01*
X89000368Y-118759756D01*
X89076956Y-118574856D01*
X89116000Y-118378567D01*
X89116000Y-118340130D01*
X91584599Y-115871531D01*
X99965000Y-115871531D01*
X99965000Y-116528469D01*
X100093162Y-117172784D01*
X100344561Y-117779715D01*
X100709536Y-118325939D01*
X101174061Y-118790464D01*
X101720285Y-119155439D01*
X102327216Y-119406838D01*
X102971531Y-119535000D01*
X103628469Y-119535000D01*
X104272784Y-119406838D01*
X104879715Y-119155439D01*
X105425939Y-118790464D01*
X105890464Y-118325939D01*
X106255439Y-117779715D01*
X106506838Y-117172784D01*
X106635000Y-116528469D01*
X106635000Y-115871531D01*
X106506838Y-115227216D01*
X106255439Y-114620285D01*
X105890464Y-114074061D01*
X105425939Y-113609536D01*
X104879715Y-113244561D01*
X104272784Y-112993162D01*
X103628469Y-112865000D01*
X102971531Y-112865000D01*
X102327216Y-112993162D01*
X101720285Y-113244561D01*
X101174061Y-113609536D01*
X100709536Y-114074061D01*
X100344561Y-114620285D01*
X100093162Y-115227216D01*
X99965000Y-115871531D01*
X91584599Y-115871531D01*
X131372142Y-76083989D01*
X137810069Y-76083989D01*
X137807200Y-76098414D01*
X137807200Y-76323566D01*
X137851125Y-76544391D01*
X137937287Y-76752403D01*
X138062374Y-76939610D01*
X138221580Y-77098816D01*
X138408787Y-77223903D01*
X138616799Y-77310065D01*
X138835553Y-77353578D01*
X142321001Y-80839027D01*
X142321000Y-92632554D01*
X142312174Y-92641380D01*
X142187087Y-92828587D01*
X142100925Y-93036599D01*
X142057000Y-93257424D01*
X142057000Y-93482576D01*
X142100925Y-93703401D01*
X142187087Y-93911413D01*
X142312174Y-94098620D01*
X142471380Y-94257826D01*
X142658587Y-94382913D01*
X142866599Y-94469075D01*
X143035474Y-94502666D01*
X142972865Y-94544500D01*
X136210160Y-94544500D01*
X136166500Y-94540200D01*
X136122840Y-94544500D01*
X136122833Y-94544500D01*
X136008825Y-94555729D01*
X135992225Y-94557364D01*
X135966357Y-94565211D01*
X135824649Y-94608197D01*
X135670209Y-94690747D01*
X135534841Y-94801841D01*
X135507006Y-94835758D01*
X110631765Y-119711000D01*
X85529375Y-119711000D01*
X85485715Y-119706700D01*
X85442055Y-119711000D01*
X85442048Y-119711000D01*
X85328040Y-119722229D01*
X85311440Y-119723864D01*
X85295762Y-119728620D01*
X85143864Y-119774697D01*
X84989424Y-119857247D01*
X84854056Y-119968341D01*
X84826220Y-120002259D01*
X84560310Y-120268169D01*
X84395567Y-120235400D01*
X84195433Y-120235400D01*
X83999144Y-120274444D01*
X83814244Y-120351032D01*
X83797231Y-120362400D01*
X82221430Y-120362400D01*
X86837579Y-115746252D01*
X86837583Y-115746247D01*
X87305451Y-115278380D01*
X87334522Y-115254522D01*
X87429745Y-115138492D01*
X87500502Y-115006115D01*
X87544074Y-114862478D01*
X87555100Y-114750526D01*
X87555100Y-114750524D01*
X87558786Y-114713101D01*
X87555100Y-114675678D01*
X87555100Y-113305830D01*
X103233452Y-97627479D01*
X103260887Y-97693713D01*
X103385974Y-97880920D01*
X103545180Y-98040126D01*
X103732387Y-98165213D01*
X103940399Y-98251375D01*
X104161224Y-98295300D01*
X104386376Y-98295300D01*
X104607201Y-98251375D01*
X104815213Y-98165213D01*
X105002420Y-98040126D01*
X105161626Y-97880920D01*
X105286713Y-97693713D01*
X105372875Y-97485701D01*
X105416800Y-97264876D01*
X105416800Y-97039724D01*
X105390488Y-96907447D01*
X108312243Y-93985693D01*
X108346159Y-93957859D01*
X108457253Y-93822491D01*
X108539803Y-93668051D01*
X108587319Y-93511409D01*
X108590636Y-93500475D01*
X108607801Y-93326200D01*
X108603500Y-93282532D01*
X108603500Y-92380635D01*
X117229548Y-83754588D01*
X117448301Y-83711075D01*
X117656313Y-83624913D01*
X117841763Y-83501000D01*
X120033240Y-83501000D01*
X120076900Y-83505300D01*
X120120560Y-83501000D01*
X120120567Y-83501000D01*
X120251174Y-83488136D01*
X120418751Y-83437303D01*
X120573191Y-83354753D01*
X120708559Y-83243659D01*
X120736399Y-83209736D01*
X131029897Y-72916238D01*
X131100738Y-72987079D01*
G36*
X166033601Y-101727830D02*
X166029300Y-101771500D01*
X166046464Y-101945774D01*
X166093400Y-102100502D01*
X166093400Y-102197876D01*
X166137325Y-102418701D01*
X166223487Y-102626713D01*
X166348574Y-102813920D01*
X166507780Y-102973126D01*
X166664753Y-103078012D01*
X165980059Y-103762706D01*
X165946142Y-103790541D01*
X165918307Y-103824458D01*
X165918305Y-103824460D01*
X165835048Y-103925909D01*
X165752498Y-104080348D01*
X165701664Y-104247926D01*
X165684500Y-104422200D01*
X165688801Y-104465870D01*
X165688800Y-111060295D01*
X165530967Y-111028900D01*
X165492531Y-111028900D01*
X163630200Y-109166570D01*
X163630200Y-108790923D01*
X163633886Y-108753500D01*
X163626120Y-108674648D01*
X163619174Y-108604122D01*
X163575602Y-108460485D01*
X163542665Y-108398864D01*
X163504845Y-108328107D01*
X163433479Y-108241148D01*
X163409622Y-108212078D01*
X163380551Y-108188220D01*
X162763783Y-107571453D01*
X162739922Y-107542378D01*
X162623892Y-107447155D01*
X162491515Y-107376398D01*
X162347878Y-107332826D01*
X162235926Y-107321800D01*
X162235923Y-107321800D01*
X162198500Y-107318114D01*
X162161077Y-107321800D01*
X161961931Y-107321800D01*
X161904800Y-107264669D01*
X161904800Y-107226233D01*
X161865756Y-107029944D01*
X161789168Y-106845044D01*
X161677979Y-106678638D01*
X161650800Y-106651459D01*
X161650800Y-92085322D01*
X161654486Y-92047899D01*
X161648015Y-91982199D01*
X161639774Y-91898522D01*
X161596202Y-91754885D01*
X161525445Y-91622508D01*
X161449444Y-91529900D01*
X166033600Y-91529900D01*
X166033601Y-101727830D01*
X166033601Y-101727830D01*
G37*
X166033601Y-101727830D02*
X166029300Y-101771500D01*
X166046464Y-101945774D01*
X166093400Y-102100502D01*
X166093400Y-102197876D01*
X166137325Y-102418701D01*
X166223487Y-102626713D01*
X166348574Y-102813920D01*
X166507780Y-102973126D01*
X166664753Y-103078012D01*
X165980059Y-103762706D01*
X165946142Y-103790541D01*
X165918307Y-103824458D01*
X165918305Y-103824460D01*
X165835048Y-103925909D01*
X165752498Y-104080348D01*
X165701664Y-104247926D01*
X165684500Y-104422200D01*
X165688801Y-104465870D01*
X165688800Y-111060295D01*
X165530967Y-111028900D01*
X165492531Y-111028900D01*
X163630200Y-109166570D01*
X163630200Y-108790923D01*
X163633886Y-108753500D01*
X163626120Y-108674648D01*
X163619174Y-108604122D01*
X163575602Y-108460485D01*
X163542665Y-108398864D01*
X163504845Y-108328107D01*
X163433479Y-108241148D01*
X163409622Y-108212078D01*
X163380551Y-108188220D01*
X162763783Y-107571453D01*
X162739922Y-107542378D01*
X162623892Y-107447155D01*
X162491515Y-107376398D01*
X162347878Y-107332826D01*
X162235926Y-107321800D01*
X162235923Y-107321800D01*
X162198500Y-107318114D01*
X162161077Y-107321800D01*
X161961931Y-107321800D01*
X161904800Y-107264669D01*
X161904800Y-107226233D01*
X161865756Y-107029944D01*
X161789168Y-106845044D01*
X161677979Y-106678638D01*
X161650800Y-106651459D01*
X161650800Y-92085322D01*
X161654486Y-92047899D01*
X161648015Y-91982199D01*
X161639774Y-91898522D01*
X161596202Y-91754885D01*
X161525445Y-91622508D01*
X161449444Y-91529900D01*
X166033600Y-91529900D01*
X166033601Y-101727830D01*
G36*
X160126801Y-92363532D02*
X160126800Y-106651459D01*
X160099621Y-106678638D01*
X159988432Y-106845044D01*
X159911844Y-107029944D01*
X159872800Y-107226233D01*
X159872800Y-107426367D01*
X159901726Y-107571790D01*
X148903438Y-96573503D01*
X148974279Y-96502662D01*
X149085468Y-96336256D01*
X149162056Y-96151356D01*
X149201100Y-95955067D01*
X149201100Y-95754933D01*
X149162056Y-95558644D01*
X149085468Y-95373744D01*
X148974279Y-95207338D01*
X148947100Y-95180159D01*
X148947100Y-93868723D01*
X148950786Y-93831300D01*
X148947100Y-93793874D01*
X148936074Y-93681922D01*
X148892502Y-93538285D01*
X148840744Y-93441453D01*
X148821745Y-93405907D01*
X148786957Y-93363519D01*
X148726522Y-93289878D01*
X148697447Y-93266017D01*
X147805400Y-92373970D01*
X147805400Y-88914630D01*
X154152600Y-95261831D01*
X154152600Y-95300267D01*
X154191644Y-95496556D01*
X154226570Y-95580874D01*
X154121507Y-95738111D01*
X154044919Y-95923011D01*
X154005875Y-96119300D01*
X154005875Y-96319434D01*
X154044919Y-96515723D01*
X154121507Y-96700623D01*
X154232696Y-96867029D01*
X154374213Y-97008546D01*
X154540619Y-97119735D01*
X154725519Y-97196323D01*
X154921808Y-97235367D01*
X155121942Y-97235367D01*
X155318231Y-97196323D01*
X155503131Y-97119735D01*
X155669537Y-97008546D01*
X155707488Y-96970595D01*
X155710068Y-96970341D01*
X155853705Y-96926769D01*
X155986082Y-96856012D01*
X156102112Y-96760789D01*
X156125974Y-96731713D01*
X156570046Y-96287641D01*
X156599122Y-96263779D01*
X156694345Y-96147749D01*
X156765102Y-96015372D01*
X156808674Y-95871735D01*
X156819700Y-95759783D01*
X156819700Y-95759781D01*
X156823386Y-95722358D01*
X156819700Y-95684935D01*
X156819700Y-94869322D01*
X156823386Y-94831899D01*
X156817763Y-94774807D01*
X156808674Y-94682522D01*
X156765102Y-94538885D01*
X156694345Y-94406508D01*
X156599122Y-94290478D01*
X156570053Y-94266622D01*
X149075600Y-86772170D01*
X149075600Y-85296623D01*
X149079286Y-85259200D01*
X149072541Y-85190715D01*
X149064574Y-85109822D01*
X149021002Y-84966185D01*
X148968353Y-84867685D01*
X148950245Y-84833807D01*
X148878879Y-84746848D01*
X148855022Y-84717778D01*
X148825952Y-84693922D01*
X148451000Y-84318970D01*
X148451000Y-81425022D01*
X148454686Y-81387599D01*
X148450397Y-81344055D01*
X148439974Y-81238222D01*
X148396402Y-81094585D01*
X148325645Y-80962208D01*
X148230422Y-80846178D01*
X148201353Y-80822322D01*
X143656000Y-76276970D01*
X143656000Y-75892730D01*
X160126801Y-92363532D01*
X160126801Y-92363532D01*
G37*
X160126801Y-92363532D02*
X160126800Y-106651459D01*
X160099621Y-106678638D01*
X159988432Y-106845044D01*
X159911844Y-107029944D01*
X159872800Y-107226233D01*
X159872800Y-107426367D01*
X159901726Y-107571790D01*
X148903438Y-96573503D01*
X148974279Y-96502662D01*
X149085468Y-96336256D01*
X149162056Y-96151356D01*
X149201100Y-95955067D01*
X149201100Y-95754933D01*
X149162056Y-95558644D01*
X149085468Y-95373744D01*
X148974279Y-95207338D01*
X148947100Y-95180159D01*
X148947100Y-93868723D01*
X148950786Y-93831300D01*
X148947100Y-93793874D01*
X148936074Y-93681922D01*
X148892502Y-93538285D01*
X148840744Y-93441453D01*
X148821745Y-93405907D01*
X148786957Y-93363519D01*
X148726522Y-93289878D01*
X148697447Y-93266017D01*
X147805400Y-92373970D01*
X147805400Y-88914630D01*
X154152600Y-95261831D01*
X154152600Y-95300267D01*
X154191644Y-95496556D01*
X154226570Y-95580874D01*
X154121507Y-95738111D01*
X154044919Y-95923011D01*
X154005875Y-96119300D01*
X154005875Y-96319434D01*
X154044919Y-96515723D01*
X154121507Y-96700623D01*
X154232696Y-96867029D01*
X154374213Y-97008546D01*
X154540619Y-97119735D01*
X154725519Y-97196323D01*
X154921808Y-97235367D01*
X155121942Y-97235367D01*
X155318231Y-97196323D01*
X155503131Y-97119735D01*
X155669537Y-97008546D01*
X155707488Y-96970595D01*
X155710068Y-96970341D01*
X155853705Y-96926769D01*
X155986082Y-96856012D01*
X156102112Y-96760789D01*
X156125974Y-96731713D01*
X156570046Y-96287641D01*
X156599122Y-96263779D01*
X156694345Y-96147749D01*
X156765102Y-96015372D01*
X156808674Y-95871735D01*
X156819700Y-95759783D01*
X156819700Y-95759781D01*
X156823386Y-95722358D01*
X156819700Y-95684935D01*
X156819700Y-94869322D01*
X156823386Y-94831899D01*
X156817763Y-94774807D01*
X156808674Y-94682522D01*
X156765102Y-94538885D01*
X156694345Y-94406508D01*
X156599122Y-94290478D01*
X156570053Y-94266622D01*
X149075600Y-86772170D01*
X149075600Y-85296623D01*
X149079286Y-85259200D01*
X149072541Y-85190715D01*
X149064574Y-85109822D01*
X149021002Y-84966185D01*
X148968353Y-84867685D01*
X148950245Y-84833807D01*
X148878879Y-84746848D01*
X148855022Y-84717778D01*
X148825952Y-84693922D01*
X148451000Y-84318970D01*
X148451000Y-81425022D01*
X148454686Y-81387599D01*
X148450397Y-81344055D01*
X148439974Y-81238222D01*
X148396402Y-81094585D01*
X148325645Y-80962208D01*
X148230422Y-80846178D01*
X148201353Y-80822322D01*
X143656000Y-76276970D01*
X143656000Y-75892730D01*
X160126801Y-92363532D01*
G36*
X145656800Y-82229331D02*
X145656801Y-85122497D01*
X145612887Y-85140687D01*
X145425680Y-85265774D01*
X145266474Y-85424980D01*
X145141387Y-85612187D01*
X145055225Y-85820199D01*
X145011300Y-86041024D01*
X145011300Y-86266176D01*
X145055225Y-86487001D01*
X145141387Y-86695013D01*
X145265300Y-86880463D01*
X145265301Y-92655030D01*
X145261000Y-92698700D01*
X145278164Y-92872974D01*
X145328998Y-93040552D01*
X145411548Y-93194991D01*
X145482708Y-93281699D01*
X145522642Y-93330359D01*
X145556559Y-93358194D01*
X146206064Y-94007700D01*
X145669265Y-94544500D01*
X144407135Y-94544500D01*
X144231413Y-94427087D01*
X144023401Y-94340925D01*
X143854526Y-94307334D01*
X143928620Y-94257826D01*
X144087826Y-94098620D01*
X144212913Y-93911413D01*
X144299075Y-93703401D01*
X144343000Y-93482576D01*
X144343000Y-93257424D01*
X144299075Y-93036599D01*
X144212913Y-92828587D01*
X144099000Y-92658103D01*
X144099000Y-80671531D01*
X145656800Y-82229331D01*
X145656800Y-82229331D01*
G37*
X145656800Y-82229331D02*
X145656801Y-85122497D01*
X145612887Y-85140687D01*
X145425680Y-85265774D01*
X145266474Y-85424980D01*
X145141387Y-85612187D01*
X145055225Y-85820199D01*
X145011300Y-86041024D01*
X145011300Y-86266176D01*
X145055225Y-86487001D01*
X145141387Y-86695013D01*
X145265300Y-86880463D01*
X145265301Y-92655030D01*
X145261000Y-92698700D01*
X145278164Y-92872974D01*
X145328998Y-93040552D01*
X145411548Y-93194991D01*
X145482708Y-93281699D01*
X145522642Y-93330359D01*
X145556559Y-93358194D01*
X146206064Y-94007700D01*
X145669265Y-94544500D01*
X144407135Y-94544500D01*
X144231413Y-94427087D01*
X144023401Y-94340925D01*
X143854526Y-94307334D01*
X143928620Y-94257826D01*
X144087826Y-94098620D01*
X144212913Y-93911413D01*
X144299075Y-93703401D01*
X144343000Y-93482576D01*
X144343000Y-93257424D01*
X144299075Y-93036599D01*
X144212913Y-92828587D01*
X144099000Y-92658103D01*
X144099000Y-80671531D01*
X145656800Y-82229331D01*
G04 #@! TD*
M02*
