G04 #@! TF.GenerationSoftware,KiCad,Pcbnew,5.0.1-33cea8e~68~ubuntu18.04.1*
G04 #@! TF.CreationDate,2018-11-04T18:28:43+03:00*
G04 #@! TF.ProjectId,AA-PI-Display-Board-RaspberryPi3,41412D50492D446973706C61792D426F,02*
G04 #@! TF.SameCoordinates,Original*
G04 #@! TF.FileFunction,Legend,Top*
G04 #@! TF.FilePolarity,Positive*
%FSLAX46Y46*%
G04 Gerber Fmt 4.6, Leading zero omitted, Abs format (unit mm)*
G04 Created by KiCad (PCBNEW 5.0.1-33cea8e~68~ubuntu18.04.1) date Sun 04 Nov 2018 18:28:43 MSK*
%MOMM*%
%LPD*%
G01*
G04 APERTURE LIST*
%ADD10C,0.200000*%
%ADD11C,0.120000*%
%ADD12C,0.150000*%
%ADD13C,0.100000*%
%ADD14C,0.203200*%
%ADD15C,0.254000*%
G04 APERTURE END LIST*
D10*
G04 #@! TO.C,U6*
X109578000Y-99228000D02*
X108178000Y-99228000D01*
X107828000Y-96278000D02*
X107828000Y-99178000D01*
X107428000Y-96278000D02*
X107828000Y-96278000D01*
X107428000Y-99178000D02*
X107428000Y-96278000D01*
X107828000Y-99178000D02*
X107428000Y-99178000D01*
D11*
G04 #@! TO.C,C23*
X81840000Y-76761252D02*
X81840000Y-76238748D01*
X83260000Y-76761252D02*
X83260000Y-76238748D01*
D10*
G04 #@! TO.C,U1*
X106805000Y-110065000D02*
X107855000Y-110065000D01*
X108205000Y-113090000D02*
X108205000Y-110190000D01*
X109055000Y-113090000D02*
X108205000Y-113090000D01*
X109055000Y-110190000D02*
X109055000Y-113090000D01*
X108205000Y-110190000D02*
X109055000Y-110190000D01*
G04 #@! TO.C,U3*
X67250000Y-71900000D02*
X69050000Y-71900000D01*
X69400000Y-81800000D02*
X69400000Y-71600000D01*
X74000000Y-81800000D02*
X69400000Y-81800000D01*
X74000000Y-71600000D02*
X74000000Y-81800000D01*
X69400000Y-71600000D02*
X74000000Y-71600000D01*
G04 #@! TO.C,U5*
X156845000Y-108022000D02*
X158320000Y-108022000D01*
D12*
G04 #@! TO.C,J4*
X117709175Y-130349704D02*
G75*
G02X119250000Y-132481386I-852175J-2238682D01*
G01*
X112250000Y-139700000D02*
X121250000Y-139700000D01*
X112250000Y-125000000D02*
X121250000Y-125000000D01*
X112250000Y-136700000D02*
X114250000Y-136700000D01*
X114250000Y-136700000D02*
X119250000Y-136700000D01*
X119250000Y-136700000D02*
X121250000Y-136700000D01*
X114250000Y-136680000D02*
X114250000Y-132504000D01*
X115790825Y-130372318D02*
G75*
G03X114250000Y-132504000I852175J-2238682D01*
G01*
X119250000Y-132504000D02*
X119250000Y-136700000D01*
X112250000Y-139700000D02*
X112250000Y-136700000D01*
X112250000Y-132700000D02*
X112250000Y-130500000D01*
X112250000Y-126500000D02*
X112250000Y-125000000D01*
X121250000Y-125000000D02*
X121250000Y-126500000D01*
X121250000Y-130500000D02*
X121250000Y-132700000D01*
X121250000Y-136700000D02*
X121250000Y-139700000D01*
G04 #@! TO.C,J6*
X86850000Y-122510000D02*
X86850000Y-124160000D01*
X75450000Y-122510000D02*
X75450000Y-124160000D01*
X75450000Y-125810000D02*
X86850000Y-125810000D01*
G04 #@! TO.C,J1*
X153550000Y-87800000D02*
X153550000Y-81750000D01*
X153200000Y-88150000D02*
X153550000Y-88150000D01*
X153550000Y-81750000D02*
X153550000Y-80750000D01*
X153550000Y-88150000D02*
X153550000Y-87800000D01*
X152650000Y-88150000D02*
X153200000Y-88150000D01*
X152650000Y-80750000D02*
X153550000Y-80750000D01*
X148200000Y-88150000D02*
X148200000Y-87150000D01*
X148200000Y-88150000D02*
X149100000Y-88150000D01*
X148200000Y-80750000D02*
X149100000Y-80750000D01*
X148200000Y-81750000D02*
X148200000Y-80750000D01*
X149380000Y-82950000D02*
X146925000Y-82950000D01*
X149380000Y-85950000D02*
X146925000Y-85950000D01*
X149380000Y-80050000D02*
X149380000Y-82950000D01*
X149380000Y-88850000D02*
X149380000Y-85950000D01*
X151430000Y-80050000D02*
X149380000Y-80050000D01*
X151430000Y-88850000D02*
X149380000Y-88850000D01*
X151430000Y-82950000D02*
X151430000Y-80050000D01*
X151430000Y-85950000D02*
X151430000Y-88850000D01*
X148675000Y-82950000D02*
X151430000Y-82950000D01*
X148675000Y-85950000D02*
X151430000Y-85950000D01*
X146925000Y-85950000D02*
X146925000Y-82950000D01*
D11*
G04 #@! TO.C,C1*
X172310000Y-70561252D02*
X172310000Y-70038748D01*
X170890000Y-70561252D02*
X170890000Y-70038748D01*
G04 #@! TO.C,C2*
X174860000Y-65538748D02*
X174860000Y-66061252D01*
X173440000Y-65538748D02*
X173440000Y-66061252D01*
G04 #@! TO.C,C3*
X109740000Y-115937936D02*
X109740000Y-117142064D01*
X107920000Y-115937936D02*
X107920000Y-117142064D01*
G04 #@! TO.C,C4*
X178340000Y-70138748D02*
X178340000Y-70661252D01*
X179760000Y-70138748D02*
X179760000Y-70661252D01*
G04 #@! TO.C,C5*
X118097936Y-118040000D02*
X119302064Y-118040000D01*
X118097936Y-119860000D02*
X119302064Y-119860000D01*
G04 #@! TO.C,C6*
X172840000Y-99760000D02*
X172840000Y-95550000D01*
X172840000Y-95550000D02*
X169820000Y-95550000D01*
X169820000Y-95550000D02*
X169820000Y-99760000D01*
G04 #@! TO.C,C7*
X125347936Y-121290000D02*
X126552064Y-121290000D01*
X125347936Y-123110000D02*
X126552064Y-123110000D01*
G04 #@! TO.C,C8*
X181836000Y-99772000D02*
X181836000Y-103982000D01*
X184856000Y-99772000D02*
X181836000Y-99772000D01*
X184856000Y-103982000D02*
X184856000Y-99772000D01*
G04 #@! TO.C,C9*
X183548000Y-97667252D02*
X183548000Y-97144748D01*
X182128000Y-97667252D02*
X182128000Y-97144748D01*
G04 #@! TO.C,C10*
X158347936Y-116410000D02*
X159552064Y-116410000D01*
X158347936Y-114590000D02*
X159552064Y-114590000D01*
G04 #@! TO.C,C11*
X65635000Y-81850000D02*
X65635000Y-77940000D01*
X65635000Y-77940000D02*
X63765000Y-77940000D01*
X63765000Y-77940000D02*
X63765000Y-81850000D01*
G04 #@! TO.C,C12*
X77765000Y-77940000D02*
X77765000Y-81850000D01*
X79635000Y-77940000D02*
X77765000Y-77940000D01*
X79635000Y-81850000D02*
X79635000Y-77940000D01*
G04 #@! TO.C,C13*
X139847936Y-90840000D02*
X141052064Y-90840000D01*
X139847936Y-92660000D02*
X141052064Y-92660000D01*
G04 #@! TO.C,C14*
X61240000Y-80438748D02*
X61240000Y-80961252D01*
X62660000Y-80438748D02*
X62660000Y-80961252D01*
G04 #@! TO.C,C15*
X80790000Y-80961252D02*
X80790000Y-80438748D01*
X82210000Y-80961252D02*
X82210000Y-80438748D01*
G04 #@! TO.C,C16*
X72890000Y-86038748D02*
X72890000Y-86561252D01*
X74310000Y-86038748D02*
X74310000Y-86561252D01*
G04 #@! TO.C,C17*
X70610000Y-86038748D02*
X70610000Y-86561252D01*
X69190000Y-86038748D02*
X69190000Y-86561252D01*
G04 #@! TO.C,C18*
X103063252Y-99200000D02*
X102540748Y-99200000D01*
X103063252Y-97780000D02*
X102540748Y-97780000D01*
G04 #@! TO.C,C19*
X67335000Y-66430000D02*
X67335000Y-70340000D01*
X67335000Y-70340000D02*
X69205000Y-70340000D01*
X69205000Y-70340000D02*
X69205000Y-66430000D01*
G04 #@! TO.C,C20*
X167590000Y-110847936D02*
X167590000Y-112052064D01*
X169410000Y-110847936D02*
X169410000Y-112052064D01*
G04 #@! TO.C,C21*
X74260000Y-68721252D02*
X74260000Y-68198748D01*
X75680000Y-68721252D02*
X75680000Y-68198748D01*
G04 #@! TO.C,C22*
X81840000Y-71738748D02*
X81840000Y-72261252D01*
X83260000Y-71738748D02*
X83260000Y-72261252D01*
G04 #@! TO.C,C24*
X175610000Y-115700000D02*
X175610000Y-107640000D01*
X175610000Y-107640000D02*
X171090000Y-107640000D01*
X171090000Y-107640000D02*
X171090000Y-115700000D01*
G04 #@! TO.C,C25*
X112610000Y-97652064D02*
X112610000Y-96447936D01*
X110790000Y-97652064D02*
X110790000Y-96447936D01*
G04 #@! TO.C,C26*
X71070000Y-68741252D02*
X71070000Y-68218748D01*
X72490000Y-68741252D02*
X72490000Y-68218748D01*
G04 #@! TO.C,C27*
X149867936Y-92190000D02*
X151072064Y-92190000D01*
X149867936Y-90370000D02*
X151072064Y-90370000D01*
G04 #@! TO.C,D1*
X169850000Y-68300000D02*
X168150000Y-68300000D01*
X168150000Y-68300000D02*
X168150000Y-71450000D01*
X169850000Y-68300000D02*
X169850000Y-71450000D01*
G04 #@! TO.C,D2*
X68630000Y-124600000D02*
X68630000Y-130300000D01*
X64330000Y-124600000D02*
X64330000Y-130300000D01*
X68630000Y-124600000D02*
X64330000Y-124600000D01*
G04 #@! TO.C,D3*
X97750000Y-120400000D02*
X97750000Y-126100000D01*
X93450000Y-120400000D02*
X93450000Y-126100000D01*
X97750000Y-120400000D02*
X93450000Y-120400000D01*
G04 #@! TO.C,D4*
X100050000Y-127500000D02*
X104350000Y-127500000D01*
X104350000Y-127500000D02*
X104350000Y-121800000D01*
X100050000Y-127500000D02*
X100050000Y-121800000D01*
G04 #@! TO.C,D5*
X115716000Y-123490000D02*
X112566000Y-123490000D01*
X115716000Y-121790000D02*
X112566000Y-121790000D01*
X115716000Y-123490000D02*
X115716000Y-121790000D01*
G04 #@! TO.C,D6*
X126508000Y-129294000D02*
X126508000Y-132154000D01*
X126508000Y-132154000D02*
X128428000Y-132154000D01*
X128428000Y-132154000D02*
X128428000Y-129294000D01*
G04 #@! TO.C,D7*
X138250000Y-101100000D02*
X142550000Y-101100000D01*
X142550000Y-101100000D02*
X142550000Y-95400000D01*
X138250000Y-101100000D02*
X138250000Y-95400000D01*
G04 #@! TO.C,D8*
X112900000Y-100150000D02*
X109600000Y-100150000D01*
X109600000Y-100150000D02*
X109600000Y-105550000D01*
X112900000Y-100150000D02*
X112900000Y-105550000D01*
G04 #@! TO.C,F1*
X108552064Y-125610000D02*
X107347936Y-125610000D01*
X108552064Y-123790000D02*
X107347936Y-123790000D01*
G04 #@! TO.C,F2*
X107347936Y-121890000D02*
X108552064Y-121890000D01*
X107347936Y-120070000D02*
X108552064Y-120070000D01*
D13*
G04 #@! TO.C,J2*
X67600000Y-135750000D02*
X67600000Y-136250000D01*
X65200000Y-134000000D02*
X65500000Y-134000000D01*
X59500000Y-135750000D02*
X59500000Y-136200000D01*
X61650000Y-134000000D02*
X61950000Y-134000000D01*
X59500000Y-138950000D02*
X59500000Y-139750000D01*
X59500000Y-139750000D02*
X60000000Y-139750000D01*
X67150000Y-139750000D02*
X67600000Y-139750000D01*
X67600000Y-139750000D02*
X67600000Y-138900000D01*
D11*
G04 #@! TO.C,J3*
X104160000Y-139710000D02*
X96340000Y-139710000D01*
X98140000Y-130390000D02*
X98140000Y-129960000D01*
X104160000Y-139710000D02*
X104160000Y-137760000D01*
X104160000Y-135540000D02*
X104160000Y-132310000D01*
X102360000Y-130390000D02*
X103440000Y-130390000D01*
X97060000Y-130390000D02*
X98140000Y-130390000D01*
X96340000Y-135540000D02*
X96340000Y-132310000D01*
X96340000Y-139710000D02*
X96340000Y-137760000D01*
G04 #@! TO.C,J5*
X120990000Y-79265000D02*
X120140000Y-79265000D01*
X120140000Y-79265000D02*
X120140000Y-81590000D01*
X120140000Y-81590000D02*
X117750000Y-81590000D01*
X120990000Y-87435000D02*
X120140000Y-87435000D01*
X120140000Y-87435000D02*
X120140000Y-85110000D01*
X124510000Y-79265000D02*
X125360000Y-79265000D01*
X125360000Y-79265000D02*
X125360000Y-87435000D01*
X125360000Y-87435000D02*
X124510000Y-87435000D01*
D12*
G04 #@! TO.C,J7*
X120225000Y-71800000D02*
X120225000Y-64300000D01*
X122675000Y-71800000D02*
X122675000Y-64300000D01*
X122675000Y-71800000D02*
X125500000Y-71800000D01*
X122675000Y-64300000D02*
X125500000Y-64300000D01*
X125500000Y-71800000D02*
X125500000Y-75225000D01*
X125500000Y-64300000D02*
X125500000Y-60875000D01*
X125500000Y-75225000D02*
X122450000Y-75225000D01*
X125500000Y-60875000D02*
X122450000Y-60875000D01*
X122450000Y-75225000D02*
X122450000Y-71800000D01*
X122450000Y-60875000D02*
X122450000Y-64300000D01*
X122450000Y-71800000D02*
X120225000Y-71800000D01*
X122450000Y-64300000D02*
X120225000Y-64300000D01*
G04 #@! TO.C,J8*
X161800000Y-66225000D02*
X146800000Y-66225000D01*
X161800000Y-63775000D02*
X146800000Y-63775000D01*
X161800000Y-63775000D02*
X161800000Y-61650000D01*
X146800000Y-63775000D02*
X146800000Y-61650000D01*
X161800000Y-61650000D02*
X165650000Y-61650000D01*
X146800000Y-61650000D02*
X142950000Y-61650000D01*
X165650000Y-61650000D02*
X165650000Y-64300000D01*
X142950000Y-61650000D02*
X142950000Y-64300000D01*
X165650000Y-64300000D02*
X161800000Y-64300000D01*
X142950000Y-64300000D02*
X146800000Y-64300000D01*
X161800000Y-64300000D02*
X161800000Y-66225000D01*
X146800000Y-64300000D02*
X146800000Y-66225000D01*
G04 #@! TO.C,J9*
X79050000Y-113975000D02*
X66550000Y-113975000D01*
X79050000Y-111525000D02*
X66550000Y-111525000D01*
X79050000Y-111525000D02*
X79050000Y-108700000D01*
X66550000Y-111525000D02*
X66550000Y-108700000D01*
X79050000Y-108700000D02*
X82475000Y-108700000D01*
X66550000Y-108700000D02*
X63125000Y-108700000D01*
X82475000Y-108700000D02*
X82475000Y-111750000D01*
X63125000Y-108700000D02*
X63125000Y-111750000D01*
X82475000Y-111750000D02*
X79050000Y-111750000D01*
X63125000Y-111750000D02*
X66550000Y-111750000D01*
X79050000Y-111750000D02*
X79050000Y-113975000D01*
X66550000Y-111750000D02*
X66550000Y-113975000D01*
G04 #@! TO.C,J10*
X108825000Y-79250000D02*
X108825000Y-64250000D01*
X111275000Y-79250000D02*
X111275000Y-64250000D01*
X111275000Y-79250000D02*
X114100000Y-79250000D01*
X111275000Y-64250000D02*
X114100000Y-64250000D01*
X114100000Y-79250000D02*
X114100000Y-82675000D01*
X114100000Y-64250000D02*
X114100000Y-60825000D01*
X114100000Y-82675000D02*
X111050000Y-82675000D01*
X114100000Y-60825000D02*
X111050000Y-60825000D01*
X111050000Y-82675000D02*
X111050000Y-79250000D01*
X111050000Y-60825000D02*
X111050000Y-64250000D01*
X111050000Y-79250000D02*
X108825000Y-79250000D01*
X111050000Y-64250000D02*
X108825000Y-64250000D01*
D11*
G04 #@! TO.C,J11*
X125360000Y-110935000D02*
X124510000Y-110935000D01*
X125360000Y-102765000D02*
X125360000Y-110935000D01*
X124510000Y-102765000D02*
X125360000Y-102765000D01*
X120140000Y-110935000D02*
X120140000Y-108610000D01*
X120990000Y-110935000D02*
X120140000Y-110935000D01*
X120140000Y-105090000D02*
X117750000Y-105090000D01*
X120140000Y-102765000D02*
X120140000Y-105090000D01*
X120990000Y-102765000D02*
X120140000Y-102765000D01*
G04 #@! TO.C,J12*
X120990000Y-90865000D02*
X120140000Y-90865000D01*
X120140000Y-90865000D02*
X120140000Y-93190000D01*
X120140000Y-93190000D02*
X117750000Y-93190000D01*
X120990000Y-99035000D02*
X120140000Y-99035000D01*
X120140000Y-99035000D02*
X120140000Y-96710000D01*
X124510000Y-90865000D02*
X125360000Y-90865000D01*
X125360000Y-90865000D02*
X125360000Y-99035000D01*
X125360000Y-99035000D02*
X124510000Y-99035000D01*
D14*
G04 #@! TO.C,L1*
X142100000Y-114150000D02*
G75*
G03X144600000Y-116650000I2500000J0D01*
G01*
X142100000Y-114150000D02*
X142100000Y-106150000D01*
X144600000Y-103650000D02*
G75*
G03X142100000Y-106150000I0J-2500000D01*
G01*
X144600000Y-103650000D02*
X145600000Y-103650000D01*
X151600000Y-103650000D02*
X152600000Y-103650000D01*
X155100000Y-106150000D02*
G75*
G03X152600000Y-103650000I-2500000J0D01*
G01*
X155100000Y-106150000D02*
X155100000Y-114150000D01*
X152600000Y-116650000D02*
G75*
G03X155100000Y-114150000I0J2500000D01*
G01*
X152600000Y-116650000D02*
X151600000Y-116650000D01*
X145600000Y-116650000D02*
X144600000Y-116650000D01*
D11*
G04 #@! TO.C,L2*
X63890000Y-74488748D02*
X63890000Y-75011252D01*
X65310000Y-74488748D02*
X65310000Y-75011252D01*
G04 #@! TO.C,L3*
X63890000Y-70661252D02*
X63890000Y-70138748D01*
X65310000Y-70661252D02*
X65310000Y-70138748D01*
D14*
G04 #@! TO.C,L4*
X101550000Y-106525000D02*
X101550000Y-100175000D01*
X101550000Y-100175000D02*
X108350000Y-100175000D01*
X108350000Y-100175000D02*
X108350000Y-106525000D01*
X108350000Y-106525000D02*
X101550000Y-106525000D01*
D11*
G04 #@! TO.C,Q1*
X174590000Y-68720000D02*
X176050000Y-68720000D01*
X174590000Y-71880000D02*
X176750000Y-71880000D01*
X174590000Y-71880000D02*
X174590000Y-70950000D01*
X174590000Y-68720000D02*
X174590000Y-69650000D01*
G04 #@! TO.C,Q2*
X176070000Y-66510000D02*
X177000000Y-66510000D01*
X179230000Y-66510000D02*
X178300000Y-66510000D01*
X179230000Y-66510000D02*
X179230000Y-64350000D01*
X176070000Y-66510000D02*
X176070000Y-65050000D01*
G04 #@! TO.C,Q3*
X180220000Y-66510000D02*
X180220000Y-65050000D01*
X183380000Y-66510000D02*
X183380000Y-64350000D01*
X183380000Y-66510000D02*
X182450000Y-66510000D01*
X180220000Y-66510000D02*
X181150000Y-66510000D01*
G04 #@! TO.C,Q4*
X117120000Y-116310000D02*
X117120000Y-114850000D01*
X120280000Y-116310000D02*
X120280000Y-114150000D01*
X120280000Y-116310000D02*
X119350000Y-116310000D01*
X117120000Y-116310000D02*
X118050000Y-116310000D01*
G04 #@! TO.C,Q5*
X111824000Y-119028000D02*
X112754000Y-119028000D01*
X114984000Y-119028000D02*
X114054000Y-119028000D01*
X114984000Y-119028000D02*
X114984000Y-116868000D01*
X111824000Y-119028000D02*
X111824000Y-117568000D01*
G04 #@! TO.C,Q6*
X127360000Y-127430000D02*
X127360000Y-126500000D01*
X127360000Y-124270000D02*
X127360000Y-125200000D01*
X127360000Y-124270000D02*
X125200000Y-124270000D01*
X127360000Y-127430000D02*
X125900000Y-127430000D01*
G04 #@! TO.C,Q7*
X147780000Y-94490000D02*
X147780000Y-95950000D01*
X144620000Y-94490000D02*
X144620000Y-96650000D01*
X144620000Y-94490000D02*
X145550000Y-94490000D01*
X147780000Y-94490000D02*
X146850000Y-94490000D01*
G04 #@! TO.C,Q8*
X146160000Y-92730000D02*
X146160000Y-91800000D01*
X146160000Y-89570000D02*
X146160000Y-90500000D01*
X146160000Y-89570000D02*
X144000000Y-89570000D01*
X146160000Y-92730000D02*
X144700000Y-92730000D01*
G04 #@! TO.C,R1*
X169710000Y-65538748D02*
X169710000Y-66061252D01*
X168290000Y-65538748D02*
X168290000Y-66061252D01*
G04 #@! TO.C,R2*
X170890000Y-65538748D02*
X170890000Y-66061252D01*
X172310000Y-65538748D02*
X172310000Y-66061252D01*
G04 #@! TO.C,R3*
X121111252Y-121340000D02*
X120588748Y-121340000D01*
X121111252Y-122760000D02*
X120588748Y-122760000D01*
G04 #@! TO.C,R4*
X71631252Y-120330000D02*
X71108748Y-120330000D01*
X71631252Y-118910000D02*
X71108748Y-118910000D01*
G04 #@! TO.C,R5*
X71631252Y-116410000D02*
X71108748Y-116410000D01*
X71631252Y-117830000D02*
X71108748Y-117830000D01*
G04 #@! TO.C,R6*
X182138748Y-68340000D02*
X182661252Y-68340000D01*
X182138748Y-69760000D02*
X182661252Y-69760000D01*
G04 #@! TO.C,R7*
X182686252Y-70790000D02*
X182163748Y-70790000D01*
X182686252Y-72210000D02*
X182163748Y-72210000D01*
G04 #@! TO.C,R8*
X113561252Y-115430000D02*
X113038748Y-115430000D01*
X113561252Y-114010000D02*
X113038748Y-114010000D01*
G04 #@! TO.C,R9*
X184490000Y-66061252D02*
X184490000Y-65538748D01*
X185910000Y-66061252D02*
X185910000Y-65538748D01*
G04 #@! TO.C,R10*
X128178000Y-135635252D02*
X128178000Y-135112748D01*
X126758000Y-135635252D02*
X126758000Y-135112748D01*
G04 #@! TO.C,R11*
X150088748Y-99710000D02*
X150611252Y-99710000D01*
X150088748Y-98290000D02*
X150611252Y-98290000D01*
G04 #@! TO.C,R12*
X76840000Y-86561252D02*
X76840000Y-86038748D01*
X78260000Y-86561252D02*
X78260000Y-86038748D01*
G04 #@! TO.C,R13*
X66710000Y-86561252D02*
X66710000Y-86038748D01*
X65290000Y-86561252D02*
X65290000Y-86038748D01*
G04 #@! TO.C,R14*
X82511252Y-84890000D02*
X81988748Y-84890000D01*
X82511252Y-86310000D02*
X81988748Y-86310000D01*
G04 #@! TO.C,R15*
X61038748Y-84890000D02*
X61561252Y-84890000D01*
X61038748Y-86310000D02*
X61561252Y-86310000D01*
G04 #@! TO.C,R16*
X155161252Y-98290000D02*
X154638748Y-98290000D01*
X155161252Y-99710000D02*
X154638748Y-99710000D01*
G04 #@! TO.C,R17*
X146111252Y-99710000D02*
X145588748Y-99710000D01*
X146111252Y-98290000D02*
X145588748Y-98290000D01*
G04 #@! TO.C,R18*
X167974748Y-114834000D02*
X168497252Y-114834000D01*
X167974748Y-116254000D02*
X168497252Y-116254000D01*
G04 #@! TO.C,R19*
X163638748Y-116254000D02*
X164161252Y-116254000D01*
X163638748Y-114834000D02*
X164161252Y-114834000D01*
G04 #@! TO.C,R20*
X140788748Y-89710000D02*
X141311252Y-89710000D01*
X140788748Y-88290000D02*
X141311252Y-88290000D01*
G04 #@! TO.C,R21*
X151560000Y-95238748D02*
X151560000Y-95761252D01*
X150140000Y-95238748D02*
X150140000Y-95761252D01*
G04 #@! TO.C,R22*
X103063252Y-95136000D02*
X102540748Y-95136000D01*
X103063252Y-93716000D02*
X102540748Y-93716000D01*
G04 #@! TO.C,R23*
X167624748Y-105590000D02*
X168147252Y-105590000D01*
X167624748Y-107010000D02*
X168147252Y-107010000D01*
G04 #@! TO.C,R24*
X162011252Y-97060000D02*
X161488748Y-97060000D01*
X162011252Y-95640000D02*
X161488748Y-95640000D01*
G04 #@! TO.C,R25*
X159188748Y-99710000D02*
X159711252Y-99710000D01*
X159188748Y-98290000D02*
X159711252Y-98290000D01*
G04 #@! TO.C,R26*
X161488748Y-93090000D02*
X162011252Y-93090000D01*
X161488748Y-94510000D02*
X162011252Y-94510000D01*
G04 #@! TO.C,R27*
X163575252Y-105590000D02*
X163052748Y-105590000D01*
X163575252Y-107010000D02*
X163052748Y-107010000D01*
G04 #@! TO.C,R28*
X163738748Y-99710000D02*
X164261252Y-99710000D01*
X163738748Y-98290000D02*
X164261252Y-98290000D01*
G04 #@! TO.C,R29*
X159111252Y-107010000D02*
X158588748Y-107010000D01*
X159111252Y-105590000D02*
X158588748Y-105590000D01*
G04 #@! TO.C,R30*
X108143252Y-93716000D02*
X107620748Y-93716000D01*
X108143252Y-95136000D02*
X107620748Y-95136000D01*
G04 #@! TO.C,SW2*
X103950000Y-91200000D02*
X103750000Y-91200000D01*
X106750000Y-87060000D02*
X106550000Y-86850000D01*
X105450000Y-87060000D02*
X105650000Y-86850000D01*
X106750000Y-88350000D02*
X106750000Y-87060000D01*
X106550000Y-86850000D02*
X105650000Y-86850000D01*
X105450000Y-87060000D02*
X105450000Y-88350000D01*
X108200000Y-88350000D02*
X102500000Y-88350000D01*
X106950000Y-91200000D02*
X105250000Y-91200000D01*
X108800000Y-90150000D02*
X108800000Y-89360000D01*
X101900000Y-89360000D02*
X101900000Y-90150000D01*
G04 #@! TO.C,U2*
X174094000Y-101856000D02*
X175354000Y-101856000D01*
X180914000Y-101856000D02*
X179654000Y-101856000D01*
X174094000Y-98096000D02*
X174094000Y-101856000D01*
X180914000Y-95846000D02*
X180914000Y-101856000D01*
D10*
G04 #@! TO.C,U4*
X154750000Y-94050000D02*
X157050000Y-94050000D01*
X157050000Y-94050000D02*
X157050000Y-97050000D01*
X157050000Y-97050000D02*
X154750000Y-97050000D01*
X154750000Y-97050000D02*
X154750000Y-94050000D01*
X153000000Y-94050000D02*
X154400000Y-94050000D01*
D11*
G04 #@! TO.C,Y1*
X77410000Y-71650000D02*
X77410000Y-77400000D01*
X77410000Y-77400000D02*
X81010000Y-77400000D01*
X81010000Y-77400000D02*
X81010000Y-71650000D01*
G04 #@! TO.C,U6*
D12*
X103458095Y-95522380D02*
X103458095Y-96331904D01*
X103505714Y-96427142D01*
X103553333Y-96474761D01*
X103648571Y-96522380D01*
X103839047Y-96522380D01*
X103934285Y-96474761D01*
X103981904Y-96427142D01*
X104029523Y-96331904D01*
X104029523Y-95522380D01*
X104934285Y-95522380D02*
X104743809Y-95522380D01*
X104648571Y-95570000D01*
X104600952Y-95617619D01*
X104505714Y-95760476D01*
X104458095Y-95950952D01*
X104458095Y-96331904D01*
X104505714Y-96427142D01*
X104553333Y-96474761D01*
X104648571Y-96522380D01*
X104839047Y-96522380D01*
X104934285Y-96474761D01*
X104981904Y-96427142D01*
X105029523Y-96331904D01*
X105029523Y-96093809D01*
X104981904Y-95998571D01*
X104934285Y-95950952D01*
X104839047Y-95903333D01*
X104648571Y-95903333D01*
X104553333Y-95950952D01*
X104505714Y-95998571D01*
X104458095Y-96093809D01*
G04 #@! TO.C,C23*
X84657142Y-77142857D02*
X84704761Y-77190476D01*
X84752380Y-77333333D01*
X84752380Y-77428571D01*
X84704761Y-77571428D01*
X84609523Y-77666666D01*
X84514285Y-77714285D01*
X84323809Y-77761904D01*
X84180952Y-77761904D01*
X83990476Y-77714285D01*
X83895238Y-77666666D01*
X83800000Y-77571428D01*
X83752380Y-77428571D01*
X83752380Y-77333333D01*
X83800000Y-77190476D01*
X83847619Y-77142857D01*
X83847619Y-76761904D02*
X83800000Y-76714285D01*
X83752380Y-76619047D01*
X83752380Y-76380952D01*
X83800000Y-76285714D01*
X83847619Y-76238095D01*
X83942857Y-76190476D01*
X84038095Y-76190476D01*
X84180952Y-76238095D01*
X84752380Y-76809523D01*
X84752380Y-76190476D01*
X83752380Y-75857142D02*
X83752380Y-75238095D01*
X84133333Y-75571428D01*
X84133333Y-75428571D01*
X84180952Y-75333333D01*
X84228571Y-75285714D01*
X84323809Y-75238095D01*
X84561904Y-75238095D01*
X84657142Y-75285714D01*
X84704761Y-75333333D01*
X84752380Y-75428571D01*
X84752380Y-75714285D01*
X84704761Y-75809523D01*
X84657142Y-75857142D01*
G04 #@! TO.C,U1*
D15*
X107154380Y-108404523D02*
X107154380Y-109432619D01*
X107214857Y-109553571D01*
X107275333Y-109614047D01*
X107396285Y-109674523D01*
X107638190Y-109674523D01*
X107759142Y-109614047D01*
X107819619Y-109553571D01*
X107880095Y-109432619D01*
X107880095Y-108404523D01*
X109150095Y-109674523D02*
X108424380Y-109674523D01*
X108787238Y-109674523D02*
X108787238Y-108404523D01*
X108666285Y-108585952D01*
X108545333Y-108706904D01*
X108424380Y-108767380D01*
G04 #@! TO.C,U3*
X70732380Y-82504523D02*
X70732380Y-83532619D01*
X70792857Y-83653571D01*
X70853333Y-83714047D01*
X70974285Y-83774523D01*
X71216190Y-83774523D01*
X71337142Y-83714047D01*
X71397619Y-83653571D01*
X71458095Y-83532619D01*
X71458095Y-82504523D01*
X71941904Y-82504523D02*
X72728095Y-82504523D01*
X72304761Y-82988333D01*
X72486190Y-82988333D01*
X72607142Y-83048809D01*
X72667619Y-83109285D01*
X72728095Y-83230238D01*
X72728095Y-83532619D01*
X72667619Y-83653571D01*
X72607142Y-83714047D01*
X72486190Y-83774523D01*
X72123333Y-83774523D01*
X72002380Y-83714047D01*
X71941904Y-83653571D01*
G04 #@! TO.C,U5*
X164832380Y-107804523D02*
X164832380Y-108832619D01*
X164892857Y-108953571D01*
X164953333Y-109014047D01*
X165074285Y-109074523D01*
X165316190Y-109074523D01*
X165437142Y-109014047D01*
X165497619Y-108953571D01*
X165558095Y-108832619D01*
X165558095Y-107804523D01*
X166767619Y-107804523D02*
X166162857Y-107804523D01*
X166102380Y-108409285D01*
X166162857Y-108348809D01*
X166283809Y-108288333D01*
X166586190Y-108288333D01*
X166707142Y-108348809D01*
X166767619Y-108409285D01*
X166828095Y-108530238D01*
X166828095Y-108832619D01*
X166767619Y-108953571D01*
X166707142Y-109014047D01*
X166586190Y-109074523D01*
X166283809Y-109074523D01*
X166162857Y-109014047D01*
X166102380Y-108953571D01*
G04 #@! TO.C,J4*
X117497076Y-123086047D02*
X117497076Y-123947833D01*
X117439623Y-124120190D01*
X117324719Y-124235095D01*
X117152361Y-124292547D01*
X117037457Y-124292547D01*
X118588671Y-123488214D02*
X118588671Y-124292547D01*
X118301409Y-123028595D02*
X118014147Y-123890380D01*
X118761028Y-123890380D01*
G04 #@! TO.C,J6*
X80839665Y-120034523D02*
X80839665Y-120941666D01*
X80779189Y-121123095D01*
X80658237Y-121244047D01*
X80476808Y-121304523D01*
X80355856Y-121304523D01*
X81988713Y-120034523D02*
X81746808Y-120034523D01*
X81625856Y-120095000D01*
X81565379Y-120155476D01*
X81444427Y-120336904D01*
X81383951Y-120578809D01*
X81383951Y-121062619D01*
X81444427Y-121183571D01*
X81504903Y-121244047D01*
X81625856Y-121304523D01*
X81867760Y-121304523D01*
X81988713Y-121244047D01*
X82049189Y-121183571D01*
X82109665Y-121062619D01*
X82109665Y-120760238D01*
X82049189Y-120639285D01*
X81988713Y-120578809D01*
X81867760Y-120518333D01*
X81625856Y-120518333D01*
X81504903Y-120578809D01*
X81444427Y-120639285D01*
X81383951Y-120760238D01*
G04 #@! TO.C,J1*
D12*
X145252380Y-84783333D02*
X145966666Y-84783333D01*
X146109523Y-84830952D01*
X146204761Y-84926190D01*
X146252380Y-85069047D01*
X146252380Y-85164285D01*
X146252380Y-83783333D02*
X146252380Y-84354761D01*
X146252380Y-84069047D02*
X145252380Y-84069047D01*
X145395238Y-84164285D01*
X145490476Y-84259523D01*
X145538095Y-84354761D01*
G04 #@! TO.C,C1*
X171957142Y-73266666D02*
X172004761Y-73314285D01*
X172052380Y-73457142D01*
X172052380Y-73552380D01*
X172004761Y-73695238D01*
X171909523Y-73790476D01*
X171814285Y-73838095D01*
X171623809Y-73885714D01*
X171480952Y-73885714D01*
X171290476Y-73838095D01*
X171195238Y-73790476D01*
X171100000Y-73695238D01*
X171052380Y-73552380D01*
X171052380Y-73457142D01*
X171100000Y-73314285D01*
X171147619Y-73266666D01*
X172052380Y-72314285D02*
X172052380Y-72885714D01*
X172052380Y-72600000D02*
X171052380Y-72600000D01*
X171195238Y-72695238D01*
X171290476Y-72790476D01*
X171338095Y-72885714D01*
G04 #@! TO.C,C2*
X174457142Y-63016666D02*
X174504761Y-63064285D01*
X174552380Y-63207142D01*
X174552380Y-63302380D01*
X174504761Y-63445238D01*
X174409523Y-63540476D01*
X174314285Y-63588095D01*
X174123809Y-63635714D01*
X173980952Y-63635714D01*
X173790476Y-63588095D01*
X173695238Y-63540476D01*
X173600000Y-63445238D01*
X173552380Y-63302380D01*
X173552380Y-63207142D01*
X173600000Y-63064285D01*
X173647619Y-63016666D01*
X173647619Y-62635714D02*
X173600000Y-62588095D01*
X173552380Y-62492857D01*
X173552380Y-62254761D01*
X173600000Y-62159523D01*
X173647619Y-62111904D01*
X173742857Y-62064285D01*
X173838095Y-62064285D01*
X173980952Y-62111904D01*
X174552380Y-62683333D01*
X174552380Y-62064285D01*
G04 #@! TO.C,C3*
X107409142Y-116706666D02*
X107456761Y-116754285D01*
X107504380Y-116897142D01*
X107504380Y-116992380D01*
X107456761Y-117135238D01*
X107361523Y-117230476D01*
X107266285Y-117278095D01*
X107075809Y-117325714D01*
X106932952Y-117325714D01*
X106742476Y-117278095D01*
X106647238Y-117230476D01*
X106552000Y-117135238D01*
X106504380Y-116992380D01*
X106504380Y-116897142D01*
X106552000Y-116754285D01*
X106599619Y-116706666D01*
X106504380Y-116373333D02*
X106504380Y-115754285D01*
X106885333Y-116087619D01*
X106885333Y-115944761D01*
X106932952Y-115849523D01*
X106980571Y-115801904D01*
X107075809Y-115754285D01*
X107313904Y-115754285D01*
X107409142Y-115801904D01*
X107456761Y-115849523D01*
X107504380Y-115944761D01*
X107504380Y-116230476D01*
X107456761Y-116325714D01*
X107409142Y-116373333D01*
G04 #@! TO.C,C4*
X179357142Y-73416666D02*
X179404761Y-73464285D01*
X179452380Y-73607142D01*
X179452380Y-73702380D01*
X179404761Y-73845238D01*
X179309523Y-73940476D01*
X179214285Y-73988095D01*
X179023809Y-74035714D01*
X178880952Y-74035714D01*
X178690476Y-73988095D01*
X178595238Y-73940476D01*
X178500000Y-73845238D01*
X178452380Y-73702380D01*
X178452380Y-73607142D01*
X178500000Y-73464285D01*
X178547619Y-73416666D01*
X178785714Y-72559523D02*
X179452380Y-72559523D01*
X178404761Y-72797619D02*
X179119047Y-73035714D01*
X179119047Y-72416666D01*
G04 #@! TO.C,C5*
X122033333Y-119407142D02*
X121985714Y-119454761D01*
X121842857Y-119502380D01*
X121747619Y-119502380D01*
X121604761Y-119454761D01*
X121509523Y-119359523D01*
X121461904Y-119264285D01*
X121414285Y-119073809D01*
X121414285Y-118930952D01*
X121461904Y-118740476D01*
X121509523Y-118645238D01*
X121604761Y-118550000D01*
X121747619Y-118502380D01*
X121842857Y-118502380D01*
X121985714Y-118550000D01*
X122033333Y-118597619D01*
X122938095Y-118502380D02*
X122461904Y-118502380D01*
X122414285Y-118978571D01*
X122461904Y-118930952D01*
X122557142Y-118883333D01*
X122795238Y-118883333D01*
X122890476Y-118930952D01*
X122938095Y-118978571D01*
X122985714Y-119073809D01*
X122985714Y-119311904D01*
X122938095Y-119407142D01*
X122890476Y-119454761D01*
X122795238Y-119502380D01*
X122557142Y-119502380D01*
X122461904Y-119454761D01*
X122414285Y-119407142D01*
G04 #@! TO.C,C6*
X169147142Y-98176666D02*
X169194761Y-98224285D01*
X169242380Y-98367142D01*
X169242380Y-98462380D01*
X169194761Y-98605238D01*
X169099523Y-98700476D01*
X169004285Y-98748095D01*
X168813809Y-98795714D01*
X168670952Y-98795714D01*
X168480476Y-98748095D01*
X168385238Y-98700476D01*
X168290000Y-98605238D01*
X168242380Y-98462380D01*
X168242380Y-98367142D01*
X168290000Y-98224285D01*
X168337619Y-98176666D01*
X168242380Y-97319523D02*
X168242380Y-97510000D01*
X168290000Y-97605238D01*
X168337619Y-97652857D01*
X168480476Y-97748095D01*
X168670952Y-97795714D01*
X169051904Y-97795714D01*
X169147142Y-97748095D01*
X169194761Y-97700476D01*
X169242380Y-97605238D01*
X169242380Y-97414761D01*
X169194761Y-97319523D01*
X169147142Y-97271904D01*
X169051904Y-97224285D01*
X168813809Y-97224285D01*
X168718571Y-97271904D01*
X168670952Y-97319523D01*
X168623333Y-97414761D01*
X168623333Y-97605238D01*
X168670952Y-97700476D01*
X168718571Y-97748095D01*
X168813809Y-97795714D01*
G04 #@! TO.C,C7*
X125783333Y-120737142D02*
X125735714Y-120784761D01*
X125592857Y-120832380D01*
X125497619Y-120832380D01*
X125354761Y-120784761D01*
X125259523Y-120689523D01*
X125211904Y-120594285D01*
X125164285Y-120403809D01*
X125164285Y-120260952D01*
X125211904Y-120070476D01*
X125259523Y-119975238D01*
X125354761Y-119880000D01*
X125497619Y-119832380D01*
X125592857Y-119832380D01*
X125735714Y-119880000D01*
X125783333Y-119927619D01*
X126116666Y-119832380D02*
X126783333Y-119832380D01*
X126354761Y-120832380D01*
G04 #@! TO.C,C8*
X186053142Y-102398666D02*
X186100761Y-102446285D01*
X186148380Y-102589142D01*
X186148380Y-102684380D01*
X186100761Y-102827238D01*
X186005523Y-102922476D01*
X185910285Y-102970095D01*
X185719809Y-103017714D01*
X185576952Y-103017714D01*
X185386476Y-102970095D01*
X185291238Y-102922476D01*
X185196000Y-102827238D01*
X185148380Y-102684380D01*
X185148380Y-102589142D01*
X185196000Y-102446285D01*
X185243619Y-102398666D01*
X185576952Y-101827238D02*
X185529333Y-101922476D01*
X185481714Y-101970095D01*
X185386476Y-102017714D01*
X185338857Y-102017714D01*
X185243619Y-101970095D01*
X185196000Y-101922476D01*
X185148380Y-101827238D01*
X185148380Y-101636761D01*
X185196000Y-101541523D01*
X185243619Y-101493904D01*
X185338857Y-101446285D01*
X185386476Y-101446285D01*
X185481714Y-101493904D01*
X185529333Y-101541523D01*
X185576952Y-101636761D01*
X185576952Y-101827238D01*
X185624571Y-101922476D01*
X185672190Y-101970095D01*
X185767428Y-102017714D01*
X185957904Y-102017714D01*
X186053142Y-101970095D01*
X186100761Y-101922476D01*
X186148380Y-101827238D01*
X186148380Y-101636761D01*
X186100761Y-101541523D01*
X186053142Y-101493904D01*
X185957904Y-101446285D01*
X185767428Y-101446285D01*
X185672190Y-101493904D01*
X185624571Y-101541523D01*
X185576952Y-101636761D01*
G04 #@! TO.C,C9*
X184973142Y-97572666D02*
X185020761Y-97620285D01*
X185068380Y-97763142D01*
X185068380Y-97858380D01*
X185020761Y-98001238D01*
X184925523Y-98096476D01*
X184830285Y-98144095D01*
X184639809Y-98191714D01*
X184496952Y-98191714D01*
X184306476Y-98144095D01*
X184211238Y-98096476D01*
X184116000Y-98001238D01*
X184068380Y-97858380D01*
X184068380Y-97763142D01*
X184116000Y-97620285D01*
X184163619Y-97572666D01*
X185068380Y-97096476D02*
X185068380Y-96906000D01*
X185020761Y-96810761D01*
X184973142Y-96763142D01*
X184830285Y-96667904D01*
X184639809Y-96620285D01*
X184258857Y-96620285D01*
X184163619Y-96667904D01*
X184116000Y-96715523D01*
X184068380Y-96810761D01*
X184068380Y-97001238D01*
X184116000Y-97096476D01*
X184163619Y-97144095D01*
X184258857Y-97191714D01*
X184496952Y-97191714D01*
X184592190Y-97144095D01*
X184639809Y-97096476D01*
X184687428Y-97001238D01*
X184687428Y-96810761D01*
X184639809Y-96715523D01*
X184592190Y-96667904D01*
X184496952Y-96620285D01*
G04 #@! TO.C,C10*
X158307142Y-117889142D02*
X158259523Y-117936761D01*
X158116666Y-117984380D01*
X158021428Y-117984380D01*
X157878571Y-117936761D01*
X157783333Y-117841523D01*
X157735714Y-117746285D01*
X157688095Y-117555809D01*
X157688095Y-117412952D01*
X157735714Y-117222476D01*
X157783333Y-117127238D01*
X157878571Y-117032000D01*
X158021428Y-116984380D01*
X158116666Y-116984380D01*
X158259523Y-117032000D01*
X158307142Y-117079619D01*
X159259523Y-117984380D02*
X158688095Y-117984380D01*
X158973809Y-117984380D02*
X158973809Y-116984380D01*
X158878571Y-117127238D01*
X158783333Y-117222476D01*
X158688095Y-117270095D01*
X159878571Y-116984380D02*
X159973809Y-116984380D01*
X160069047Y-117032000D01*
X160116666Y-117079619D01*
X160164285Y-117174857D01*
X160211904Y-117365333D01*
X160211904Y-117603428D01*
X160164285Y-117793904D01*
X160116666Y-117889142D01*
X160069047Y-117936761D01*
X159973809Y-117984380D01*
X159878571Y-117984380D01*
X159783333Y-117936761D01*
X159735714Y-117889142D01*
X159688095Y-117793904D01*
X159640476Y-117603428D01*
X159640476Y-117365333D01*
X159688095Y-117174857D01*
X159735714Y-117079619D01*
X159783333Y-117032000D01*
X159878571Y-116984380D01*
G04 #@! TO.C,C11*
X64057142Y-83757142D02*
X64009523Y-83804761D01*
X63866666Y-83852380D01*
X63771428Y-83852380D01*
X63628571Y-83804761D01*
X63533333Y-83709523D01*
X63485714Y-83614285D01*
X63438095Y-83423809D01*
X63438095Y-83280952D01*
X63485714Y-83090476D01*
X63533333Y-82995238D01*
X63628571Y-82900000D01*
X63771428Y-82852380D01*
X63866666Y-82852380D01*
X64009523Y-82900000D01*
X64057142Y-82947619D01*
X65009523Y-83852380D02*
X64438095Y-83852380D01*
X64723809Y-83852380D02*
X64723809Y-82852380D01*
X64628571Y-82995238D01*
X64533333Y-83090476D01*
X64438095Y-83138095D01*
X65961904Y-83852380D02*
X65390476Y-83852380D01*
X65676190Y-83852380D02*
X65676190Y-82852380D01*
X65580952Y-82995238D01*
X65485714Y-83090476D01*
X65390476Y-83138095D01*
G04 #@! TO.C,C12*
X78057142Y-83757142D02*
X78009523Y-83804761D01*
X77866666Y-83852380D01*
X77771428Y-83852380D01*
X77628571Y-83804761D01*
X77533333Y-83709523D01*
X77485714Y-83614285D01*
X77438095Y-83423809D01*
X77438095Y-83280952D01*
X77485714Y-83090476D01*
X77533333Y-82995238D01*
X77628571Y-82900000D01*
X77771428Y-82852380D01*
X77866666Y-82852380D01*
X78009523Y-82900000D01*
X78057142Y-82947619D01*
X79009523Y-83852380D02*
X78438095Y-83852380D01*
X78723809Y-83852380D02*
X78723809Y-82852380D01*
X78628571Y-82995238D01*
X78533333Y-83090476D01*
X78438095Y-83138095D01*
X79390476Y-82947619D02*
X79438095Y-82900000D01*
X79533333Y-82852380D01*
X79771428Y-82852380D01*
X79866666Y-82900000D01*
X79914285Y-82947619D01*
X79961904Y-83042857D01*
X79961904Y-83138095D01*
X79914285Y-83280952D01*
X79342857Y-83852380D01*
X79961904Y-83852380D01*
G04 #@! TO.C,C13*
X135807142Y-92057142D02*
X135759523Y-92104761D01*
X135616666Y-92152380D01*
X135521428Y-92152380D01*
X135378571Y-92104761D01*
X135283333Y-92009523D01*
X135235714Y-91914285D01*
X135188095Y-91723809D01*
X135188095Y-91580952D01*
X135235714Y-91390476D01*
X135283333Y-91295238D01*
X135378571Y-91200000D01*
X135521428Y-91152380D01*
X135616666Y-91152380D01*
X135759523Y-91200000D01*
X135807142Y-91247619D01*
X136759523Y-92152380D02*
X136188095Y-92152380D01*
X136473809Y-92152380D02*
X136473809Y-91152380D01*
X136378571Y-91295238D01*
X136283333Y-91390476D01*
X136188095Y-91438095D01*
X137092857Y-91152380D02*
X137711904Y-91152380D01*
X137378571Y-91533333D01*
X137521428Y-91533333D01*
X137616666Y-91580952D01*
X137664285Y-91628571D01*
X137711904Y-91723809D01*
X137711904Y-91961904D01*
X137664285Y-92057142D01*
X137616666Y-92104761D01*
X137521428Y-92152380D01*
X137235714Y-92152380D01*
X137140476Y-92104761D01*
X137092857Y-92057142D01*
G04 #@! TO.C,C14*
X60657142Y-81342857D02*
X60704761Y-81390476D01*
X60752380Y-81533333D01*
X60752380Y-81628571D01*
X60704761Y-81771428D01*
X60609523Y-81866666D01*
X60514285Y-81914285D01*
X60323809Y-81961904D01*
X60180952Y-81961904D01*
X59990476Y-81914285D01*
X59895238Y-81866666D01*
X59800000Y-81771428D01*
X59752380Y-81628571D01*
X59752380Y-81533333D01*
X59800000Y-81390476D01*
X59847619Y-81342857D01*
X60752380Y-80390476D02*
X60752380Y-80961904D01*
X60752380Y-80676190D02*
X59752380Y-80676190D01*
X59895238Y-80771428D01*
X59990476Y-80866666D01*
X60038095Y-80961904D01*
X60085714Y-79533333D02*
X60752380Y-79533333D01*
X59704761Y-79771428D02*
X60419047Y-80009523D01*
X60419047Y-79390476D01*
G04 #@! TO.C,C15*
X83707142Y-81392857D02*
X83754761Y-81440476D01*
X83802380Y-81583333D01*
X83802380Y-81678571D01*
X83754761Y-81821428D01*
X83659523Y-81916666D01*
X83564285Y-81964285D01*
X83373809Y-82011904D01*
X83230952Y-82011904D01*
X83040476Y-81964285D01*
X82945238Y-81916666D01*
X82850000Y-81821428D01*
X82802380Y-81678571D01*
X82802380Y-81583333D01*
X82850000Y-81440476D01*
X82897619Y-81392857D01*
X83802380Y-80440476D02*
X83802380Y-81011904D01*
X83802380Y-80726190D02*
X82802380Y-80726190D01*
X82945238Y-80821428D01*
X83040476Y-80916666D01*
X83088095Y-81011904D01*
X82802380Y-79535714D02*
X82802380Y-80011904D01*
X83278571Y-80059523D01*
X83230952Y-80011904D01*
X83183333Y-79916666D01*
X83183333Y-79678571D01*
X83230952Y-79583333D01*
X83278571Y-79535714D01*
X83373809Y-79488095D01*
X83611904Y-79488095D01*
X83707142Y-79535714D01*
X83754761Y-79583333D01*
X83802380Y-79678571D01*
X83802380Y-79916666D01*
X83754761Y-80011904D01*
X83707142Y-80059523D01*
G04 #@! TO.C,C16*
X75757142Y-86942857D02*
X75804761Y-86990476D01*
X75852380Y-87133333D01*
X75852380Y-87228571D01*
X75804761Y-87371428D01*
X75709523Y-87466666D01*
X75614285Y-87514285D01*
X75423809Y-87561904D01*
X75280952Y-87561904D01*
X75090476Y-87514285D01*
X74995238Y-87466666D01*
X74900000Y-87371428D01*
X74852380Y-87228571D01*
X74852380Y-87133333D01*
X74900000Y-86990476D01*
X74947619Y-86942857D01*
X75852380Y-85990476D02*
X75852380Y-86561904D01*
X75852380Y-86276190D02*
X74852380Y-86276190D01*
X74995238Y-86371428D01*
X75090476Y-86466666D01*
X75138095Y-86561904D01*
X74852380Y-85133333D02*
X74852380Y-85323809D01*
X74900000Y-85419047D01*
X74947619Y-85466666D01*
X75090476Y-85561904D01*
X75280952Y-85609523D01*
X75661904Y-85609523D01*
X75757142Y-85561904D01*
X75804761Y-85514285D01*
X75852380Y-85419047D01*
X75852380Y-85228571D01*
X75804761Y-85133333D01*
X75757142Y-85085714D01*
X75661904Y-85038095D01*
X75423809Y-85038095D01*
X75328571Y-85085714D01*
X75280952Y-85133333D01*
X75233333Y-85228571D01*
X75233333Y-85419047D01*
X75280952Y-85514285D01*
X75328571Y-85561904D01*
X75423809Y-85609523D01*
G04 #@! TO.C,C17*
X68607142Y-86942857D02*
X68654761Y-86990476D01*
X68702380Y-87133333D01*
X68702380Y-87228571D01*
X68654761Y-87371428D01*
X68559523Y-87466666D01*
X68464285Y-87514285D01*
X68273809Y-87561904D01*
X68130952Y-87561904D01*
X67940476Y-87514285D01*
X67845238Y-87466666D01*
X67750000Y-87371428D01*
X67702380Y-87228571D01*
X67702380Y-87133333D01*
X67750000Y-86990476D01*
X67797619Y-86942857D01*
X68702380Y-85990476D02*
X68702380Y-86561904D01*
X68702380Y-86276190D02*
X67702380Y-86276190D01*
X67845238Y-86371428D01*
X67940476Y-86466666D01*
X67988095Y-86561904D01*
X67702380Y-85657142D02*
X67702380Y-84990476D01*
X68702380Y-85419047D01*
G04 #@! TO.C,C18*
X98757142Y-98857142D02*
X98709523Y-98904761D01*
X98566666Y-98952380D01*
X98471428Y-98952380D01*
X98328571Y-98904761D01*
X98233333Y-98809523D01*
X98185714Y-98714285D01*
X98138095Y-98523809D01*
X98138095Y-98380952D01*
X98185714Y-98190476D01*
X98233333Y-98095238D01*
X98328571Y-98000000D01*
X98471428Y-97952380D01*
X98566666Y-97952380D01*
X98709523Y-98000000D01*
X98757142Y-98047619D01*
X99709523Y-98952380D02*
X99138095Y-98952380D01*
X99423809Y-98952380D02*
X99423809Y-97952380D01*
X99328571Y-98095238D01*
X99233333Y-98190476D01*
X99138095Y-98238095D01*
X100280952Y-98380952D02*
X100185714Y-98333333D01*
X100138095Y-98285714D01*
X100090476Y-98190476D01*
X100090476Y-98142857D01*
X100138095Y-98047619D01*
X100185714Y-98000000D01*
X100280952Y-97952380D01*
X100471428Y-97952380D01*
X100566666Y-98000000D01*
X100614285Y-98047619D01*
X100661904Y-98142857D01*
X100661904Y-98190476D01*
X100614285Y-98285714D01*
X100566666Y-98333333D01*
X100471428Y-98380952D01*
X100280952Y-98380952D01*
X100185714Y-98428571D01*
X100138095Y-98476190D01*
X100090476Y-98571428D01*
X100090476Y-98761904D01*
X100138095Y-98857142D01*
X100185714Y-98904761D01*
X100280952Y-98952380D01*
X100471428Y-98952380D01*
X100566666Y-98904761D01*
X100614285Y-98857142D01*
X100661904Y-98761904D01*
X100661904Y-98571428D01*
X100614285Y-98476190D01*
X100566666Y-98428571D01*
X100471428Y-98380952D01*
G04 #@! TO.C,C19*
X66927142Y-68672857D02*
X66974761Y-68720476D01*
X67022380Y-68863333D01*
X67022380Y-68958571D01*
X66974761Y-69101428D01*
X66879523Y-69196666D01*
X66784285Y-69244285D01*
X66593809Y-69291904D01*
X66450952Y-69291904D01*
X66260476Y-69244285D01*
X66165238Y-69196666D01*
X66070000Y-69101428D01*
X66022380Y-68958571D01*
X66022380Y-68863333D01*
X66070000Y-68720476D01*
X66117619Y-68672857D01*
X67022380Y-67720476D02*
X67022380Y-68291904D01*
X67022380Y-68006190D02*
X66022380Y-68006190D01*
X66165238Y-68101428D01*
X66260476Y-68196666D01*
X66308095Y-68291904D01*
X67022380Y-67244285D02*
X67022380Y-67053809D01*
X66974761Y-66958571D01*
X66927142Y-66910952D01*
X66784285Y-66815714D01*
X66593809Y-66768095D01*
X66212857Y-66768095D01*
X66117619Y-66815714D01*
X66070000Y-66863333D01*
X66022380Y-66958571D01*
X66022380Y-67149047D01*
X66070000Y-67244285D01*
X66117619Y-67291904D01*
X66212857Y-67339523D01*
X66450952Y-67339523D01*
X66546190Y-67291904D01*
X66593809Y-67244285D01*
X66641428Y-67149047D01*
X66641428Y-66958571D01*
X66593809Y-66863333D01*
X66546190Y-66815714D01*
X66450952Y-66768095D01*
G04 #@! TO.C,C20*
X170527142Y-112152857D02*
X170574761Y-112200476D01*
X170622380Y-112343333D01*
X170622380Y-112438571D01*
X170574761Y-112581428D01*
X170479523Y-112676666D01*
X170384285Y-112724285D01*
X170193809Y-112771904D01*
X170050952Y-112771904D01*
X169860476Y-112724285D01*
X169765238Y-112676666D01*
X169670000Y-112581428D01*
X169622380Y-112438571D01*
X169622380Y-112343333D01*
X169670000Y-112200476D01*
X169717619Y-112152857D01*
X169717619Y-111771904D02*
X169670000Y-111724285D01*
X169622380Y-111629047D01*
X169622380Y-111390952D01*
X169670000Y-111295714D01*
X169717619Y-111248095D01*
X169812857Y-111200476D01*
X169908095Y-111200476D01*
X170050952Y-111248095D01*
X170622380Y-111819523D01*
X170622380Y-111200476D01*
X169622380Y-110581428D02*
X169622380Y-110486190D01*
X169670000Y-110390952D01*
X169717619Y-110343333D01*
X169812857Y-110295714D01*
X170003333Y-110248095D01*
X170241428Y-110248095D01*
X170431904Y-110295714D01*
X170527142Y-110343333D01*
X170574761Y-110390952D01*
X170622380Y-110486190D01*
X170622380Y-110581428D01*
X170574761Y-110676666D01*
X170527142Y-110724285D01*
X170431904Y-110771904D01*
X170241428Y-110819523D01*
X170003333Y-110819523D01*
X169812857Y-110771904D01*
X169717619Y-110724285D01*
X169670000Y-110676666D01*
X169622380Y-110581428D01*
G04 #@! TO.C,C21*
X75277142Y-65812857D02*
X75324761Y-65860476D01*
X75372380Y-66003333D01*
X75372380Y-66098571D01*
X75324761Y-66241428D01*
X75229523Y-66336666D01*
X75134285Y-66384285D01*
X74943809Y-66431904D01*
X74800952Y-66431904D01*
X74610476Y-66384285D01*
X74515238Y-66336666D01*
X74420000Y-66241428D01*
X74372380Y-66098571D01*
X74372380Y-66003333D01*
X74420000Y-65860476D01*
X74467619Y-65812857D01*
X74467619Y-65431904D02*
X74420000Y-65384285D01*
X74372380Y-65289047D01*
X74372380Y-65050952D01*
X74420000Y-64955714D01*
X74467619Y-64908095D01*
X74562857Y-64860476D01*
X74658095Y-64860476D01*
X74800952Y-64908095D01*
X75372380Y-65479523D01*
X75372380Y-64860476D01*
X75372380Y-63908095D02*
X75372380Y-64479523D01*
X75372380Y-64193809D02*
X74372380Y-64193809D01*
X74515238Y-64289047D01*
X74610476Y-64384285D01*
X74658095Y-64479523D01*
G04 #@! TO.C,C22*
X84657142Y-72642857D02*
X84704761Y-72690476D01*
X84752380Y-72833333D01*
X84752380Y-72928571D01*
X84704761Y-73071428D01*
X84609523Y-73166666D01*
X84514285Y-73214285D01*
X84323809Y-73261904D01*
X84180952Y-73261904D01*
X83990476Y-73214285D01*
X83895238Y-73166666D01*
X83800000Y-73071428D01*
X83752380Y-72928571D01*
X83752380Y-72833333D01*
X83800000Y-72690476D01*
X83847619Y-72642857D01*
X83847619Y-72261904D02*
X83800000Y-72214285D01*
X83752380Y-72119047D01*
X83752380Y-71880952D01*
X83800000Y-71785714D01*
X83847619Y-71738095D01*
X83942857Y-71690476D01*
X84038095Y-71690476D01*
X84180952Y-71738095D01*
X84752380Y-72309523D01*
X84752380Y-71690476D01*
X83847619Y-71309523D02*
X83800000Y-71261904D01*
X83752380Y-71166666D01*
X83752380Y-70928571D01*
X83800000Y-70833333D01*
X83847619Y-70785714D01*
X83942857Y-70738095D01*
X84038095Y-70738095D01*
X84180952Y-70785714D01*
X84752380Y-71357142D01*
X84752380Y-70738095D01*
G04 #@! TO.C,C24*
X176807142Y-112692857D02*
X176854761Y-112740476D01*
X176902380Y-112883333D01*
X176902380Y-112978571D01*
X176854761Y-113121428D01*
X176759523Y-113216666D01*
X176664285Y-113264285D01*
X176473809Y-113311904D01*
X176330952Y-113311904D01*
X176140476Y-113264285D01*
X176045238Y-113216666D01*
X175950000Y-113121428D01*
X175902380Y-112978571D01*
X175902380Y-112883333D01*
X175950000Y-112740476D01*
X175997619Y-112692857D01*
X175997619Y-112311904D02*
X175950000Y-112264285D01*
X175902380Y-112169047D01*
X175902380Y-111930952D01*
X175950000Y-111835714D01*
X175997619Y-111788095D01*
X176092857Y-111740476D01*
X176188095Y-111740476D01*
X176330952Y-111788095D01*
X176902380Y-112359523D01*
X176902380Y-111740476D01*
X176235714Y-110883333D02*
X176902380Y-110883333D01*
X175854761Y-111121428D02*
X176569047Y-111359523D01*
X176569047Y-110740476D01*
G04 #@! TO.C,C25*
X114045142Y-97702857D02*
X114092761Y-97750476D01*
X114140380Y-97893333D01*
X114140380Y-97988571D01*
X114092761Y-98131428D01*
X113997523Y-98226666D01*
X113902285Y-98274285D01*
X113711809Y-98321904D01*
X113568952Y-98321904D01*
X113378476Y-98274285D01*
X113283238Y-98226666D01*
X113188000Y-98131428D01*
X113140380Y-97988571D01*
X113140380Y-97893333D01*
X113188000Y-97750476D01*
X113235619Y-97702857D01*
X113235619Y-97321904D02*
X113188000Y-97274285D01*
X113140380Y-97179047D01*
X113140380Y-96940952D01*
X113188000Y-96845714D01*
X113235619Y-96798095D01*
X113330857Y-96750476D01*
X113426095Y-96750476D01*
X113568952Y-96798095D01*
X114140380Y-97369523D01*
X114140380Y-96750476D01*
X113140380Y-95845714D02*
X113140380Y-96321904D01*
X113616571Y-96369523D01*
X113568952Y-96321904D01*
X113521333Y-96226666D01*
X113521333Y-95988571D01*
X113568952Y-95893333D01*
X113616571Y-95845714D01*
X113711809Y-95798095D01*
X113949904Y-95798095D01*
X114045142Y-95845714D01*
X114092761Y-95893333D01*
X114140380Y-95988571D01*
X114140380Y-96226666D01*
X114092761Y-96321904D01*
X114045142Y-96369523D01*
G04 #@! TO.C,C26*
X72077142Y-65772857D02*
X72124761Y-65820476D01*
X72172380Y-65963333D01*
X72172380Y-66058571D01*
X72124761Y-66201428D01*
X72029523Y-66296666D01*
X71934285Y-66344285D01*
X71743809Y-66391904D01*
X71600952Y-66391904D01*
X71410476Y-66344285D01*
X71315238Y-66296666D01*
X71220000Y-66201428D01*
X71172380Y-66058571D01*
X71172380Y-65963333D01*
X71220000Y-65820476D01*
X71267619Y-65772857D01*
X71267619Y-65391904D02*
X71220000Y-65344285D01*
X71172380Y-65249047D01*
X71172380Y-65010952D01*
X71220000Y-64915714D01*
X71267619Y-64868095D01*
X71362857Y-64820476D01*
X71458095Y-64820476D01*
X71600952Y-64868095D01*
X72172380Y-65439523D01*
X72172380Y-64820476D01*
X71172380Y-63963333D02*
X71172380Y-64153809D01*
X71220000Y-64249047D01*
X71267619Y-64296666D01*
X71410476Y-64391904D01*
X71600952Y-64439523D01*
X71981904Y-64439523D01*
X72077142Y-64391904D01*
X72124761Y-64344285D01*
X72172380Y-64249047D01*
X72172380Y-64058571D01*
X72124761Y-63963333D01*
X72077142Y-63915714D01*
X71981904Y-63868095D01*
X71743809Y-63868095D01*
X71648571Y-63915714D01*
X71600952Y-63963333D01*
X71553333Y-64058571D01*
X71553333Y-64249047D01*
X71600952Y-64344285D01*
X71648571Y-64391904D01*
X71743809Y-64439523D01*
G04 #@! TO.C,C27*
X153827142Y-91737142D02*
X153779523Y-91784761D01*
X153636666Y-91832380D01*
X153541428Y-91832380D01*
X153398571Y-91784761D01*
X153303333Y-91689523D01*
X153255714Y-91594285D01*
X153208095Y-91403809D01*
X153208095Y-91260952D01*
X153255714Y-91070476D01*
X153303333Y-90975238D01*
X153398571Y-90880000D01*
X153541428Y-90832380D01*
X153636666Y-90832380D01*
X153779523Y-90880000D01*
X153827142Y-90927619D01*
X154208095Y-90927619D02*
X154255714Y-90880000D01*
X154350952Y-90832380D01*
X154589047Y-90832380D01*
X154684285Y-90880000D01*
X154731904Y-90927619D01*
X154779523Y-91022857D01*
X154779523Y-91118095D01*
X154731904Y-91260952D01*
X154160476Y-91832380D01*
X154779523Y-91832380D01*
X155112857Y-90832380D02*
X155779523Y-90832380D01*
X155350952Y-91832380D01*
G04 #@! TO.C,D1*
X169452380Y-73938095D02*
X168452380Y-73938095D01*
X168452380Y-73700000D01*
X168500000Y-73557142D01*
X168595238Y-73461904D01*
X168690476Y-73414285D01*
X168880952Y-73366666D01*
X169023809Y-73366666D01*
X169214285Y-73414285D01*
X169309523Y-73461904D01*
X169404761Y-73557142D01*
X169452380Y-73700000D01*
X169452380Y-73938095D01*
X169452380Y-72414285D02*
X169452380Y-72985714D01*
X169452380Y-72700000D02*
X168452380Y-72700000D01*
X168595238Y-72795238D01*
X168690476Y-72890476D01*
X168738095Y-72985714D01*
G04 #@! TO.C,D2*
X63832380Y-127438095D02*
X62832380Y-127438095D01*
X62832380Y-127200000D01*
X62880000Y-127057142D01*
X62975238Y-126961904D01*
X63070476Y-126914285D01*
X63260952Y-126866666D01*
X63403809Y-126866666D01*
X63594285Y-126914285D01*
X63689523Y-126961904D01*
X63784761Y-127057142D01*
X63832380Y-127200000D01*
X63832380Y-127438095D01*
X62927619Y-126485714D02*
X62880000Y-126438095D01*
X62832380Y-126342857D01*
X62832380Y-126104761D01*
X62880000Y-126009523D01*
X62927619Y-125961904D01*
X63022857Y-125914285D01*
X63118095Y-125914285D01*
X63260952Y-125961904D01*
X63832380Y-126533333D01*
X63832380Y-125914285D01*
G04 #@! TO.C,D3*
X94452380Y-129438095D02*
X93452380Y-129438095D01*
X93452380Y-129200000D01*
X93500000Y-129057142D01*
X93595238Y-128961904D01*
X93690476Y-128914285D01*
X93880952Y-128866666D01*
X94023809Y-128866666D01*
X94214285Y-128914285D01*
X94309523Y-128961904D01*
X94404761Y-129057142D01*
X94452380Y-129200000D01*
X94452380Y-129438095D01*
X93452380Y-128533333D02*
X93452380Y-127914285D01*
X93833333Y-128247619D01*
X93833333Y-128104761D01*
X93880952Y-128009523D01*
X93928571Y-127961904D01*
X94023809Y-127914285D01*
X94261904Y-127914285D01*
X94357142Y-127961904D01*
X94404761Y-128009523D01*
X94452380Y-128104761D01*
X94452380Y-128390476D01*
X94404761Y-128485714D01*
X94357142Y-128533333D01*
G04 #@! TO.C,D4*
X100191904Y-120032380D02*
X100191904Y-119032380D01*
X100430000Y-119032380D01*
X100572857Y-119080000D01*
X100668095Y-119175238D01*
X100715714Y-119270476D01*
X100763333Y-119460952D01*
X100763333Y-119603809D01*
X100715714Y-119794285D01*
X100668095Y-119889523D01*
X100572857Y-119984761D01*
X100430000Y-120032380D01*
X100191904Y-120032380D01*
X101620476Y-119365714D02*
X101620476Y-120032380D01*
X101382380Y-118984761D02*
X101144285Y-119699047D01*
X101763333Y-119699047D01*
G04 #@! TO.C,D5*
X113077904Y-121314380D02*
X113077904Y-120314380D01*
X113316000Y-120314380D01*
X113458857Y-120362000D01*
X113554095Y-120457238D01*
X113601714Y-120552476D01*
X113649333Y-120742952D01*
X113649333Y-120885809D01*
X113601714Y-121076285D01*
X113554095Y-121171523D01*
X113458857Y-121266761D01*
X113316000Y-121314380D01*
X113077904Y-121314380D01*
X114554095Y-120314380D02*
X114077904Y-120314380D01*
X114030285Y-120790571D01*
X114077904Y-120742952D01*
X114173142Y-120695333D01*
X114411238Y-120695333D01*
X114506476Y-120742952D01*
X114554095Y-120790571D01*
X114601714Y-120885809D01*
X114601714Y-121123904D01*
X114554095Y-121219142D01*
X114506476Y-121266761D01*
X114411238Y-121314380D01*
X114173142Y-121314380D01*
X114077904Y-121266761D01*
X114030285Y-121219142D01*
G04 #@! TO.C,D6*
X126270380Y-131032095D02*
X125270380Y-131032095D01*
X125270380Y-130794000D01*
X125318000Y-130651142D01*
X125413238Y-130555904D01*
X125508476Y-130508285D01*
X125698952Y-130460666D01*
X125841809Y-130460666D01*
X126032285Y-130508285D01*
X126127523Y-130555904D01*
X126222761Y-130651142D01*
X126270380Y-130794000D01*
X126270380Y-131032095D01*
X125270380Y-129603523D02*
X125270380Y-129794000D01*
X125318000Y-129889238D01*
X125365619Y-129936857D01*
X125508476Y-130032095D01*
X125698952Y-130079714D01*
X126079904Y-130079714D01*
X126175142Y-130032095D01*
X126222761Y-129984476D01*
X126270380Y-129889238D01*
X126270380Y-129698761D01*
X126222761Y-129603523D01*
X126175142Y-129555904D01*
X126079904Y-129508285D01*
X125841809Y-129508285D01*
X125746571Y-129555904D01*
X125698952Y-129603523D01*
X125651333Y-129698761D01*
X125651333Y-129889238D01*
X125698952Y-129984476D01*
X125746571Y-130032095D01*
X125841809Y-130079714D01*
G04 #@! TO.C,D7*
X137852380Y-98288095D02*
X136852380Y-98288095D01*
X136852380Y-98050000D01*
X136900000Y-97907142D01*
X136995238Y-97811904D01*
X137090476Y-97764285D01*
X137280952Y-97716666D01*
X137423809Y-97716666D01*
X137614285Y-97764285D01*
X137709523Y-97811904D01*
X137804761Y-97907142D01*
X137852380Y-98050000D01*
X137852380Y-98288095D01*
X136852380Y-97383333D02*
X136852380Y-96716666D01*
X137852380Y-97145238D01*
G04 #@! TO.C,D8*
X114202380Y-104288095D02*
X113202380Y-104288095D01*
X113202380Y-104050000D01*
X113250000Y-103907142D01*
X113345238Y-103811904D01*
X113440476Y-103764285D01*
X113630952Y-103716666D01*
X113773809Y-103716666D01*
X113964285Y-103764285D01*
X114059523Y-103811904D01*
X114154761Y-103907142D01*
X114202380Y-104050000D01*
X114202380Y-104288095D01*
X113630952Y-103145238D02*
X113583333Y-103240476D01*
X113535714Y-103288095D01*
X113440476Y-103335714D01*
X113392857Y-103335714D01*
X113297619Y-103288095D01*
X113250000Y-103240476D01*
X113202380Y-103145238D01*
X113202380Y-102954761D01*
X113250000Y-102859523D01*
X113297619Y-102811904D01*
X113392857Y-102764285D01*
X113440476Y-102764285D01*
X113535714Y-102811904D01*
X113583333Y-102859523D01*
X113630952Y-102954761D01*
X113630952Y-103145238D01*
X113678571Y-103240476D01*
X113726190Y-103288095D01*
X113821428Y-103335714D01*
X114011904Y-103335714D01*
X114107142Y-103288095D01*
X114154761Y-103240476D01*
X114202380Y-103145238D01*
X114202380Y-102954761D01*
X114154761Y-102859523D01*
X114107142Y-102811904D01*
X114011904Y-102764285D01*
X113821428Y-102764285D01*
X113726190Y-102811904D01*
X113678571Y-102859523D01*
X113630952Y-102954761D01*
G04 #@! TO.C,F1*
X107616666Y-122850571D02*
X107283333Y-122850571D01*
X107283333Y-123374380D02*
X107283333Y-122374380D01*
X107759523Y-122374380D01*
X108664285Y-123374380D02*
X108092857Y-123374380D01*
X108378571Y-123374380D02*
X108378571Y-122374380D01*
X108283333Y-122517238D01*
X108188095Y-122612476D01*
X108092857Y-122660095D01*
G04 #@! TO.C,F2*
X105476666Y-119088571D02*
X105143333Y-119088571D01*
X105143333Y-119612380D02*
X105143333Y-118612380D01*
X105619523Y-118612380D01*
X105952857Y-118707619D02*
X106000476Y-118660000D01*
X106095714Y-118612380D01*
X106333809Y-118612380D01*
X106429047Y-118660000D01*
X106476666Y-118707619D01*
X106524285Y-118802857D01*
X106524285Y-118898095D01*
X106476666Y-119040952D01*
X105905238Y-119612380D01*
X106524285Y-119612380D01*
G04 #@! TO.C,J2*
X63216666Y-131802380D02*
X63216666Y-132516666D01*
X63169047Y-132659523D01*
X63073809Y-132754761D01*
X62930952Y-132802380D01*
X62835714Y-132802380D01*
X63645238Y-131897619D02*
X63692857Y-131850000D01*
X63788095Y-131802380D01*
X64026190Y-131802380D01*
X64121428Y-131850000D01*
X64169047Y-131897619D01*
X64216666Y-131992857D01*
X64216666Y-132088095D01*
X64169047Y-132230952D01*
X63597619Y-132802380D01*
X64216666Y-132802380D01*
G04 #@! TO.C,J3*
X99916666Y-128252380D02*
X99916666Y-128966666D01*
X99869047Y-129109523D01*
X99773809Y-129204761D01*
X99630952Y-129252380D01*
X99535714Y-129252380D01*
X100297619Y-128252380D02*
X100916666Y-128252380D01*
X100583333Y-128633333D01*
X100726190Y-128633333D01*
X100821428Y-128680952D01*
X100869047Y-128728571D01*
X100916666Y-128823809D01*
X100916666Y-129061904D01*
X100869047Y-129157142D01*
X100821428Y-129204761D01*
X100726190Y-129252380D01*
X100440476Y-129252380D01*
X100345238Y-129204761D01*
X100297619Y-129157142D01*
G04 #@! TO.C,J5*
X115880380Y-83683333D02*
X116594666Y-83683333D01*
X116737523Y-83730952D01*
X116832761Y-83826190D01*
X116880380Y-83969047D01*
X116880380Y-84064285D01*
X115880380Y-82730952D02*
X115880380Y-83207142D01*
X116356571Y-83254761D01*
X116308952Y-83207142D01*
X116261333Y-83111904D01*
X116261333Y-82873809D01*
X116308952Y-82778571D01*
X116356571Y-82730952D01*
X116451809Y-82683333D01*
X116689904Y-82683333D01*
X116785142Y-82730952D01*
X116832761Y-82778571D01*
X116880380Y-82873809D01*
X116880380Y-83111904D01*
X116832761Y-83207142D01*
X116785142Y-83254761D01*
G04 #@! TO.C,J7*
X118870380Y-68383333D02*
X119584666Y-68383333D01*
X119727523Y-68430952D01*
X119822761Y-68526190D01*
X119870380Y-68669047D01*
X119870380Y-68764285D01*
X118870380Y-68002380D02*
X118870380Y-67335714D01*
X119870380Y-67764285D01*
G04 #@! TO.C,J8*
X153966666Y-61802380D02*
X153966666Y-62516666D01*
X153919047Y-62659523D01*
X153823809Y-62754761D01*
X153680952Y-62802380D01*
X153585714Y-62802380D01*
X154585714Y-62230952D02*
X154490476Y-62183333D01*
X154442857Y-62135714D01*
X154395238Y-62040476D01*
X154395238Y-61992857D01*
X154442857Y-61897619D01*
X154490476Y-61850000D01*
X154585714Y-61802380D01*
X154776190Y-61802380D01*
X154871428Y-61850000D01*
X154919047Y-61897619D01*
X154966666Y-61992857D01*
X154966666Y-62040476D01*
X154919047Y-62135714D01*
X154871428Y-62183333D01*
X154776190Y-62230952D01*
X154585714Y-62230952D01*
X154490476Y-62278571D01*
X154442857Y-62326190D01*
X154395238Y-62421428D01*
X154395238Y-62611904D01*
X154442857Y-62707142D01*
X154490476Y-62754761D01*
X154585714Y-62802380D01*
X154776190Y-62802380D01*
X154871428Y-62754761D01*
X154919047Y-62707142D01*
X154966666Y-62611904D01*
X154966666Y-62421428D01*
X154919047Y-62326190D01*
X154871428Y-62278571D01*
X154776190Y-62230952D01*
G04 #@! TO.C,J9*
X72466666Y-110052380D02*
X72466666Y-110766666D01*
X72419047Y-110909523D01*
X72323809Y-111004761D01*
X72180952Y-111052380D01*
X72085714Y-111052380D01*
X72990476Y-111052380D02*
X73180952Y-111052380D01*
X73276190Y-111004761D01*
X73323809Y-110957142D01*
X73419047Y-110814285D01*
X73466666Y-110623809D01*
X73466666Y-110242857D01*
X73419047Y-110147619D01*
X73371428Y-110100000D01*
X73276190Y-110052380D01*
X73085714Y-110052380D01*
X72990476Y-110100000D01*
X72942857Y-110147619D01*
X72895238Y-110242857D01*
X72895238Y-110480952D01*
X72942857Y-110576190D01*
X72990476Y-110623809D01*
X73085714Y-110671428D01*
X73276190Y-110671428D01*
X73371428Y-110623809D01*
X73419047Y-110576190D01*
X73466666Y-110480952D01*
G04 #@! TO.C,J10*
X111802380Y-72559523D02*
X112516666Y-72559523D01*
X112659523Y-72607142D01*
X112754761Y-72702380D01*
X112802380Y-72845238D01*
X112802380Y-72940476D01*
X112802380Y-71559523D02*
X112802380Y-72130952D01*
X112802380Y-71845238D02*
X111802380Y-71845238D01*
X111945238Y-71940476D01*
X112040476Y-72035714D01*
X112088095Y-72130952D01*
X111802380Y-70940476D02*
X111802380Y-70845238D01*
X111850000Y-70750000D01*
X111897619Y-70702380D01*
X111992857Y-70654761D01*
X112183333Y-70607142D01*
X112421428Y-70607142D01*
X112611904Y-70654761D01*
X112707142Y-70702380D01*
X112754761Y-70750000D01*
X112802380Y-70845238D01*
X112802380Y-70940476D01*
X112754761Y-71035714D01*
X112707142Y-71083333D01*
X112611904Y-71130952D01*
X112421428Y-71178571D01*
X112183333Y-71178571D01*
X111992857Y-71130952D01*
X111897619Y-71083333D01*
X111850000Y-71035714D01*
X111802380Y-70940476D01*
G04 #@! TO.C,J11*
X115880380Y-107659523D02*
X116594666Y-107659523D01*
X116737523Y-107707142D01*
X116832761Y-107802380D01*
X116880380Y-107945238D01*
X116880380Y-108040476D01*
X116880380Y-106659523D02*
X116880380Y-107230952D01*
X116880380Y-106945238D02*
X115880380Y-106945238D01*
X116023238Y-107040476D01*
X116118476Y-107135714D01*
X116166095Y-107230952D01*
X116880380Y-105707142D02*
X116880380Y-106278571D01*
X116880380Y-105992857D02*
X115880380Y-105992857D01*
X116023238Y-106088095D01*
X116118476Y-106183333D01*
X116166095Y-106278571D01*
G04 #@! TO.C,J12*
X115880380Y-95759523D02*
X116594666Y-95759523D01*
X116737523Y-95807142D01*
X116832761Y-95902380D01*
X116880380Y-96045238D01*
X116880380Y-96140476D01*
X116880380Y-94759523D02*
X116880380Y-95330952D01*
X116880380Y-95045238D02*
X115880380Y-95045238D01*
X116023238Y-95140476D01*
X116118476Y-95235714D01*
X116166095Y-95330952D01*
X115975619Y-94378571D02*
X115928000Y-94330952D01*
X115880380Y-94235714D01*
X115880380Y-93997619D01*
X115928000Y-93902380D01*
X115975619Y-93854761D01*
X116070857Y-93807142D01*
X116166095Y-93807142D01*
X116308952Y-93854761D01*
X116880380Y-94426190D01*
X116880380Y-93807142D01*
G04 #@! TO.C,L1*
X141452380Y-111295119D02*
X141452380Y-111771309D01*
X140452380Y-111771309D01*
X141452380Y-110437976D02*
X141452380Y-111009404D01*
X141452380Y-110723690D02*
X140452380Y-110723690D01*
X140595238Y-110818928D01*
X140690476Y-110914166D01*
X140738095Y-111009404D01*
G04 #@! TO.C,L2*
X63352380Y-74916666D02*
X63352380Y-75392857D01*
X62352380Y-75392857D01*
X62447619Y-74630952D02*
X62400000Y-74583333D01*
X62352380Y-74488095D01*
X62352380Y-74250000D01*
X62400000Y-74154761D01*
X62447619Y-74107142D01*
X62542857Y-74059523D01*
X62638095Y-74059523D01*
X62780952Y-74107142D01*
X63352380Y-74678571D01*
X63352380Y-74059523D01*
G04 #@! TO.C,L3*
X63402380Y-70566666D02*
X63402380Y-71042857D01*
X62402380Y-71042857D01*
X62402380Y-70328571D02*
X62402380Y-69709523D01*
X62783333Y-70042857D01*
X62783333Y-69900000D01*
X62830952Y-69804761D01*
X62878571Y-69757142D01*
X62973809Y-69709523D01*
X63211904Y-69709523D01*
X63307142Y-69757142D01*
X63354761Y-69804761D01*
X63402380Y-69900000D01*
X63402380Y-70185714D01*
X63354761Y-70280952D01*
X63307142Y-70328571D01*
G04 #@! TO.C,L4*
X101002380Y-104038214D02*
X101002380Y-104514404D01*
X100002380Y-104514404D01*
X100335714Y-103276309D02*
X101002380Y-103276309D01*
X99954761Y-103514404D02*
X100669047Y-103752500D01*
X100669047Y-103133452D01*
G04 #@! TO.C,Q1*
X175304761Y-73347619D02*
X175209523Y-73300000D01*
X175114285Y-73204761D01*
X174971428Y-73061904D01*
X174876190Y-73014285D01*
X174780952Y-73014285D01*
X174828571Y-73252380D02*
X174733333Y-73204761D01*
X174638095Y-73109523D01*
X174590476Y-72919047D01*
X174590476Y-72585714D01*
X174638095Y-72395238D01*
X174733333Y-72300000D01*
X174828571Y-72252380D01*
X175019047Y-72252380D01*
X175114285Y-72300000D01*
X175209523Y-72395238D01*
X175257142Y-72585714D01*
X175257142Y-72919047D01*
X175209523Y-73109523D01*
X175114285Y-73204761D01*
X175019047Y-73252380D01*
X174828571Y-73252380D01*
X176209523Y-73252380D02*
X175638095Y-73252380D01*
X175923809Y-73252380D02*
X175923809Y-72252380D01*
X175828571Y-72395238D01*
X175733333Y-72490476D01*
X175638095Y-72538095D01*
G04 #@! TO.C,Q2*
X177554761Y-63797619D02*
X177459523Y-63750000D01*
X177364285Y-63654761D01*
X177221428Y-63511904D01*
X177126190Y-63464285D01*
X177030952Y-63464285D01*
X177078571Y-63702380D02*
X176983333Y-63654761D01*
X176888095Y-63559523D01*
X176840476Y-63369047D01*
X176840476Y-63035714D01*
X176888095Y-62845238D01*
X176983333Y-62750000D01*
X177078571Y-62702380D01*
X177269047Y-62702380D01*
X177364285Y-62750000D01*
X177459523Y-62845238D01*
X177507142Y-63035714D01*
X177507142Y-63369047D01*
X177459523Y-63559523D01*
X177364285Y-63654761D01*
X177269047Y-63702380D01*
X177078571Y-63702380D01*
X177888095Y-62797619D02*
X177935714Y-62750000D01*
X178030952Y-62702380D01*
X178269047Y-62702380D01*
X178364285Y-62750000D01*
X178411904Y-62797619D01*
X178459523Y-62892857D01*
X178459523Y-62988095D01*
X178411904Y-63130952D01*
X177840476Y-63702380D01*
X178459523Y-63702380D01*
G04 #@! TO.C,Q3*
X181754761Y-63797619D02*
X181659523Y-63750000D01*
X181564285Y-63654761D01*
X181421428Y-63511904D01*
X181326190Y-63464285D01*
X181230952Y-63464285D01*
X181278571Y-63702380D02*
X181183333Y-63654761D01*
X181088095Y-63559523D01*
X181040476Y-63369047D01*
X181040476Y-63035714D01*
X181088095Y-62845238D01*
X181183333Y-62750000D01*
X181278571Y-62702380D01*
X181469047Y-62702380D01*
X181564285Y-62750000D01*
X181659523Y-62845238D01*
X181707142Y-63035714D01*
X181707142Y-63369047D01*
X181659523Y-63559523D01*
X181564285Y-63654761D01*
X181469047Y-63702380D01*
X181278571Y-63702380D01*
X182040476Y-62702380D02*
X182659523Y-62702380D01*
X182326190Y-63083333D01*
X182469047Y-63083333D01*
X182564285Y-63130952D01*
X182611904Y-63178571D01*
X182659523Y-63273809D01*
X182659523Y-63511904D01*
X182611904Y-63607142D01*
X182564285Y-63654761D01*
X182469047Y-63702380D01*
X182183333Y-63702380D01*
X182088095Y-63654761D01*
X182040476Y-63607142D01*
G04 #@! TO.C,Q4*
X121747619Y-115645238D02*
X121700000Y-115740476D01*
X121604761Y-115835714D01*
X121461904Y-115978571D01*
X121414285Y-116073809D01*
X121414285Y-116169047D01*
X121652380Y-116121428D02*
X121604761Y-116216666D01*
X121509523Y-116311904D01*
X121319047Y-116359523D01*
X120985714Y-116359523D01*
X120795238Y-116311904D01*
X120700000Y-116216666D01*
X120652380Y-116121428D01*
X120652380Y-115930952D01*
X120700000Y-115835714D01*
X120795238Y-115740476D01*
X120985714Y-115692857D01*
X121319047Y-115692857D01*
X121509523Y-115740476D01*
X121604761Y-115835714D01*
X121652380Y-115930952D01*
X121652380Y-116121428D01*
X120985714Y-114835714D02*
X121652380Y-114835714D01*
X120604761Y-115073809D02*
X121319047Y-115311904D01*
X121319047Y-114692857D01*
G04 #@! TO.C,Q5*
X116557619Y-116605238D02*
X116510000Y-116700476D01*
X116414761Y-116795714D01*
X116271904Y-116938571D01*
X116224285Y-117033809D01*
X116224285Y-117129047D01*
X116462380Y-117081428D02*
X116414761Y-117176666D01*
X116319523Y-117271904D01*
X116129047Y-117319523D01*
X115795714Y-117319523D01*
X115605238Y-117271904D01*
X115510000Y-117176666D01*
X115462380Y-117081428D01*
X115462380Y-116890952D01*
X115510000Y-116795714D01*
X115605238Y-116700476D01*
X115795714Y-116652857D01*
X116129047Y-116652857D01*
X116319523Y-116700476D01*
X116414761Y-116795714D01*
X116462380Y-116890952D01*
X116462380Y-117081428D01*
X115462380Y-115748095D02*
X115462380Y-116224285D01*
X115938571Y-116271904D01*
X115890952Y-116224285D01*
X115843333Y-116129047D01*
X115843333Y-115890952D01*
X115890952Y-115795714D01*
X115938571Y-115748095D01*
X116033809Y-115700476D01*
X116271904Y-115700476D01*
X116367142Y-115748095D01*
X116414761Y-115795714D01*
X116462380Y-115890952D01*
X116462380Y-116129047D01*
X116414761Y-116224285D01*
X116367142Y-116271904D01*
G04 #@! TO.C,Q6*
X129354761Y-126397619D02*
X129259523Y-126350000D01*
X129164285Y-126254761D01*
X129021428Y-126111904D01*
X128926190Y-126064285D01*
X128830952Y-126064285D01*
X128878571Y-126302380D02*
X128783333Y-126254761D01*
X128688095Y-126159523D01*
X128640476Y-125969047D01*
X128640476Y-125635714D01*
X128688095Y-125445238D01*
X128783333Y-125350000D01*
X128878571Y-125302380D01*
X129069047Y-125302380D01*
X129164285Y-125350000D01*
X129259523Y-125445238D01*
X129307142Y-125635714D01*
X129307142Y-125969047D01*
X129259523Y-126159523D01*
X129164285Y-126254761D01*
X129069047Y-126302380D01*
X128878571Y-126302380D01*
X130164285Y-125302380D02*
X129973809Y-125302380D01*
X129878571Y-125350000D01*
X129830952Y-125397619D01*
X129735714Y-125540476D01*
X129688095Y-125730952D01*
X129688095Y-126111904D01*
X129735714Y-126207142D01*
X129783333Y-126254761D01*
X129878571Y-126302380D01*
X130069047Y-126302380D01*
X130164285Y-126254761D01*
X130211904Y-126207142D01*
X130259523Y-126111904D01*
X130259523Y-125873809D01*
X130211904Y-125778571D01*
X130164285Y-125730952D01*
X130069047Y-125683333D01*
X129878571Y-125683333D01*
X129783333Y-125730952D01*
X129735714Y-125778571D01*
X129688095Y-125873809D01*
G04 #@! TO.C,Q7*
X144247619Y-95345238D02*
X144200000Y-95440476D01*
X144104761Y-95535714D01*
X143961904Y-95678571D01*
X143914285Y-95773809D01*
X143914285Y-95869047D01*
X144152380Y-95821428D02*
X144104761Y-95916666D01*
X144009523Y-96011904D01*
X143819047Y-96059523D01*
X143485714Y-96059523D01*
X143295238Y-96011904D01*
X143200000Y-95916666D01*
X143152380Y-95821428D01*
X143152380Y-95630952D01*
X143200000Y-95535714D01*
X143295238Y-95440476D01*
X143485714Y-95392857D01*
X143819047Y-95392857D01*
X144009523Y-95440476D01*
X144104761Y-95535714D01*
X144152380Y-95630952D01*
X144152380Y-95821428D01*
X143152380Y-95059523D02*
X143152380Y-94392857D01*
X144152380Y-94821428D01*
G04 #@! TO.C,Q8*
X145304761Y-89197619D02*
X145209523Y-89150000D01*
X145114285Y-89054761D01*
X144971428Y-88911904D01*
X144876190Y-88864285D01*
X144780952Y-88864285D01*
X144828571Y-89102380D02*
X144733333Y-89054761D01*
X144638095Y-88959523D01*
X144590476Y-88769047D01*
X144590476Y-88435714D01*
X144638095Y-88245238D01*
X144733333Y-88150000D01*
X144828571Y-88102380D01*
X145019047Y-88102380D01*
X145114285Y-88150000D01*
X145209523Y-88245238D01*
X145257142Y-88435714D01*
X145257142Y-88769047D01*
X145209523Y-88959523D01*
X145114285Y-89054761D01*
X145019047Y-89102380D01*
X144828571Y-89102380D01*
X145828571Y-88530952D02*
X145733333Y-88483333D01*
X145685714Y-88435714D01*
X145638095Y-88340476D01*
X145638095Y-88292857D01*
X145685714Y-88197619D01*
X145733333Y-88150000D01*
X145828571Y-88102380D01*
X146019047Y-88102380D01*
X146114285Y-88150000D01*
X146161904Y-88197619D01*
X146209523Y-88292857D01*
X146209523Y-88340476D01*
X146161904Y-88435714D01*
X146114285Y-88483333D01*
X146019047Y-88530952D01*
X145828571Y-88530952D01*
X145733333Y-88578571D01*
X145685714Y-88626190D01*
X145638095Y-88721428D01*
X145638095Y-88911904D01*
X145685714Y-89007142D01*
X145733333Y-89054761D01*
X145828571Y-89102380D01*
X146019047Y-89102380D01*
X146114285Y-89054761D01*
X146161904Y-89007142D01*
X146209523Y-88911904D01*
X146209523Y-88721428D01*
X146161904Y-88626190D01*
X146114285Y-88578571D01*
X146019047Y-88530952D01*
G04 #@! TO.C,R1*
X169552380Y-63116666D02*
X169076190Y-63450000D01*
X169552380Y-63688095D02*
X168552380Y-63688095D01*
X168552380Y-63307142D01*
X168600000Y-63211904D01*
X168647619Y-63164285D01*
X168742857Y-63116666D01*
X168885714Y-63116666D01*
X168980952Y-63164285D01*
X169028571Y-63211904D01*
X169076190Y-63307142D01*
X169076190Y-63688095D01*
X169552380Y-62164285D02*
X169552380Y-62735714D01*
X169552380Y-62450000D02*
X168552380Y-62450000D01*
X168695238Y-62545238D01*
X168790476Y-62640476D01*
X168838095Y-62735714D01*
G04 #@! TO.C,R2*
X172052380Y-63116666D02*
X171576190Y-63450000D01*
X172052380Y-63688095D02*
X171052380Y-63688095D01*
X171052380Y-63307142D01*
X171100000Y-63211904D01*
X171147619Y-63164285D01*
X171242857Y-63116666D01*
X171385714Y-63116666D01*
X171480952Y-63164285D01*
X171528571Y-63211904D01*
X171576190Y-63307142D01*
X171576190Y-63688095D01*
X171147619Y-62735714D02*
X171100000Y-62688095D01*
X171052380Y-62592857D01*
X171052380Y-62354761D01*
X171100000Y-62259523D01*
X171147619Y-62211904D01*
X171242857Y-62164285D01*
X171338095Y-62164285D01*
X171480952Y-62211904D01*
X172052380Y-62783333D01*
X172052380Y-62164285D01*
G04 #@! TO.C,R3*
X120683333Y-124152380D02*
X120350000Y-123676190D01*
X120111904Y-124152380D02*
X120111904Y-123152380D01*
X120492857Y-123152380D01*
X120588095Y-123200000D01*
X120635714Y-123247619D01*
X120683333Y-123342857D01*
X120683333Y-123485714D01*
X120635714Y-123580952D01*
X120588095Y-123628571D01*
X120492857Y-123676190D01*
X120111904Y-123676190D01*
X121016666Y-123152380D02*
X121635714Y-123152380D01*
X121302380Y-123533333D01*
X121445238Y-123533333D01*
X121540476Y-123580952D01*
X121588095Y-123628571D01*
X121635714Y-123723809D01*
X121635714Y-123961904D01*
X121588095Y-124057142D01*
X121540476Y-124104761D01*
X121445238Y-124152380D01*
X121159523Y-124152380D01*
X121064285Y-124104761D01*
X121016666Y-124057142D01*
G04 #@! TO.C,R4*
X68323333Y-120072380D02*
X67990000Y-119596190D01*
X67751904Y-120072380D02*
X67751904Y-119072380D01*
X68132857Y-119072380D01*
X68228095Y-119120000D01*
X68275714Y-119167619D01*
X68323333Y-119262857D01*
X68323333Y-119405714D01*
X68275714Y-119500952D01*
X68228095Y-119548571D01*
X68132857Y-119596190D01*
X67751904Y-119596190D01*
X69180476Y-119405714D02*
X69180476Y-120072380D01*
X68942380Y-119024761D02*
X68704285Y-119739047D01*
X69323333Y-119739047D01*
G04 #@! TO.C,R5*
X68343333Y-117572380D02*
X68010000Y-117096190D01*
X67771904Y-117572380D02*
X67771904Y-116572380D01*
X68152857Y-116572380D01*
X68248095Y-116620000D01*
X68295714Y-116667619D01*
X68343333Y-116762857D01*
X68343333Y-116905714D01*
X68295714Y-117000952D01*
X68248095Y-117048571D01*
X68152857Y-117096190D01*
X67771904Y-117096190D01*
X69248095Y-116572380D02*
X68771904Y-116572380D01*
X68724285Y-117048571D01*
X68771904Y-117000952D01*
X68867142Y-116953333D01*
X69105238Y-116953333D01*
X69200476Y-117000952D01*
X69248095Y-117048571D01*
X69295714Y-117143809D01*
X69295714Y-117381904D01*
X69248095Y-117477142D01*
X69200476Y-117524761D01*
X69105238Y-117572380D01*
X68867142Y-117572380D01*
X68771904Y-117524761D01*
X68724285Y-117477142D01*
G04 #@! TO.C,R6*
X185183333Y-69502380D02*
X184850000Y-69026190D01*
X184611904Y-69502380D02*
X184611904Y-68502380D01*
X184992857Y-68502380D01*
X185088095Y-68550000D01*
X185135714Y-68597619D01*
X185183333Y-68692857D01*
X185183333Y-68835714D01*
X185135714Y-68930952D01*
X185088095Y-68978571D01*
X184992857Y-69026190D01*
X184611904Y-69026190D01*
X186040476Y-68502380D02*
X185850000Y-68502380D01*
X185754761Y-68550000D01*
X185707142Y-68597619D01*
X185611904Y-68740476D01*
X185564285Y-68930952D01*
X185564285Y-69311904D01*
X185611904Y-69407142D01*
X185659523Y-69454761D01*
X185754761Y-69502380D01*
X185945238Y-69502380D01*
X186040476Y-69454761D01*
X186088095Y-69407142D01*
X186135714Y-69311904D01*
X186135714Y-69073809D01*
X186088095Y-68978571D01*
X186040476Y-68930952D01*
X185945238Y-68883333D01*
X185754761Y-68883333D01*
X185659523Y-68930952D01*
X185611904Y-68978571D01*
X185564285Y-69073809D01*
G04 #@! TO.C,R7*
X185158333Y-71952380D02*
X184825000Y-71476190D01*
X184586904Y-71952380D02*
X184586904Y-70952380D01*
X184967857Y-70952380D01*
X185063095Y-71000000D01*
X185110714Y-71047619D01*
X185158333Y-71142857D01*
X185158333Y-71285714D01*
X185110714Y-71380952D01*
X185063095Y-71428571D01*
X184967857Y-71476190D01*
X184586904Y-71476190D01*
X185491666Y-70952380D02*
X186158333Y-70952380D01*
X185729761Y-71952380D01*
G04 #@! TO.C,R8*
X113133333Y-113394380D02*
X112800000Y-112918190D01*
X112561904Y-113394380D02*
X112561904Y-112394380D01*
X112942857Y-112394380D01*
X113038095Y-112442000D01*
X113085714Y-112489619D01*
X113133333Y-112584857D01*
X113133333Y-112727714D01*
X113085714Y-112822952D01*
X113038095Y-112870571D01*
X112942857Y-112918190D01*
X112561904Y-112918190D01*
X113704761Y-112822952D02*
X113609523Y-112775333D01*
X113561904Y-112727714D01*
X113514285Y-112632476D01*
X113514285Y-112584857D01*
X113561904Y-112489619D01*
X113609523Y-112442000D01*
X113704761Y-112394380D01*
X113895238Y-112394380D01*
X113990476Y-112442000D01*
X114038095Y-112489619D01*
X114085714Y-112584857D01*
X114085714Y-112632476D01*
X114038095Y-112727714D01*
X113990476Y-112775333D01*
X113895238Y-112822952D01*
X113704761Y-112822952D01*
X113609523Y-112870571D01*
X113561904Y-112918190D01*
X113514285Y-113013428D01*
X113514285Y-113203904D01*
X113561904Y-113299142D01*
X113609523Y-113346761D01*
X113704761Y-113394380D01*
X113895238Y-113394380D01*
X113990476Y-113346761D01*
X114038095Y-113299142D01*
X114085714Y-113203904D01*
X114085714Y-113013428D01*
X114038095Y-112918190D01*
X113990476Y-112870571D01*
X113895238Y-112822952D01*
G04 #@! TO.C,R9*
X187352380Y-65916666D02*
X186876190Y-66250000D01*
X187352380Y-66488095D02*
X186352380Y-66488095D01*
X186352380Y-66107142D01*
X186400000Y-66011904D01*
X186447619Y-65964285D01*
X186542857Y-65916666D01*
X186685714Y-65916666D01*
X186780952Y-65964285D01*
X186828571Y-66011904D01*
X186876190Y-66107142D01*
X186876190Y-66488095D01*
X187352380Y-65440476D02*
X187352380Y-65250000D01*
X187304761Y-65154761D01*
X187257142Y-65107142D01*
X187114285Y-65011904D01*
X186923809Y-64964285D01*
X186542857Y-64964285D01*
X186447619Y-65011904D01*
X186400000Y-65059523D01*
X186352380Y-65154761D01*
X186352380Y-65345238D01*
X186400000Y-65440476D01*
X186447619Y-65488095D01*
X186542857Y-65535714D01*
X186780952Y-65535714D01*
X186876190Y-65488095D01*
X186923809Y-65440476D01*
X186971428Y-65345238D01*
X186971428Y-65154761D01*
X186923809Y-65059523D01*
X186876190Y-65011904D01*
X186780952Y-64964285D01*
G04 #@! TO.C,R10*
X126270380Y-136016857D02*
X125794190Y-136350190D01*
X126270380Y-136588285D02*
X125270380Y-136588285D01*
X125270380Y-136207333D01*
X125318000Y-136112095D01*
X125365619Y-136064476D01*
X125460857Y-136016857D01*
X125603714Y-136016857D01*
X125698952Y-136064476D01*
X125746571Y-136112095D01*
X125794190Y-136207333D01*
X125794190Y-136588285D01*
X126270380Y-135064476D02*
X126270380Y-135635904D01*
X126270380Y-135350190D02*
X125270380Y-135350190D01*
X125413238Y-135445428D01*
X125508476Y-135540666D01*
X125556095Y-135635904D01*
X125270380Y-134445428D02*
X125270380Y-134350190D01*
X125318000Y-134254952D01*
X125365619Y-134207333D01*
X125460857Y-134159714D01*
X125651333Y-134112095D01*
X125889428Y-134112095D01*
X126079904Y-134159714D01*
X126175142Y-134207333D01*
X126222761Y-134254952D01*
X126270380Y-134350190D01*
X126270380Y-134445428D01*
X126222761Y-134540666D01*
X126175142Y-134588285D01*
X126079904Y-134635904D01*
X125889428Y-134683523D01*
X125651333Y-134683523D01*
X125460857Y-134635904D01*
X125365619Y-134588285D01*
X125318000Y-134540666D01*
X125270380Y-134445428D01*
G04 #@! TO.C,R11*
X149727142Y-101202380D02*
X149393809Y-100726190D01*
X149155714Y-101202380D02*
X149155714Y-100202380D01*
X149536666Y-100202380D01*
X149631904Y-100250000D01*
X149679523Y-100297619D01*
X149727142Y-100392857D01*
X149727142Y-100535714D01*
X149679523Y-100630952D01*
X149631904Y-100678571D01*
X149536666Y-100726190D01*
X149155714Y-100726190D01*
X150679523Y-101202380D02*
X150108095Y-101202380D01*
X150393809Y-101202380D02*
X150393809Y-100202380D01*
X150298571Y-100345238D01*
X150203333Y-100440476D01*
X150108095Y-100488095D01*
X151631904Y-101202380D02*
X151060476Y-101202380D01*
X151346190Y-101202380D02*
X151346190Y-100202380D01*
X151250952Y-100345238D01*
X151155714Y-100440476D01*
X151060476Y-100488095D01*
G04 #@! TO.C,R12*
X79752380Y-86942857D02*
X79276190Y-87276190D01*
X79752380Y-87514285D02*
X78752380Y-87514285D01*
X78752380Y-87133333D01*
X78800000Y-87038095D01*
X78847619Y-86990476D01*
X78942857Y-86942857D01*
X79085714Y-86942857D01*
X79180952Y-86990476D01*
X79228571Y-87038095D01*
X79276190Y-87133333D01*
X79276190Y-87514285D01*
X79752380Y-85990476D02*
X79752380Y-86561904D01*
X79752380Y-86276190D02*
X78752380Y-86276190D01*
X78895238Y-86371428D01*
X78990476Y-86466666D01*
X79038095Y-86561904D01*
X78847619Y-85609523D02*
X78800000Y-85561904D01*
X78752380Y-85466666D01*
X78752380Y-85228571D01*
X78800000Y-85133333D01*
X78847619Y-85085714D01*
X78942857Y-85038095D01*
X79038095Y-85038095D01*
X79180952Y-85085714D01*
X79752380Y-85657142D01*
X79752380Y-85038095D01*
G04 #@! TO.C,R13*
X64802380Y-86942857D02*
X64326190Y-87276190D01*
X64802380Y-87514285D02*
X63802380Y-87514285D01*
X63802380Y-87133333D01*
X63850000Y-87038095D01*
X63897619Y-86990476D01*
X63992857Y-86942857D01*
X64135714Y-86942857D01*
X64230952Y-86990476D01*
X64278571Y-87038095D01*
X64326190Y-87133333D01*
X64326190Y-87514285D01*
X64802380Y-85990476D02*
X64802380Y-86561904D01*
X64802380Y-86276190D02*
X63802380Y-86276190D01*
X63945238Y-86371428D01*
X64040476Y-86466666D01*
X64088095Y-86561904D01*
X63802380Y-85657142D02*
X63802380Y-85038095D01*
X64183333Y-85371428D01*
X64183333Y-85228571D01*
X64230952Y-85133333D01*
X64278571Y-85085714D01*
X64373809Y-85038095D01*
X64611904Y-85038095D01*
X64707142Y-85085714D01*
X64754761Y-85133333D01*
X64802380Y-85228571D01*
X64802380Y-85514285D01*
X64754761Y-85609523D01*
X64707142Y-85657142D01*
G04 #@! TO.C,R14*
X81607142Y-87702380D02*
X81273809Y-87226190D01*
X81035714Y-87702380D02*
X81035714Y-86702380D01*
X81416666Y-86702380D01*
X81511904Y-86750000D01*
X81559523Y-86797619D01*
X81607142Y-86892857D01*
X81607142Y-87035714D01*
X81559523Y-87130952D01*
X81511904Y-87178571D01*
X81416666Y-87226190D01*
X81035714Y-87226190D01*
X82559523Y-87702380D02*
X81988095Y-87702380D01*
X82273809Y-87702380D02*
X82273809Y-86702380D01*
X82178571Y-86845238D01*
X82083333Y-86940476D01*
X81988095Y-86988095D01*
X83416666Y-87035714D02*
X83416666Y-87702380D01*
X83178571Y-86654761D02*
X82940476Y-87369047D01*
X83559523Y-87369047D01*
G04 #@! TO.C,R15*
X60657142Y-87802380D02*
X60323809Y-87326190D01*
X60085714Y-87802380D02*
X60085714Y-86802380D01*
X60466666Y-86802380D01*
X60561904Y-86850000D01*
X60609523Y-86897619D01*
X60657142Y-86992857D01*
X60657142Y-87135714D01*
X60609523Y-87230952D01*
X60561904Y-87278571D01*
X60466666Y-87326190D01*
X60085714Y-87326190D01*
X61609523Y-87802380D02*
X61038095Y-87802380D01*
X61323809Y-87802380D02*
X61323809Y-86802380D01*
X61228571Y-86945238D01*
X61133333Y-87040476D01*
X61038095Y-87088095D01*
X62514285Y-86802380D02*
X62038095Y-86802380D01*
X61990476Y-87278571D01*
X62038095Y-87230952D01*
X62133333Y-87183333D01*
X62371428Y-87183333D01*
X62466666Y-87230952D01*
X62514285Y-87278571D01*
X62561904Y-87373809D01*
X62561904Y-87611904D01*
X62514285Y-87707142D01*
X62466666Y-87754761D01*
X62371428Y-87802380D01*
X62133333Y-87802380D01*
X62038095Y-87754761D01*
X61990476Y-87707142D01*
G04 #@! TO.C,R16*
X154237142Y-101212380D02*
X153903809Y-100736190D01*
X153665714Y-101212380D02*
X153665714Y-100212380D01*
X154046666Y-100212380D01*
X154141904Y-100260000D01*
X154189523Y-100307619D01*
X154237142Y-100402857D01*
X154237142Y-100545714D01*
X154189523Y-100640952D01*
X154141904Y-100688571D01*
X154046666Y-100736190D01*
X153665714Y-100736190D01*
X155189523Y-101212380D02*
X154618095Y-101212380D01*
X154903809Y-101212380D02*
X154903809Y-100212380D01*
X154808571Y-100355238D01*
X154713333Y-100450476D01*
X154618095Y-100498095D01*
X156046666Y-100212380D02*
X155856190Y-100212380D01*
X155760952Y-100260000D01*
X155713333Y-100307619D01*
X155618095Y-100450476D01*
X155570476Y-100640952D01*
X155570476Y-101021904D01*
X155618095Y-101117142D01*
X155665714Y-101164761D01*
X155760952Y-101212380D01*
X155951428Y-101212380D01*
X156046666Y-101164761D01*
X156094285Y-101117142D01*
X156141904Y-101021904D01*
X156141904Y-100783809D01*
X156094285Y-100688571D01*
X156046666Y-100640952D01*
X155951428Y-100593333D01*
X155760952Y-100593333D01*
X155665714Y-100640952D01*
X155618095Y-100688571D01*
X155570476Y-100783809D01*
G04 #@! TO.C,R17*
X145207142Y-101102380D02*
X144873809Y-100626190D01*
X144635714Y-101102380D02*
X144635714Y-100102380D01*
X145016666Y-100102380D01*
X145111904Y-100150000D01*
X145159523Y-100197619D01*
X145207142Y-100292857D01*
X145207142Y-100435714D01*
X145159523Y-100530952D01*
X145111904Y-100578571D01*
X145016666Y-100626190D01*
X144635714Y-100626190D01*
X146159523Y-101102380D02*
X145588095Y-101102380D01*
X145873809Y-101102380D02*
X145873809Y-100102380D01*
X145778571Y-100245238D01*
X145683333Y-100340476D01*
X145588095Y-100388095D01*
X146492857Y-100102380D02*
X147159523Y-100102380D01*
X146730952Y-101102380D01*
G04 #@! TO.C,R18*
X167593142Y-117774380D02*
X167259809Y-117298190D01*
X167021714Y-117774380D02*
X167021714Y-116774380D01*
X167402666Y-116774380D01*
X167497904Y-116822000D01*
X167545523Y-116869619D01*
X167593142Y-116964857D01*
X167593142Y-117107714D01*
X167545523Y-117202952D01*
X167497904Y-117250571D01*
X167402666Y-117298190D01*
X167021714Y-117298190D01*
X168545523Y-117774380D02*
X167974095Y-117774380D01*
X168259809Y-117774380D02*
X168259809Y-116774380D01*
X168164571Y-116917238D01*
X168069333Y-117012476D01*
X167974095Y-117060095D01*
X169116952Y-117202952D02*
X169021714Y-117155333D01*
X168974095Y-117107714D01*
X168926476Y-117012476D01*
X168926476Y-116964857D01*
X168974095Y-116869619D01*
X169021714Y-116822000D01*
X169116952Y-116774380D01*
X169307428Y-116774380D01*
X169402666Y-116822000D01*
X169450285Y-116869619D01*
X169497904Y-116964857D01*
X169497904Y-117012476D01*
X169450285Y-117107714D01*
X169402666Y-117155333D01*
X169307428Y-117202952D01*
X169116952Y-117202952D01*
X169021714Y-117250571D01*
X168974095Y-117298190D01*
X168926476Y-117393428D01*
X168926476Y-117583904D01*
X168974095Y-117679142D01*
X169021714Y-117726761D01*
X169116952Y-117774380D01*
X169307428Y-117774380D01*
X169402666Y-117726761D01*
X169450285Y-117679142D01*
X169497904Y-117583904D01*
X169497904Y-117393428D01*
X169450285Y-117298190D01*
X169402666Y-117250571D01*
X169307428Y-117202952D01*
G04 #@! TO.C,R19*
X163257142Y-117774380D02*
X162923809Y-117298190D01*
X162685714Y-117774380D02*
X162685714Y-116774380D01*
X163066666Y-116774380D01*
X163161904Y-116822000D01*
X163209523Y-116869619D01*
X163257142Y-116964857D01*
X163257142Y-117107714D01*
X163209523Y-117202952D01*
X163161904Y-117250571D01*
X163066666Y-117298190D01*
X162685714Y-117298190D01*
X164209523Y-117774380D02*
X163638095Y-117774380D01*
X163923809Y-117774380D02*
X163923809Y-116774380D01*
X163828571Y-116917238D01*
X163733333Y-117012476D01*
X163638095Y-117060095D01*
X164685714Y-117774380D02*
X164876190Y-117774380D01*
X164971428Y-117726761D01*
X165019047Y-117679142D01*
X165114285Y-117536285D01*
X165161904Y-117345809D01*
X165161904Y-116964857D01*
X165114285Y-116869619D01*
X165066666Y-116822000D01*
X164971428Y-116774380D01*
X164780952Y-116774380D01*
X164685714Y-116822000D01*
X164638095Y-116869619D01*
X164590476Y-116964857D01*
X164590476Y-117202952D01*
X164638095Y-117298190D01*
X164685714Y-117345809D01*
X164780952Y-117393428D01*
X164971428Y-117393428D01*
X165066666Y-117345809D01*
X165114285Y-117298190D01*
X165161904Y-117202952D01*
G04 #@! TO.C,R20*
X140407142Y-87802380D02*
X140073809Y-87326190D01*
X139835714Y-87802380D02*
X139835714Y-86802380D01*
X140216666Y-86802380D01*
X140311904Y-86850000D01*
X140359523Y-86897619D01*
X140407142Y-86992857D01*
X140407142Y-87135714D01*
X140359523Y-87230952D01*
X140311904Y-87278571D01*
X140216666Y-87326190D01*
X139835714Y-87326190D01*
X140788095Y-86897619D02*
X140835714Y-86850000D01*
X140930952Y-86802380D01*
X141169047Y-86802380D01*
X141264285Y-86850000D01*
X141311904Y-86897619D01*
X141359523Y-86992857D01*
X141359523Y-87088095D01*
X141311904Y-87230952D01*
X140740476Y-87802380D01*
X141359523Y-87802380D01*
X141978571Y-86802380D02*
X142073809Y-86802380D01*
X142169047Y-86850000D01*
X142216666Y-86897619D01*
X142264285Y-86992857D01*
X142311904Y-87183333D01*
X142311904Y-87421428D01*
X142264285Y-87611904D01*
X142216666Y-87707142D01*
X142169047Y-87754761D01*
X142073809Y-87802380D01*
X141978571Y-87802380D01*
X141883333Y-87754761D01*
X141835714Y-87707142D01*
X141788095Y-87611904D01*
X141740476Y-87421428D01*
X141740476Y-87183333D01*
X141788095Y-86992857D01*
X141835714Y-86897619D01*
X141883333Y-86850000D01*
X141978571Y-86802380D01*
G04 #@! TO.C,R21*
X149524380Y-96142857D02*
X149048190Y-96476190D01*
X149524380Y-96714285D02*
X148524380Y-96714285D01*
X148524380Y-96333333D01*
X148572000Y-96238095D01*
X148619619Y-96190476D01*
X148714857Y-96142857D01*
X148857714Y-96142857D01*
X148952952Y-96190476D01*
X149000571Y-96238095D01*
X149048190Y-96333333D01*
X149048190Y-96714285D01*
X148619619Y-95761904D02*
X148572000Y-95714285D01*
X148524380Y-95619047D01*
X148524380Y-95380952D01*
X148572000Y-95285714D01*
X148619619Y-95238095D01*
X148714857Y-95190476D01*
X148810095Y-95190476D01*
X148952952Y-95238095D01*
X149524380Y-95809523D01*
X149524380Y-95190476D01*
X149524380Y-94238095D02*
X149524380Y-94809523D01*
X149524380Y-94523809D02*
X148524380Y-94523809D01*
X148667238Y-94619047D01*
X148762476Y-94714285D01*
X148810095Y-94809523D01*
G04 #@! TO.C,R22*
X98757142Y-94902380D02*
X98423809Y-94426190D01*
X98185714Y-94902380D02*
X98185714Y-93902380D01*
X98566666Y-93902380D01*
X98661904Y-93950000D01*
X98709523Y-93997619D01*
X98757142Y-94092857D01*
X98757142Y-94235714D01*
X98709523Y-94330952D01*
X98661904Y-94378571D01*
X98566666Y-94426190D01*
X98185714Y-94426190D01*
X99138095Y-93997619D02*
X99185714Y-93950000D01*
X99280952Y-93902380D01*
X99519047Y-93902380D01*
X99614285Y-93950000D01*
X99661904Y-93997619D01*
X99709523Y-94092857D01*
X99709523Y-94188095D01*
X99661904Y-94330952D01*
X99090476Y-94902380D01*
X99709523Y-94902380D01*
X100090476Y-93997619D02*
X100138095Y-93950000D01*
X100233333Y-93902380D01*
X100471428Y-93902380D01*
X100566666Y-93950000D01*
X100614285Y-93997619D01*
X100661904Y-94092857D01*
X100661904Y-94188095D01*
X100614285Y-94330952D01*
X100042857Y-94902380D01*
X100661904Y-94902380D01*
G04 #@! TO.C,R23*
X167243142Y-105102380D02*
X166909809Y-104626190D01*
X166671714Y-105102380D02*
X166671714Y-104102380D01*
X167052666Y-104102380D01*
X167147904Y-104150000D01*
X167195523Y-104197619D01*
X167243142Y-104292857D01*
X167243142Y-104435714D01*
X167195523Y-104530952D01*
X167147904Y-104578571D01*
X167052666Y-104626190D01*
X166671714Y-104626190D01*
X167624095Y-104197619D02*
X167671714Y-104150000D01*
X167766952Y-104102380D01*
X168005047Y-104102380D01*
X168100285Y-104150000D01*
X168147904Y-104197619D01*
X168195523Y-104292857D01*
X168195523Y-104388095D01*
X168147904Y-104530952D01*
X167576476Y-105102380D01*
X168195523Y-105102380D01*
X168528857Y-104102380D02*
X169147904Y-104102380D01*
X168814571Y-104483333D01*
X168957428Y-104483333D01*
X169052666Y-104530952D01*
X169100285Y-104578571D01*
X169147904Y-104673809D01*
X169147904Y-104911904D01*
X169100285Y-105007142D01*
X169052666Y-105054761D01*
X168957428Y-105102380D01*
X168671714Y-105102380D01*
X168576476Y-105054761D01*
X168528857Y-105007142D01*
G04 #@! TO.C,R24*
X164407142Y-96802380D02*
X164073809Y-96326190D01*
X163835714Y-96802380D02*
X163835714Y-95802380D01*
X164216666Y-95802380D01*
X164311904Y-95850000D01*
X164359523Y-95897619D01*
X164407142Y-95992857D01*
X164407142Y-96135714D01*
X164359523Y-96230952D01*
X164311904Y-96278571D01*
X164216666Y-96326190D01*
X163835714Y-96326190D01*
X164788095Y-95897619D02*
X164835714Y-95850000D01*
X164930952Y-95802380D01*
X165169047Y-95802380D01*
X165264285Y-95850000D01*
X165311904Y-95897619D01*
X165359523Y-95992857D01*
X165359523Y-96088095D01*
X165311904Y-96230952D01*
X164740476Y-96802380D01*
X165359523Y-96802380D01*
X166216666Y-96135714D02*
X166216666Y-96802380D01*
X165978571Y-95754761D02*
X165740476Y-96469047D01*
X166359523Y-96469047D01*
G04 #@! TO.C,R25*
X158797142Y-101292380D02*
X158463809Y-100816190D01*
X158225714Y-101292380D02*
X158225714Y-100292380D01*
X158606666Y-100292380D01*
X158701904Y-100340000D01*
X158749523Y-100387619D01*
X158797142Y-100482857D01*
X158797142Y-100625714D01*
X158749523Y-100720952D01*
X158701904Y-100768571D01*
X158606666Y-100816190D01*
X158225714Y-100816190D01*
X159178095Y-100387619D02*
X159225714Y-100340000D01*
X159320952Y-100292380D01*
X159559047Y-100292380D01*
X159654285Y-100340000D01*
X159701904Y-100387619D01*
X159749523Y-100482857D01*
X159749523Y-100578095D01*
X159701904Y-100720952D01*
X159130476Y-101292380D01*
X159749523Y-101292380D01*
X160654285Y-100292380D02*
X160178095Y-100292380D01*
X160130476Y-100768571D01*
X160178095Y-100720952D01*
X160273333Y-100673333D01*
X160511428Y-100673333D01*
X160606666Y-100720952D01*
X160654285Y-100768571D01*
X160701904Y-100863809D01*
X160701904Y-101101904D01*
X160654285Y-101197142D01*
X160606666Y-101244761D01*
X160511428Y-101292380D01*
X160273333Y-101292380D01*
X160178095Y-101244761D01*
X160130476Y-101197142D01*
G04 #@! TO.C,R26*
X164457142Y-94202380D02*
X164123809Y-93726190D01*
X163885714Y-94202380D02*
X163885714Y-93202380D01*
X164266666Y-93202380D01*
X164361904Y-93250000D01*
X164409523Y-93297619D01*
X164457142Y-93392857D01*
X164457142Y-93535714D01*
X164409523Y-93630952D01*
X164361904Y-93678571D01*
X164266666Y-93726190D01*
X163885714Y-93726190D01*
X164838095Y-93297619D02*
X164885714Y-93250000D01*
X164980952Y-93202380D01*
X165219047Y-93202380D01*
X165314285Y-93250000D01*
X165361904Y-93297619D01*
X165409523Y-93392857D01*
X165409523Y-93488095D01*
X165361904Y-93630952D01*
X164790476Y-94202380D01*
X165409523Y-94202380D01*
X166266666Y-93202380D02*
X166076190Y-93202380D01*
X165980952Y-93250000D01*
X165933333Y-93297619D01*
X165838095Y-93440476D01*
X165790476Y-93630952D01*
X165790476Y-94011904D01*
X165838095Y-94107142D01*
X165885714Y-94154761D01*
X165980952Y-94202380D01*
X166171428Y-94202380D01*
X166266666Y-94154761D01*
X166314285Y-94107142D01*
X166361904Y-94011904D01*
X166361904Y-93773809D01*
X166314285Y-93678571D01*
X166266666Y-93630952D01*
X166171428Y-93583333D01*
X165980952Y-93583333D01*
X165885714Y-93630952D01*
X165838095Y-93678571D01*
X165790476Y-93773809D01*
G04 #@! TO.C,R27*
X162671142Y-104974380D02*
X162337809Y-104498190D01*
X162099714Y-104974380D02*
X162099714Y-103974380D01*
X162480666Y-103974380D01*
X162575904Y-104022000D01*
X162623523Y-104069619D01*
X162671142Y-104164857D01*
X162671142Y-104307714D01*
X162623523Y-104402952D01*
X162575904Y-104450571D01*
X162480666Y-104498190D01*
X162099714Y-104498190D01*
X163052095Y-104069619D02*
X163099714Y-104022000D01*
X163194952Y-103974380D01*
X163433047Y-103974380D01*
X163528285Y-104022000D01*
X163575904Y-104069619D01*
X163623523Y-104164857D01*
X163623523Y-104260095D01*
X163575904Y-104402952D01*
X163004476Y-104974380D01*
X163623523Y-104974380D01*
X163956857Y-103974380D02*
X164623523Y-103974380D01*
X164194952Y-104974380D01*
G04 #@! TO.C,R28*
X163307142Y-101202380D02*
X162973809Y-100726190D01*
X162735714Y-101202380D02*
X162735714Y-100202380D01*
X163116666Y-100202380D01*
X163211904Y-100250000D01*
X163259523Y-100297619D01*
X163307142Y-100392857D01*
X163307142Y-100535714D01*
X163259523Y-100630952D01*
X163211904Y-100678571D01*
X163116666Y-100726190D01*
X162735714Y-100726190D01*
X163688095Y-100297619D02*
X163735714Y-100250000D01*
X163830952Y-100202380D01*
X164069047Y-100202380D01*
X164164285Y-100250000D01*
X164211904Y-100297619D01*
X164259523Y-100392857D01*
X164259523Y-100488095D01*
X164211904Y-100630952D01*
X163640476Y-101202380D01*
X164259523Y-101202380D01*
X164830952Y-100630952D02*
X164735714Y-100583333D01*
X164688095Y-100535714D01*
X164640476Y-100440476D01*
X164640476Y-100392857D01*
X164688095Y-100297619D01*
X164735714Y-100250000D01*
X164830952Y-100202380D01*
X165021428Y-100202380D01*
X165116666Y-100250000D01*
X165164285Y-100297619D01*
X165211904Y-100392857D01*
X165211904Y-100440476D01*
X165164285Y-100535714D01*
X165116666Y-100583333D01*
X165021428Y-100630952D01*
X164830952Y-100630952D01*
X164735714Y-100678571D01*
X164688095Y-100726190D01*
X164640476Y-100821428D01*
X164640476Y-101011904D01*
X164688095Y-101107142D01*
X164735714Y-101154761D01*
X164830952Y-101202380D01*
X165021428Y-101202380D01*
X165116666Y-101154761D01*
X165164285Y-101107142D01*
X165211904Y-101011904D01*
X165211904Y-100821428D01*
X165164285Y-100726190D01*
X165116666Y-100678571D01*
X165021428Y-100630952D01*
G04 #@! TO.C,R29*
X158207142Y-104974380D02*
X157873809Y-104498190D01*
X157635714Y-104974380D02*
X157635714Y-103974380D01*
X158016666Y-103974380D01*
X158111904Y-104022000D01*
X158159523Y-104069619D01*
X158207142Y-104164857D01*
X158207142Y-104307714D01*
X158159523Y-104402952D01*
X158111904Y-104450571D01*
X158016666Y-104498190D01*
X157635714Y-104498190D01*
X158588095Y-104069619D02*
X158635714Y-104022000D01*
X158730952Y-103974380D01*
X158969047Y-103974380D01*
X159064285Y-104022000D01*
X159111904Y-104069619D01*
X159159523Y-104164857D01*
X159159523Y-104260095D01*
X159111904Y-104402952D01*
X158540476Y-104974380D01*
X159159523Y-104974380D01*
X159635714Y-104974380D02*
X159826190Y-104974380D01*
X159921428Y-104926761D01*
X159969047Y-104879142D01*
X160064285Y-104736285D01*
X160111904Y-104545809D01*
X160111904Y-104164857D01*
X160064285Y-104069619D01*
X160016666Y-104022000D01*
X159921428Y-103974380D01*
X159730952Y-103974380D01*
X159635714Y-104022000D01*
X159588095Y-104069619D01*
X159540476Y-104164857D01*
X159540476Y-104402952D01*
X159588095Y-104498190D01*
X159635714Y-104545809D01*
X159730952Y-104593428D01*
X159921428Y-104593428D01*
X160016666Y-104545809D01*
X160064285Y-104498190D01*
X160111904Y-104402952D01*
G04 #@! TO.C,R30*
X110557142Y-93952380D02*
X110223809Y-93476190D01*
X109985714Y-93952380D02*
X109985714Y-92952380D01*
X110366666Y-92952380D01*
X110461904Y-93000000D01*
X110509523Y-93047619D01*
X110557142Y-93142857D01*
X110557142Y-93285714D01*
X110509523Y-93380952D01*
X110461904Y-93428571D01*
X110366666Y-93476190D01*
X109985714Y-93476190D01*
X110890476Y-92952380D02*
X111509523Y-92952380D01*
X111176190Y-93333333D01*
X111319047Y-93333333D01*
X111414285Y-93380952D01*
X111461904Y-93428571D01*
X111509523Y-93523809D01*
X111509523Y-93761904D01*
X111461904Y-93857142D01*
X111414285Y-93904761D01*
X111319047Y-93952380D01*
X111033333Y-93952380D01*
X110938095Y-93904761D01*
X110890476Y-93857142D01*
X112128571Y-92952380D02*
X112223809Y-92952380D01*
X112319047Y-93000000D01*
X112366666Y-93047619D01*
X112414285Y-93142857D01*
X112461904Y-93333333D01*
X112461904Y-93571428D01*
X112414285Y-93761904D01*
X112366666Y-93857142D01*
X112319047Y-93904761D01*
X112223809Y-93952380D01*
X112128571Y-93952380D01*
X112033333Y-93904761D01*
X111985714Y-93857142D01*
X111938095Y-93761904D01*
X111890476Y-93571428D01*
X111890476Y-93333333D01*
X111938095Y-93142857D01*
X111985714Y-93047619D01*
X112033333Y-93000000D01*
X112128571Y-92952380D01*
G04 #@! TO.C,SW2*
X107616666Y-87554761D02*
X107759523Y-87602380D01*
X107997619Y-87602380D01*
X108092857Y-87554761D01*
X108140476Y-87507142D01*
X108188095Y-87411904D01*
X108188095Y-87316666D01*
X108140476Y-87221428D01*
X108092857Y-87173809D01*
X107997619Y-87126190D01*
X107807142Y-87078571D01*
X107711904Y-87030952D01*
X107664285Y-86983333D01*
X107616666Y-86888095D01*
X107616666Y-86792857D01*
X107664285Y-86697619D01*
X107711904Y-86650000D01*
X107807142Y-86602380D01*
X108045238Y-86602380D01*
X108188095Y-86650000D01*
X108521428Y-86602380D02*
X108759523Y-87602380D01*
X108950000Y-86888095D01*
X109140476Y-87602380D01*
X109378571Y-86602380D01*
X109711904Y-86697619D02*
X109759523Y-86650000D01*
X109854761Y-86602380D01*
X110092857Y-86602380D01*
X110188095Y-86650000D01*
X110235714Y-86697619D01*
X110283333Y-86792857D01*
X110283333Y-86888095D01*
X110235714Y-87030952D01*
X109664285Y-87602380D01*
X110283333Y-87602380D01*
G04 #@! TO.C,U2*
X176742095Y-104732380D02*
X176742095Y-105541904D01*
X176789714Y-105637142D01*
X176837333Y-105684761D01*
X176932571Y-105732380D01*
X177123047Y-105732380D01*
X177218285Y-105684761D01*
X177265904Y-105637142D01*
X177313523Y-105541904D01*
X177313523Y-104732380D01*
X177742095Y-104827619D02*
X177789714Y-104780000D01*
X177884952Y-104732380D01*
X178123047Y-104732380D01*
X178218285Y-104780000D01*
X178265904Y-104827619D01*
X178313523Y-104922857D01*
X178313523Y-105018095D01*
X178265904Y-105160952D01*
X177694476Y-105732380D01*
X178313523Y-105732380D01*
G04 #@! TO.C,U4*
D15*
X156982380Y-92154523D02*
X156982380Y-93182619D01*
X157042857Y-93303571D01*
X157103333Y-93364047D01*
X157224285Y-93424523D01*
X157466190Y-93424523D01*
X157587142Y-93364047D01*
X157647619Y-93303571D01*
X157708095Y-93182619D01*
X157708095Y-92154523D01*
X158857142Y-92577857D02*
X158857142Y-93424523D01*
X158554761Y-92094047D02*
X158252380Y-93001190D01*
X159038571Y-93001190D01*
G04 #@! TO.C,Y1*
D12*
X78733809Y-70526190D02*
X78733809Y-71002380D01*
X78400476Y-70002380D02*
X78733809Y-70526190D01*
X79067142Y-70002380D01*
X79924285Y-71002380D02*
X79352857Y-71002380D01*
X79638571Y-71002380D02*
X79638571Y-70002380D01*
X79543333Y-70145238D01*
X79448095Y-70240476D01*
X79352857Y-70288095D01*
G04 #@! TD*
M02*
