G04 #@! TF.GenerationSoftware,KiCad,Pcbnew,5.0.1-33cea8e~68~ubuntu18.04.1*
G04 #@! TF.CreationDate,2018-11-04T18:28:43+03:00*
G04 #@! TF.ProjectId,AA-PI-Display-Board-RaspberryPi3,41412D50492D446973706C61792D426F,02*
G04 #@! TF.SameCoordinates,Original*
G04 #@! TF.FileFunction,Legend,Bot*
G04 #@! TF.FilePolarity,Positive*
%FSLAX46Y46*%
G04 Gerber Fmt 4.6, Leading zero omitted, Abs format (unit mm)*
G04 Created by KiCad (PCBNEW 5.0.1-33cea8e~68~ubuntu18.04.1) date Sun 04 Nov 2018 18:28:43 MSK*
%MOMM*%
%LPD*%
G01*
G04 APERTURE LIST*
%ADD10C,0.300000*%
%ADD11C,0.120000*%
%ADD12C,0.010000*%
%ADD13C,0.150000*%
G04 APERTURE END LIST*
D10*
X180435714Y-135225000D02*
X180507142Y-135153571D01*
X180650000Y-134939285D01*
X180721428Y-134796428D01*
X180792857Y-134582142D01*
X180864285Y-134225000D01*
X180864285Y-133939285D01*
X180792857Y-133582142D01*
X180721428Y-133367857D01*
X180650000Y-133225000D01*
X180507142Y-133010714D01*
X180435714Y-132939285D01*
X179007142Y-134510714D02*
X179078571Y-134582142D01*
X179292857Y-134653571D01*
X179435714Y-134653571D01*
X179650000Y-134582142D01*
X179792857Y-134439285D01*
X179864285Y-134296428D01*
X179935714Y-134010714D01*
X179935714Y-133796428D01*
X179864285Y-133510714D01*
X179792857Y-133367857D01*
X179650000Y-133225000D01*
X179435714Y-133153571D01*
X179292857Y-133153571D01*
X179078571Y-133225000D01*
X179007142Y-133296428D01*
X178507142Y-135225000D02*
X178435714Y-135153571D01*
X178292857Y-134939285D01*
X178221428Y-134796428D01*
X178150000Y-134582142D01*
X178078571Y-134225000D01*
X178078571Y-133939285D01*
X178150000Y-133582142D01*
X178221428Y-133367857D01*
X178292857Y-133225000D01*
X178435714Y-133010714D01*
X178507142Y-132939285D01*
X176292857Y-133296428D02*
X176221428Y-133225000D01*
X176078571Y-133153571D01*
X175721428Y-133153571D01*
X175578571Y-133225000D01*
X175507142Y-133296428D01*
X175435714Y-133439285D01*
X175435714Y-133582142D01*
X175507142Y-133796428D01*
X176364285Y-134653571D01*
X175435714Y-134653571D01*
X174507142Y-133153571D02*
X174364285Y-133153571D01*
X174221428Y-133225000D01*
X174150000Y-133296428D01*
X174078571Y-133439285D01*
X174007142Y-133725000D01*
X174007142Y-134082142D01*
X174078571Y-134367857D01*
X174150000Y-134510714D01*
X174221428Y-134582142D01*
X174364285Y-134653571D01*
X174507142Y-134653571D01*
X174650000Y-134582142D01*
X174721428Y-134510714D01*
X174792857Y-134367857D01*
X174864285Y-134082142D01*
X174864285Y-133725000D01*
X174792857Y-133439285D01*
X174721428Y-133296428D01*
X174650000Y-133225000D01*
X174507142Y-133153571D01*
X172578571Y-134653571D02*
X173435714Y-134653571D01*
X173007142Y-134653571D02*
X173007142Y-133153571D01*
X173150000Y-133367857D01*
X173292857Y-133510714D01*
X173435714Y-133582142D01*
X171721428Y-133796428D02*
X171864285Y-133725000D01*
X171935714Y-133653571D01*
X172007142Y-133510714D01*
X172007142Y-133439285D01*
X171935714Y-133296428D01*
X171864285Y-133225000D01*
X171721428Y-133153571D01*
X171435714Y-133153571D01*
X171292857Y-133225000D01*
X171221428Y-133296428D01*
X171150000Y-133439285D01*
X171150000Y-133510714D01*
X171221428Y-133653571D01*
X171292857Y-133725000D01*
X171435714Y-133796428D01*
X171721428Y-133796428D01*
X171864285Y-133867857D01*
X171935714Y-133939285D01*
X172007142Y-134082142D01*
X172007142Y-134367857D01*
X171935714Y-134510714D01*
X171864285Y-134582142D01*
X171721428Y-134653571D01*
X171435714Y-134653571D01*
X171292857Y-134582142D01*
X171221428Y-134510714D01*
X171150000Y-134367857D01*
X171150000Y-134082142D01*
X171221428Y-133939285D01*
X171292857Y-133867857D01*
X171435714Y-133796428D01*
X169078571Y-133153571D02*
X168792857Y-133153571D01*
X168650000Y-133225000D01*
X168507142Y-133367857D01*
X168435714Y-133653571D01*
X168435714Y-134153571D01*
X168507142Y-134439285D01*
X168650000Y-134582142D01*
X168792857Y-134653571D01*
X169078571Y-134653571D01*
X169221428Y-134582142D01*
X169364285Y-134439285D01*
X169435714Y-134153571D01*
X169435714Y-133653571D01*
X169364285Y-133367857D01*
X169221428Y-133225000D01*
X169078571Y-133153571D01*
X166935714Y-134653571D02*
X167435714Y-133939285D01*
X167792857Y-134653571D02*
X167792857Y-133153571D01*
X167221428Y-133153571D01*
X167078571Y-133225000D01*
X167007142Y-133296428D01*
X166935714Y-133439285D01*
X166935714Y-133653571D01*
X167007142Y-133796428D01*
X167078571Y-133867857D01*
X167221428Y-133939285D01*
X167792857Y-133939285D01*
X166292857Y-134653571D02*
X166292857Y-133153571D01*
X165721428Y-133153571D01*
X165578571Y-133225000D01*
X165507142Y-133296428D01*
X165435714Y-133439285D01*
X165435714Y-133653571D01*
X165507142Y-133796428D01*
X165578571Y-133867857D01*
X165721428Y-133939285D01*
X166292857Y-133939285D01*
X164864285Y-134225000D02*
X164150000Y-134225000D01*
X165007142Y-134653571D02*
X164507142Y-133153571D01*
X164007142Y-134653571D01*
X162792857Y-134653571D02*
X163507142Y-134653571D01*
X163507142Y-133153571D01*
X162507142Y-133153571D02*
X161650000Y-133153571D01*
X162078571Y-134653571D02*
X162078571Y-133153571D01*
X161150000Y-133867857D02*
X160650000Y-133867857D01*
X160435714Y-134653571D02*
X161150000Y-134653571D01*
X161150000Y-133153571D01*
X160435714Y-133153571D01*
X158935714Y-134510714D02*
X159007142Y-134582142D01*
X159221428Y-134653571D01*
X159364285Y-134653571D01*
X159578571Y-134582142D01*
X159721428Y-134439285D01*
X159792857Y-134296428D01*
X159864285Y-134010714D01*
X159864285Y-133796428D01*
X159792857Y-133510714D01*
X159721428Y-133367857D01*
X159578571Y-133225000D01*
X159364285Y-133153571D01*
X159221428Y-133153571D01*
X159007142Y-133225000D01*
X158935714Y-133296428D01*
X158292857Y-134653571D02*
X158292857Y-133153571D01*
X158292857Y-133867857D02*
X157435714Y-133867857D01*
X157435714Y-134653571D02*
X157435714Y-133153571D01*
X179185714Y-136775000D02*
X178471428Y-136775000D01*
X179328571Y-137203571D02*
X178828571Y-135703571D01*
X178328571Y-137203571D01*
X177900000Y-136775000D02*
X177185714Y-136775000D01*
X178042857Y-137203571D02*
X177542857Y-135703571D01*
X177042857Y-137203571D01*
X176542857Y-136632142D02*
X175400000Y-136632142D01*
X174685714Y-137203571D02*
X174685714Y-135703571D01*
X174114285Y-135703571D01*
X173971428Y-135775000D01*
X173900000Y-135846428D01*
X173828571Y-135989285D01*
X173828571Y-136203571D01*
X173900000Y-136346428D01*
X173971428Y-136417857D01*
X174114285Y-136489285D01*
X174685714Y-136489285D01*
X173185714Y-137203571D02*
X173185714Y-135703571D01*
X171542857Y-135703571D02*
X171042857Y-137203571D01*
X170542857Y-135703571D01*
X169471428Y-137132142D02*
X169614285Y-137203571D01*
X169900000Y-137203571D01*
X170042857Y-137132142D01*
X170114285Y-136989285D01*
X170114285Y-136417857D01*
X170042857Y-136275000D01*
X169900000Y-136203571D01*
X169614285Y-136203571D01*
X169471428Y-136275000D01*
X169400000Y-136417857D01*
X169400000Y-136560714D01*
X170114285Y-136703571D01*
X168757142Y-137203571D02*
X168757142Y-136203571D01*
X168757142Y-136489285D02*
X168685714Y-136346428D01*
X168614285Y-136275000D01*
X168471428Y-136203571D01*
X168328571Y-136203571D01*
X167900000Y-137132142D02*
X167757142Y-137203571D01*
X167471428Y-137203571D01*
X167328571Y-137132142D01*
X167257142Y-136989285D01*
X167257142Y-136917857D01*
X167328571Y-136775000D01*
X167471428Y-136703571D01*
X167685714Y-136703571D01*
X167828571Y-136632142D01*
X167900000Y-136489285D01*
X167900000Y-136417857D01*
X167828571Y-136275000D01*
X167685714Y-136203571D01*
X167471428Y-136203571D01*
X167328571Y-136275000D01*
X166614285Y-137203571D02*
X166614285Y-136203571D01*
X166614285Y-135703571D02*
X166685714Y-135775000D01*
X166614285Y-135846428D01*
X166542857Y-135775000D01*
X166614285Y-135703571D01*
X166614285Y-135846428D01*
X165685714Y-137203571D02*
X165828571Y-137132142D01*
X165900000Y-137060714D01*
X165971428Y-136917857D01*
X165971428Y-136489285D01*
X165900000Y-136346428D01*
X165828571Y-136275000D01*
X165685714Y-136203571D01*
X165471428Y-136203571D01*
X165328571Y-136275000D01*
X165257142Y-136346428D01*
X165185714Y-136489285D01*
X165185714Y-136917857D01*
X165257142Y-137060714D01*
X165328571Y-137132142D01*
X165471428Y-137203571D01*
X165685714Y-137203571D01*
X164542857Y-136203571D02*
X164542857Y-137203571D01*
X164542857Y-136346428D02*
X164471428Y-136275000D01*
X164328571Y-136203571D01*
X164114285Y-136203571D01*
X163971428Y-136275000D01*
X163900000Y-136417857D01*
X163900000Y-137203571D01*
X162114285Y-135846428D02*
X162042857Y-135775000D01*
X161900000Y-135703571D01*
X161542857Y-135703571D01*
X161400000Y-135775000D01*
X161328571Y-135846428D01*
X161257142Y-135989285D01*
X161257142Y-136132142D01*
X161328571Y-136346428D01*
X162185714Y-137203571D01*
X161257142Y-137203571D01*
X160614285Y-137060714D02*
X160542857Y-137132142D01*
X160614285Y-137203571D01*
X160685714Y-137132142D01*
X160614285Y-137060714D01*
X160614285Y-137203571D01*
X159614285Y-135703571D02*
X159471428Y-135703571D01*
X159328571Y-135775000D01*
X159257142Y-135846428D01*
X159185714Y-135989285D01*
X159114285Y-136275000D01*
X159114285Y-136632142D01*
X159185714Y-136917857D01*
X159257142Y-137060714D01*
X159328571Y-137132142D01*
X159471428Y-137203571D01*
X159614285Y-137203571D01*
X159757142Y-137132142D01*
X159828571Y-137060714D01*
X159900000Y-136917857D01*
X159971428Y-136632142D01*
X159971428Y-136275000D01*
X159900000Y-135989285D01*
X159828571Y-135846428D01*
X159757142Y-135775000D01*
X159614285Y-135703571D01*
D11*
G04 #@! TO.C,SW1*
X187200000Y-100260000D02*
X187200000Y-94140000D01*
X187200000Y-94140000D02*
X183500000Y-94140000D01*
X183500000Y-94140000D02*
X183500000Y-100260000D01*
X183500000Y-100260000D02*
X187200000Y-100260000D01*
D12*
G04 #@! TO.C,REF\002A\002A*
G36*
X147063043Y-131726571D02*
X146966768Y-131750809D01*
X146880184Y-131793641D01*
X146805373Y-131853419D01*
X146744418Y-131928494D01*
X146699399Y-132017220D01*
X146673136Y-132113530D01*
X146667286Y-132210795D01*
X146682140Y-132304654D01*
X146715840Y-132392511D01*
X146766528Y-132471770D01*
X146832345Y-132539836D01*
X146911434Y-132594112D01*
X147001934Y-132632002D01*
X147053200Y-132644426D01*
X147097698Y-132651947D01*
X147131999Y-132654919D01*
X147164960Y-132653094D01*
X147205434Y-132646225D01*
X147238531Y-132639250D01*
X147331947Y-132607741D01*
X147415619Y-132556617D01*
X147487665Y-132487429D01*
X147546200Y-132401728D01*
X147560148Y-132374489D01*
X147576586Y-132338122D01*
X147586894Y-132307582D01*
X147592460Y-132275450D01*
X147594669Y-132234307D01*
X147594948Y-132188222D01*
X147590861Y-132103865D01*
X147577446Y-132034586D01*
X147552256Y-131973961D01*
X147512846Y-131915567D01*
X147474298Y-131871302D01*
X147402406Y-131805484D01*
X147327313Y-131760053D01*
X147244562Y-131732850D01*
X147166928Y-131722576D01*
X147063043Y-131726571D01*
X147063043Y-131726571D01*
G37*
X147063043Y-131726571D02*
X146966768Y-131750809D01*
X146880184Y-131793641D01*
X146805373Y-131853419D01*
X146744418Y-131928494D01*
X146699399Y-132017220D01*
X146673136Y-132113530D01*
X146667286Y-132210795D01*
X146682140Y-132304654D01*
X146715840Y-132392511D01*
X146766528Y-132471770D01*
X146832345Y-132539836D01*
X146911434Y-132594112D01*
X147001934Y-132632002D01*
X147053200Y-132644426D01*
X147097698Y-132651947D01*
X147131999Y-132654919D01*
X147164960Y-132653094D01*
X147205434Y-132646225D01*
X147238531Y-132639250D01*
X147331947Y-132607741D01*
X147415619Y-132556617D01*
X147487665Y-132487429D01*
X147546200Y-132401728D01*
X147560148Y-132374489D01*
X147576586Y-132338122D01*
X147586894Y-132307582D01*
X147592460Y-132275450D01*
X147594669Y-132234307D01*
X147594948Y-132188222D01*
X147590861Y-132103865D01*
X147577446Y-132034586D01*
X147552256Y-131973961D01*
X147512846Y-131915567D01*
X147474298Y-131871302D01*
X147402406Y-131805484D01*
X147327313Y-131760053D01*
X147244562Y-131732850D01*
X147166928Y-131722576D01*
X147063043Y-131726571D01*
G36*
X138603493Y-134172245D02*
X138603474Y-134406662D01*
X138603448Y-134619603D01*
X138603375Y-134812168D01*
X138603218Y-134985459D01*
X138602936Y-135140576D01*
X138602491Y-135278620D01*
X138601844Y-135400692D01*
X138600955Y-135507894D01*
X138599787Y-135601326D01*
X138598299Y-135682090D01*
X138596454Y-135751286D01*
X138594211Y-135810015D01*
X138591531Y-135859379D01*
X138588377Y-135900478D01*
X138584708Y-135934413D01*
X138580487Y-135962286D01*
X138575673Y-135985198D01*
X138570227Y-136004249D01*
X138564112Y-136020540D01*
X138557288Y-136035173D01*
X138549715Y-136049249D01*
X138541355Y-136063868D01*
X138536161Y-136072974D01*
X138501896Y-136133689D01*
X139360045Y-136133689D01*
X139360045Y-136037733D01*
X139360776Y-135994370D01*
X139362728Y-135961205D01*
X139365537Y-135943424D01*
X139366779Y-135941778D01*
X139378201Y-135948662D01*
X139400916Y-135966505D01*
X139423615Y-135985879D01*
X139478200Y-136026614D01*
X139547679Y-136067617D01*
X139624730Y-136105123D01*
X139702035Y-136135364D01*
X139732887Y-136145012D01*
X139801384Y-136159578D01*
X139884236Y-136169539D01*
X139973629Y-136174583D01*
X140061752Y-136174396D01*
X140140793Y-136168666D01*
X140178489Y-136162858D01*
X140316586Y-136124797D01*
X140443887Y-136067073D01*
X140559708Y-135990211D01*
X140663363Y-135894739D01*
X140754167Y-135781179D01*
X140820969Y-135670381D01*
X140875836Y-135553625D01*
X140917837Y-135434276D01*
X140947833Y-135308283D01*
X140966689Y-135171594D01*
X140975268Y-135020158D01*
X140975994Y-134942711D01*
X140973900Y-134885934D01*
X140144783Y-134885934D01*
X140144576Y-134979002D01*
X140141663Y-135066692D01*
X140136000Y-135143772D01*
X140127545Y-135205009D01*
X140124962Y-135217350D01*
X140093160Y-135324633D01*
X140051502Y-135411658D01*
X139999637Y-135478642D01*
X139937219Y-135525805D01*
X139863900Y-135553365D01*
X139779331Y-135561541D01*
X139683165Y-135550551D01*
X139619689Y-135534829D01*
X139570546Y-135516639D01*
X139516417Y-135490791D01*
X139475756Y-135467089D01*
X139405200Y-135420721D01*
X139405200Y-134270530D01*
X139472608Y-134226962D01*
X139551133Y-134186040D01*
X139635319Y-134159389D01*
X139720443Y-134147465D01*
X139801784Y-134150722D01*
X139874620Y-134169615D01*
X139906574Y-134185184D01*
X139964499Y-134228181D01*
X140013456Y-134284953D01*
X140054610Y-134357575D01*
X140089126Y-134448121D01*
X140118167Y-134558666D01*
X140119448Y-134564533D01*
X140129619Y-134626788D01*
X140137261Y-134704594D01*
X140142330Y-134792720D01*
X140144783Y-134885934D01*
X140973900Y-134885934D01*
X140968143Y-134729895D01*
X140946198Y-134534059D01*
X140910214Y-134355332D01*
X140860241Y-134193845D01*
X140796332Y-134049726D01*
X140718538Y-133923106D01*
X140626911Y-133814115D01*
X140521503Y-133722883D01*
X140476338Y-133691932D01*
X140375389Y-133635785D01*
X140272099Y-133596174D01*
X140162011Y-133572014D01*
X140040670Y-133562219D01*
X139948164Y-133563265D01*
X139818510Y-133574231D01*
X139705916Y-133596046D01*
X139607125Y-133629714D01*
X139518879Y-133676236D01*
X139470014Y-133710448D01*
X139440647Y-133732362D01*
X139418957Y-133747333D01*
X139410747Y-133751733D01*
X139409132Y-133740904D01*
X139407841Y-133710251D01*
X139406862Y-133662526D01*
X139406183Y-133600479D01*
X139405790Y-133526862D01*
X139405670Y-133444427D01*
X139405812Y-133355925D01*
X139406203Y-133264107D01*
X139406829Y-133171724D01*
X139407680Y-133081528D01*
X139408740Y-132996271D01*
X139409999Y-132918703D01*
X139411444Y-132851576D01*
X139413062Y-132797641D01*
X139414839Y-132759650D01*
X139415331Y-132752667D01*
X139422908Y-132682251D01*
X139434469Y-132627102D01*
X139452208Y-132579981D01*
X139478318Y-132533647D01*
X139484585Y-132524067D01*
X139509017Y-132487378D01*
X138603689Y-132487378D01*
X138603493Y-134172245D01*
X138603493Y-134172245D01*
G37*
X138603493Y-134172245D02*
X138603474Y-134406662D01*
X138603448Y-134619603D01*
X138603375Y-134812168D01*
X138603218Y-134985459D01*
X138602936Y-135140576D01*
X138602491Y-135278620D01*
X138601844Y-135400692D01*
X138600955Y-135507894D01*
X138599787Y-135601326D01*
X138598299Y-135682090D01*
X138596454Y-135751286D01*
X138594211Y-135810015D01*
X138591531Y-135859379D01*
X138588377Y-135900478D01*
X138584708Y-135934413D01*
X138580487Y-135962286D01*
X138575673Y-135985198D01*
X138570227Y-136004249D01*
X138564112Y-136020540D01*
X138557288Y-136035173D01*
X138549715Y-136049249D01*
X138541355Y-136063868D01*
X138536161Y-136072974D01*
X138501896Y-136133689D01*
X139360045Y-136133689D01*
X139360045Y-136037733D01*
X139360776Y-135994370D01*
X139362728Y-135961205D01*
X139365537Y-135943424D01*
X139366779Y-135941778D01*
X139378201Y-135948662D01*
X139400916Y-135966505D01*
X139423615Y-135985879D01*
X139478200Y-136026614D01*
X139547679Y-136067617D01*
X139624730Y-136105123D01*
X139702035Y-136135364D01*
X139732887Y-136145012D01*
X139801384Y-136159578D01*
X139884236Y-136169539D01*
X139973629Y-136174583D01*
X140061752Y-136174396D01*
X140140793Y-136168666D01*
X140178489Y-136162858D01*
X140316586Y-136124797D01*
X140443887Y-136067073D01*
X140559708Y-135990211D01*
X140663363Y-135894739D01*
X140754167Y-135781179D01*
X140820969Y-135670381D01*
X140875836Y-135553625D01*
X140917837Y-135434276D01*
X140947833Y-135308283D01*
X140966689Y-135171594D01*
X140975268Y-135020158D01*
X140975994Y-134942711D01*
X140973900Y-134885934D01*
X140144783Y-134885934D01*
X140144576Y-134979002D01*
X140141663Y-135066692D01*
X140136000Y-135143772D01*
X140127545Y-135205009D01*
X140124962Y-135217350D01*
X140093160Y-135324633D01*
X140051502Y-135411658D01*
X139999637Y-135478642D01*
X139937219Y-135525805D01*
X139863900Y-135553365D01*
X139779331Y-135561541D01*
X139683165Y-135550551D01*
X139619689Y-135534829D01*
X139570546Y-135516639D01*
X139516417Y-135490791D01*
X139475756Y-135467089D01*
X139405200Y-135420721D01*
X139405200Y-134270530D01*
X139472608Y-134226962D01*
X139551133Y-134186040D01*
X139635319Y-134159389D01*
X139720443Y-134147465D01*
X139801784Y-134150722D01*
X139874620Y-134169615D01*
X139906574Y-134185184D01*
X139964499Y-134228181D01*
X140013456Y-134284953D01*
X140054610Y-134357575D01*
X140089126Y-134448121D01*
X140118167Y-134558666D01*
X140119448Y-134564533D01*
X140129619Y-134626788D01*
X140137261Y-134704594D01*
X140142330Y-134792720D01*
X140144783Y-134885934D01*
X140973900Y-134885934D01*
X140968143Y-134729895D01*
X140946198Y-134534059D01*
X140910214Y-134355332D01*
X140860241Y-134193845D01*
X140796332Y-134049726D01*
X140718538Y-133923106D01*
X140626911Y-133814115D01*
X140521503Y-133722883D01*
X140476338Y-133691932D01*
X140375389Y-133635785D01*
X140272099Y-133596174D01*
X140162011Y-133572014D01*
X140040670Y-133562219D01*
X139948164Y-133563265D01*
X139818510Y-133574231D01*
X139705916Y-133596046D01*
X139607125Y-133629714D01*
X139518879Y-133676236D01*
X139470014Y-133710448D01*
X139440647Y-133732362D01*
X139418957Y-133747333D01*
X139410747Y-133751733D01*
X139409132Y-133740904D01*
X139407841Y-133710251D01*
X139406862Y-133662526D01*
X139406183Y-133600479D01*
X139405790Y-133526862D01*
X139405670Y-133444427D01*
X139405812Y-133355925D01*
X139406203Y-133264107D01*
X139406829Y-133171724D01*
X139407680Y-133081528D01*
X139408740Y-132996271D01*
X139409999Y-132918703D01*
X139411444Y-132851576D01*
X139413062Y-132797641D01*
X139414839Y-132759650D01*
X139415331Y-132752667D01*
X139422908Y-132682251D01*
X139434469Y-132627102D01*
X139452208Y-132579981D01*
X139478318Y-132533647D01*
X139484585Y-132524067D01*
X139509017Y-132487378D01*
X138603689Y-132487378D01*
X138603493Y-134172245D01*
G36*
X142116426Y-133566552D02*
X141964508Y-133586567D01*
X141829244Y-133620202D01*
X141709761Y-133667725D01*
X141605185Y-133729405D01*
X141527576Y-133792965D01*
X141458735Y-133867099D01*
X141404994Y-133946871D01*
X141362090Y-134039091D01*
X141346616Y-134082161D01*
X141333756Y-134121142D01*
X141322554Y-134157289D01*
X141312880Y-134192434D01*
X141304604Y-134228410D01*
X141297597Y-134267050D01*
X141291728Y-134310185D01*
X141286869Y-134359649D01*
X141282890Y-134417273D01*
X141279660Y-134484891D01*
X141277051Y-134564334D01*
X141274933Y-134657436D01*
X141273176Y-134766027D01*
X141271651Y-134891942D01*
X141270228Y-135037012D01*
X141268975Y-135179778D01*
X141267649Y-135335968D01*
X141266444Y-135471239D01*
X141265234Y-135587246D01*
X141263894Y-135685645D01*
X141262300Y-135768093D01*
X141260325Y-135836246D01*
X141257844Y-135891760D01*
X141254731Y-135936292D01*
X141250862Y-135971498D01*
X141246111Y-135999034D01*
X141240352Y-136020556D01*
X141233461Y-136037722D01*
X141225311Y-136052186D01*
X141215777Y-136065606D01*
X141204734Y-136079638D01*
X141200434Y-136085071D01*
X141184614Y-136107910D01*
X141177578Y-136123463D01*
X141177556Y-136123922D01*
X141188433Y-136126121D01*
X141219418Y-136128147D01*
X141268043Y-136129942D01*
X141331837Y-136131451D01*
X141408331Y-136132616D01*
X141495056Y-136133380D01*
X141589543Y-136133686D01*
X141600450Y-136133689D01*
X142023343Y-136133689D01*
X142026605Y-136037622D01*
X142029867Y-135941556D01*
X142091956Y-135992543D01*
X142189286Y-136060057D01*
X142299187Y-136114749D01*
X142385651Y-136144978D01*
X142454722Y-136159666D01*
X142538075Y-136169659D01*
X142627841Y-136174646D01*
X142716155Y-136174313D01*
X142795149Y-136168351D01*
X142831378Y-136162638D01*
X142971397Y-136124776D01*
X143097822Y-136069932D01*
X143209740Y-135998924D01*
X143306238Y-135912568D01*
X143386400Y-135811679D01*
X143449313Y-135697076D01*
X143493688Y-135570984D01*
X143506022Y-135514401D01*
X143513632Y-135452202D01*
X143517261Y-135377363D01*
X143517755Y-135343467D01*
X143517690Y-135340282D01*
X142757752Y-135340282D01*
X142748459Y-135415333D01*
X142720272Y-135479160D01*
X142671803Y-135534798D01*
X142666746Y-135539211D01*
X142618452Y-135574037D01*
X142566743Y-135596620D01*
X142506011Y-135608540D01*
X142430648Y-135611383D01*
X142412541Y-135610978D01*
X142358722Y-135608325D01*
X142318692Y-135602909D01*
X142283676Y-135592745D01*
X142244897Y-135575850D01*
X142234255Y-135570672D01*
X142173604Y-135534844D01*
X142126785Y-135492212D01*
X142114048Y-135476973D01*
X142069378Y-135420462D01*
X142069378Y-135224586D01*
X142069914Y-135145939D01*
X142071604Y-135087988D01*
X142074572Y-135048875D01*
X142078943Y-135026741D01*
X142083028Y-135020274D01*
X142098953Y-135017111D01*
X142132736Y-135014488D01*
X142179660Y-135012655D01*
X142235007Y-135011857D01*
X142243894Y-135011842D01*
X142364670Y-135017096D01*
X142467340Y-135033263D01*
X142553894Y-135060961D01*
X142626319Y-135100808D01*
X142681249Y-135147758D01*
X142725796Y-135205645D01*
X142750520Y-135268693D01*
X142757752Y-135340282D01*
X143517690Y-135340282D01*
X143515822Y-135249712D01*
X143507478Y-135170812D01*
X143491232Y-135099590D01*
X143465595Y-135028864D01*
X143441599Y-134976493D01*
X143382980Y-134881196D01*
X143304883Y-134793170D01*
X143209685Y-134714017D01*
X143099762Y-134645340D01*
X142977490Y-134588741D01*
X142845245Y-134545821D01*
X142780578Y-134530882D01*
X142644396Y-134508777D01*
X142495951Y-134494194D01*
X142344495Y-134487813D01*
X142217936Y-134489445D01*
X142056050Y-134496224D01*
X142063470Y-134437245D01*
X142082762Y-134338092D01*
X142113896Y-134257372D01*
X142157731Y-134194466D01*
X142215129Y-134148756D01*
X142286952Y-134119622D01*
X142374059Y-134106447D01*
X142477314Y-134108611D01*
X142515289Y-134112612D01*
X142656480Y-134137780D01*
X142793293Y-134178814D01*
X142887822Y-134216815D01*
X142932982Y-134236190D01*
X142971415Y-134251760D01*
X142997766Y-134261405D01*
X143005454Y-134263452D01*
X143015198Y-134254374D01*
X143031917Y-134225405D01*
X143055768Y-134176217D01*
X143086907Y-134106484D01*
X143125493Y-134015879D01*
X143132090Y-134000089D01*
X143162147Y-133927772D01*
X143189126Y-133862425D01*
X143211864Y-133806906D01*
X143229194Y-133764072D01*
X143239952Y-133736781D01*
X143243059Y-133727942D01*
X143233060Y-133723187D01*
X143206783Y-133717910D01*
X143178511Y-133714231D01*
X143148354Y-133709474D01*
X143100567Y-133700028D01*
X143039388Y-133686820D01*
X142969054Y-133670776D01*
X142893806Y-133652820D01*
X142865245Y-133645797D01*
X142760184Y-133620209D01*
X142672520Y-133600147D01*
X142597932Y-133584969D01*
X142532097Y-133574035D01*
X142470693Y-133566704D01*
X142409398Y-133562335D01*
X142343890Y-133560287D01*
X142285872Y-133559889D01*
X142116426Y-133566552D01*
X142116426Y-133566552D01*
G37*
X142116426Y-133566552D02*
X141964508Y-133586567D01*
X141829244Y-133620202D01*
X141709761Y-133667725D01*
X141605185Y-133729405D01*
X141527576Y-133792965D01*
X141458735Y-133867099D01*
X141404994Y-133946871D01*
X141362090Y-134039091D01*
X141346616Y-134082161D01*
X141333756Y-134121142D01*
X141322554Y-134157289D01*
X141312880Y-134192434D01*
X141304604Y-134228410D01*
X141297597Y-134267050D01*
X141291728Y-134310185D01*
X141286869Y-134359649D01*
X141282890Y-134417273D01*
X141279660Y-134484891D01*
X141277051Y-134564334D01*
X141274933Y-134657436D01*
X141273176Y-134766027D01*
X141271651Y-134891942D01*
X141270228Y-135037012D01*
X141268975Y-135179778D01*
X141267649Y-135335968D01*
X141266444Y-135471239D01*
X141265234Y-135587246D01*
X141263894Y-135685645D01*
X141262300Y-135768093D01*
X141260325Y-135836246D01*
X141257844Y-135891760D01*
X141254731Y-135936292D01*
X141250862Y-135971498D01*
X141246111Y-135999034D01*
X141240352Y-136020556D01*
X141233461Y-136037722D01*
X141225311Y-136052186D01*
X141215777Y-136065606D01*
X141204734Y-136079638D01*
X141200434Y-136085071D01*
X141184614Y-136107910D01*
X141177578Y-136123463D01*
X141177556Y-136123922D01*
X141188433Y-136126121D01*
X141219418Y-136128147D01*
X141268043Y-136129942D01*
X141331837Y-136131451D01*
X141408331Y-136132616D01*
X141495056Y-136133380D01*
X141589543Y-136133686D01*
X141600450Y-136133689D01*
X142023343Y-136133689D01*
X142026605Y-136037622D01*
X142029867Y-135941556D01*
X142091956Y-135992543D01*
X142189286Y-136060057D01*
X142299187Y-136114749D01*
X142385651Y-136144978D01*
X142454722Y-136159666D01*
X142538075Y-136169659D01*
X142627841Y-136174646D01*
X142716155Y-136174313D01*
X142795149Y-136168351D01*
X142831378Y-136162638D01*
X142971397Y-136124776D01*
X143097822Y-136069932D01*
X143209740Y-135998924D01*
X143306238Y-135912568D01*
X143386400Y-135811679D01*
X143449313Y-135697076D01*
X143493688Y-135570984D01*
X143506022Y-135514401D01*
X143513632Y-135452202D01*
X143517261Y-135377363D01*
X143517755Y-135343467D01*
X143517690Y-135340282D01*
X142757752Y-135340282D01*
X142748459Y-135415333D01*
X142720272Y-135479160D01*
X142671803Y-135534798D01*
X142666746Y-135539211D01*
X142618452Y-135574037D01*
X142566743Y-135596620D01*
X142506011Y-135608540D01*
X142430648Y-135611383D01*
X142412541Y-135610978D01*
X142358722Y-135608325D01*
X142318692Y-135602909D01*
X142283676Y-135592745D01*
X142244897Y-135575850D01*
X142234255Y-135570672D01*
X142173604Y-135534844D01*
X142126785Y-135492212D01*
X142114048Y-135476973D01*
X142069378Y-135420462D01*
X142069378Y-135224586D01*
X142069914Y-135145939D01*
X142071604Y-135087988D01*
X142074572Y-135048875D01*
X142078943Y-135026741D01*
X142083028Y-135020274D01*
X142098953Y-135017111D01*
X142132736Y-135014488D01*
X142179660Y-135012655D01*
X142235007Y-135011857D01*
X142243894Y-135011842D01*
X142364670Y-135017096D01*
X142467340Y-135033263D01*
X142553894Y-135060961D01*
X142626319Y-135100808D01*
X142681249Y-135147758D01*
X142725796Y-135205645D01*
X142750520Y-135268693D01*
X142757752Y-135340282D01*
X143517690Y-135340282D01*
X143515822Y-135249712D01*
X143507478Y-135170812D01*
X143491232Y-135099590D01*
X143465595Y-135028864D01*
X143441599Y-134976493D01*
X143382980Y-134881196D01*
X143304883Y-134793170D01*
X143209685Y-134714017D01*
X143099762Y-134645340D01*
X142977490Y-134588741D01*
X142845245Y-134545821D01*
X142780578Y-134530882D01*
X142644396Y-134508777D01*
X142495951Y-134494194D01*
X142344495Y-134487813D01*
X142217936Y-134489445D01*
X142056050Y-134496224D01*
X142063470Y-134437245D01*
X142082762Y-134338092D01*
X142113896Y-134257372D01*
X142157731Y-134194466D01*
X142215129Y-134148756D01*
X142286952Y-134119622D01*
X142374059Y-134106447D01*
X142477314Y-134108611D01*
X142515289Y-134112612D01*
X142656480Y-134137780D01*
X142793293Y-134178814D01*
X142887822Y-134216815D01*
X142932982Y-134236190D01*
X142971415Y-134251760D01*
X142997766Y-134261405D01*
X143005454Y-134263452D01*
X143015198Y-134254374D01*
X143031917Y-134225405D01*
X143055768Y-134176217D01*
X143086907Y-134106484D01*
X143125493Y-134015879D01*
X143132090Y-134000089D01*
X143162147Y-133927772D01*
X143189126Y-133862425D01*
X143211864Y-133806906D01*
X143229194Y-133764072D01*
X143239952Y-133736781D01*
X143243059Y-133727942D01*
X143233060Y-133723187D01*
X143206783Y-133717910D01*
X143178511Y-133714231D01*
X143148354Y-133709474D01*
X143100567Y-133700028D01*
X143039388Y-133686820D01*
X142969054Y-133670776D01*
X142893806Y-133652820D01*
X142865245Y-133645797D01*
X142760184Y-133620209D01*
X142672520Y-133600147D01*
X142597932Y-133584969D01*
X142532097Y-133574035D01*
X142470693Y-133566704D01*
X142409398Y-133562335D01*
X142343890Y-133560287D01*
X142285872Y-133559889D01*
X142116426Y-133566552D01*
G36*
X144461571Y-132649071D02*
X144301430Y-132670245D01*
X144137490Y-132710385D01*
X143967687Y-132769889D01*
X143789957Y-132849154D01*
X143778690Y-132854699D01*
X143720995Y-132882725D01*
X143669448Y-132906802D01*
X143627809Y-132925249D01*
X143599838Y-132936386D01*
X143590267Y-132938933D01*
X143571050Y-132943941D01*
X143566439Y-132948147D01*
X143571542Y-132958580D01*
X143587582Y-132984868D01*
X143612712Y-133024257D01*
X143645086Y-133073991D01*
X143682857Y-133131315D01*
X143724178Y-133193476D01*
X143767202Y-133257718D01*
X143810083Y-133321285D01*
X143850974Y-133381425D01*
X143888029Y-133435380D01*
X143919400Y-133480397D01*
X143943241Y-133513721D01*
X143957706Y-133532597D01*
X143959691Y-133534787D01*
X143969809Y-133530138D01*
X143992150Y-133512962D01*
X144022720Y-133486440D01*
X144038464Y-133471964D01*
X144134953Y-133396682D01*
X144241664Y-133341241D01*
X144357168Y-133306141D01*
X144480038Y-133291880D01*
X144549439Y-133293051D01*
X144670577Y-133310212D01*
X144779795Y-133346094D01*
X144877418Y-133400959D01*
X144963772Y-133475070D01*
X145039185Y-133568688D01*
X145103982Y-133682076D01*
X145141399Y-133768667D01*
X145185252Y-133904366D01*
X145217572Y-134051850D01*
X145238443Y-134207314D01*
X145247949Y-134366956D01*
X145246173Y-134526973D01*
X145233197Y-134683561D01*
X145209106Y-134832918D01*
X145173982Y-134971240D01*
X145127908Y-135094724D01*
X145111627Y-135128978D01*
X145043380Y-135243064D01*
X144962921Y-135339557D01*
X144871430Y-135417670D01*
X144770089Y-135476617D01*
X144660080Y-135515612D01*
X144542585Y-135533868D01*
X144501117Y-135535211D01*
X144379559Y-135524290D01*
X144259122Y-135491474D01*
X144141334Y-135437439D01*
X144027723Y-135362865D01*
X143936315Y-135284539D01*
X143889785Y-135240008D01*
X143708517Y-135537271D01*
X143663420Y-135611433D01*
X143622181Y-135679646D01*
X143586265Y-135739459D01*
X143557134Y-135788420D01*
X143536250Y-135824079D01*
X143525076Y-135843984D01*
X143523625Y-135847079D01*
X143531854Y-135856718D01*
X143557433Y-135873999D01*
X143597127Y-135897283D01*
X143647703Y-135924934D01*
X143705926Y-135955315D01*
X143768563Y-135986790D01*
X143832379Y-136017722D01*
X143894140Y-136046473D01*
X143950612Y-136071408D01*
X143998562Y-136090889D01*
X144022014Y-136099318D01*
X144155779Y-136137133D01*
X144293673Y-136162136D01*
X144441378Y-136175140D01*
X144568167Y-136177468D01*
X144636122Y-136176373D01*
X144701723Y-136174275D01*
X144759153Y-136171434D01*
X144802597Y-136168106D01*
X144816702Y-136166422D01*
X144955716Y-136137587D01*
X145097243Y-136092468D01*
X145234725Y-136033750D01*
X145361606Y-135964120D01*
X145439111Y-135911441D01*
X145566519Y-135803239D01*
X145684822Y-135676671D01*
X145791828Y-135534866D01*
X145885348Y-135380951D01*
X145963190Y-135218053D01*
X146007044Y-135100756D01*
X146057292Y-134917128D01*
X146090791Y-134722581D01*
X146107551Y-134521325D01*
X146107584Y-134317568D01*
X146090899Y-134115521D01*
X146057507Y-133919392D01*
X146007420Y-133733391D01*
X146003603Y-133721803D01*
X145940719Y-133559750D01*
X145863972Y-133411832D01*
X145770758Y-133273865D01*
X145658473Y-133141661D01*
X145614608Y-133096399D01*
X145478466Y-132972457D01*
X145338509Y-132869915D01*
X145192589Y-132787656D01*
X145038558Y-132724564D01*
X144874268Y-132679523D01*
X144778711Y-132662033D01*
X144619977Y-132646466D01*
X144461571Y-132649071D01*
X144461571Y-132649071D01*
G37*
X144461571Y-132649071D02*
X144301430Y-132670245D01*
X144137490Y-132710385D01*
X143967687Y-132769889D01*
X143789957Y-132849154D01*
X143778690Y-132854699D01*
X143720995Y-132882725D01*
X143669448Y-132906802D01*
X143627809Y-132925249D01*
X143599838Y-132936386D01*
X143590267Y-132938933D01*
X143571050Y-132943941D01*
X143566439Y-132948147D01*
X143571542Y-132958580D01*
X143587582Y-132984868D01*
X143612712Y-133024257D01*
X143645086Y-133073991D01*
X143682857Y-133131315D01*
X143724178Y-133193476D01*
X143767202Y-133257718D01*
X143810083Y-133321285D01*
X143850974Y-133381425D01*
X143888029Y-133435380D01*
X143919400Y-133480397D01*
X143943241Y-133513721D01*
X143957706Y-133532597D01*
X143959691Y-133534787D01*
X143969809Y-133530138D01*
X143992150Y-133512962D01*
X144022720Y-133486440D01*
X144038464Y-133471964D01*
X144134953Y-133396682D01*
X144241664Y-133341241D01*
X144357168Y-133306141D01*
X144480038Y-133291880D01*
X144549439Y-133293051D01*
X144670577Y-133310212D01*
X144779795Y-133346094D01*
X144877418Y-133400959D01*
X144963772Y-133475070D01*
X145039185Y-133568688D01*
X145103982Y-133682076D01*
X145141399Y-133768667D01*
X145185252Y-133904366D01*
X145217572Y-134051850D01*
X145238443Y-134207314D01*
X145247949Y-134366956D01*
X145246173Y-134526973D01*
X145233197Y-134683561D01*
X145209106Y-134832918D01*
X145173982Y-134971240D01*
X145127908Y-135094724D01*
X145111627Y-135128978D01*
X145043380Y-135243064D01*
X144962921Y-135339557D01*
X144871430Y-135417670D01*
X144770089Y-135476617D01*
X144660080Y-135515612D01*
X144542585Y-135533868D01*
X144501117Y-135535211D01*
X144379559Y-135524290D01*
X144259122Y-135491474D01*
X144141334Y-135437439D01*
X144027723Y-135362865D01*
X143936315Y-135284539D01*
X143889785Y-135240008D01*
X143708517Y-135537271D01*
X143663420Y-135611433D01*
X143622181Y-135679646D01*
X143586265Y-135739459D01*
X143557134Y-135788420D01*
X143536250Y-135824079D01*
X143525076Y-135843984D01*
X143523625Y-135847079D01*
X143531854Y-135856718D01*
X143557433Y-135873999D01*
X143597127Y-135897283D01*
X143647703Y-135924934D01*
X143705926Y-135955315D01*
X143768563Y-135986790D01*
X143832379Y-136017722D01*
X143894140Y-136046473D01*
X143950612Y-136071408D01*
X143998562Y-136090889D01*
X144022014Y-136099318D01*
X144155779Y-136137133D01*
X144293673Y-136162136D01*
X144441378Y-136175140D01*
X144568167Y-136177468D01*
X144636122Y-136176373D01*
X144701723Y-136174275D01*
X144759153Y-136171434D01*
X144802597Y-136168106D01*
X144816702Y-136166422D01*
X144955716Y-136137587D01*
X145097243Y-136092468D01*
X145234725Y-136033750D01*
X145361606Y-135964120D01*
X145439111Y-135911441D01*
X145566519Y-135803239D01*
X145684822Y-135676671D01*
X145791828Y-135534866D01*
X145885348Y-135380951D01*
X145963190Y-135218053D01*
X146007044Y-135100756D01*
X146057292Y-134917128D01*
X146090791Y-134722581D01*
X146107551Y-134521325D01*
X146107584Y-134317568D01*
X146090899Y-134115521D01*
X146057507Y-133919392D01*
X146007420Y-133733391D01*
X146003603Y-133721803D01*
X145940719Y-133559750D01*
X145863972Y-133411832D01*
X145770758Y-133273865D01*
X145658473Y-133141661D01*
X145614608Y-133096399D01*
X145478466Y-132972457D01*
X145338509Y-132869915D01*
X145192589Y-132787656D01*
X145038558Y-132724564D01*
X144874268Y-132679523D01*
X144778711Y-132662033D01*
X144619977Y-132646466D01*
X144461571Y-132649071D01*
G36*
X147736400Y-132189054D02*
X147725535Y-132302993D01*
X147693918Y-132410616D01*
X147643015Y-132509615D01*
X147574293Y-132597684D01*
X147489219Y-132672516D01*
X147392232Y-132730384D01*
X147285964Y-132770005D01*
X147178950Y-132788573D01*
X147073300Y-132787434D01*
X146971125Y-132767930D01*
X146874534Y-132731406D01*
X146785638Y-132679205D01*
X146706546Y-132612673D01*
X146639369Y-132533152D01*
X146586217Y-132441987D01*
X146549199Y-132340523D01*
X146530427Y-132230102D01*
X146528489Y-132180206D01*
X146528489Y-132092267D01*
X146476560Y-132092267D01*
X146440253Y-132095111D01*
X146413355Y-132106911D01*
X146386249Y-132130649D01*
X146347867Y-132169031D01*
X146347867Y-134360602D01*
X146347876Y-134622739D01*
X146347908Y-134863241D01*
X146347972Y-135083048D01*
X146348076Y-135283101D01*
X146348227Y-135464344D01*
X146348434Y-135627716D01*
X146348706Y-135774160D01*
X146349050Y-135904617D01*
X146349474Y-136020029D01*
X146349987Y-136121338D01*
X146350597Y-136209484D01*
X146351312Y-136285410D01*
X146352140Y-136350057D01*
X146353089Y-136404367D01*
X146354167Y-136449280D01*
X146355383Y-136485740D01*
X146356745Y-136514687D01*
X146358261Y-136537063D01*
X146359938Y-136553809D01*
X146361786Y-136565868D01*
X146363813Y-136574180D01*
X146366025Y-136579687D01*
X146367108Y-136581537D01*
X146371271Y-136588549D01*
X146374805Y-136594996D01*
X146378635Y-136600900D01*
X146383682Y-136606286D01*
X146390871Y-136611178D01*
X146401123Y-136615598D01*
X146415364Y-136619572D01*
X146434514Y-136623121D01*
X146459499Y-136626270D01*
X146491240Y-136629042D01*
X146530662Y-136631461D01*
X146578686Y-136633551D01*
X146636237Y-136635335D01*
X146704237Y-136636837D01*
X146783610Y-136638080D01*
X146875279Y-136639089D01*
X146980166Y-136639885D01*
X147099196Y-136640494D01*
X147233290Y-136640939D01*
X147383373Y-136641243D01*
X147550367Y-136641430D01*
X147735196Y-136641524D01*
X147938783Y-136641548D01*
X148162050Y-136641525D01*
X148405922Y-136641480D01*
X148671321Y-136641437D01*
X148709704Y-136641432D01*
X148976682Y-136641389D01*
X149222002Y-136641318D01*
X149446583Y-136641213D01*
X149651345Y-136641066D01*
X149837206Y-136640869D01*
X150005088Y-136640616D01*
X150155908Y-136640300D01*
X150290587Y-136639913D01*
X150410044Y-136639447D01*
X150515199Y-136638897D01*
X150606971Y-136638253D01*
X150686279Y-136637511D01*
X150754043Y-136636661D01*
X150811182Y-136635697D01*
X150858617Y-136634611D01*
X150897266Y-136633397D01*
X150928049Y-136632047D01*
X150951885Y-136630555D01*
X150969694Y-136628911D01*
X150982395Y-136627111D01*
X150990908Y-136625145D01*
X150995266Y-136623477D01*
X151003728Y-136619906D01*
X151011497Y-136617270D01*
X151018602Y-136614634D01*
X151025073Y-136611062D01*
X151030939Y-136605621D01*
X151036229Y-136597375D01*
X151040974Y-136585390D01*
X151045202Y-136568731D01*
X151048943Y-136546463D01*
X151052227Y-136517652D01*
X151055083Y-136481363D01*
X151057540Y-136436661D01*
X151059629Y-136382611D01*
X151061378Y-136318279D01*
X151062817Y-136242730D01*
X151063976Y-136155030D01*
X151064883Y-136054243D01*
X151065569Y-135939434D01*
X151066063Y-135809670D01*
X151066395Y-135664015D01*
X151066593Y-135501535D01*
X151066687Y-135321295D01*
X151066708Y-135122360D01*
X151066685Y-134903796D01*
X151066646Y-134664668D01*
X151066622Y-134404040D01*
X151066622Y-134361889D01*
X151066636Y-134098992D01*
X151066661Y-133857732D01*
X151066671Y-133637165D01*
X151066642Y-133436352D01*
X151066548Y-133254349D01*
X151066362Y-133090216D01*
X151066059Y-132943011D01*
X151065614Y-132811792D01*
X151065034Y-132701867D01*
X150762197Y-132701867D01*
X150722407Y-132759711D01*
X150711236Y-132775479D01*
X150701166Y-132789441D01*
X150692138Y-132802784D01*
X150684097Y-132816693D01*
X150676986Y-132832356D01*
X150670747Y-132850958D01*
X150665325Y-132873686D01*
X150660662Y-132901727D01*
X150656701Y-132936267D01*
X150653385Y-132978492D01*
X150650659Y-133029589D01*
X150648464Y-133090744D01*
X150646745Y-133163144D01*
X150645444Y-133247975D01*
X150644505Y-133346422D01*
X150643870Y-133459674D01*
X150643484Y-133588916D01*
X150643288Y-133735334D01*
X150643227Y-133900116D01*
X150643243Y-134084447D01*
X150643280Y-134289513D01*
X150643289Y-134412133D01*
X150643265Y-134629082D01*
X150643231Y-134824642D01*
X150643243Y-134999999D01*
X150643358Y-135156341D01*
X150643630Y-135294857D01*
X150644118Y-135416734D01*
X150644876Y-135523160D01*
X150645962Y-135615322D01*
X150647431Y-135694409D01*
X150649340Y-135761608D01*
X150651744Y-135818107D01*
X150654701Y-135865093D01*
X150658266Y-135903755D01*
X150662495Y-135935280D01*
X150667446Y-135960855D01*
X150673173Y-135981670D01*
X150679733Y-135998911D01*
X150687183Y-136013765D01*
X150695579Y-136027422D01*
X150704976Y-136041069D01*
X150715432Y-136055893D01*
X150721523Y-136064783D01*
X150760296Y-136122400D01*
X150228732Y-136122400D01*
X150105483Y-136122365D01*
X150002987Y-136122215D01*
X149919420Y-136121878D01*
X149852956Y-136121286D01*
X149801771Y-136120367D01*
X149764041Y-136119051D01*
X149737940Y-136117269D01*
X149721644Y-136114951D01*
X149713328Y-136112026D01*
X149711168Y-136108424D01*
X149713339Y-136104075D01*
X149714535Y-136102645D01*
X149739685Y-136065573D01*
X149765583Y-136012772D01*
X149789192Y-135950770D01*
X149797461Y-135924357D01*
X149802078Y-135906416D01*
X149805979Y-135885355D01*
X149809248Y-135859089D01*
X149811966Y-135825532D01*
X149814215Y-135782599D01*
X149816077Y-135728204D01*
X149817636Y-135660262D01*
X149818972Y-135576688D01*
X149820169Y-135475395D01*
X149821308Y-135354300D01*
X149821685Y-135309600D01*
X149822702Y-135184449D01*
X149823460Y-135080082D01*
X149823903Y-134994707D01*
X149823970Y-134926533D01*
X149823605Y-134873765D01*
X149822748Y-134834614D01*
X149821341Y-134807285D01*
X149819325Y-134789986D01*
X149816643Y-134780926D01*
X149813236Y-134778312D01*
X149809044Y-134780351D01*
X149804571Y-134784667D01*
X149794216Y-134797602D01*
X149772158Y-134826676D01*
X149739957Y-134869759D01*
X149699174Y-134924718D01*
X149651370Y-134989423D01*
X149598105Y-135061742D01*
X149540940Y-135139544D01*
X149481437Y-135220698D01*
X149421155Y-135303072D01*
X149361655Y-135384536D01*
X149304498Y-135462957D01*
X149251245Y-135536204D01*
X149203457Y-135602147D01*
X149162693Y-135658654D01*
X149130516Y-135703593D01*
X149108485Y-135734834D01*
X149103917Y-135741466D01*
X149080996Y-135778369D01*
X149054188Y-135826359D01*
X149028789Y-135875897D01*
X149025568Y-135882577D01*
X149003890Y-135930772D01*
X148991304Y-135968334D01*
X148985574Y-136004160D01*
X148984456Y-136046200D01*
X148985090Y-136122400D01*
X147830651Y-136122400D01*
X147921815Y-136028669D01*
X147968612Y-135978775D01*
X148018899Y-135922295D01*
X148064944Y-135868026D01*
X148085369Y-135842673D01*
X148115807Y-135803128D01*
X148155862Y-135749916D01*
X148204361Y-135684667D01*
X148260135Y-135609011D01*
X148322011Y-135524577D01*
X148388819Y-135432994D01*
X148459387Y-135335892D01*
X148532545Y-135234901D01*
X148607121Y-135131650D01*
X148681944Y-135027768D01*
X148755843Y-134924885D01*
X148827646Y-134824631D01*
X148896184Y-134728636D01*
X148960284Y-134638527D01*
X149018775Y-134555936D01*
X149070486Y-134482492D01*
X149114247Y-134419824D01*
X149148885Y-134369561D01*
X149173230Y-134333334D01*
X149186111Y-134312771D01*
X149187869Y-134308668D01*
X149179910Y-134297342D01*
X149159115Y-134270162D01*
X149126847Y-134228829D01*
X149084470Y-134175044D01*
X149033347Y-134110506D01*
X148974841Y-134036918D01*
X148910314Y-133955978D01*
X148841131Y-133869388D01*
X148768653Y-133778848D01*
X148694246Y-133686060D01*
X148634517Y-133611702D01*
X147623511Y-133611702D01*
X147617602Y-133624659D01*
X147603272Y-133646908D01*
X147602225Y-133648391D01*
X147583438Y-133678544D01*
X147563791Y-133715375D01*
X147559892Y-133723511D01*
X147556356Y-133731940D01*
X147553230Y-133742059D01*
X147550486Y-133755260D01*
X147548092Y-133772938D01*
X147546019Y-133796484D01*
X147544235Y-133827293D01*
X147542712Y-133866757D01*
X147541419Y-133916269D01*
X147540326Y-133977223D01*
X147539403Y-134051011D01*
X147538619Y-134139028D01*
X147537945Y-134242665D01*
X147537350Y-134363316D01*
X147536805Y-134502374D01*
X147536279Y-134661232D01*
X147535745Y-134840089D01*
X147535206Y-135025207D01*
X147534772Y-135189145D01*
X147534509Y-135333303D01*
X147534484Y-135459079D01*
X147534765Y-135567871D01*
X147535419Y-135661077D01*
X147536514Y-135740097D01*
X147538118Y-135806328D01*
X147540297Y-135861170D01*
X147543119Y-135906021D01*
X147546651Y-135942278D01*
X147550961Y-135971341D01*
X147556117Y-135994609D01*
X147562185Y-136013479D01*
X147569233Y-136029351D01*
X147577329Y-136043622D01*
X147586540Y-136057691D01*
X147595040Y-136070158D01*
X147612176Y-136096452D01*
X147622322Y-136114037D01*
X147623511Y-136117257D01*
X147612604Y-136118334D01*
X147581411Y-136119335D01*
X147532223Y-136120235D01*
X147467333Y-136121010D01*
X147389030Y-136121637D01*
X147299607Y-136122091D01*
X147201356Y-136122349D01*
X147132445Y-136122400D01*
X147027452Y-136122180D01*
X146930610Y-136121548D01*
X146844107Y-136120549D01*
X146770132Y-136119227D01*
X146710874Y-136117626D01*
X146668520Y-136115791D01*
X146645260Y-136113765D01*
X146641378Y-136112493D01*
X146649076Y-136097591D01*
X146657074Y-136089560D01*
X146670246Y-136072434D01*
X146687485Y-136042183D01*
X146699407Y-136017622D01*
X146726045Y-135958711D01*
X146729120Y-134781845D01*
X146732195Y-133604978D01*
X147177853Y-133604978D01*
X147275670Y-133605142D01*
X147366064Y-133605611D01*
X147446630Y-133606347D01*
X147514962Y-133607316D01*
X147568656Y-133608480D01*
X147605305Y-133609803D01*
X147622504Y-133611249D01*
X147623511Y-133611702D01*
X148634517Y-133611702D01*
X148619270Y-133592722D01*
X148545090Y-133500537D01*
X148473069Y-133411204D01*
X148404569Y-133326424D01*
X148340955Y-133247898D01*
X148283588Y-133177326D01*
X148233833Y-133116409D01*
X148193052Y-133066847D01*
X148175888Y-133046178D01*
X148089596Y-132945516D01*
X148012997Y-132862259D01*
X147944183Y-132794438D01*
X147881248Y-132740089D01*
X147871867Y-132732722D01*
X147832356Y-132702117D01*
X148964116Y-132701867D01*
X148958827Y-132749844D01*
X148962130Y-132807188D01*
X148983661Y-132875463D01*
X149023635Y-132955212D01*
X149068943Y-133027495D01*
X149085161Y-133050140D01*
X149113214Y-133087696D01*
X149151430Y-133138021D01*
X149198137Y-133198973D01*
X149251661Y-133268411D01*
X149310331Y-133344194D01*
X149372475Y-133424180D01*
X149436421Y-133506228D01*
X149500495Y-133588196D01*
X149563027Y-133667943D01*
X149622343Y-133743327D01*
X149676771Y-133812207D01*
X149724639Y-133872442D01*
X149764275Y-133921889D01*
X149794006Y-133958408D01*
X149812161Y-133979858D01*
X149815220Y-133983156D01*
X149818079Y-133975149D01*
X149820293Y-133944855D01*
X149821857Y-133892556D01*
X149822767Y-133818531D01*
X149823020Y-133723063D01*
X149822613Y-133606434D01*
X149821704Y-133486445D01*
X149820382Y-133354333D01*
X149818857Y-133242594D01*
X149816881Y-133149025D01*
X149814206Y-133071419D01*
X149810582Y-133007574D01*
X149805761Y-132955283D01*
X149799494Y-132912344D01*
X149791532Y-132876551D01*
X149781627Y-132845700D01*
X149769531Y-132817586D01*
X149754993Y-132790005D01*
X149740311Y-132764966D01*
X149702314Y-132701867D01*
X150762197Y-132701867D01*
X151065034Y-132701867D01*
X151065001Y-132695617D01*
X151064195Y-132593544D01*
X151063170Y-132504633D01*
X151061900Y-132427941D01*
X151060360Y-132362527D01*
X151058524Y-132307449D01*
X151056367Y-132261765D01*
X151053863Y-132224534D01*
X151050987Y-132194813D01*
X151047713Y-132171662D01*
X151044015Y-132154139D01*
X151039869Y-132141301D01*
X151035247Y-132132208D01*
X151030126Y-132125918D01*
X151024478Y-132121488D01*
X151018279Y-132117978D01*
X151011504Y-132114445D01*
X151005508Y-132110876D01*
X151000275Y-132108300D01*
X150992099Y-132105972D01*
X150979886Y-132103878D01*
X150962541Y-132102007D01*
X150938969Y-132100347D01*
X150908077Y-132098884D01*
X150868768Y-132097608D01*
X150819950Y-132096504D01*
X150760527Y-132095561D01*
X150689404Y-132094767D01*
X150605488Y-132094109D01*
X150507683Y-132093575D01*
X150394894Y-132093153D01*
X150266029Y-132092829D01*
X150119991Y-132092592D01*
X149955686Y-132092430D01*
X149772020Y-132092330D01*
X149567897Y-132092280D01*
X149356753Y-132092267D01*
X147736400Y-132092267D01*
X147736400Y-132189054D01*
X147736400Y-132189054D01*
G37*
X147736400Y-132189054D02*
X147725535Y-132302993D01*
X147693918Y-132410616D01*
X147643015Y-132509615D01*
X147574293Y-132597684D01*
X147489219Y-132672516D01*
X147392232Y-132730384D01*
X147285964Y-132770005D01*
X147178950Y-132788573D01*
X147073300Y-132787434D01*
X146971125Y-132767930D01*
X146874534Y-132731406D01*
X146785638Y-132679205D01*
X146706546Y-132612673D01*
X146639369Y-132533152D01*
X146586217Y-132441987D01*
X146549199Y-132340523D01*
X146530427Y-132230102D01*
X146528489Y-132180206D01*
X146528489Y-132092267D01*
X146476560Y-132092267D01*
X146440253Y-132095111D01*
X146413355Y-132106911D01*
X146386249Y-132130649D01*
X146347867Y-132169031D01*
X146347867Y-134360602D01*
X146347876Y-134622739D01*
X146347908Y-134863241D01*
X146347972Y-135083048D01*
X146348076Y-135283101D01*
X146348227Y-135464344D01*
X146348434Y-135627716D01*
X146348706Y-135774160D01*
X146349050Y-135904617D01*
X146349474Y-136020029D01*
X146349987Y-136121338D01*
X146350597Y-136209484D01*
X146351312Y-136285410D01*
X146352140Y-136350057D01*
X146353089Y-136404367D01*
X146354167Y-136449280D01*
X146355383Y-136485740D01*
X146356745Y-136514687D01*
X146358261Y-136537063D01*
X146359938Y-136553809D01*
X146361786Y-136565868D01*
X146363813Y-136574180D01*
X146366025Y-136579687D01*
X146367108Y-136581537D01*
X146371271Y-136588549D01*
X146374805Y-136594996D01*
X146378635Y-136600900D01*
X146383682Y-136606286D01*
X146390871Y-136611178D01*
X146401123Y-136615598D01*
X146415364Y-136619572D01*
X146434514Y-136623121D01*
X146459499Y-136626270D01*
X146491240Y-136629042D01*
X146530662Y-136631461D01*
X146578686Y-136633551D01*
X146636237Y-136635335D01*
X146704237Y-136636837D01*
X146783610Y-136638080D01*
X146875279Y-136639089D01*
X146980166Y-136639885D01*
X147099196Y-136640494D01*
X147233290Y-136640939D01*
X147383373Y-136641243D01*
X147550367Y-136641430D01*
X147735196Y-136641524D01*
X147938783Y-136641548D01*
X148162050Y-136641525D01*
X148405922Y-136641480D01*
X148671321Y-136641437D01*
X148709704Y-136641432D01*
X148976682Y-136641389D01*
X149222002Y-136641318D01*
X149446583Y-136641213D01*
X149651345Y-136641066D01*
X149837206Y-136640869D01*
X150005088Y-136640616D01*
X150155908Y-136640300D01*
X150290587Y-136639913D01*
X150410044Y-136639447D01*
X150515199Y-136638897D01*
X150606971Y-136638253D01*
X150686279Y-136637511D01*
X150754043Y-136636661D01*
X150811182Y-136635697D01*
X150858617Y-136634611D01*
X150897266Y-136633397D01*
X150928049Y-136632047D01*
X150951885Y-136630555D01*
X150969694Y-136628911D01*
X150982395Y-136627111D01*
X150990908Y-136625145D01*
X150995266Y-136623477D01*
X151003728Y-136619906D01*
X151011497Y-136617270D01*
X151018602Y-136614634D01*
X151025073Y-136611062D01*
X151030939Y-136605621D01*
X151036229Y-136597375D01*
X151040974Y-136585390D01*
X151045202Y-136568731D01*
X151048943Y-136546463D01*
X151052227Y-136517652D01*
X151055083Y-136481363D01*
X151057540Y-136436661D01*
X151059629Y-136382611D01*
X151061378Y-136318279D01*
X151062817Y-136242730D01*
X151063976Y-136155030D01*
X151064883Y-136054243D01*
X151065569Y-135939434D01*
X151066063Y-135809670D01*
X151066395Y-135664015D01*
X151066593Y-135501535D01*
X151066687Y-135321295D01*
X151066708Y-135122360D01*
X151066685Y-134903796D01*
X151066646Y-134664668D01*
X151066622Y-134404040D01*
X151066622Y-134361889D01*
X151066636Y-134098992D01*
X151066661Y-133857732D01*
X151066671Y-133637165D01*
X151066642Y-133436352D01*
X151066548Y-133254349D01*
X151066362Y-133090216D01*
X151066059Y-132943011D01*
X151065614Y-132811792D01*
X151065034Y-132701867D01*
X150762197Y-132701867D01*
X150722407Y-132759711D01*
X150711236Y-132775479D01*
X150701166Y-132789441D01*
X150692138Y-132802784D01*
X150684097Y-132816693D01*
X150676986Y-132832356D01*
X150670747Y-132850958D01*
X150665325Y-132873686D01*
X150660662Y-132901727D01*
X150656701Y-132936267D01*
X150653385Y-132978492D01*
X150650659Y-133029589D01*
X150648464Y-133090744D01*
X150646745Y-133163144D01*
X150645444Y-133247975D01*
X150644505Y-133346422D01*
X150643870Y-133459674D01*
X150643484Y-133588916D01*
X150643288Y-133735334D01*
X150643227Y-133900116D01*
X150643243Y-134084447D01*
X150643280Y-134289513D01*
X150643289Y-134412133D01*
X150643265Y-134629082D01*
X150643231Y-134824642D01*
X150643243Y-134999999D01*
X150643358Y-135156341D01*
X150643630Y-135294857D01*
X150644118Y-135416734D01*
X150644876Y-135523160D01*
X150645962Y-135615322D01*
X150647431Y-135694409D01*
X150649340Y-135761608D01*
X150651744Y-135818107D01*
X150654701Y-135865093D01*
X150658266Y-135903755D01*
X150662495Y-135935280D01*
X150667446Y-135960855D01*
X150673173Y-135981670D01*
X150679733Y-135998911D01*
X150687183Y-136013765D01*
X150695579Y-136027422D01*
X150704976Y-136041069D01*
X150715432Y-136055893D01*
X150721523Y-136064783D01*
X150760296Y-136122400D01*
X150228732Y-136122400D01*
X150105483Y-136122365D01*
X150002987Y-136122215D01*
X149919420Y-136121878D01*
X149852956Y-136121286D01*
X149801771Y-136120367D01*
X149764041Y-136119051D01*
X149737940Y-136117269D01*
X149721644Y-136114951D01*
X149713328Y-136112026D01*
X149711168Y-136108424D01*
X149713339Y-136104075D01*
X149714535Y-136102645D01*
X149739685Y-136065573D01*
X149765583Y-136012772D01*
X149789192Y-135950770D01*
X149797461Y-135924357D01*
X149802078Y-135906416D01*
X149805979Y-135885355D01*
X149809248Y-135859089D01*
X149811966Y-135825532D01*
X149814215Y-135782599D01*
X149816077Y-135728204D01*
X149817636Y-135660262D01*
X149818972Y-135576688D01*
X149820169Y-135475395D01*
X149821308Y-135354300D01*
X149821685Y-135309600D01*
X149822702Y-135184449D01*
X149823460Y-135080082D01*
X149823903Y-134994707D01*
X149823970Y-134926533D01*
X149823605Y-134873765D01*
X149822748Y-134834614D01*
X149821341Y-134807285D01*
X149819325Y-134789986D01*
X149816643Y-134780926D01*
X149813236Y-134778312D01*
X149809044Y-134780351D01*
X149804571Y-134784667D01*
X149794216Y-134797602D01*
X149772158Y-134826676D01*
X149739957Y-134869759D01*
X149699174Y-134924718D01*
X149651370Y-134989423D01*
X149598105Y-135061742D01*
X149540940Y-135139544D01*
X149481437Y-135220698D01*
X149421155Y-135303072D01*
X149361655Y-135384536D01*
X149304498Y-135462957D01*
X149251245Y-135536204D01*
X149203457Y-135602147D01*
X149162693Y-135658654D01*
X149130516Y-135703593D01*
X149108485Y-135734834D01*
X149103917Y-135741466D01*
X149080996Y-135778369D01*
X149054188Y-135826359D01*
X149028789Y-135875897D01*
X149025568Y-135882577D01*
X149003890Y-135930772D01*
X148991304Y-135968334D01*
X148985574Y-136004160D01*
X148984456Y-136046200D01*
X148985090Y-136122400D01*
X147830651Y-136122400D01*
X147921815Y-136028669D01*
X147968612Y-135978775D01*
X148018899Y-135922295D01*
X148064944Y-135868026D01*
X148085369Y-135842673D01*
X148115807Y-135803128D01*
X148155862Y-135749916D01*
X148204361Y-135684667D01*
X148260135Y-135609011D01*
X148322011Y-135524577D01*
X148388819Y-135432994D01*
X148459387Y-135335892D01*
X148532545Y-135234901D01*
X148607121Y-135131650D01*
X148681944Y-135027768D01*
X148755843Y-134924885D01*
X148827646Y-134824631D01*
X148896184Y-134728636D01*
X148960284Y-134638527D01*
X149018775Y-134555936D01*
X149070486Y-134482492D01*
X149114247Y-134419824D01*
X149148885Y-134369561D01*
X149173230Y-134333334D01*
X149186111Y-134312771D01*
X149187869Y-134308668D01*
X149179910Y-134297342D01*
X149159115Y-134270162D01*
X149126847Y-134228829D01*
X149084470Y-134175044D01*
X149033347Y-134110506D01*
X148974841Y-134036918D01*
X148910314Y-133955978D01*
X148841131Y-133869388D01*
X148768653Y-133778848D01*
X148694246Y-133686060D01*
X148634517Y-133611702D01*
X147623511Y-133611702D01*
X147617602Y-133624659D01*
X147603272Y-133646908D01*
X147602225Y-133648391D01*
X147583438Y-133678544D01*
X147563791Y-133715375D01*
X147559892Y-133723511D01*
X147556356Y-133731940D01*
X147553230Y-133742059D01*
X147550486Y-133755260D01*
X147548092Y-133772938D01*
X147546019Y-133796484D01*
X147544235Y-133827293D01*
X147542712Y-133866757D01*
X147541419Y-133916269D01*
X147540326Y-133977223D01*
X147539403Y-134051011D01*
X147538619Y-134139028D01*
X147537945Y-134242665D01*
X147537350Y-134363316D01*
X147536805Y-134502374D01*
X147536279Y-134661232D01*
X147535745Y-134840089D01*
X147535206Y-135025207D01*
X147534772Y-135189145D01*
X147534509Y-135333303D01*
X147534484Y-135459079D01*
X147534765Y-135567871D01*
X147535419Y-135661077D01*
X147536514Y-135740097D01*
X147538118Y-135806328D01*
X147540297Y-135861170D01*
X147543119Y-135906021D01*
X147546651Y-135942278D01*
X147550961Y-135971341D01*
X147556117Y-135994609D01*
X147562185Y-136013479D01*
X147569233Y-136029351D01*
X147577329Y-136043622D01*
X147586540Y-136057691D01*
X147595040Y-136070158D01*
X147612176Y-136096452D01*
X147622322Y-136114037D01*
X147623511Y-136117257D01*
X147612604Y-136118334D01*
X147581411Y-136119335D01*
X147532223Y-136120235D01*
X147467333Y-136121010D01*
X147389030Y-136121637D01*
X147299607Y-136122091D01*
X147201356Y-136122349D01*
X147132445Y-136122400D01*
X147027452Y-136122180D01*
X146930610Y-136121548D01*
X146844107Y-136120549D01*
X146770132Y-136119227D01*
X146710874Y-136117626D01*
X146668520Y-136115791D01*
X146645260Y-136113765D01*
X146641378Y-136112493D01*
X146649076Y-136097591D01*
X146657074Y-136089560D01*
X146670246Y-136072434D01*
X146687485Y-136042183D01*
X146699407Y-136017622D01*
X146726045Y-135958711D01*
X146729120Y-134781845D01*
X146732195Y-133604978D01*
X147177853Y-133604978D01*
X147275670Y-133605142D01*
X147366064Y-133605611D01*
X147446630Y-133606347D01*
X147514962Y-133607316D01*
X147568656Y-133608480D01*
X147605305Y-133609803D01*
X147622504Y-133611249D01*
X147623511Y-133611702D01*
X148634517Y-133611702D01*
X148619270Y-133592722D01*
X148545090Y-133500537D01*
X148473069Y-133411204D01*
X148404569Y-133326424D01*
X148340955Y-133247898D01*
X148283588Y-133177326D01*
X148233833Y-133116409D01*
X148193052Y-133066847D01*
X148175888Y-133046178D01*
X148089596Y-132945516D01*
X148012997Y-132862259D01*
X147944183Y-132794438D01*
X147881248Y-132740089D01*
X147871867Y-132732722D01*
X147832356Y-132702117D01*
X148964116Y-132701867D01*
X148958827Y-132749844D01*
X148962130Y-132807188D01*
X148983661Y-132875463D01*
X149023635Y-132955212D01*
X149068943Y-133027495D01*
X149085161Y-133050140D01*
X149113214Y-133087696D01*
X149151430Y-133138021D01*
X149198137Y-133198973D01*
X149251661Y-133268411D01*
X149310331Y-133344194D01*
X149372475Y-133424180D01*
X149436421Y-133506228D01*
X149500495Y-133588196D01*
X149563027Y-133667943D01*
X149622343Y-133743327D01*
X149676771Y-133812207D01*
X149724639Y-133872442D01*
X149764275Y-133921889D01*
X149794006Y-133958408D01*
X149812161Y-133979858D01*
X149815220Y-133983156D01*
X149818079Y-133975149D01*
X149820293Y-133944855D01*
X149821857Y-133892556D01*
X149822767Y-133818531D01*
X149823020Y-133723063D01*
X149822613Y-133606434D01*
X149821704Y-133486445D01*
X149820382Y-133354333D01*
X149818857Y-133242594D01*
X149816881Y-133149025D01*
X149814206Y-133071419D01*
X149810582Y-133007574D01*
X149805761Y-132955283D01*
X149799494Y-132912344D01*
X149791532Y-132876551D01*
X149781627Y-132845700D01*
X149769531Y-132817586D01*
X149754993Y-132790005D01*
X149740311Y-132764966D01*
X149702314Y-132701867D01*
X150762197Y-132701867D01*
X151065034Y-132701867D01*
X151065001Y-132695617D01*
X151064195Y-132593544D01*
X151063170Y-132504633D01*
X151061900Y-132427941D01*
X151060360Y-132362527D01*
X151058524Y-132307449D01*
X151056367Y-132261765D01*
X151053863Y-132224534D01*
X151050987Y-132194813D01*
X151047713Y-132171662D01*
X151044015Y-132154139D01*
X151039869Y-132141301D01*
X151035247Y-132132208D01*
X151030126Y-132125918D01*
X151024478Y-132121488D01*
X151018279Y-132117978D01*
X151011504Y-132114445D01*
X151005508Y-132110876D01*
X151000275Y-132108300D01*
X150992099Y-132105972D01*
X150979886Y-132103878D01*
X150962541Y-132102007D01*
X150938969Y-132100347D01*
X150908077Y-132098884D01*
X150868768Y-132097608D01*
X150819950Y-132096504D01*
X150760527Y-132095561D01*
X150689404Y-132094767D01*
X150605488Y-132094109D01*
X150507683Y-132093575D01*
X150394894Y-132093153D01*
X150266029Y-132092829D01*
X150119991Y-132092592D01*
X149955686Y-132092430D01*
X149772020Y-132092330D01*
X149567897Y-132092280D01*
X149356753Y-132092267D01*
X147736400Y-132092267D01*
X147736400Y-132189054D01*
G36*
X138561177Y-136974533D02*
X138529798Y-136996776D01*
X138502089Y-137024485D01*
X138502089Y-137333920D01*
X138502162Y-137425799D01*
X138502505Y-137497840D01*
X138503308Y-137552780D01*
X138504759Y-137593360D01*
X138507048Y-137622317D01*
X138510364Y-137642391D01*
X138514895Y-137656321D01*
X138520831Y-137666845D01*
X138525486Y-137673100D01*
X138556217Y-137697673D01*
X138591504Y-137700341D01*
X138623755Y-137685271D01*
X138634412Y-137676374D01*
X138641536Y-137664557D01*
X138645833Y-137645526D01*
X138648009Y-137614992D01*
X138648772Y-137568662D01*
X138648845Y-137532871D01*
X138648845Y-137398045D01*
X139145556Y-137398045D01*
X139145556Y-137520700D01*
X139146069Y-137576787D01*
X139148124Y-137615333D01*
X139152492Y-137641361D01*
X139159944Y-137659897D01*
X139168953Y-137673100D01*
X139199856Y-137697604D01*
X139234804Y-137700506D01*
X139268262Y-137683089D01*
X139277396Y-137673959D01*
X139283848Y-137661855D01*
X139288103Y-137643001D01*
X139290648Y-137613620D01*
X139291971Y-137569937D01*
X139292557Y-137508175D01*
X139292625Y-137494000D01*
X139293109Y-137377631D01*
X139293359Y-137281727D01*
X139293277Y-137204177D01*
X139292769Y-137142869D01*
X139291738Y-137095690D01*
X139290087Y-137060530D01*
X139287721Y-137035276D01*
X139284543Y-137017817D01*
X139280456Y-137006041D01*
X139275366Y-136997835D01*
X139269734Y-136991645D01*
X139237872Y-136971844D01*
X139204643Y-136974533D01*
X139173265Y-136996776D01*
X139160567Y-137011126D01*
X139152474Y-137026978D01*
X139147958Y-137049554D01*
X139145994Y-137084078D01*
X139145556Y-137135776D01*
X139145556Y-137251289D01*
X138648845Y-137251289D01*
X138648845Y-137132756D01*
X138648338Y-137078148D01*
X138646302Y-137041275D01*
X138641965Y-137017307D01*
X138634553Y-137001415D01*
X138626267Y-136991645D01*
X138594406Y-136971844D01*
X138561177Y-136974533D01*
X138561177Y-136974533D01*
G37*
X138561177Y-136974533D02*
X138529798Y-136996776D01*
X138502089Y-137024485D01*
X138502089Y-137333920D01*
X138502162Y-137425799D01*
X138502505Y-137497840D01*
X138503308Y-137552780D01*
X138504759Y-137593360D01*
X138507048Y-137622317D01*
X138510364Y-137642391D01*
X138514895Y-137656321D01*
X138520831Y-137666845D01*
X138525486Y-137673100D01*
X138556217Y-137697673D01*
X138591504Y-137700341D01*
X138623755Y-137685271D01*
X138634412Y-137676374D01*
X138641536Y-137664557D01*
X138645833Y-137645526D01*
X138648009Y-137614992D01*
X138648772Y-137568662D01*
X138648845Y-137532871D01*
X138648845Y-137398045D01*
X139145556Y-137398045D01*
X139145556Y-137520700D01*
X139146069Y-137576787D01*
X139148124Y-137615333D01*
X139152492Y-137641361D01*
X139159944Y-137659897D01*
X139168953Y-137673100D01*
X139199856Y-137697604D01*
X139234804Y-137700506D01*
X139268262Y-137683089D01*
X139277396Y-137673959D01*
X139283848Y-137661855D01*
X139288103Y-137643001D01*
X139290648Y-137613620D01*
X139291971Y-137569937D01*
X139292557Y-137508175D01*
X139292625Y-137494000D01*
X139293109Y-137377631D01*
X139293359Y-137281727D01*
X139293277Y-137204177D01*
X139292769Y-137142869D01*
X139291738Y-137095690D01*
X139290087Y-137060530D01*
X139287721Y-137035276D01*
X139284543Y-137017817D01*
X139280456Y-137006041D01*
X139275366Y-136997835D01*
X139269734Y-136991645D01*
X139237872Y-136971844D01*
X139204643Y-136974533D01*
X139173265Y-136996776D01*
X139160567Y-137011126D01*
X139152474Y-137026978D01*
X139147958Y-137049554D01*
X139145994Y-137084078D01*
X139145556Y-137135776D01*
X139145556Y-137251289D01*
X138648845Y-137251289D01*
X138648845Y-137132756D01*
X138648338Y-137078148D01*
X138646302Y-137041275D01*
X138641965Y-137017307D01*
X138634553Y-137001415D01*
X138626267Y-136991645D01*
X138594406Y-136971844D01*
X138561177Y-136974533D01*
G36*
X139826935Y-136969163D02*
X139748228Y-136969542D01*
X139687137Y-136970333D01*
X139641183Y-136971670D01*
X139607886Y-136973683D01*
X139584764Y-136976506D01*
X139569338Y-136980269D01*
X139559129Y-136985105D01*
X139554187Y-136988822D01*
X139528543Y-137021358D01*
X139525441Y-137055138D01*
X139541289Y-137085826D01*
X139551652Y-137098089D01*
X139562804Y-137106450D01*
X139578965Y-137111657D01*
X139604358Y-137114457D01*
X139643202Y-137115596D01*
X139699720Y-137115821D01*
X139710820Y-137115822D01*
X139856756Y-137115822D01*
X139856756Y-137386756D01*
X139856852Y-137472154D01*
X139857289Y-137537864D01*
X139858288Y-137586774D01*
X139860072Y-137621773D01*
X139862863Y-137645749D01*
X139866883Y-137661593D01*
X139872355Y-137672191D01*
X139879334Y-137680267D01*
X139912266Y-137700112D01*
X139946646Y-137698548D01*
X139977824Y-137675906D01*
X139980114Y-137673100D01*
X139987571Y-137662492D01*
X139993253Y-137650081D01*
X139997399Y-137632850D01*
X140000250Y-137607784D01*
X140002046Y-137571867D01*
X140003028Y-137522083D01*
X140003436Y-137455417D01*
X140003511Y-137379589D01*
X140003511Y-137115822D01*
X140142873Y-137115822D01*
X140202678Y-137115418D01*
X140244082Y-137113840D01*
X140271252Y-137110547D01*
X140288354Y-137104992D01*
X140299557Y-137096631D01*
X140300917Y-137095178D01*
X140317275Y-137061939D01*
X140315828Y-137024362D01*
X140297022Y-136991645D01*
X140289750Y-136985298D01*
X140280373Y-136980266D01*
X140266391Y-136976396D01*
X140245304Y-136973537D01*
X140214611Y-136971535D01*
X140171811Y-136970239D01*
X140114405Y-136969498D01*
X140039890Y-136969158D01*
X139945767Y-136969068D01*
X139925740Y-136969067D01*
X139826935Y-136969163D01*
X139826935Y-136969163D01*
G37*
X139826935Y-136969163D02*
X139748228Y-136969542D01*
X139687137Y-136970333D01*
X139641183Y-136971670D01*
X139607886Y-136973683D01*
X139584764Y-136976506D01*
X139569338Y-136980269D01*
X139559129Y-136985105D01*
X139554187Y-136988822D01*
X139528543Y-137021358D01*
X139525441Y-137055138D01*
X139541289Y-137085826D01*
X139551652Y-137098089D01*
X139562804Y-137106450D01*
X139578965Y-137111657D01*
X139604358Y-137114457D01*
X139643202Y-137115596D01*
X139699720Y-137115821D01*
X139710820Y-137115822D01*
X139856756Y-137115822D01*
X139856756Y-137386756D01*
X139856852Y-137472154D01*
X139857289Y-137537864D01*
X139858288Y-137586774D01*
X139860072Y-137621773D01*
X139862863Y-137645749D01*
X139866883Y-137661593D01*
X139872355Y-137672191D01*
X139879334Y-137680267D01*
X139912266Y-137700112D01*
X139946646Y-137698548D01*
X139977824Y-137675906D01*
X139980114Y-137673100D01*
X139987571Y-137662492D01*
X139993253Y-137650081D01*
X139997399Y-137632850D01*
X140000250Y-137607784D01*
X140002046Y-137571867D01*
X140003028Y-137522083D01*
X140003436Y-137455417D01*
X140003511Y-137379589D01*
X140003511Y-137115822D01*
X140142873Y-137115822D01*
X140202678Y-137115418D01*
X140244082Y-137113840D01*
X140271252Y-137110547D01*
X140288354Y-137104992D01*
X140299557Y-137096631D01*
X140300917Y-137095178D01*
X140317275Y-137061939D01*
X140315828Y-137024362D01*
X140297022Y-136991645D01*
X140289750Y-136985298D01*
X140280373Y-136980266D01*
X140266391Y-136976396D01*
X140245304Y-136973537D01*
X140214611Y-136971535D01*
X140171811Y-136970239D01*
X140114405Y-136969498D01*
X140039890Y-136969158D01*
X139945767Y-136969068D01*
X139925740Y-136969067D01*
X139826935Y-136969163D01*
G36*
X140601386Y-136975877D02*
X140577673Y-136990647D01*
X140551022Y-137012227D01*
X140551022Y-137333773D01*
X140551107Y-137427830D01*
X140551471Y-137501932D01*
X140552276Y-137558704D01*
X140553687Y-137600768D01*
X140555867Y-137630748D01*
X140558979Y-137651267D01*
X140563186Y-137664949D01*
X140568652Y-137674416D01*
X140572528Y-137679082D01*
X140603966Y-137699575D01*
X140639767Y-137698739D01*
X140671127Y-137681264D01*
X140697778Y-137659684D01*
X140697778Y-137012227D01*
X140671127Y-136990647D01*
X140645406Y-136974949D01*
X140624400Y-136969067D01*
X140601386Y-136975877D01*
X140601386Y-136975877D01*
G37*
X140601386Y-136975877D02*
X140577673Y-136990647D01*
X140551022Y-137012227D01*
X140551022Y-137333773D01*
X140551107Y-137427830D01*
X140551471Y-137501932D01*
X140552276Y-137558704D01*
X140553687Y-137600768D01*
X140555867Y-137630748D01*
X140558979Y-137651267D01*
X140563186Y-137664949D01*
X140568652Y-137674416D01*
X140572528Y-137679082D01*
X140603966Y-137699575D01*
X140639767Y-137698739D01*
X140671127Y-137681264D01*
X140697778Y-137659684D01*
X140697778Y-137012227D01*
X140671127Y-136990647D01*
X140645406Y-136974949D01*
X140624400Y-136969067D01*
X140601386Y-136975877D01*
G36*
X141045335Y-136971034D02*
X141025745Y-136978035D01*
X141024990Y-136978377D01*
X140998387Y-136998678D01*
X140983730Y-137019561D01*
X140980862Y-137029352D01*
X140981004Y-137042361D01*
X140985039Y-137060895D01*
X140993854Y-137087257D01*
X141008331Y-137123752D01*
X141029355Y-137172687D01*
X141057812Y-137236365D01*
X141094585Y-137317093D01*
X141114825Y-137361216D01*
X141151375Y-137439985D01*
X141185685Y-137512423D01*
X141216448Y-137575880D01*
X141242352Y-137627708D01*
X141262090Y-137665259D01*
X141274350Y-137685884D01*
X141276776Y-137688733D01*
X141307817Y-137701302D01*
X141342879Y-137699619D01*
X141371000Y-137684332D01*
X141372146Y-137683089D01*
X141383332Y-137666154D01*
X141402096Y-137633170D01*
X141426125Y-137588380D01*
X141453103Y-137536032D01*
X141462799Y-137516742D01*
X141535986Y-137370150D01*
X141615760Y-137529393D01*
X141644233Y-137584415D01*
X141670650Y-137632132D01*
X141692852Y-137668893D01*
X141708681Y-137691044D01*
X141714046Y-137695741D01*
X141755743Y-137702102D01*
X141790151Y-137688733D01*
X141800272Y-137674446D01*
X141817786Y-137642692D01*
X141841265Y-137596597D01*
X141869280Y-137539285D01*
X141900401Y-137473880D01*
X141933201Y-137403507D01*
X141966250Y-137331291D01*
X141998119Y-137260355D01*
X142027381Y-137193825D01*
X142052605Y-137134826D01*
X142072364Y-137086481D01*
X142085228Y-137051915D01*
X142089769Y-137034253D01*
X142089723Y-137033613D01*
X142078674Y-137011388D01*
X142056590Y-136988753D01*
X142055290Y-136987768D01*
X142028147Y-136972425D01*
X142003042Y-136972574D01*
X141993632Y-136975466D01*
X141982166Y-136981718D01*
X141969990Y-136994014D01*
X141955643Y-137014908D01*
X141937664Y-137046949D01*
X141914593Y-137092688D01*
X141884970Y-137154677D01*
X141858255Y-137211898D01*
X141827520Y-137278226D01*
X141799979Y-137337874D01*
X141777062Y-137387725D01*
X141760202Y-137424664D01*
X141750827Y-137445573D01*
X141749460Y-137448845D01*
X141743311Y-137443497D01*
X141729178Y-137421109D01*
X141708943Y-137384946D01*
X141684485Y-137338277D01*
X141674752Y-137319022D01*
X141641783Y-137254004D01*
X141616357Y-137206654D01*
X141596388Y-137174219D01*
X141579790Y-137153946D01*
X141564476Y-137143082D01*
X141548360Y-137138875D01*
X141537857Y-137138400D01*
X141519330Y-137140042D01*
X141503096Y-137146831D01*
X141486965Y-137161566D01*
X141468749Y-137187044D01*
X141446261Y-137226061D01*
X141417311Y-137281414D01*
X141401338Y-137312903D01*
X141375430Y-137363087D01*
X141352833Y-137404704D01*
X141335542Y-137434242D01*
X141325550Y-137448189D01*
X141324191Y-137448770D01*
X141317739Y-137437793D01*
X141303292Y-137409290D01*
X141282297Y-137366244D01*
X141256203Y-137311638D01*
X141226454Y-137248454D01*
X141211820Y-137217071D01*
X141173750Y-137136078D01*
X141143095Y-137073756D01*
X141118263Y-137028071D01*
X141097663Y-136996989D01*
X141079702Y-136978478D01*
X141062790Y-136970504D01*
X141045335Y-136971034D01*
X141045335Y-136971034D01*
G37*
X141045335Y-136971034D02*
X141025745Y-136978035D01*
X141024990Y-136978377D01*
X140998387Y-136998678D01*
X140983730Y-137019561D01*
X140980862Y-137029352D01*
X140981004Y-137042361D01*
X140985039Y-137060895D01*
X140993854Y-137087257D01*
X141008331Y-137123752D01*
X141029355Y-137172687D01*
X141057812Y-137236365D01*
X141094585Y-137317093D01*
X141114825Y-137361216D01*
X141151375Y-137439985D01*
X141185685Y-137512423D01*
X141216448Y-137575880D01*
X141242352Y-137627708D01*
X141262090Y-137665259D01*
X141274350Y-137685884D01*
X141276776Y-137688733D01*
X141307817Y-137701302D01*
X141342879Y-137699619D01*
X141371000Y-137684332D01*
X141372146Y-137683089D01*
X141383332Y-137666154D01*
X141402096Y-137633170D01*
X141426125Y-137588380D01*
X141453103Y-137536032D01*
X141462799Y-137516742D01*
X141535986Y-137370150D01*
X141615760Y-137529393D01*
X141644233Y-137584415D01*
X141670650Y-137632132D01*
X141692852Y-137668893D01*
X141708681Y-137691044D01*
X141714046Y-137695741D01*
X141755743Y-137702102D01*
X141790151Y-137688733D01*
X141800272Y-137674446D01*
X141817786Y-137642692D01*
X141841265Y-137596597D01*
X141869280Y-137539285D01*
X141900401Y-137473880D01*
X141933201Y-137403507D01*
X141966250Y-137331291D01*
X141998119Y-137260355D01*
X142027381Y-137193825D01*
X142052605Y-137134826D01*
X142072364Y-137086481D01*
X142085228Y-137051915D01*
X142089769Y-137034253D01*
X142089723Y-137033613D01*
X142078674Y-137011388D01*
X142056590Y-136988753D01*
X142055290Y-136987768D01*
X142028147Y-136972425D01*
X142003042Y-136972574D01*
X141993632Y-136975466D01*
X141982166Y-136981718D01*
X141969990Y-136994014D01*
X141955643Y-137014908D01*
X141937664Y-137046949D01*
X141914593Y-137092688D01*
X141884970Y-137154677D01*
X141858255Y-137211898D01*
X141827520Y-137278226D01*
X141799979Y-137337874D01*
X141777062Y-137387725D01*
X141760202Y-137424664D01*
X141750827Y-137445573D01*
X141749460Y-137448845D01*
X141743311Y-137443497D01*
X141729178Y-137421109D01*
X141708943Y-137384946D01*
X141684485Y-137338277D01*
X141674752Y-137319022D01*
X141641783Y-137254004D01*
X141616357Y-137206654D01*
X141596388Y-137174219D01*
X141579790Y-137153946D01*
X141564476Y-137143082D01*
X141548360Y-137138875D01*
X141537857Y-137138400D01*
X141519330Y-137140042D01*
X141503096Y-137146831D01*
X141486965Y-137161566D01*
X141468749Y-137187044D01*
X141446261Y-137226061D01*
X141417311Y-137281414D01*
X141401338Y-137312903D01*
X141375430Y-137363087D01*
X141352833Y-137404704D01*
X141335542Y-137434242D01*
X141325550Y-137448189D01*
X141324191Y-137448770D01*
X141317739Y-137437793D01*
X141303292Y-137409290D01*
X141282297Y-137366244D01*
X141256203Y-137311638D01*
X141226454Y-137248454D01*
X141211820Y-137217071D01*
X141173750Y-137136078D01*
X141143095Y-137073756D01*
X141118263Y-137028071D01*
X141097663Y-136996989D01*
X141079702Y-136978478D01*
X141062790Y-136970504D01*
X141045335Y-136971034D01*
G36*
X143771691Y-136969275D02*
X143642712Y-136973636D01*
X143533009Y-136986861D01*
X143440774Y-137009741D01*
X143364198Y-137043070D01*
X143301473Y-137087638D01*
X143250788Y-137144236D01*
X143210337Y-137213658D01*
X143209541Y-137215351D01*
X143185399Y-137277483D01*
X143176797Y-137332509D01*
X143183769Y-137387887D01*
X143206346Y-137451073D01*
X143210628Y-137460689D01*
X143239828Y-137516966D01*
X143272644Y-137560451D01*
X143314998Y-137597417D01*
X143372810Y-137634135D01*
X143376169Y-137636052D01*
X143426496Y-137660227D01*
X143483379Y-137678282D01*
X143550473Y-137690839D01*
X143631435Y-137698522D01*
X143729918Y-137701953D01*
X143764714Y-137702251D01*
X143930406Y-137702845D01*
X143953803Y-137673100D01*
X143960743Y-137663319D01*
X143966158Y-137651897D01*
X143970235Y-137636095D01*
X143973163Y-137613175D01*
X143975133Y-137580396D01*
X143975775Y-137556089D01*
X143819156Y-137556089D01*
X143725274Y-137556089D01*
X143670336Y-137554483D01*
X143613940Y-137550255D01*
X143567655Y-137544292D01*
X143564861Y-137543790D01*
X143482652Y-137521736D01*
X143418886Y-137488600D01*
X143371548Y-137442847D01*
X143338618Y-137382939D01*
X143332892Y-137367061D01*
X143327279Y-137342333D01*
X143329709Y-137317902D01*
X143341533Y-137285400D01*
X143348660Y-137269434D01*
X143372000Y-137227006D01*
X143400120Y-137197240D01*
X143431060Y-137176511D01*
X143493034Y-137149537D01*
X143572349Y-137129998D01*
X143664747Y-137118746D01*
X143731667Y-137116270D01*
X143819156Y-137115822D01*
X143819156Y-137556089D01*
X143975775Y-137556089D01*
X143976332Y-137535021D01*
X143976950Y-137474311D01*
X143977175Y-137395526D01*
X143977200Y-137333920D01*
X143977200Y-137024485D01*
X143949491Y-136996776D01*
X143937194Y-136985544D01*
X143923897Y-136977853D01*
X143905328Y-136973040D01*
X143877214Y-136970446D01*
X143835283Y-136969410D01*
X143775263Y-136969270D01*
X143771691Y-136969275D01*
X143771691Y-136969275D01*
G37*
X143771691Y-136969275D02*
X143642712Y-136973636D01*
X143533009Y-136986861D01*
X143440774Y-137009741D01*
X143364198Y-137043070D01*
X143301473Y-137087638D01*
X143250788Y-137144236D01*
X143210337Y-137213658D01*
X143209541Y-137215351D01*
X143185399Y-137277483D01*
X143176797Y-137332509D01*
X143183769Y-137387887D01*
X143206346Y-137451073D01*
X143210628Y-137460689D01*
X143239828Y-137516966D01*
X143272644Y-137560451D01*
X143314998Y-137597417D01*
X143372810Y-137634135D01*
X143376169Y-137636052D01*
X143426496Y-137660227D01*
X143483379Y-137678282D01*
X143550473Y-137690839D01*
X143631435Y-137698522D01*
X143729918Y-137701953D01*
X143764714Y-137702251D01*
X143930406Y-137702845D01*
X143953803Y-137673100D01*
X143960743Y-137663319D01*
X143966158Y-137651897D01*
X143970235Y-137636095D01*
X143973163Y-137613175D01*
X143975133Y-137580396D01*
X143975775Y-137556089D01*
X143819156Y-137556089D01*
X143725274Y-137556089D01*
X143670336Y-137554483D01*
X143613940Y-137550255D01*
X143567655Y-137544292D01*
X143564861Y-137543790D01*
X143482652Y-137521736D01*
X143418886Y-137488600D01*
X143371548Y-137442847D01*
X143338618Y-137382939D01*
X143332892Y-137367061D01*
X143327279Y-137342333D01*
X143329709Y-137317902D01*
X143341533Y-137285400D01*
X143348660Y-137269434D01*
X143372000Y-137227006D01*
X143400120Y-137197240D01*
X143431060Y-137176511D01*
X143493034Y-137149537D01*
X143572349Y-137129998D01*
X143664747Y-137118746D01*
X143731667Y-137116270D01*
X143819156Y-137115822D01*
X143819156Y-137556089D01*
X143975775Y-137556089D01*
X143976332Y-137535021D01*
X143976950Y-137474311D01*
X143977175Y-137395526D01*
X143977200Y-137333920D01*
X143977200Y-137024485D01*
X143949491Y-136996776D01*
X143937194Y-136985544D01*
X143923897Y-136977853D01*
X143905328Y-136973040D01*
X143877214Y-136970446D01*
X143835283Y-136969410D01*
X143775263Y-136969270D01*
X143771691Y-136969275D01*
G36*
X144559657Y-136969260D02*
X144483299Y-136970174D01*
X144424783Y-136972311D01*
X144381745Y-136976175D01*
X144351817Y-136982267D01*
X144332632Y-136991090D01*
X144321824Y-137003146D01*
X144317027Y-137018939D01*
X144315873Y-137038970D01*
X144315867Y-137041335D01*
X144316869Y-137063992D01*
X144321604Y-137081503D01*
X144332667Y-137094574D01*
X144352652Y-137103913D01*
X144384154Y-137110227D01*
X144429768Y-137114222D01*
X144492087Y-137116606D01*
X144573707Y-137118086D01*
X144598723Y-137118414D01*
X144840800Y-137121467D01*
X144844186Y-137186378D01*
X144847571Y-137251289D01*
X144679424Y-137251289D01*
X144613734Y-137251531D01*
X144566828Y-137252556D01*
X144534917Y-137254811D01*
X144514209Y-137258742D01*
X144500916Y-137264798D01*
X144491245Y-137273424D01*
X144491183Y-137273493D01*
X144473644Y-137307112D01*
X144474278Y-137343448D01*
X144492686Y-137374423D01*
X144496329Y-137377607D01*
X144509259Y-137385812D01*
X144526976Y-137391521D01*
X144553430Y-137395162D01*
X144592568Y-137397167D01*
X144648338Y-137397964D01*
X144684006Y-137398045D01*
X144846445Y-137398045D01*
X144846445Y-137556089D01*
X144599839Y-137556089D01*
X144518420Y-137556231D01*
X144456590Y-137556814D01*
X144411363Y-137558068D01*
X144379752Y-137560227D01*
X144358769Y-137563523D01*
X144345427Y-137568189D01*
X144336739Y-137574457D01*
X144334550Y-137576733D01*
X144318386Y-137608280D01*
X144317203Y-137644168D01*
X144330464Y-137675285D01*
X144340957Y-137685271D01*
X144351871Y-137690769D01*
X144368783Y-137695022D01*
X144394367Y-137698180D01*
X144431299Y-137700392D01*
X144482254Y-137701806D01*
X144549906Y-137702572D01*
X144636931Y-137702838D01*
X144656606Y-137702845D01*
X144745089Y-137702787D01*
X144813773Y-137702467D01*
X144865436Y-137701667D01*
X144902855Y-137700167D01*
X144928810Y-137697749D01*
X144946078Y-137694194D01*
X144957438Y-137689282D01*
X144965668Y-137682795D01*
X144970183Y-137678138D01*
X144976979Y-137669889D01*
X144982288Y-137659669D01*
X144986294Y-137644800D01*
X144989179Y-137622602D01*
X144991126Y-137590393D01*
X144992319Y-137545496D01*
X144992939Y-137485228D01*
X144993171Y-137406911D01*
X144993200Y-137340994D01*
X144993129Y-137248628D01*
X144992792Y-137176117D01*
X144992002Y-137120737D01*
X144990574Y-137079765D01*
X144988321Y-137050478D01*
X144985057Y-137030153D01*
X144980596Y-137016066D01*
X144974752Y-137005495D01*
X144969803Y-136998811D01*
X144946406Y-136969067D01*
X144656226Y-136969067D01*
X144559657Y-136969260D01*
X144559657Y-136969260D01*
G37*
X144559657Y-136969260D02*
X144483299Y-136970174D01*
X144424783Y-136972311D01*
X144381745Y-136976175D01*
X144351817Y-136982267D01*
X144332632Y-136991090D01*
X144321824Y-137003146D01*
X144317027Y-137018939D01*
X144315873Y-137038970D01*
X144315867Y-137041335D01*
X144316869Y-137063992D01*
X144321604Y-137081503D01*
X144332667Y-137094574D01*
X144352652Y-137103913D01*
X144384154Y-137110227D01*
X144429768Y-137114222D01*
X144492087Y-137116606D01*
X144573707Y-137118086D01*
X144598723Y-137118414D01*
X144840800Y-137121467D01*
X144844186Y-137186378D01*
X144847571Y-137251289D01*
X144679424Y-137251289D01*
X144613734Y-137251531D01*
X144566828Y-137252556D01*
X144534917Y-137254811D01*
X144514209Y-137258742D01*
X144500916Y-137264798D01*
X144491245Y-137273424D01*
X144491183Y-137273493D01*
X144473644Y-137307112D01*
X144474278Y-137343448D01*
X144492686Y-137374423D01*
X144496329Y-137377607D01*
X144509259Y-137385812D01*
X144526976Y-137391521D01*
X144553430Y-137395162D01*
X144592568Y-137397167D01*
X144648338Y-137397964D01*
X144684006Y-137398045D01*
X144846445Y-137398045D01*
X144846445Y-137556089D01*
X144599839Y-137556089D01*
X144518420Y-137556231D01*
X144456590Y-137556814D01*
X144411363Y-137558068D01*
X144379752Y-137560227D01*
X144358769Y-137563523D01*
X144345427Y-137568189D01*
X144336739Y-137574457D01*
X144334550Y-137576733D01*
X144318386Y-137608280D01*
X144317203Y-137644168D01*
X144330464Y-137675285D01*
X144340957Y-137685271D01*
X144351871Y-137690769D01*
X144368783Y-137695022D01*
X144394367Y-137698180D01*
X144431299Y-137700392D01*
X144482254Y-137701806D01*
X144549906Y-137702572D01*
X144636931Y-137702838D01*
X144656606Y-137702845D01*
X144745089Y-137702787D01*
X144813773Y-137702467D01*
X144865436Y-137701667D01*
X144902855Y-137700167D01*
X144928810Y-137697749D01*
X144946078Y-137694194D01*
X144957438Y-137689282D01*
X144965668Y-137682795D01*
X144970183Y-137678138D01*
X144976979Y-137669889D01*
X144982288Y-137659669D01*
X144986294Y-137644800D01*
X144989179Y-137622602D01*
X144991126Y-137590393D01*
X144992319Y-137545496D01*
X144992939Y-137485228D01*
X144993171Y-137406911D01*
X144993200Y-137340994D01*
X144993129Y-137248628D01*
X144992792Y-137176117D01*
X144992002Y-137120737D01*
X144990574Y-137079765D01*
X144988321Y-137050478D01*
X144985057Y-137030153D01*
X144980596Y-137016066D01*
X144974752Y-137005495D01*
X144969803Y-136998811D01*
X144946406Y-136969067D01*
X144656226Y-136969067D01*
X144559657Y-136969260D01*
G36*
X146090114Y-136973448D02*
X146066548Y-136987273D01*
X146035735Y-137009881D01*
X145996078Y-137042338D01*
X145945980Y-137085708D01*
X145883843Y-137141058D01*
X145808072Y-137209451D01*
X145721334Y-137288084D01*
X145540711Y-137451878D01*
X145535067Y-137232029D01*
X145533029Y-137156351D01*
X145531063Y-137099994D01*
X145528734Y-137059706D01*
X145525606Y-137032235D01*
X145521245Y-137014329D01*
X145515216Y-137002737D01*
X145507084Y-136994208D01*
X145502772Y-136990623D01*
X145468241Y-136971670D01*
X145435383Y-136974441D01*
X145409318Y-136990633D01*
X145382667Y-137012199D01*
X145379352Y-137327151D01*
X145378435Y-137419779D01*
X145377968Y-137492544D01*
X145378113Y-137548161D01*
X145379032Y-137589342D01*
X145380887Y-137618803D01*
X145383839Y-137639255D01*
X145388050Y-137653413D01*
X145393682Y-137663991D01*
X145399927Y-137672474D01*
X145413439Y-137688207D01*
X145426883Y-137698636D01*
X145442124Y-137702639D01*
X145461026Y-137699094D01*
X145485455Y-137686879D01*
X145517273Y-137664871D01*
X145558348Y-137631949D01*
X145610542Y-137586991D01*
X145675722Y-137528875D01*
X145749556Y-137462099D01*
X146014845Y-137221458D01*
X146020489Y-137440589D01*
X146022531Y-137516128D01*
X146024502Y-137572354D01*
X146026839Y-137612524D01*
X146029981Y-137639896D01*
X146034364Y-137657728D01*
X146040424Y-137669279D01*
X146048600Y-137677807D01*
X146052784Y-137681282D01*
X146089765Y-137700372D01*
X146124708Y-137697493D01*
X146155136Y-137673100D01*
X146162097Y-137663286D01*
X146167523Y-137651826D01*
X146171603Y-137635968D01*
X146174529Y-137612963D01*
X146176492Y-137580062D01*
X146177683Y-137534516D01*
X146178292Y-137473573D01*
X146178511Y-137394486D01*
X146178534Y-137335956D01*
X146178460Y-137244407D01*
X146178113Y-137172687D01*
X146177301Y-137118045D01*
X146175833Y-137077732D01*
X146173519Y-137048998D01*
X146170167Y-137029093D01*
X146165588Y-137015268D01*
X146159589Y-137004772D01*
X146155136Y-136998811D01*
X146143850Y-136984691D01*
X146133301Y-136974029D01*
X146121893Y-136967892D01*
X146108030Y-136967343D01*
X146090114Y-136973448D01*
X146090114Y-136973448D01*
G37*
X146090114Y-136973448D02*
X146066548Y-136987273D01*
X146035735Y-137009881D01*
X145996078Y-137042338D01*
X145945980Y-137085708D01*
X145883843Y-137141058D01*
X145808072Y-137209451D01*
X145721334Y-137288084D01*
X145540711Y-137451878D01*
X145535067Y-137232029D01*
X145533029Y-137156351D01*
X145531063Y-137099994D01*
X145528734Y-137059706D01*
X145525606Y-137032235D01*
X145521245Y-137014329D01*
X145515216Y-137002737D01*
X145507084Y-136994208D01*
X145502772Y-136990623D01*
X145468241Y-136971670D01*
X145435383Y-136974441D01*
X145409318Y-136990633D01*
X145382667Y-137012199D01*
X145379352Y-137327151D01*
X145378435Y-137419779D01*
X145377968Y-137492544D01*
X145378113Y-137548161D01*
X145379032Y-137589342D01*
X145380887Y-137618803D01*
X145383839Y-137639255D01*
X145388050Y-137653413D01*
X145393682Y-137663991D01*
X145399927Y-137672474D01*
X145413439Y-137688207D01*
X145426883Y-137698636D01*
X145442124Y-137702639D01*
X145461026Y-137699094D01*
X145485455Y-137686879D01*
X145517273Y-137664871D01*
X145558348Y-137631949D01*
X145610542Y-137586991D01*
X145675722Y-137528875D01*
X145749556Y-137462099D01*
X146014845Y-137221458D01*
X146020489Y-137440589D01*
X146022531Y-137516128D01*
X146024502Y-137572354D01*
X146026839Y-137612524D01*
X146029981Y-137639896D01*
X146034364Y-137657728D01*
X146040424Y-137669279D01*
X146048600Y-137677807D01*
X146052784Y-137681282D01*
X146089765Y-137700372D01*
X146124708Y-137697493D01*
X146155136Y-137673100D01*
X146162097Y-137663286D01*
X146167523Y-137651826D01*
X146171603Y-137635968D01*
X146174529Y-137612963D01*
X146176492Y-137580062D01*
X146177683Y-137534516D01*
X146178292Y-137473573D01*
X146178511Y-137394486D01*
X146178534Y-137335956D01*
X146178460Y-137244407D01*
X146178113Y-137172687D01*
X146177301Y-137118045D01*
X146175833Y-137077732D01*
X146173519Y-137048998D01*
X146170167Y-137029093D01*
X146165588Y-137015268D01*
X146159589Y-137004772D01*
X146155136Y-136998811D01*
X146143850Y-136984691D01*
X146133301Y-136974029D01*
X146121893Y-136967892D01*
X146108030Y-136967343D01*
X146090114Y-136973448D01*
G36*
X146740081Y-136974599D02*
X146671565Y-136986095D01*
X146618943Y-137003967D01*
X146584708Y-137027499D01*
X146575379Y-137040924D01*
X146565893Y-137072148D01*
X146572277Y-137100395D01*
X146592430Y-137127182D01*
X146623745Y-137139713D01*
X146669183Y-137138696D01*
X146704326Y-137131906D01*
X146782419Y-137118971D01*
X146862226Y-137117742D01*
X146951555Y-137128241D01*
X146976229Y-137132690D01*
X147059291Y-137156108D01*
X147124273Y-137190945D01*
X147170461Y-137236604D01*
X147197145Y-137292494D01*
X147202663Y-137321388D01*
X147199051Y-137380012D01*
X147175729Y-137431879D01*
X147134824Y-137475978D01*
X147078459Y-137511299D01*
X147008760Y-137536829D01*
X146927852Y-137551559D01*
X146837860Y-137554478D01*
X146740910Y-137544575D01*
X146735436Y-137543641D01*
X146696875Y-137536459D01*
X146675494Y-137529521D01*
X146666227Y-137519227D01*
X146664006Y-137501976D01*
X146663956Y-137492841D01*
X146663956Y-137454489D01*
X146732431Y-137454489D01*
X146792900Y-137450347D01*
X146834165Y-137437147D01*
X146858175Y-137413730D01*
X146866877Y-137378936D01*
X146866983Y-137374394D01*
X146861892Y-137344654D01*
X146844433Y-137323419D01*
X146811939Y-137309366D01*
X146761743Y-137301173D01*
X146713123Y-137298161D01*
X146642456Y-137296433D01*
X146591198Y-137299070D01*
X146556239Y-137308800D01*
X146534470Y-137328353D01*
X146522780Y-137360456D01*
X146518060Y-137407838D01*
X146517200Y-137470071D01*
X146518609Y-137539535D01*
X146522848Y-137586786D01*
X146529936Y-137612012D01*
X146531311Y-137613988D01*
X146570228Y-137645508D01*
X146627286Y-137670470D01*
X146698869Y-137688340D01*
X146781358Y-137698586D01*
X146871139Y-137700673D01*
X146964592Y-137694068D01*
X147019556Y-137685956D01*
X147105766Y-137661554D01*
X147185892Y-137621662D01*
X147252977Y-137569887D01*
X147263173Y-137559539D01*
X147296302Y-137516035D01*
X147326194Y-137462118D01*
X147349357Y-137405592D01*
X147362298Y-137354259D01*
X147363858Y-137334544D01*
X147357218Y-137293419D01*
X147339568Y-137242252D01*
X147314297Y-137188394D01*
X147284789Y-137139195D01*
X147258719Y-137106334D01*
X147197765Y-137057452D01*
X147118969Y-137018545D01*
X147025157Y-136990494D01*
X146919150Y-136974179D01*
X146822000Y-136970192D01*
X146740081Y-136974599D01*
X146740081Y-136974599D01*
G37*
X146740081Y-136974599D02*
X146671565Y-136986095D01*
X146618943Y-137003967D01*
X146584708Y-137027499D01*
X146575379Y-137040924D01*
X146565893Y-137072148D01*
X146572277Y-137100395D01*
X146592430Y-137127182D01*
X146623745Y-137139713D01*
X146669183Y-137138696D01*
X146704326Y-137131906D01*
X146782419Y-137118971D01*
X146862226Y-137117742D01*
X146951555Y-137128241D01*
X146976229Y-137132690D01*
X147059291Y-137156108D01*
X147124273Y-137190945D01*
X147170461Y-137236604D01*
X147197145Y-137292494D01*
X147202663Y-137321388D01*
X147199051Y-137380012D01*
X147175729Y-137431879D01*
X147134824Y-137475978D01*
X147078459Y-137511299D01*
X147008760Y-137536829D01*
X146927852Y-137551559D01*
X146837860Y-137554478D01*
X146740910Y-137544575D01*
X146735436Y-137543641D01*
X146696875Y-137536459D01*
X146675494Y-137529521D01*
X146666227Y-137519227D01*
X146664006Y-137501976D01*
X146663956Y-137492841D01*
X146663956Y-137454489D01*
X146732431Y-137454489D01*
X146792900Y-137450347D01*
X146834165Y-137437147D01*
X146858175Y-137413730D01*
X146866877Y-137378936D01*
X146866983Y-137374394D01*
X146861892Y-137344654D01*
X146844433Y-137323419D01*
X146811939Y-137309366D01*
X146761743Y-137301173D01*
X146713123Y-137298161D01*
X146642456Y-137296433D01*
X146591198Y-137299070D01*
X146556239Y-137308800D01*
X146534470Y-137328353D01*
X146522780Y-137360456D01*
X146518060Y-137407838D01*
X146517200Y-137470071D01*
X146518609Y-137539535D01*
X146522848Y-137586786D01*
X146529936Y-137612012D01*
X146531311Y-137613988D01*
X146570228Y-137645508D01*
X146627286Y-137670470D01*
X146698869Y-137688340D01*
X146781358Y-137698586D01*
X146871139Y-137700673D01*
X146964592Y-137694068D01*
X147019556Y-137685956D01*
X147105766Y-137661554D01*
X147185892Y-137621662D01*
X147252977Y-137569887D01*
X147263173Y-137559539D01*
X147296302Y-137516035D01*
X147326194Y-137462118D01*
X147349357Y-137405592D01*
X147362298Y-137354259D01*
X147363858Y-137334544D01*
X147357218Y-137293419D01*
X147339568Y-137242252D01*
X147314297Y-137188394D01*
X147284789Y-137139195D01*
X147258719Y-137106334D01*
X147197765Y-137057452D01*
X147118969Y-137018545D01*
X147025157Y-136990494D01*
X146919150Y-136974179D01*
X146822000Y-136970192D01*
X146740081Y-136974599D01*
G36*
X147713822Y-136991645D02*
X147707242Y-136999218D01*
X147702079Y-137008987D01*
X147698164Y-137023571D01*
X147695324Y-137045585D01*
X147693387Y-137077648D01*
X147692183Y-137122375D01*
X147691539Y-137182385D01*
X147691284Y-137260294D01*
X147691245Y-137335956D01*
X147691314Y-137429802D01*
X147691638Y-137503689D01*
X147692386Y-137560232D01*
X147693732Y-137602049D01*
X147695846Y-137631757D01*
X147698900Y-137651973D01*
X147703066Y-137665314D01*
X147708516Y-137674398D01*
X147713822Y-137680267D01*
X147746826Y-137699947D01*
X147781991Y-137698181D01*
X147813455Y-137676717D01*
X147820684Y-137668337D01*
X147826334Y-137658614D01*
X147830599Y-137644861D01*
X147833673Y-137624389D01*
X147835752Y-137594512D01*
X147837030Y-137552541D01*
X147837701Y-137495789D01*
X147837959Y-137421567D01*
X147838000Y-137337537D01*
X147838000Y-137024485D01*
X147810291Y-136996776D01*
X147776137Y-136973463D01*
X147743006Y-136972623D01*
X147713822Y-136991645D01*
X147713822Y-136991645D01*
G37*
X147713822Y-136991645D02*
X147707242Y-136999218D01*
X147702079Y-137008987D01*
X147698164Y-137023571D01*
X147695324Y-137045585D01*
X147693387Y-137077648D01*
X147692183Y-137122375D01*
X147691539Y-137182385D01*
X147691284Y-137260294D01*
X147691245Y-137335956D01*
X147691314Y-137429802D01*
X147691638Y-137503689D01*
X147692386Y-137560232D01*
X147693732Y-137602049D01*
X147695846Y-137631757D01*
X147698900Y-137651973D01*
X147703066Y-137665314D01*
X147708516Y-137674398D01*
X147713822Y-137680267D01*
X147746826Y-137699947D01*
X147781991Y-137698181D01*
X147813455Y-137676717D01*
X147820684Y-137668337D01*
X147826334Y-137658614D01*
X147830599Y-137644861D01*
X147833673Y-137624389D01*
X147835752Y-137594512D01*
X147837030Y-137552541D01*
X147837701Y-137495789D01*
X147837959Y-137421567D01*
X147838000Y-137337537D01*
X147838000Y-137024485D01*
X147810291Y-136996776D01*
X147776137Y-136973463D01*
X147743006Y-136972623D01*
X147713822Y-136991645D01*
G36*
X148481703Y-136970351D02*
X148406888Y-136975581D01*
X148337306Y-136983750D01*
X148277002Y-136994550D01*
X148230020Y-137007673D01*
X148200406Y-137022813D01*
X148195860Y-137027269D01*
X148180054Y-137061850D01*
X148184847Y-137097351D01*
X148209364Y-137127725D01*
X148210534Y-137128596D01*
X148224954Y-137137954D01*
X148240008Y-137142876D01*
X148261005Y-137143473D01*
X148293257Y-137139861D01*
X148342073Y-137132154D01*
X148346000Y-137131505D01*
X148418739Y-137122569D01*
X148497217Y-137118161D01*
X148575927Y-137118119D01*
X148649361Y-137122279D01*
X148712011Y-137130479D01*
X148758370Y-137142557D01*
X148761416Y-137143771D01*
X148795048Y-137162615D01*
X148806864Y-137181685D01*
X148797614Y-137200439D01*
X148768047Y-137218337D01*
X148718911Y-137234837D01*
X148650957Y-137249396D01*
X148605645Y-137256406D01*
X148511456Y-137269889D01*
X148436544Y-137282214D01*
X148377717Y-137294449D01*
X148331785Y-137307661D01*
X148295555Y-137322917D01*
X148265838Y-137341285D01*
X148239442Y-137363831D01*
X148218230Y-137385971D01*
X148193065Y-137416819D01*
X148180681Y-137443345D01*
X148176808Y-137476026D01*
X148176667Y-137487995D01*
X148179576Y-137527712D01*
X148191202Y-137557259D01*
X148211323Y-137583486D01*
X148252216Y-137623576D01*
X148297817Y-137654149D01*
X148351513Y-137676203D01*
X148416692Y-137690735D01*
X148496744Y-137698741D01*
X148595057Y-137701218D01*
X148611289Y-137701177D01*
X148676849Y-137699818D01*
X148741866Y-137696730D01*
X148799252Y-137692356D01*
X148841922Y-137687140D01*
X148845372Y-137686541D01*
X148887796Y-137676491D01*
X148923780Y-137663796D01*
X148944150Y-137652190D01*
X148963107Y-137621572D01*
X148964427Y-137585918D01*
X148948085Y-137554144D01*
X148944429Y-137550551D01*
X148929315Y-137539876D01*
X148910415Y-137535276D01*
X148881162Y-137536059D01*
X148845651Y-137540127D01*
X148805970Y-137543762D01*
X148750345Y-137546828D01*
X148685406Y-137549053D01*
X148617785Y-137550164D01*
X148600000Y-137550237D01*
X148532128Y-137549964D01*
X148482454Y-137548646D01*
X148446610Y-137545827D01*
X148420224Y-137541050D01*
X148398926Y-137533857D01*
X148386126Y-137527867D01*
X148358000Y-137511233D01*
X148340068Y-137496168D01*
X148337447Y-137491897D01*
X148342976Y-137474263D01*
X148369260Y-137457192D01*
X148414478Y-137441458D01*
X148476808Y-137427838D01*
X148495171Y-137424804D01*
X148591090Y-137409738D01*
X148667641Y-137397146D01*
X148727780Y-137386111D01*
X148774460Y-137375720D01*
X148810637Y-137365056D01*
X148839265Y-137353205D01*
X148863298Y-137339251D01*
X148885692Y-137322281D01*
X148909402Y-137301378D01*
X148917380Y-137294049D01*
X148945353Y-137266699D01*
X148960160Y-137245029D01*
X148965952Y-137220232D01*
X148966889Y-137188983D01*
X148956575Y-137127705D01*
X148925752Y-137075640D01*
X148874595Y-137032958D01*
X148803283Y-136999825D01*
X148752400Y-136984964D01*
X148697100Y-136975366D01*
X148630853Y-136969936D01*
X148557706Y-136968367D01*
X148481703Y-136970351D01*
X148481703Y-136970351D01*
G37*
X148481703Y-136970351D02*
X148406888Y-136975581D01*
X148337306Y-136983750D01*
X148277002Y-136994550D01*
X148230020Y-137007673D01*
X148200406Y-137022813D01*
X148195860Y-137027269D01*
X148180054Y-137061850D01*
X148184847Y-137097351D01*
X148209364Y-137127725D01*
X148210534Y-137128596D01*
X148224954Y-137137954D01*
X148240008Y-137142876D01*
X148261005Y-137143473D01*
X148293257Y-137139861D01*
X148342073Y-137132154D01*
X148346000Y-137131505D01*
X148418739Y-137122569D01*
X148497217Y-137118161D01*
X148575927Y-137118119D01*
X148649361Y-137122279D01*
X148712011Y-137130479D01*
X148758370Y-137142557D01*
X148761416Y-137143771D01*
X148795048Y-137162615D01*
X148806864Y-137181685D01*
X148797614Y-137200439D01*
X148768047Y-137218337D01*
X148718911Y-137234837D01*
X148650957Y-137249396D01*
X148605645Y-137256406D01*
X148511456Y-137269889D01*
X148436544Y-137282214D01*
X148377717Y-137294449D01*
X148331785Y-137307661D01*
X148295555Y-137322917D01*
X148265838Y-137341285D01*
X148239442Y-137363831D01*
X148218230Y-137385971D01*
X148193065Y-137416819D01*
X148180681Y-137443345D01*
X148176808Y-137476026D01*
X148176667Y-137487995D01*
X148179576Y-137527712D01*
X148191202Y-137557259D01*
X148211323Y-137583486D01*
X148252216Y-137623576D01*
X148297817Y-137654149D01*
X148351513Y-137676203D01*
X148416692Y-137690735D01*
X148496744Y-137698741D01*
X148595057Y-137701218D01*
X148611289Y-137701177D01*
X148676849Y-137699818D01*
X148741866Y-137696730D01*
X148799252Y-137692356D01*
X148841922Y-137687140D01*
X148845372Y-137686541D01*
X148887796Y-137676491D01*
X148923780Y-137663796D01*
X148944150Y-137652190D01*
X148963107Y-137621572D01*
X148964427Y-137585918D01*
X148948085Y-137554144D01*
X148944429Y-137550551D01*
X148929315Y-137539876D01*
X148910415Y-137535276D01*
X148881162Y-137536059D01*
X148845651Y-137540127D01*
X148805970Y-137543762D01*
X148750345Y-137546828D01*
X148685406Y-137549053D01*
X148617785Y-137550164D01*
X148600000Y-137550237D01*
X148532128Y-137549964D01*
X148482454Y-137548646D01*
X148446610Y-137545827D01*
X148420224Y-137541050D01*
X148398926Y-137533857D01*
X148386126Y-137527867D01*
X148358000Y-137511233D01*
X148340068Y-137496168D01*
X148337447Y-137491897D01*
X148342976Y-137474263D01*
X148369260Y-137457192D01*
X148414478Y-137441458D01*
X148476808Y-137427838D01*
X148495171Y-137424804D01*
X148591090Y-137409738D01*
X148667641Y-137397146D01*
X148727780Y-137386111D01*
X148774460Y-137375720D01*
X148810637Y-137365056D01*
X148839265Y-137353205D01*
X148863298Y-137339251D01*
X148885692Y-137322281D01*
X148909402Y-137301378D01*
X148917380Y-137294049D01*
X148945353Y-137266699D01*
X148960160Y-137245029D01*
X148965952Y-137220232D01*
X148966889Y-137188983D01*
X148956575Y-137127705D01*
X148925752Y-137075640D01*
X148874595Y-137032958D01*
X148803283Y-136999825D01*
X148752400Y-136984964D01*
X148697100Y-136975366D01*
X148630853Y-136969936D01*
X148557706Y-136968367D01*
X148481703Y-136970351D01*
G36*
X149502794Y-136969146D02*
X149433386Y-136969518D01*
X149380997Y-136970385D01*
X149342847Y-136971946D01*
X149316159Y-136974403D01*
X149298153Y-136977957D01*
X149286049Y-136982810D01*
X149277069Y-136989161D01*
X149273818Y-136992084D01*
X149254043Y-137023142D01*
X149250482Y-137058828D01*
X149263491Y-137090510D01*
X149269506Y-137096913D01*
X149279235Y-137103121D01*
X149294901Y-137107910D01*
X149319408Y-137111514D01*
X149355661Y-137114164D01*
X149406565Y-137116095D01*
X149475026Y-137117539D01*
X149537617Y-137118418D01*
X149785334Y-137121467D01*
X149788719Y-137186378D01*
X149792105Y-137251289D01*
X149623958Y-137251289D01*
X149550959Y-137251919D01*
X149497517Y-137254553D01*
X149460628Y-137260309D01*
X149437288Y-137270304D01*
X149424494Y-137285656D01*
X149419242Y-137307482D01*
X149418445Y-137327738D01*
X149420923Y-137352592D01*
X149430277Y-137370906D01*
X149449383Y-137383637D01*
X149481118Y-137391741D01*
X149528359Y-137396176D01*
X149593983Y-137397899D01*
X149629801Y-137398045D01*
X149790978Y-137398045D01*
X149790978Y-137556089D01*
X149542622Y-137556089D01*
X149461213Y-137556202D01*
X149399342Y-137556712D01*
X149353968Y-137557870D01*
X149322054Y-137559930D01*
X149300559Y-137563146D01*
X149286443Y-137567772D01*
X149276668Y-137574059D01*
X149271689Y-137578667D01*
X149254610Y-137605560D01*
X149249111Y-137629467D01*
X149256963Y-137658667D01*
X149271689Y-137680267D01*
X149279546Y-137687066D01*
X149289688Y-137692346D01*
X149304844Y-137696298D01*
X149327741Y-137699113D01*
X149361109Y-137700982D01*
X149407675Y-137702098D01*
X149470167Y-137702651D01*
X149551314Y-137702833D01*
X149593422Y-137702845D01*
X149683598Y-137702765D01*
X149753924Y-137702398D01*
X149807129Y-137701552D01*
X149845940Y-137700036D01*
X149873087Y-137697659D01*
X149891298Y-137694229D01*
X149903300Y-137689554D01*
X149911822Y-137683444D01*
X149915156Y-137680267D01*
X149921755Y-137672670D01*
X149926927Y-137662870D01*
X149930846Y-137648239D01*
X149933684Y-137626152D01*
X149935615Y-137593982D01*
X149936812Y-137549103D01*
X149937448Y-137488889D01*
X149937697Y-137410713D01*
X149937734Y-137337923D01*
X149937700Y-137244707D01*
X149937465Y-137171431D01*
X149936830Y-137115458D01*
X149935594Y-137074151D01*
X149933556Y-137044872D01*
X149930517Y-137024984D01*
X149926277Y-137011850D01*
X149920635Y-137002832D01*
X149913391Y-136995293D01*
X149911606Y-136993612D01*
X149902945Y-136986172D01*
X149892882Y-136980409D01*
X149878625Y-136976112D01*
X149857383Y-136973064D01*
X149826364Y-136971051D01*
X149782777Y-136969860D01*
X149723831Y-136969275D01*
X149646734Y-136969083D01*
X149592001Y-136969067D01*
X149502794Y-136969146D01*
X149502794Y-136969146D01*
G37*
X149502794Y-136969146D02*
X149433386Y-136969518D01*
X149380997Y-136970385D01*
X149342847Y-136971946D01*
X149316159Y-136974403D01*
X149298153Y-136977957D01*
X149286049Y-136982810D01*
X149277069Y-136989161D01*
X149273818Y-136992084D01*
X149254043Y-137023142D01*
X149250482Y-137058828D01*
X149263491Y-137090510D01*
X149269506Y-137096913D01*
X149279235Y-137103121D01*
X149294901Y-137107910D01*
X149319408Y-137111514D01*
X149355661Y-137114164D01*
X149406565Y-137116095D01*
X149475026Y-137117539D01*
X149537617Y-137118418D01*
X149785334Y-137121467D01*
X149788719Y-137186378D01*
X149792105Y-137251289D01*
X149623958Y-137251289D01*
X149550959Y-137251919D01*
X149497517Y-137254553D01*
X149460628Y-137260309D01*
X149437288Y-137270304D01*
X149424494Y-137285656D01*
X149419242Y-137307482D01*
X149418445Y-137327738D01*
X149420923Y-137352592D01*
X149430277Y-137370906D01*
X149449383Y-137383637D01*
X149481118Y-137391741D01*
X149528359Y-137396176D01*
X149593983Y-137397899D01*
X149629801Y-137398045D01*
X149790978Y-137398045D01*
X149790978Y-137556089D01*
X149542622Y-137556089D01*
X149461213Y-137556202D01*
X149399342Y-137556712D01*
X149353968Y-137557870D01*
X149322054Y-137559930D01*
X149300559Y-137563146D01*
X149286443Y-137567772D01*
X149276668Y-137574059D01*
X149271689Y-137578667D01*
X149254610Y-137605560D01*
X149249111Y-137629467D01*
X149256963Y-137658667D01*
X149271689Y-137680267D01*
X149279546Y-137687066D01*
X149289688Y-137692346D01*
X149304844Y-137696298D01*
X149327741Y-137699113D01*
X149361109Y-137700982D01*
X149407675Y-137702098D01*
X149470167Y-137702651D01*
X149551314Y-137702833D01*
X149593422Y-137702845D01*
X149683598Y-137702765D01*
X149753924Y-137702398D01*
X149807129Y-137701552D01*
X149845940Y-137700036D01*
X149873087Y-137697659D01*
X149891298Y-137694229D01*
X149903300Y-137689554D01*
X149911822Y-137683444D01*
X149915156Y-137680267D01*
X149921755Y-137672670D01*
X149926927Y-137662870D01*
X149930846Y-137648239D01*
X149933684Y-137626152D01*
X149935615Y-137593982D01*
X149936812Y-137549103D01*
X149937448Y-137488889D01*
X149937697Y-137410713D01*
X149937734Y-137337923D01*
X149937700Y-137244707D01*
X149937465Y-137171431D01*
X149936830Y-137115458D01*
X149935594Y-137074151D01*
X149933556Y-137044872D01*
X149930517Y-137024984D01*
X149926277Y-137011850D01*
X149920635Y-137002832D01*
X149913391Y-136995293D01*
X149911606Y-136993612D01*
X149902945Y-136986172D01*
X149892882Y-136980409D01*
X149878625Y-136976112D01*
X149857383Y-136973064D01*
X149826364Y-136971051D01*
X149782777Y-136969860D01*
X149723831Y-136969275D01*
X149646734Y-136969083D01*
X149592001Y-136969067D01*
X149502794Y-136969146D01*
G36*
X150911371Y-136969066D02*
X150871889Y-136969467D01*
X150756200Y-136972259D01*
X150659311Y-136980550D01*
X150577919Y-136995232D01*
X150508723Y-137017193D01*
X150448420Y-137047322D01*
X150393708Y-137086510D01*
X150374167Y-137103532D01*
X150341750Y-137143363D01*
X150312520Y-137197413D01*
X150289991Y-137257323D01*
X150277679Y-137314739D01*
X150276400Y-137335956D01*
X150284417Y-137394769D01*
X150305899Y-137459013D01*
X150336999Y-137519821D01*
X150373866Y-137568330D01*
X150379854Y-137574182D01*
X150430579Y-137615321D01*
X150486125Y-137647435D01*
X150549696Y-137671365D01*
X150624494Y-137687953D01*
X150713722Y-137698041D01*
X150820582Y-137702469D01*
X150869528Y-137702845D01*
X150931762Y-137702545D01*
X150975528Y-137701292D01*
X151004931Y-137698554D01*
X151024079Y-137693801D01*
X151037077Y-137686501D01*
X151044045Y-137680267D01*
X151050626Y-137672694D01*
X151055788Y-137662924D01*
X151059703Y-137648340D01*
X151062543Y-137626326D01*
X151064480Y-137594264D01*
X151065684Y-137549536D01*
X151066328Y-137489526D01*
X151066583Y-137411617D01*
X151066622Y-137335956D01*
X151066870Y-137235041D01*
X151066817Y-137154427D01*
X151065857Y-137115822D01*
X150919867Y-137115822D01*
X150919867Y-137556089D01*
X150826734Y-137556004D01*
X150770693Y-137554396D01*
X150711999Y-137550256D01*
X150663028Y-137544464D01*
X150661538Y-137544226D01*
X150582392Y-137525090D01*
X150521002Y-137495287D01*
X150474305Y-137452878D01*
X150444635Y-137406961D01*
X150426353Y-137356026D01*
X150427771Y-137308200D01*
X150448988Y-137256933D01*
X150490489Y-137203899D01*
X150547998Y-137164600D01*
X150622750Y-137138331D01*
X150672708Y-137129035D01*
X150729416Y-137122507D01*
X150789519Y-137117782D01*
X150840639Y-137115817D01*
X150843667Y-137115808D01*
X150919867Y-137115822D01*
X151065857Y-137115822D01*
X151065260Y-137091851D01*
X151060998Y-137045055D01*
X151052830Y-137011778D01*
X151039556Y-136989759D01*
X151019974Y-136976739D01*
X150992883Y-136970457D01*
X150957082Y-136968653D01*
X150911371Y-136969066D01*
X150911371Y-136969066D01*
G37*
X150911371Y-136969066D02*
X150871889Y-136969467D01*
X150756200Y-136972259D01*
X150659311Y-136980550D01*
X150577919Y-136995232D01*
X150508723Y-137017193D01*
X150448420Y-137047322D01*
X150393708Y-137086510D01*
X150374167Y-137103532D01*
X150341750Y-137143363D01*
X150312520Y-137197413D01*
X150289991Y-137257323D01*
X150277679Y-137314739D01*
X150276400Y-137335956D01*
X150284417Y-137394769D01*
X150305899Y-137459013D01*
X150336999Y-137519821D01*
X150373866Y-137568330D01*
X150379854Y-137574182D01*
X150430579Y-137615321D01*
X150486125Y-137647435D01*
X150549696Y-137671365D01*
X150624494Y-137687953D01*
X150713722Y-137698041D01*
X150820582Y-137702469D01*
X150869528Y-137702845D01*
X150931762Y-137702545D01*
X150975528Y-137701292D01*
X151004931Y-137698554D01*
X151024079Y-137693801D01*
X151037077Y-137686501D01*
X151044045Y-137680267D01*
X151050626Y-137672694D01*
X151055788Y-137662924D01*
X151059703Y-137648340D01*
X151062543Y-137626326D01*
X151064480Y-137594264D01*
X151065684Y-137549536D01*
X151066328Y-137489526D01*
X151066583Y-137411617D01*
X151066622Y-137335956D01*
X151066870Y-137235041D01*
X151066817Y-137154427D01*
X151065857Y-137115822D01*
X150919867Y-137115822D01*
X150919867Y-137556089D01*
X150826734Y-137556004D01*
X150770693Y-137554396D01*
X150711999Y-137550256D01*
X150663028Y-137544464D01*
X150661538Y-137544226D01*
X150582392Y-137525090D01*
X150521002Y-137495287D01*
X150474305Y-137452878D01*
X150444635Y-137406961D01*
X150426353Y-137356026D01*
X150427771Y-137308200D01*
X150448988Y-137256933D01*
X150490489Y-137203899D01*
X150547998Y-137164600D01*
X150622750Y-137138331D01*
X150672708Y-137129035D01*
X150729416Y-137122507D01*
X150789519Y-137117782D01*
X150840639Y-137115817D01*
X150843667Y-137115808D01*
X150919867Y-137115822D01*
X151065857Y-137115822D01*
X151065260Y-137091851D01*
X151060998Y-137045055D01*
X151052830Y-137011778D01*
X151039556Y-136989759D01*
X151019974Y-136976739D01*
X150992883Y-136970457D01*
X150957082Y-136968653D01*
X150911371Y-136969066D01*
G04 #@! TO.C,SW1*
D13*
X188354761Y-95866666D02*
X188402380Y-96009523D01*
X188402380Y-96247619D01*
X188354761Y-96342857D01*
X188307142Y-96390476D01*
X188211904Y-96438095D01*
X188116666Y-96438095D01*
X188021428Y-96390476D01*
X187973809Y-96342857D01*
X187926190Y-96247619D01*
X187878571Y-96057142D01*
X187830952Y-95961904D01*
X187783333Y-95914285D01*
X187688095Y-95866666D01*
X187592857Y-95866666D01*
X187497619Y-95914285D01*
X187450000Y-95961904D01*
X187402380Y-96057142D01*
X187402380Y-96295238D01*
X187450000Y-96438095D01*
X187402380Y-96771428D02*
X188402380Y-97009523D01*
X187688095Y-97200000D01*
X188402380Y-97390476D01*
X187402380Y-97628571D01*
X188402380Y-98533333D02*
X188402380Y-97961904D01*
X188402380Y-98247619D02*
X187402380Y-98247619D01*
X187545238Y-98152380D01*
X187640476Y-98057142D01*
X187688095Y-97961904D01*
G04 #@! TD*
M02*
