G04 #@! TF.GenerationSoftware,KiCad,Pcbnew,5.0.1-33cea8e~66~ubuntu18.04.1*
G04 #@! TF.CreationDate,2018-10-14T22:24:42+03:00*
G04 #@! TF.ProjectId,AA-PI-Display-Board-RaspberryPi3,41412D50492D446973706C61792D426F,02*
G04 #@! TF.SameCoordinates,Original*
G04 #@! TF.FileFunction,Soldermask,Bot*
G04 #@! TF.FilePolarity,Negative*
%FSLAX46Y46*%
G04 Gerber Fmt 4.6, Leading zero omitted, Abs format (unit mm)*
G04 Created by KiCad (PCBNEW 5.0.1-33cea8e~66~ubuntu18.04.1) date Sun 14 Oct 2018 22:24:42 MSK*
%MOMM*%
%LPD*%
G01*
G04 APERTURE LIST*
%ADD10C,0.100000*%
G04 APERTURE END LIST*
D10*
G36*
X116998169Y-133881895D02*
X117153005Y-133946031D01*
X117292354Y-134039140D01*
X117410860Y-134157646D01*
X117503969Y-134296995D01*
X117568105Y-134451831D01*
X117600800Y-134616203D01*
X117600800Y-134783797D01*
X117568105Y-134948169D01*
X117503969Y-135103005D01*
X117410860Y-135242354D01*
X117292354Y-135360860D01*
X117153005Y-135453969D01*
X116998169Y-135518105D01*
X116833797Y-135550800D01*
X116666203Y-135550800D01*
X116501831Y-135518105D01*
X116346995Y-135453969D01*
X116207646Y-135360860D01*
X116089140Y-135242354D01*
X115996031Y-135103005D01*
X115931895Y-134948169D01*
X115899200Y-134783797D01*
X115899200Y-134616203D01*
X115931895Y-134451831D01*
X115996031Y-134296995D01*
X116089140Y-134157646D01*
X116207646Y-134039140D01*
X116346995Y-133946031D01*
X116501831Y-133881895D01*
X116666203Y-133849200D01*
X116833797Y-133849200D01*
X116998169Y-133881895D01*
X116998169Y-133881895D01*
G37*
G36*
X102539720Y-133256256D02*
X102610662Y-133270367D01*
X102710902Y-133311887D01*
X102800706Y-133371893D01*
X102801117Y-133372168D01*
X102877832Y-133448883D01*
X102877834Y-133448886D01*
X102938113Y-133539098D01*
X102979633Y-133639338D01*
X103000800Y-133745751D01*
X103000800Y-133854249D01*
X102979633Y-133960662D01*
X102938113Y-134060902D01*
X102878107Y-134150706D01*
X102877832Y-134151117D01*
X102801117Y-134227832D01*
X102801114Y-134227834D01*
X102710902Y-134288113D01*
X102610662Y-134329633D01*
X102539720Y-134343744D01*
X102504250Y-134350800D01*
X102395750Y-134350800D01*
X102360280Y-134343744D01*
X102289338Y-134329633D01*
X102189098Y-134288113D01*
X102098886Y-134227834D01*
X102098883Y-134227832D01*
X102022168Y-134151117D01*
X102021893Y-134150706D01*
X101961887Y-134060902D01*
X101920367Y-133960662D01*
X101899200Y-133854249D01*
X101899200Y-133745751D01*
X101920367Y-133639338D01*
X101961887Y-133539098D01*
X102022166Y-133448886D01*
X102022168Y-133448883D01*
X102098883Y-133372168D01*
X102099294Y-133371893D01*
X102189098Y-133311887D01*
X102289338Y-133270367D01*
X102360280Y-133256256D01*
X102395750Y-133249200D01*
X102504250Y-133249200D01*
X102539720Y-133256256D01*
X102539720Y-133256256D01*
G37*
G36*
X98139720Y-133256256D02*
X98210662Y-133270367D01*
X98310902Y-133311887D01*
X98400706Y-133371893D01*
X98401117Y-133372168D01*
X98477832Y-133448883D01*
X98477834Y-133448886D01*
X98538113Y-133539098D01*
X98579633Y-133639338D01*
X98600800Y-133745751D01*
X98600800Y-133854249D01*
X98579633Y-133960662D01*
X98538113Y-134060902D01*
X98478107Y-134150706D01*
X98477832Y-134151117D01*
X98401117Y-134227832D01*
X98401114Y-134227834D01*
X98310902Y-134288113D01*
X98210662Y-134329633D01*
X98139720Y-134343744D01*
X98104250Y-134350800D01*
X97995750Y-134350800D01*
X97960280Y-134343744D01*
X97889338Y-134329633D01*
X97789098Y-134288113D01*
X97698886Y-134227834D01*
X97698883Y-134227832D01*
X97622168Y-134151117D01*
X97621893Y-134150706D01*
X97561887Y-134060902D01*
X97520367Y-133960662D01*
X97499200Y-133854249D01*
X97499200Y-133745751D01*
X97520367Y-133639338D01*
X97561887Y-133539098D01*
X97622166Y-133448886D01*
X97622168Y-133448883D01*
X97698883Y-133372168D01*
X97699294Y-133371893D01*
X97789098Y-133311887D01*
X97889338Y-133270367D01*
X97960280Y-133256256D01*
X97995750Y-133249200D01*
X98104250Y-133249200D01*
X98139720Y-133256256D01*
X98139720Y-133256256D01*
G37*
G36*
X116998169Y-129381895D02*
X117153005Y-129446031D01*
X117292354Y-129539140D01*
X117410860Y-129657646D01*
X117503969Y-129796995D01*
X117568105Y-129951831D01*
X117600800Y-130116203D01*
X117600800Y-130283797D01*
X117568105Y-130448169D01*
X117503969Y-130603005D01*
X117410860Y-130742354D01*
X117292354Y-130860860D01*
X117153005Y-130953969D01*
X116998169Y-131018105D01*
X116833797Y-131050800D01*
X116666203Y-131050800D01*
X116501831Y-131018105D01*
X116346995Y-130953969D01*
X116207646Y-130860860D01*
X116089140Y-130742354D01*
X115996031Y-130603005D01*
X115931895Y-130448169D01*
X115899200Y-130283797D01*
X115899200Y-130116203D01*
X115931895Y-129951831D01*
X115996031Y-129796995D01*
X116089140Y-129657646D01*
X116207646Y-129539140D01*
X116346995Y-129446031D01*
X116501831Y-129381895D01*
X116666203Y-129349200D01*
X116833797Y-129349200D01*
X116998169Y-129381895D01*
X116998169Y-129381895D01*
G37*
G36*
X87436391Y-127872957D02*
X87615616Y-127927325D01*
X87780792Y-128015613D01*
X87925570Y-128134430D01*
X88044387Y-128279208D01*
X88132675Y-128444384D01*
X88187043Y-128623609D01*
X88205400Y-128810000D01*
X88187043Y-128996391D01*
X88132675Y-129175616D01*
X88044387Y-129340792D01*
X87925570Y-129485570D01*
X87780792Y-129604387D01*
X87615616Y-129692675D01*
X87436391Y-129747043D01*
X87296708Y-129760800D01*
X75003292Y-129760800D01*
X74863609Y-129747043D01*
X74684384Y-129692675D01*
X74519208Y-129604387D01*
X74374430Y-129485570D01*
X74255613Y-129340792D01*
X74167325Y-129175616D01*
X74112957Y-128996391D01*
X74094600Y-128810000D01*
X74112957Y-128623609D01*
X74167325Y-128444384D01*
X74255613Y-128279208D01*
X74374430Y-128134430D01*
X74519208Y-128015613D01*
X74684384Y-127927325D01*
X74863609Y-127872957D01*
X75003292Y-127859200D01*
X87296708Y-127859200D01*
X87436391Y-127872957D01*
X87436391Y-127872957D01*
G37*
G36*
X182846253Y-113453801D02*
X183116730Y-113507602D01*
X183327799Y-113595030D01*
X183626296Y-113718671D01*
X184084899Y-114025100D01*
X184474900Y-114415101D01*
X184781329Y-114873704D01*
X184992398Y-115383271D01*
X185100000Y-115924223D01*
X185100000Y-116475777D01*
X184992398Y-117016729D01*
X184781329Y-117526296D01*
X184474900Y-117984899D01*
X184084899Y-118374900D01*
X183626296Y-118681329D01*
X183327799Y-118804970D01*
X183116730Y-118892398D01*
X182846253Y-118946199D01*
X182575777Y-119000000D01*
X182024223Y-119000000D01*
X181753747Y-118946199D01*
X181483270Y-118892398D01*
X181272201Y-118804970D01*
X180973704Y-118681329D01*
X180515101Y-118374900D01*
X180125100Y-117984899D01*
X179818671Y-117526296D01*
X179607602Y-117016729D01*
X179500000Y-116475777D01*
X179500000Y-115924223D01*
X179607602Y-115383271D01*
X179818671Y-114873704D01*
X180125100Y-114415101D01*
X180515101Y-114025100D01*
X180973704Y-113718671D01*
X181272201Y-113595030D01*
X181483270Y-113507602D01*
X181753747Y-113453801D01*
X182024223Y-113400000D01*
X182575777Y-113400000D01*
X182846253Y-113453801D01*
X182846253Y-113453801D01*
G37*
G36*
X133846253Y-113453801D02*
X134116730Y-113507602D01*
X134327799Y-113595030D01*
X134626296Y-113718671D01*
X135084899Y-114025100D01*
X135474900Y-114415101D01*
X135781329Y-114873704D01*
X135992398Y-115383271D01*
X136100000Y-115924223D01*
X136100000Y-116475777D01*
X135992398Y-117016729D01*
X135781329Y-117526296D01*
X135474900Y-117984899D01*
X135084899Y-118374900D01*
X134626296Y-118681329D01*
X134327799Y-118804970D01*
X134116730Y-118892398D01*
X133846253Y-118946199D01*
X133575777Y-119000000D01*
X133024223Y-119000000D01*
X132753747Y-118946199D01*
X132483270Y-118892398D01*
X132272201Y-118804970D01*
X131973704Y-118681329D01*
X131515101Y-118374900D01*
X131125100Y-117984899D01*
X130818671Y-117526296D01*
X130607602Y-117016729D01*
X130500000Y-116475777D01*
X130500000Y-115924223D01*
X130607602Y-115383271D01*
X130818671Y-114873704D01*
X131125100Y-114415101D01*
X131515101Y-114025100D01*
X131973704Y-113718671D01*
X132272201Y-113595030D01*
X132483270Y-113507602D01*
X132753747Y-113453801D01*
X133024223Y-113400000D01*
X133575777Y-113400000D01*
X133846253Y-113453801D01*
X133846253Y-113453801D01*
G37*
G36*
X103846253Y-113453801D02*
X104116730Y-113507602D01*
X104327799Y-113595030D01*
X104626296Y-113718671D01*
X105084899Y-114025100D01*
X105474900Y-114415101D01*
X105781329Y-114873704D01*
X105992398Y-115383271D01*
X106100000Y-115924223D01*
X106100000Y-116475777D01*
X105992398Y-117016729D01*
X105781329Y-117526296D01*
X105474900Y-117984899D01*
X105084899Y-118374900D01*
X104626296Y-118681329D01*
X104327799Y-118804970D01*
X104116730Y-118892398D01*
X103846253Y-118946199D01*
X103575777Y-119000000D01*
X103024223Y-119000000D01*
X102753747Y-118946199D01*
X102483270Y-118892398D01*
X102272201Y-118804970D01*
X101973704Y-118681329D01*
X101515101Y-118374900D01*
X101125100Y-117984899D01*
X100818671Y-117526296D01*
X100607602Y-117016729D01*
X100500000Y-116475777D01*
X100500000Y-115924223D01*
X100607602Y-115383271D01*
X100818671Y-114873704D01*
X101125100Y-114415101D01*
X101515101Y-114025100D01*
X101973704Y-113718671D01*
X102272201Y-113595030D01*
X102483270Y-113507602D01*
X102753747Y-113453801D01*
X103024223Y-113400000D01*
X103575777Y-113400000D01*
X103846253Y-113453801D01*
X103846253Y-113453801D01*
G37*
G36*
X54846253Y-113453801D02*
X55116730Y-113507602D01*
X55327799Y-113595030D01*
X55626296Y-113718671D01*
X56084899Y-114025100D01*
X56474900Y-114415101D01*
X56781329Y-114873704D01*
X56992398Y-115383271D01*
X57100000Y-115924223D01*
X57100000Y-116475777D01*
X56992398Y-117016729D01*
X56781329Y-117526296D01*
X56474900Y-117984899D01*
X56084899Y-118374900D01*
X55626296Y-118681329D01*
X55327799Y-118804970D01*
X55116730Y-118892398D01*
X54846253Y-118946199D01*
X54575777Y-119000000D01*
X54024223Y-119000000D01*
X53753747Y-118946199D01*
X53483270Y-118892398D01*
X53272201Y-118804970D01*
X52973704Y-118681329D01*
X52515101Y-118374900D01*
X52125100Y-117984899D01*
X51818671Y-117526296D01*
X51607602Y-117016729D01*
X51500000Y-116475777D01*
X51500000Y-115924223D01*
X51607602Y-115383271D01*
X51818671Y-114873704D01*
X52125100Y-114415101D01*
X52515101Y-114025100D01*
X52973704Y-113718671D01*
X53272201Y-113595030D01*
X53483270Y-113507602D01*
X53753747Y-113453801D01*
X54024223Y-113400000D01*
X54575777Y-113400000D01*
X54846253Y-113453801D01*
X54846253Y-113453801D01*
G37*
G36*
X161775800Y-112567800D02*
X159264200Y-112567800D01*
X159264200Y-109176200D01*
X161775800Y-109176200D01*
X161775800Y-112567800D01*
X161775800Y-112567800D01*
G37*
G36*
X186400800Y-101950800D02*
X184299200Y-101950800D01*
X184299200Y-100249200D01*
X186400800Y-100249200D01*
X186400800Y-101950800D01*
X186400800Y-101950800D01*
G37*
G36*
X186400800Y-94150800D02*
X184299200Y-94150800D01*
X184299200Y-92449200D01*
X186400800Y-92449200D01*
X186400800Y-94150800D01*
X186400800Y-94150800D01*
G37*
G36*
X178805990Y-76414404D02*
X179004069Y-76474490D01*
X179089806Y-76520318D01*
X179186618Y-76572065D01*
X179346623Y-76703377D01*
X179346624Y-76703379D01*
X179346626Y-76703380D01*
X179445107Y-76823381D01*
X179477935Y-76863382D01*
X179523354Y-76948355D01*
X179575510Y-77045930D01*
X179635596Y-77244009D01*
X179650800Y-77398379D01*
X179650800Y-91501621D01*
X179635596Y-91655991D01*
X179575510Y-91854070D01*
X179523354Y-91951645D01*
X179477935Y-92036618D01*
X179346623Y-92196623D01*
X179186618Y-92327935D01*
X179101645Y-92373354D01*
X179004070Y-92425510D01*
X178805991Y-92485596D01*
X178600000Y-92505884D01*
X178394010Y-92485596D01*
X178195931Y-92425510D01*
X178098356Y-92373354D01*
X178013383Y-92327935D01*
X177853378Y-92196623D01*
X177722066Y-92036618D01*
X177676647Y-91951645D01*
X177624491Y-91854070D01*
X177564405Y-91655991D01*
X177549201Y-91501621D01*
X177549200Y-77398380D01*
X177564404Y-77244010D01*
X177624490Y-77045931D01*
X177670318Y-76960194D01*
X177722065Y-76863382D01*
X177853377Y-76703377D01*
X177853379Y-76703376D01*
X177853380Y-76703374D01*
X178013381Y-76572066D01*
X178013380Y-76572066D01*
X178013382Y-76572065D01*
X178098355Y-76526646D01*
X178195930Y-76474490D01*
X178394009Y-76414404D01*
X178600000Y-76394116D01*
X178805990Y-76414404D01*
X178805990Y-76414404D01*
G37*
G36*
X106996077Y-89268445D02*
X107087216Y-89306196D01*
X107087218Y-89306197D01*
X107168153Y-89360276D01*
X107169244Y-89361005D01*
X107238995Y-89430756D01*
X107293804Y-89512784D01*
X107331555Y-89603923D01*
X107350800Y-89700674D01*
X107350800Y-89799326D01*
X107331555Y-89896077D01*
X107293804Y-89987216D01*
X107238995Y-90069244D01*
X107169244Y-90138995D01*
X107169241Y-90138997D01*
X107087218Y-90193803D01*
X107087217Y-90193804D01*
X107087216Y-90193804D01*
X106996077Y-90231555D01*
X106899326Y-90250800D01*
X106800674Y-90250800D01*
X106703923Y-90231555D01*
X106612784Y-90193804D01*
X106612783Y-90193804D01*
X106612782Y-90193803D01*
X106530759Y-90138997D01*
X106530756Y-90138995D01*
X106461005Y-90069244D01*
X106406196Y-89987216D01*
X106368445Y-89896077D01*
X106349200Y-89799326D01*
X106349200Y-89700674D01*
X106368445Y-89603923D01*
X106406196Y-89512784D01*
X106461005Y-89430756D01*
X106530756Y-89361005D01*
X106531847Y-89360276D01*
X106612782Y-89306197D01*
X106612784Y-89306196D01*
X106703923Y-89268445D01*
X106800674Y-89249200D01*
X106899326Y-89249200D01*
X106996077Y-89268445D01*
X106996077Y-89268445D01*
G37*
G36*
X103996077Y-89268445D02*
X104087216Y-89306196D01*
X104087218Y-89306197D01*
X104168153Y-89360276D01*
X104169244Y-89361005D01*
X104238995Y-89430756D01*
X104293804Y-89512784D01*
X104331555Y-89603923D01*
X104350800Y-89700674D01*
X104350800Y-89799326D01*
X104331555Y-89896077D01*
X104293804Y-89987216D01*
X104238995Y-90069244D01*
X104169244Y-90138995D01*
X104169241Y-90138997D01*
X104087218Y-90193803D01*
X104087217Y-90193804D01*
X104087216Y-90193804D01*
X103996077Y-90231555D01*
X103899326Y-90250800D01*
X103800674Y-90250800D01*
X103703923Y-90231555D01*
X103612784Y-90193804D01*
X103612783Y-90193804D01*
X103612782Y-90193803D01*
X103530759Y-90138997D01*
X103530756Y-90138995D01*
X103461005Y-90069244D01*
X103406196Y-89987216D01*
X103368445Y-89896077D01*
X103349200Y-89799326D01*
X103349200Y-89700674D01*
X103368445Y-89603923D01*
X103406196Y-89512784D01*
X103461005Y-89430756D01*
X103530756Y-89361005D01*
X103531847Y-89360276D01*
X103612782Y-89306197D01*
X103612784Y-89306196D01*
X103703923Y-89268445D01*
X103800674Y-89249200D01*
X103899326Y-89249200D01*
X103996077Y-89268445D01*
X103996077Y-89268445D01*
G37*
G36*
X54846253Y-55453801D02*
X55116730Y-55507602D01*
X55327799Y-55595030D01*
X55626296Y-55718671D01*
X56084899Y-56025100D01*
X56474900Y-56415101D01*
X56781329Y-56873704D01*
X56992398Y-57383271D01*
X57100000Y-57924223D01*
X57100000Y-58475777D01*
X56992398Y-59016729D01*
X56781329Y-59526296D01*
X56474900Y-59984899D01*
X56084899Y-60374900D01*
X55626296Y-60681329D01*
X55327799Y-60804970D01*
X55116730Y-60892398D01*
X54846253Y-60946199D01*
X54575777Y-61000000D01*
X54024223Y-61000000D01*
X53753747Y-60946199D01*
X53483270Y-60892398D01*
X53272201Y-60804970D01*
X52973704Y-60681329D01*
X52515101Y-60374900D01*
X52125100Y-59984899D01*
X51818671Y-59526296D01*
X51607602Y-59016729D01*
X51500000Y-58475777D01*
X51500000Y-57924223D01*
X51607602Y-57383271D01*
X51818671Y-56873704D01*
X52125100Y-56415101D01*
X52515101Y-56025100D01*
X52973704Y-55718671D01*
X53272201Y-55595030D01*
X53483270Y-55507602D01*
X53753747Y-55453801D01*
X54024223Y-55400000D01*
X54575777Y-55400000D01*
X54846253Y-55453801D01*
X54846253Y-55453801D01*
G37*
G36*
X103846253Y-55453801D02*
X104116730Y-55507602D01*
X104327799Y-55595030D01*
X104626296Y-55718671D01*
X105084899Y-56025100D01*
X105474900Y-56415101D01*
X105781329Y-56873704D01*
X105992398Y-57383271D01*
X106100000Y-57924223D01*
X106100000Y-58475777D01*
X105992398Y-59016729D01*
X105781329Y-59526296D01*
X105474900Y-59984899D01*
X105084899Y-60374900D01*
X104626296Y-60681329D01*
X104327799Y-60804970D01*
X104116730Y-60892398D01*
X103846253Y-60946199D01*
X103575777Y-61000000D01*
X103024223Y-61000000D01*
X102753747Y-60946199D01*
X102483270Y-60892398D01*
X102272201Y-60804970D01*
X101973704Y-60681329D01*
X101515101Y-60374900D01*
X101125100Y-59984899D01*
X100818671Y-59526296D01*
X100607602Y-59016729D01*
X100500000Y-58475777D01*
X100500000Y-57924223D01*
X100607602Y-57383271D01*
X100818671Y-56873704D01*
X101125100Y-56415101D01*
X101515101Y-56025100D01*
X101973704Y-55718671D01*
X102272201Y-55595030D01*
X102483270Y-55507602D01*
X102753747Y-55453801D01*
X103024223Y-55400000D01*
X103575777Y-55400000D01*
X103846253Y-55453801D01*
X103846253Y-55453801D01*
G37*
G36*
X133846253Y-55453801D02*
X134116730Y-55507602D01*
X134327799Y-55595030D01*
X134626296Y-55718671D01*
X135084899Y-56025100D01*
X135474900Y-56415101D01*
X135781329Y-56873704D01*
X135992398Y-57383271D01*
X136100000Y-57924223D01*
X136100000Y-58475777D01*
X135992398Y-59016729D01*
X135781329Y-59526296D01*
X135474900Y-59984899D01*
X135084899Y-60374900D01*
X134626296Y-60681329D01*
X134327799Y-60804970D01*
X134116730Y-60892398D01*
X133846253Y-60946199D01*
X133575777Y-61000000D01*
X133024223Y-61000000D01*
X132753747Y-60946199D01*
X132483270Y-60892398D01*
X132272201Y-60804970D01*
X131973704Y-60681329D01*
X131515101Y-60374900D01*
X131125100Y-59984899D01*
X130818671Y-59526296D01*
X130607602Y-59016729D01*
X130500000Y-58475777D01*
X130500000Y-57924223D01*
X130607602Y-57383271D01*
X130818671Y-56873704D01*
X131125100Y-56415101D01*
X131515101Y-56025100D01*
X131973704Y-55718671D01*
X132272201Y-55595030D01*
X132483270Y-55507602D01*
X132753747Y-55453801D01*
X133024223Y-55400000D01*
X133575777Y-55400000D01*
X133846253Y-55453801D01*
X133846253Y-55453801D01*
G37*
G36*
X182846253Y-55453801D02*
X183116730Y-55507602D01*
X183327799Y-55595030D01*
X183626296Y-55718671D01*
X184084899Y-56025100D01*
X184474900Y-56415101D01*
X184781329Y-56873704D01*
X184992398Y-57383271D01*
X185100000Y-57924223D01*
X185100000Y-58475777D01*
X184992398Y-59016729D01*
X184781329Y-59526296D01*
X184474900Y-59984899D01*
X184084899Y-60374900D01*
X183626296Y-60681329D01*
X183327799Y-60804970D01*
X183116730Y-60892398D01*
X182846253Y-60946199D01*
X182575777Y-61000000D01*
X182024223Y-61000000D01*
X181753747Y-60946199D01*
X181483270Y-60892398D01*
X181272201Y-60804970D01*
X180973704Y-60681329D01*
X180515101Y-60374900D01*
X180125100Y-59984899D01*
X179818671Y-59526296D01*
X179607602Y-59016729D01*
X179500000Y-58475777D01*
X179500000Y-57924223D01*
X179607602Y-57383271D01*
X179818671Y-56873704D01*
X180125100Y-56415101D01*
X180515101Y-56025100D01*
X180973704Y-55718671D01*
X181272201Y-55595030D01*
X181483270Y-55507602D01*
X181753747Y-55453801D01*
X182024223Y-55400000D01*
X182575777Y-55400000D01*
X182846253Y-55453801D01*
X182846253Y-55453801D01*
G37*
M02*
