M48
;DRILL file {KiCad 5.0.2-bee76a0~70~ubuntu18.04.1} date Wed 05 Dec 2018 23:11:11 MSK
;FORMAT={-:-/ absolute / inch / decimal}
FMAT,2
INCH,TZ
T1C0.0150
T2C0.0200
T3C0.0394
T4C0.0472
%
G90
G05
T1
X2.1654Y-3.4646
X2.1654Y-5.0394
X2.1665Y-4.0803
X2.1677Y-2.8626
X2.6098Y-2.7669
X2.6114Y-3.0224
X2.7441Y-3.267
X2.7559Y-2.2835
X2.7559Y-5.315
X2.7685Y-2.8646
X2.7689Y-2.7646
X2.8334Y-2.9051
X2.8415Y-3.3159
X2.8445Y-4.3197
X2.8972Y-2.9847
X2.8972Y-3.7736
X2.9421Y-4.3205
X2.9661Y-4.3579
X2.9665Y-3.4646
X2.972Y-3.678
X2.9811Y-4.9953
X3.0125Y-2.718
X3.0249Y-2.8758
X3.0382Y-3.0152
X3.0665Y-4.8594
X3.1067Y-4.7587
X3.1827Y-4.1917
X3.2797Y-4.8819
X3.3142Y-4.7697
X3.3264Y-3.7992
X3.3407Y-4.0489
X3.3465Y-5.315
X3.3496Y-4.5106
X3.4098Y-3.7917
X3.4118Y-4.8602
X3.452Y-4.9665
X3.4528Y-2.5343
X3.4594Y-4.2933
X3.476Y-4.6524
X3.4793Y-4.4866
X3.4807Y-4.9961
X3.5008Y-4.5699
X3.5083Y-4.7646
X3.5118Y-4.3937
X3.5472Y-4.5382
X3.5504Y-5.0575
X3.5563Y-3.9657
X3.5567Y-4.2933
X3.5614Y-3.8795
X3.5622Y-3.0685
X3.5768Y-4.4469
X3.5772Y-4.3406
X3.5917Y-2.4441
X3.5921Y-3.7705
X3.5969Y-2.2988
X3.5977Y-4.4997
X3.6252Y-4.6417
X3.6795Y-4.0449
X3.6795Y-4.1272
X3.7142Y-4.1488
X3.7142Y-4.0189
X3.761Y-3.6528
X3.7626Y-3.4161
X3.8Y-4.3102
X4.0128Y-3.6637
X4.0413Y-2.8728
X4.0922Y-2.6421
X4.1102Y-3.1807
X4.126Y-3.1295
X4.1295Y-2.9807
X4.1858Y-3.2803
X4.3114Y-2.7638
X4.3862Y-4.7181
X4.4063Y-4.4205
X4.4339Y-2.8563
X4.5366Y-3.5169
X4.5561Y-4.643
X4.5728Y-4.5449
X4.6224Y-2.7619
X4.6224Y-2.9054
X4.6457Y-2.2835
X4.7394Y-3.1299
X4.7406Y-2.826
X4.7421Y-2.9988
X4.7677Y-4.5512
X4.7953Y-2.7331
X4.8618Y-3.7543
X4.8799Y-2.9957
X4.8957Y-4.7465
X4.9795Y-4.0906
X5.161Y-3.3217
X5.161Y-3.5169
X5.1892Y-2.8515
X5.2035Y-2.3843
X5.2035Y-2.4417
X5.2173Y-2.6413
X5.2312Y-2.822
X5.2794Y-2.8031
X5.3254Y-2.796
X5.3453Y-3.2138
X5.3575Y-2.6283
X5.361Y-2.4224
X5.5252Y-2.9756
X5.5339Y-4.0886
X5.5559Y-3.0091
X5.5898Y-3.0315
X5.5976Y-2.6287
X5.6075Y-3.2012
X5.6204Y-3.0574
X5.6496Y-3.0827
X5.6574Y-2.4155
X5.6798Y-3.1113
X5.6815Y-2.6299
X5.7087Y-2.2835
X5.7087Y-4.8425
X5.7087Y-5.315
X5.7106Y-2.385
X5.7118Y-3.4409
X5.7181Y-2.6299
X5.737Y-2.4976
X5.7524Y-3.6638
X5.7579Y-2.6315
X5.7987Y-2.4955
X5.8087Y-2.9035
X5.8264Y-3.674
X5.8341Y-3.7738
X5.8472Y-3.0669
X5.8484Y-2.7693
X5.8544Y-2.8715
X5.8732Y-3.713
X5.9516Y-2.4894
X6.013Y-2.4787
X6.015Y-2.6617
X6.0335Y-2.7634
X6.0673Y-3.5425
X6.0799Y-2.6197
X6.1Y-4.6063
X6.1011Y-2.4538
X6.1032Y-3.7882
X6.109Y-3.748
X6.1165Y-2.4933
X6.1398Y-2.6343
X6.1628Y-3.7994
X6.1705Y-3.6661
X6.1775Y-2.4941
X6.1988Y-2.7425
X6.2189Y-3.0094
X6.259Y-2.5488
X6.2878Y-3.0295
X6.2925Y-2.8682
X6.3205Y-3.398
X6.3209Y-2.8118
X6.3342Y-4.2254
X6.3665Y-3.6122
X6.4187Y-4.4964
X6.4354Y-4.061
X6.5Y-3.8374
X6.513Y-4.4112
X6.5582Y-4.4209
X6.5937Y-2.5787
X6.6731Y-2.4312
X6.6929Y-2.2835
X6.6929Y-3.2283
X6.6929Y-5.315
X6.6965Y-4.8386
X6.7303Y-4.1894
X6.8128Y-2.7938
X6.851Y-3.7686
X6.9198Y-2.6815
X6.9924Y-2.7836
X7.078Y-2.6602
X7.189Y-4.0114
X7.3228Y-5.0394
X7.3272Y-3.5677
X7.3307Y-3.0283
T2
X2.5713Y-2.863
X3.0413Y-4.7587
X3.0713Y-2.6224
X3.152Y-4.7106
X3.2323Y-3.6772
X3.4803Y-4.8781
X3.5083Y-4.8307
X3.9112Y-3.8277
X4.372Y-4.8
X4.5954Y-4.7874
X4.7488Y-3.2453
X4.8264Y-3.0819
X4.8966Y-3.5155
X5.176Y-3.7205
X5.3508Y-2.7559
X5.3953Y-3.8921
X5.5177Y-3.376
X5.6378Y-3.676
X5.6571Y-3.7575
X6.2972Y-4.0106
X6.5718Y-3.5685
X6.5841Y-4.0191
T3
X6.3197Y-4.365
T4
X2.1378Y-4.5748
X4.0669Y-4.5748
X5.0118Y-4.5748
X4.0669Y-2.2913
X7.2953Y-4.5748
X2.1378Y-2.2913
X7.2953Y-3.2362
X5.0118Y-3.2362
T0
M30
