G04 #@! TF.GenerationSoftware,KiCad,Pcbnew,5.0.2-bee76a0~70~ubuntu18.04.1*
G04 #@! TF.CreationDate,2018-12-05T23:11:17+03:00*
G04 #@! TF.ProjectId,AA-PI-Display-Board-NanoPiA64,41412d50-492d-4446-9973-706c61792d42,2.1*
G04 #@! TF.SameCoordinates,Original*
G04 #@! TF.FileFunction,Soldermask,Bot*
G04 #@! TF.FilePolarity,Negative*
%FSLAX46Y46*%
G04 Gerber Fmt 4.6, Leading zero omitted, Abs format (unit mm)*
G04 Created by KiCad (PCBNEW 5.0.2-bee76a0~70~ubuntu18.04.1) date Wed 05 Dec 2018 23:11:17 MSK*
%MOMM*%
%LPD*%
G01*
G04 APERTURE LIST*
%ADD10C,0.100000*%
G04 APERTURE END LIST*
D10*
G36*
X116998169Y-133881895D02*
X117153005Y-133946031D01*
X117292354Y-134039140D01*
X117410860Y-134157646D01*
X117503969Y-134296995D01*
X117568105Y-134451831D01*
X117600800Y-134616203D01*
X117600800Y-134783797D01*
X117568105Y-134948169D01*
X117503969Y-135103005D01*
X117410860Y-135242354D01*
X117292354Y-135360860D01*
X117153005Y-135453969D01*
X116998169Y-135518105D01*
X116833797Y-135550800D01*
X116666203Y-135550800D01*
X116501831Y-135518105D01*
X116346995Y-135453969D01*
X116207646Y-135360860D01*
X116089140Y-135242354D01*
X115996031Y-135103005D01*
X115931895Y-134948169D01*
X115899200Y-134783797D01*
X115899200Y-134616203D01*
X115931895Y-134451831D01*
X115996031Y-134296995D01*
X116089140Y-134157646D01*
X116207646Y-134039140D01*
X116346995Y-133946031D01*
X116501831Y-133881895D01*
X116666203Y-133849200D01*
X116833797Y-133849200D01*
X116998169Y-133881895D01*
X116998169Y-133881895D01*
G37*
G36*
X102539720Y-133256256D02*
X102610662Y-133270367D01*
X102710902Y-133311887D01*
X102800706Y-133371893D01*
X102801117Y-133372168D01*
X102877832Y-133448883D01*
X102877834Y-133448886D01*
X102938113Y-133539098D01*
X102979633Y-133639338D01*
X103000800Y-133745751D01*
X103000800Y-133854249D01*
X102979633Y-133960662D01*
X102938113Y-134060902D01*
X102878107Y-134150706D01*
X102877832Y-134151117D01*
X102801117Y-134227832D01*
X102801114Y-134227834D01*
X102710902Y-134288113D01*
X102610662Y-134329633D01*
X102539720Y-134343744D01*
X102504250Y-134350800D01*
X102395750Y-134350800D01*
X102360280Y-134343744D01*
X102289338Y-134329633D01*
X102189098Y-134288113D01*
X102098886Y-134227834D01*
X102098883Y-134227832D01*
X102022168Y-134151117D01*
X102021893Y-134150706D01*
X101961887Y-134060902D01*
X101920367Y-133960662D01*
X101899200Y-133854249D01*
X101899200Y-133745751D01*
X101920367Y-133639338D01*
X101961887Y-133539098D01*
X102022166Y-133448886D01*
X102022168Y-133448883D01*
X102098883Y-133372168D01*
X102099294Y-133371893D01*
X102189098Y-133311887D01*
X102289338Y-133270367D01*
X102360280Y-133256256D01*
X102395750Y-133249200D01*
X102504250Y-133249200D01*
X102539720Y-133256256D01*
X102539720Y-133256256D01*
G37*
G36*
X98139720Y-133256256D02*
X98210662Y-133270367D01*
X98310902Y-133311887D01*
X98400706Y-133371893D01*
X98401117Y-133372168D01*
X98477832Y-133448883D01*
X98477834Y-133448886D01*
X98538113Y-133539098D01*
X98579633Y-133639338D01*
X98600800Y-133745751D01*
X98600800Y-133854249D01*
X98579633Y-133960662D01*
X98538113Y-134060902D01*
X98478107Y-134150706D01*
X98477832Y-134151117D01*
X98401117Y-134227832D01*
X98401114Y-134227834D01*
X98310902Y-134288113D01*
X98210662Y-134329633D01*
X98139720Y-134343744D01*
X98104250Y-134350800D01*
X97995750Y-134350800D01*
X97960280Y-134343744D01*
X97889338Y-134329633D01*
X97789098Y-134288113D01*
X97698886Y-134227834D01*
X97698883Y-134227832D01*
X97622168Y-134151117D01*
X97621893Y-134150706D01*
X97561887Y-134060902D01*
X97520367Y-133960662D01*
X97499200Y-133854249D01*
X97499200Y-133745751D01*
X97520367Y-133639338D01*
X97561887Y-133539098D01*
X97622166Y-133448886D01*
X97622168Y-133448883D01*
X97698883Y-133372168D01*
X97699294Y-133371893D01*
X97789098Y-133311887D01*
X97889338Y-133270367D01*
X97960280Y-133256256D01*
X97995750Y-133249200D01*
X98104250Y-133249200D01*
X98139720Y-133256256D01*
X98139720Y-133256256D01*
G37*
G36*
X116998169Y-129381895D02*
X117153005Y-129446031D01*
X117292354Y-129539140D01*
X117410860Y-129657646D01*
X117503969Y-129796995D01*
X117568105Y-129951831D01*
X117600800Y-130116203D01*
X117600800Y-130283797D01*
X117568105Y-130448169D01*
X117503969Y-130603005D01*
X117410860Y-130742354D01*
X117292354Y-130860860D01*
X117153005Y-130953969D01*
X116998169Y-131018105D01*
X116833797Y-131050800D01*
X116666203Y-131050800D01*
X116501831Y-131018105D01*
X116346995Y-130953969D01*
X116207646Y-130860860D01*
X116089140Y-130742354D01*
X115996031Y-130603005D01*
X115931895Y-130448169D01*
X115899200Y-130283797D01*
X115899200Y-130116203D01*
X115931895Y-129951831D01*
X115996031Y-129796995D01*
X116089140Y-129657646D01*
X116207646Y-129539140D01*
X116346995Y-129446031D01*
X116501831Y-129381895D01*
X116666203Y-129349200D01*
X116833797Y-129349200D01*
X116998169Y-129381895D01*
X116998169Y-129381895D01*
G37*
G36*
X87436391Y-127872957D02*
X87615616Y-127927325D01*
X87780792Y-128015613D01*
X87925570Y-128134430D01*
X88044387Y-128279208D01*
X88132675Y-128444384D01*
X88187043Y-128623609D01*
X88205400Y-128810000D01*
X88187043Y-128996391D01*
X88132675Y-129175616D01*
X88044387Y-129340792D01*
X87925570Y-129485570D01*
X87780792Y-129604387D01*
X87615616Y-129692675D01*
X87436391Y-129747043D01*
X87296708Y-129760800D01*
X75003292Y-129760800D01*
X74863609Y-129747043D01*
X74684384Y-129692675D01*
X74519208Y-129604387D01*
X74374430Y-129485570D01*
X74255613Y-129340792D01*
X74167325Y-129175616D01*
X74112957Y-128996391D01*
X74094600Y-128810000D01*
X74112957Y-128623609D01*
X74167325Y-128444384D01*
X74255613Y-128279208D01*
X74374430Y-128134430D01*
X74519208Y-128015613D01*
X74684384Y-127927325D01*
X74863609Y-127872957D01*
X75003292Y-127859200D01*
X87296708Y-127859200D01*
X87436391Y-127872957D01*
X87436391Y-127872957D01*
G37*
G36*
X103846253Y-113453801D02*
X104116730Y-113507602D01*
X104327799Y-113595030D01*
X104626296Y-113718671D01*
X105084899Y-114025100D01*
X105474900Y-114415101D01*
X105781329Y-114873704D01*
X105992398Y-115383271D01*
X106100000Y-115924223D01*
X106100000Y-116475777D01*
X105992398Y-117016729D01*
X105781329Y-117526296D01*
X105474900Y-117984899D01*
X105084899Y-118374900D01*
X104626296Y-118681329D01*
X104327799Y-118804970D01*
X104116730Y-118892398D01*
X103846253Y-118946199D01*
X103575777Y-119000000D01*
X103024223Y-119000000D01*
X102753747Y-118946199D01*
X102483270Y-118892398D01*
X102272201Y-118804970D01*
X101973704Y-118681329D01*
X101515101Y-118374900D01*
X101125100Y-117984899D01*
X100818671Y-117526296D01*
X100607602Y-117016729D01*
X100500000Y-116475777D01*
X100500000Y-115924223D01*
X100607602Y-115383271D01*
X100818671Y-114873704D01*
X101125100Y-114415101D01*
X101515101Y-114025100D01*
X101973704Y-113718671D01*
X102272201Y-113595030D01*
X102483270Y-113507602D01*
X102753747Y-113453801D01*
X103024223Y-113400000D01*
X103575777Y-113400000D01*
X103846253Y-113453801D01*
X103846253Y-113453801D01*
G37*
G36*
X127846253Y-113453801D02*
X128116730Y-113507602D01*
X128327799Y-113595030D01*
X128626296Y-113718671D01*
X129084899Y-114025100D01*
X129474900Y-114415101D01*
X129781329Y-114873704D01*
X129992398Y-115383271D01*
X130100000Y-115924223D01*
X130100000Y-116475777D01*
X129992398Y-117016729D01*
X129781329Y-117526296D01*
X129474900Y-117984899D01*
X129084899Y-118374900D01*
X128626296Y-118681329D01*
X128327799Y-118804970D01*
X128116730Y-118892398D01*
X127846253Y-118946199D01*
X127575777Y-119000000D01*
X127024223Y-119000000D01*
X126753747Y-118946199D01*
X126483270Y-118892398D01*
X126272201Y-118804970D01*
X125973704Y-118681329D01*
X125515101Y-118374900D01*
X125125100Y-117984899D01*
X124818671Y-117526296D01*
X124607602Y-117016729D01*
X124500000Y-116475777D01*
X124500000Y-115924223D01*
X124607602Y-115383271D01*
X124818671Y-114873704D01*
X125125100Y-114415101D01*
X125515101Y-114025100D01*
X125973704Y-113718671D01*
X126272201Y-113595030D01*
X126483270Y-113507602D01*
X126753747Y-113453801D01*
X127024223Y-113400000D01*
X127575777Y-113400000D01*
X127846253Y-113453801D01*
X127846253Y-113453801D01*
G37*
G36*
X185846253Y-113453801D02*
X186116730Y-113507602D01*
X186327799Y-113595030D01*
X186626296Y-113718671D01*
X187084899Y-114025100D01*
X187474900Y-114415101D01*
X187781329Y-114873704D01*
X187992398Y-115383271D01*
X188100000Y-115924223D01*
X188100000Y-116475777D01*
X187992398Y-117016729D01*
X187781329Y-117526296D01*
X187474900Y-117984899D01*
X187084899Y-118374900D01*
X186626296Y-118681329D01*
X186327799Y-118804970D01*
X186116730Y-118892398D01*
X185846253Y-118946199D01*
X185575777Y-119000000D01*
X185024223Y-119000000D01*
X184753747Y-118946199D01*
X184483270Y-118892398D01*
X184272201Y-118804970D01*
X183973704Y-118681329D01*
X183515101Y-118374900D01*
X183125100Y-117984899D01*
X182818671Y-117526296D01*
X182607602Y-117016729D01*
X182500000Y-116475777D01*
X182500000Y-115924223D01*
X182607602Y-115383271D01*
X182818671Y-114873704D01*
X183125100Y-114415101D01*
X183515101Y-114025100D01*
X183973704Y-113718671D01*
X184272201Y-113595030D01*
X184483270Y-113507602D01*
X184753747Y-113453801D01*
X185024223Y-113400000D01*
X185575777Y-113400000D01*
X185846253Y-113453801D01*
X185846253Y-113453801D01*
G37*
G36*
X54846253Y-113453801D02*
X55116730Y-113507602D01*
X55327799Y-113595030D01*
X55626296Y-113718671D01*
X56084899Y-114025100D01*
X56474900Y-114415101D01*
X56781329Y-114873704D01*
X56992398Y-115383271D01*
X57100000Y-115924223D01*
X57100000Y-116475777D01*
X56992398Y-117016729D01*
X56781329Y-117526296D01*
X56474900Y-117984899D01*
X56084899Y-118374900D01*
X55626296Y-118681329D01*
X55327799Y-118804970D01*
X55116730Y-118892398D01*
X54846253Y-118946199D01*
X54575777Y-119000000D01*
X54024223Y-119000000D01*
X53753747Y-118946199D01*
X53483270Y-118892398D01*
X53272201Y-118804970D01*
X52973704Y-118681329D01*
X52515101Y-118374900D01*
X52125100Y-117984899D01*
X51818671Y-117526296D01*
X51607602Y-117016729D01*
X51500000Y-116475777D01*
X51500000Y-115924223D01*
X51607602Y-115383271D01*
X51818671Y-114873704D01*
X52125100Y-114415101D01*
X52515101Y-114025100D01*
X52973704Y-113718671D01*
X53272201Y-113595030D01*
X53483270Y-113507602D01*
X53753747Y-113453801D01*
X54024223Y-113400000D01*
X54575777Y-113400000D01*
X54846253Y-113453801D01*
X54846253Y-113453801D01*
G37*
G36*
X161775800Y-112567800D02*
X159264200Y-112567800D01*
X159264200Y-109176200D01*
X161775800Y-109176200D01*
X161775800Y-112567800D01*
X161775800Y-112567800D01*
G37*
G36*
X186400800Y-101950800D02*
X184299200Y-101950800D01*
X184299200Y-100249200D01*
X186400800Y-100249200D01*
X186400800Y-101950800D01*
X186400800Y-101950800D01*
G37*
G36*
X186400800Y-94150800D02*
X184299200Y-94150800D01*
X184299200Y-92449200D01*
X186400800Y-92449200D01*
X186400800Y-94150800D01*
X186400800Y-94150800D01*
G37*
G36*
X178405990Y-76414404D02*
X178604069Y-76474490D01*
X178689806Y-76520318D01*
X178786618Y-76572065D01*
X178946623Y-76703377D01*
X178946624Y-76703379D01*
X178946626Y-76703380D01*
X179045107Y-76823381D01*
X179077935Y-76863382D01*
X179123354Y-76948355D01*
X179175510Y-77045930D01*
X179235596Y-77244009D01*
X179250800Y-77398379D01*
X179250800Y-91501621D01*
X179235596Y-91655991D01*
X179175510Y-91854070D01*
X179123354Y-91951645D01*
X179077935Y-92036618D01*
X178946623Y-92196623D01*
X178786618Y-92327935D01*
X178701645Y-92373354D01*
X178604070Y-92425510D01*
X178405991Y-92485596D01*
X178200000Y-92505884D01*
X177994010Y-92485596D01*
X177795931Y-92425510D01*
X177698356Y-92373354D01*
X177613383Y-92327935D01*
X177453378Y-92196623D01*
X177322066Y-92036618D01*
X177276647Y-91951645D01*
X177224491Y-91854070D01*
X177164405Y-91655991D01*
X177149201Y-91501621D01*
X177149200Y-77398380D01*
X177164404Y-77244010D01*
X177224490Y-77045931D01*
X177270318Y-76960194D01*
X177322065Y-76863382D01*
X177453377Y-76703377D01*
X177453379Y-76703376D01*
X177453380Y-76703374D01*
X177613381Y-76572066D01*
X177613380Y-76572066D01*
X177613382Y-76572065D01*
X177698355Y-76526646D01*
X177795930Y-76474490D01*
X177994009Y-76414404D01*
X178200000Y-76394116D01*
X178405990Y-76414404D01*
X178405990Y-76414404D01*
G37*
G36*
X102096077Y-89368445D02*
X102187216Y-89406196D01*
X102187218Y-89406197D01*
X102268153Y-89460276D01*
X102269244Y-89461005D01*
X102338995Y-89530756D01*
X102393804Y-89612784D01*
X102431555Y-89703923D01*
X102450800Y-89800674D01*
X102450800Y-89899326D01*
X102431555Y-89996077D01*
X102393804Y-90087216D01*
X102338995Y-90169244D01*
X102269244Y-90238995D01*
X102269241Y-90238997D01*
X102187218Y-90293803D01*
X102187217Y-90293804D01*
X102187216Y-90293804D01*
X102096077Y-90331555D01*
X101999326Y-90350800D01*
X101900674Y-90350800D01*
X101803923Y-90331555D01*
X101712784Y-90293804D01*
X101712783Y-90293804D01*
X101712782Y-90293803D01*
X101630759Y-90238997D01*
X101630756Y-90238995D01*
X101561005Y-90169244D01*
X101506196Y-90087216D01*
X101468445Y-89996077D01*
X101449200Y-89899326D01*
X101449200Y-89800674D01*
X101468445Y-89703923D01*
X101506196Y-89612784D01*
X101561005Y-89530756D01*
X101630756Y-89461005D01*
X101631847Y-89460276D01*
X101712782Y-89406197D01*
X101712784Y-89406196D01*
X101803923Y-89368445D01*
X101900674Y-89349200D01*
X101999326Y-89349200D01*
X102096077Y-89368445D01*
X102096077Y-89368445D01*
G37*
G36*
X99096077Y-89368445D02*
X99187216Y-89406196D01*
X99187218Y-89406197D01*
X99268153Y-89460276D01*
X99269244Y-89461005D01*
X99338995Y-89530756D01*
X99393804Y-89612784D01*
X99431555Y-89703923D01*
X99450800Y-89800674D01*
X99450800Y-89899326D01*
X99431555Y-89996077D01*
X99393804Y-90087216D01*
X99338995Y-90169244D01*
X99269244Y-90238995D01*
X99269241Y-90238997D01*
X99187218Y-90293803D01*
X99187217Y-90293804D01*
X99187216Y-90293804D01*
X99096077Y-90331555D01*
X98999326Y-90350800D01*
X98900674Y-90350800D01*
X98803923Y-90331555D01*
X98712784Y-90293804D01*
X98712783Y-90293804D01*
X98712782Y-90293803D01*
X98630759Y-90238997D01*
X98630756Y-90238995D01*
X98561005Y-90169244D01*
X98506196Y-90087216D01*
X98468445Y-89996077D01*
X98449200Y-89899326D01*
X98449200Y-89800674D01*
X98468445Y-89703923D01*
X98506196Y-89612784D01*
X98561005Y-89530756D01*
X98630756Y-89461005D01*
X98631847Y-89460276D01*
X98712782Y-89406197D01*
X98712784Y-89406196D01*
X98803923Y-89368445D01*
X98900674Y-89349200D01*
X98999326Y-89349200D01*
X99096077Y-89368445D01*
X99096077Y-89368445D01*
G37*
G36*
X185846253Y-79453801D02*
X186116730Y-79507602D01*
X186327799Y-79595030D01*
X186626296Y-79718671D01*
X187084899Y-80025100D01*
X187474900Y-80415101D01*
X187781329Y-80873704D01*
X187992398Y-81383271D01*
X188100000Y-81924223D01*
X188100000Y-82475777D01*
X187992398Y-83016729D01*
X187781329Y-83526296D01*
X187474900Y-83984899D01*
X187084899Y-84374900D01*
X186626296Y-84681329D01*
X186327799Y-84804970D01*
X186116730Y-84892398D01*
X185846253Y-84946199D01*
X185575777Y-85000000D01*
X185024223Y-85000000D01*
X184753747Y-84946199D01*
X184483270Y-84892398D01*
X184272201Y-84804970D01*
X183973704Y-84681329D01*
X183515101Y-84374900D01*
X183125100Y-83984899D01*
X182818671Y-83526296D01*
X182607602Y-83016729D01*
X182500000Y-82475777D01*
X182500000Y-81924223D01*
X182607602Y-81383271D01*
X182818671Y-80873704D01*
X183125100Y-80415101D01*
X183515101Y-80025100D01*
X183973704Y-79718671D01*
X184272201Y-79595030D01*
X184483270Y-79507602D01*
X184753747Y-79453801D01*
X185024223Y-79400000D01*
X185575777Y-79400000D01*
X185846253Y-79453801D01*
X185846253Y-79453801D01*
G37*
G36*
X127846253Y-79453801D02*
X128116730Y-79507602D01*
X128327799Y-79595030D01*
X128626296Y-79718671D01*
X129084899Y-80025100D01*
X129474900Y-80415101D01*
X129781329Y-80873704D01*
X129992398Y-81383271D01*
X130100000Y-81924223D01*
X130100000Y-82475777D01*
X129992398Y-83016729D01*
X129781329Y-83526296D01*
X129474900Y-83984899D01*
X129084899Y-84374900D01*
X128626296Y-84681329D01*
X128327799Y-84804970D01*
X128116730Y-84892398D01*
X127846253Y-84946199D01*
X127575777Y-85000000D01*
X127024223Y-85000000D01*
X126753747Y-84946199D01*
X126483270Y-84892398D01*
X126272201Y-84804970D01*
X125973704Y-84681329D01*
X125515101Y-84374900D01*
X125125100Y-83984899D01*
X124818671Y-83526296D01*
X124607602Y-83016729D01*
X124500000Y-82475777D01*
X124500000Y-81924223D01*
X124607602Y-81383271D01*
X124818671Y-80873704D01*
X125125100Y-80415101D01*
X125515101Y-80025100D01*
X125973704Y-79718671D01*
X126272201Y-79595030D01*
X126483270Y-79507602D01*
X126753747Y-79453801D01*
X127024223Y-79400000D01*
X127575777Y-79400000D01*
X127846253Y-79453801D01*
X127846253Y-79453801D01*
G37*
G36*
X54846253Y-55453801D02*
X55116730Y-55507602D01*
X55327799Y-55595030D01*
X55626296Y-55718671D01*
X56084899Y-56025100D01*
X56474900Y-56415101D01*
X56781329Y-56873704D01*
X56992398Y-57383271D01*
X57100000Y-57924223D01*
X57100000Y-58475777D01*
X56992398Y-59016729D01*
X56781329Y-59526296D01*
X56474900Y-59984899D01*
X56084899Y-60374900D01*
X55626296Y-60681329D01*
X55327799Y-60804970D01*
X55116730Y-60892398D01*
X54846253Y-60946199D01*
X54575777Y-61000000D01*
X54024223Y-61000000D01*
X53753747Y-60946199D01*
X53483270Y-60892398D01*
X53272201Y-60804970D01*
X52973704Y-60681329D01*
X52515101Y-60374900D01*
X52125100Y-59984899D01*
X51818671Y-59526296D01*
X51607602Y-59016729D01*
X51500000Y-58475777D01*
X51500000Y-57924223D01*
X51607602Y-57383271D01*
X51818671Y-56873704D01*
X52125100Y-56415101D01*
X52515101Y-56025100D01*
X52973704Y-55718671D01*
X53272201Y-55595030D01*
X53483270Y-55507602D01*
X53753747Y-55453801D01*
X54024223Y-55400000D01*
X54575777Y-55400000D01*
X54846253Y-55453801D01*
X54846253Y-55453801D01*
G37*
G36*
X103846253Y-55453801D02*
X104116730Y-55507602D01*
X104327799Y-55595030D01*
X104626296Y-55718671D01*
X105084899Y-56025100D01*
X105474900Y-56415101D01*
X105781329Y-56873704D01*
X105992398Y-57383271D01*
X106100000Y-57924223D01*
X106100000Y-58475777D01*
X105992398Y-59016729D01*
X105781329Y-59526296D01*
X105474900Y-59984899D01*
X105084899Y-60374900D01*
X104626296Y-60681329D01*
X104327799Y-60804970D01*
X104116730Y-60892398D01*
X103846253Y-60946199D01*
X103575777Y-61000000D01*
X103024223Y-61000000D01*
X102753747Y-60946199D01*
X102483270Y-60892398D01*
X102272201Y-60804970D01*
X101973704Y-60681329D01*
X101515101Y-60374900D01*
X101125100Y-59984899D01*
X100818671Y-59526296D01*
X100607602Y-59016729D01*
X100500000Y-58475777D01*
X100500000Y-57924223D01*
X100607602Y-57383271D01*
X100818671Y-56873704D01*
X101125100Y-56415101D01*
X101515101Y-56025100D01*
X101973704Y-55718671D01*
X102272201Y-55595030D01*
X102483270Y-55507602D01*
X102753747Y-55453801D01*
X103024223Y-55400000D01*
X103575777Y-55400000D01*
X103846253Y-55453801D01*
X103846253Y-55453801D01*
G37*
M02*
