G04 #@! TF.GenerationSoftware,KiCad,Pcbnew,5.0.2-bee76a0~70~ubuntu18.04.1*
G04 #@! TF.CreationDate,2018-12-05T23:11:17+03:00*
G04 #@! TF.ProjectId,AA-PI-Display-Board-NanoPiA64,41412d50-492d-4446-9973-706c61792d42,2.1*
G04 #@! TF.SameCoordinates,Original*
G04 #@! TF.FileFunction,Copper,L2,Bot*
G04 #@! TF.FilePolarity,Positive*
%FSLAX46Y46*%
G04 Gerber Fmt 4.6, Leading zero omitted, Abs format (unit mm)*
G04 Created by KiCad (PCBNEW 5.0.2-bee76a0~70~ubuntu18.04.1) date Wed 05 Dec 2018 23:11:17 MSK*
%MOMM*%
%LPD*%
G01*
G04 APERTURE LIST*
G04 #@! TA.AperFunction,ComponentPad*
%ADD10C,5.400000*%
G04 #@! TD*
G04 #@! TA.AperFunction,ComponentPad*
%ADD11R,2.410000X3.290000*%
G04 #@! TD*
G04 #@! TA.AperFunction,SMDPad,CuDef*
%ADD12R,2.000000X1.600000*%
G04 #@! TD*
G04 #@! TA.AperFunction,ViaPad*
%ADD13C,0.762000*%
G04 #@! TD*
G04 #@! TA.AperFunction,ViaPad*
%ADD14C,1.016000*%
G04 #@! TD*
G04 #@! TA.AperFunction,Conductor*
%ADD15C,0.254000*%
G04 #@! TD*
G04 #@! TA.AperFunction,Conductor*
%ADD16C,0.508000*%
G04 #@! TD*
G04 APERTURE END LIST*
D10*
G04 #@! TO.P,SS8,1*
G04 #@! TO.N,N/C*
X103300000Y-116200000D03*
G04 #@! TD*
D11*
G04 #@! TO.P,U5,17*
G04 #@! TO.N,GND*
X160520000Y-110872000D03*
G04 #@! TD*
D10*
G04 #@! TO.P,SS7,1*
G04 #@! TO.N,N/C*
X54300000Y-116200000D03*
G04 #@! TD*
G04 #@! TO.P,SS6,1*
G04 #@! TO.N,N/C*
X103300000Y-58200000D03*
G04 #@! TD*
G04 #@! TO.P,SS5,1*
G04 #@! TO.N,N/C*
X54300000Y-58200000D03*
G04 #@! TD*
G04 #@! TO.P,SS4,1*
G04 #@! TO.N,N/C*
X185300000Y-116200000D03*
G04 #@! TD*
G04 #@! TO.P,SS3,1*
G04 #@! TO.N,N/C*
X127300000Y-116200000D03*
G04 #@! TD*
G04 #@! TO.P,SS1,1*
G04 #@! TO.N,N/C*
X127300000Y-82200000D03*
G04 #@! TD*
G04 #@! TO.P,SS2,1*
G04 #@! TO.N,N/C*
X185300000Y-82200000D03*
G04 #@! TD*
D12*
G04 #@! TO.P,SW1,1*
G04 #@! TO.N,GND*
X185350000Y-101100000D03*
G04 #@! TO.P,SW1,2*
G04 #@! TO.N,Net-(C1-Pad1)*
X185350000Y-93300000D03*
G04 #@! TD*
D13*
G04 #@! TO.N,Net-(C1-Pad1)*
X173044000Y-70962400D03*
X169497902Y-61752098D03*
X167481210Y-65499203D03*
D14*
G04 #@! TO.N,V_SW*
X143200000Y-93370000D03*
D13*
X142430000Y-81310000D03*
G04 #@! TO.N,GND*
X163035000Y-114207900D03*
X85000000Y-135000000D03*
X70000000Y-135000000D03*
X55000000Y-128000000D03*
X55000000Y-88000000D03*
X91360000Y-58390000D03*
X70000000Y-58000000D03*
X118000000Y-58000000D03*
X145000000Y-58000000D03*
X170000000Y-58000000D03*
X145000000Y-135000000D03*
X170000000Y-135000000D03*
X145000000Y-123000000D03*
X170000000Y-82000000D03*
X186000000Y-128000000D03*
X66330000Y-76770000D03*
X170950000Y-106410000D03*
X154940000Y-117000000D03*
X87700000Y-64370000D03*
X75350000Y-88000000D03*
X135770000Y-81630000D03*
X70330000Y-70220000D03*
X66290000Y-70280000D03*
X115230000Y-89330000D03*
X132170000Y-62020000D03*
X123490000Y-95360000D03*
X154430000Y-66540000D03*
X145720000Y-63440000D03*
X158979009Y-64739001D03*
X159709000Y-76950000D03*
X106320000Y-83320000D03*
X142180000Y-66770000D03*
X153250000Y-70190000D03*
X156730000Y-93120000D03*
X123950000Y-76090000D03*
X136080000Y-66760000D03*
X170090000Y-122900000D03*
X55030000Y-103640000D03*
X109508816Y-70199999D03*
X121800000Y-69420000D03*
X186110000Y-90620000D03*
X186200000Y-76920000D03*
X55060000Y-72710000D03*
X126480000Y-103900000D03*
X78909998Y-120870000D03*
X120380000Y-79500000D03*
X116150000Y-115440000D03*
X91240000Y-95770000D03*
X156908589Y-63350177D03*
X155360000Y-63330002D03*
X151170000Y-63230000D03*
X143698609Y-61353191D03*
X182600000Y-101890000D03*
X95570000Y-86770000D03*
X90480000Y-77940000D03*
X84853261Y-102842542D03*
X175764000Y-68110000D03*
X145080000Y-87400000D03*
X174016153Y-95721347D03*
X160540000Y-86310000D03*
X88290000Y-118170000D03*
X131090000Y-84370000D03*
X179780000Y-67570000D03*
X72250000Y-109720000D03*
X84490000Y-96500000D03*
X95530013Y-92779999D03*
X161710000Y-91750000D03*
X90330000Y-100730000D03*
X163460000Y-103150000D03*
X154110000Y-89980000D03*
X146110000Y-93060000D03*
X147989998Y-93320000D03*
X140560000Y-103850000D03*
X96520000Y-109480000D03*
X80839999Y-106470000D03*
X112620000Y-72550000D03*
X92080000Y-117900000D03*
X87870000Y-109050000D03*
X88374000Y-113960000D03*
X85080000Y-114570000D03*
X89200000Y-111600000D03*
X90850000Y-112950000D03*
X90860000Y-110250000D03*
X90340000Y-109050000D03*
X131090000Y-89330000D03*
X111920000Y-112280000D03*
X111410000Y-119840000D03*
G04 #@! TO.N,V_LOAD*
X166577800Y-112290700D03*
X177607800Y-70703400D03*
D14*
G04 #@! TO.N,+5V*
X167236400Y-102085300D03*
X166922600Y-90640900D03*
X99345395Y-97223895D03*
X135910000Y-70000000D03*
X120620000Y-82430000D03*
D13*
X148520000Y-77900000D03*
G04 #@! TO.N,V_IN*
X121100000Y-115600000D03*
D14*
X137040000Y-98860000D03*
G04 #@! TO.N,+3V3*
X143690000Y-95440000D03*
D13*
X117410000Y-70152000D03*
X117410000Y-73798000D03*
D14*
X122590000Y-78280000D03*
X124372704Y-89292704D03*
D13*
X165100000Y-97470000D03*
D14*
X159949998Y-101870000D03*
X82100002Y-93400000D03*
D13*
G04 #@! TO.N,Net-(C16-Pad1)*
X72174023Y-84224023D03*
X69700521Y-82982028D03*
G04 #@! TO.N,Net-(C19-Pad1)*
X76832700Y-73046200D03*
X76517098Y-69037098D03*
G04 #@! TO.N,LCD_RESET*
X132170000Y-60560000D03*
X147287907Y-63384730D03*
X94339998Y-105380000D03*
X94340000Y-102079999D03*
X145050000Y-60580000D03*
X102650000Y-72970000D03*
X103942366Y-67108790D03*
G04 #@! TO.N,I2C_SDA*
X77170000Y-76587200D03*
X104400000Y-80790000D03*
X74730000Y-109740000D03*
X75490000Y-93420000D03*
G04 #@! TO.N,I2C_SCL*
X73587900Y-75811300D03*
X104800000Y-79490000D03*
X73587900Y-95850000D03*
X75339998Y-110690000D03*
G04 #@! TO.N,DSI_D0_N*
X140340000Y-75580000D03*
X91382483Y-114292708D03*
G04 #@! TO.N,DSI_D0_P*
X75720000Y-126880000D03*
X144267638Y-79027338D03*
X90180000Y-128460000D03*
G04 #@! TO.N,DSI_CLK_N*
X88410000Y-126900000D03*
X143499999Y-78299999D03*
X152780000Y-67608421D03*
X155950000Y-66910000D03*
G04 #@! TO.N,DSI_CLK_P*
X141120000Y-76430000D03*
X152730000Y-62960000D03*
X154968387Y-62326667D03*
X90100000Y-115271210D03*
G04 #@! TO.N,DSI_D1_N*
X141980000Y-77000000D03*
X88919155Y-116075211D03*
G04 #@! TO.N,DSI_D1_P*
X87680000Y-126150000D03*
X142757144Y-77657829D03*
G04 #@! TO.N,PWM_CABC*
X101925400Y-93057900D03*
X83305069Y-124001210D03*
X86660000Y-123450000D03*
X89110000Y-121020000D03*
G04 #@! TO.N,CHRG_PG*
X148185100Y-95855000D03*
X131806299Y-72429109D03*
G04 #@! TO.N,CHRG_STAT1*
X132872100Y-71679200D03*
X155168600Y-95200200D03*
G04 #@! TO.N,CHRG_STAT2*
X134097000Y-71197500D03*
X155021875Y-96219367D03*
G04 #@! TO.N,LOW_BATT*
X165430900Y-112044900D03*
X160888800Y-107326300D03*
X135265600Y-71019010D03*
G04 #@! TO.N,I2S_BCLK*
X70319000Y-72760000D03*
X71968952Y-73788952D03*
G04 #@! TO.N,Net-(Q5-Pad1)*
X124351300Y-120561900D03*
X115724100Y-117931600D03*
G04 #@! TO.N,Net-(Q7-Pad3)*
X149180000Y-94310000D03*
X156535900Y-96504100D03*
D14*
G04 #@! TO.N,/V_USB*
X116722100Y-121600000D03*
X111050000Y-121918790D03*
G04 #@! TO.N,/V_F2*
X88400806Y-123904602D03*
D13*
X77888160Y-123428376D03*
D14*
G04 #@! TO.N,V_ADC*
X65310000Y-72720000D03*
X78010000Y-66610000D03*
D13*
G04 #@! TO.N,ADC_EN*
X91230000Y-62080000D03*
X104890000Y-75710000D03*
G04 #@! TO.N,I2C_SCL_H*
X120450000Y-76170000D03*
X157960000Y-76440000D03*
G04 #@! TO.N,I2C_SDA_H*
X120410000Y-71780000D03*
X157450000Y-69660000D03*
G04 #@! TO.N,SHDN_REQ*
X132520000Y-67090000D03*
X136170000Y-61530000D03*
G04 #@! TO.N,LCD_I2C_SCL*
X145240000Y-66800000D03*
X148701108Y-72936411D03*
G04 #@! TO.N,LCD_I2C_SDA*
X144310000Y-66800000D03*
X147540000Y-73750000D03*
G04 #@! TO.N,LCD_CTP_INT*
X146250000Y-66840000D03*
X148550000Y-70340000D03*
G04 #@! TO.N,Net-(C31-Pad1)*
X160550000Y-71419998D03*
X159830000Y-72852411D03*
D14*
G04 #@! TO.N,+2V8*
X77250000Y-120870000D03*
D13*
X84180000Y-121150000D03*
D14*
X80060000Y-119650000D03*
X89110000Y-122700000D03*
X140150008Y-85750000D03*
X131470002Y-94500000D03*
D13*
G04 #@! TO.N,LCD_EN*
X86610000Y-96310000D03*
X93460000Y-104830000D03*
X93460000Y-102740000D03*
X90460000Y-98540000D03*
G04 #@! TD*
D15*
G04 #@! TO.N,Net-(C1-Pad1)*
X178496900Y-74146900D02*
X178496900Y-70335100D01*
X180390000Y-88360400D02*
X180390000Y-76040000D01*
X184477000Y-92447400D02*
X180390000Y-88360400D01*
X180390000Y-76040000D02*
X178496900Y-74146900D01*
X185350000Y-93300000D02*
X184477000Y-92627000D01*
X184477000Y-92627000D02*
X184477000Y-92447400D01*
X178496900Y-70335100D02*
X177976100Y-69814300D01*
X177976100Y-69814300D02*
X177239500Y-69814300D01*
X177239500Y-69814300D02*
X176091400Y-70962400D01*
X176091400Y-70962400D02*
X173044000Y-70962400D01*
X167220000Y-65550000D02*
X167220000Y-65550000D01*
X167481210Y-64960388D02*
X167481210Y-65499203D01*
X167481210Y-63768790D02*
X167481210Y-64960388D01*
X169497902Y-61752098D02*
X167481210Y-63768790D01*
D16*
G04 #@! TO.N,V_SW*
X143680000Y-82560000D02*
X142430000Y-81310000D01*
X143210000Y-93370000D02*
X143680000Y-92900000D01*
X143680000Y-92900000D02*
X143680000Y-82560000D01*
D15*
G04 #@! TO.N,GND*
X160710000Y-113400000D02*
X160520000Y-113210000D01*
X163035000Y-114207900D02*
X162227100Y-113400000D01*
X160520000Y-113210000D02*
X160520000Y-110872000D01*
X162227100Y-113400000D02*
X160710000Y-113400000D01*
X170282100Y-114207900D02*
X163035000Y-114207900D01*
X182717000Y-101773000D02*
X182600000Y-101890000D01*
X145720000Y-63440000D02*
X145720000Y-63440000D01*
X158979009Y-65400991D02*
X158979009Y-64739001D01*
X157170000Y-66540000D02*
X157840000Y-66540000D01*
X157840000Y-66540000D02*
X158979009Y-65400991D01*
X155090000Y-65880000D02*
X154430000Y-66540000D01*
X157170000Y-66540000D02*
X156510000Y-65880000D01*
X156510000Y-65880000D02*
X155090000Y-65880000D01*
X183450000Y-101050000D02*
X182760000Y-101740000D01*
X185460000Y-101050000D02*
X183450000Y-101050000D01*
X151170000Y-63280000D02*
X151170000Y-63230000D01*
X154430000Y-66540000D02*
X151170000Y-63280000D01*
X145720000Y-63440000D02*
X143698609Y-61418609D01*
X143698609Y-61418609D02*
X143698609Y-61353191D01*
X182600000Y-101890000D02*
X170282100Y-114207900D01*
D16*
G04 #@! TO.N,V_LOAD*
X177607800Y-71592200D02*
X177607800Y-70703400D01*
X177607800Y-72292200D02*
X177607800Y-71542200D01*
X168350000Y-102650000D02*
X168350000Y-81550000D01*
X166577800Y-112290700D02*
X166577800Y-104422200D01*
X168350000Y-81550000D02*
X177607800Y-72292200D01*
X166577800Y-104422200D02*
X168350000Y-102650000D01*
G04 #@! TO.N,+5V*
X166922600Y-90640900D02*
X166922600Y-101771500D01*
X166922600Y-101771500D02*
X167236400Y-102085300D01*
X159360000Y-88740000D02*
X165021700Y-88740000D01*
X165021700Y-88740000D02*
X166922600Y-90640900D01*
X135910000Y-70000000D02*
X140620000Y-70000000D01*
X140620000Y-70000000D02*
X148520000Y-77900000D01*
X132750000Y-70000000D02*
X135910000Y-70000000D01*
X120438000Y-82612000D02*
X120438000Y-82312000D01*
X120438000Y-82312000D02*
X132750000Y-70000000D01*
X148520000Y-77900000D02*
X159360000Y-88740000D01*
X120620000Y-82430000D02*
X115690000Y-82430000D01*
X100896105Y-97223895D02*
X99345395Y-97223895D01*
X115690000Y-82430000D02*
X100896105Y-97223895D01*
G04 #@! TO.N,V_IN*
X121100000Y-114800000D02*
X136532001Y-99367999D01*
X136532001Y-99367999D02*
X137040000Y-98860000D01*
X121100000Y-115600000D02*
X121100000Y-114800000D01*
G04 #@! TO.N,+3V3*
X117410000Y-70152000D02*
X117410000Y-73798000D01*
X122590000Y-78280000D02*
X122590000Y-78280000D01*
X122010000Y-77700000D02*
X122590000Y-78280000D01*
X118280000Y-77700000D02*
X122010000Y-77700000D01*
X117410000Y-73798000D02*
X117400000Y-73808000D01*
X117410000Y-76830000D02*
X118280000Y-77700000D01*
X117410000Y-73798000D02*
X117410000Y-76830000D01*
X124372704Y-94709704D02*
X124372704Y-90011124D01*
X125128202Y-95465202D02*
X124372704Y-94709704D01*
X143690000Y-95440000D02*
X143664798Y-95465202D01*
X124372704Y-90011124D02*
X124372704Y-89292704D01*
X143664798Y-95465202D02*
X125128202Y-95465202D01*
X165100000Y-97470000D02*
X165100000Y-97470000D01*
X160700000Y-101870000D02*
X160668418Y-101870000D01*
X160668418Y-101870000D02*
X159949998Y-101870000D01*
X165100000Y-97470000D02*
X160700000Y-101870000D01*
X82608001Y-92892001D02*
X82100002Y-93400000D01*
X87470002Y-88030000D02*
X82608001Y-92892001D01*
X118280000Y-77700000D02*
X107950000Y-88030000D01*
X107950000Y-88030000D02*
X87470002Y-88030000D01*
D15*
G04 #@! TO.N,Net-(C16-Pad1)*
X70239336Y-82982028D02*
X69700521Y-82982028D01*
X70932028Y-82982028D02*
X70239336Y-82982028D01*
X72174023Y-84224023D02*
X70932028Y-82982028D01*
G04 #@! TO.N,Net-(C19-Pad1)*
X76832700Y-69342700D02*
X76832700Y-73046200D01*
X76500000Y-69010000D02*
X76832700Y-69342700D01*
G04 #@! TO.N,LCD_RESET*
X147260000Y-63410000D02*
X147260000Y-63410000D01*
X94340000Y-105379998D02*
X94339998Y-105380000D01*
X94340000Y-102079999D02*
X94340000Y-105379998D01*
X132170000Y-60560000D02*
X132190000Y-60580000D01*
X144939623Y-60580000D02*
X144959623Y-60560000D01*
X132190000Y-60580000D02*
X144939623Y-60580000D01*
X147287907Y-62817907D02*
X145050000Y-60580000D01*
X147287907Y-63384730D02*
X147287907Y-62817907D01*
X102700000Y-72920000D02*
X102650000Y-72970000D01*
X103942366Y-67220000D02*
X102700000Y-68462366D01*
X102700000Y-68462366D02*
X102700000Y-72920000D01*
G04 #@! TO.N,I2C_SDA*
X77170000Y-76587200D02*
X100197200Y-76587200D01*
X104019001Y-80409001D02*
X104400000Y-80790000D01*
X100197200Y-76587200D02*
X104019001Y-80409001D01*
X75110999Y-109359001D02*
X74730000Y-109740000D01*
X75490000Y-90280000D02*
X75490000Y-93420000D01*
X77170000Y-76587200D02*
X77170000Y-88600000D01*
X75490000Y-108980000D02*
X75110999Y-109359001D01*
X77170000Y-88600000D02*
X75490000Y-90280000D01*
X75490000Y-93420000D02*
X75490000Y-108980000D01*
G04 #@! TO.N,I2C_SCL*
X73587900Y-75811300D02*
X73587900Y-95850000D01*
X73587900Y-75811300D02*
X101121300Y-75811300D01*
X104419001Y-79109001D02*
X104800000Y-79490000D01*
X101121300Y-75811300D02*
X104419001Y-79109001D01*
X74667420Y-110690000D02*
X74801183Y-110690000D01*
X73587900Y-95850000D02*
X73587900Y-109610480D01*
X74801183Y-110690000D02*
X75339998Y-110690000D01*
X73587900Y-109610480D02*
X74667420Y-110690000D01*
G04 #@! TO.N,DSI_D0_N*
X140340000Y-75580000D02*
X140390000Y-75580000D01*
X94627292Y-114292708D02*
X91921298Y-114292708D01*
X91921298Y-114292708D02*
X91382483Y-114292708D01*
X131550000Y-85770000D02*
X123150000Y-85770000D01*
X139680000Y-75580000D02*
X132490000Y-82770000D01*
X132490000Y-82770000D02*
X132490000Y-84830000D01*
X140340000Y-75580000D02*
X139680000Y-75580000D01*
X123150000Y-85770000D02*
X94627292Y-114292708D01*
X132490000Y-84830000D02*
X131550000Y-85770000D01*
G04 #@! TO.N,DSI_D0_P*
X141181663Y-79408337D02*
X143886639Y-79408337D01*
X124400000Y-88080000D02*
X132510000Y-88080000D01*
X94600002Y-117879998D02*
X124400000Y-88080000D01*
X143886639Y-79408337D02*
X144267638Y-79027338D01*
X132510000Y-88080000D02*
X141181663Y-79408337D01*
X94620000Y-117850000D02*
X94650000Y-117850000D01*
X92125211Y-120344789D02*
X94620000Y-117850000D01*
X90180000Y-128460000D02*
X92125211Y-126514789D01*
X92125211Y-126514789D02*
X92125211Y-120344789D01*
G04 #@! TO.N,DSI_CLK_N*
X93992791Y-117690616D02*
X124060618Y-87622789D01*
X124060618Y-87622789D02*
X132320619Y-87622789D01*
X132320619Y-87622789D02*
X141262410Y-78680998D01*
X141262410Y-78680998D02*
X143119000Y-78680998D01*
X143119000Y-78680998D02*
X143499999Y-78299999D01*
X155251579Y-67608421D02*
X155950000Y-66910000D01*
X152780000Y-67608421D02*
X155251579Y-67608421D01*
X91050000Y-120640000D02*
X94020000Y-117670000D01*
X88410000Y-126900000D02*
X91050000Y-124260000D01*
X91050000Y-124260000D02*
X91050000Y-120640000D01*
G04 #@! TO.N,DSI_CLK_P*
X152730000Y-62960000D02*
X154335054Y-62960000D01*
X154335054Y-62960000D02*
X154587388Y-62707666D01*
X154587388Y-62707666D02*
X154968387Y-62326667D01*
X131715437Y-86251156D02*
X123315436Y-86251156D01*
X94295382Y-115271210D02*
X90638815Y-115271210D01*
X90638815Y-115271210D02*
X90100000Y-115271210D01*
X139476592Y-76430000D02*
X132947211Y-82959381D01*
X132947211Y-85019382D02*
X131715437Y-86251156D01*
X141120000Y-76430000D02*
X139476592Y-76430000D01*
X132947211Y-82959381D02*
X132947211Y-85019382D01*
X123315436Y-86251156D02*
X94295382Y-115271210D01*
G04 #@! TO.N,DSI_D1_N*
X141599001Y-77380999D02*
X141269223Y-77380999D01*
X141269223Y-77380999D02*
X131941855Y-86708367D01*
X123551633Y-86708367D02*
X94184789Y-116075211D01*
X94184789Y-116075211D02*
X89457970Y-116075211D01*
X141980000Y-77000000D02*
X141599001Y-77380999D01*
X131941855Y-86708367D02*
X123551633Y-86708367D01*
X89457970Y-116075211D02*
X88919155Y-116075211D01*
G04 #@! TO.N,DSI_D1_P*
X92984007Y-117990534D02*
X123808963Y-87165578D01*
X142376145Y-78038828D02*
X142757144Y-77657829D01*
X132131236Y-87165578D02*
X141257986Y-78038828D01*
X141257986Y-78038828D02*
X142376145Y-78038828D01*
X123808963Y-87165578D02*
X132131236Y-87165578D01*
X90009998Y-120970002D02*
X92990000Y-117990000D01*
X87680000Y-126150000D02*
X90009998Y-123820002D01*
X90009998Y-123820002D02*
X90009998Y-120970002D01*
G04 #@! TO.N,PWM_CABC*
X83146279Y-124160000D02*
X83305069Y-124001210D01*
X86108790Y-124001210D02*
X86660000Y-123450000D01*
X83305069Y-124001210D02*
X86108790Y-124001210D01*
X86660000Y-123450000D02*
X86660000Y-123450000D01*
X86740000Y-118650000D02*
X88729001Y-120639001D01*
X88729001Y-120639001D02*
X89110000Y-121020000D01*
X86740000Y-108243300D02*
X86740000Y-118650000D01*
X101925400Y-93057900D02*
X86740000Y-108243300D01*
G04 #@! TO.N,CHRG_PG*
X132187298Y-72810108D02*
X131806299Y-72429109D01*
X132847190Y-73470000D02*
X132187298Y-72810108D01*
X139932580Y-73470000D02*
X132847190Y-73470000D01*
X146418800Y-79956220D02*
X139932580Y-73470000D01*
X146418800Y-85160700D02*
X146418800Y-79956220D01*
X148175000Y-95855000D02*
X146910000Y-94590000D01*
X148185100Y-95855000D02*
X148175000Y-95855000D01*
X146910000Y-94590000D02*
X146910000Y-85651900D01*
X146910000Y-85651900D02*
X146418800Y-85160700D01*
G04 #@! TO.N,CHRG_STAT1*
X147678500Y-87710100D02*
X154787601Y-94819201D01*
X154787601Y-94819201D02*
X155168600Y-95200200D01*
X147053900Y-84897700D02*
X147678500Y-85522300D01*
X134022900Y-72830000D02*
X140290000Y-72830000D01*
X132872100Y-71679200D02*
X134022900Y-72830000D01*
X140290000Y-72830000D02*
X147053900Y-79593900D01*
X147053900Y-79593900D02*
X147053900Y-84897700D01*
X147678500Y-85522300D02*
X147678500Y-87710100D01*
G04 #@! TO.N,CHRG_STAT2*
X155560690Y-96219367D02*
X155021875Y-96219367D01*
X155920000Y-94694200D02*
X155920000Y-95860057D01*
X148313600Y-87087800D02*
X155920000Y-94694200D01*
X155920000Y-95860057D02*
X155560690Y-96219367D01*
X134819500Y-71920000D02*
X140520000Y-71920000D01*
X134097000Y-71197500D02*
X134819500Y-71920000D01*
X148313600Y-85259200D02*
X148313600Y-87087800D01*
X140520000Y-71920000D02*
X147689000Y-79089000D01*
X147689000Y-79089000D02*
X147689000Y-84634600D01*
X147689000Y-84634600D02*
X148313600Y-85259200D01*
G04 #@! TO.N,LOW_BATT*
X140540000Y-71020000D02*
X135266590Y-71020000D01*
X158930000Y-89410000D02*
X140540000Y-71020000D01*
X160888800Y-107326300D02*
X158930000Y-105367500D01*
X135266590Y-71020000D02*
X135265600Y-71019010D01*
X158930000Y-105367500D02*
X158930000Y-89410000D01*
X165430900Y-112044900D02*
X165430900Y-110480900D01*
X165430900Y-110480900D02*
X162840000Y-107890000D01*
X161112500Y-107550000D02*
X160888800Y-107326300D01*
X162830000Y-107890000D02*
X162490000Y-107550000D01*
X162490000Y-107550000D02*
X161112500Y-107550000D01*
G04 #@! TO.N,I2S_BCLK*
X70319000Y-72760000D02*
X71347952Y-73788952D01*
X71430137Y-73788952D02*
X71968952Y-73788952D01*
X71347952Y-73788952D02*
X71430137Y-73788952D01*
G04 #@! TO.N,Net-(Q5-Pad1)*
X124351300Y-120561900D02*
X118354400Y-120561900D01*
X118354400Y-120561900D02*
X115724100Y-117931600D01*
G04 #@! TO.N,Net-(Q7-Pad3)*
X156080000Y-96960000D02*
X156535900Y-96504100D01*
X154430000Y-96960000D02*
X156080000Y-96960000D01*
X151399001Y-93929001D02*
X154430000Y-96960000D01*
X149180000Y-94310000D02*
X149560999Y-93929001D01*
X149560999Y-93929001D02*
X151399001Y-93929001D01*
X156535900Y-96504100D02*
X156535900Y-96504100D01*
D16*
G04 #@! TO.N,/V_USB*
X116722100Y-121600000D02*
X115942100Y-120820000D01*
X112148790Y-120820000D02*
X111050000Y-121918790D01*
X115942100Y-120820000D02*
X112148790Y-120820000D01*
G04 #@! TO.N,/V_F2*
X88400806Y-123904602D02*
X86756204Y-122260000D01*
X79056536Y-122260000D02*
X78269159Y-123047377D01*
X86756204Y-122260000D02*
X79056536Y-122260000D01*
X78269159Y-123047377D02*
X77888160Y-123428376D01*
G04 #@! TO.N,V_ADC*
X65310000Y-72720000D02*
X66860000Y-71170000D01*
X66860000Y-71170000D02*
X72288783Y-71170000D01*
X77471185Y-66610000D02*
X78010000Y-66610000D01*
X72160000Y-71170000D02*
X72911185Y-71170000D01*
X72911185Y-71170000D02*
X77471185Y-66610000D01*
D15*
G04 #@! TO.N,ADC_EN*
X91230000Y-62080000D02*
X91230000Y-62080000D01*
X103480000Y-75710000D02*
X104890000Y-75710000D01*
X91230000Y-62080000D02*
X91230000Y-63460000D01*
X91230000Y-63460000D02*
X103480000Y-75710000D01*
G04 #@! TO.N,I2C_SCL_H*
X157940000Y-76460000D02*
X157960000Y-76440000D01*
X121820000Y-74800000D02*
X121820000Y-71850000D01*
X140760000Y-69070000D02*
X148150000Y-76460000D01*
X148150000Y-76460000D02*
X157940000Y-76460000D01*
X120450000Y-76170000D02*
X121820000Y-74800000D01*
X121820000Y-71850000D02*
X124600000Y-69070000D01*
X124600000Y-69070000D02*
X140760000Y-69070000D01*
X157960000Y-76440000D02*
X157960000Y-76440000D01*
G04 #@! TO.N,I2C_SDA_H*
X157450000Y-69660000D02*
X157500000Y-69610000D01*
X156860000Y-70250000D02*
X157450000Y-69660000D01*
X156860000Y-75080000D02*
X156860000Y-70250000D01*
X141030000Y-68530000D02*
X148390000Y-75890000D01*
X120410000Y-71780000D02*
X120948815Y-71780000D01*
X124198815Y-68530000D02*
X141030000Y-68530000D01*
X120948815Y-71780000D02*
X124198815Y-68530000D01*
X148390000Y-75890000D02*
X156050000Y-75890000D01*
X156050000Y-75890000D02*
X156860000Y-75080000D01*
G04 #@! TO.N,SHDN_REQ*
X136170000Y-62068815D02*
X136170000Y-61530000D01*
X136170000Y-64310000D02*
X136170000Y-62068815D01*
X132520000Y-67090000D02*
X133390000Y-67090000D01*
X133390000Y-67090000D02*
X136170000Y-64310000D01*
G04 #@! TO.N,LCD_I2C_SCL*
X145240000Y-66800000D02*
X145240000Y-66730000D01*
X148390000Y-71480000D02*
X148390000Y-72625303D01*
X145240000Y-66800000D02*
X145240000Y-68330000D01*
X148390000Y-72625303D02*
X148701108Y-72936411D01*
X145240000Y-68330000D02*
X148390000Y-71480000D01*
G04 #@! TO.N,LCD_I2C_SDA*
X144310000Y-66800000D02*
X144310000Y-66800000D01*
X147540000Y-72460000D02*
X147540000Y-73750000D01*
X143810000Y-68730000D02*
X147540000Y-72460000D01*
X144310000Y-66800000D02*
X143810000Y-67300000D01*
X143810000Y-67300000D02*
X143810000Y-68730000D01*
G04 #@! TO.N,LCD_CTP_INT*
X146250000Y-66840000D02*
X146250000Y-66840000D01*
X148550000Y-69870000D02*
X148550000Y-70340000D01*
X146250000Y-66840000D02*
X146250000Y-67570000D01*
X146250000Y-67570000D02*
X148550000Y-69870000D01*
G04 #@! TO.N,Net-(C31-Pad1)*
X160210999Y-72471412D02*
X159830000Y-72852411D01*
X160550000Y-72132411D02*
X160210999Y-72471412D01*
X160550000Y-71419998D02*
X160550000Y-72132411D01*
D16*
G04 #@! TO.N,+2V8*
X77250000Y-120870000D02*
X77250000Y-120870000D01*
X82680000Y-119650000D02*
X80778420Y-119650000D01*
X79341580Y-119650000D02*
X80060000Y-119650000D01*
X78470000Y-119650000D02*
X79341580Y-119650000D01*
X77250000Y-120870000D02*
X78470000Y-119650000D01*
X80778420Y-119650000D02*
X80060000Y-119650000D01*
X84180000Y-121150000D02*
X82680000Y-119650000D01*
X84180000Y-121150000D02*
X87560000Y-121150000D01*
X87560000Y-121150000D02*
X89110000Y-122700000D01*
X89110000Y-122700000D02*
X89110000Y-122700000D01*
X140150000Y-85750000D02*
X140150000Y-85750000D01*
X131470002Y-94430006D02*
X131470002Y-94500000D01*
X140150008Y-85750000D02*
X131470002Y-94430006D01*
D15*
G04 #@! TO.N,LCD_EN*
X93460000Y-104830000D02*
X93460000Y-104291185D01*
X93460000Y-104291185D02*
X93460000Y-102740000D01*
X93460000Y-102740000D02*
X93460000Y-102740000D01*
X88840000Y-98540000D02*
X90460000Y-98540000D01*
X86610000Y-96310000D02*
X88840000Y-98540000D01*
G04 #@! TD*
G04 #@! TO.N,GND*
G36*
X101174061Y-55609536D02*
X100709536Y-56074061D01*
X100344561Y-56620285D01*
X100093162Y-57227216D01*
X99965000Y-57871531D01*
X99965000Y-58528469D01*
X100093162Y-59172784D01*
X100344561Y-59779715D01*
X100709536Y-60325939D01*
X101174061Y-60790464D01*
X101720285Y-61155439D01*
X102327216Y-61406838D01*
X102971531Y-61535000D01*
X103628469Y-61535000D01*
X104272784Y-61406838D01*
X104879715Y-61155439D01*
X105425939Y-60790464D01*
X105890464Y-60325939D01*
X106255439Y-59779715D01*
X106506838Y-59172784D01*
X106635000Y-58528469D01*
X106635000Y-57871531D01*
X106506838Y-57227216D01*
X106255439Y-56620285D01*
X105890464Y-56074061D01*
X105425939Y-55609536D01*
X105034074Y-55347700D01*
X187768319Y-55347700D01*
X188256294Y-55395547D01*
X188695211Y-55528063D01*
X189100026Y-55743308D01*
X189455321Y-56033079D01*
X189747570Y-56386346D01*
X189965634Y-56789650D01*
X190101212Y-57227626D01*
X190152301Y-57713706D01*
X190152300Y-136668319D01*
X190104453Y-137156296D01*
X189971937Y-137595212D01*
X189756695Y-138000023D01*
X189466919Y-138355323D01*
X189113654Y-138647570D01*
X188710350Y-138865635D01*
X188272370Y-139001213D01*
X187786303Y-139052300D01*
X53831681Y-139052300D01*
X53343704Y-139004453D01*
X52904788Y-138871937D01*
X52499977Y-138656695D01*
X52144677Y-138366919D01*
X51852430Y-138013654D01*
X51634365Y-137610350D01*
X51498787Y-137172370D01*
X51447700Y-136686303D01*
X51447700Y-133688212D01*
X96915000Y-133688212D01*
X96915000Y-133911788D01*
X96958617Y-134131067D01*
X97044176Y-134337624D01*
X97168388Y-134523520D01*
X97326480Y-134681612D01*
X97512376Y-134805824D01*
X97718933Y-134891383D01*
X97938212Y-134935000D01*
X98161788Y-134935000D01*
X98381067Y-134891383D01*
X98587624Y-134805824D01*
X98773520Y-134681612D01*
X98931612Y-134523520D01*
X99055824Y-134337624D01*
X99141383Y-134131067D01*
X99185000Y-133911788D01*
X99185000Y-133688212D01*
X101315000Y-133688212D01*
X101315000Y-133911788D01*
X101358617Y-134131067D01*
X101444176Y-134337624D01*
X101568388Y-134523520D01*
X101726480Y-134681612D01*
X101912376Y-134805824D01*
X102118933Y-134891383D01*
X102338212Y-134935000D01*
X102561788Y-134935000D01*
X102781067Y-134891383D01*
X102987624Y-134805824D01*
X103173520Y-134681612D01*
X103296467Y-134558665D01*
X115315000Y-134558665D01*
X115315000Y-134841335D01*
X115370147Y-135118574D01*
X115478320Y-135379727D01*
X115635363Y-135614759D01*
X115835241Y-135814637D01*
X116070273Y-135971680D01*
X116331426Y-136079853D01*
X116608665Y-136135000D01*
X116891335Y-136135000D01*
X117168574Y-136079853D01*
X117429727Y-135971680D01*
X117664759Y-135814637D01*
X117864637Y-135614759D01*
X118021680Y-135379727D01*
X118129853Y-135118574D01*
X118185000Y-134841335D01*
X118185000Y-134558665D01*
X118129853Y-134281426D01*
X118021680Y-134020273D01*
X117864637Y-133785241D01*
X117664759Y-133585363D01*
X117429727Y-133428320D01*
X117168574Y-133320147D01*
X116891335Y-133265000D01*
X116608665Y-133265000D01*
X116331426Y-133320147D01*
X116070273Y-133428320D01*
X115835241Y-133585363D01*
X115635363Y-133785241D01*
X115478320Y-134020273D01*
X115370147Y-134281426D01*
X115315000Y-134558665D01*
X103296467Y-134558665D01*
X103331612Y-134523520D01*
X103455824Y-134337624D01*
X103541383Y-134131067D01*
X103585000Y-133911788D01*
X103585000Y-133688212D01*
X103541383Y-133468933D01*
X103455824Y-133262376D01*
X103331612Y-133076480D01*
X103173520Y-132918388D01*
X102987624Y-132794176D01*
X102781067Y-132708617D01*
X102561788Y-132665000D01*
X102338212Y-132665000D01*
X102118933Y-132708617D01*
X101912376Y-132794176D01*
X101726480Y-132918388D01*
X101568388Y-133076480D01*
X101444176Y-133262376D01*
X101358617Y-133468933D01*
X101315000Y-133688212D01*
X99185000Y-133688212D01*
X99141383Y-133468933D01*
X99055824Y-133262376D01*
X98931612Y-133076480D01*
X98773520Y-132918388D01*
X98587624Y-132794176D01*
X98381067Y-132708617D01*
X98161788Y-132665000D01*
X97938212Y-132665000D01*
X97718933Y-132708617D01*
X97512376Y-132794176D01*
X97326480Y-132918388D01*
X97168388Y-133076480D01*
X97044176Y-133262376D01*
X96958617Y-133468933D01*
X96915000Y-133688212D01*
X51447700Y-133688212D01*
X51447700Y-128810000D01*
X73507573Y-128810000D01*
X73537210Y-129110913D01*
X73624983Y-129400261D01*
X73767519Y-129666927D01*
X73959339Y-129900661D01*
X74193073Y-130092481D01*
X74459739Y-130235017D01*
X74749087Y-130322790D01*
X74974592Y-130345000D01*
X87325408Y-130345000D01*
X87550913Y-130322790D01*
X87840261Y-130235017D01*
X88106927Y-130092481D01*
X88148132Y-130058665D01*
X115315000Y-130058665D01*
X115315000Y-130341335D01*
X115370147Y-130618574D01*
X115478320Y-130879727D01*
X115635363Y-131114759D01*
X115835241Y-131314637D01*
X116070273Y-131471680D01*
X116331426Y-131579853D01*
X116608665Y-131635000D01*
X116891335Y-131635000D01*
X117168574Y-131579853D01*
X117429727Y-131471680D01*
X117664759Y-131314637D01*
X117864637Y-131114759D01*
X118021680Y-130879727D01*
X118129853Y-130618574D01*
X118185000Y-130341335D01*
X118185000Y-130058665D01*
X118129853Y-129781426D01*
X118021680Y-129520273D01*
X117864637Y-129285241D01*
X117664759Y-129085363D01*
X117429727Y-128928320D01*
X117168574Y-128820147D01*
X116891335Y-128765000D01*
X116608665Y-128765000D01*
X116331426Y-128820147D01*
X116070273Y-128928320D01*
X115835241Y-129085363D01*
X115635363Y-129285241D01*
X115478320Y-129520273D01*
X115370147Y-129781426D01*
X115315000Y-130058665D01*
X88148132Y-130058665D01*
X88340661Y-129900661D01*
X88532481Y-129666927D01*
X88675017Y-129400261D01*
X88762790Y-129110913D01*
X88792427Y-128810000D01*
X88762790Y-128509087D01*
X88675017Y-128219739D01*
X88532481Y-127953073D01*
X88502056Y-127916000D01*
X88510067Y-127916000D01*
X88706356Y-127876956D01*
X88891256Y-127800368D01*
X89057662Y-127689179D01*
X89199179Y-127547662D01*
X89310368Y-127381256D01*
X89386956Y-127196356D01*
X89426000Y-127000067D01*
X89426000Y-126961630D01*
X91363211Y-125024420D01*
X91363211Y-126199158D01*
X90118370Y-127444000D01*
X90079933Y-127444000D01*
X89883644Y-127483044D01*
X89698744Y-127559632D01*
X89532338Y-127670821D01*
X89390821Y-127812338D01*
X89279632Y-127978744D01*
X89203044Y-128163644D01*
X89164000Y-128359933D01*
X89164000Y-128560067D01*
X89203044Y-128756356D01*
X89279632Y-128941256D01*
X89390821Y-129107662D01*
X89532338Y-129249179D01*
X89698744Y-129360368D01*
X89883644Y-129436956D01*
X90079933Y-129476000D01*
X90280067Y-129476000D01*
X90476356Y-129436956D01*
X90661256Y-129360368D01*
X90827662Y-129249179D01*
X90969179Y-129107662D01*
X91080368Y-128941256D01*
X91156956Y-128756356D01*
X91196000Y-128560067D01*
X91196000Y-128521630D01*
X92637564Y-127080067D01*
X92666633Y-127056211D01*
X92729123Y-126980067D01*
X92761856Y-126940182D01*
X92832612Y-126807805D01*
X92832613Y-126807804D01*
X92876185Y-126664167D01*
X92887211Y-126552215D01*
X92887211Y-126552212D01*
X92890897Y-126514789D01*
X92887211Y-126477366D01*
X92887211Y-121806214D01*
X109907000Y-121806214D01*
X109907000Y-122031366D01*
X109950925Y-122252191D01*
X110037087Y-122460203D01*
X110162174Y-122647410D01*
X110321380Y-122806616D01*
X110508587Y-122931703D01*
X110716599Y-123017865D01*
X110937424Y-123061790D01*
X111162576Y-123061790D01*
X111383401Y-123017865D01*
X111591413Y-122931703D01*
X111778620Y-122806616D01*
X111937826Y-122647410D01*
X112062913Y-122460203D01*
X112149075Y-122252191D01*
X112192588Y-122033438D01*
X112517026Y-121709000D01*
X115573865Y-121709000D01*
X115579512Y-121714647D01*
X115623025Y-121933401D01*
X115709187Y-122141413D01*
X115834274Y-122328620D01*
X115993480Y-122487826D01*
X116180687Y-122612913D01*
X116388699Y-122699075D01*
X116609524Y-122743000D01*
X116834676Y-122743000D01*
X117055501Y-122699075D01*
X117263513Y-122612913D01*
X117450720Y-122487826D01*
X117609926Y-122328620D01*
X117735013Y-122141413D01*
X117821175Y-121933401D01*
X117865100Y-121712576D01*
X117865100Y-121487424D01*
X117821175Y-121266599D01*
X117735013Y-121058587D01*
X117657603Y-120942734D01*
X117789121Y-121074252D01*
X117812978Y-121103322D01*
X117842048Y-121127179D01*
X117929007Y-121198545D01*
X117999764Y-121236365D01*
X118061385Y-121269302D01*
X118205022Y-121312874D01*
X118316974Y-121323900D01*
X118316977Y-121323900D01*
X118354400Y-121327586D01*
X118391823Y-121323900D01*
X123676459Y-121323900D01*
X123703638Y-121351079D01*
X123870044Y-121462268D01*
X124054944Y-121538856D01*
X124251233Y-121577900D01*
X124451367Y-121577900D01*
X124647656Y-121538856D01*
X124832556Y-121462268D01*
X124998962Y-121351079D01*
X125140479Y-121209562D01*
X125251668Y-121043156D01*
X125328256Y-120858256D01*
X125367300Y-120661967D01*
X125367300Y-120461833D01*
X125328256Y-120265544D01*
X125251668Y-120080644D01*
X125140479Y-119914238D01*
X124998962Y-119772721D01*
X124832556Y-119661532D01*
X124647656Y-119584944D01*
X124451367Y-119545900D01*
X124251233Y-119545900D01*
X124054944Y-119584944D01*
X123870044Y-119661532D01*
X123703638Y-119772721D01*
X123676459Y-119799900D01*
X118670031Y-119799900D01*
X116740100Y-117869970D01*
X116740100Y-117831533D01*
X116701056Y-117635244D01*
X116624468Y-117450344D01*
X116513279Y-117283938D01*
X116371762Y-117142421D01*
X116205356Y-117031232D01*
X116020456Y-116954644D01*
X115824167Y-116915600D01*
X115624033Y-116915600D01*
X115427744Y-116954644D01*
X115242844Y-117031232D01*
X115076438Y-117142421D01*
X114934921Y-117283938D01*
X114823732Y-117450344D01*
X114747144Y-117635244D01*
X114708100Y-117831533D01*
X114708100Y-118031667D01*
X114747144Y-118227956D01*
X114823732Y-118412856D01*
X114934921Y-118579262D01*
X115076438Y-118720779D01*
X115242844Y-118831968D01*
X115427744Y-118908556D01*
X115624033Y-118947600D01*
X115662470Y-118947600D01*
X117379367Y-120664498D01*
X117263513Y-120587087D01*
X117055501Y-120500925D01*
X116836747Y-120457412D01*
X116601599Y-120222263D01*
X116573759Y-120188341D01*
X116438391Y-120077247D01*
X116283951Y-119994697D01*
X116116374Y-119943864D01*
X115985767Y-119931000D01*
X115985760Y-119931000D01*
X115942100Y-119926700D01*
X115898440Y-119931000D01*
X112192450Y-119931000D01*
X112148790Y-119926700D01*
X112105130Y-119931000D01*
X112105123Y-119931000D01*
X111991115Y-119942229D01*
X111974515Y-119943864D01*
X111923682Y-119959284D01*
X111806939Y-119994697D01*
X111652499Y-120077247D01*
X111517131Y-120188341D01*
X111489295Y-120222259D01*
X110935352Y-120776202D01*
X110716599Y-120819715D01*
X110508587Y-120905877D01*
X110321380Y-121030964D01*
X110162174Y-121190170D01*
X110037087Y-121377377D01*
X109950925Y-121585389D01*
X109907000Y-121806214D01*
X92887211Y-121806214D01*
X92887211Y-120660419D01*
X95044444Y-118503187D01*
X95075392Y-118486645D01*
X95191422Y-118391422D01*
X95286645Y-118275392D01*
X95291705Y-118265925D01*
X97686099Y-115871531D01*
X99965000Y-115871531D01*
X99965000Y-116528469D01*
X100093162Y-117172784D01*
X100344561Y-117779715D01*
X100709536Y-118325939D01*
X101174061Y-118790464D01*
X101720285Y-119155439D01*
X102327216Y-119406838D01*
X102971531Y-119535000D01*
X103628469Y-119535000D01*
X104272784Y-119406838D01*
X104879715Y-119155439D01*
X105425939Y-118790464D01*
X105890464Y-118325939D01*
X106255439Y-117779715D01*
X106506838Y-117172784D01*
X106635000Y-116528469D01*
X106635000Y-115871531D01*
X106561085Y-115499933D01*
X120084000Y-115499933D01*
X120084000Y-115700067D01*
X120123044Y-115896356D01*
X120199632Y-116081256D01*
X120310821Y-116247662D01*
X120452338Y-116389179D01*
X120618744Y-116500368D01*
X120803644Y-116576956D01*
X120999933Y-116616000D01*
X121200067Y-116616000D01*
X121396356Y-116576956D01*
X121581256Y-116500368D01*
X121747662Y-116389179D01*
X121889179Y-116247662D01*
X122000368Y-116081256D01*
X122076956Y-115896356D01*
X122081893Y-115871531D01*
X123965000Y-115871531D01*
X123965000Y-116528469D01*
X124093162Y-117172784D01*
X124344561Y-117779715D01*
X124709536Y-118325939D01*
X125174061Y-118790464D01*
X125720285Y-119155439D01*
X126327216Y-119406838D01*
X126971531Y-119535000D01*
X127628469Y-119535000D01*
X128272784Y-119406838D01*
X128879715Y-119155439D01*
X129425939Y-118790464D01*
X129890464Y-118325939D01*
X130255439Y-117779715D01*
X130506838Y-117172784D01*
X130635000Y-116528469D01*
X130635000Y-115871531D01*
X181965000Y-115871531D01*
X181965000Y-116528469D01*
X182093162Y-117172784D01*
X182344561Y-117779715D01*
X182709536Y-118325939D01*
X183174061Y-118790464D01*
X183720285Y-119155439D01*
X184327216Y-119406838D01*
X184971531Y-119535000D01*
X185628469Y-119535000D01*
X186272784Y-119406838D01*
X186879715Y-119155439D01*
X187425939Y-118790464D01*
X187890464Y-118325939D01*
X188255439Y-117779715D01*
X188506838Y-117172784D01*
X188635000Y-116528469D01*
X188635000Y-115871531D01*
X188506838Y-115227216D01*
X188255439Y-114620285D01*
X187890464Y-114074061D01*
X187425939Y-113609536D01*
X186879715Y-113244561D01*
X186272784Y-112993162D01*
X185628469Y-112865000D01*
X184971531Y-112865000D01*
X184327216Y-112993162D01*
X183720285Y-113244561D01*
X183174061Y-113609536D01*
X182709536Y-114074061D01*
X182344561Y-114620285D01*
X182093162Y-115227216D01*
X181965000Y-115871531D01*
X130635000Y-115871531D01*
X130506838Y-115227216D01*
X130255439Y-114620285D01*
X129890464Y-114074061D01*
X129425939Y-113609536D01*
X128879715Y-113244561D01*
X128272784Y-112993162D01*
X127628469Y-112865000D01*
X126971531Y-112865000D01*
X126327216Y-112993162D01*
X125720285Y-113244561D01*
X125174061Y-113609536D01*
X124709536Y-114074061D01*
X124344561Y-114620285D01*
X124093162Y-115227216D01*
X123965000Y-115871531D01*
X122081893Y-115871531D01*
X122116000Y-115700067D01*
X122116000Y-115499933D01*
X122076956Y-115303644D01*
X122011534Y-115145701D01*
X125999485Y-111157750D01*
X158680000Y-111157750D01*
X158680000Y-112579542D01*
X158704403Y-112702223D01*
X158752270Y-112817785D01*
X158821763Y-112921789D01*
X158910211Y-113010237D01*
X159014215Y-113079730D01*
X159129777Y-113127597D01*
X159252458Y-113152000D01*
X160234250Y-113152000D01*
X160393000Y-112993250D01*
X160393000Y-110999000D01*
X160647000Y-110999000D01*
X160647000Y-112993250D01*
X160805750Y-113152000D01*
X161787542Y-113152000D01*
X161910223Y-113127597D01*
X162025785Y-113079730D01*
X162129789Y-113010237D01*
X162218237Y-112921789D01*
X162287730Y-112817785D01*
X162335597Y-112702223D01*
X162360000Y-112579542D01*
X162360000Y-111157750D01*
X162201250Y-110999000D01*
X160647000Y-110999000D01*
X160393000Y-110999000D01*
X158838750Y-110999000D01*
X158680000Y-111157750D01*
X125999485Y-111157750D01*
X127992777Y-109164458D01*
X158680000Y-109164458D01*
X158680000Y-110586250D01*
X158838750Y-110745000D01*
X160393000Y-110745000D01*
X160393000Y-108750750D01*
X160647000Y-108750750D01*
X160647000Y-110745000D01*
X162201250Y-110745000D01*
X162360000Y-110586250D01*
X162360000Y-109164458D01*
X162335597Y-109041777D01*
X162287730Y-108926215D01*
X162218237Y-108822211D01*
X162129789Y-108733763D01*
X162025785Y-108664270D01*
X161910223Y-108616403D01*
X161787542Y-108592000D01*
X160805750Y-108592000D01*
X160647000Y-108750750D01*
X160393000Y-108750750D01*
X160234250Y-108592000D01*
X159252458Y-108592000D01*
X159129777Y-108616403D01*
X159014215Y-108664270D01*
X158910211Y-108733763D01*
X158821763Y-108822211D01*
X158752270Y-108926215D01*
X158704403Y-109041777D01*
X158680000Y-109164458D01*
X127992777Y-109164458D01*
X137154648Y-100002588D01*
X137373401Y-99959075D01*
X137581413Y-99872913D01*
X137768620Y-99747826D01*
X137927826Y-99588620D01*
X138052913Y-99401413D01*
X138139075Y-99193401D01*
X138183000Y-98972576D01*
X138183000Y-98747424D01*
X138139075Y-98526599D01*
X138052913Y-98318587D01*
X137927826Y-98131380D01*
X137768620Y-97972174D01*
X137581413Y-97847087D01*
X137373401Y-97760925D01*
X137152576Y-97717000D01*
X136927424Y-97717000D01*
X136706599Y-97760925D01*
X136498587Y-97847087D01*
X136311380Y-97972174D01*
X136152174Y-98131380D01*
X136027087Y-98318587D01*
X135940925Y-98526599D01*
X135897412Y-98745352D01*
X120502259Y-114140506D01*
X120468342Y-114168341D01*
X120440507Y-114202258D01*
X120440505Y-114202260D01*
X120357248Y-114303709D01*
X120274698Y-114458148D01*
X120223864Y-114625726D01*
X120216585Y-114699632D01*
X120211000Y-114756333D01*
X120211000Y-114756340D01*
X120206700Y-114800000D01*
X120211000Y-114843660D01*
X120211000Y-115101731D01*
X120199632Y-115118744D01*
X120123044Y-115303644D01*
X120084000Y-115499933D01*
X106561085Y-115499933D01*
X106506838Y-115227216D01*
X106255439Y-114620285D01*
X105890464Y-114074061D01*
X105425939Y-113609536D01*
X104879715Y-113244561D01*
X104272784Y-112993162D01*
X103628469Y-112865000D01*
X102971531Y-112865000D01*
X102327216Y-112993162D01*
X101720285Y-113244561D01*
X101174061Y-113609536D01*
X100709536Y-114074061D01*
X100344561Y-114620285D01*
X100093162Y-115227216D01*
X99965000Y-115871531D01*
X97686099Y-115871531D01*
X123483705Y-90073926D01*
X123483704Y-94666044D01*
X123479404Y-94709704D01*
X123483704Y-94753364D01*
X123483704Y-94753370D01*
X123494761Y-94865630D01*
X123496568Y-94883978D01*
X123509405Y-94926297D01*
X123547401Y-95051554D01*
X123629951Y-95205994D01*
X123741045Y-95341363D01*
X123774967Y-95369203D01*
X124468707Y-96062943D01*
X124496543Y-96096861D01*
X124631911Y-96207955D01*
X124786351Y-96290505D01*
X124881719Y-96319434D01*
X124953927Y-96341338D01*
X125128202Y-96358503D01*
X125171870Y-96354202D01*
X143000855Y-96354202D01*
X143148587Y-96452913D01*
X143356599Y-96539075D01*
X143577424Y-96583000D01*
X143802576Y-96583000D01*
X144023401Y-96539075D01*
X144231413Y-96452913D01*
X144418620Y-96327826D01*
X144577826Y-96168620D01*
X144702913Y-95981413D01*
X144789075Y-95773401D01*
X144833000Y-95552576D01*
X144833000Y-95327424D01*
X144789075Y-95106599D01*
X144702913Y-94898587D01*
X144577826Y-94711380D01*
X144418620Y-94552174D01*
X144231413Y-94427087D01*
X144023401Y-94340925D01*
X143854526Y-94307334D01*
X143928620Y-94257826D01*
X144087826Y-94098620D01*
X144212913Y-93911413D01*
X144299075Y-93703401D01*
X144340140Y-93496955D01*
X144422753Y-93396291D01*
X144505303Y-93241851D01*
X144529126Y-93163315D01*
X144556136Y-93074276D01*
X144562629Y-93008351D01*
X144569000Y-92943667D01*
X144569000Y-92943661D01*
X144573300Y-92900001D01*
X144569000Y-92856341D01*
X144569000Y-82603660D01*
X144573300Y-82560000D01*
X144569000Y-82516340D01*
X144569000Y-82516333D01*
X144556136Y-82385726D01*
X144505303Y-82218149D01*
X144422753Y-82063709D01*
X144311659Y-81928341D01*
X144277741Y-81900505D01*
X143410948Y-81033713D01*
X143406956Y-81013644D01*
X143330368Y-80828744D01*
X143219179Y-80662338D01*
X143077662Y-80520821D01*
X142911256Y-80409632D01*
X142726356Y-80333044D01*
X142530067Y-80294000D01*
X142329933Y-80294000D01*
X142133644Y-80333044D01*
X141948744Y-80409632D01*
X141782338Y-80520821D01*
X141640821Y-80662338D01*
X141529632Y-80828744D01*
X141453044Y-81013644D01*
X141414000Y-81209933D01*
X141414000Y-81410067D01*
X141453044Y-81606356D01*
X141529632Y-81791256D01*
X141640821Y-81957662D01*
X141782338Y-82099179D01*
X141948744Y-82210368D01*
X142133644Y-82286956D01*
X142153713Y-82290948D01*
X142791001Y-82928237D01*
X142791000Y-92302239D01*
X142658587Y-92357087D01*
X142471380Y-92482174D01*
X142312174Y-92641380D01*
X142187087Y-92828587D01*
X142100925Y-93036599D01*
X142057000Y-93257424D01*
X142057000Y-93482576D01*
X142100925Y-93703401D01*
X142187087Y-93911413D01*
X142312174Y-94098620D01*
X142471380Y-94257826D01*
X142658587Y-94382913D01*
X142866599Y-94469075D01*
X143035474Y-94502666D01*
X142961380Y-94552174D01*
X142937352Y-94576202D01*
X132613002Y-94576202D01*
X132613002Y-94544241D01*
X140264656Y-86892588D01*
X140483409Y-86849075D01*
X140691421Y-86762913D01*
X140878628Y-86637826D01*
X141037834Y-86478620D01*
X141162921Y-86291413D01*
X141249083Y-86083401D01*
X141293008Y-85862576D01*
X141293008Y-85637424D01*
X141249083Y-85416599D01*
X141162921Y-85208587D01*
X141037834Y-85021380D01*
X140878628Y-84862174D01*
X140691421Y-84737087D01*
X140483409Y-84650925D01*
X140262584Y-84607000D01*
X140037432Y-84607000D01*
X139816607Y-84650925D01*
X139608595Y-84737087D01*
X139421388Y-84862174D01*
X139262182Y-85021380D01*
X139137095Y-85208587D01*
X139050933Y-85416599D01*
X139007420Y-85635352D01*
X131267981Y-93374792D01*
X131136601Y-93400925D01*
X130928589Y-93487087D01*
X130741382Y-93612174D01*
X130582176Y-93771380D01*
X130457089Y-93958587D01*
X130370927Y-94166599D01*
X130327002Y-94387424D01*
X130327002Y-94576202D01*
X125496438Y-94576202D01*
X125261704Y-94341469D01*
X125261704Y-90019567D01*
X125385617Y-89834117D01*
X125471779Y-89626105D01*
X125515704Y-89405280D01*
X125515704Y-89180128D01*
X125471779Y-88959303D01*
X125423190Y-88842000D01*
X132472577Y-88842000D01*
X132510000Y-88845686D01*
X132547423Y-88842000D01*
X132547426Y-88842000D01*
X132659378Y-88830974D01*
X132803015Y-88787402D01*
X132935392Y-88716645D01*
X133051422Y-88621422D01*
X133075284Y-88592346D01*
X141497294Y-80170337D01*
X143849216Y-80170337D01*
X143886639Y-80174023D01*
X143924062Y-80170337D01*
X143924065Y-80170337D01*
X144036017Y-80159311D01*
X144179654Y-80115739D01*
X144312031Y-80044982D01*
X144314034Y-80043338D01*
X144367705Y-80043338D01*
X144563994Y-80004294D01*
X144748894Y-79927706D01*
X144915300Y-79816517D01*
X145056817Y-79675000D01*
X145058072Y-79673122D01*
X145656801Y-80271852D01*
X145656800Y-85123277D01*
X145653114Y-85160700D01*
X145656800Y-85198123D01*
X145656800Y-85198125D01*
X145667826Y-85310077D01*
X145711398Y-85453714D01*
X145744335Y-85515335D01*
X145782155Y-85586092D01*
X145821783Y-85634378D01*
X145877378Y-85702122D01*
X145906454Y-85725984D01*
X146148001Y-85967530D01*
X146148000Y-94552577D01*
X146144314Y-94590000D01*
X146148000Y-94627423D01*
X146148000Y-94627425D01*
X146159026Y-94739377D01*
X146202598Y-94883014D01*
X146210922Y-94898587D01*
X146273355Y-95015392D01*
X146303034Y-95051556D01*
X146368578Y-95131422D01*
X146397654Y-95155284D01*
X147169100Y-95926731D01*
X147169100Y-95955067D01*
X147208144Y-96151356D01*
X147284732Y-96336256D01*
X147395921Y-96502662D01*
X147537438Y-96644179D01*
X147703844Y-96755368D01*
X147888744Y-96831956D01*
X148085033Y-96871000D01*
X148285167Y-96871000D01*
X148481456Y-96831956D01*
X148666356Y-96755368D01*
X148832762Y-96644179D01*
X148974279Y-96502662D01*
X149085468Y-96336256D01*
X149162056Y-96151356D01*
X149201100Y-95955067D01*
X149201100Y-95754933D01*
X149162056Y-95558644D01*
X149085468Y-95373744D01*
X149049525Y-95319952D01*
X149079933Y-95326000D01*
X149280067Y-95326000D01*
X149476356Y-95286956D01*
X149661256Y-95210368D01*
X149827662Y-95099179D01*
X149969179Y-94957662D01*
X150080368Y-94791256D01*
X150121895Y-94691001D01*
X151083371Y-94691001D01*
X153864721Y-97472352D01*
X153888578Y-97501422D01*
X153917648Y-97525279D01*
X154004607Y-97596645D01*
X154075364Y-97634465D01*
X154136985Y-97667402D01*
X154280622Y-97710974D01*
X154392574Y-97722000D01*
X154392577Y-97722000D01*
X154430000Y-97725686D01*
X154467423Y-97722000D01*
X156042577Y-97722000D01*
X156080000Y-97725686D01*
X156117423Y-97722000D01*
X156117426Y-97722000D01*
X156229378Y-97710974D01*
X156373015Y-97667402D01*
X156505392Y-97596645D01*
X156598663Y-97520100D01*
X156635967Y-97520100D01*
X156832256Y-97481056D01*
X157017156Y-97404468D01*
X157183562Y-97293279D01*
X157325079Y-97151762D01*
X157436268Y-96985356D01*
X157512856Y-96800456D01*
X157551900Y-96604167D01*
X157551900Y-96404033D01*
X157512856Y-96207744D01*
X157436268Y-96022844D01*
X157325079Y-95856438D01*
X157183562Y-95714921D01*
X157017156Y-95603732D01*
X156832256Y-95527144D01*
X156682000Y-95497256D01*
X156682000Y-94731622D01*
X156685686Y-94694199D01*
X156680338Y-94639899D01*
X156670974Y-94544822D01*
X156627402Y-94401185D01*
X156556645Y-94268808D01*
X156461422Y-94152778D01*
X156432353Y-94128922D01*
X149075600Y-86772170D01*
X149075600Y-85296623D01*
X149079286Y-85259200D01*
X149073271Y-85198126D01*
X149064574Y-85109822D01*
X149021002Y-84966185D01*
X148977958Y-84885655D01*
X148950245Y-84833807D01*
X148878879Y-84746848D01*
X148855022Y-84717778D01*
X148825952Y-84693922D01*
X148451000Y-84318970D01*
X148451000Y-80008630D01*
X158168001Y-89725632D01*
X158168000Y-105330077D01*
X158164314Y-105367500D01*
X158168000Y-105404923D01*
X158168000Y-105404925D01*
X158179026Y-105516877D01*
X158222598Y-105660514D01*
X158222599Y-105660515D01*
X158293355Y-105792892D01*
X158332983Y-105841178D01*
X158388578Y-105908922D01*
X158417654Y-105932784D01*
X159872800Y-107387930D01*
X159872800Y-107426367D01*
X159911844Y-107622656D01*
X159988432Y-107807556D01*
X160099621Y-107973962D01*
X160241138Y-108115479D01*
X160407544Y-108226668D01*
X160592444Y-108303256D01*
X160788733Y-108342300D01*
X160988867Y-108342300D01*
X161132637Y-108313703D01*
X161149923Y-108312000D01*
X162174371Y-108312000D01*
X162317650Y-108455279D01*
X162373415Y-108501045D01*
X164668901Y-110796532D01*
X164668900Y-111370059D01*
X164641721Y-111397238D01*
X164530532Y-111563644D01*
X164453944Y-111748544D01*
X164414900Y-111944833D01*
X164414900Y-112144967D01*
X164453944Y-112341256D01*
X164530532Y-112526156D01*
X164641721Y-112692562D01*
X164783238Y-112834079D01*
X164949644Y-112945268D01*
X165134544Y-113021856D01*
X165330833Y-113060900D01*
X165530967Y-113060900D01*
X165727256Y-113021856D01*
X165829687Y-112979428D01*
X165930138Y-113079879D01*
X166096544Y-113191068D01*
X166281444Y-113267656D01*
X166477733Y-113306700D01*
X166677867Y-113306700D01*
X166874156Y-113267656D01*
X167059056Y-113191068D01*
X167225462Y-113079879D01*
X167366979Y-112938362D01*
X167478168Y-112771956D01*
X167554756Y-112587056D01*
X167593800Y-112390767D01*
X167593800Y-112190633D01*
X167554756Y-111994344D01*
X167478168Y-111809444D01*
X167466800Y-111792431D01*
X167466800Y-104790435D01*
X168947737Y-103309498D01*
X168981659Y-103281659D01*
X169092753Y-103146291D01*
X169175303Y-102991851D01*
X169206387Y-102889378D01*
X169226136Y-102824276D01*
X169229406Y-102791076D01*
X169239000Y-102693667D01*
X169239000Y-102693661D01*
X169243300Y-102650001D01*
X169239000Y-102606341D01*
X169239000Y-101385750D01*
X183715000Y-101385750D01*
X183715000Y-101962542D01*
X183739403Y-102085223D01*
X183787270Y-102200785D01*
X183856763Y-102304789D01*
X183945211Y-102393237D01*
X184049215Y-102462730D01*
X184164777Y-102510597D01*
X184287458Y-102535000D01*
X185064250Y-102535000D01*
X185223000Y-102376250D01*
X185223000Y-101227000D01*
X185477000Y-101227000D01*
X185477000Y-102376250D01*
X185635750Y-102535000D01*
X186412542Y-102535000D01*
X186535223Y-102510597D01*
X186650785Y-102462730D01*
X186754789Y-102393237D01*
X186843237Y-102304789D01*
X186912730Y-102200785D01*
X186960597Y-102085223D01*
X186985000Y-101962542D01*
X186985000Y-101385750D01*
X186826250Y-101227000D01*
X185477000Y-101227000D01*
X185223000Y-101227000D01*
X183873750Y-101227000D01*
X183715000Y-101385750D01*
X169239000Y-101385750D01*
X169239000Y-100237458D01*
X183715000Y-100237458D01*
X183715000Y-100814250D01*
X183873750Y-100973000D01*
X185223000Y-100973000D01*
X185223000Y-99823750D01*
X185477000Y-99823750D01*
X185477000Y-100973000D01*
X186826250Y-100973000D01*
X186985000Y-100814250D01*
X186985000Y-100237458D01*
X186960597Y-100114777D01*
X186912730Y-99999215D01*
X186843237Y-99895211D01*
X186754789Y-99806763D01*
X186650785Y-99737270D01*
X186535223Y-99689403D01*
X186412542Y-99665000D01*
X185635750Y-99665000D01*
X185477000Y-99823750D01*
X185223000Y-99823750D01*
X185064250Y-99665000D01*
X184287458Y-99665000D01*
X184164777Y-99689403D01*
X184049215Y-99737270D01*
X183945211Y-99806763D01*
X183856763Y-99895211D01*
X183787270Y-99999215D01*
X183739403Y-100114777D01*
X183715000Y-100237458D01*
X169239000Y-100237458D01*
X169239000Y-81918235D01*
X177734900Y-73422335D01*
X177734900Y-74109477D01*
X177731214Y-74146900D01*
X177734900Y-74184323D01*
X177734900Y-74184325D01*
X177745926Y-74296277D01*
X177789498Y-74439914D01*
X177819665Y-74496353D01*
X177860255Y-74572292D01*
X177872473Y-74587179D01*
X177955478Y-74688322D01*
X177984554Y-74712184D01*
X179628001Y-76355631D01*
X179628001Y-76653186D01*
X179566031Y-76537248D01*
X179361714Y-76288286D01*
X179112751Y-76083969D01*
X178828714Y-75932148D01*
X178520515Y-75838657D01*
X178200000Y-75807089D01*
X177879484Y-75838657D01*
X177571285Y-75932148D01*
X177287248Y-76083969D01*
X177038286Y-76288286D01*
X176833969Y-76537249D01*
X176682148Y-76821286D01*
X176588657Y-77129485D01*
X176565000Y-77369679D01*
X176565001Y-91530322D01*
X176588658Y-91770516D01*
X176682149Y-92078715D01*
X176833970Y-92362752D01*
X177038287Y-92611714D01*
X177287249Y-92816031D01*
X177571286Y-92967852D01*
X177879485Y-93061343D01*
X178200000Y-93092911D01*
X178520516Y-93061343D01*
X178828715Y-92967852D01*
X179112752Y-92816031D01*
X179361714Y-92611714D01*
X179566031Y-92362752D01*
X179717852Y-92078715D01*
X179811343Y-91770516D01*
X179835000Y-91530322D01*
X179835000Y-88885277D01*
X179848578Y-88901822D01*
X179877654Y-88925684D01*
X183711928Y-92759959D01*
X183711928Y-94100000D01*
X183724188Y-94224482D01*
X183760498Y-94344180D01*
X183819463Y-94454494D01*
X183898815Y-94551185D01*
X183995506Y-94630537D01*
X184105820Y-94689502D01*
X184225518Y-94725812D01*
X184350000Y-94738072D01*
X186350000Y-94738072D01*
X186474482Y-94725812D01*
X186594180Y-94689502D01*
X186704494Y-94630537D01*
X186801185Y-94551185D01*
X186880537Y-94454494D01*
X186939502Y-94344180D01*
X186975812Y-94224482D01*
X186988072Y-94100000D01*
X186988072Y-92500000D01*
X186975812Y-92375518D01*
X186939502Y-92255820D01*
X186880537Y-92145506D01*
X186801185Y-92048815D01*
X186704494Y-91969463D01*
X186594180Y-91910498D01*
X186474482Y-91874188D01*
X186350000Y-91861928D01*
X184969159Y-91861928D01*
X181152000Y-88044770D01*
X181152000Y-81871531D01*
X181965000Y-81871531D01*
X181965000Y-82528469D01*
X182093162Y-83172784D01*
X182344561Y-83779715D01*
X182709536Y-84325939D01*
X183174061Y-84790464D01*
X183720285Y-85155439D01*
X184327216Y-85406838D01*
X184971531Y-85535000D01*
X185628469Y-85535000D01*
X186272784Y-85406838D01*
X186879715Y-85155439D01*
X187425939Y-84790464D01*
X187890464Y-84325939D01*
X188255439Y-83779715D01*
X188506838Y-83172784D01*
X188635000Y-82528469D01*
X188635000Y-81871531D01*
X188506838Y-81227216D01*
X188255439Y-80620285D01*
X187890464Y-80074061D01*
X187425939Y-79609536D01*
X186879715Y-79244561D01*
X186272784Y-78993162D01*
X185628469Y-78865000D01*
X184971531Y-78865000D01*
X184327216Y-78993162D01*
X183720285Y-79244561D01*
X183174061Y-79609536D01*
X182709536Y-80074061D01*
X182344561Y-80620285D01*
X182093162Y-81227216D01*
X181965000Y-81871531D01*
X181152000Y-81871531D01*
X181152000Y-76077423D01*
X181155686Y-76040000D01*
X181152000Y-76002574D01*
X181140974Y-75890622D01*
X181097402Y-75746985D01*
X181055184Y-75668000D01*
X181026645Y-75614607D01*
X180974422Y-75550974D01*
X180931422Y-75498578D01*
X180902346Y-75474716D01*
X179258900Y-73831270D01*
X179258900Y-70372522D01*
X179262586Y-70335099D01*
X179258900Y-70297674D01*
X179247874Y-70185722D01*
X179204302Y-70042085D01*
X179133545Y-69909708D01*
X179038322Y-69793678D01*
X179009251Y-69769820D01*
X178541383Y-69301953D01*
X178517522Y-69272878D01*
X178401492Y-69177655D01*
X178269115Y-69106898D01*
X178125478Y-69063326D01*
X178013526Y-69052300D01*
X178013523Y-69052300D01*
X177976100Y-69048614D01*
X177938677Y-69052300D01*
X177276923Y-69052300D01*
X177239500Y-69048614D01*
X177202077Y-69052300D01*
X177202074Y-69052300D01*
X177090122Y-69063326D01*
X176946485Y-69106898D01*
X176884864Y-69139835D01*
X176814107Y-69177655D01*
X176795016Y-69193323D01*
X176698078Y-69272878D01*
X176674216Y-69301954D01*
X175775770Y-70200400D01*
X173718841Y-70200400D01*
X173691662Y-70173221D01*
X173525256Y-70062032D01*
X173340356Y-69985444D01*
X173144067Y-69946400D01*
X172943933Y-69946400D01*
X172747644Y-69985444D01*
X172562744Y-70062032D01*
X172396338Y-70173221D01*
X172254821Y-70314738D01*
X172143632Y-70481144D01*
X172067044Y-70666044D01*
X172028000Y-70862333D01*
X172028000Y-71062467D01*
X172067044Y-71258756D01*
X172143632Y-71443656D01*
X172254821Y-71610062D01*
X172396338Y-71751579D01*
X172562744Y-71862768D01*
X172747644Y-71939356D01*
X172943933Y-71978400D01*
X173144067Y-71978400D01*
X173340356Y-71939356D01*
X173525256Y-71862768D01*
X173691662Y-71751579D01*
X173718841Y-71724400D01*
X176053977Y-71724400D01*
X176091400Y-71728086D01*
X176128823Y-71724400D01*
X176128826Y-71724400D01*
X176240778Y-71713374D01*
X176384415Y-71669802D01*
X176516792Y-71599045D01*
X176632822Y-71503822D01*
X176656684Y-71474746D01*
X176718800Y-71412630D01*
X176718800Y-71923965D01*
X167752259Y-80890506D01*
X167718342Y-80918341D01*
X167690507Y-80952258D01*
X167690505Y-80952260D01*
X167607248Y-81053709D01*
X167524698Y-81208148D01*
X167473864Y-81375726D01*
X167456700Y-81550000D01*
X167461001Y-81593670D01*
X167461001Y-89626739D01*
X167256001Y-89541825D01*
X167037248Y-89498312D01*
X165681199Y-88142264D01*
X165653359Y-88108341D01*
X165517991Y-87997247D01*
X165363551Y-87914697D01*
X165195974Y-87863864D01*
X165065367Y-87851000D01*
X165065360Y-87851000D01*
X165021700Y-87846700D01*
X164978040Y-87851000D01*
X159728236Y-87851000D01*
X149500948Y-77623713D01*
X149496956Y-77603644D01*
X149420368Y-77418744D01*
X149309179Y-77252338D01*
X149278841Y-77222000D01*
X157305159Y-77222000D01*
X157312338Y-77229179D01*
X157478744Y-77340368D01*
X157663644Y-77416956D01*
X157859933Y-77456000D01*
X158060067Y-77456000D01*
X158256356Y-77416956D01*
X158441256Y-77340368D01*
X158607662Y-77229179D01*
X158749179Y-77087662D01*
X158860368Y-76921256D01*
X158936956Y-76736356D01*
X158976000Y-76540067D01*
X158976000Y-76339933D01*
X158936956Y-76143644D01*
X158860368Y-75958744D01*
X158749179Y-75792338D01*
X158607662Y-75650821D01*
X158441256Y-75539632D01*
X158256356Y-75463044D01*
X158060067Y-75424000D01*
X157859933Y-75424000D01*
X157663644Y-75463044D01*
X157478744Y-75539632D01*
X157456162Y-75554721D01*
X157459237Y-75550974D01*
X157496645Y-75505393D01*
X157540150Y-75424000D01*
X157567402Y-75373015D01*
X157610974Y-75229378D01*
X157622000Y-75117426D01*
X157622000Y-75117423D01*
X157625686Y-75080000D01*
X157622000Y-75042577D01*
X157622000Y-72752344D01*
X158814000Y-72752344D01*
X158814000Y-72952478D01*
X158853044Y-73148767D01*
X158929632Y-73333667D01*
X159040821Y-73500073D01*
X159182338Y-73641590D01*
X159348744Y-73752779D01*
X159533644Y-73829367D01*
X159729933Y-73868411D01*
X159930067Y-73868411D01*
X160126356Y-73829367D01*
X160311256Y-73752779D01*
X160477662Y-73641590D01*
X160619179Y-73500073D01*
X160730368Y-73333667D01*
X160806956Y-73148767D01*
X160846000Y-72952478D01*
X160846000Y-72914041D01*
X161062346Y-72697695D01*
X161091422Y-72673833D01*
X161186645Y-72557803D01*
X161257402Y-72425426D01*
X161300974Y-72281789D01*
X161312000Y-72169837D01*
X161312000Y-72169834D01*
X161315686Y-72132411D01*
X161312000Y-72094988D01*
X161312000Y-72094839D01*
X161339179Y-72067660D01*
X161450368Y-71901254D01*
X161526956Y-71716354D01*
X161566000Y-71520065D01*
X161566000Y-71319931D01*
X161526956Y-71123642D01*
X161450368Y-70938742D01*
X161339179Y-70772336D01*
X161197662Y-70630819D01*
X161031256Y-70519630D01*
X160846356Y-70443042D01*
X160650067Y-70403998D01*
X160449933Y-70403998D01*
X160253644Y-70443042D01*
X160068744Y-70519630D01*
X159902338Y-70630819D01*
X159760821Y-70772336D01*
X159649632Y-70938742D01*
X159573044Y-71123642D01*
X159534000Y-71319931D01*
X159534000Y-71520065D01*
X159573044Y-71716354D01*
X159630930Y-71856104D01*
X159533644Y-71875455D01*
X159348744Y-71952043D01*
X159182338Y-72063232D01*
X159040821Y-72204749D01*
X158929632Y-72371155D01*
X158853044Y-72556055D01*
X158814000Y-72752344D01*
X157622000Y-72752344D01*
X157622000Y-70661692D01*
X157746356Y-70636956D01*
X157931256Y-70560368D01*
X158097662Y-70449179D01*
X158239179Y-70307662D01*
X158350368Y-70141256D01*
X158426956Y-69956356D01*
X158466000Y-69760067D01*
X158466000Y-69559933D01*
X158426956Y-69363644D01*
X158350368Y-69178744D01*
X158239179Y-69012338D01*
X158097662Y-68870821D01*
X157931256Y-68759632D01*
X157746356Y-68683044D01*
X157550067Y-68644000D01*
X157349933Y-68644000D01*
X157153644Y-68683044D01*
X156968744Y-68759632D01*
X156802338Y-68870821D01*
X156660821Y-69012338D01*
X156549632Y-69178744D01*
X156473044Y-69363644D01*
X156434000Y-69559933D01*
X156434000Y-69598370D01*
X156347649Y-69684721D01*
X156318579Y-69708578D01*
X156294722Y-69737648D01*
X156294721Y-69737649D01*
X156223355Y-69824608D01*
X156152599Y-69956985D01*
X156109027Y-70100622D01*
X156094314Y-70250000D01*
X156098001Y-70287433D01*
X156098000Y-74764369D01*
X155734370Y-75128000D01*
X148705631Y-75128000D01*
X148145189Y-74567558D01*
X148187662Y-74539179D01*
X148329179Y-74397662D01*
X148440368Y-74231256D01*
X148516956Y-74046356D01*
X148538132Y-73939898D01*
X148601041Y-73952411D01*
X148801175Y-73952411D01*
X148997464Y-73913367D01*
X149182364Y-73836779D01*
X149348770Y-73725590D01*
X149490287Y-73584073D01*
X149601476Y-73417667D01*
X149678064Y-73232767D01*
X149717108Y-73036478D01*
X149717108Y-72836344D01*
X149678064Y-72640055D01*
X149601476Y-72455155D01*
X149490287Y-72288749D01*
X149348770Y-72147232D01*
X149182364Y-72036043D01*
X149152000Y-72023466D01*
X149152000Y-71517423D01*
X149155686Y-71480000D01*
X149150270Y-71425010D01*
X149140974Y-71330622D01*
X149099719Y-71194623D01*
X149197662Y-71129179D01*
X149339179Y-70987662D01*
X149450368Y-70821256D01*
X149526956Y-70636356D01*
X149566000Y-70440067D01*
X149566000Y-70239933D01*
X149526956Y-70043644D01*
X149450368Y-69858744D01*
X149339179Y-69692338D01*
X149272022Y-69625181D01*
X149257402Y-69576985D01*
X149186645Y-69444608D01*
X149091422Y-69328578D01*
X149062353Y-69304722D01*
X147265985Y-67508354D01*
X151764000Y-67508354D01*
X151764000Y-67708488D01*
X151803044Y-67904777D01*
X151879632Y-68089677D01*
X151990821Y-68256083D01*
X152132338Y-68397600D01*
X152298744Y-68508789D01*
X152483644Y-68585377D01*
X152679933Y-68624421D01*
X152880067Y-68624421D01*
X153076356Y-68585377D01*
X153261256Y-68508789D01*
X153427662Y-68397600D01*
X153454841Y-68370421D01*
X155214156Y-68370421D01*
X155251579Y-68374107D01*
X155289002Y-68370421D01*
X155289005Y-68370421D01*
X155400957Y-68359395D01*
X155544594Y-68315823D01*
X155676971Y-68245066D01*
X155793001Y-68149843D01*
X155816862Y-68120768D01*
X156011630Y-67926000D01*
X156050067Y-67926000D01*
X156246356Y-67886956D01*
X156431256Y-67810368D01*
X156597662Y-67699179D01*
X156739179Y-67557662D01*
X156850368Y-67391256D01*
X156926956Y-67206356D01*
X156966000Y-67010067D01*
X156966000Y-66809933D01*
X156926956Y-66613644D01*
X156850368Y-66428744D01*
X156739179Y-66262338D01*
X156597662Y-66120821D01*
X156431256Y-66009632D01*
X156246356Y-65933044D01*
X156050067Y-65894000D01*
X155849933Y-65894000D01*
X155653644Y-65933044D01*
X155468744Y-66009632D01*
X155302338Y-66120821D01*
X155160821Y-66262338D01*
X155049632Y-66428744D01*
X154973044Y-66613644D01*
X154934000Y-66809933D01*
X154934000Y-66846421D01*
X153454841Y-66846421D01*
X153427662Y-66819242D01*
X153261256Y-66708053D01*
X153076356Y-66631465D01*
X152880067Y-66592421D01*
X152679933Y-66592421D01*
X152483644Y-66631465D01*
X152298744Y-66708053D01*
X152132338Y-66819242D01*
X151990821Y-66960759D01*
X151879632Y-67127165D01*
X151803044Y-67312065D01*
X151764000Y-67508354D01*
X147265985Y-67508354D01*
X147121736Y-67364106D01*
X147150368Y-67321256D01*
X147226956Y-67136356D01*
X147266000Y-66940067D01*
X147266000Y-66739933D01*
X147226956Y-66543644D01*
X147150368Y-66358744D01*
X147039179Y-66192338D01*
X146897662Y-66050821D01*
X146731256Y-65939632D01*
X146546356Y-65863044D01*
X146350067Y-65824000D01*
X146149933Y-65824000D01*
X145953644Y-65863044D01*
X145776384Y-65936467D01*
X145721256Y-65899632D01*
X145536356Y-65823044D01*
X145340067Y-65784000D01*
X145139933Y-65784000D01*
X144943644Y-65823044D01*
X144775000Y-65892899D01*
X144606356Y-65823044D01*
X144410067Y-65784000D01*
X144209933Y-65784000D01*
X144013644Y-65823044D01*
X143828744Y-65899632D01*
X143662338Y-66010821D01*
X143520821Y-66152338D01*
X143409632Y-66318744D01*
X143333044Y-66503644D01*
X143294000Y-66699933D01*
X143294000Y-66737715D01*
X143268578Y-66758578D01*
X143218793Y-66819242D01*
X143173355Y-66874608D01*
X143145359Y-66926985D01*
X143102598Y-67006986D01*
X143059026Y-67150623D01*
X143051662Y-67225393D01*
X143044314Y-67300000D01*
X143048000Y-67337424D01*
X143048001Y-68692567D01*
X143044314Y-68730000D01*
X143059027Y-68879378D01*
X143102599Y-69023015D01*
X143173355Y-69155392D01*
X143244721Y-69242351D01*
X143268579Y-69271422D01*
X143297649Y-69295279D01*
X146778000Y-72775630D01*
X146778000Y-73075159D01*
X146750821Y-73102338D01*
X146722442Y-73144811D01*
X141595284Y-68017654D01*
X141571422Y-67988578D01*
X141455392Y-67893355D01*
X141323015Y-67822598D01*
X141179378Y-67779026D01*
X141067426Y-67768000D01*
X141067423Y-67768000D01*
X141030000Y-67764314D01*
X140992577Y-67768000D01*
X133738022Y-67768000D01*
X133815392Y-67726645D01*
X133931422Y-67631422D01*
X133955284Y-67602346D01*
X136007630Y-65550000D01*
X166454314Y-65550000D01*
X166469026Y-65699378D01*
X166512598Y-65843015D01*
X166562864Y-65937055D01*
X166580842Y-65980459D01*
X166692031Y-66146865D01*
X166833548Y-66288382D01*
X166999954Y-66399571D01*
X167184854Y-66476159D01*
X167381143Y-66515203D01*
X167581277Y-66515203D01*
X167777566Y-66476159D01*
X167962466Y-66399571D01*
X168128872Y-66288382D01*
X168270389Y-66146865D01*
X168381578Y-65980459D01*
X168458166Y-65795559D01*
X168497210Y-65599270D01*
X168497210Y-65399136D01*
X168458166Y-65202847D01*
X168381578Y-65017947D01*
X168270389Y-64851541D01*
X168243210Y-64824362D01*
X168243210Y-64084420D01*
X169559533Y-62768098D01*
X169597969Y-62768098D01*
X169794258Y-62729054D01*
X169979158Y-62652466D01*
X170145564Y-62541277D01*
X170287081Y-62399760D01*
X170398270Y-62233354D01*
X170474858Y-62048454D01*
X170513902Y-61852165D01*
X170513902Y-61652031D01*
X170474858Y-61455742D01*
X170398270Y-61270842D01*
X170287081Y-61104436D01*
X170145564Y-60962919D01*
X169979158Y-60851730D01*
X169794258Y-60775142D01*
X169597969Y-60736098D01*
X169397835Y-60736098D01*
X169201546Y-60775142D01*
X169016646Y-60851730D01*
X168850240Y-60962919D01*
X168708723Y-61104436D01*
X168597534Y-61270842D01*
X168520946Y-61455742D01*
X168481902Y-61652031D01*
X168481902Y-61690467D01*
X166968864Y-63203506D01*
X166939788Y-63227368D01*
X166892768Y-63284663D01*
X166844565Y-63343398D01*
X166823298Y-63383186D01*
X166773808Y-63475776D01*
X166730236Y-63619413D01*
X166719210Y-63731364D01*
X166715524Y-63768790D01*
X166719210Y-63806214D01*
X166719211Y-64824361D01*
X166692031Y-64851541D01*
X166580842Y-65017947D01*
X166504254Y-65202847D01*
X166465210Y-65399136D01*
X166465210Y-65439368D01*
X166454314Y-65550000D01*
X136007630Y-65550000D01*
X136682347Y-64875283D01*
X136711422Y-64851422D01*
X136771857Y-64777781D01*
X136806645Y-64735393D01*
X136877401Y-64603016D01*
X136877402Y-64603015D01*
X136920974Y-64459378D01*
X136932000Y-64347426D01*
X136932000Y-64347423D01*
X136935686Y-64310000D01*
X136932000Y-64272577D01*
X136932000Y-62204841D01*
X136959179Y-62177662D01*
X137070368Y-62011256D01*
X137146956Y-61826356D01*
X137186000Y-61630067D01*
X137186000Y-61429933D01*
X137168509Y-61342000D01*
X144375159Y-61342000D01*
X144402338Y-61369179D01*
X144568744Y-61480368D01*
X144753644Y-61556956D01*
X144949933Y-61596000D01*
X144988370Y-61596000D01*
X146360682Y-62968313D01*
X146310951Y-63088374D01*
X146271907Y-63284663D01*
X146271907Y-63484797D01*
X146310951Y-63681086D01*
X146387539Y-63865986D01*
X146498728Y-64032392D01*
X146640245Y-64173909D01*
X146806651Y-64285098D01*
X146991551Y-64361686D01*
X147187840Y-64400730D01*
X147387974Y-64400730D01*
X147584263Y-64361686D01*
X147769163Y-64285098D01*
X147935569Y-64173909D01*
X148077086Y-64032392D01*
X148188275Y-63865986D01*
X148264863Y-63681086D01*
X148303907Y-63484797D01*
X148303907Y-63284663D01*
X148264863Y-63088374D01*
X148188275Y-62903474D01*
X148159182Y-62859933D01*
X151714000Y-62859933D01*
X151714000Y-63060067D01*
X151753044Y-63256356D01*
X151829632Y-63441256D01*
X151940821Y-63607662D01*
X152082338Y-63749179D01*
X152248744Y-63860368D01*
X152433644Y-63936956D01*
X152629933Y-63976000D01*
X152830067Y-63976000D01*
X153026356Y-63936956D01*
X153211256Y-63860368D01*
X153377662Y-63749179D01*
X153404841Y-63722000D01*
X154297631Y-63722000D01*
X154335054Y-63725686D01*
X154372477Y-63722000D01*
X154372480Y-63722000D01*
X154484432Y-63710974D01*
X154628069Y-63667402D01*
X154760446Y-63596645D01*
X154876476Y-63501422D01*
X154900338Y-63472346D01*
X155030017Y-63342667D01*
X155068454Y-63342667D01*
X155264743Y-63303623D01*
X155449643Y-63227035D01*
X155616049Y-63115846D01*
X155757566Y-62974329D01*
X155868755Y-62807923D01*
X155945343Y-62623023D01*
X155984387Y-62426734D01*
X155984387Y-62226600D01*
X155945343Y-62030311D01*
X155868755Y-61845411D01*
X155757566Y-61679005D01*
X155616049Y-61537488D01*
X155449643Y-61426299D01*
X155264743Y-61349711D01*
X155068454Y-61310667D01*
X154868320Y-61310667D01*
X154672031Y-61349711D01*
X154487131Y-61426299D01*
X154320725Y-61537488D01*
X154179208Y-61679005D01*
X154068019Y-61845411D01*
X153991431Y-62030311D01*
X153958076Y-62198000D01*
X153404841Y-62198000D01*
X153377662Y-62170821D01*
X153211256Y-62059632D01*
X153026356Y-61983044D01*
X152830067Y-61944000D01*
X152629933Y-61944000D01*
X152433644Y-61983044D01*
X152248744Y-62059632D01*
X152082338Y-62170821D01*
X151940821Y-62312338D01*
X151829632Y-62478744D01*
X151753044Y-62663644D01*
X151714000Y-62859933D01*
X148159182Y-62859933D01*
X148077086Y-62737068D01*
X148042195Y-62702177D01*
X148038881Y-62668529D01*
X147995309Y-62524892D01*
X147924552Y-62392515D01*
X147829329Y-62276485D01*
X147800259Y-62252628D01*
X146066000Y-60518370D01*
X146066000Y-60479933D01*
X146026956Y-60283644D01*
X145950368Y-60098744D01*
X145839179Y-59932338D01*
X145697662Y-59790821D01*
X145531256Y-59679632D01*
X145346356Y-59603044D01*
X145150067Y-59564000D01*
X144949933Y-59564000D01*
X144753644Y-59603044D01*
X144568744Y-59679632D01*
X144402338Y-59790821D01*
X144375159Y-59818000D01*
X132864841Y-59818000D01*
X132817662Y-59770821D01*
X132651256Y-59659632D01*
X132466356Y-59583044D01*
X132270067Y-59544000D01*
X132069933Y-59544000D01*
X131873644Y-59583044D01*
X131688744Y-59659632D01*
X131522338Y-59770821D01*
X131380821Y-59912338D01*
X131269632Y-60078744D01*
X131193044Y-60263644D01*
X131154000Y-60459933D01*
X131154000Y-60660067D01*
X131193044Y-60856356D01*
X131269632Y-61041256D01*
X131380821Y-61207662D01*
X131522338Y-61349179D01*
X131688744Y-61460368D01*
X131873644Y-61536956D01*
X132069933Y-61576000D01*
X132270067Y-61576000D01*
X132466356Y-61536956D01*
X132651256Y-61460368D01*
X132817662Y-61349179D01*
X132824841Y-61342000D01*
X135171491Y-61342000D01*
X135154000Y-61429933D01*
X135154000Y-61630067D01*
X135193044Y-61826356D01*
X135269632Y-62011256D01*
X135380821Y-62177662D01*
X135408001Y-62204842D01*
X135408000Y-63994370D01*
X133128030Y-66274340D01*
X133001256Y-66189632D01*
X132816356Y-66113044D01*
X132620067Y-66074000D01*
X132419933Y-66074000D01*
X132223644Y-66113044D01*
X132038744Y-66189632D01*
X131872338Y-66300821D01*
X131730821Y-66442338D01*
X131619632Y-66608744D01*
X131543044Y-66793644D01*
X131504000Y-66989933D01*
X131504000Y-67190067D01*
X131543044Y-67386356D01*
X131619632Y-67571256D01*
X131730821Y-67737662D01*
X131761159Y-67768000D01*
X124236237Y-67768000D01*
X124198814Y-67764314D01*
X124161391Y-67768000D01*
X124161389Y-67768000D01*
X124049437Y-67779026D01*
X123905800Y-67822598D01*
X123773423Y-67893355D01*
X123657393Y-67988578D01*
X123633536Y-68017648D01*
X120806613Y-70844572D01*
X120706356Y-70803044D01*
X120510067Y-70764000D01*
X120309933Y-70764000D01*
X120113644Y-70803044D01*
X119928744Y-70879632D01*
X119762338Y-70990821D01*
X119620821Y-71132338D01*
X119509632Y-71298744D01*
X119433044Y-71483644D01*
X119394000Y-71679933D01*
X119394000Y-71880067D01*
X119433044Y-72076356D01*
X119509632Y-72261256D01*
X119620821Y-72427662D01*
X119762338Y-72569179D01*
X119928744Y-72680368D01*
X120113644Y-72756956D01*
X120309933Y-72796000D01*
X120510067Y-72796000D01*
X120706356Y-72756956D01*
X120891256Y-72680368D01*
X121057662Y-72569179D01*
X121058001Y-72568840D01*
X121058000Y-74484370D01*
X120388370Y-75154000D01*
X120349933Y-75154000D01*
X120153644Y-75193044D01*
X119968744Y-75269632D01*
X119802338Y-75380821D01*
X119660821Y-75522338D01*
X119549632Y-75688744D01*
X119473044Y-75873644D01*
X119434000Y-76069933D01*
X119434000Y-76270067D01*
X119473044Y-76466356D01*
X119549632Y-76651256D01*
X119656370Y-76811000D01*
X118648236Y-76811000D01*
X118299000Y-76461765D01*
X118299000Y-74296269D01*
X118310368Y-74279256D01*
X118386956Y-74094356D01*
X118426000Y-73898067D01*
X118426000Y-73697933D01*
X118386956Y-73501644D01*
X118310368Y-73316744D01*
X118299000Y-73299731D01*
X118299000Y-70650269D01*
X118310368Y-70633256D01*
X118386956Y-70448356D01*
X118426000Y-70252067D01*
X118426000Y-70051933D01*
X118386956Y-69855644D01*
X118310368Y-69670744D01*
X118199179Y-69504338D01*
X118057662Y-69362821D01*
X117891256Y-69251632D01*
X117706356Y-69175044D01*
X117510067Y-69136000D01*
X117309933Y-69136000D01*
X117113644Y-69175044D01*
X116928744Y-69251632D01*
X116762338Y-69362821D01*
X116620821Y-69504338D01*
X116509632Y-69670744D01*
X116433044Y-69855644D01*
X116394000Y-70051933D01*
X116394000Y-70252067D01*
X116433044Y-70448356D01*
X116509632Y-70633256D01*
X116521000Y-70650270D01*
X116521001Y-73299729D01*
X116509632Y-73316744D01*
X116433044Y-73501644D01*
X116394000Y-73697933D01*
X116394000Y-73898067D01*
X116433044Y-74094356D01*
X116509632Y-74279256D01*
X116521000Y-74296270D01*
X116521001Y-76786330D01*
X116516700Y-76830000D01*
X116533864Y-77004274D01*
X116584698Y-77171852D01*
X116667248Y-77326291D01*
X116730911Y-77403864D01*
X116778342Y-77461659D01*
X116812259Y-77489494D01*
X117022764Y-77700000D01*
X107581765Y-87141000D01*
X87513662Y-87141000D01*
X87470002Y-87136700D01*
X87426342Y-87141000D01*
X87426335Y-87141000D01*
X87312327Y-87152229D01*
X87295727Y-87153864D01*
X87222760Y-87175998D01*
X87128151Y-87204697D01*
X86973711Y-87287247D01*
X86838343Y-87398341D01*
X86810508Y-87432258D01*
X82010261Y-92232506D01*
X81985355Y-92257412D01*
X81766601Y-92300925D01*
X81558589Y-92387087D01*
X81371382Y-92512174D01*
X81212176Y-92671380D01*
X81087089Y-92858587D01*
X81000927Y-93066599D01*
X80957002Y-93287424D01*
X80957002Y-93512576D01*
X81000927Y-93733401D01*
X81087089Y-93941413D01*
X81212176Y-94128620D01*
X81371382Y-94287826D01*
X81558589Y-94412913D01*
X81766601Y-94499075D01*
X81987426Y-94543000D01*
X82212578Y-94543000D01*
X82433403Y-94499075D01*
X82641415Y-94412913D01*
X82828622Y-94287826D01*
X82987828Y-94128620D01*
X83112915Y-93941413D01*
X83199077Y-93733401D01*
X83242590Y-93514647D01*
X83267496Y-93489741D01*
X87838238Y-88919000D01*
X98390391Y-88919000D01*
X98258353Y-89007225D01*
X98107225Y-89158353D01*
X97988485Y-89336060D01*
X97906696Y-89533517D01*
X97865000Y-89743137D01*
X97865000Y-89956863D01*
X97906696Y-90166483D01*
X97988485Y-90363940D01*
X98107225Y-90541647D01*
X98258353Y-90692775D01*
X98436060Y-90811515D01*
X98633517Y-90893304D01*
X98843137Y-90935000D01*
X99056863Y-90935000D01*
X99266483Y-90893304D01*
X99463940Y-90811515D01*
X99641647Y-90692775D01*
X99792775Y-90541647D01*
X99911515Y-90363940D01*
X99993304Y-90166483D01*
X100035000Y-89956863D01*
X100035000Y-89743137D01*
X99993304Y-89533517D01*
X99911515Y-89336060D01*
X99792775Y-89158353D01*
X99641647Y-89007225D01*
X99509609Y-88919000D01*
X101390391Y-88919000D01*
X101258353Y-89007225D01*
X101107225Y-89158353D01*
X100988485Y-89336060D01*
X100906696Y-89533517D01*
X100865000Y-89743137D01*
X100865000Y-89956863D01*
X100906696Y-90166483D01*
X100988485Y-90363940D01*
X101107225Y-90541647D01*
X101258353Y-90692775D01*
X101436060Y-90811515D01*
X101633517Y-90893304D01*
X101843137Y-90935000D01*
X102056863Y-90935000D01*
X102266483Y-90893304D01*
X102463940Y-90811515D01*
X102641647Y-90692775D01*
X102792775Y-90541647D01*
X102911515Y-90363940D01*
X102993304Y-90166483D01*
X103035000Y-89956863D01*
X103035000Y-89743137D01*
X102993304Y-89533517D01*
X102911515Y-89336060D01*
X102792775Y-89158353D01*
X102641647Y-89007225D01*
X102509609Y-88919000D01*
X107906340Y-88919000D01*
X107940409Y-88922355D01*
X100527870Y-96334895D01*
X100072258Y-96334895D01*
X99886808Y-96210982D01*
X99860744Y-96200186D01*
X101987030Y-94073900D01*
X102025467Y-94073900D01*
X102221756Y-94034856D01*
X102406656Y-93958268D01*
X102573062Y-93847079D01*
X102714579Y-93705562D01*
X102825768Y-93539156D01*
X102902356Y-93354256D01*
X102941400Y-93157967D01*
X102941400Y-92957833D01*
X102902356Y-92761544D01*
X102825768Y-92576644D01*
X102714579Y-92410238D01*
X102573062Y-92268721D01*
X102406656Y-92157532D01*
X102221756Y-92080944D01*
X102025467Y-92041900D01*
X101825333Y-92041900D01*
X101629044Y-92080944D01*
X101444144Y-92157532D01*
X101277738Y-92268721D01*
X101136221Y-92410238D01*
X101025032Y-92576644D01*
X100948444Y-92761544D01*
X100909400Y-92957833D01*
X100909400Y-92996270D01*
X86227654Y-107678016D01*
X86198578Y-107701878D01*
X86142983Y-107769622D01*
X86103355Y-107817908D01*
X86089935Y-107843016D01*
X86032598Y-107950286D01*
X85989026Y-108093923D01*
X85979894Y-108186645D01*
X85974314Y-108243300D01*
X85978000Y-108280723D01*
X85978001Y-118612567D01*
X85974314Y-118650000D01*
X85989027Y-118799378D01*
X86032599Y-118943015D01*
X86103355Y-119075392D01*
X86174721Y-119162351D01*
X86198579Y-119191422D01*
X86227649Y-119215279D01*
X87273369Y-120261000D01*
X84678269Y-120261000D01*
X84661256Y-120249632D01*
X84476356Y-120173044D01*
X84456287Y-120169052D01*
X83339499Y-119052264D01*
X83311659Y-119018341D01*
X83176291Y-118907247D01*
X83021851Y-118824697D01*
X82854274Y-118773864D01*
X82723667Y-118761000D01*
X82723660Y-118761000D01*
X82680000Y-118756700D01*
X82636340Y-118761000D01*
X80786863Y-118761000D01*
X80601413Y-118637087D01*
X80393401Y-118550925D01*
X80172576Y-118507000D01*
X79947424Y-118507000D01*
X79726599Y-118550925D01*
X79518587Y-118637087D01*
X79333137Y-118761000D01*
X78513668Y-118761000D01*
X78470000Y-118756699D01*
X78295725Y-118773864D01*
X78244892Y-118789284D01*
X78128149Y-118824697D01*
X77973709Y-118907247D01*
X77838341Y-119018341D01*
X77810505Y-119052259D01*
X77135353Y-119727412D01*
X76916599Y-119770925D01*
X76708587Y-119857087D01*
X76521380Y-119982174D01*
X76362174Y-120141380D01*
X76237087Y-120328587D01*
X76150925Y-120536599D01*
X76107000Y-120757424D01*
X76107000Y-120982576D01*
X76150925Y-121203401D01*
X76237087Y-121411413D01*
X76362174Y-121598620D01*
X76521380Y-121757826D01*
X76708587Y-121882913D01*
X76916599Y-121969075D01*
X77137424Y-122013000D01*
X77362576Y-122013000D01*
X77583401Y-121969075D01*
X77791413Y-121882913D01*
X77978620Y-121757826D01*
X78137826Y-121598620D01*
X78262913Y-121411413D01*
X78349075Y-121203401D01*
X78392588Y-120984647D01*
X78838236Y-120539000D01*
X79333137Y-120539000D01*
X79518587Y-120662913D01*
X79726599Y-120749075D01*
X79947424Y-120793000D01*
X80172576Y-120793000D01*
X80393401Y-120749075D01*
X80601413Y-120662913D01*
X80786863Y-120539000D01*
X82311765Y-120539000D01*
X83143765Y-121371000D01*
X79100195Y-121371000D01*
X79056535Y-121366700D01*
X79012875Y-121371000D01*
X79012869Y-121371000D01*
X78915460Y-121380594D01*
X78882260Y-121383864D01*
X78810323Y-121405686D01*
X78714685Y-121434697D01*
X78560245Y-121517247D01*
X78424877Y-121628341D01*
X78397037Y-121662264D01*
X77611873Y-122447428D01*
X77591804Y-122451420D01*
X77406904Y-122528008D01*
X77240498Y-122639197D01*
X77098981Y-122780714D01*
X76987792Y-122947120D01*
X76911204Y-123132020D01*
X76872160Y-123328309D01*
X76872160Y-123528443D01*
X76911204Y-123724732D01*
X76987792Y-123909632D01*
X77098981Y-124076038D01*
X77240498Y-124217555D01*
X77406904Y-124328744D01*
X77591804Y-124405332D01*
X77788093Y-124444376D01*
X77988227Y-124444376D01*
X78184516Y-124405332D01*
X78369416Y-124328744D01*
X78535822Y-124217555D01*
X78677339Y-124076038D01*
X78788528Y-123909632D01*
X78865116Y-123724732D01*
X78869108Y-123704663D01*
X79424771Y-123149000D01*
X82751740Y-123149000D01*
X82657407Y-123212031D01*
X82515890Y-123353548D01*
X82404701Y-123519954D01*
X82328113Y-123704854D01*
X82289069Y-123901143D01*
X82289069Y-124101277D01*
X82328113Y-124297566D01*
X82404701Y-124482466D01*
X82515890Y-124648872D01*
X82657407Y-124790389D01*
X82823813Y-124901578D01*
X83008713Y-124978166D01*
X83205002Y-125017210D01*
X83405136Y-125017210D01*
X83601425Y-124978166D01*
X83786325Y-124901578D01*
X83952731Y-124790389D01*
X83979910Y-124763210D01*
X86071367Y-124763210D01*
X86108790Y-124766896D01*
X86146213Y-124763210D01*
X86146216Y-124763210D01*
X86258168Y-124752184D01*
X86401805Y-124708612D01*
X86534182Y-124637855D01*
X86650212Y-124542632D01*
X86674074Y-124513556D01*
X86721630Y-124466000D01*
X86760067Y-124466000D01*
X86956356Y-124426956D01*
X87141256Y-124350368D01*
X87303398Y-124242028D01*
X87387893Y-124446015D01*
X87512980Y-124633222D01*
X87672186Y-124792428D01*
X87844683Y-124907686D01*
X87618370Y-125134000D01*
X87579933Y-125134000D01*
X87383644Y-125173044D01*
X87198744Y-125249632D01*
X87032338Y-125360821D01*
X86890821Y-125502338D01*
X86779632Y-125668744D01*
X86703044Y-125853644D01*
X86664000Y-126049933D01*
X86664000Y-126250067D01*
X86703044Y-126446356D01*
X86779632Y-126631256D01*
X86890821Y-126797662D01*
X87032338Y-126939179D01*
X87198744Y-127050368D01*
X87383644Y-127126956D01*
X87420706Y-127134328D01*
X87433044Y-127196356D01*
X87471583Y-127289397D01*
X87325408Y-127275000D01*
X76656096Y-127275000D01*
X76696956Y-127176356D01*
X76736000Y-126980067D01*
X76736000Y-126779933D01*
X76696956Y-126583644D01*
X76620368Y-126398744D01*
X76509179Y-126232338D01*
X76367662Y-126090821D01*
X76201256Y-125979632D01*
X76016356Y-125903044D01*
X75820067Y-125864000D01*
X75619933Y-125864000D01*
X75423644Y-125903044D01*
X75238744Y-125979632D01*
X75072338Y-126090821D01*
X74930821Y-126232338D01*
X74819632Y-126398744D01*
X74743044Y-126583644D01*
X74704000Y-126779933D01*
X74704000Y-126980067D01*
X74743044Y-127176356D01*
X74791378Y-127293045D01*
X74749087Y-127297210D01*
X74459739Y-127384983D01*
X74193073Y-127527519D01*
X73959339Y-127719339D01*
X73767519Y-127953073D01*
X73624983Y-128219739D01*
X73537210Y-128509087D01*
X73507573Y-128810000D01*
X51447700Y-128810000D01*
X51447700Y-117934074D01*
X51709536Y-118325939D01*
X52174061Y-118790464D01*
X52720285Y-119155439D01*
X53327216Y-119406838D01*
X53971531Y-119535000D01*
X54628469Y-119535000D01*
X55272784Y-119406838D01*
X55879715Y-119155439D01*
X56425939Y-118790464D01*
X56890464Y-118325939D01*
X57255439Y-117779715D01*
X57506838Y-117172784D01*
X57635000Y-116528469D01*
X57635000Y-115871531D01*
X57506838Y-115227216D01*
X57255439Y-114620285D01*
X56890464Y-114074061D01*
X56425939Y-113609536D01*
X55879715Y-113244561D01*
X55272784Y-112993162D01*
X54628469Y-112865000D01*
X53971531Y-112865000D01*
X53327216Y-112993162D01*
X52720285Y-113244561D01*
X52174061Y-113609536D01*
X51709536Y-114074061D01*
X51447700Y-114465926D01*
X51447700Y-82881961D01*
X68684521Y-82881961D01*
X68684521Y-83082095D01*
X68723565Y-83278384D01*
X68800153Y-83463284D01*
X68911342Y-83629690D01*
X69052859Y-83771207D01*
X69219265Y-83882396D01*
X69404165Y-83958984D01*
X69600454Y-83998028D01*
X69800588Y-83998028D01*
X69996877Y-83958984D01*
X70181777Y-83882396D01*
X70348183Y-83771207D01*
X70375362Y-83744028D01*
X70616398Y-83744028D01*
X71158023Y-84285654D01*
X71158023Y-84324090D01*
X71197067Y-84520379D01*
X71273655Y-84705279D01*
X71384844Y-84871685D01*
X71526361Y-85013202D01*
X71692767Y-85124391D01*
X71877667Y-85200979D01*
X72073956Y-85240023D01*
X72274090Y-85240023D01*
X72470379Y-85200979D01*
X72655279Y-85124391D01*
X72821685Y-85013202D01*
X72825900Y-85008987D01*
X72825901Y-95175158D01*
X72798721Y-95202338D01*
X72687532Y-95368744D01*
X72610944Y-95553644D01*
X72571900Y-95749933D01*
X72571900Y-95950067D01*
X72610944Y-96146356D01*
X72687532Y-96331256D01*
X72798721Y-96497662D01*
X72825900Y-96524841D01*
X72825901Y-109573047D01*
X72822214Y-109610480D01*
X72836927Y-109759858D01*
X72880499Y-109903495D01*
X72951255Y-110035872D01*
X73022621Y-110122831D01*
X73046479Y-110151902D01*
X73075549Y-110175759D01*
X74102141Y-111202352D01*
X74125998Y-111231422D01*
X74155068Y-111255279D01*
X74242027Y-111326645D01*
X74262639Y-111337662D01*
X74374405Y-111397402D01*
X74518042Y-111440974D01*
X74629994Y-111452000D01*
X74629997Y-111452000D01*
X74667420Y-111455686D01*
X74668715Y-111455558D01*
X74692336Y-111479179D01*
X74858742Y-111590368D01*
X75043642Y-111666956D01*
X75239931Y-111706000D01*
X75440065Y-111706000D01*
X75636354Y-111666956D01*
X75821254Y-111590368D01*
X75987660Y-111479179D01*
X76129177Y-111337662D01*
X76240366Y-111171256D01*
X76316954Y-110986356D01*
X76355998Y-110790067D01*
X76355998Y-110589933D01*
X76316954Y-110393644D01*
X76240366Y-110208744D01*
X76129177Y-110042338D01*
X75987660Y-109900821D01*
X75821254Y-109789632D01*
X75776525Y-109771105D01*
X76002346Y-109545284D01*
X76031422Y-109521422D01*
X76126645Y-109405392D01*
X76197402Y-109273015D01*
X76240974Y-109129378D01*
X76252000Y-109017426D01*
X76252000Y-109017424D01*
X76255686Y-108980001D01*
X76252000Y-108942578D01*
X76252000Y-96209933D01*
X85594000Y-96209933D01*
X85594000Y-96410067D01*
X85633044Y-96606356D01*
X85709632Y-96791256D01*
X85820821Y-96957662D01*
X85962338Y-97099179D01*
X86128744Y-97210368D01*
X86313644Y-97286956D01*
X86509933Y-97326000D01*
X86548370Y-97326000D01*
X88274721Y-99052352D01*
X88298578Y-99081422D01*
X88414608Y-99176645D01*
X88546985Y-99247402D01*
X88690622Y-99290974D01*
X88802574Y-99302000D01*
X88802576Y-99302000D01*
X88839999Y-99305686D01*
X88877422Y-99302000D01*
X89785159Y-99302000D01*
X89812338Y-99329179D01*
X89978744Y-99440368D01*
X90163644Y-99516956D01*
X90359933Y-99556000D01*
X90560067Y-99556000D01*
X90756356Y-99516956D01*
X90941256Y-99440368D01*
X91107662Y-99329179D01*
X91249179Y-99187662D01*
X91360368Y-99021256D01*
X91436956Y-98836356D01*
X91476000Y-98640067D01*
X91476000Y-98439933D01*
X91436956Y-98243644D01*
X91360368Y-98058744D01*
X91249179Y-97892338D01*
X91107662Y-97750821D01*
X90941256Y-97639632D01*
X90756356Y-97563044D01*
X90560067Y-97524000D01*
X90359933Y-97524000D01*
X90163644Y-97563044D01*
X89978744Y-97639632D01*
X89812338Y-97750821D01*
X89785159Y-97778000D01*
X89155631Y-97778000D01*
X87626000Y-96248370D01*
X87626000Y-96209933D01*
X87586956Y-96013644D01*
X87510368Y-95828744D01*
X87399179Y-95662338D01*
X87257662Y-95520821D01*
X87091256Y-95409632D01*
X86906356Y-95333044D01*
X86710067Y-95294000D01*
X86509933Y-95294000D01*
X86313644Y-95333044D01*
X86128744Y-95409632D01*
X85962338Y-95520821D01*
X85820821Y-95662338D01*
X85709632Y-95828744D01*
X85633044Y-96013644D01*
X85594000Y-96209933D01*
X76252000Y-96209933D01*
X76252000Y-94094841D01*
X76279179Y-94067662D01*
X76390368Y-93901256D01*
X76466956Y-93716356D01*
X76506000Y-93520067D01*
X76506000Y-93319933D01*
X76466956Y-93123644D01*
X76390368Y-92938744D01*
X76279179Y-92772338D01*
X76252000Y-92745159D01*
X76252000Y-90595630D01*
X77682352Y-89165279D01*
X77711422Y-89141422D01*
X77760310Y-89081852D01*
X77806645Y-89025393D01*
X77861214Y-88923300D01*
X77877402Y-88893015D01*
X77920974Y-88749378D01*
X77932000Y-88637426D01*
X77932000Y-88637423D01*
X77935686Y-88600000D01*
X77932000Y-88562577D01*
X77932000Y-77349200D01*
X99881570Y-77349200D01*
X103384000Y-80851631D01*
X103384000Y-80890067D01*
X103423044Y-81086356D01*
X103499632Y-81271256D01*
X103610821Y-81437662D01*
X103752338Y-81579179D01*
X103918744Y-81690368D01*
X104103644Y-81766956D01*
X104299933Y-81806000D01*
X104500067Y-81806000D01*
X104696356Y-81766956D01*
X104881256Y-81690368D01*
X105047662Y-81579179D01*
X105189179Y-81437662D01*
X105300368Y-81271256D01*
X105376956Y-81086356D01*
X105416000Y-80890067D01*
X105416000Y-80689933D01*
X105376956Y-80493644D01*
X105322706Y-80362672D01*
X105447662Y-80279179D01*
X105589179Y-80137662D01*
X105700368Y-79971256D01*
X105776956Y-79786356D01*
X105816000Y-79590067D01*
X105816000Y-79389933D01*
X105776956Y-79193644D01*
X105700368Y-79008744D01*
X105589179Y-78842338D01*
X105447662Y-78700821D01*
X105281256Y-78589632D01*
X105096356Y-78513044D01*
X104900067Y-78474000D01*
X104861631Y-78474000D01*
X101686584Y-75298954D01*
X101662722Y-75269878D01*
X101546692Y-75174655D01*
X101414315Y-75103898D01*
X101270678Y-75060326D01*
X101158726Y-75049300D01*
X101158723Y-75049300D01*
X101121300Y-75045614D01*
X101083877Y-75049300D01*
X74262741Y-75049300D01*
X74235562Y-75022121D01*
X74069156Y-74910932D01*
X73884256Y-74834344D01*
X73687967Y-74795300D01*
X73487833Y-74795300D01*
X73291544Y-74834344D01*
X73106644Y-74910932D01*
X72940238Y-75022121D01*
X72798721Y-75163638D01*
X72687532Y-75330044D01*
X72610944Y-75514944D01*
X72571900Y-75711233D01*
X72571900Y-75911367D01*
X72610944Y-76107656D01*
X72687532Y-76292556D01*
X72798721Y-76458962D01*
X72825900Y-76486141D01*
X72825900Y-83439059D01*
X72821685Y-83434844D01*
X72655279Y-83323655D01*
X72470379Y-83247067D01*
X72274090Y-83208023D01*
X72235654Y-83208023D01*
X71497312Y-82469682D01*
X71473450Y-82440606D01*
X71357420Y-82345383D01*
X71225043Y-82274626D01*
X71081406Y-82231054D01*
X70969454Y-82220028D01*
X70969451Y-82220028D01*
X70932028Y-82216342D01*
X70894605Y-82220028D01*
X70375362Y-82220028D01*
X70348183Y-82192849D01*
X70181777Y-82081660D01*
X69996877Y-82005072D01*
X69800588Y-81966028D01*
X69600454Y-81966028D01*
X69404165Y-82005072D01*
X69219265Y-82081660D01*
X69052859Y-82192849D01*
X68911342Y-82334366D01*
X68800153Y-82500772D01*
X68723565Y-82685672D01*
X68684521Y-82881961D01*
X51447700Y-82881961D01*
X51447700Y-72607424D01*
X64167000Y-72607424D01*
X64167000Y-72832576D01*
X64210925Y-73053401D01*
X64297087Y-73261413D01*
X64422174Y-73448620D01*
X64581380Y-73607826D01*
X64768587Y-73732913D01*
X64976599Y-73819075D01*
X65197424Y-73863000D01*
X65422576Y-73863000D01*
X65643401Y-73819075D01*
X65851413Y-73732913D01*
X66038620Y-73607826D01*
X66197826Y-73448620D01*
X66322913Y-73261413D01*
X66409075Y-73053401D01*
X66452588Y-72834647D01*
X67228236Y-72059000D01*
X69583159Y-72059000D01*
X69529821Y-72112338D01*
X69418632Y-72278744D01*
X69342044Y-72463644D01*
X69303000Y-72659933D01*
X69303000Y-72860067D01*
X69342044Y-73056356D01*
X69418632Y-73241256D01*
X69529821Y-73407662D01*
X69671338Y-73549179D01*
X69837744Y-73660368D01*
X70022644Y-73736956D01*
X70218933Y-73776000D01*
X70257370Y-73776000D01*
X70782673Y-74301303D01*
X70806530Y-74330374D01*
X70835600Y-74354231D01*
X70922559Y-74425597D01*
X70982063Y-74457402D01*
X71054937Y-74496354D01*
X71198574Y-74539926D01*
X71292318Y-74549159D01*
X71321290Y-74578131D01*
X71487696Y-74689320D01*
X71672596Y-74765908D01*
X71868885Y-74804952D01*
X72069019Y-74804952D01*
X72265308Y-74765908D01*
X72450208Y-74689320D01*
X72616614Y-74578131D01*
X72758131Y-74436614D01*
X72869320Y-74270208D01*
X72945908Y-74085308D01*
X72984952Y-73889019D01*
X72984952Y-73688885D01*
X72945908Y-73492596D01*
X72869320Y-73307696D01*
X72758131Y-73141290D01*
X72616614Y-72999773D01*
X72450208Y-72888584D01*
X72265308Y-72811996D01*
X72069019Y-72772952D01*
X71868885Y-72772952D01*
X71672596Y-72811996D01*
X71514226Y-72877595D01*
X71335000Y-72698370D01*
X71335000Y-72659933D01*
X71295956Y-72463644D01*
X71219368Y-72278744D01*
X71108179Y-72112338D01*
X71054841Y-72059000D01*
X72867525Y-72059000D01*
X72911185Y-72063300D01*
X72954845Y-72059000D01*
X72954852Y-72059000D01*
X73085459Y-72046136D01*
X73253036Y-71995303D01*
X73407476Y-71912753D01*
X73542844Y-71801659D01*
X73570684Y-71767736D01*
X75698175Y-69640245D01*
X75727919Y-69684760D01*
X75869436Y-69826277D01*
X76035842Y-69937466D01*
X76070700Y-69951905D01*
X76070701Y-72371358D01*
X76043521Y-72398538D01*
X75932332Y-72564944D01*
X75855744Y-72749844D01*
X75816700Y-72946133D01*
X75816700Y-73146267D01*
X75855744Y-73342556D01*
X75932332Y-73527456D01*
X76043521Y-73693862D01*
X76185038Y-73835379D01*
X76351444Y-73946568D01*
X76536344Y-74023156D01*
X76732633Y-74062200D01*
X76932767Y-74062200D01*
X77129056Y-74023156D01*
X77313956Y-73946568D01*
X77480362Y-73835379D01*
X77621879Y-73693862D01*
X77733068Y-73527456D01*
X77809656Y-73342556D01*
X77848700Y-73146267D01*
X77848700Y-72946133D01*
X77809656Y-72749844D01*
X77733068Y-72564944D01*
X77621879Y-72398538D01*
X77594700Y-72371359D01*
X77594700Y-69380123D01*
X77598386Y-69342700D01*
X77594700Y-69305274D01*
X77583674Y-69193322D01*
X77540102Y-69049685D01*
X77533098Y-69036581D01*
X77533098Y-68937031D01*
X77494054Y-68740742D01*
X77417466Y-68555842D01*
X77306277Y-68389436D01*
X77164760Y-68247919D01*
X77120245Y-68218175D01*
X77643186Y-67695235D01*
X77676599Y-67709075D01*
X77897424Y-67753000D01*
X78122576Y-67753000D01*
X78343401Y-67709075D01*
X78551413Y-67622913D01*
X78738620Y-67497826D01*
X78897826Y-67338620D01*
X79022913Y-67151413D01*
X79109075Y-66943401D01*
X79153000Y-66722576D01*
X79153000Y-66497424D01*
X79109075Y-66276599D01*
X79022913Y-66068587D01*
X78897826Y-65881380D01*
X78738620Y-65722174D01*
X78551413Y-65597087D01*
X78343401Y-65510925D01*
X78122576Y-65467000D01*
X77897424Y-65467000D01*
X77676599Y-65510925D01*
X77468587Y-65597087D01*
X77281380Y-65722174D01*
X77257838Y-65745716D01*
X77223943Y-65755998D01*
X77129334Y-65784697D01*
X76974894Y-65867247D01*
X76839526Y-65978341D01*
X76811691Y-66012258D01*
X72542950Y-70281000D01*
X66903659Y-70281000D01*
X66859999Y-70276700D01*
X66816339Y-70281000D01*
X66816333Y-70281000D01*
X66704073Y-70292057D01*
X66685725Y-70293864D01*
X66623967Y-70312598D01*
X66518149Y-70344697D01*
X66363709Y-70427247D01*
X66228341Y-70538341D01*
X66200506Y-70572258D01*
X65195353Y-71577412D01*
X64976599Y-71620925D01*
X64768587Y-71707087D01*
X64581380Y-71832174D01*
X64422174Y-71991380D01*
X64297087Y-72178587D01*
X64210925Y-72386599D01*
X64167000Y-72607424D01*
X51447700Y-72607424D01*
X51447700Y-61979933D01*
X90214000Y-61979933D01*
X90214000Y-62180067D01*
X90253044Y-62376356D01*
X90329632Y-62561256D01*
X90440821Y-62727662D01*
X90468000Y-62754841D01*
X90468001Y-63422567D01*
X90464314Y-63460000D01*
X90479027Y-63609378D01*
X90522599Y-63753015D01*
X90593355Y-63885392D01*
X90635673Y-63936956D01*
X90688579Y-64001422D01*
X90717649Y-64025279D01*
X102914721Y-76222352D01*
X102938578Y-76251422D01*
X103054608Y-76346645D01*
X103186985Y-76417402D01*
X103330622Y-76460974D01*
X103442574Y-76472000D01*
X103442576Y-76472000D01*
X103479999Y-76475686D01*
X103517422Y-76472000D01*
X104215159Y-76472000D01*
X104242338Y-76499179D01*
X104408744Y-76610368D01*
X104593644Y-76686956D01*
X104789933Y-76726000D01*
X104990067Y-76726000D01*
X105186356Y-76686956D01*
X105371256Y-76610368D01*
X105537662Y-76499179D01*
X105679179Y-76357662D01*
X105790368Y-76191256D01*
X105866956Y-76006356D01*
X105906000Y-75810067D01*
X105906000Y-75609933D01*
X105866956Y-75413644D01*
X105790368Y-75228744D01*
X105679179Y-75062338D01*
X105537662Y-74920821D01*
X105371256Y-74809632D01*
X105186356Y-74733044D01*
X104990067Y-74694000D01*
X104789933Y-74694000D01*
X104593644Y-74733044D01*
X104408744Y-74809632D01*
X104242338Y-74920821D01*
X104215159Y-74948000D01*
X103795631Y-74948000D01*
X102819767Y-73972136D01*
X102946356Y-73946956D01*
X103131256Y-73870368D01*
X103297662Y-73759179D01*
X103439179Y-73617662D01*
X103550368Y-73451256D01*
X103626956Y-73266356D01*
X103666000Y-73070067D01*
X103666000Y-72869933D01*
X103626956Y-72673644D01*
X103550368Y-72488744D01*
X103462000Y-72356492D01*
X103462000Y-68777996D01*
X104133276Y-68106720D01*
X104238722Y-68085746D01*
X104423622Y-68009158D01*
X104590028Y-67897969D01*
X104731545Y-67756452D01*
X104842734Y-67590046D01*
X104919322Y-67405146D01*
X104958366Y-67208857D01*
X104958366Y-67008723D01*
X104919322Y-66812434D01*
X104842734Y-66627534D01*
X104731545Y-66461128D01*
X104590028Y-66319611D01*
X104423622Y-66208422D01*
X104238722Y-66131834D01*
X104042433Y-66092790D01*
X103842299Y-66092790D01*
X103646010Y-66131834D01*
X103461110Y-66208422D01*
X103294704Y-66319611D01*
X103153187Y-66461128D01*
X103041998Y-66627534D01*
X102965410Y-66812434D01*
X102926366Y-67008723D01*
X102926366Y-67158369D01*
X102187654Y-67897082D01*
X102158578Y-67920944D01*
X102122986Y-67964314D01*
X102063355Y-68036974D01*
X102047330Y-68066956D01*
X101992598Y-68169352D01*
X101949026Y-68312989D01*
X101943665Y-68367426D01*
X101934314Y-68462366D01*
X101938000Y-68499789D01*
X101938001Y-72245158D01*
X101860821Y-72322338D01*
X101749632Y-72488744D01*
X101673044Y-72673644D01*
X101647864Y-72800233D01*
X91992000Y-63144370D01*
X91992000Y-62754841D01*
X92019179Y-62727662D01*
X92130368Y-62561256D01*
X92206956Y-62376356D01*
X92246000Y-62180067D01*
X92246000Y-61979933D01*
X92206956Y-61783644D01*
X92130368Y-61598744D01*
X92019179Y-61432338D01*
X91877662Y-61290821D01*
X91711256Y-61179632D01*
X91526356Y-61103044D01*
X91330067Y-61064000D01*
X91129933Y-61064000D01*
X90933644Y-61103044D01*
X90748744Y-61179632D01*
X90582338Y-61290821D01*
X90440821Y-61432338D01*
X90329632Y-61598744D01*
X90253044Y-61783644D01*
X90214000Y-61979933D01*
X51447700Y-61979933D01*
X51447700Y-59934074D01*
X51709536Y-60325939D01*
X52174061Y-60790464D01*
X52720285Y-61155439D01*
X53327216Y-61406838D01*
X53971531Y-61535000D01*
X54628469Y-61535000D01*
X55272784Y-61406838D01*
X55879715Y-61155439D01*
X56425939Y-60790464D01*
X56890464Y-60325939D01*
X57255439Y-59779715D01*
X57506838Y-59172784D01*
X57635000Y-58528469D01*
X57635000Y-57871531D01*
X57506838Y-57227216D01*
X57255439Y-56620285D01*
X56890464Y-56074061D01*
X56425939Y-55609536D01*
X56034074Y-55347700D01*
X101565926Y-55347700D01*
X101174061Y-55609536D01*
X101174061Y-55609536D01*
G37*
X101174061Y-55609536D02*
X100709536Y-56074061D01*
X100344561Y-56620285D01*
X100093162Y-57227216D01*
X99965000Y-57871531D01*
X99965000Y-58528469D01*
X100093162Y-59172784D01*
X100344561Y-59779715D01*
X100709536Y-60325939D01*
X101174061Y-60790464D01*
X101720285Y-61155439D01*
X102327216Y-61406838D01*
X102971531Y-61535000D01*
X103628469Y-61535000D01*
X104272784Y-61406838D01*
X104879715Y-61155439D01*
X105425939Y-60790464D01*
X105890464Y-60325939D01*
X106255439Y-59779715D01*
X106506838Y-59172784D01*
X106635000Y-58528469D01*
X106635000Y-57871531D01*
X106506838Y-57227216D01*
X106255439Y-56620285D01*
X105890464Y-56074061D01*
X105425939Y-55609536D01*
X105034074Y-55347700D01*
X187768319Y-55347700D01*
X188256294Y-55395547D01*
X188695211Y-55528063D01*
X189100026Y-55743308D01*
X189455321Y-56033079D01*
X189747570Y-56386346D01*
X189965634Y-56789650D01*
X190101212Y-57227626D01*
X190152301Y-57713706D01*
X190152300Y-136668319D01*
X190104453Y-137156296D01*
X189971937Y-137595212D01*
X189756695Y-138000023D01*
X189466919Y-138355323D01*
X189113654Y-138647570D01*
X188710350Y-138865635D01*
X188272370Y-139001213D01*
X187786303Y-139052300D01*
X53831681Y-139052300D01*
X53343704Y-139004453D01*
X52904788Y-138871937D01*
X52499977Y-138656695D01*
X52144677Y-138366919D01*
X51852430Y-138013654D01*
X51634365Y-137610350D01*
X51498787Y-137172370D01*
X51447700Y-136686303D01*
X51447700Y-133688212D01*
X96915000Y-133688212D01*
X96915000Y-133911788D01*
X96958617Y-134131067D01*
X97044176Y-134337624D01*
X97168388Y-134523520D01*
X97326480Y-134681612D01*
X97512376Y-134805824D01*
X97718933Y-134891383D01*
X97938212Y-134935000D01*
X98161788Y-134935000D01*
X98381067Y-134891383D01*
X98587624Y-134805824D01*
X98773520Y-134681612D01*
X98931612Y-134523520D01*
X99055824Y-134337624D01*
X99141383Y-134131067D01*
X99185000Y-133911788D01*
X99185000Y-133688212D01*
X101315000Y-133688212D01*
X101315000Y-133911788D01*
X101358617Y-134131067D01*
X101444176Y-134337624D01*
X101568388Y-134523520D01*
X101726480Y-134681612D01*
X101912376Y-134805824D01*
X102118933Y-134891383D01*
X102338212Y-134935000D01*
X102561788Y-134935000D01*
X102781067Y-134891383D01*
X102987624Y-134805824D01*
X103173520Y-134681612D01*
X103296467Y-134558665D01*
X115315000Y-134558665D01*
X115315000Y-134841335D01*
X115370147Y-135118574D01*
X115478320Y-135379727D01*
X115635363Y-135614759D01*
X115835241Y-135814637D01*
X116070273Y-135971680D01*
X116331426Y-136079853D01*
X116608665Y-136135000D01*
X116891335Y-136135000D01*
X117168574Y-136079853D01*
X117429727Y-135971680D01*
X117664759Y-135814637D01*
X117864637Y-135614759D01*
X118021680Y-135379727D01*
X118129853Y-135118574D01*
X118185000Y-134841335D01*
X118185000Y-134558665D01*
X118129853Y-134281426D01*
X118021680Y-134020273D01*
X117864637Y-133785241D01*
X117664759Y-133585363D01*
X117429727Y-133428320D01*
X117168574Y-133320147D01*
X116891335Y-133265000D01*
X116608665Y-133265000D01*
X116331426Y-133320147D01*
X116070273Y-133428320D01*
X115835241Y-133585363D01*
X115635363Y-133785241D01*
X115478320Y-134020273D01*
X115370147Y-134281426D01*
X115315000Y-134558665D01*
X103296467Y-134558665D01*
X103331612Y-134523520D01*
X103455824Y-134337624D01*
X103541383Y-134131067D01*
X103585000Y-133911788D01*
X103585000Y-133688212D01*
X103541383Y-133468933D01*
X103455824Y-133262376D01*
X103331612Y-133076480D01*
X103173520Y-132918388D01*
X102987624Y-132794176D01*
X102781067Y-132708617D01*
X102561788Y-132665000D01*
X102338212Y-132665000D01*
X102118933Y-132708617D01*
X101912376Y-132794176D01*
X101726480Y-132918388D01*
X101568388Y-133076480D01*
X101444176Y-133262376D01*
X101358617Y-133468933D01*
X101315000Y-133688212D01*
X99185000Y-133688212D01*
X99141383Y-133468933D01*
X99055824Y-133262376D01*
X98931612Y-133076480D01*
X98773520Y-132918388D01*
X98587624Y-132794176D01*
X98381067Y-132708617D01*
X98161788Y-132665000D01*
X97938212Y-132665000D01*
X97718933Y-132708617D01*
X97512376Y-132794176D01*
X97326480Y-132918388D01*
X97168388Y-133076480D01*
X97044176Y-133262376D01*
X96958617Y-133468933D01*
X96915000Y-133688212D01*
X51447700Y-133688212D01*
X51447700Y-128810000D01*
X73507573Y-128810000D01*
X73537210Y-129110913D01*
X73624983Y-129400261D01*
X73767519Y-129666927D01*
X73959339Y-129900661D01*
X74193073Y-130092481D01*
X74459739Y-130235017D01*
X74749087Y-130322790D01*
X74974592Y-130345000D01*
X87325408Y-130345000D01*
X87550913Y-130322790D01*
X87840261Y-130235017D01*
X88106927Y-130092481D01*
X88148132Y-130058665D01*
X115315000Y-130058665D01*
X115315000Y-130341335D01*
X115370147Y-130618574D01*
X115478320Y-130879727D01*
X115635363Y-131114759D01*
X115835241Y-131314637D01*
X116070273Y-131471680D01*
X116331426Y-131579853D01*
X116608665Y-131635000D01*
X116891335Y-131635000D01*
X117168574Y-131579853D01*
X117429727Y-131471680D01*
X117664759Y-131314637D01*
X117864637Y-131114759D01*
X118021680Y-130879727D01*
X118129853Y-130618574D01*
X118185000Y-130341335D01*
X118185000Y-130058665D01*
X118129853Y-129781426D01*
X118021680Y-129520273D01*
X117864637Y-129285241D01*
X117664759Y-129085363D01*
X117429727Y-128928320D01*
X117168574Y-128820147D01*
X116891335Y-128765000D01*
X116608665Y-128765000D01*
X116331426Y-128820147D01*
X116070273Y-128928320D01*
X115835241Y-129085363D01*
X115635363Y-129285241D01*
X115478320Y-129520273D01*
X115370147Y-129781426D01*
X115315000Y-130058665D01*
X88148132Y-130058665D01*
X88340661Y-129900661D01*
X88532481Y-129666927D01*
X88675017Y-129400261D01*
X88762790Y-129110913D01*
X88792427Y-128810000D01*
X88762790Y-128509087D01*
X88675017Y-128219739D01*
X88532481Y-127953073D01*
X88502056Y-127916000D01*
X88510067Y-127916000D01*
X88706356Y-127876956D01*
X88891256Y-127800368D01*
X89057662Y-127689179D01*
X89199179Y-127547662D01*
X89310368Y-127381256D01*
X89386956Y-127196356D01*
X89426000Y-127000067D01*
X89426000Y-126961630D01*
X91363211Y-125024420D01*
X91363211Y-126199158D01*
X90118370Y-127444000D01*
X90079933Y-127444000D01*
X89883644Y-127483044D01*
X89698744Y-127559632D01*
X89532338Y-127670821D01*
X89390821Y-127812338D01*
X89279632Y-127978744D01*
X89203044Y-128163644D01*
X89164000Y-128359933D01*
X89164000Y-128560067D01*
X89203044Y-128756356D01*
X89279632Y-128941256D01*
X89390821Y-129107662D01*
X89532338Y-129249179D01*
X89698744Y-129360368D01*
X89883644Y-129436956D01*
X90079933Y-129476000D01*
X90280067Y-129476000D01*
X90476356Y-129436956D01*
X90661256Y-129360368D01*
X90827662Y-129249179D01*
X90969179Y-129107662D01*
X91080368Y-128941256D01*
X91156956Y-128756356D01*
X91196000Y-128560067D01*
X91196000Y-128521630D01*
X92637564Y-127080067D01*
X92666633Y-127056211D01*
X92729123Y-126980067D01*
X92761856Y-126940182D01*
X92832612Y-126807805D01*
X92832613Y-126807804D01*
X92876185Y-126664167D01*
X92887211Y-126552215D01*
X92887211Y-126552212D01*
X92890897Y-126514789D01*
X92887211Y-126477366D01*
X92887211Y-121806214D01*
X109907000Y-121806214D01*
X109907000Y-122031366D01*
X109950925Y-122252191D01*
X110037087Y-122460203D01*
X110162174Y-122647410D01*
X110321380Y-122806616D01*
X110508587Y-122931703D01*
X110716599Y-123017865D01*
X110937424Y-123061790D01*
X111162576Y-123061790D01*
X111383401Y-123017865D01*
X111591413Y-122931703D01*
X111778620Y-122806616D01*
X111937826Y-122647410D01*
X112062913Y-122460203D01*
X112149075Y-122252191D01*
X112192588Y-122033438D01*
X112517026Y-121709000D01*
X115573865Y-121709000D01*
X115579512Y-121714647D01*
X115623025Y-121933401D01*
X115709187Y-122141413D01*
X115834274Y-122328620D01*
X115993480Y-122487826D01*
X116180687Y-122612913D01*
X116388699Y-122699075D01*
X116609524Y-122743000D01*
X116834676Y-122743000D01*
X117055501Y-122699075D01*
X117263513Y-122612913D01*
X117450720Y-122487826D01*
X117609926Y-122328620D01*
X117735013Y-122141413D01*
X117821175Y-121933401D01*
X117865100Y-121712576D01*
X117865100Y-121487424D01*
X117821175Y-121266599D01*
X117735013Y-121058587D01*
X117657603Y-120942734D01*
X117789121Y-121074252D01*
X117812978Y-121103322D01*
X117842048Y-121127179D01*
X117929007Y-121198545D01*
X117999764Y-121236365D01*
X118061385Y-121269302D01*
X118205022Y-121312874D01*
X118316974Y-121323900D01*
X118316977Y-121323900D01*
X118354400Y-121327586D01*
X118391823Y-121323900D01*
X123676459Y-121323900D01*
X123703638Y-121351079D01*
X123870044Y-121462268D01*
X124054944Y-121538856D01*
X124251233Y-121577900D01*
X124451367Y-121577900D01*
X124647656Y-121538856D01*
X124832556Y-121462268D01*
X124998962Y-121351079D01*
X125140479Y-121209562D01*
X125251668Y-121043156D01*
X125328256Y-120858256D01*
X125367300Y-120661967D01*
X125367300Y-120461833D01*
X125328256Y-120265544D01*
X125251668Y-120080644D01*
X125140479Y-119914238D01*
X124998962Y-119772721D01*
X124832556Y-119661532D01*
X124647656Y-119584944D01*
X124451367Y-119545900D01*
X124251233Y-119545900D01*
X124054944Y-119584944D01*
X123870044Y-119661532D01*
X123703638Y-119772721D01*
X123676459Y-119799900D01*
X118670031Y-119799900D01*
X116740100Y-117869970D01*
X116740100Y-117831533D01*
X116701056Y-117635244D01*
X116624468Y-117450344D01*
X116513279Y-117283938D01*
X116371762Y-117142421D01*
X116205356Y-117031232D01*
X116020456Y-116954644D01*
X115824167Y-116915600D01*
X115624033Y-116915600D01*
X115427744Y-116954644D01*
X115242844Y-117031232D01*
X115076438Y-117142421D01*
X114934921Y-117283938D01*
X114823732Y-117450344D01*
X114747144Y-117635244D01*
X114708100Y-117831533D01*
X114708100Y-118031667D01*
X114747144Y-118227956D01*
X114823732Y-118412856D01*
X114934921Y-118579262D01*
X115076438Y-118720779D01*
X115242844Y-118831968D01*
X115427744Y-118908556D01*
X115624033Y-118947600D01*
X115662470Y-118947600D01*
X117379367Y-120664498D01*
X117263513Y-120587087D01*
X117055501Y-120500925D01*
X116836747Y-120457412D01*
X116601599Y-120222263D01*
X116573759Y-120188341D01*
X116438391Y-120077247D01*
X116283951Y-119994697D01*
X116116374Y-119943864D01*
X115985767Y-119931000D01*
X115985760Y-119931000D01*
X115942100Y-119926700D01*
X115898440Y-119931000D01*
X112192450Y-119931000D01*
X112148790Y-119926700D01*
X112105130Y-119931000D01*
X112105123Y-119931000D01*
X111991115Y-119942229D01*
X111974515Y-119943864D01*
X111923682Y-119959284D01*
X111806939Y-119994697D01*
X111652499Y-120077247D01*
X111517131Y-120188341D01*
X111489295Y-120222259D01*
X110935352Y-120776202D01*
X110716599Y-120819715D01*
X110508587Y-120905877D01*
X110321380Y-121030964D01*
X110162174Y-121190170D01*
X110037087Y-121377377D01*
X109950925Y-121585389D01*
X109907000Y-121806214D01*
X92887211Y-121806214D01*
X92887211Y-120660419D01*
X95044444Y-118503187D01*
X95075392Y-118486645D01*
X95191422Y-118391422D01*
X95286645Y-118275392D01*
X95291705Y-118265925D01*
X97686099Y-115871531D01*
X99965000Y-115871531D01*
X99965000Y-116528469D01*
X100093162Y-117172784D01*
X100344561Y-117779715D01*
X100709536Y-118325939D01*
X101174061Y-118790464D01*
X101720285Y-119155439D01*
X102327216Y-119406838D01*
X102971531Y-119535000D01*
X103628469Y-119535000D01*
X104272784Y-119406838D01*
X104879715Y-119155439D01*
X105425939Y-118790464D01*
X105890464Y-118325939D01*
X106255439Y-117779715D01*
X106506838Y-117172784D01*
X106635000Y-116528469D01*
X106635000Y-115871531D01*
X106561085Y-115499933D01*
X120084000Y-115499933D01*
X120084000Y-115700067D01*
X120123044Y-115896356D01*
X120199632Y-116081256D01*
X120310821Y-116247662D01*
X120452338Y-116389179D01*
X120618744Y-116500368D01*
X120803644Y-116576956D01*
X120999933Y-116616000D01*
X121200067Y-116616000D01*
X121396356Y-116576956D01*
X121581256Y-116500368D01*
X121747662Y-116389179D01*
X121889179Y-116247662D01*
X122000368Y-116081256D01*
X122076956Y-115896356D01*
X122081893Y-115871531D01*
X123965000Y-115871531D01*
X123965000Y-116528469D01*
X124093162Y-117172784D01*
X124344561Y-117779715D01*
X124709536Y-118325939D01*
X125174061Y-118790464D01*
X125720285Y-119155439D01*
X126327216Y-119406838D01*
X126971531Y-119535000D01*
X127628469Y-119535000D01*
X128272784Y-119406838D01*
X128879715Y-119155439D01*
X129425939Y-118790464D01*
X129890464Y-118325939D01*
X130255439Y-117779715D01*
X130506838Y-117172784D01*
X130635000Y-116528469D01*
X130635000Y-115871531D01*
X181965000Y-115871531D01*
X181965000Y-116528469D01*
X182093162Y-117172784D01*
X182344561Y-117779715D01*
X182709536Y-118325939D01*
X183174061Y-118790464D01*
X183720285Y-119155439D01*
X184327216Y-119406838D01*
X184971531Y-119535000D01*
X185628469Y-119535000D01*
X186272784Y-119406838D01*
X186879715Y-119155439D01*
X187425939Y-118790464D01*
X187890464Y-118325939D01*
X188255439Y-117779715D01*
X188506838Y-117172784D01*
X188635000Y-116528469D01*
X188635000Y-115871531D01*
X188506838Y-115227216D01*
X188255439Y-114620285D01*
X187890464Y-114074061D01*
X187425939Y-113609536D01*
X186879715Y-113244561D01*
X186272784Y-112993162D01*
X185628469Y-112865000D01*
X184971531Y-112865000D01*
X184327216Y-112993162D01*
X183720285Y-113244561D01*
X183174061Y-113609536D01*
X182709536Y-114074061D01*
X182344561Y-114620285D01*
X182093162Y-115227216D01*
X181965000Y-115871531D01*
X130635000Y-115871531D01*
X130506838Y-115227216D01*
X130255439Y-114620285D01*
X129890464Y-114074061D01*
X129425939Y-113609536D01*
X128879715Y-113244561D01*
X128272784Y-112993162D01*
X127628469Y-112865000D01*
X126971531Y-112865000D01*
X126327216Y-112993162D01*
X125720285Y-113244561D01*
X125174061Y-113609536D01*
X124709536Y-114074061D01*
X124344561Y-114620285D01*
X124093162Y-115227216D01*
X123965000Y-115871531D01*
X122081893Y-115871531D01*
X122116000Y-115700067D01*
X122116000Y-115499933D01*
X122076956Y-115303644D01*
X122011534Y-115145701D01*
X125999485Y-111157750D01*
X158680000Y-111157750D01*
X158680000Y-112579542D01*
X158704403Y-112702223D01*
X158752270Y-112817785D01*
X158821763Y-112921789D01*
X158910211Y-113010237D01*
X159014215Y-113079730D01*
X159129777Y-113127597D01*
X159252458Y-113152000D01*
X160234250Y-113152000D01*
X160393000Y-112993250D01*
X160393000Y-110999000D01*
X160647000Y-110999000D01*
X160647000Y-112993250D01*
X160805750Y-113152000D01*
X161787542Y-113152000D01*
X161910223Y-113127597D01*
X162025785Y-113079730D01*
X162129789Y-113010237D01*
X162218237Y-112921789D01*
X162287730Y-112817785D01*
X162335597Y-112702223D01*
X162360000Y-112579542D01*
X162360000Y-111157750D01*
X162201250Y-110999000D01*
X160647000Y-110999000D01*
X160393000Y-110999000D01*
X158838750Y-110999000D01*
X158680000Y-111157750D01*
X125999485Y-111157750D01*
X127992777Y-109164458D01*
X158680000Y-109164458D01*
X158680000Y-110586250D01*
X158838750Y-110745000D01*
X160393000Y-110745000D01*
X160393000Y-108750750D01*
X160647000Y-108750750D01*
X160647000Y-110745000D01*
X162201250Y-110745000D01*
X162360000Y-110586250D01*
X162360000Y-109164458D01*
X162335597Y-109041777D01*
X162287730Y-108926215D01*
X162218237Y-108822211D01*
X162129789Y-108733763D01*
X162025785Y-108664270D01*
X161910223Y-108616403D01*
X161787542Y-108592000D01*
X160805750Y-108592000D01*
X160647000Y-108750750D01*
X160393000Y-108750750D01*
X160234250Y-108592000D01*
X159252458Y-108592000D01*
X159129777Y-108616403D01*
X159014215Y-108664270D01*
X158910211Y-108733763D01*
X158821763Y-108822211D01*
X158752270Y-108926215D01*
X158704403Y-109041777D01*
X158680000Y-109164458D01*
X127992777Y-109164458D01*
X137154648Y-100002588D01*
X137373401Y-99959075D01*
X137581413Y-99872913D01*
X137768620Y-99747826D01*
X137927826Y-99588620D01*
X138052913Y-99401413D01*
X138139075Y-99193401D01*
X138183000Y-98972576D01*
X138183000Y-98747424D01*
X138139075Y-98526599D01*
X138052913Y-98318587D01*
X137927826Y-98131380D01*
X137768620Y-97972174D01*
X137581413Y-97847087D01*
X137373401Y-97760925D01*
X137152576Y-97717000D01*
X136927424Y-97717000D01*
X136706599Y-97760925D01*
X136498587Y-97847087D01*
X136311380Y-97972174D01*
X136152174Y-98131380D01*
X136027087Y-98318587D01*
X135940925Y-98526599D01*
X135897412Y-98745352D01*
X120502259Y-114140506D01*
X120468342Y-114168341D01*
X120440507Y-114202258D01*
X120440505Y-114202260D01*
X120357248Y-114303709D01*
X120274698Y-114458148D01*
X120223864Y-114625726D01*
X120216585Y-114699632D01*
X120211000Y-114756333D01*
X120211000Y-114756340D01*
X120206700Y-114800000D01*
X120211000Y-114843660D01*
X120211000Y-115101731D01*
X120199632Y-115118744D01*
X120123044Y-115303644D01*
X120084000Y-115499933D01*
X106561085Y-115499933D01*
X106506838Y-115227216D01*
X106255439Y-114620285D01*
X105890464Y-114074061D01*
X105425939Y-113609536D01*
X104879715Y-113244561D01*
X104272784Y-112993162D01*
X103628469Y-112865000D01*
X102971531Y-112865000D01*
X102327216Y-112993162D01*
X101720285Y-113244561D01*
X101174061Y-113609536D01*
X100709536Y-114074061D01*
X100344561Y-114620285D01*
X100093162Y-115227216D01*
X99965000Y-115871531D01*
X97686099Y-115871531D01*
X123483705Y-90073926D01*
X123483704Y-94666044D01*
X123479404Y-94709704D01*
X123483704Y-94753364D01*
X123483704Y-94753370D01*
X123494761Y-94865630D01*
X123496568Y-94883978D01*
X123509405Y-94926297D01*
X123547401Y-95051554D01*
X123629951Y-95205994D01*
X123741045Y-95341363D01*
X123774967Y-95369203D01*
X124468707Y-96062943D01*
X124496543Y-96096861D01*
X124631911Y-96207955D01*
X124786351Y-96290505D01*
X124881719Y-96319434D01*
X124953927Y-96341338D01*
X125128202Y-96358503D01*
X125171870Y-96354202D01*
X143000855Y-96354202D01*
X143148587Y-96452913D01*
X143356599Y-96539075D01*
X143577424Y-96583000D01*
X143802576Y-96583000D01*
X144023401Y-96539075D01*
X144231413Y-96452913D01*
X144418620Y-96327826D01*
X144577826Y-96168620D01*
X144702913Y-95981413D01*
X144789075Y-95773401D01*
X144833000Y-95552576D01*
X144833000Y-95327424D01*
X144789075Y-95106599D01*
X144702913Y-94898587D01*
X144577826Y-94711380D01*
X144418620Y-94552174D01*
X144231413Y-94427087D01*
X144023401Y-94340925D01*
X143854526Y-94307334D01*
X143928620Y-94257826D01*
X144087826Y-94098620D01*
X144212913Y-93911413D01*
X144299075Y-93703401D01*
X144340140Y-93496955D01*
X144422753Y-93396291D01*
X144505303Y-93241851D01*
X144529126Y-93163315D01*
X144556136Y-93074276D01*
X144562629Y-93008351D01*
X144569000Y-92943667D01*
X144569000Y-92943661D01*
X144573300Y-92900001D01*
X144569000Y-92856341D01*
X144569000Y-82603660D01*
X144573300Y-82560000D01*
X144569000Y-82516340D01*
X144569000Y-82516333D01*
X144556136Y-82385726D01*
X144505303Y-82218149D01*
X144422753Y-82063709D01*
X144311659Y-81928341D01*
X144277741Y-81900505D01*
X143410948Y-81033713D01*
X143406956Y-81013644D01*
X143330368Y-80828744D01*
X143219179Y-80662338D01*
X143077662Y-80520821D01*
X142911256Y-80409632D01*
X142726356Y-80333044D01*
X142530067Y-80294000D01*
X142329933Y-80294000D01*
X142133644Y-80333044D01*
X141948744Y-80409632D01*
X141782338Y-80520821D01*
X141640821Y-80662338D01*
X141529632Y-80828744D01*
X141453044Y-81013644D01*
X141414000Y-81209933D01*
X141414000Y-81410067D01*
X141453044Y-81606356D01*
X141529632Y-81791256D01*
X141640821Y-81957662D01*
X141782338Y-82099179D01*
X141948744Y-82210368D01*
X142133644Y-82286956D01*
X142153713Y-82290948D01*
X142791001Y-82928237D01*
X142791000Y-92302239D01*
X142658587Y-92357087D01*
X142471380Y-92482174D01*
X142312174Y-92641380D01*
X142187087Y-92828587D01*
X142100925Y-93036599D01*
X142057000Y-93257424D01*
X142057000Y-93482576D01*
X142100925Y-93703401D01*
X142187087Y-93911413D01*
X142312174Y-94098620D01*
X142471380Y-94257826D01*
X142658587Y-94382913D01*
X142866599Y-94469075D01*
X143035474Y-94502666D01*
X142961380Y-94552174D01*
X142937352Y-94576202D01*
X132613002Y-94576202D01*
X132613002Y-94544241D01*
X140264656Y-86892588D01*
X140483409Y-86849075D01*
X140691421Y-86762913D01*
X140878628Y-86637826D01*
X141037834Y-86478620D01*
X141162921Y-86291413D01*
X141249083Y-86083401D01*
X141293008Y-85862576D01*
X141293008Y-85637424D01*
X141249083Y-85416599D01*
X141162921Y-85208587D01*
X141037834Y-85021380D01*
X140878628Y-84862174D01*
X140691421Y-84737087D01*
X140483409Y-84650925D01*
X140262584Y-84607000D01*
X140037432Y-84607000D01*
X139816607Y-84650925D01*
X139608595Y-84737087D01*
X139421388Y-84862174D01*
X139262182Y-85021380D01*
X139137095Y-85208587D01*
X139050933Y-85416599D01*
X139007420Y-85635352D01*
X131267981Y-93374792D01*
X131136601Y-93400925D01*
X130928589Y-93487087D01*
X130741382Y-93612174D01*
X130582176Y-93771380D01*
X130457089Y-93958587D01*
X130370927Y-94166599D01*
X130327002Y-94387424D01*
X130327002Y-94576202D01*
X125496438Y-94576202D01*
X125261704Y-94341469D01*
X125261704Y-90019567D01*
X125385617Y-89834117D01*
X125471779Y-89626105D01*
X125515704Y-89405280D01*
X125515704Y-89180128D01*
X125471779Y-88959303D01*
X125423190Y-88842000D01*
X132472577Y-88842000D01*
X132510000Y-88845686D01*
X132547423Y-88842000D01*
X132547426Y-88842000D01*
X132659378Y-88830974D01*
X132803015Y-88787402D01*
X132935392Y-88716645D01*
X133051422Y-88621422D01*
X133075284Y-88592346D01*
X141497294Y-80170337D01*
X143849216Y-80170337D01*
X143886639Y-80174023D01*
X143924062Y-80170337D01*
X143924065Y-80170337D01*
X144036017Y-80159311D01*
X144179654Y-80115739D01*
X144312031Y-80044982D01*
X144314034Y-80043338D01*
X144367705Y-80043338D01*
X144563994Y-80004294D01*
X144748894Y-79927706D01*
X144915300Y-79816517D01*
X145056817Y-79675000D01*
X145058072Y-79673122D01*
X145656801Y-80271852D01*
X145656800Y-85123277D01*
X145653114Y-85160700D01*
X145656800Y-85198123D01*
X145656800Y-85198125D01*
X145667826Y-85310077D01*
X145711398Y-85453714D01*
X145744335Y-85515335D01*
X145782155Y-85586092D01*
X145821783Y-85634378D01*
X145877378Y-85702122D01*
X145906454Y-85725984D01*
X146148001Y-85967530D01*
X146148000Y-94552577D01*
X146144314Y-94590000D01*
X146148000Y-94627423D01*
X146148000Y-94627425D01*
X146159026Y-94739377D01*
X146202598Y-94883014D01*
X146210922Y-94898587D01*
X146273355Y-95015392D01*
X146303034Y-95051556D01*
X146368578Y-95131422D01*
X146397654Y-95155284D01*
X147169100Y-95926731D01*
X147169100Y-95955067D01*
X147208144Y-96151356D01*
X147284732Y-96336256D01*
X147395921Y-96502662D01*
X147537438Y-96644179D01*
X147703844Y-96755368D01*
X147888744Y-96831956D01*
X148085033Y-96871000D01*
X148285167Y-96871000D01*
X148481456Y-96831956D01*
X148666356Y-96755368D01*
X148832762Y-96644179D01*
X148974279Y-96502662D01*
X149085468Y-96336256D01*
X149162056Y-96151356D01*
X149201100Y-95955067D01*
X149201100Y-95754933D01*
X149162056Y-95558644D01*
X149085468Y-95373744D01*
X149049525Y-95319952D01*
X149079933Y-95326000D01*
X149280067Y-95326000D01*
X149476356Y-95286956D01*
X149661256Y-95210368D01*
X149827662Y-95099179D01*
X149969179Y-94957662D01*
X150080368Y-94791256D01*
X150121895Y-94691001D01*
X151083371Y-94691001D01*
X153864721Y-97472352D01*
X153888578Y-97501422D01*
X153917648Y-97525279D01*
X154004607Y-97596645D01*
X154075364Y-97634465D01*
X154136985Y-97667402D01*
X154280622Y-97710974D01*
X154392574Y-97722000D01*
X154392577Y-97722000D01*
X154430000Y-97725686D01*
X154467423Y-97722000D01*
X156042577Y-97722000D01*
X156080000Y-97725686D01*
X156117423Y-97722000D01*
X156117426Y-97722000D01*
X156229378Y-97710974D01*
X156373015Y-97667402D01*
X156505392Y-97596645D01*
X156598663Y-97520100D01*
X156635967Y-97520100D01*
X156832256Y-97481056D01*
X157017156Y-97404468D01*
X157183562Y-97293279D01*
X157325079Y-97151762D01*
X157436268Y-96985356D01*
X157512856Y-96800456D01*
X157551900Y-96604167D01*
X157551900Y-96404033D01*
X157512856Y-96207744D01*
X157436268Y-96022844D01*
X157325079Y-95856438D01*
X157183562Y-95714921D01*
X157017156Y-95603732D01*
X156832256Y-95527144D01*
X156682000Y-95497256D01*
X156682000Y-94731622D01*
X156685686Y-94694199D01*
X156680338Y-94639899D01*
X156670974Y-94544822D01*
X156627402Y-94401185D01*
X156556645Y-94268808D01*
X156461422Y-94152778D01*
X156432353Y-94128922D01*
X149075600Y-86772170D01*
X149075600Y-85296623D01*
X149079286Y-85259200D01*
X149073271Y-85198126D01*
X149064574Y-85109822D01*
X149021002Y-84966185D01*
X148977958Y-84885655D01*
X148950245Y-84833807D01*
X148878879Y-84746848D01*
X148855022Y-84717778D01*
X148825952Y-84693922D01*
X148451000Y-84318970D01*
X148451000Y-80008630D01*
X158168001Y-89725632D01*
X158168000Y-105330077D01*
X158164314Y-105367500D01*
X158168000Y-105404923D01*
X158168000Y-105404925D01*
X158179026Y-105516877D01*
X158222598Y-105660514D01*
X158222599Y-105660515D01*
X158293355Y-105792892D01*
X158332983Y-105841178D01*
X158388578Y-105908922D01*
X158417654Y-105932784D01*
X159872800Y-107387930D01*
X159872800Y-107426367D01*
X159911844Y-107622656D01*
X159988432Y-107807556D01*
X160099621Y-107973962D01*
X160241138Y-108115479D01*
X160407544Y-108226668D01*
X160592444Y-108303256D01*
X160788733Y-108342300D01*
X160988867Y-108342300D01*
X161132637Y-108313703D01*
X161149923Y-108312000D01*
X162174371Y-108312000D01*
X162317650Y-108455279D01*
X162373415Y-108501045D01*
X164668901Y-110796532D01*
X164668900Y-111370059D01*
X164641721Y-111397238D01*
X164530532Y-111563644D01*
X164453944Y-111748544D01*
X164414900Y-111944833D01*
X164414900Y-112144967D01*
X164453944Y-112341256D01*
X164530532Y-112526156D01*
X164641721Y-112692562D01*
X164783238Y-112834079D01*
X164949644Y-112945268D01*
X165134544Y-113021856D01*
X165330833Y-113060900D01*
X165530967Y-113060900D01*
X165727256Y-113021856D01*
X165829687Y-112979428D01*
X165930138Y-113079879D01*
X166096544Y-113191068D01*
X166281444Y-113267656D01*
X166477733Y-113306700D01*
X166677867Y-113306700D01*
X166874156Y-113267656D01*
X167059056Y-113191068D01*
X167225462Y-113079879D01*
X167366979Y-112938362D01*
X167478168Y-112771956D01*
X167554756Y-112587056D01*
X167593800Y-112390767D01*
X167593800Y-112190633D01*
X167554756Y-111994344D01*
X167478168Y-111809444D01*
X167466800Y-111792431D01*
X167466800Y-104790435D01*
X168947737Y-103309498D01*
X168981659Y-103281659D01*
X169092753Y-103146291D01*
X169175303Y-102991851D01*
X169206387Y-102889378D01*
X169226136Y-102824276D01*
X169229406Y-102791076D01*
X169239000Y-102693667D01*
X169239000Y-102693661D01*
X169243300Y-102650001D01*
X169239000Y-102606341D01*
X169239000Y-101385750D01*
X183715000Y-101385750D01*
X183715000Y-101962542D01*
X183739403Y-102085223D01*
X183787270Y-102200785D01*
X183856763Y-102304789D01*
X183945211Y-102393237D01*
X184049215Y-102462730D01*
X184164777Y-102510597D01*
X184287458Y-102535000D01*
X185064250Y-102535000D01*
X185223000Y-102376250D01*
X185223000Y-101227000D01*
X185477000Y-101227000D01*
X185477000Y-102376250D01*
X185635750Y-102535000D01*
X186412542Y-102535000D01*
X186535223Y-102510597D01*
X186650785Y-102462730D01*
X186754789Y-102393237D01*
X186843237Y-102304789D01*
X186912730Y-102200785D01*
X186960597Y-102085223D01*
X186985000Y-101962542D01*
X186985000Y-101385750D01*
X186826250Y-101227000D01*
X185477000Y-101227000D01*
X185223000Y-101227000D01*
X183873750Y-101227000D01*
X183715000Y-101385750D01*
X169239000Y-101385750D01*
X169239000Y-100237458D01*
X183715000Y-100237458D01*
X183715000Y-100814250D01*
X183873750Y-100973000D01*
X185223000Y-100973000D01*
X185223000Y-99823750D01*
X185477000Y-99823750D01*
X185477000Y-100973000D01*
X186826250Y-100973000D01*
X186985000Y-100814250D01*
X186985000Y-100237458D01*
X186960597Y-100114777D01*
X186912730Y-99999215D01*
X186843237Y-99895211D01*
X186754789Y-99806763D01*
X186650785Y-99737270D01*
X186535223Y-99689403D01*
X186412542Y-99665000D01*
X185635750Y-99665000D01*
X185477000Y-99823750D01*
X185223000Y-99823750D01*
X185064250Y-99665000D01*
X184287458Y-99665000D01*
X184164777Y-99689403D01*
X184049215Y-99737270D01*
X183945211Y-99806763D01*
X183856763Y-99895211D01*
X183787270Y-99999215D01*
X183739403Y-100114777D01*
X183715000Y-100237458D01*
X169239000Y-100237458D01*
X169239000Y-81918235D01*
X177734900Y-73422335D01*
X177734900Y-74109477D01*
X177731214Y-74146900D01*
X177734900Y-74184323D01*
X177734900Y-74184325D01*
X177745926Y-74296277D01*
X177789498Y-74439914D01*
X177819665Y-74496353D01*
X177860255Y-74572292D01*
X177872473Y-74587179D01*
X177955478Y-74688322D01*
X177984554Y-74712184D01*
X179628001Y-76355631D01*
X179628001Y-76653186D01*
X179566031Y-76537248D01*
X179361714Y-76288286D01*
X179112751Y-76083969D01*
X178828714Y-75932148D01*
X178520515Y-75838657D01*
X178200000Y-75807089D01*
X177879484Y-75838657D01*
X177571285Y-75932148D01*
X177287248Y-76083969D01*
X177038286Y-76288286D01*
X176833969Y-76537249D01*
X176682148Y-76821286D01*
X176588657Y-77129485D01*
X176565000Y-77369679D01*
X176565001Y-91530322D01*
X176588658Y-91770516D01*
X176682149Y-92078715D01*
X176833970Y-92362752D01*
X177038287Y-92611714D01*
X177287249Y-92816031D01*
X177571286Y-92967852D01*
X177879485Y-93061343D01*
X178200000Y-93092911D01*
X178520516Y-93061343D01*
X178828715Y-92967852D01*
X179112752Y-92816031D01*
X179361714Y-92611714D01*
X179566031Y-92362752D01*
X179717852Y-92078715D01*
X179811343Y-91770516D01*
X179835000Y-91530322D01*
X179835000Y-88885277D01*
X179848578Y-88901822D01*
X179877654Y-88925684D01*
X183711928Y-92759959D01*
X183711928Y-94100000D01*
X183724188Y-94224482D01*
X183760498Y-94344180D01*
X183819463Y-94454494D01*
X183898815Y-94551185D01*
X183995506Y-94630537D01*
X184105820Y-94689502D01*
X184225518Y-94725812D01*
X184350000Y-94738072D01*
X186350000Y-94738072D01*
X186474482Y-94725812D01*
X186594180Y-94689502D01*
X186704494Y-94630537D01*
X186801185Y-94551185D01*
X186880537Y-94454494D01*
X186939502Y-94344180D01*
X186975812Y-94224482D01*
X186988072Y-94100000D01*
X186988072Y-92500000D01*
X186975812Y-92375518D01*
X186939502Y-92255820D01*
X186880537Y-92145506D01*
X186801185Y-92048815D01*
X186704494Y-91969463D01*
X186594180Y-91910498D01*
X186474482Y-91874188D01*
X186350000Y-91861928D01*
X184969159Y-91861928D01*
X181152000Y-88044770D01*
X181152000Y-81871531D01*
X181965000Y-81871531D01*
X181965000Y-82528469D01*
X182093162Y-83172784D01*
X182344561Y-83779715D01*
X182709536Y-84325939D01*
X183174061Y-84790464D01*
X183720285Y-85155439D01*
X184327216Y-85406838D01*
X184971531Y-85535000D01*
X185628469Y-85535000D01*
X186272784Y-85406838D01*
X186879715Y-85155439D01*
X187425939Y-84790464D01*
X187890464Y-84325939D01*
X188255439Y-83779715D01*
X188506838Y-83172784D01*
X188635000Y-82528469D01*
X188635000Y-81871531D01*
X188506838Y-81227216D01*
X188255439Y-80620285D01*
X187890464Y-80074061D01*
X187425939Y-79609536D01*
X186879715Y-79244561D01*
X186272784Y-78993162D01*
X185628469Y-78865000D01*
X184971531Y-78865000D01*
X184327216Y-78993162D01*
X183720285Y-79244561D01*
X183174061Y-79609536D01*
X182709536Y-80074061D01*
X182344561Y-80620285D01*
X182093162Y-81227216D01*
X181965000Y-81871531D01*
X181152000Y-81871531D01*
X181152000Y-76077423D01*
X181155686Y-76040000D01*
X181152000Y-76002574D01*
X181140974Y-75890622D01*
X181097402Y-75746985D01*
X181055184Y-75668000D01*
X181026645Y-75614607D01*
X180974422Y-75550974D01*
X180931422Y-75498578D01*
X180902346Y-75474716D01*
X179258900Y-73831270D01*
X179258900Y-70372522D01*
X179262586Y-70335099D01*
X179258900Y-70297674D01*
X179247874Y-70185722D01*
X179204302Y-70042085D01*
X179133545Y-69909708D01*
X179038322Y-69793678D01*
X179009251Y-69769820D01*
X178541383Y-69301953D01*
X178517522Y-69272878D01*
X178401492Y-69177655D01*
X178269115Y-69106898D01*
X178125478Y-69063326D01*
X178013526Y-69052300D01*
X178013523Y-69052300D01*
X177976100Y-69048614D01*
X177938677Y-69052300D01*
X177276923Y-69052300D01*
X177239500Y-69048614D01*
X177202077Y-69052300D01*
X177202074Y-69052300D01*
X177090122Y-69063326D01*
X176946485Y-69106898D01*
X176884864Y-69139835D01*
X176814107Y-69177655D01*
X176795016Y-69193323D01*
X176698078Y-69272878D01*
X176674216Y-69301954D01*
X175775770Y-70200400D01*
X173718841Y-70200400D01*
X173691662Y-70173221D01*
X173525256Y-70062032D01*
X173340356Y-69985444D01*
X173144067Y-69946400D01*
X172943933Y-69946400D01*
X172747644Y-69985444D01*
X172562744Y-70062032D01*
X172396338Y-70173221D01*
X172254821Y-70314738D01*
X172143632Y-70481144D01*
X172067044Y-70666044D01*
X172028000Y-70862333D01*
X172028000Y-71062467D01*
X172067044Y-71258756D01*
X172143632Y-71443656D01*
X172254821Y-71610062D01*
X172396338Y-71751579D01*
X172562744Y-71862768D01*
X172747644Y-71939356D01*
X172943933Y-71978400D01*
X173144067Y-71978400D01*
X173340356Y-71939356D01*
X173525256Y-71862768D01*
X173691662Y-71751579D01*
X173718841Y-71724400D01*
X176053977Y-71724400D01*
X176091400Y-71728086D01*
X176128823Y-71724400D01*
X176128826Y-71724400D01*
X176240778Y-71713374D01*
X176384415Y-71669802D01*
X176516792Y-71599045D01*
X176632822Y-71503822D01*
X176656684Y-71474746D01*
X176718800Y-71412630D01*
X176718800Y-71923965D01*
X167752259Y-80890506D01*
X167718342Y-80918341D01*
X167690507Y-80952258D01*
X167690505Y-80952260D01*
X167607248Y-81053709D01*
X167524698Y-81208148D01*
X167473864Y-81375726D01*
X167456700Y-81550000D01*
X167461001Y-81593670D01*
X167461001Y-89626739D01*
X167256001Y-89541825D01*
X167037248Y-89498312D01*
X165681199Y-88142264D01*
X165653359Y-88108341D01*
X165517991Y-87997247D01*
X165363551Y-87914697D01*
X165195974Y-87863864D01*
X165065367Y-87851000D01*
X165065360Y-87851000D01*
X165021700Y-87846700D01*
X164978040Y-87851000D01*
X159728236Y-87851000D01*
X149500948Y-77623713D01*
X149496956Y-77603644D01*
X149420368Y-77418744D01*
X149309179Y-77252338D01*
X149278841Y-77222000D01*
X157305159Y-77222000D01*
X157312338Y-77229179D01*
X157478744Y-77340368D01*
X157663644Y-77416956D01*
X157859933Y-77456000D01*
X158060067Y-77456000D01*
X158256356Y-77416956D01*
X158441256Y-77340368D01*
X158607662Y-77229179D01*
X158749179Y-77087662D01*
X158860368Y-76921256D01*
X158936956Y-76736356D01*
X158976000Y-76540067D01*
X158976000Y-76339933D01*
X158936956Y-76143644D01*
X158860368Y-75958744D01*
X158749179Y-75792338D01*
X158607662Y-75650821D01*
X158441256Y-75539632D01*
X158256356Y-75463044D01*
X158060067Y-75424000D01*
X157859933Y-75424000D01*
X157663644Y-75463044D01*
X157478744Y-75539632D01*
X157456162Y-75554721D01*
X157459237Y-75550974D01*
X157496645Y-75505393D01*
X157540150Y-75424000D01*
X157567402Y-75373015D01*
X157610974Y-75229378D01*
X157622000Y-75117426D01*
X157622000Y-75117423D01*
X157625686Y-75080000D01*
X157622000Y-75042577D01*
X157622000Y-72752344D01*
X158814000Y-72752344D01*
X158814000Y-72952478D01*
X158853044Y-73148767D01*
X158929632Y-73333667D01*
X159040821Y-73500073D01*
X159182338Y-73641590D01*
X159348744Y-73752779D01*
X159533644Y-73829367D01*
X159729933Y-73868411D01*
X159930067Y-73868411D01*
X160126356Y-73829367D01*
X160311256Y-73752779D01*
X160477662Y-73641590D01*
X160619179Y-73500073D01*
X160730368Y-73333667D01*
X160806956Y-73148767D01*
X160846000Y-72952478D01*
X160846000Y-72914041D01*
X161062346Y-72697695D01*
X161091422Y-72673833D01*
X161186645Y-72557803D01*
X161257402Y-72425426D01*
X161300974Y-72281789D01*
X161312000Y-72169837D01*
X161312000Y-72169834D01*
X161315686Y-72132411D01*
X161312000Y-72094988D01*
X161312000Y-72094839D01*
X161339179Y-72067660D01*
X161450368Y-71901254D01*
X161526956Y-71716354D01*
X161566000Y-71520065D01*
X161566000Y-71319931D01*
X161526956Y-71123642D01*
X161450368Y-70938742D01*
X161339179Y-70772336D01*
X161197662Y-70630819D01*
X161031256Y-70519630D01*
X160846356Y-70443042D01*
X160650067Y-70403998D01*
X160449933Y-70403998D01*
X160253644Y-70443042D01*
X160068744Y-70519630D01*
X159902338Y-70630819D01*
X159760821Y-70772336D01*
X159649632Y-70938742D01*
X159573044Y-71123642D01*
X159534000Y-71319931D01*
X159534000Y-71520065D01*
X159573044Y-71716354D01*
X159630930Y-71856104D01*
X159533644Y-71875455D01*
X159348744Y-71952043D01*
X159182338Y-72063232D01*
X159040821Y-72204749D01*
X158929632Y-72371155D01*
X158853044Y-72556055D01*
X158814000Y-72752344D01*
X157622000Y-72752344D01*
X157622000Y-70661692D01*
X157746356Y-70636956D01*
X157931256Y-70560368D01*
X158097662Y-70449179D01*
X158239179Y-70307662D01*
X158350368Y-70141256D01*
X158426956Y-69956356D01*
X158466000Y-69760067D01*
X158466000Y-69559933D01*
X158426956Y-69363644D01*
X158350368Y-69178744D01*
X158239179Y-69012338D01*
X158097662Y-68870821D01*
X157931256Y-68759632D01*
X157746356Y-68683044D01*
X157550067Y-68644000D01*
X157349933Y-68644000D01*
X157153644Y-68683044D01*
X156968744Y-68759632D01*
X156802338Y-68870821D01*
X156660821Y-69012338D01*
X156549632Y-69178744D01*
X156473044Y-69363644D01*
X156434000Y-69559933D01*
X156434000Y-69598370D01*
X156347649Y-69684721D01*
X156318579Y-69708578D01*
X156294722Y-69737648D01*
X156294721Y-69737649D01*
X156223355Y-69824608D01*
X156152599Y-69956985D01*
X156109027Y-70100622D01*
X156094314Y-70250000D01*
X156098001Y-70287433D01*
X156098000Y-74764369D01*
X155734370Y-75128000D01*
X148705631Y-75128000D01*
X148145189Y-74567558D01*
X148187662Y-74539179D01*
X148329179Y-74397662D01*
X148440368Y-74231256D01*
X148516956Y-74046356D01*
X148538132Y-73939898D01*
X148601041Y-73952411D01*
X148801175Y-73952411D01*
X148997464Y-73913367D01*
X149182364Y-73836779D01*
X149348770Y-73725590D01*
X149490287Y-73584073D01*
X149601476Y-73417667D01*
X149678064Y-73232767D01*
X149717108Y-73036478D01*
X149717108Y-72836344D01*
X149678064Y-72640055D01*
X149601476Y-72455155D01*
X149490287Y-72288749D01*
X149348770Y-72147232D01*
X149182364Y-72036043D01*
X149152000Y-72023466D01*
X149152000Y-71517423D01*
X149155686Y-71480000D01*
X149150270Y-71425010D01*
X149140974Y-71330622D01*
X149099719Y-71194623D01*
X149197662Y-71129179D01*
X149339179Y-70987662D01*
X149450368Y-70821256D01*
X149526956Y-70636356D01*
X149566000Y-70440067D01*
X149566000Y-70239933D01*
X149526956Y-70043644D01*
X149450368Y-69858744D01*
X149339179Y-69692338D01*
X149272022Y-69625181D01*
X149257402Y-69576985D01*
X149186645Y-69444608D01*
X149091422Y-69328578D01*
X149062353Y-69304722D01*
X147265985Y-67508354D01*
X151764000Y-67508354D01*
X151764000Y-67708488D01*
X151803044Y-67904777D01*
X151879632Y-68089677D01*
X151990821Y-68256083D01*
X152132338Y-68397600D01*
X152298744Y-68508789D01*
X152483644Y-68585377D01*
X152679933Y-68624421D01*
X152880067Y-68624421D01*
X153076356Y-68585377D01*
X153261256Y-68508789D01*
X153427662Y-68397600D01*
X153454841Y-68370421D01*
X155214156Y-68370421D01*
X155251579Y-68374107D01*
X155289002Y-68370421D01*
X155289005Y-68370421D01*
X155400957Y-68359395D01*
X155544594Y-68315823D01*
X155676971Y-68245066D01*
X155793001Y-68149843D01*
X155816862Y-68120768D01*
X156011630Y-67926000D01*
X156050067Y-67926000D01*
X156246356Y-67886956D01*
X156431256Y-67810368D01*
X156597662Y-67699179D01*
X156739179Y-67557662D01*
X156850368Y-67391256D01*
X156926956Y-67206356D01*
X156966000Y-67010067D01*
X156966000Y-66809933D01*
X156926956Y-66613644D01*
X156850368Y-66428744D01*
X156739179Y-66262338D01*
X156597662Y-66120821D01*
X156431256Y-66009632D01*
X156246356Y-65933044D01*
X156050067Y-65894000D01*
X155849933Y-65894000D01*
X155653644Y-65933044D01*
X155468744Y-66009632D01*
X155302338Y-66120821D01*
X155160821Y-66262338D01*
X155049632Y-66428744D01*
X154973044Y-66613644D01*
X154934000Y-66809933D01*
X154934000Y-66846421D01*
X153454841Y-66846421D01*
X153427662Y-66819242D01*
X153261256Y-66708053D01*
X153076356Y-66631465D01*
X152880067Y-66592421D01*
X152679933Y-66592421D01*
X152483644Y-66631465D01*
X152298744Y-66708053D01*
X152132338Y-66819242D01*
X151990821Y-66960759D01*
X151879632Y-67127165D01*
X151803044Y-67312065D01*
X151764000Y-67508354D01*
X147265985Y-67508354D01*
X147121736Y-67364106D01*
X147150368Y-67321256D01*
X147226956Y-67136356D01*
X147266000Y-66940067D01*
X147266000Y-66739933D01*
X147226956Y-66543644D01*
X147150368Y-66358744D01*
X147039179Y-66192338D01*
X146897662Y-66050821D01*
X146731256Y-65939632D01*
X146546356Y-65863044D01*
X146350067Y-65824000D01*
X146149933Y-65824000D01*
X145953644Y-65863044D01*
X145776384Y-65936467D01*
X145721256Y-65899632D01*
X145536356Y-65823044D01*
X145340067Y-65784000D01*
X145139933Y-65784000D01*
X144943644Y-65823044D01*
X144775000Y-65892899D01*
X144606356Y-65823044D01*
X144410067Y-65784000D01*
X144209933Y-65784000D01*
X144013644Y-65823044D01*
X143828744Y-65899632D01*
X143662338Y-66010821D01*
X143520821Y-66152338D01*
X143409632Y-66318744D01*
X143333044Y-66503644D01*
X143294000Y-66699933D01*
X143294000Y-66737715D01*
X143268578Y-66758578D01*
X143218793Y-66819242D01*
X143173355Y-66874608D01*
X143145359Y-66926985D01*
X143102598Y-67006986D01*
X143059026Y-67150623D01*
X143051662Y-67225393D01*
X143044314Y-67300000D01*
X143048000Y-67337424D01*
X143048001Y-68692567D01*
X143044314Y-68730000D01*
X143059027Y-68879378D01*
X143102599Y-69023015D01*
X143173355Y-69155392D01*
X143244721Y-69242351D01*
X143268579Y-69271422D01*
X143297649Y-69295279D01*
X146778000Y-72775630D01*
X146778000Y-73075159D01*
X146750821Y-73102338D01*
X146722442Y-73144811D01*
X141595284Y-68017654D01*
X141571422Y-67988578D01*
X141455392Y-67893355D01*
X141323015Y-67822598D01*
X141179378Y-67779026D01*
X141067426Y-67768000D01*
X141067423Y-67768000D01*
X141030000Y-67764314D01*
X140992577Y-67768000D01*
X133738022Y-67768000D01*
X133815392Y-67726645D01*
X133931422Y-67631422D01*
X133955284Y-67602346D01*
X136007630Y-65550000D01*
X166454314Y-65550000D01*
X166469026Y-65699378D01*
X166512598Y-65843015D01*
X166562864Y-65937055D01*
X166580842Y-65980459D01*
X166692031Y-66146865D01*
X166833548Y-66288382D01*
X166999954Y-66399571D01*
X167184854Y-66476159D01*
X167381143Y-66515203D01*
X167581277Y-66515203D01*
X167777566Y-66476159D01*
X167962466Y-66399571D01*
X168128872Y-66288382D01*
X168270389Y-66146865D01*
X168381578Y-65980459D01*
X168458166Y-65795559D01*
X168497210Y-65599270D01*
X168497210Y-65399136D01*
X168458166Y-65202847D01*
X168381578Y-65017947D01*
X168270389Y-64851541D01*
X168243210Y-64824362D01*
X168243210Y-64084420D01*
X169559533Y-62768098D01*
X169597969Y-62768098D01*
X169794258Y-62729054D01*
X169979158Y-62652466D01*
X170145564Y-62541277D01*
X170287081Y-62399760D01*
X170398270Y-62233354D01*
X170474858Y-62048454D01*
X170513902Y-61852165D01*
X170513902Y-61652031D01*
X170474858Y-61455742D01*
X170398270Y-61270842D01*
X170287081Y-61104436D01*
X170145564Y-60962919D01*
X169979158Y-60851730D01*
X169794258Y-60775142D01*
X169597969Y-60736098D01*
X169397835Y-60736098D01*
X169201546Y-60775142D01*
X169016646Y-60851730D01*
X168850240Y-60962919D01*
X168708723Y-61104436D01*
X168597534Y-61270842D01*
X168520946Y-61455742D01*
X168481902Y-61652031D01*
X168481902Y-61690467D01*
X166968864Y-63203506D01*
X166939788Y-63227368D01*
X166892768Y-63284663D01*
X166844565Y-63343398D01*
X166823298Y-63383186D01*
X166773808Y-63475776D01*
X166730236Y-63619413D01*
X166719210Y-63731364D01*
X166715524Y-63768790D01*
X166719210Y-63806214D01*
X166719211Y-64824361D01*
X166692031Y-64851541D01*
X166580842Y-65017947D01*
X166504254Y-65202847D01*
X166465210Y-65399136D01*
X166465210Y-65439368D01*
X166454314Y-65550000D01*
X136007630Y-65550000D01*
X136682347Y-64875283D01*
X136711422Y-64851422D01*
X136771857Y-64777781D01*
X136806645Y-64735393D01*
X136877401Y-64603016D01*
X136877402Y-64603015D01*
X136920974Y-64459378D01*
X136932000Y-64347426D01*
X136932000Y-64347423D01*
X136935686Y-64310000D01*
X136932000Y-64272577D01*
X136932000Y-62204841D01*
X136959179Y-62177662D01*
X137070368Y-62011256D01*
X137146956Y-61826356D01*
X137186000Y-61630067D01*
X137186000Y-61429933D01*
X137168509Y-61342000D01*
X144375159Y-61342000D01*
X144402338Y-61369179D01*
X144568744Y-61480368D01*
X144753644Y-61556956D01*
X144949933Y-61596000D01*
X144988370Y-61596000D01*
X146360682Y-62968313D01*
X146310951Y-63088374D01*
X146271907Y-63284663D01*
X146271907Y-63484797D01*
X146310951Y-63681086D01*
X146387539Y-63865986D01*
X146498728Y-64032392D01*
X146640245Y-64173909D01*
X146806651Y-64285098D01*
X146991551Y-64361686D01*
X147187840Y-64400730D01*
X147387974Y-64400730D01*
X147584263Y-64361686D01*
X147769163Y-64285098D01*
X147935569Y-64173909D01*
X148077086Y-64032392D01*
X148188275Y-63865986D01*
X148264863Y-63681086D01*
X148303907Y-63484797D01*
X148303907Y-63284663D01*
X148264863Y-63088374D01*
X148188275Y-62903474D01*
X148159182Y-62859933D01*
X151714000Y-62859933D01*
X151714000Y-63060067D01*
X151753044Y-63256356D01*
X151829632Y-63441256D01*
X151940821Y-63607662D01*
X152082338Y-63749179D01*
X152248744Y-63860368D01*
X152433644Y-63936956D01*
X152629933Y-63976000D01*
X152830067Y-63976000D01*
X153026356Y-63936956D01*
X153211256Y-63860368D01*
X153377662Y-63749179D01*
X153404841Y-63722000D01*
X154297631Y-63722000D01*
X154335054Y-63725686D01*
X154372477Y-63722000D01*
X154372480Y-63722000D01*
X154484432Y-63710974D01*
X154628069Y-63667402D01*
X154760446Y-63596645D01*
X154876476Y-63501422D01*
X154900338Y-63472346D01*
X155030017Y-63342667D01*
X155068454Y-63342667D01*
X155264743Y-63303623D01*
X155449643Y-63227035D01*
X155616049Y-63115846D01*
X155757566Y-62974329D01*
X155868755Y-62807923D01*
X155945343Y-62623023D01*
X155984387Y-62426734D01*
X155984387Y-62226600D01*
X155945343Y-62030311D01*
X155868755Y-61845411D01*
X155757566Y-61679005D01*
X155616049Y-61537488D01*
X155449643Y-61426299D01*
X155264743Y-61349711D01*
X155068454Y-61310667D01*
X154868320Y-61310667D01*
X154672031Y-61349711D01*
X154487131Y-61426299D01*
X154320725Y-61537488D01*
X154179208Y-61679005D01*
X154068019Y-61845411D01*
X153991431Y-62030311D01*
X153958076Y-62198000D01*
X153404841Y-62198000D01*
X153377662Y-62170821D01*
X153211256Y-62059632D01*
X153026356Y-61983044D01*
X152830067Y-61944000D01*
X152629933Y-61944000D01*
X152433644Y-61983044D01*
X152248744Y-62059632D01*
X152082338Y-62170821D01*
X151940821Y-62312338D01*
X151829632Y-62478744D01*
X151753044Y-62663644D01*
X151714000Y-62859933D01*
X148159182Y-62859933D01*
X148077086Y-62737068D01*
X148042195Y-62702177D01*
X148038881Y-62668529D01*
X147995309Y-62524892D01*
X147924552Y-62392515D01*
X147829329Y-62276485D01*
X147800259Y-62252628D01*
X146066000Y-60518370D01*
X146066000Y-60479933D01*
X146026956Y-60283644D01*
X145950368Y-60098744D01*
X145839179Y-59932338D01*
X145697662Y-59790821D01*
X145531256Y-59679632D01*
X145346356Y-59603044D01*
X145150067Y-59564000D01*
X144949933Y-59564000D01*
X144753644Y-59603044D01*
X144568744Y-59679632D01*
X144402338Y-59790821D01*
X144375159Y-59818000D01*
X132864841Y-59818000D01*
X132817662Y-59770821D01*
X132651256Y-59659632D01*
X132466356Y-59583044D01*
X132270067Y-59544000D01*
X132069933Y-59544000D01*
X131873644Y-59583044D01*
X131688744Y-59659632D01*
X131522338Y-59770821D01*
X131380821Y-59912338D01*
X131269632Y-60078744D01*
X131193044Y-60263644D01*
X131154000Y-60459933D01*
X131154000Y-60660067D01*
X131193044Y-60856356D01*
X131269632Y-61041256D01*
X131380821Y-61207662D01*
X131522338Y-61349179D01*
X131688744Y-61460368D01*
X131873644Y-61536956D01*
X132069933Y-61576000D01*
X132270067Y-61576000D01*
X132466356Y-61536956D01*
X132651256Y-61460368D01*
X132817662Y-61349179D01*
X132824841Y-61342000D01*
X135171491Y-61342000D01*
X135154000Y-61429933D01*
X135154000Y-61630067D01*
X135193044Y-61826356D01*
X135269632Y-62011256D01*
X135380821Y-62177662D01*
X135408001Y-62204842D01*
X135408000Y-63994370D01*
X133128030Y-66274340D01*
X133001256Y-66189632D01*
X132816356Y-66113044D01*
X132620067Y-66074000D01*
X132419933Y-66074000D01*
X132223644Y-66113044D01*
X132038744Y-66189632D01*
X131872338Y-66300821D01*
X131730821Y-66442338D01*
X131619632Y-66608744D01*
X131543044Y-66793644D01*
X131504000Y-66989933D01*
X131504000Y-67190067D01*
X131543044Y-67386356D01*
X131619632Y-67571256D01*
X131730821Y-67737662D01*
X131761159Y-67768000D01*
X124236237Y-67768000D01*
X124198814Y-67764314D01*
X124161391Y-67768000D01*
X124161389Y-67768000D01*
X124049437Y-67779026D01*
X123905800Y-67822598D01*
X123773423Y-67893355D01*
X123657393Y-67988578D01*
X123633536Y-68017648D01*
X120806613Y-70844572D01*
X120706356Y-70803044D01*
X120510067Y-70764000D01*
X120309933Y-70764000D01*
X120113644Y-70803044D01*
X119928744Y-70879632D01*
X119762338Y-70990821D01*
X119620821Y-71132338D01*
X119509632Y-71298744D01*
X119433044Y-71483644D01*
X119394000Y-71679933D01*
X119394000Y-71880067D01*
X119433044Y-72076356D01*
X119509632Y-72261256D01*
X119620821Y-72427662D01*
X119762338Y-72569179D01*
X119928744Y-72680368D01*
X120113644Y-72756956D01*
X120309933Y-72796000D01*
X120510067Y-72796000D01*
X120706356Y-72756956D01*
X120891256Y-72680368D01*
X121057662Y-72569179D01*
X121058001Y-72568840D01*
X121058000Y-74484370D01*
X120388370Y-75154000D01*
X120349933Y-75154000D01*
X120153644Y-75193044D01*
X119968744Y-75269632D01*
X119802338Y-75380821D01*
X119660821Y-75522338D01*
X119549632Y-75688744D01*
X119473044Y-75873644D01*
X119434000Y-76069933D01*
X119434000Y-76270067D01*
X119473044Y-76466356D01*
X119549632Y-76651256D01*
X119656370Y-76811000D01*
X118648236Y-76811000D01*
X118299000Y-76461765D01*
X118299000Y-74296269D01*
X118310368Y-74279256D01*
X118386956Y-74094356D01*
X118426000Y-73898067D01*
X118426000Y-73697933D01*
X118386956Y-73501644D01*
X118310368Y-73316744D01*
X118299000Y-73299731D01*
X118299000Y-70650269D01*
X118310368Y-70633256D01*
X118386956Y-70448356D01*
X118426000Y-70252067D01*
X118426000Y-70051933D01*
X118386956Y-69855644D01*
X118310368Y-69670744D01*
X118199179Y-69504338D01*
X118057662Y-69362821D01*
X117891256Y-69251632D01*
X117706356Y-69175044D01*
X117510067Y-69136000D01*
X117309933Y-69136000D01*
X117113644Y-69175044D01*
X116928744Y-69251632D01*
X116762338Y-69362821D01*
X116620821Y-69504338D01*
X116509632Y-69670744D01*
X116433044Y-69855644D01*
X116394000Y-70051933D01*
X116394000Y-70252067D01*
X116433044Y-70448356D01*
X116509632Y-70633256D01*
X116521000Y-70650270D01*
X116521001Y-73299729D01*
X116509632Y-73316744D01*
X116433044Y-73501644D01*
X116394000Y-73697933D01*
X116394000Y-73898067D01*
X116433044Y-74094356D01*
X116509632Y-74279256D01*
X116521000Y-74296270D01*
X116521001Y-76786330D01*
X116516700Y-76830000D01*
X116533864Y-77004274D01*
X116584698Y-77171852D01*
X116667248Y-77326291D01*
X116730911Y-77403864D01*
X116778342Y-77461659D01*
X116812259Y-77489494D01*
X117022764Y-77700000D01*
X107581765Y-87141000D01*
X87513662Y-87141000D01*
X87470002Y-87136700D01*
X87426342Y-87141000D01*
X87426335Y-87141000D01*
X87312327Y-87152229D01*
X87295727Y-87153864D01*
X87222760Y-87175998D01*
X87128151Y-87204697D01*
X86973711Y-87287247D01*
X86838343Y-87398341D01*
X86810508Y-87432258D01*
X82010261Y-92232506D01*
X81985355Y-92257412D01*
X81766601Y-92300925D01*
X81558589Y-92387087D01*
X81371382Y-92512174D01*
X81212176Y-92671380D01*
X81087089Y-92858587D01*
X81000927Y-93066599D01*
X80957002Y-93287424D01*
X80957002Y-93512576D01*
X81000927Y-93733401D01*
X81087089Y-93941413D01*
X81212176Y-94128620D01*
X81371382Y-94287826D01*
X81558589Y-94412913D01*
X81766601Y-94499075D01*
X81987426Y-94543000D01*
X82212578Y-94543000D01*
X82433403Y-94499075D01*
X82641415Y-94412913D01*
X82828622Y-94287826D01*
X82987828Y-94128620D01*
X83112915Y-93941413D01*
X83199077Y-93733401D01*
X83242590Y-93514647D01*
X83267496Y-93489741D01*
X87838238Y-88919000D01*
X98390391Y-88919000D01*
X98258353Y-89007225D01*
X98107225Y-89158353D01*
X97988485Y-89336060D01*
X97906696Y-89533517D01*
X97865000Y-89743137D01*
X97865000Y-89956863D01*
X97906696Y-90166483D01*
X97988485Y-90363940D01*
X98107225Y-90541647D01*
X98258353Y-90692775D01*
X98436060Y-90811515D01*
X98633517Y-90893304D01*
X98843137Y-90935000D01*
X99056863Y-90935000D01*
X99266483Y-90893304D01*
X99463940Y-90811515D01*
X99641647Y-90692775D01*
X99792775Y-90541647D01*
X99911515Y-90363940D01*
X99993304Y-90166483D01*
X100035000Y-89956863D01*
X100035000Y-89743137D01*
X99993304Y-89533517D01*
X99911515Y-89336060D01*
X99792775Y-89158353D01*
X99641647Y-89007225D01*
X99509609Y-88919000D01*
X101390391Y-88919000D01*
X101258353Y-89007225D01*
X101107225Y-89158353D01*
X100988485Y-89336060D01*
X100906696Y-89533517D01*
X100865000Y-89743137D01*
X100865000Y-89956863D01*
X100906696Y-90166483D01*
X100988485Y-90363940D01*
X101107225Y-90541647D01*
X101258353Y-90692775D01*
X101436060Y-90811515D01*
X101633517Y-90893304D01*
X101843137Y-90935000D01*
X102056863Y-90935000D01*
X102266483Y-90893304D01*
X102463940Y-90811515D01*
X102641647Y-90692775D01*
X102792775Y-90541647D01*
X102911515Y-90363940D01*
X102993304Y-90166483D01*
X103035000Y-89956863D01*
X103035000Y-89743137D01*
X102993304Y-89533517D01*
X102911515Y-89336060D01*
X102792775Y-89158353D01*
X102641647Y-89007225D01*
X102509609Y-88919000D01*
X107906340Y-88919000D01*
X107940409Y-88922355D01*
X100527870Y-96334895D01*
X100072258Y-96334895D01*
X99886808Y-96210982D01*
X99860744Y-96200186D01*
X101987030Y-94073900D01*
X102025467Y-94073900D01*
X102221756Y-94034856D01*
X102406656Y-93958268D01*
X102573062Y-93847079D01*
X102714579Y-93705562D01*
X102825768Y-93539156D01*
X102902356Y-93354256D01*
X102941400Y-93157967D01*
X102941400Y-92957833D01*
X102902356Y-92761544D01*
X102825768Y-92576644D01*
X102714579Y-92410238D01*
X102573062Y-92268721D01*
X102406656Y-92157532D01*
X102221756Y-92080944D01*
X102025467Y-92041900D01*
X101825333Y-92041900D01*
X101629044Y-92080944D01*
X101444144Y-92157532D01*
X101277738Y-92268721D01*
X101136221Y-92410238D01*
X101025032Y-92576644D01*
X100948444Y-92761544D01*
X100909400Y-92957833D01*
X100909400Y-92996270D01*
X86227654Y-107678016D01*
X86198578Y-107701878D01*
X86142983Y-107769622D01*
X86103355Y-107817908D01*
X86089935Y-107843016D01*
X86032598Y-107950286D01*
X85989026Y-108093923D01*
X85979894Y-108186645D01*
X85974314Y-108243300D01*
X85978000Y-108280723D01*
X85978001Y-118612567D01*
X85974314Y-118650000D01*
X85989027Y-118799378D01*
X86032599Y-118943015D01*
X86103355Y-119075392D01*
X86174721Y-119162351D01*
X86198579Y-119191422D01*
X86227649Y-119215279D01*
X87273369Y-120261000D01*
X84678269Y-120261000D01*
X84661256Y-120249632D01*
X84476356Y-120173044D01*
X84456287Y-120169052D01*
X83339499Y-119052264D01*
X83311659Y-119018341D01*
X83176291Y-118907247D01*
X83021851Y-118824697D01*
X82854274Y-118773864D01*
X82723667Y-118761000D01*
X82723660Y-118761000D01*
X82680000Y-118756700D01*
X82636340Y-118761000D01*
X80786863Y-118761000D01*
X80601413Y-118637087D01*
X80393401Y-118550925D01*
X80172576Y-118507000D01*
X79947424Y-118507000D01*
X79726599Y-118550925D01*
X79518587Y-118637087D01*
X79333137Y-118761000D01*
X78513668Y-118761000D01*
X78470000Y-118756699D01*
X78295725Y-118773864D01*
X78244892Y-118789284D01*
X78128149Y-118824697D01*
X77973709Y-118907247D01*
X77838341Y-119018341D01*
X77810505Y-119052259D01*
X77135353Y-119727412D01*
X76916599Y-119770925D01*
X76708587Y-119857087D01*
X76521380Y-119982174D01*
X76362174Y-120141380D01*
X76237087Y-120328587D01*
X76150925Y-120536599D01*
X76107000Y-120757424D01*
X76107000Y-120982576D01*
X76150925Y-121203401D01*
X76237087Y-121411413D01*
X76362174Y-121598620D01*
X76521380Y-121757826D01*
X76708587Y-121882913D01*
X76916599Y-121969075D01*
X77137424Y-122013000D01*
X77362576Y-122013000D01*
X77583401Y-121969075D01*
X77791413Y-121882913D01*
X77978620Y-121757826D01*
X78137826Y-121598620D01*
X78262913Y-121411413D01*
X78349075Y-121203401D01*
X78392588Y-120984647D01*
X78838236Y-120539000D01*
X79333137Y-120539000D01*
X79518587Y-120662913D01*
X79726599Y-120749075D01*
X79947424Y-120793000D01*
X80172576Y-120793000D01*
X80393401Y-120749075D01*
X80601413Y-120662913D01*
X80786863Y-120539000D01*
X82311765Y-120539000D01*
X83143765Y-121371000D01*
X79100195Y-121371000D01*
X79056535Y-121366700D01*
X79012875Y-121371000D01*
X79012869Y-121371000D01*
X78915460Y-121380594D01*
X78882260Y-121383864D01*
X78810323Y-121405686D01*
X78714685Y-121434697D01*
X78560245Y-121517247D01*
X78424877Y-121628341D01*
X78397037Y-121662264D01*
X77611873Y-122447428D01*
X77591804Y-122451420D01*
X77406904Y-122528008D01*
X77240498Y-122639197D01*
X77098981Y-122780714D01*
X76987792Y-122947120D01*
X76911204Y-123132020D01*
X76872160Y-123328309D01*
X76872160Y-123528443D01*
X76911204Y-123724732D01*
X76987792Y-123909632D01*
X77098981Y-124076038D01*
X77240498Y-124217555D01*
X77406904Y-124328744D01*
X77591804Y-124405332D01*
X77788093Y-124444376D01*
X77988227Y-124444376D01*
X78184516Y-124405332D01*
X78369416Y-124328744D01*
X78535822Y-124217555D01*
X78677339Y-124076038D01*
X78788528Y-123909632D01*
X78865116Y-123724732D01*
X78869108Y-123704663D01*
X79424771Y-123149000D01*
X82751740Y-123149000D01*
X82657407Y-123212031D01*
X82515890Y-123353548D01*
X82404701Y-123519954D01*
X82328113Y-123704854D01*
X82289069Y-123901143D01*
X82289069Y-124101277D01*
X82328113Y-124297566D01*
X82404701Y-124482466D01*
X82515890Y-124648872D01*
X82657407Y-124790389D01*
X82823813Y-124901578D01*
X83008713Y-124978166D01*
X83205002Y-125017210D01*
X83405136Y-125017210D01*
X83601425Y-124978166D01*
X83786325Y-124901578D01*
X83952731Y-124790389D01*
X83979910Y-124763210D01*
X86071367Y-124763210D01*
X86108790Y-124766896D01*
X86146213Y-124763210D01*
X86146216Y-124763210D01*
X86258168Y-124752184D01*
X86401805Y-124708612D01*
X86534182Y-124637855D01*
X86650212Y-124542632D01*
X86674074Y-124513556D01*
X86721630Y-124466000D01*
X86760067Y-124466000D01*
X86956356Y-124426956D01*
X87141256Y-124350368D01*
X87303398Y-124242028D01*
X87387893Y-124446015D01*
X87512980Y-124633222D01*
X87672186Y-124792428D01*
X87844683Y-124907686D01*
X87618370Y-125134000D01*
X87579933Y-125134000D01*
X87383644Y-125173044D01*
X87198744Y-125249632D01*
X87032338Y-125360821D01*
X86890821Y-125502338D01*
X86779632Y-125668744D01*
X86703044Y-125853644D01*
X86664000Y-126049933D01*
X86664000Y-126250067D01*
X86703044Y-126446356D01*
X86779632Y-126631256D01*
X86890821Y-126797662D01*
X87032338Y-126939179D01*
X87198744Y-127050368D01*
X87383644Y-127126956D01*
X87420706Y-127134328D01*
X87433044Y-127196356D01*
X87471583Y-127289397D01*
X87325408Y-127275000D01*
X76656096Y-127275000D01*
X76696956Y-127176356D01*
X76736000Y-126980067D01*
X76736000Y-126779933D01*
X76696956Y-126583644D01*
X76620368Y-126398744D01*
X76509179Y-126232338D01*
X76367662Y-126090821D01*
X76201256Y-125979632D01*
X76016356Y-125903044D01*
X75820067Y-125864000D01*
X75619933Y-125864000D01*
X75423644Y-125903044D01*
X75238744Y-125979632D01*
X75072338Y-126090821D01*
X74930821Y-126232338D01*
X74819632Y-126398744D01*
X74743044Y-126583644D01*
X74704000Y-126779933D01*
X74704000Y-126980067D01*
X74743044Y-127176356D01*
X74791378Y-127293045D01*
X74749087Y-127297210D01*
X74459739Y-127384983D01*
X74193073Y-127527519D01*
X73959339Y-127719339D01*
X73767519Y-127953073D01*
X73624983Y-128219739D01*
X73537210Y-128509087D01*
X73507573Y-128810000D01*
X51447700Y-128810000D01*
X51447700Y-117934074D01*
X51709536Y-118325939D01*
X52174061Y-118790464D01*
X52720285Y-119155439D01*
X53327216Y-119406838D01*
X53971531Y-119535000D01*
X54628469Y-119535000D01*
X55272784Y-119406838D01*
X55879715Y-119155439D01*
X56425939Y-118790464D01*
X56890464Y-118325939D01*
X57255439Y-117779715D01*
X57506838Y-117172784D01*
X57635000Y-116528469D01*
X57635000Y-115871531D01*
X57506838Y-115227216D01*
X57255439Y-114620285D01*
X56890464Y-114074061D01*
X56425939Y-113609536D01*
X55879715Y-113244561D01*
X55272784Y-112993162D01*
X54628469Y-112865000D01*
X53971531Y-112865000D01*
X53327216Y-112993162D01*
X52720285Y-113244561D01*
X52174061Y-113609536D01*
X51709536Y-114074061D01*
X51447700Y-114465926D01*
X51447700Y-82881961D01*
X68684521Y-82881961D01*
X68684521Y-83082095D01*
X68723565Y-83278384D01*
X68800153Y-83463284D01*
X68911342Y-83629690D01*
X69052859Y-83771207D01*
X69219265Y-83882396D01*
X69404165Y-83958984D01*
X69600454Y-83998028D01*
X69800588Y-83998028D01*
X69996877Y-83958984D01*
X70181777Y-83882396D01*
X70348183Y-83771207D01*
X70375362Y-83744028D01*
X70616398Y-83744028D01*
X71158023Y-84285654D01*
X71158023Y-84324090D01*
X71197067Y-84520379D01*
X71273655Y-84705279D01*
X71384844Y-84871685D01*
X71526361Y-85013202D01*
X71692767Y-85124391D01*
X71877667Y-85200979D01*
X72073956Y-85240023D01*
X72274090Y-85240023D01*
X72470379Y-85200979D01*
X72655279Y-85124391D01*
X72821685Y-85013202D01*
X72825900Y-85008987D01*
X72825901Y-95175158D01*
X72798721Y-95202338D01*
X72687532Y-95368744D01*
X72610944Y-95553644D01*
X72571900Y-95749933D01*
X72571900Y-95950067D01*
X72610944Y-96146356D01*
X72687532Y-96331256D01*
X72798721Y-96497662D01*
X72825900Y-96524841D01*
X72825901Y-109573047D01*
X72822214Y-109610480D01*
X72836927Y-109759858D01*
X72880499Y-109903495D01*
X72951255Y-110035872D01*
X73022621Y-110122831D01*
X73046479Y-110151902D01*
X73075549Y-110175759D01*
X74102141Y-111202352D01*
X74125998Y-111231422D01*
X74155068Y-111255279D01*
X74242027Y-111326645D01*
X74262639Y-111337662D01*
X74374405Y-111397402D01*
X74518042Y-111440974D01*
X74629994Y-111452000D01*
X74629997Y-111452000D01*
X74667420Y-111455686D01*
X74668715Y-111455558D01*
X74692336Y-111479179D01*
X74858742Y-111590368D01*
X75043642Y-111666956D01*
X75239931Y-111706000D01*
X75440065Y-111706000D01*
X75636354Y-111666956D01*
X75821254Y-111590368D01*
X75987660Y-111479179D01*
X76129177Y-111337662D01*
X76240366Y-111171256D01*
X76316954Y-110986356D01*
X76355998Y-110790067D01*
X76355998Y-110589933D01*
X76316954Y-110393644D01*
X76240366Y-110208744D01*
X76129177Y-110042338D01*
X75987660Y-109900821D01*
X75821254Y-109789632D01*
X75776525Y-109771105D01*
X76002346Y-109545284D01*
X76031422Y-109521422D01*
X76126645Y-109405392D01*
X76197402Y-109273015D01*
X76240974Y-109129378D01*
X76252000Y-109017426D01*
X76252000Y-109017424D01*
X76255686Y-108980001D01*
X76252000Y-108942578D01*
X76252000Y-96209933D01*
X85594000Y-96209933D01*
X85594000Y-96410067D01*
X85633044Y-96606356D01*
X85709632Y-96791256D01*
X85820821Y-96957662D01*
X85962338Y-97099179D01*
X86128744Y-97210368D01*
X86313644Y-97286956D01*
X86509933Y-97326000D01*
X86548370Y-97326000D01*
X88274721Y-99052352D01*
X88298578Y-99081422D01*
X88414608Y-99176645D01*
X88546985Y-99247402D01*
X88690622Y-99290974D01*
X88802574Y-99302000D01*
X88802576Y-99302000D01*
X88839999Y-99305686D01*
X88877422Y-99302000D01*
X89785159Y-99302000D01*
X89812338Y-99329179D01*
X89978744Y-99440368D01*
X90163644Y-99516956D01*
X90359933Y-99556000D01*
X90560067Y-99556000D01*
X90756356Y-99516956D01*
X90941256Y-99440368D01*
X91107662Y-99329179D01*
X91249179Y-99187662D01*
X91360368Y-99021256D01*
X91436956Y-98836356D01*
X91476000Y-98640067D01*
X91476000Y-98439933D01*
X91436956Y-98243644D01*
X91360368Y-98058744D01*
X91249179Y-97892338D01*
X91107662Y-97750821D01*
X90941256Y-97639632D01*
X90756356Y-97563044D01*
X90560067Y-97524000D01*
X90359933Y-97524000D01*
X90163644Y-97563044D01*
X89978744Y-97639632D01*
X89812338Y-97750821D01*
X89785159Y-97778000D01*
X89155631Y-97778000D01*
X87626000Y-96248370D01*
X87626000Y-96209933D01*
X87586956Y-96013644D01*
X87510368Y-95828744D01*
X87399179Y-95662338D01*
X87257662Y-95520821D01*
X87091256Y-95409632D01*
X86906356Y-95333044D01*
X86710067Y-95294000D01*
X86509933Y-95294000D01*
X86313644Y-95333044D01*
X86128744Y-95409632D01*
X85962338Y-95520821D01*
X85820821Y-95662338D01*
X85709632Y-95828744D01*
X85633044Y-96013644D01*
X85594000Y-96209933D01*
X76252000Y-96209933D01*
X76252000Y-94094841D01*
X76279179Y-94067662D01*
X76390368Y-93901256D01*
X76466956Y-93716356D01*
X76506000Y-93520067D01*
X76506000Y-93319933D01*
X76466956Y-93123644D01*
X76390368Y-92938744D01*
X76279179Y-92772338D01*
X76252000Y-92745159D01*
X76252000Y-90595630D01*
X77682352Y-89165279D01*
X77711422Y-89141422D01*
X77760310Y-89081852D01*
X77806645Y-89025393D01*
X77861214Y-88923300D01*
X77877402Y-88893015D01*
X77920974Y-88749378D01*
X77932000Y-88637426D01*
X77932000Y-88637423D01*
X77935686Y-88600000D01*
X77932000Y-88562577D01*
X77932000Y-77349200D01*
X99881570Y-77349200D01*
X103384000Y-80851631D01*
X103384000Y-80890067D01*
X103423044Y-81086356D01*
X103499632Y-81271256D01*
X103610821Y-81437662D01*
X103752338Y-81579179D01*
X103918744Y-81690368D01*
X104103644Y-81766956D01*
X104299933Y-81806000D01*
X104500067Y-81806000D01*
X104696356Y-81766956D01*
X104881256Y-81690368D01*
X105047662Y-81579179D01*
X105189179Y-81437662D01*
X105300368Y-81271256D01*
X105376956Y-81086356D01*
X105416000Y-80890067D01*
X105416000Y-80689933D01*
X105376956Y-80493644D01*
X105322706Y-80362672D01*
X105447662Y-80279179D01*
X105589179Y-80137662D01*
X105700368Y-79971256D01*
X105776956Y-79786356D01*
X105816000Y-79590067D01*
X105816000Y-79389933D01*
X105776956Y-79193644D01*
X105700368Y-79008744D01*
X105589179Y-78842338D01*
X105447662Y-78700821D01*
X105281256Y-78589632D01*
X105096356Y-78513044D01*
X104900067Y-78474000D01*
X104861631Y-78474000D01*
X101686584Y-75298954D01*
X101662722Y-75269878D01*
X101546692Y-75174655D01*
X101414315Y-75103898D01*
X101270678Y-75060326D01*
X101158726Y-75049300D01*
X101158723Y-75049300D01*
X101121300Y-75045614D01*
X101083877Y-75049300D01*
X74262741Y-75049300D01*
X74235562Y-75022121D01*
X74069156Y-74910932D01*
X73884256Y-74834344D01*
X73687967Y-74795300D01*
X73487833Y-74795300D01*
X73291544Y-74834344D01*
X73106644Y-74910932D01*
X72940238Y-75022121D01*
X72798721Y-75163638D01*
X72687532Y-75330044D01*
X72610944Y-75514944D01*
X72571900Y-75711233D01*
X72571900Y-75911367D01*
X72610944Y-76107656D01*
X72687532Y-76292556D01*
X72798721Y-76458962D01*
X72825900Y-76486141D01*
X72825900Y-83439059D01*
X72821685Y-83434844D01*
X72655279Y-83323655D01*
X72470379Y-83247067D01*
X72274090Y-83208023D01*
X72235654Y-83208023D01*
X71497312Y-82469682D01*
X71473450Y-82440606D01*
X71357420Y-82345383D01*
X71225043Y-82274626D01*
X71081406Y-82231054D01*
X70969454Y-82220028D01*
X70969451Y-82220028D01*
X70932028Y-82216342D01*
X70894605Y-82220028D01*
X70375362Y-82220028D01*
X70348183Y-82192849D01*
X70181777Y-82081660D01*
X69996877Y-82005072D01*
X69800588Y-81966028D01*
X69600454Y-81966028D01*
X69404165Y-82005072D01*
X69219265Y-82081660D01*
X69052859Y-82192849D01*
X68911342Y-82334366D01*
X68800153Y-82500772D01*
X68723565Y-82685672D01*
X68684521Y-82881961D01*
X51447700Y-82881961D01*
X51447700Y-72607424D01*
X64167000Y-72607424D01*
X64167000Y-72832576D01*
X64210925Y-73053401D01*
X64297087Y-73261413D01*
X64422174Y-73448620D01*
X64581380Y-73607826D01*
X64768587Y-73732913D01*
X64976599Y-73819075D01*
X65197424Y-73863000D01*
X65422576Y-73863000D01*
X65643401Y-73819075D01*
X65851413Y-73732913D01*
X66038620Y-73607826D01*
X66197826Y-73448620D01*
X66322913Y-73261413D01*
X66409075Y-73053401D01*
X66452588Y-72834647D01*
X67228236Y-72059000D01*
X69583159Y-72059000D01*
X69529821Y-72112338D01*
X69418632Y-72278744D01*
X69342044Y-72463644D01*
X69303000Y-72659933D01*
X69303000Y-72860067D01*
X69342044Y-73056356D01*
X69418632Y-73241256D01*
X69529821Y-73407662D01*
X69671338Y-73549179D01*
X69837744Y-73660368D01*
X70022644Y-73736956D01*
X70218933Y-73776000D01*
X70257370Y-73776000D01*
X70782673Y-74301303D01*
X70806530Y-74330374D01*
X70835600Y-74354231D01*
X70922559Y-74425597D01*
X70982063Y-74457402D01*
X71054937Y-74496354D01*
X71198574Y-74539926D01*
X71292318Y-74549159D01*
X71321290Y-74578131D01*
X71487696Y-74689320D01*
X71672596Y-74765908D01*
X71868885Y-74804952D01*
X72069019Y-74804952D01*
X72265308Y-74765908D01*
X72450208Y-74689320D01*
X72616614Y-74578131D01*
X72758131Y-74436614D01*
X72869320Y-74270208D01*
X72945908Y-74085308D01*
X72984952Y-73889019D01*
X72984952Y-73688885D01*
X72945908Y-73492596D01*
X72869320Y-73307696D01*
X72758131Y-73141290D01*
X72616614Y-72999773D01*
X72450208Y-72888584D01*
X72265308Y-72811996D01*
X72069019Y-72772952D01*
X71868885Y-72772952D01*
X71672596Y-72811996D01*
X71514226Y-72877595D01*
X71335000Y-72698370D01*
X71335000Y-72659933D01*
X71295956Y-72463644D01*
X71219368Y-72278744D01*
X71108179Y-72112338D01*
X71054841Y-72059000D01*
X72867525Y-72059000D01*
X72911185Y-72063300D01*
X72954845Y-72059000D01*
X72954852Y-72059000D01*
X73085459Y-72046136D01*
X73253036Y-71995303D01*
X73407476Y-71912753D01*
X73542844Y-71801659D01*
X73570684Y-71767736D01*
X75698175Y-69640245D01*
X75727919Y-69684760D01*
X75869436Y-69826277D01*
X76035842Y-69937466D01*
X76070700Y-69951905D01*
X76070701Y-72371358D01*
X76043521Y-72398538D01*
X75932332Y-72564944D01*
X75855744Y-72749844D01*
X75816700Y-72946133D01*
X75816700Y-73146267D01*
X75855744Y-73342556D01*
X75932332Y-73527456D01*
X76043521Y-73693862D01*
X76185038Y-73835379D01*
X76351444Y-73946568D01*
X76536344Y-74023156D01*
X76732633Y-74062200D01*
X76932767Y-74062200D01*
X77129056Y-74023156D01*
X77313956Y-73946568D01*
X77480362Y-73835379D01*
X77621879Y-73693862D01*
X77733068Y-73527456D01*
X77809656Y-73342556D01*
X77848700Y-73146267D01*
X77848700Y-72946133D01*
X77809656Y-72749844D01*
X77733068Y-72564944D01*
X77621879Y-72398538D01*
X77594700Y-72371359D01*
X77594700Y-69380123D01*
X77598386Y-69342700D01*
X77594700Y-69305274D01*
X77583674Y-69193322D01*
X77540102Y-69049685D01*
X77533098Y-69036581D01*
X77533098Y-68937031D01*
X77494054Y-68740742D01*
X77417466Y-68555842D01*
X77306277Y-68389436D01*
X77164760Y-68247919D01*
X77120245Y-68218175D01*
X77643186Y-67695235D01*
X77676599Y-67709075D01*
X77897424Y-67753000D01*
X78122576Y-67753000D01*
X78343401Y-67709075D01*
X78551413Y-67622913D01*
X78738620Y-67497826D01*
X78897826Y-67338620D01*
X79022913Y-67151413D01*
X79109075Y-66943401D01*
X79153000Y-66722576D01*
X79153000Y-66497424D01*
X79109075Y-66276599D01*
X79022913Y-66068587D01*
X78897826Y-65881380D01*
X78738620Y-65722174D01*
X78551413Y-65597087D01*
X78343401Y-65510925D01*
X78122576Y-65467000D01*
X77897424Y-65467000D01*
X77676599Y-65510925D01*
X77468587Y-65597087D01*
X77281380Y-65722174D01*
X77257838Y-65745716D01*
X77223943Y-65755998D01*
X77129334Y-65784697D01*
X76974894Y-65867247D01*
X76839526Y-65978341D01*
X76811691Y-66012258D01*
X72542950Y-70281000D01*
X66903659Y-70281000D01*
X66859999Y-70276700D01*
X66816339Y-70281000D01*
X66816333Y-70281000D01*
X66704073Y-70292057D01*
X66685725Y-70293864D01*
X66623967Y-70312598D01*
X66518149Y-70344697D01*
X66363709Y-70427247D01*
X66228341Y-70538341D01*
X66200506Y-70572258D01*
X65195353Y-71577412D01*
X64976599Y-71620925D01*
X64768587Y-71707087D01*
X64581380Y-71832174D01*
X64422174Y-71991380D01*
X64297087Y-72178587D01*
X64210925Y-72386599D01*
X64167000Y-72607424D01*
X51447700Y-72607424D01*
X51447700Y-61979933D01*
X90214000Y-61979933D01*
X90214000Y-62180067D01*
X90253044Y-62376356D01*
X90329632Y-62561256D01*
X90440821Y-62727662D01*
X90468000Y-62754841D01*
X90468001Y-63422567D01*
X90464314Y-63460000D01*
X90479027Y-63609378D01*
X90522599Y-63753015D01*
X90593355Y-63885392D01*
X90635673Y-63936956D01*
X90688579Y-64001422D01*
X90717649Y-64025279D01*
X102914721Y-76222352D01*
X102938578Y-76251422D01*
X103054608Y-76346645D01*
X103186985Y-76417402D01*
X103330622Y-76460974D01*
X103442574Y-76472000D01*
X103442576Y-76472000D01*
X103479999Y-76475686D01*
X103517422Y-76472000D01*
X104215159Y-76472000D01*
X104242338Y-76499179D01*
X104408744Y-76610368D01*
X104593644Y-76686956D01*
X104789933Y-76726000D01*
X104990067Y-76726000D01*
X105186356Y-76686956D01*
X105371256Y-76610368D01*
X105537662Y-76499179D01*
X105679179Y-76357662D01*
X105790368Y-76191256D01*
X105866956Y-76006356D01*
X105906000Y-75810067D01*
X105906000Y-75609933D01*
X105866956Y-75413644D01*
X105790368Y-75228744D01*
X105679179Y-75062338D01*
X105537662Y-74920821D01*
X105371256Y-74809632D01*
X105186356Y-74733044D01*
X104990067Y-74694000D01*
X104789933Y-74694000D01*
X104593644Y-74733044D01*
X104408744Y-74809632D01*
X104242338Y-74920821D01*
X104215159Y-74948000D01*
X103795631Y-74948000D01*
X102819767Y-73972136D01*
X102946356Y-73946956D01*
X103131256Y-73870368D01*
X103297662Y-73759179D01*
X103439179Y-73617662D01*
X103550368Y-73451256D01*
X103626956Y-73266356D01*
X103666000Y-73070067D01*
X103666000Y-72869933D01*
X103626956Y-72673644D01*
X103550368Y-72488744D01*
X103462000Y-72356492D01*
X103462000Y-68777996D01*
X104133276Y-68106720D01*
X104238722Y-68085746D01*
X104423622Y-68009158D01*
X104590028Y-67897969D01*
X104731545Y-67756452D01*
X104842734Y-67590046D01*
X104919322Y-67405146D01*
X104958366Y-67208857D01*
X104958366Y-67008723D01*
X104919322Y-66812434D01*
X104842734Y-66627534D01*
X104731545Y-66461128D01*
X104590028Y-66319611D01*
X104423622Y-66208422D01*
X104238722Y-66131834D01*
X104042433Y-66092790D01*
X103842299Y-66092790D01*
X103646010Y-66131834D01*
X103461110Y-66208422D01*
X103294704Y-66319611D01*
X103153187Y-66461128D01*
X103041998Y-66627534D01*
X102965410Y-66812434D01*
X102926366Y-67008723D01*
X102926366Y-67158369D01*
X102187654Y-67897082D01*
X102158578Y-67920944D01*
X102122986Y-67964314D01*
X102063355Y-68036974D01*
X102047330Y-68066956D01*
X101992598Y-68169352D01*
X101949026Y-68312989D01*
X101943665Y-68367426D01*
X101934314Y-68462366D01*
X101938000Y-68499789D01*
X101938001Y-72245158D01*
X101860821Y-72322338D01*
X101749632Y-72488744D01*
X101673044Y-72673644D01*
X101647864Y-72800233D01*
X91992000Y-63144370D01*
X91992000Y-62754841D01*
X92019179Y-62727662D01*
X92130368Y-62561256D01*
X92206956Y-62376356D01*
X92246000Y-62180067D01*
X92246000Y-61979933D01*
X92206956Y-61783644D01*
X92130368Y-61598744D01*
X92019179Y-61432338D01*
X91877662Y-61290821D01*
X91711256Y-61179632D01*
X91526356Y-61103044D01*
X91330067Y-61064000D01*
X91129933Y-61064000D01*
X90933644Y-61103044D01*
X90748744Y-61179632D01*
X90582338Y-61290821D01*
X90440821Y-61432338D01*
X90329632Y-61598744D01*
X90253044Y-61783644D01*
X90214000Y-61979933D01*
X51447700Y-61979933D01*
X51447700Y-59934074D01*
X51709536Y-60325939D01*
X52174061Y-60790464D01*
X52720285Y-61155439D01*
X53327216Y-61406838D01*
X53971531Y-61535000D01*
X54628469Y-61535000D01*
X55272784Y-61406838D01*
X55879715Y-61155439D01*
X56425939Y-60790464D01*
X56890464Y-60325939D01*
X57255439Y-59779715D01*
X57506838Y-59172784D01*
X57635000Y-58528469D01*
X57635000Y-57871531D01*
X57506838Y-57227216D01*
X57255439Y-56620285D01*
X56890464Y-56074061D01*
X56425939Y-55609536D01*
X56034074Y-55347700D01*
X101565926Y-55347700D01*
X101174061Y-55609536D01*
G36*
X131017120Y-73076771D02*
X131158637Y-73218288D01*
X131325043Y-73329477D01*
X131509943Y-73406065D01*
X131706232Y-73445109D01*
X131744669Y-73445109D01*
X132281910Y-73982351D01*
X132305768Y-74011422D01*
X132421798Y-74106645D01*
X132483922Y-74139851D01*
X132550415Y-74175392D01*
X132554175Y-74177402D01*
X132697812Y-74220974D01*
X132809764Y-74232000D01*
X132809766Y-74232000D01*
X132847189Y-74235686D01*
X132884612Y-74232000D01*
X139616950Y-74232000D01*
X140004293Y-74619344D01*
X139858744Y-74679632D01*
X139692338Y-74790821D01*
X139667626Y-74815533D01*
X139642577Y-74818000D01*
X139642574Y-74818000D01*
X139530622Y-74829026D01*
X139386985Y-74872598D01*
X139339697Y-74897874D01*
X139254607Y-74943355D01*
X139212219Y-74978143D01*
X139138578Y-75038578D01*
X139114716Y-75067654D01*
X131977654Y-82204716D01*
X131948578Y-82228578D01*
X131910788Y-82274626D01*
X131853355Y-82344608D01*
X131852941Y-82345383D01*
X131782598Y-82476986D01*
X131739026Y-82620623D01*
X131728000Y-82732574D01*
X131724314Y-82770000D01*
X131728000Y-82807424D01*
X131728001Y-84514368D01*
X131234370Y-85008000D01*
X129100373Y-85008000D01*
X129425939Y-84790464D01*
X129890464Y-84325939D01*
X130255439Y-83779715D01*
X130506838Y-83172784D01*
X130635000Y-82528469D01*
X130635000Y-81871531D01*
X130506838Y-81227216D01*
X130255439Y-80620285D01*
X129890464Y-80074061D01*
X129425939Y-79609536D01*
X128879715Y-79244561D01*
X128272784Y-78993162D01*
X127628469Y-78865000D01*
X126971531Y-78865000D01*
X126327216Y-78993162D01*
X125720285Y-79244561D01*
X125174061Y-79609536D01*
X124709536Y-80074061D01*
X124344561Y-80620285D01*
X124093162Y-81227216D01*
X123965000Y-81871531D01*
X123965000Y-82528469D01*
X124093162Y-83172784D01*
X124344561Y-83779715D01*
X124709536Y-84325939D01*
X125174061Y-84790464D01*
X125499627Y-85008000D01*
X123187415Y-85008000D01*
X123149999Y-85004315D01*
X123112583Y-85008000D01*
X123112574Y-85008000D01*
X123000622Y-85019026D01*
X122856985Y-85062598D01*
X122724608Y-85133355D01*
X122608578Y-85228578D01*
X122584721Y-85257648D01*
X94311662Y-113530708D01*
X92057324Y-113530708D01*
X92030145Y-113503529D01*
X91863739Y-113392340D01*
X91678839Y-113315752D01*
X91482550Y-113276708D01*
X91282416Y-113276708D01*
X91086127Y-113315752D01*
X90901227Y-113392340D01*
X90734821Y-113503529D01*
X90593304Y-113645046D01*
X90482115Y-113811452D01*
X90405527Y-113996352D01*
X90366483Y-114192641D01*
X90366483Y-114288312D01*
X90200067Y-114255210D01*
X89999933Y-114255210D01*
X89803644Y-114294254D01*
X89618744Y-114370842D01*
X89452338Y-114482031D01*
X89310821Y-114623548D01*
X89199632Y-114789954D01*
X89123044Y-114974854D01*
X89102952Y-115075866D01*
X89019222Y-115059211D01*
X88819088Y-115059211D01*
X88622799Y-115098255D01*
X88437899Y-115174843D01*
X88271493Y-115286032D01*
X88129976Y-115427549D01*
X88018787Y-115593955D01*
X87942199Y-115778855D01*
X87903155Y-115975144D01*
X87903155Y-116175278D01*
X87942199Y-116371567D01*
X88018787Y-116556467D01*
X88129976Y-116722873D01*
X88271493Y-116864390D01*
X88437899Y-116975579D01*
X88622799Y-117052167D01*
X88819088Y-117091211D01*
X89019222Y-117091211D01*
X89215511Y-117052167D01*
X89400411Y-116975579D01*
X89566817Y-116864390D01*
X89593996Y-116837211D01*
X93059700Y-116837211D01*
X92418728Y-117478183D01*
X92393748Y-117508621D01*
X89706041Y-120196329D01*
X89591256Y-120119632D01*
X89406356Y-120043044D01*
X89210067Y-120004000D01*
X89171631Y-120004000D01*
X87502000Y-118334370D01*
X87502000Y-108558930D01*
X92672045Y-103388886D01*
X92698001Y-103414842D01*
X92698000Y-104155159D01*
X92670821Y-104182338D01*
X92559632Y-104348744D01*
X92483044Y-104533644D01*
X92444000Y-104729933D01*
X92444000Y-104930067D01*
X92483044Y-105126356D01*
X92559632Y-105311256D01*
X92670821Y-105477662D01*
X92812338Y-105619179D01*
X92978744Y-105730368D01*
X93163644Y-105806956D01*
X93359933Y-105846000D01*
X93433311Y-105846000D01*
X93439630Y-105861256D01*
X93550819Y-106027662D01*
X93692336Y-106169179D01*
X93858742Y-106280368D01*
X94043642Y-106356956D01*
X94239931Y-106396000D01*
X94440065Y-106396000D01*
X94636354Y-106356956D01*
X94821254Y-106280368D01*
X94987660Y-106169179D01*
X95129177Y-106027662D01*
X95240366Y-105861256D01*
X95316954Y-105676356D01*
X95355998Y-105480067D01*
X95355998Y-105279933D01*
X95316954Y-105083644D01*
X95240366Y-104898744D01*
X95129177Y-104732338D01*
X95102000Y-104705161D01*
X95102000Y-102754840D01*
X95129179Y-102727661D01*
X95240368Y-102561255D01*
X95316956Y-102376355D01*
X95356000Y-102180066D01*
X95356000Y-101979932D01*
X95316956Y-101783643D01*
X95240368Y-101598743D01*
X95129179Y-101432337D01*
X94987662Y-101290820D01*
X94857249Y-101203681D01*
X98321686Y-97739244D01*
X98332482Y-97765308D01*
X98457569Y-97952515D01*
X98616775Y-98111721D01*
X98803982Y-98236808D01*
X99011994Y-98322970D01*
X99232819Y-98366895D01*
X99457971Y-98366895D01*
X99678796Y-98322970D01*
X99886808Y-98236808D01*
X100072258Y-98112895D01*
X100852445Y-98112895D01*
X100896105Y-98117195D01*
X100939765Y-98112895D01*
X100939772Y-98112895D01*
X101070379Y-98100031D01*
X101237956Y-98049198D01*
X101392396Y-97966648D01*
X101527764Y-97855554D01*
X101555604Y-97821631D01*
X116058236Y-83319000D01*
X119893137Y-83319000D01*
X119920081Y-83337003D01*
X119941709Y-83354753D01*
X119966386Y-83367943D01*
X120078587Y-83442913D01*
X120286599Y-83529075D01*
X120507424Y-83573000D01*
X120732576Y-83573000D01*
X120953401Y-83529075D01*
X121161413Y-83442913D01*
X121348620Y-83317826D01*
X121507826Y-83158620D01*
X121632913Y-82971413D01*
X121719075Y-82763401D01*
X121763000Y-82542576D01*
X121763000Y-82317424D01*
X121750857Y-82256378D01*
X130982410Y-73024825D01*
X131017120Y-73076771D01*
X131017120Y-73076771D01*
G37*
X131017120Y-73076771D02*
X131158637Y-73218288D01*
X131325043Y-73329477D01*
X131509943Y-73406065D01*
X131706232Y-73445109D01*
X131744669Y-73445109D01*
X132281910Y-73982351D01*
X132305768Y-74011422D01*
X132421798Y-74106645D01*
X132483922Y-74139851D01*
X132550415Y-74175392D01*
X132554175Y-74177402D01*
X132697812Y-74220974D01*
X132809764Y-74232000D01*
X132809766Y-74232000D01*
X132847189Y-74235686D01*
X132884612Y-74232000D01*
X139616950Y-74232000D01*
X140004293Y-74619344D01*
X139858744Y-74679632D01*
X139692338Y-74790821D01*
X139667626Y-74815533D01*
X139642577Y-74818000D01*
X139642574Y-74818000D01*
X139530622Y-74829026D01*
X139386985Y-74872598D01*
X139339697Y-74897874D01*
X139254607Y-74943355D01*
X139212219Y-74978143D01*
X139138578Y-75038578D01*
X139114716Y-75067654D01*
X131977654Y-82204716D01*
X131948578Y-82228578D01*
X131910788Y-82274626D01*
X131853355Y-82344608D01*
X131852941Y-82345383D01*
X131782598Y-82476986D01*
X131739026Y-82620623D01*
X131728000Y-82732574D01*
X131724314Y-82770000D01*
X131728000Y-82807424D01*
X131728001Y-84514368D01*
X131234370Y-85008000D01*
X129100373Y-85008000D01*
X129425939Y-84790464D01*
X129890464Y-84325939D01*
X130255439Y-83779715D01*
X130506838Y-83172784D01*
X130635000Y-82528469D01*
X130635000Y-81871531D01*
X130506838Y-81227216D01*
X130255439Y-80620285D01*
X129890464Y-80074061D01*
X129425939Y-79609536D01*
X128879715Y-79244561D01*
X128272784Y-78993162D01*
X127628469Y-78865000D01*
X126971531Y-78865000D01*
X126327216Y-78993162D01*
X125720285Y-79244561D01*
X125174061Y-79609536D01*
X124709536Y-80074061D01*
X124344561Y-80620285D01*
X124093162Y-81227216D01*
X123965000Y-81871531D01*
X123965000Y-82528469D01*
X124093162Y-83172784D01*
X124344561Y-83779715D01*
X124709536Y-84325939D01*
X125174061Y-84790464D01*
X125499627Y-85008000D01*
X123187415Y-85008000D01*
X123149999Y-85004315D01*
X123112583Y-85008000D01*
X123112574Y-85008000D01*
X123000622Y-85019026D01*
X122856985Y-85062598D01*
X122724608Y-85133355D01*
X122608578Y-85228578D01*
X122584721Y-85257648D01*
X94311662Y-113530708D01*
X92057324Y-113530708D01*
X92030145Y-113503529D01*
X91863739Y-113392340D01*
X91678839Y-113315752D01*
X91482550Y-113276708D01*
X91282416Y-113276708D01*
X91086127Y-113315752D01*
X90901227Y-113392340D01*
X90734821Y-113503529D01*
X90593304Y-113645046D01*
X90482115Y-113811452D01*
X90405527Y-113996352D01*
X90366483Y-114192641D01*
X90366483Y-114288312D01*
X90200067Y-114255210D01*
X89999933Y-114255210D01*
X89803644Y-114294254D01*
X89618744Y-114370842D01*
X89452338Y-114482031D01*
X89310821Y-114623548D01*
X89199632Y-114789954D01*
X89123044Y-114974854D01*
X89102952Y-115075866D01*
X89019222Y-115059211D01*
X88819088Y-115059211D01*
X88622799Y-115098255D01*
X88437899Y-115174843D01*
X88271493Y-115286032D01*
X88129976Y-115427549D01*
X88018787Y-115593955D01*
X87942199Y-115778855D01*
X87903155Y-115975144D01*
X87903155Y-116175278D01*
X87942199Y-116371567D01*
X88018787Y-116556467D01*
X88129976Y-116722873D01*
X88271493Y-116864390D01*
X88437899Y-116975579D01*
X88622799Y-117052167D01*
X88819088Y-117091211D01*
X89019222Y-117091211D01*
X89215511Y-117052167D01*
X89400411Y-116975579D01*
X89566817Y-116864390D01*
X89593996Y-116837211D01*
X93059700Y-116837211D01*
X92418728Y-117478183D01*
X92393748Y-117508621D01*
X89706041Y-120196329D01*
X89591256Y-120119632D01*
X89406356Y-120043044D01*
X89210067Y-120004000D01*
X89171631Y-120004000D01*
X87502000Y-118334370D01*
X87502000Y-108558930D01*
X92672045Y-103388886D01*
X92698001Y-103414842D01*
X92698000Y-104155159D01*
X92670821Y-104182338D01*
X92559632Y-104348744D01*
X92483044Y-104533644D01*
X92444000Y-104729933D01*
X92444000Y-104930067D01*
X92483044Y-105126356D01*
X92559632Y-105311256D01*
X92670821Y-105477662D01*
X92812338Y-105619179D01*
X92978744Y-105730368D01*
X93163644Y-105806956D01*
X93359933Y-105846000D01*
X93433311Y-105846000D01*
X93439630Y-105861256D01*
X93550819Y-106027662D01*
X93692336Y-106169179D01*
X93858742Y-106280368D01*
X94043642Y-106356956D01*
X94239931Y-106396000D01*
X94440065Y-106396000D01*
X94636354Y-106356956D01*
X94821254Y-106280368D01*
X94987660Y-106169179D01*
X95129177Y-106027662D01*
X95240366Y-105861256D01*
X95316954Y-105676356D01*
X95355998Y-105480067D01*
X95355998Y-105279933D01*
X95316954Y-105083644D01*
X95240366Y-104898744D01*
X95129177Y-104732338D01*
X95102000Y-104705161D01*
X95102000Y-102754840D01*
X95129179Y-102727661D01*
X95240368Y-102561255D01*
X95316956Y-102376355D01*
X95356000Y-102180066D01*
X95356000Y-101979932D01*
X95316956Y-101783643D01*
X95240368Y-101598743D01*
X95129179Y-101432337D01*
X94987662Y-101290820D01*
X94857249Y-101203681D01*
X98321686Y-97739244D01*
X98332482Y-97765308D01*
X98457569Y-97952515D01*
X98616775Y-98111721D01*
X98803982Y-98236808D01*
X99011994Y-98322970D01*
X99232819Y-98366895D01*
X99457971Y-98366895D01*
X99678796Y-98322970D01*
X99886808Y-98236808D01*
X100072258Y-98112895D01*
X100852445Y-98112895D01*
X100896105Y-98117195D01*
X100939765Y-98112895D01*
X100939772Y-98112895D01*
X101070379Y-98100031D01*
X101237956Y-98049198D01*
X101392396Y-97966648D01*
X101527764Y-97855554D01*
X101555604Y-97821631D01*
X116058236Y-83319000D01*
X119893137Y-83319000D01*
X119920081Y-83337003D01*
X119941709Y-83354753D01*
X119966386Y-83367943D01*
X120078587Y-83442913D01*
X120286599Y-83529075D01*
X120507424Y-83573000D01*
X120732576Y-83573000D01*
X120953401Y-83529075D01*
X121161413Y-83442913D01*
X121348620Y-83317826D01*
X121507826Y-83158620D01*
X121632913Y-82971413D01*
X121719075Y-82763401D01*
X121763000Y-82542576D01*
X121763000Y-82317424D01*
X121750857Y-82256378D01*
X130982410Y-73024825D01*
X131017120Y-73076771D01*
G36*
X166033601Y-101727830D02*
X166029300Y-101771500D01*
X166046464Y-101945774D01*
X166093400Y-102100502D01*
X166093400Y-102197876D01*
X166137325Y-102418701D01*
X166223487Y-102626713D01*
X166348574Y-102813920D01*
X166507780Y-102973126D01*
X166664753Y-103078012D01*
X165980059Y-103762706D01*
X165946142Y-103790541D01*
X165918307Y-103824458D01*
X165918305Y-103824460D01*
X165835048Y-103925909D01*
X165752498Y-104080348D01*
X165701664Y-104247926D01*
X165684500Y-104422200D01*
X165688801Y-104465870D01*
X165688800Y-109661169D01*
X163352351Y-107324721D01*
X163296579Y-107278950D01*
X163055284Y-107037655D01*
X163031422Y-107008578D01*
X162915392Y-106913355D01*
X162783015Y-106842598D01*
X162639378Y-106799026D01*
X162527426Y-106788000D01*
X162527423Y-106788000D01*
X162490000Y-106784314D01*
X162452577Y-106788000D01*
X161751052Y-106788000D01*
X161677979Y-106678638D01*
X161536462Y-106537121D01*
X161370056Y-106425932D01*
X161185156Y-106349344D01*
X160988867Y-106310300D01*
X160950430Y-106310300D01*
X159692000Y-105051870D01*
X159692000Y-102984074D01*
X159837422Y-103013000D01*
X160062574Y-103013000D01*
X160283399Y-102969075D01*
X160491411Y-102882913D01*
X160674225Y-102760761D01*
X160700000Y-102763300D01*
X160743660Y-102759000D01*
X160743667Y-102759000D01*
X160874274Y-102746136D01*
X161041851Y-102695303D01*
X161196291Y-102612753D01*
X161331659Y-102501659D01*
X161359499Y-102467736D01*
X165376288Y-98450948D01*
X165396356Y-98446956D01*
X165581256Y-98370368D01*
X165747662Y-98259179D01*
X165889179Y-98117662D01*
X166000368Y-97951256D01*
X166033601Y-97871025D01*
X166033601Y-101727830D01*
X166033601Y-101727830D01*
G37*
X166033601Y-101727830D02*
X166029300Y-101771500D01*
X166046464Y-101945774D01*
X166093400Y-102100502D01*
X166093400Y-102197876D01*
X166137325Y-102418701D01*
X166223487Y-102626713D01*
X166348574Y-102813920D01*
X166507780Y-102973126D01*
X166664753Y-103078012D01*
X165980059Y-103762706D01*
X165946142Y-103790541D01*
X165918307Y-103824458D01*
X165918305Y-103824460D01*
X165835048Y-103925909D01*
X165752498Y-104080348D01*
X165701664Y-104247926D01*
X165684500Y-104422200D01*
X165688801Y-104465870D01*
X165688800Y-109661169D01*
X163352351Y-107324721D01*
X163296579Y-107278950D01*
X163055284Y-107037655D01*
X163031422Y-107008578D01*
X162915392Y-106913355D01*
X162783015Y-106842598D01*
X162639378Y-106799026D01*
X162527426Y-106788000D01*
X162527423Y-106788000D01*
X162490000Y-106784314D01*
X162452577Y-106788000D01*
X161751052Y-106788000D01*
X161677979Y-106678638D01*
X161536462Y-106537121D01*
X161370056Y-106425932D01*
X161185156Y-106349344D01*
X160988867Y-106310300D01*
X160950430Y-106310300D01*
X159692000Y-105051870D01*
X159692000Y-102984074D01*
X159837422Y-103013000D01*
X160062574Y-103013000D01*
X160283399Y-102969075D01*
X160491411Y-102882913D01*
X160674225Y-102760761D01*
X160700000Y-102763300D01*
X160743660Y-102759000D01*
X160743667Y-102759000D01*
X160874274Y-102746136D01*
X161041851Y-102695303D01*
X161196291Y-102612753D01*
X161331659Y-102501659D01*
X161359499Y-102467736D01*
X165376288Y-98450948D01*
X165396356Y-98446956D01*
X165581256Y-98370368D01*
X165747662Y-98259179D01*
X165889179Y-98117662D01*
X166000368Y-97951256D01*
X166033601Y-97871025D01*
X166033601Y-101727830D01*
G36*
X165780012Y-90755548D02*
X165823525Y-90974301D01*
X165909687Y-91182313D01*
X166033600Y-91367763D01*
X166033601Y-97068975D01*
X166000368Y-96988744D01*
X165889179Y-96822338D01*
X165747662Y-96680821D01*
X165581256Y-96569632D01*
X165396356Y-96493044D01*
X165200067Y-96454000D01*
X164999933Y-96454000D01*
X164803644Y-96493044D01*
X164618744Y-96569632D01*
X164452338Y-96680821D01*
X164310821Y-96822338D01*
X164199632Y-96988744D01*
X164123044Y-97173644D01*
X164119052Y-97193712D01*
X160466144Y-100846621D01*
X160283399Y-100770925D01*
X160062574Y-100727000D01*
X159837422Y-100727000D01*
X159692000Y-100755926D01*
X159692000Y-89629000D01*
X164653465Y-89629000D01*
X165780012Y-90755548D01*
X165780012Y-90755548D01*
G37*
X165780012Y-90755548D02*
X165823525Y-90974301D01*
X165909687Y-91182313D01*
X166033600Y-91367763D01*
X166033601Y-97068975D01*
X166000368Y-96988744D01*
X165889179Y-96822338D01*
X165747662Y-96680821D01*
X165581256Y-96569632D01*
X165396356Y-96493044D01*
X165200067Y-96454000D01*
X164999933Y-96454000D01*
X164803644Y-96493044D01*
X164618744Y-96569632D01*
X164452338Y-96680821D01*
X164310821Y-96822338D01*
X164199632Y-96988744D01*
X164123044Y-97173644D01*
X164119052Y-97193712D01*
X160466144Y-100846621D01*
X160283399Y-100770925D01*
X160062574Y-100727000D01*
X159837422Y-100727000D01*
X159692000Y-100755926D01*
X159692000Y-89629000D01*
X164653465Y-89629000D01*
X165780012Y-90755548D01*
G36*
X154152600Y-95261831D02*
X154152600Y-95300267D01*
X154191644Y-95496556D01*
X154226570Y-95580874D01*
X154187290Y-95639659D01*
X151964285Y-93416655D01*
X151940423Y-93387579D01*
X151824393Y-93292356D01*
X151692016Y-93221599D01*
X151548379Y-93178027D01*
X151436427Y-93167001D01*
X151436424Y-93167001D01*
X151399001Y-93163315D01*
X151361578Y-93167001D01*
X149598422Y-93167001D01*
X149560999Y-93163315D01*
X149523576Y-93167001D01*
X149523573Y-93167001D01*
X149411621Y-93178027D01*
X149267984Y-93221599D01*
X149135607Y-93292356D01*
X149133604Y-93294000D01*
X149079933Y-93294000D01*
X148883644Y-93333044D01*
X148698744Y-93409632D01*
X148532338Y-93520821D01*
X148390821Y-93662338D01*
X148279632Y-93828744D01*
X148203044Y-94013644D01*
X148164000Y-94209933D01*
X148164000Y-94410067D01*
X148203044Y-94606356D01*
X148279632Y-94791256D01*
X148315575Y-94845048D01*
X148285167Y-94839000D01*
X148236631Y-94839000D01*
X147672000Y-94274370D01*
X147672000Y-88781230D01*
X154152600Y-95261831D01*
X154152600Y-95261831D01*
G37*
X154152600Y-95261831D02*
X154152600Y-95300267D01*
X154191644Y-95496556D01*
X154226570Y-95580874D01*
X154187290Y-95639659D01*
X151964285Y-93416655D01*
X151940423Y-93387579D01*
X151824393Y-93292356D01*
X151692016Y-93221599D01*
X151548379Y-93178027D01*
X151436427Y-93167001D01*
X151436424Y-93167001D01*
X151399001Y-93163315D01*
X151361578Y-93167001D01*
X149598422Y-93167001D01*
X149560999Y-93163315D01*
X149523576Y-93167001D01*
X149523573Y-93167001D01*
X149411621Y-93178027D01*
X149267984Y-93221599D01*
X149135607Y-93292356D01*
X149133604Y-93294000D01*
X149079933Y-93294000D01*
X148883644Y-93333044D01*
X148698744Y-93409632D01*
X148532338Y-93520821D01*
X148390821Y-93662338D01*
X148279632Y-93828744D01*
X148203044Y-94013644D01*
X148164000Y-94209933D01*
X148164000Y-94410067D01*
X148203044Y-94606356D01*
X148279632Y-94791256D01*
X148315575Y-94845048D01*
X148285167Y-94839000D01*
X148236631Y-94839000D01*
X147672000Y-94274370D01*
X147672000Y-88781230D01*
X154152600Y-95261831D01*
G36*
X133709211Y-83863381D02*
X133709211Y-83275011D01*
X139792223Y-77192000D01*
X140380591Y-77192000D01*
X133709211Y-83863381D01*
X133709211Y-83863381D01*
G37*
X133709211Y-83863381D02*
X133709211Y-83275011D01*
X139792223Y-77192000D01*
X140380591Y-77192000D01*
X133709211Y-83863381D01*
G36*
X121490925Y-78613401D02*
X121577087Y-78821413D01*
X121702174Y-79008620D01*
X121861380Y-79167826D01*
X122048587Y-79292913D01*
X122155547Y-79337218D01*
X120069820Y-81422945D01*
X119893137Y-81541000D01*
X115733660Y-81541000D01*
X115699591Y-81537645D01*
X118648236Y-78589000D01*
X121486071Y-78589000D01*
X121490925Y-78613401D01*
X121490925Y-78613401D01*
G37*
X121490925Y-78613401D02*
X121577087Y-78821413D01*
X121702174Y-79008620D01*
X121861380Y-79167826D01*
X122048587Y-79292913D01*
X122155547Y-79337218D01*
X120069820Y-81422945D01*
X119893137Y-81541000D01*
X115733660Y-81541000D01*
X115699591Y-81537645D01*
X118648236Y-78589000D01*
X121486071Y-78589000D01*
X121490925Y-78613401D01*
G36*
X123647218Y-77845547D02*
X123602913Y-77738587D01*
X123477826Y-77551380D01*
X123318620Y-77392174D01*
X123131413Y-77267087D01*
X122923401Y-77180925D01*
X122704647Y-77137412D01*
X122669499Y-77102264D01*
X122641659Y-77068341D01*
X122506291Y-76957247D01*
X122351851Y-76874697D01*
X122184274Y-76823864D01*
X122053667Y-76811000D01*
X122053660Y-76811000D01*
X122010000Y-76806700D01*
X121966340Y-76811000D01*
X121243630Y-76811000D01*
X121350368Y-76651256D01*
X121426956Y-76466356D01*
X121466000Y-76270067D01*
X121466000Y-76231630D01*
X122332347Y-75365283D01*
X122361422Y-75341422D01*
X122421857Y-75267781D01*
X122456645Y-75225393D01*
X122494805Y-75154000D01*
X122527402Y-75093015D01*
X122570974Y-74949378D01*
X122582000Y-74837426D01*
X122582000Y-74837423D01*
X122585686Y-74800000D01*
X122582000Y-74762577D01*
X122582000Y-72165630D01*
X124915630Y-69832000D01*
X131660765Y-69832000D01*
X123647218Y-77845547D01*
X123647218Y-77845547D01*
G37*
X123647218Y-77845547D02*
X123602913Y-77738587D01*
X123477826Y-77551380D01*
X123318620Y-77392174D01*
X123131413Y-77267087D01*
X122923401Y-77180925D01*
X122704647Y-77137412D01*
X122669499Y-77102264D01*
X122641659Y-77068341D01*
X122506291Y-76957247D01*
X122351851Y-76874697D01*
X122184274Y-76823864D01*
X122053667Y-76811000D01*
X122053660Y-76811000D01*
X122010000Y-76806700D01*
X121966340Y-76811000D01*
X121243630Y-76811000D01*
X121350368Y-76651256D01*
X121426956Y-76466356D01*
X121466000Y-76270067D01*
X121466000Y-76231630D01*
X122332347Y-75365283D01*
X122361422Y-75341422D01*
X122421857Y-75267781D01*
X122456645Y-75225393D01*
X122494805Y-75154000D01*
X122527402Y-75093015D01*
X122570974Y-74949378D01*
X122582000Y-74837426D01*
X122582000Y-74837423D01*
X122585686Y-74800000D01*
X122582000Y-74762577D01*
X122582000Y-72165630D01*
X124915630Y-69832000D01*
X131660765Y-69832000D01*
X123647218Y-77845547D01*
G36*
X76154000Y-76687267D02*
X76193044Y-76883556D01*
X76269632Y-77068456D01*
X76380821Y-77234862D01*
X76408000Y-77262041D01*
X76408001Y-88284368D01*
X74977654Y-89714716D01*
X74948578Y-89738578D01*
X74892983Y-89806322D01*
X74853355Y-89854608D01*
X74830083Y-89898147D01*
X74782598Y-89986986D01*
X74739026Y-90130623D01*
X74728000Y-90242574D01*
X74724314Y-90280000D01*
X74728000Y-90317423D01*
X74728001Y-92745158D01*
X74700821Y-92772338D01*
X74589632Y-92938744D01*
X74513044Y-93123644D01*
X74474000Y-93319933D01*
X74474000Y-93520067D01*
X74513044Y-93716356D01*
X74589632Y-93901256D01*
X74700821Y-94067662D01*
X74728000Y-94094841D01*
X74728001Y-108664369D01*
X74668370Y-108724000D01*
X74629933Y-108724000D01*
X74433644Y-108763044D01*
X74349900Y-108797732D01*
X74349900Y-96524841D01*
X74377079Y-96497662D01*
X74488268Y-96331256D01*
X74564856Y-96146356D01*
X74603900Y-95950067D01*
X74603900Y-95749933D01*
X74564856Y-95553644D01*
X74488268Y-95368744D01*
X74377079Y-95202338D01*
X74349900Y-95175159D01*
X74349900Y-76573300D01*
X76154000Y-76573300D01*
X76154000Y-76687267D01*
X76154000Y-76687267D01*
G37*
X76154000Y-76687267D02*
X76193044Y-76883556D01*
X76269632Y-77068456D01*
X76380821Y-77234862D01*
X76408000Y-77262041D01*
X76408001Y-88284368D01*
X74977654Y-89714716D01*
X74948578Y-89738578D01*
X74892983Y-89806322D01*
X74853355Y-89854608D01*
X74830083Y-89898147D01*
X74782598Y-89986986D01*
X74739026Y-90130623D01*
X74728000Y-90242574D01*
X74724314Y-90280000D01*
X74728000Y-90317423D01*
X74728001Y-92745158D01*
X74700821Y-92772338D01*
X74589632Y-92938744D01*
X74513044Y-93123644D01*
X74474000Y-93319933D01*
X74474000Y-93520067D01*
X74513044Y-93716356D01*
X74589632Y-93901256D01*
X74700821Y-94067662D01*
X74728000Y-94094841D01*
X74728001Y-108664369D01*
X74668370Y-108724000D01*
X74629933Y-108724000D01*
X74433644Y-108763044D01*
X74349900Y-108797732D01*
X74349900Y-96524841D01*
X74377079Y-96497662D01*
X74488268Y-96331256D01*
X74564856Y-96146356D01*
X74603900Y-95950067D01*
X74603900Y-95749933D01*
X74564856Y-95553644D01*
X74488268Y-95368744D01*
X74377079Y-95202338D01*
X74349900Y-95175159D01*
X74349900Y-76573300D01*
X76154000Y-76573300D01*
X76154000Y-76687267D01*
G04 #@! TD*
M02*
