G04 #@! TF.GenerationSoftware,KiCad,Pcbnew,5.1.4-e60b266~84~ubuntu18.04.1*
G04 #@! TF.CreationDate,2019-11-16T12:15:05+03:00*
G04 #@! TF.ProjectId,EV2400-EVM-Interface-Board,45563234-3030-42d4-9556-4d2d496e7465,v1.0*
G04 #@! TF.SameCoordinates,Original*
G04 #@! TF.FileFunction,Soldermask,Top*
G04 #@! TF.FilePolarity,Negative*
%FSLAX46Y46*%
G04 Gerber Fmt 4.6, Leading zero omitted, Abs format (unit mm)*
G04 Created by KiCad (PCBNEW 5.1.4-e60b266~84~ubuntu18.04.1) date 2019-11-16 12:15:05*
%MOMM*%
%LPD*%
G04 APERTURE LIST*
%ADD10C,0.100000*%
G04 APERTURE END LIST*
D10*
G36*
X169392798Y-124203247D02*
G01*
X169428367Y-124214037D01*
X169461139Y-124231554D01*
X169489869Y-124255131D01*
X169513446Y-124283861D01*
X169530963Y-124316633D01*
X169541753Y-124352202D01*
X169546000Y-124395325D01*
X169546000Y-125504675D01*
X169541753Y-125547798D01*
X169530963Y-125583367D01*
X169513446Y-125616139D01*
X169489869Y-125644869D01*
X169461139Y-125668446D01*
X169428367Y-125685963D01*
X169392798Y-125696753D01*
X169349675Y-125701000D01*
X168290325Y-125701000D01*
X168247202Y-125696753D01*
X168211633Y-125685963D01*
X168178861Y-125668446D01*
X168150131Y-125644869D01*
X168126554Y-125616139D01*
X168109037Y-125583367D01*
X168098247Y-125547798D01*
X168094000Y-125504675D01*
X168094000Y-124395325D01*
X168098247Y-124352202D01*
X168109037Y-124316633D01*
X168126554Y-124283861D01*
X168150131Y-124255131D01*
X168178861Y-124231554D01*
X168211633Y-124214037D01*
X168247202Y-124203247D01*
X168290325Y-124199000D01*
X169349675Y-124199000D01*
X169392798Y-124203247D01*
X169392798Y-124203247D01*
G37*
G36*
X185461600Y-125351600D02*
G01*
X182858400Y-125351600D01*
X182858400Y-122348400D01*
X185461600Y-122348400D01*
X185461600Y-125351600D01*
X185461600Y-125351600D01*
G37*
G36*
X174061600Y-125351600D02*
G01*
X171458400Y-125351600D01*
X171458400Y-122348400D01*
X174061600Y-122348400D01*
X174061600Y-125351600D01*
X174061600Y-125351600D01*
G37*
G36*
X178708228Y-123031703D02*
G01*
X178863100Y-123095853D01*
X179002481Y-123188985D01*
X179121015Y-123307519D01*
X179214147Y-123446900D01*
X179278297Y-123601772D01*
X179311000Y-123766184D01*
X179311000Y-123933816D01*
X179278297Y-124098228D01*
X179214147Y-124253100D01*
X179121015Y-124392481D01*
X179002481Y-124511015D01*
X178863100Y-124604147D01*
X178708228Y-124668297D01*
X178543816Y-124701000D01*
X178376184Y-124701000D01*
X178211772Y-124668297D01*
X178056900Y-124604147D01*
X177917519Y-124511015D01*
X177798985Y-124392481D01*
X177705853Y-124253100D01*
X177641703Y-124098228D01*
X177609000Y-123933816D01*
X177609000Y-123766184D01*
X177641703Y-123601772D01*
X177705853Y-123446900D01*
X177798985Y-123307519D01*
X177917519Y-123188985D01*
X178056900Y-123095853D01*
X178211772Y-123031703D01*
X178376184Y-122999000D01*
X178543816Y-122999000D01*
X178708228Y-123031703D01*
X178708228Y-123031703D01*
G37*
G36*
X120829591Y-123153085D02*
G01*
X120863569Y-123163393D01*
X120894890Y-123180134D01*
X120922339Y-123202661D01*
X120944866Y-123230110D01*
X120961607Y-123261431D01*
X120971915Y-123295409D01*
X120976000Y-123336890D01*
X120976000Y-123938110D01*
X120971915Y-123979591D01*
X120961607Y-124013569D01*
X120944866Y-124044890D01*
X120922339Y-124072339D01*
X120894890Y-124094866D01*
X120863569Y-124111607D01*
X120829591Y-124121915D01*
X120788110Y-124126000D01*
X120111890Y-124126000D01*
X120070409Y-124121915D01*
X120036431Y-124111607D01*
X120005110Y-124094866D01*
X119977661Y-124072339D01*
X119955134Y-124044890D01*
X119938393Y-124013569D01*
X119928085Y-123979591D01*
X119924000Y-123938110D01*
X119924000Y-123336890D01*
X119928085Y-123295409D01*
X119938393Y-123261431D01*
X119955134Y-123230110D01*
X119977661Y-123202661D01*
X120005110Y-123180134D01*
X120036431Y-123163393D01*
X120070409Y-123153085D01*
X120111890Y-123149000D01*
X120788110Y-123149000D01*
X120829591Y-123153085D01*
X120829591Y-123153085D01*
G37*
G36*
X109979591Y-123103085D02*
G01*
X110013569Y-123113393D01*
X110044890Y-123130134D01*
X110072339Y-123152661D01*
X110094866Y-123180110D01*
X110111607Y-123211431D01*
X110121915Y-123245409D01*
X110126000Y-123286890D01*
X110126000Y-123888110D01*
X110121915Y-123929591D01*
X110111607Y-123963569D01*
X110094866Y-123994890D01*
X110072339Y-124022339D01*
X110044890Y-124044866D01*
X110013569Y-124061607D01*
X109979591Y-124071915D01*
X109938110Y-124076000D01*
X109261890Y-124076000D01*
X109220409Y-124071915D01*
X109186431Y-124061607D01*
X109155110Y-124044866D01*
X109127661Y-124022339D01*
X109105134Y-123994890D01*
X109088393Y-123963569D01*
X109078085Y-123929591D01*
X109074000Y-123888110D01*
X109074000Y-123286890D01*
X109078085Y-123245409D01*
X109088393Y-123211431D01*
X109105134Y-123180110D01*
X109127661Y-123152661D01*
X109155110Y-123130134D01*
X109186431Y-123113393D01*
X109220409Y-123103085D01*
X109261890Y-123099000D01*
X109938110Y-123099000D01*
X109979591Y-123103085D01*
X109979591Y-123103085D01*
G37*
G36*
X105301000Y-123951000D02*
G01*
X103699000Y-123951000D01*
X103699000Y-121449000D01*
X105301000Y-121449000D01*
X105301000Y-123951000D01*
X105301000Y-123951000D01*
G37*
G36*
X102301000Y-123951000D02*
G01*
X100699000Y-123951000D01*
X100699000Y-121449000D01*
X102301000Y-121449000D01*
X102301000Y-123951000D01*
X102301000Y-123951000D01*
G37*
G36*
X116301000Y-123951000D02*
G01*
X114699000Y-123951000D01*
X114699000Y-121449000D01*
X116301000Y-121449000D01*
X116301000Y-123951000D01*
X116301000Y-123951000D01*
G37*
G36*
X113301000Y-123951000D02*
G01*
X111699000Y-123951000D01*
X111699000Y-121449000D01*
X113301000Y-121449000D01*
X113301000Y-123951000D01*
X113301000Y-123951000D01*
G37*
G36*
X124301000Y-123951000D02*
G01*
X122699000Y-123951000D01*
X122699000Y-121449000D01*
X124301000Y-121449000D01*
X124301000Y-123951000D01*
X124301000Y-123951000D01*
G37*
G36*
X127301000Y-123951000D02*
G01*
X125699000Y-123951000D01*
X125699000Y-121449000D01*
X127301000Y-121449000D01*
X127301000Y-123951000D01*
X127301000Y-123951000D01*
G37*
G36*
X169392798Y-121503247D02*
G01*
X169428367Y-121514037D01*
X169461139Y-121531554D01*
X169489869Y-121555131D01*
X169513446Y-121583861D01*
X169530963Y-121616633D01*
X169541753Y-121652202D01*
X169546000Y-121695325D01*
X169546000Y-122804675D01*
X169541753Y-122847798D01*
X169530963Y-122883367D01*
X169513446Y-122916139D01*
X169489869Y-122944869D01*
X169461139Y-122968446D01*
X169428367Y-122985963D01*
X169392798Y-122996753D01*
X169349675Y-123001000D01*
X168290325Y-123001000D01*
X168247202Y-122996753D01*
X168211633Y-122985963D01*
X168178861Y-122968446D01*
X168150131Y-122944869D01*
X168126554Y-122916139D01*
X168109037Y-122883367D01*
X168098247Y-122847798D01*
X168094000Y-122804675D01*
X168094000Y-121695325D01*
X168098247Y-121652202D01*
X168109037Y-121616633D01*
X168126554Y-121583861D01*
X168150131Y-121555131D01*
X168178861Y-121531554D01*
X168211633Y-121514037D01*
X168247202Y-121503247D01*
X168290325Y-121499000D01*
X169349675Y-121499000D01*
X169392798Y-121503247D01*
X169392798Y-121503247D01*
G37*
G36*
X120829591Y-121578085D02*
G01*
X120863569Y-121588393D01*
X120894890Y-121605134D01*
X120922339Y-121627661D01*
X120944866Y-121655110D01*
X120961607Y-121686431D01*
X120971915Y-121720409D01*
X120976000Y-121761890D01*
X120976000Y-122363110D01*
X120971915Y-122404591D01*
X120961607Y-122438569D01*
X120944866Y-122469890D01*
X120922339Y-122497339D01*
X120894890Y-122519866D01*
X120863569Y-122536607D01*
X120829591Y-122546915D01*
X120788110Y-122551000D01*
X120111890Y-122551000D01*
X120070409Y-122546915D01*
X120036431Y-122536607D01*
X120005110Y-122519866D01*
X119977661Y-122497339D01*
X119955134Y-122469890D01*
X119938393Y-122438569D01*
X119928085Y-122404591D01*
X119924000Y-122363110D01*
X119924000Y-121761890D01*
X119928085Y-121720409D01*
X119938393Y-121686431D01*
X119955134Y-121655110D01*
X119977661Y-121627661D01*
X120005110Y-121605134D01*
X120036431Y-121588393D01*
X120070409Y-121578085D01*
X120111890Y-121574000D01*
X120788110Y-121574000D01*
X120829591Y-121578085D01*
X120829591Y-121578085D01*
G37*
G36*
X109979591Y-121528085D02*
G01*
X110013569Y-121538393D01*
X110044890Y-121555134D01*
X110072339Y-121577661D01*
X110094866Y-121605110D01*
X110111607Y-121636431D01*
X110121915Y-121670409D01*
X110126000Y-121711890D01*
X110126000Y-122313110D01*
X110121915Y-122354591D01*
X110111607Y-122388569D01*
X110094866Y-122419890D01*
X110072339Y-122447339D01*
X110044890Y-122469866D01*
X110013569Y-122486607D01*
X109979591Y-122496915D01*
X109938110Y-122501000D01*
X109261890Y-122501000D01*
X109220409Y-122496915D01*
X109186431Y-122486607D01*
X109155110Y-122469866D01*
X109127661Y-122447339D01*
X109105134Y-122419890D01*
X109088393Y-122388569D01*
X109078085Y-122354591D01*
X109074000Y-122313110D01*
X109074000Y-121711890D01*
X109078085Y-121670409D01*
X109088393Y-121636431D01*
X109105134Y-121605110D01*
X109127661Y-121577661D01*
X109155110Y-121555134D01*
X109186431Y-121538393D01*
X109220409Y-121528085D01*
X109261890Y-121524000D01*
X109938110Y-121524000D01*
X109979591Y-121528085D01*
X109979591Y-121528085D01*
G37*
G36*
X178708228Y-118531703D02*
G01*
X178863100Y-118595853D01*
X179002481Y-118688985D01*
X179121015Y-118807519D01*
X179214147Y-118946900D01*
X179278297Y-119101772D01*
X179311000Y-119266184D01*
X179311000Y-119433816D01*
X179278297Y-119598228D01*
X179214147Y-119753100D01*
X179121015Y-119892481D01*
X179002481Y-120011015D01*
X178863100Y-120104147D01*
X178708228Y-120168297D01*
X178543816Y-120201000D01*
X178376184Y-120201000D01*
X178211772Y-120168297D01*
X178056900Y-120104147D01*
X177917519Y-120011015D01*
X177798985Y-119892481D01*
X177705853Y-119753100D01*
X177641703Y-119598228D01*
X177609000Y-119433816D01*
X177609000Y-119266184D01*
X177641703Y-119101772D01*
X177705853Y-118946900D01*
X177798985Y-118807519D01*
X177917519Y-118688985D01*
X178056900Y-118595853D01*
X178211772Y-118531703D01*
X178376184Y-118499000D01*
X178543816Y-118499000D01*
X178708228Y-118531703D01*
X178708228Y-118531703D01*
G37*
G36*
X101859591Y-119013085D02*
G01*
X101893569Y-119023393D01*
X101924890Y-119040134D01*
X101952339Y-119062661D01*
X101974866Y-119090110D01*
X101991607Y-119121431D01*
X102001915Y-119155409D01*
X102006000Y-119196890D01*
X102006000Y-119798110D01*
X102001915Y-119839591D01*
X101991607Y-119873569D01*
X101974866Y-119904890D01*
X101952339Y-119932339D01*
X101924890Y-119954866D01*
X101893569Y-119971607D01*
X101859591Y-119981915D01*
X101818110Y-119986000D01*
X101141890Y-119986000D01*
X101100409Y-119981915D01*
X101066431Y-119971607D01*
X101035110Y-119954866D01*
X101007661Y-119932339D01*
X100985134Y-119904890D01*
X100968393Y-119873569D01*
X100958085Y-119839591D01*
X100954000Y-119798110D01*
X100954000Y-119196890D01*
X100958085Y-119155409D01*
X100968393Y-119121431D01*
X100985134Y-119090110D01*
X101007661Y-119062661D01*
X101035110Y-119040134D01*
X101066431Y-119023393D01*
X101100409Y-119013085D01*
X101141890Y-119009000D01*
X101818110Y-119009000D01*
X101859591Y-119013085D01*
X101859591Y-119013085D01*
G37*
G36*
X148410442Y-117905518D02*
G01*
X148476627Y-117912037D01*
X148646466Y-117963557D01*
X148802991Y-118047222D01*
X148838729Y-118076552D01*
X148940186Y-118159814D01*
X149012538Y-118247977D01*
X149052778Y-118297009D01*
X149136443Y-118453534D01*
X149187963Y-118623373D01*
X149205359Y-118800000D01*
X149187963Y-118976627D01*
X149145214Y-119117552D01*
X149136442Y-119146468D01*
X149109491Y-119196890D01*
X149052778Y-119302991D01*
X149023448Y-119338729D01*
X148940186Y-119440186D01*
X148838729Y-119523448D01*
X148802991Y-119552778D01*
X148646466Y-119636443D01*
X148476627Y-119687963D01*
X148410442Y-119694482D01*
X148344260Y-119701000D01*
X148255740Y-119701000D01*
X148189558Y-119694482D01*
X148123373Y-119687963D01*
X147953534Y-119636443D01*
X147797009Y-119552778D01*
X147761271Y-119523448D01*
X147659814Y-119440186D01*
X147576552Y-119338729D01*
X147547222Y-119302991D01*
X147490509Y-119196890D01*
X147463558Y-119146468D01*
X147454786Y-119117552D01*
X147412037Y-118976627D01*
X147394641Y-118800000D01*
X147412037Y-118623373D01*
X147463557Y-118453534D01*
X147547222Y-118297009D01*
X147587462Y-118247977D01*
X147659814Y-118159814D01*
X147761271Y-118076552D01*
X147797009Y-118047222D01*
X147953534Y-117963557D01*
X148123373Y-117912037D01*
X148189558Y-117905518D01*
X148255740Y-117899000D01*
X148344260Y-117899000D01*
X148410442Y-117905518D01*
X148410442Y-117905518D01*
G37*
G36*
X163650442Y-117905518D02*
G01*
X163716627Y-117912037D01*
X163886466Y-117963557D01*
X164042991Y-118047222D01*
X164078729Y-118076552D01*
X164180186Y-118159814D01*
X164252538Y-118247977D01*
X164292778Y-118297009D01*
X164376443Y-118453534D01*
X164427963Y-118623373D01*
X164445359Y-118800000D01*
X164427963Y-118976627D01*
X164385214Y-119117552D01*
X164376442Y-119146468D01*
X164349491Y-119196890D01*
X164292778Y-119302991D01*
X164263448Y-119338729D01*
X164180186Y-119440186D01*
X164078729Y-119523448D01*
X164042991Y-119552778D01*
X163886466Y-119636443D01*
X163716627Y-119687963D01*
X163650442Y-119694482D01*
X163584260Y-119701000D01*
X163495740Y-119701000D01*
X163429558Y-119694482D01*
X163363373Y-119687963D01*
X163193534Y-119636443D01*
X163037009Y-119552778D01*
X163001271Y-119523448D01*
X162899814Y-119440186D01*
X162816552Y-119338729D01*
X162787222Y-119302991D01*
X162730509Y-119196890D01*
X162703558Y-119146468D01*
X162694786Y-119117552D01*
X162652037Y-118976627D01*
X162634641Y-118800000D01*
X162652037Y-118623373D01*
X162703557Y-118453534D01*
X162787222Y-118297009D01*
X162827462Y-118247977D01*
X162899814Y-118159814D01*
X163001271Y-118076552D01*
X163037009Y-118047222D01*
X163193534Y-117963557D01*
X163363373Y-117912037D01*
X163429558Y-117905518D01*
X163495740Y-117899000D01*
X163584260Y-117899000D01*
X163650442Y-117905518D01*
X163650442Y-117905518D01*
G37*
G36*
X143330442Y-117905518D02*
G01*
X143396627Y-117912037D01*
X143566466Y-117963557D01*
X143722991Y-118047222D01*
X143758729Y-118076552D01*
X143860186Y-118159814D01*
X143932538Y-118247977D01*
X143972778Y-118297009D01*
X144056443Y-118453534D01*
X144107963Y-118623373D01*
X144125359Y-118800000D01*
X144107963Y-118976627D01*
X144065214Y-119117552D01*
X144056442Y-119146468D01*
X144029491Y-119196890D01*
X143972778Y-119302991D01*
X143943448Y-119338729D01*
X143860186Y-119440186D01*
X143758729Y-119523448D01*
X143722991Y-119552778D01*
X143566466Y-119636443D01*
X143396627Y-119687963D01*
X143330442Y-119694482D01*
X143264260Y-119701000D01*
X143175740Y-119701000D01*
X143109558Y-119694482D01*
X143043373Y-119687963D01*
X142873534Y-119636443D01*
X142717009Y-119552778D01*
X142681271Y-119523448D01*
X142579814Y-119440186D01*
X142496552Y-119338729D01*
X142467222Y-119302991D01*
X142410509Y-119196890D01*
X142383558Y-119146468D01*
X142374786Y-119117552D01*
X142332037Y-118976627D01*
X142314641Y-118800000D01*
X142332037Y-118623373D01*
X142383557Y-118453534D01*
X142467222Y-118297009D01*
X142507462Y-118247977D01*
X142579814Y-118159814D01*
X142681271Y-118076552D01*
X142717009Y-118047222D01*
X142873534Y-117963557D01*
X143043373Y-117912037D01*
X143109558Y-117905518D01*
X143175740Y-117899000D01*
X143264260Y-117899000D01*
X143330442Y-117905518D01*
X143330442Y-117905518D01*
G37*
G36*
X140790442Y-117905518D02*
G01*
X140856627Y-117912037D01*
X141026466Y-117963557D01*
X141182991Y-118047222D01*
X141218729Y-118076552D01*
X141320186Y-118159814D01*
X141392538Y-118247977D01*
X141432778Y-118297009D01*
X141516443Y-118453534D01*
X141567963Y-118623373D01*
X141585359Y-118800000D01*
X141567963Y-118976627D01*
X141525214Y-119117552D01*
X141516442Y-119146468D01*
X141489491Y-119196890D01*
X141432778Y-119302991D01*
X141403448Y-119338729D01*
X141320186Y-119440186D01*
X141218729Y-119523448D01*
X141182991Y-119552778D01*
X141026466Y-119636443D01*
X140856627Y-119687963D01*
X140790442Y-119694482D01*
X140724260Y-119701000D01*
X140635740Y-119701000D01*
X140569558Y-119694482D01*
X140503373Y-119687963D01*
X140333534Y-119636443D01*
X140177009Y-119552778D01*
X140141271Y-119523448D01*
X140039814Y-119440186D01*
X139956552Y-119338729D01*
X139927222Y-119302991D01*
X139870509Y-119196890D01*
X139843558Y-119146468D01*
X139834786Y-119117552D01*
X139792037Y-118976627D01*
X139774641Y-118800000D01*
X139792037Y-118623373D01*
X139843557Y-118453534D01*
X139927222Y-118297009D01*
X139967462Y-118247977D01*
X140039814Y-118159814D01*
X140141271Y-118076552D01*
X140177009Y-118047222D01*
X140333534Y-117963557D01*
X140503373Y-117912037D01*
X140569558Y-117905518D01*
X140635740Y-117899000D01*
X140724260Y-117899000D01*
X140790442Y-117905518D01*
X140790442Y-117905518D01*
G37*
G36*
X150950442Y-117905518D02*
G01*
X151016627Y-117912037D01*
X151186466Y-117963557D01*
X151342991Y-118047222D01*
X151378729Y-118076552D01*
X151480186Y-118159814D01*
X151552538Y-118247977D01*
X151592778Y-118297009D01*
X151676443Y-118453534D01*
X151727963Y-118623373D01*
X151745359Y-118800000D01*
X151727963Y-118976627D01*
X151685214Y-119117552D01*
X151676442Y-119146468D01*
X151649491Y-119196890D01*
X151592778Y-119302991D01*
X151563448Y-119338729D01*
X151480186Y-119440186D01*
X151378729Y-119523448D01*
X151342991Y-119552778D01*
X151186466Y-119636443D01*
X151016627Y-119687963D01*
X150950442Y-119694482D01*
X150884260Y-119701000D01*
X150795740Y-119701000D01*
X150729558Y-119694482D01*
X150663373Y-119687963D01*
X150493534Y-119636443D01*
X150337009Y-119552778D01*
X150301271Y-119523448D01*
X150199814Y-119440186D01*
X150116552Y-119338729D01*
X150087222Y-119302991D01*
X150030509Y-119196890D01*
X150003558Y-119146468D01*
X149994786Y-119117552D01*
X149952037Y-118976627D01*
X149934641Y-118800000D01*
X149952037Y-118623373D01*
X150003557Y-118453534D01*
X150087222Y-118297009D01*
X150127462Y-118247977D01*
X150199814Y-118159814D01*
X150301271Y-118076552D01*
X150337009Y-118047222D01*
X150493534Y-117963557D01*
X150663373Y-117912037D01*
X150729558Y-117905518D01*
X150795740Y-117899000D01*
X150884260Y-117899000D01*
X150950442Y-117905518D01*
X150950442Y-117905518D01*
G37*
G36*
X153490442Y-117905518D02*
G01*
X153556627Y-117912037D01*
X153726466Y-117963557D01*
X153882991Y-118047222D01*
X153918729Y-118076552D01*
X154020186Y-118159814D01*
X154092538Y-118247977D01*
X154132778Y-118297009D01*
X154216443Y-118453534D01*
X154267963Y-118623373D01*
X154285359Y-118800000D01*
X154267963Y-118976627D01*
X154225214Y-119117552D01*
X154216442Y-119146468D01*
X154189491Y-119196890D01*
X154132778Y-119302991D01*
X154103448Y-119338729D01*
X154020186Y-119440186D01*
X153918729Y-119523448D01*
X153882991Y-119552778D01*
X153726466Y-119636443D01*
X153556627Y-119687963D01*
X153490442Y-119694482D01*
X153424260Y-119701000D01*
X153335740Y-119701000D01*
X153269558Y-119694482D01*
X153203373Y-119687963D01*
X153033534Y-119636443D01*
X152877009Y-119552778D01*
X152841271Y-119523448D01*
X152739814Y-119440186D01*
X152656552Y-119338729D01*
X152627222Y-119302991D01*
X152570509Y-119196890D01*
X152543558Y-119146468D01*
X152534786Y-119117552D01*
X152492037Y-118976627D01*
X152474641Y-118800000D01*
X152492037Y-118623373D01*
X152543557Y-118453534D01*
X152627222Y-118297009D01*
X152667462Y-118247977D01*
X152739814Y-118159814D01*
X152841271Y-118076552D01*
X152877009Y-118047222D01*
X153033534Y-117963557D01*
X153203373Y-117912037D01*
X153269558Y-117905518D01*
X153335740Y-117899000D01*
X153424260Y-117899000D01*
X153490442Y-117905518D01*
X153490442Y-117905518D01*
G37*
G36*
X156030442Y-117905518D02*
G01*
X156096627Y-117912037D01*
X156266466Y-117963557D01*
X156422991Y-118047222D01*
X156458729Y-118076552D01*
X156560186Y-118159814D01*
X156632538Y-118247977D01*
X156672778Y-118297009D01*
X156756443Y-118453534D01*
X156807963Y-118623373D01*
X156825359Y-118800000D01*
X156807963Y-118976627D01*
X156765214Y-119117552D01*
X156756442Y-119146468D01*
X156729491Y-119196890D01*
X156672778Y-119302991D01*
X156643448Y-119338729D01*
X156560186Y-119440186D01*
X156458729Y-119523448D01*
X156422991Y-119552778D01*
X156266466Y-119636443D01*
X156096627Y-119687963D01*
X156030442Y-119694482D01*
X155964260Y-119701000D01*
X155875740Y-119701000D01*
X155809558Y-119694482D01*
X155743373Y-119687963D01*
X155573534Y-119636443D01*
X155417009Y-119552778D01*
X155381271Y-119523448D01*
X155279814Y-119440186D01*
X155196552Y-119338729D01*
X155167222Y-119302991D01*
X155110509Y-119196890D01*
X155083558Y-119146468D01*
X155074786Y-119117552D01*
X155032037Y-118976627D01*
X155014641Y-118800000D01*
X155032037Y-118623373D01*
X155083557Y-118453534D01*
X155167222Y-118297009D01*
X155207462Y-118247977D01*
X155279814Y-118159814D01*
X155381271Y-118076552D01*
X155417009Y-118047222D01*
X155573534Y-117963557D01*
X155743373Y-117912037D01*
X155809558Y-117905518D01*
X155875740Y-117899000D01*
X155964260Y-117899000D01*
X156030442Y-117905518D01*
X156030442Y-117905518D01*
G37*
G36*
X136501000Y-119701000D02*
G01*
X134699000Y-119701000D01*
X134699000Y-117899000D01*
X136501000Y-117899000D01*
X136501000Y-119701000D01*
X136501000Y-119701000D01*
G37*
G36*
X158570442Y-117905518D02*
G01*
X158636627Y-117912037D01*
X158806466Y-117963557D01*
X158962991Y-118047222D01*
X158998729Y-118076552D01*
X159100186Y-118159814D01*
X159172538Y-118247977D01*
X159212778Y-118297009D01*
X159296443Y-118453534D01*
X159347963Y-118623373D01*
X159365359Y-118800000D01*
X159347963Y-118976627D01*
X159305214Y-119117552D01*
X159296442Y-119146468D01*
X159269491Y-119196890D01*
X159212778Y-119302991D01*
X159183448Y-119338729D01*
X159100186Y-119440186D01*
X158998729Y-119523448D01*
X158962991Y-119552778D01*
X158806466Y-119636443D01*
X158636627Y-119687963D01*
X158570442Y-119694482D01*
X158504260Y-119701000D01*
X158415740Y-119701000D01*
X158349558Y-119694482D01*
X158283373Y-119687963D01*
X158113534Y-119636443D01*
X157957009Y-119552778D01*
X157921271Y-119523448D01*
X157819814Y-119440186D01*
X157736552Y-119338729D01*
X157707222Y-119302991D01*
X157650509Y-119196890D01*
X157623558Y-119146468D01*
X157614786Y-119117552D01*
X157572037Y-118976627D01*
X157554641Y-118800000D01*
X157572037Y-118623373D01*
X157623557Y-118453534D01*
X157707222Y-118297009D01*
X157747462Y-118247977D01*
X157819814Y-118159814D01*
X157921271Y-118076552D01*
X157957009Y-118047222D01*
X158113534Y-117963557D01*
X158283373Y-117912037D01*
X158349558Y-117905518D01*
X158415740Y-117899000D01*
X158504260Y-117899000D01*
X158570442Y-117905518D01*
X158570442Y-117905518D01*
G37*
G36*
X138250442Y-117905518D02*
G01*
X138316627Y-117912037D01*
X138486466Y-117963557D01*
X138642991Y-118047222D01*
X138678729Y-118076552D01*
X138780186Y-118159814D01*
X138852538Y-118247977D01*
X138892778Y-118297009D01*
X138976443Y-118453534D01*
X139027963Y-118623373D01*
X139045359Y-118800000D01*
X139027963Y-118976627D01*
X138985214Y-119117552D01*
X138976442Y-119146468D01*
X138949491Y-119196890D01*
X138892778Y-119302991D01*
X138863448Y-119338729D01*
X138780186Y-119440186D01*
X138678729Y-119523448D01*
X138642991Y-119552778D01*
X138486466Y-119636443D01*
X138316627Y-119687963D01*
X138250442Y-119694482D01*
X138184260Y-119701000D01*
X138095740Y-119701000D01*
X138029558Y-119694482D01*
X137963373Y-119687963D01*
X137793534Y-119636443D01*
X137637009Y-119552778D01*
X137601271Y-119523448D01*
X137499814Y-119440186D01*
X137416552Y-119338729D01*
X137387222Y-119302991D01*
X137330509Y-119196890D01*
X137303558Y-119146468D01*
X137294786Y-119117552D01*
X137252037Y-118976627D01*
X137234641Y-118800000D01*
X137252037Y-118623373D01*
X137303557Y-118453534D01*
X137387222Y-118297009D01*
X137427462Y-118247977D01*
X137499814Y-118159814D01*
X137601271Y-118076552D01*
X137637009Y-118047222D01*
X137793534Y-117963557D01*
X137963373Y-117912037D01*
X138029558Y-117905518D01*
X138095740Y-117899000D01*
X138184260Y-117899000D01*
X138250442Y-117905518D01*
X138250442Y-117905518D01*
G37*
G36*
X161110442Y-117905518D02*
G01*
X161176627Y-117912037D01*
X161346466Y-117963557D01*
X161502991Y-118047222D01*
X161538729Y-118076552D01*
X161640186Y-118159814D01*
X161712538Y-118247977D01*
X161752778Y-118297009D01*
X161836443Y-118453534D01*
X161887963Y-118623373D01*
X161905359Y-118800000D01*
X161887963Y-118976627D01*
X161845214Y-119117552D01*
X161836442Y-119146468D01*
X161809491Y-119196890D01*
X161752778Y-119302991D01*
X161723448Y-119338729D01*
X161640186Y-119440186D01*
X161538729Y-119523448D01*
X161502991Y-119552778D01*
X161346466Y-119636443D01*
X161176627Y-119687963D01*
X161110442Y-119694482D01*
X161044260Y-119701000D01*
X160955740Y-119701000D01*
X160889558Y-119694482D01*
X160823373Y-119687963D01*
X160653534Y-119636443D01*
X160497009Y-119552778D01*
X160461271Y-119523448D01*
X160359814Y-119440186D01*
X160276552Y-119338729D01*
X160247222Y-119302991D01*
X160190509Y-119196890D01*
X160163558Y-119146468D01*
X160154786Y-119117552D01*
X160112037Y-118976627D01*
X160094641Y-118800000D01*
X160112037Y-118623373D01*
X160163557Y-118453534D01*
X160247222Y-118297009D01*
X160287462Y-118247977D01*
X160359814Y-118159814D01*
X160461271Y-118076552D01*
X160497009Y-118047222D01*
X160653534Y-117963557D01*
X160823373Y-117912037D01*
X160889558Y-117905518D01*
X160955740Y-117899000D01*
X161044260Y-117899000D01*
X161110442Y-117905518D01*
X161110442Y-117905518D01*
G37*
G36*
X145870442Y-117905518D02*
G01*
X145936627Y-117912037D01*
X146106466Y-117963557D01*
X146262991Y-118047222D01*
X146298729Y-118076552D01*
X146400186Y-118159814D01*
X146472538Y-118247977D01*
X146512778Y-118297009D01*
X146596443Y-118453534D01*
X146647963Y-118623373D01*
X146665359Y-118800000D01*
X146647963Y-118976627D01*
X146605214Y-119117552D01*
X146596442Y-119146468D01*
X146569491Y-119196890D01*
X146512778Y-119302991D01*
X146483448Y-119338729D01*
X146400186Y-119440186D01*
X146298729Y-119523448D01*
X146262991Y-119552778D01*
X146106466Y-119636443D01*
X145936627Y-119687963D01*
X145870442Y-119694482D01*
X145804260Y-119701000D01*
X145715740Y-119701000D01*
X145649558Y-119694482D01*
X145583373Y-119687963D01*
X145413534Y-119636443D01*
X145257009Y-119552778D01*
X145221271Y-119523448D01*
X145119814Y-119440186D01*
X145036552Y-119338729D01*
X145007222Y-119302991D01*
X144950509Y-119196890D01*
X144923558Y-119146468D01*
X144914786Y-119117552D01*
X144872037Y-118976627D01*
X144854641Y-118800000D01*
X144872037Y-118623373D01*
X144923557Y-118453534D01*
X145007222Y-118297009D01*
X145047462Y-118247977D01*
X145119814Y-118159814D01*
X145221271Y-118076552D01*
X145257009Y-118047222D01*
X145413534Y-117963557D01*
X145583373Y-117912037D01*
X145649558Y-117905518D01*
X145715740Y-117899000D01*
X145804260Y-117899000D01*
X145870442Y-117905518D01*
X145870442Y-117905518D01*
G37*
G36*
X174061600Y-119151600D02*
G01*
X171458400Y-119151600D01*
X171458400Y-116148400D01*
X174061600Y-116148400D01*
X174061600Y-119151600D01*
X174061600Y-119151600D01*
G37*
G36*
X185461600Y-119151600D02*
G01*
X182858400Y-119151600D01*
X182858400Y-116148400D01*
X185461600Y-116148400D01*
X185461600Y-119151600D01*
X185461600Y-119151600D01*
G37*
G36*
X112162562Y-112534227D02*
G01*
X112476605Y-112596694D01*
X113068249Y-112841761D01*
X113600715Y-113197544D01*
X114053539Y-113650368D01*
X114409322Y-114182834D01*
X114654389Y-114774478D01*
X114654389Y-114774479D01*
X114779323Y-115402563D01*
X114779323Y-116042957D01*
X114736150Y-116260000D01*
X114654389Y-116671042D01*
X114409322Y-117262686D01*
X114053539Y-117795152D01*
X113600715Y-118247976D01*
X113068249Y-118603759D01*
X112476605Y-118848826D01*
X112162562Y-118911293D01*
X111848520Y-118973760D01*
X111208126Y-118973760D01*
X110894084Y-118911293D01*
X110580041Y-118848826D01*
X109988397Y-118603759D01*
X109455931Y-118247976D01*
X109003107Y-117795152D01*
X108647324Y-117262686D01*
X108402257Y-116671042D01*
X108320496Y-116260000D01*
X108277323Y-116042957D01*
X108277323Y-115402563D01*
X108402257Y-114774479D01*
X108402257Y-114774478D01*
X108647324Y-114182834D01*
X109003107Y-113650368D01*
X109455931Y-113197544D01*
X109988397Y-112841761D01*
X110580041Y-112596694D01*
X110894084Y-112534227D01*
X111208126Y-112471760D01*
X111848520Y-112471760D01*
X112162562Y-112534227D01*
X112162562Y-112534227D01*
G37*
G36*
X191213919Y-112534227D02*
G01*
X191527962Y-112596694D01*
X192119606Y-112841761D01*
X192652072Y-113197544D01*
X193104896Y-113650368D01*
X193460679Y-114182834D01*
X193705746Y-114774478D01*
X193705746Y-114774479D01*
X193830680Y-115402563D01*
X193830680Y-116042957D01*
X193787507Y-116260000D01*
X193705746Y-116671042D01*
X193460679Y-117262686D01*
X193104896Y-117795152D01*
X192652072Y-118247976D01*
X192119606Y-118603759D01*
X191527962Y-118848826D01*
X191213919Y-118911293D01*
X190899877Y-118973760D01*
X190259483Y-118973760D01*
X189945441Y-118911293D01*
X189631398Y-118848826D01*
X189039754Y-118603759D01*
X188507288Y-118247976D01*
X188054464Y-117795152D01*
X187698681Y-117262686D01*
X187453614Y-116671042D01*
X187371853Y-116260000D01*
X187328680Y-116042957D01*
X187328680Y-115402563D01*
X187453614Y-114774479D01*
X187453614Y-114774478D01*
X187698681Y-114182834D01*
X188054464Y-113650368D01*
X188507288Y-113197544D01*
X189039754Y-112841761D01*
X189631398Y-112596694D01*
X189945441Y-112534227D01*
X190259483Y-112471760D01*
X190899877Y-112471760D01*
X191213919Y-112534227D01*
X191213919Y-112534227D01*
G37*
G36*
X101859591Y-117438085D02*
G01*
X101893569Y-117448393D01*
X101924890Y-117465134D01*
X101952339Y-117487661D01*
X101974866Y-117515110D01*
X101991607Y-117546431D01*
X102001915Y-117580409D01*
X102006000Y-117621890D01*
X102006000Y-118223110D01*
X102001915Y-118264591D01*
X101991607Y-118298569D01*
X101974866Y-118329890D01*
X101952339Y-118357339D01*
X101924890Y-118379866D01*
X101893569Y-118396607D01*
X101859591Y-118406915D01*
X101818110Y-118411000D01*
X101141890Y-118411000D01*
X101100409Y-118406915D01*
X101066431Y-118396607D01*
X101035110Y-118379866D01*
X101007661Y-118357339D01*
X100985134Y-118329890D01*
X100968393Y-118298569D01*
X100958085Y-118264591D01*
X100954000Y-118223110D01*
X100954000Y-117621890D01*
X100958085Y-117580409D01*
X100968393Y-117546431D01*
X100985134Y-117515110D01*
X101007661Y-117487661D01*
X101035110Y-117465134D01*
X101066431Y-117448393D01*
X101100409Y-117438085D01*
X101141890Y-117434000D01*
X101818110Y-117434000D01*
X101859591Y-117438085D01*
X101859591Y-117438085D01*
G37*
G36*
X158570443Y-115365519D02*
G01*
X158636627Y-115372037D01*
X158806466Y-115423557D01*
X158962991Y-115507222D01*
X158998729Y-115536552D01*
X159100186Y-115619814D01*
X159148216Y-115678340D01*
X159212778Y-115757009D01*
X159296443Y-115913534D01*
X159347963Y-116083373D01*
X159365359Y-116260000D01*
X159347963Y-116436627D01*
X159296443Y-116606466D01*
X159212778Y-116762991D01*
X159183448Y-116798729D01*
X159100186Y-116900186D01*
X158998729Y-116983448D01*
X158962991Y-117012778D01*
X158806466Y-117096443D01*
X158636627Y-117147963D01*
X158570443Y-117154481D01*
X158504260Y-117161000D01*
X158415740Y-117161000D01*
X158349557Y-117154481D01*
X158283373Y-117147963D01*
X158113534Y-117096443D01*
X157957009Y-117012778D01*
X157921271Y-116983448D01*
X157819814Y-116900186D01*
X157736552Y-116798729D01*
X157707222Y-116762991D01*
X157623557Y-116606466D01*
X157572037Y-116436627D01*
X157554641Y-116260000D01*
X157572037Y-116083373D01*
X157623557Y-115913534D01*
X157707222Y-115757009D01*
X157771784Y-115678340D01*
X157819814Y-115619814D01*
X157921271Y-115536552D01*
X157957009Y-115507222D01*
X158113534Y-115423557D01*
X158283373Y-115372037D01*
X158349557Y-115365519D01*
X158415740Y-115359000D01*
X158504260Y-115359000D01*
X158570443Y-115365519D01*
X158570443Y-115365519D01*
G37*
G36*
X150950443Y-115365519D02*
G01*
X151016627Y-115372037D01*
X151186466Y-115423557D01*
X151342991Y-115507222D01*
X151378729Y-115536552D01*
X151480186Y-115619814D01*
X151528216Y-115678340D01*
X151592778Y-115757009D01*
X151676443Y-115913534D01*
X151727963Y-116083373D01*
X151745359Y-116260000D01*
X151727963Y-116436627D01*
X151676443Y-116606466D01*
X151592778Y-116762991D01*
X151563448Y-116798729D01*
X151480186Y-116900186D01*
X151378729Y-116983448D01*
X151342991Y-117012778D01*
X151186466Y-117096443D01*
X151016627Y-117147963D01*
X150950443Y-117154481D01*
X150884260Y-117161000D01*
X150795740Y-117161000D01*
X150729557Y-117154481D01*
X150663373Y-117147963D01*
X150493534Y-117096443D01*
X150337009Y-117012778D01*
X150301271Y-116983448D01*
X150199814Y-116900186D01*
X150116552Y-116798729D01*
X150087222Y-116762991D01*
X150003557Y-116606466D01*
X149952037Y-116436627D01*
X149934641Y-116260000D01*
X149952037Y-116083373D01*
X150003557Y-115913534D01*
X150087222Y-115757009D01*
X150151784Y-115678340D01*
X150199814Y-115619814D01*
X150301271Y-115536552D01*
X150337009Y-115507222D01*
X150493534Y-115423557D01*
X150663373Y-115372037D01*
X150729557Y-115365519D01*
X150795740Y-115359000D01*
X150884260Y-115359000D01*
X150950443Y-115365519D01*
X150950443Y-115365519D01*
G37*
G36*
X156030443Y-115365519D02*
G01*
X156096627Y-115372037D01*
X156266466Y-115423557D01*
X156422991Y-115507222D01*
X156458729Y-115536552D01*
X156560186Y-115619814D01*
X156608216Y-115678340D01*
X156672778Y-115757009D01*
X156756443Y-115913534D01*
X156807963Y-116083373D01*
X156825359Y-116260000D01*
X156807963Y-116436627D01*
X156756443Y-116606466D01*
X156672778Y-116762991D01*
X156643448Y-116798729D01*
X156560186Y-116900186D01*
X156458729Y-116983448D01*
X156422991Y-117012778D01*
X156266466Y-117096443D01*
X156096627Y-117147963D01*
X156030443Y-117154481D01*
X155964260Y-117161000D01*
X155875740Y-117161000D01*
X155809557Y-117154481D01*
X155743373Y-117147963D01*
X155573534Y-117096443D01*
X155417009Y-117012778D01*
X155381271Y-116983448D01*
X155279814Y-116900186D01*
X155196552Y-116798729D01*
X155167222Y-116762991D01*
X155083557Y-116606466D01*
X155032037Y-116436627D01*
X155014641Y-116260000D01*
X155032037Y-116083373D01*
X155083557Y-115913534D01*
X155167222Y-115757009D01*
X155231784Y-115678340D01*
X155279814Y-115619814D01*
X155381271Y-115536552D01*
X155417009Y-115507222D01*
X155573534Y-115423557D01*
X155743373Y-115372037D01*
X155809557Y-115365519D01*
X155875740Y-115359000D01*
X155964260Y-115359000D01*
X156030443Y-115365519D01*
X156030443Y-115365519D01*
G37*
G36*
X153490443Y-115365519D02*
G01*
X153556627Y-115372037D01*
X153726466Y-115423557D01*
X153882991Y-115507222D01*
X153918729Y-115536552D01*
X154020186Y-115619814D01*
X154068216Y-115678340D01*
X154132778Y-115757009D01*
X154216443Y-115913534D01*
X154267963Y-116083373D01*
X154285359Y-116260000D01*
X154267963Y-116436627D01*
X154216443Y-116606466D01*
X154132778Y-116762991D01*
X154103448Y-116798729D01*
X154020186Y-116900186D01*
X153918729Y-116983448D01*
X153882991Y-117012778D01*
X153726466Y-117096443D01*
X153556627Y-117147963D01*
X153490443Y-117154481D01*
X153424260Y-117161000D01*
X153335740Y-117161000D01*
X153269557Y-117154481D01*
X153203373Y-117147963D01*
X153033534Y-117096443D01*
X152877009Y-117012778D01*
X152841271Y-116983448D01*
X152739814Y-116900186D01*
X152656552Y-116798729D01*
X152627222Y-116762991D01*
X152543557Y-116606466D01*
X152492037Y-116436627D01*
X152474641Y-116260000D01*
X152492037Y-116083373D01*
X152543557Y-115913534D01*
X152627222Y-115757009D01*
X152691784Y-115678340D01*
X152739814Y-115619814D01*
X152841271Y-115536552D01*
X152877009Y-115507222D01*
X153033534Y-115423557D01*
X153203373Y-115372037D01*
X153269557Y-115365519D01*
X153335740Y-115359000D01*
X153424260Y-115359000D01*
X153490443Y-115365519D01*
X153490443Y-115365519D01*
G37*
G36*
X161110443Y-115365519D02*
G01*
X161176627Y-115372037D01*
X161346466Y-115423557D01*
X161502991Y-115507222D01*
X161538729Y-115536552D01*
X161640186Y-115619814D01*
X161688216Y-115678340D01*
X161752778Y-115757009D01*
X161836443Y-115913534D01*
X161887963Y-116083373D01*
X161905359Y-116260000D01*
X161887963Y-116436627D01*
X161836443Y-116606466D01*
X161752778Y-116762991D01*
X161723448Y-116798729D01*
X161640186Y-116900186D01*
X161538729Y-116983448D01*
X161502991Y-117012778D01*
X161346466Y-117096443D01*
X161176627Y-117147963D01*
X161110443Y-117154481D01*
X161044260Y-117161000D01*
X160955740Y-117161000D01*
X160889557Y-117154481D01*
X160823373Y-117147963D01*
X160653534Y-117096443D01*
X160497009Y-117012778D01*
X160461271Y-116983448D01*
X160359814Y-116900186D01*
X160276552Y-116798729D01*
X160247222Y-116762991D01*
X160163557Y-116606466D01*
X160112037Y-116436627D01*
X160094641Y-116260000D01*
X160112037Y-116083373D01*
X160163557Y-115913534D01*
X160247222Y-115757009D01*
X160311784Y-115678340D01*
X160359814Y-115619814D01*
X160461271Y-115536552D01*
X160497009Y-115507222D01*
X160653534Y-115423557D01*
X160823373Y-115372037D01*
X160889557Y-115365519D01*
X160955740Y-115359000D01*
X161044260Y-115359000D01*
X161110443Y-115365519D01*
X161110443Y-115365519D01*
G37*
G36*
X163650443Y-115365519D02*
G01*
X163716627Y-115372037D01*
X163886466Y-115423557D01*
X164042991Y-115507222D01*
X164078729Y-115536552D01*
X164180186Y-115619814D01*
X164228216Y-115678340D01*
X164292778Y-115757009D01*
X164376443Y-115913534D01*
X164427963Y-116083373D01*
X164445359Y-116260000D01*
X164427963Y-116436627D01*
X164376443Y-116606466D01*
X164292778Y-116762991D01*
X164263448Y-116798729D01*
X164180186Y-116900186D01*
X164078729Y-116983448D01*
X164042991Y-117012778D01*
X163886466Y-117096443D01*
X163716627Y-117147963D01*
X163650443Y-117154481D01*
X163584260Y-117161000D01*
X163495740Y-117161000D01*
X163429557Y-117154481D01*
X163363373Y-117147963D01*
X163193534Y-117096443D01*
X163037009Y-117012778D01*
X163001271Y-116983448D01*
X162899814Y-116900186D01*
X162816552Y-116798729D01*
X162787222Y-116762991D01*
X162703557Y-116606466D01*
X162652037Y-116436627D01*
X162634641Y-116260000D01*
X162652037Y-116083373D01*
X162703557Y-115913534D01*
X162787222Y-115757009D01*
X162851784Y-115678340D01*
X162899814Y-115619814D01*
X163001271Y-115536552D01*
X163037009Y-115507222D01*
X163193534Y-115423557D01*
X163363373Y-115372037D01*
X163429557Y-115365519D01*
X163495740Y-115359000D01*
X163584260Y-115359000D01*
X163650443Y-115365519D01*
X163650443Y-115365519D01*
G37*
G36*
X143330443Y-115365519D02*
G01*
X143396627Y-115372037D01*
X143566466Y-115423557D01*
X143722991Y-115507222D01*
X143758729Y-115536552D01*
X143860186Y-115619814D01*
X143908216Y-115678340D01*
X143972778Y-115757009D01*
X144056443Y-115913534D01*
X144107963Y-116083373D01*
X144125359Y-116260000D01*
X144107963Y-116436627D01*
X144056443Y-116606466D01*
X143972778Y-116762991D01*
X143943448Y-116798729D01*
X143860186Y-116900186D01*
X143758729Y-116983448D01*
X143722991Y-117012778D01*
X143566466Y-117096443D01*
X143396627Y-117147963D01*
X143330443Y-117154481D01*
X143264260Y-117161000D01*
X143175740Y-117161000D01*
X143109557Y-117154481D01*
X143043373Y-117147963D01*
X142873534Y-117096443D01*
X142717009Y-117012778D01*
X142681271Y-116983448D01*
X142579814Y-116900186D01*
X142496552Y-116798729D01*
X142467222Y-116762991D01*
X142383557Y-116606466D01*
X142332037Y-116436627D01*
X142314641Y-116260000D01*
X142332037Y-116083373D01*
X142383557Y-115913534D01*
X142467222Y-115757009D01*
X142531784Y-115678340D01*
X142579814Y-115619814D01*
X142681271Y-115536552D01*
X142717009Y-115507222D01*
X142873534Y-115423557D01*
X143043373Y-115372037D01*
X143109557Y-115365519D01*
X143175740Y-115359000D01*
X143264260Y-115359000D01*
X143330443Y-115365519D01*
X143330443Y-115365519D01*
G37*
G36*
X140790443Y-115365519D02*
G01*
X140856627Y-115372037D01*
X141026466Y-115423557D01*
X141182991Y-115507222D01*
X141218729Y-115536552D01*
X141320186Y-115619814D01*
X141368216Y-115678340D01*
X141432778Y-115757009D01*
X141516443Y-115913534D01*
X141567963Y-116083373D01*
X141585359Y-116260000D01*
X141567963Y-116436627D01*
X141516443Y-116606466D01*
X141432778Y-116762991D01*
X141403448Y-116798729D01*
X141320186Y-116900186D01*
X141218729Y-116983448D01*
X141182991Y-117012778D01*
X141026466Y-117096443D01*
X140856627Y-117147963D01*
X140790443Y-117154481D01*
X140724260Y-117161000D01*
X140635740Y-117161000D01*
X140569557Y-117154481D01*
X140503373Y-117147963D01*
X140333534Y-117096443D01*
X140177009Y-117012778D01*
X140141271Y-116983448D01*
X140039814Y-116900186D01*
X139956552Y-116798729D01*
X139927222Y-116762991D01*
X139843557Y-116606466D01*
X139792037Y-116436627D01*
X139774641Y-116260000D01*
X139792037Y-116083373D01*
X139843557Y-115913534D01*
X139927222Y-115757009D01*
X139991784Y-115678340D01*
X140039814Y-115619814D01*
X140141271Y-115536552D01*
X140177009Y-115507222D01*
X140333534Y-115423557D01*
X140503373Y-115372037D01*
X140569557Y-115365519D01*
X140635740Y-115359000D01*
X140724260Y-115359000D01*
X140790443Y-115365519D01*
X140790443Y-115365519D01*
G37*
G36*
X138250443Y-115365519D02*
G01*
X138316627Y-115372037D01*
X138486466Y-115423557D01*
X138642991Y-115507222D01*
X138678729Y-115536552D01*
X138780186Y-115619814D01*
X138828216Y-115678340D01*
X138892778Y-115757009D01*
X138976443Y-115913534D01*
X139027963Y-116083373D01*
X139045359Y-116260000D01*
X139027963Y-116436627D01*
X138976443Y-116606466D01*
X138892778Y-116762991D01*
X138863448Y-116798729D01*
X138780186Y-116900186D01*
X138678729Y-116983448D01*
X138642991Y-117012778D01*
X138486466Y-117096443D01*
X138316627Y-117147963D01*
X138250443Y-117154481D01*
X138184260Y-117161000D01*
X138095740Y-117161000D01*
X138029557Y-117154481D01*
X137963373Y-117147963D01*
X137793534Y-117096443D01*
X137637009Y-117012778D01*
X137601271Y-116983448D01*
X137499814Y-116900186D01*
X137416552Y-116798729D01*
X137387222Y-116762991D01*
X137303557Y-116606466D01*
X137252037Y-116436627D01*
X137234641Y-116260000D01*
X137252037Y-116083373D01*
X137303557Y-115913534D01*
X137387222Y-115757009D01*
X137451784Y-115678340D01*
X137499814Y-115619814D01*
X137601271Y-115536552D01*
X137637009Y-115507222D01*
X137793534Y-115423557D01*
X137963373Y-115372037D01*
X138029557Y-115365519D01*
X138095740Y-115359000D01*
X138184260Y-115359000D01*
X138250443Y-115365519D01*
X138250443Y-115365519D01*
G37*
G36*
X135710443Y-115365519D02*
G01*
X135776627Y-115372037D01*
X135946466Y-115423557D01*
X136102991Y-115507222D01*
X136138729Y-115536552D01*
X136240186Y-115619814D01*
X136288216Y-115678340D01*
X136352778Y-115757009D01*
X136436443Y-115913534D01*
X136487963Y-116083373D01*
X136505359Y-116260000D01*
X136487963Y-116436627D01*
X136436443Y-116606466D01*
X136352778Y-116762991D01*
X136323448Y-116798729D01*
X136240186Y-116900186D01*
X136138729Y-116983448D01*
X136102991Y-117012778D01*
X135946466Y-117096443D01*
X135776627Y-117147963D01*
X135710443Y-117154481D01*
X135644260Y-117161000D01*
X135555740Y-117161000D01*
X135489557Y-117154481D01*
X135423373Y-117147963D01*
X135253534Y-117096443D01*
X135097009Y-117012778D01*
X135061271Y-116983448D01*
X134959814Y-116900186D01*
X134876552Y-116798729D01*
X134847222Y-116762991D01*
X134763557Y-116606466D01*
X134712037Y-116436627D01*
X134694641Y-116260000D01*
X134712037Y-116083373D01*
X134763557Y-115913534D01*
X134847222Y-115757009D01*
X134911784Y-115678340D01*
X134959814Y-115619814D01*
X135061271Y-115536552D01*
X135097009Y-115507222D01*
X135253534Y-115423557D01*
X135423373Y-115372037D01*
X135489557Y-115365519D01*
X135555740Y-115359000D01*
X135644260Y-115359000D01*
X135710443Y-115365519D01*
X135710443Y-115365519D01*
G37*
G36*
X148410443Y-115365519D02*
G01*
X148476627Y-115372037D01*
X148646466Y-115423557D01*
X148802991Y-115507222D01*
X148838729Y-115536552D01*
X148940186Y-115619814D01*
X148988216Y-115678340D01*
X149052778Y-115757009D01*
X149136443Y-115913534D01*
X149187963Y-116083373D01*
X149205359Y-116260000D01*
X149187963Y-116436627D01*
X149136443Y-116606466D01*
X149052778Y-116762991D01*
X149023448Y-116798729D01*
X148940186Y-116900186D01*
X148838729Y-116983448D01*
X148802991Y-117012778D01*
X148646466Y-117096443D01*
X148476627Y-117147963D01*
X148410443Y-117154481D01*
X148344260Y-117161000D01*
X148255740Y-117161000D01*
X148189557Y-117154481D01*
X148123373Y-117147963D01*
X147953534Y-117096443D01*
X147797009Y-117012778D01*
X147761271Y-116983448D01*
X147659814Y-116900186D01*
X147576552Y-116798729D01*
X147547222Y-116762991D01*
X147463557Y-116606466D01*
X147412037Y-116436627D01*
X147394641Y-116260000D01*
X147412037Y-116083373D01*
X147463557Y-115913534D01*
X147547222Y-115757009D01*
X147611784Y-115678340D01*
X147659814Y-115619814D01*
X147761271Y-115536552D01*
X147797009Y-115507222D01*
X147953534Y-115423557D01*
X148123373Y-115372037D01*
X148189557Y-115365519D01*
X148255740Y-115359000D01*
X148344260Y-115359000D01*
X148410443Y-115365519D01*
X148410443Y-115365519D01*
G37*
G36*
X145870443Y-115365519D02*
G01*
X145936627Y-115372037D01*
X146106466Y-115423557D01*
X146262991Y-115507222D01*
X146298729Y-115536552D01*
X146400186Y-115619814D01*
X146448216Y-115678340D01*
X146512778Y-115757009D01*
X146596443Y-115913534D01*
X146647963Y-116083373D01*
X146665359Y-116260000D01*
X146647963Y-116436627D01*
X146596443Y-116606466D01*
X146512778Y-116762991D01*
X146483448Y-116798729D01*
X146400186Y-116900186D01*
X146298729Y-116983448D01*
X146262991Y-117012778D01*
X146106466Y-117096443D01*
X145936627Y-117147963D01*
X145870443Y-117154481D01*
X145804260Y-117161000D01*
X145715740Y-117161000D01*
X145649557Y-117154481D01*
X145583373Y-117147963D01*
X145413534Y-117096443D01*
X145257009Y-117012778D01*
X145221271Y-116983448D01*
X145119814Y-116900186D01*
X145036552Y-116798729D01*
X145007222Y-116762991D01*
X144923557Y-116606466D01*
X144872037Y-116436627D01*
X144854641Y-116260000D01*
X144872037Y-116083373D01*
X144923557Y-115913534D01*
X145007222Y-115757009D01*
X145071784Y-115678340D01*
X145119814Y-115619814D01*
X145221271Y-115536552D01*
X145257009Y-115507222D01*
X145413534Y-115423557D01*
X145583373Y-115372037D01*
X145649557Y-115365519D01*
X145715740Y-115359000D01*
X145804260Y-115359000D01*
X145870443Y-115365519D01*
X145870443Y-115365519D01*
G37*
G36*
X175536564Y-110249389D02*
G01*
X175727833Y-110328615D01*
X175727835Y-110328616D01*
X175899973Y-110443635D01*
X176046365Y-110590027D01*
X176153109Y-110749780D01*
X176161385Y-110762167D01*
X176240611Y-110953436D01*
X176281000Y-111156484D01*
X176281000Y-111363516D01*
X176240611Y-111566564D01*
X176236702Y-111576000D01*
X176161384Y-111757835D01*
X176046365Y-111929973D01*
X175899973Y-112076365D01*
X175727835Y-112191384D01*
X175727834Y-112191385D01*
X175727833Y-112191385D01*
X175536564Y-112270611D01*
X175333516Y-112311000D01*
X175126484Y-112311000D01*
X174923436Y-112270611D01*
X174732167Y-112191385D01*
X174732166Y-112191385D01*
X174732165Y-112191384D01*
X174560027Y-112076365D01*
X174413635Y-111929973D01*
X174298616Y-111757835D01*
X174223298Y-111576000D01*
X174219389Y-111566564D01*
X174179000Y-111363516D01*
X174179000Y-111156484D01*
X174219389Y-110953436D01*
X174298615Y-110762167D01*
X174306892Y-110749780D01*
X174413635Y-110590027D01*
X174560027Y-110443635D01*
X174732165Y-110328616D01*
X174732167Y-110328615D01*
X174923436Y-110249389D01*
X175126484Y-110209000D01*
X175333516Y-110209000D01*
X175536564Y-110249389D01*
X175536564Y-110249389D01*
G37*
G36*
X185304468Y-110913565D02*
G01*
X185343138Y-110925296D01*
X185378777Y-110944346D01*
X185410017Y-110969983D01*
X185435654Y-111001223D01*
X185454704Y-111036862D01*
X185466435Y-111075532D01*
X185471000Y-111121888D01*
X185471000Y-111773112D01*
X185466435Y-111819468D01*
X185454704Y-111858138D01*
X185435654Y-111893777D01*
X185410017Y-111925017D01*
X185378777Y-111950654D01*
X185343138Y-111969704D01*
X185304468Y-111981435D01*
X185258112Y-111986000D01*
X184181888Y-111986000D01*
X184135532Y-111981435D01*
X184096862Y-111969704D01*
X184061223Y-111950654D01*
X184029983Y-111925017D01*
X184004346Y-111893777D01*
X183985296Y-111858138D01*
X183973565Y-111819468D01*
X183969000Y-111773112D01*
X183969000Y-111121888D01*
X183973565Y-111075532D01*
X183985296Y-111036862D01*
X184004346Y-111001223D01*
X184029983Y-110969983D01*
X184061223Y-110944346D01*
X184096862Y-110925296D01*
X184135532Y-110913565D01*
X184181888Y-110909000D01*
X185258112Y-110909000D01*
X185304468Y-110913565D01*
X185304468Y-110913565D01*
G37*
G36*
X187294468Y-110913565D02*
G01*
X187333138Y-110925296D01*
X187368777Y-110944346D01*
X187400017Y-110969983D01*
X187425654Y-111001223D01*
X187444704Y-111036862D01*
X187456435Y-111075532D01*
X187461000Y-111121888D01*
X187461000Y-111773112D01*
X187456435Y-111819468D01*
X187444704Y-111858138D01*
X187425654Y-111893777D01*
X187400017Y-111925017D01*
X187368777Y-111950654D01*
X187333138Y-111969704D01*
X187294468Y-111981435D01*
X187248112Y-111986000D01*
X186171888Y-111986000D01*
X186125532Y-111981435D01*
X186086862Y-111969704D01*
X186051223Y-111950654D01*
X186019983Y-111925017D01*
X185994346Y-111893777D01*
X185975296Y-111858138D01*
X185963565Y-111819468D01*
X185959000Y-111773112D01*
X185959000Y-111121888D01*
X185963565Y-111075532D01*
X185975296Y-111036862D01*
X185994346Y-111001223D01*
X186019983Y-110969983D01*
X186051223Y-110944346D01*
X186086862Y-110925296D01*
X186125532Y-110913565D01*
X186171888Y-110909000D01*
X187248112Y-110909000D01*
X187294468Y-110913565D01*
X187294468Y-110913565D01*
G37*
G36*
X127311000Y-111711000D02*
G01*
X125709000Y-111711000D01*
X125709000Y-110109000D01*
X127311000Y-110109000D01*
X127311000Y-111711000D01*
X127311000Y-111711000D01*
G37*
G36*
X124701000Y-111711000D02*
G01*
X123099000Y-111711000D01*
X123099000Y-110109000D01*
X124701000Y-110109000D01*
X124701000Y-111711000D01*
X124701000Y-111711000D01*
G37*
G36*
X122061000Y-111711000D02*
G01*
X120459000Y-111711000D01*
X120459000Y-110109000D01*
X122061000Y-110109000D01*
X122061000Y-111711000D01*
X122061000Y-111711000D01*
G37*
G36*
X182919591Y-110603085D02*
G01*
X182953569Y-110613393D01*
X182984890Y-110630134D01*
X183012339Y-110652661D01*
X183034866Y-110680110D01*
X183051607Y-110711431D01*
X183061915Y-110745409D01*
X183066000Y-110786890D01*
X183066000Y-111388110D01*
X183061915Y-111429591D01*
X183051607Y-111463569D01*
X183034866Y-111494890D01*
X183012339Y-111522339D01*
X182984890Y-111544866D01*
X182953569Y-111561607D01*
X182919591Y-111571915D01*
X182878110Y-111576000D01*
X182201890Y-111576000D01*
X182160409Y-111571915D01*
X182126431Y-111561607D01*
X182095110Y-111544866D01*
X182067661Y-111522339D01*
X182045134Y-111494890D01*
X182028393Y-111463569D01*
X182018085Y-111429591D01*
X182014000Y-111388110D01*
X182014000Y-110786890D01*
X182018085Y-110745409D01*
X182028393Y-110711431D01*
X182045134Y-110680110D01*
X182067661Y-110652661D01*
X182095110Y-110630134D01*
X182126431Y-110613393D01*
X182160409Y-110603085D01*
X182201890Y-110599000D01*
X182878110Y-110599000D01*
X182919591Y-110603085D01*
X182919591Y-110603085D01*
G37*
G36*
X185304468Y-109038565D02*
G01*
X185343138Y-109050296D01*
X185378777Y-109069346D01*
X185410017Y-109094983D01*
X185435654Y-109126223D01*
X185454704Y-109161862D01*
X185466435Y-109200532D01*
X185471000Y-109246888D01*
X185471000Y-109898112D01*
X185466435Y-109944468D01*
X185454704Y-109983138D01*
X185435654Y-110018777D01*
X185410017Y-110050017D01*
X185378777Y-110075654D01*
X185343138Y-110094704D01*
X185304468Y-110106435D01*
X185258112Y-110111000D01*
X184181888Y-110111000D01*
X184135532Y-110106435D01*
X184096862Y-110094704D01*
X184061223Y-110075654D01*
X184029983Y-110050017D01*
X184004346Y-110018777D01*
X183985296Y-109983138D01*
X183973565Y-109944468D01*
X183969000Y-109898112D01*
X183969000Y-109246888D01*
X183973565Y-109200532D01*
X183985296Y-109161862D01*
X184004346Y-109126223D01*
X184029983Y-109094983D01*
X184061223Y-109069346D01*
X184096862Y-109050296D01*
X184135532Y-109038565D01*
X184181888Y-109034000D01*
X185258112Y-109034000D01*
X185304468Y-109038565D01*
X185304468Y-109038565D01*
G37*
G36*
X187294468Y-109038565D02*
G01*
X187333138Y-109050296D01*
X187368777Y-109069346D01*
X187400017Y-109094983D01*
X187425654Y-109126223D01*
X187444704Y-109161862D01*
X187456435Y-109200532D01*
X187461000Y-109246888D01*
X187461000Y-109898112D01*
X187456435Y-109944468D01*
X187444704Y-109983138D01*
X187425654Y-110018777D01*
X187400017Y-110050017D01*
X187368777Y-110075654D01*
X187333138Y-110094704D01*
X187294468Y-110106435D01*
X187248112Y-110111000D01*
X186171888Y-110111000D01*
X186125532Y-110106435D01*
X186086862Y-110094704D01*
X186051223Y-110075654D01*
X186019983Y-110050017D01*
X185994346Y-110018777D01*
X185975296Y-109983138D01*
X185963565Y-109944468D01*
X185959000Y-109898112D01*
X185959000Y-109246888D01*
X185963565Y-109200532D01*
X185975296Y-109161862D01*
X185994346Y-109126223D01*
X186019983Y-109094983D01*
X186051223Y-109069346D01*
X186086862Y-109050296D01*
X186125532Y-109038565D01*
X186171888Y-109034000D01*
X187248112Y-109034000D01*
X187294468Y-109038565D01*
X187294468Y-109038565D01*
G37*
G36*
X182919591Y-109028085D02*
G01*
X182953569Y-109038393D01*
X182984890Y-109055134D01*
X183012339Y-109077661D01*
X183034866Y-109105110D01*
X183051607Y-109136431D01*
X183061915Y-109170409D01*
X183066000Y-109211890D01*
X183066000Y-109813110D01*
X183061915Y-109854591D01*
X183051607Y-109888569D01*
X183034866Y-109919890D01*
X183012339Y-109947339D01*
X182984890Y-109969866D01*
X182953569Y-109986607D01*
X182919591Y-109996915D01*
X182878110Y-110001000D01*
X182201890Y-110001000D01*
X182160409Y-109996915D01*
X182126431Y-109986607D01*
X182095110Y-109969866D01*
X182067661Y-109947339D01*
X182045134Y-109919890D01*
X182028393Y-109888569D01*
X182018085Y-109854591D01*
X182014000Y-109813110D01*
X182014000Y-109211890D01*
X182018085Y-109170409D01*
X182028393Y-109136431D01*
X182045134Y-109105110D01*
X182067661Y-109077661D01*
X182095110Y-109055134D01*
X182126431Y-109038393D01*
X182160409Y-109028085D01*
X182201890Y-109024000D01*
X182878110Y-109024000D01*
X182919591Y-109028085D01*
X182919591Y-109028085D01*
G37*
G36*
X163729591Y-108313085D02*
G01*
X163763569Y-108323393D01*
X163794890Y-108340134D01*
X163822339Y-108362661D01*
X163844866Y-108390110D01*
X163861607Y-108421431D01*
X163871915Y-108455409D01*
X163876000Y-108496890D01*
X163876000Y-109098110D01*
X163871915Y-109139591D01*
X163861607Y-109173569D01*
X163844866Y-109204890D01*
X163822339Y-109232339D01*
X163794890Y-109254866D01*
X163763569Y-109271607D01*
X163729591Y-109281915D01*
X163688110Y-109286000D01*
X163011890Y-109286000D01*
X162970409Y-109281915D01*
X162936431Y-109271607D01*
X162905110Y-109254866D01*
X162877661Y-109232339D01*
X162855134Y-109204890D01*
X162838393Y-109173569D01*
X162828085Y-109139591D01*
X162824000Y-109098110D01*
X162824000Y-108496890D01*
X162828085Y-108455409D01*
X162838393Y-108421431D01*
X162855134Y-108390110D01*
X162877661Y-108362661D01*
X162905110Y-108340134D01*
X162936431Y-108323393D01*
X162970409Y-108313085D01*
X163011890Y-108309000D01*
X163688110Y-108309000D01*
X163729591Y-108313085D01*
X163729591Y-108313085D01*
G37*
G36*
X165369591Y-108313085D02*
G01*
X165403569Y-108323393D01*
X165434890Y-108340134D01*
X165462339Y-108362661D01*
X165484866Y-108390110D01*
X165501607Y-108421431D01*
X165511915Y-108455409D01*
X165516000Y-108496890D01*
X165516000Y-109098110D01*
X165511915Y-109139591D01*
X165501607Y-109173569D01*
X165484866Y-109204890D01*
X165462339Y-109232339D01*
X165434890Y-109254866D01*
X165403569Y-109271607D01*
X165369591Y-109281915D01*
X165328110Y-109286000D01*
X164651890Y-109286000D01*
X164610409Y-109281915D01*
X164576431Y-109271607D01*
X164545110Y-109254866D01*
X164517661Y-109232339D01*
X164495134Y-109204890D01*
X164478393Y-109173569D01*
X164468085Y-109139591D01*
X164464000Y-109098110D01*
X164464000Y-108496890D01*
X164468085Y-108455409D01*
X164478393Y-108421431D01*
X164495134Y-108390110D01*
X164517661Y-108362661D01*
X164545110Y-108340134D01*
X164576431Y-108323393D01*
X164610409Y-108313085D01*
X164651890Y-108309000D01*
X165328110Y-108309000D01*
X165369591Y-108313085D01*
X165369591Y-108313085D01*
G37*
G36*
X152739591Y-108313085D02*
G01*
X152773569Y-108323393D01*
X152804890Y-108340134D01*
X152832339Y-108362661D01*
X152854866Y-108390110D01*
X152871607Y-108421431D01*
X152881915Y-108455409D01*
X152886000Y-108496890D01*
X152886000Y-109098110D01*
X152881915Y-109139591D01*
X152871607Y-109173569D01*
X152854866Y-109204890D01*
X152832339Y-109232339D01*
X152804890Y-109254866D01*
X152773569Y-109271607D01*
X152739591Y-109281915D01*
X152698110Y-109286000D01*
X152021890Y-109286000D01*
X151980409Y-109281915D01*
X151946431Y-109271607D01*
X151915110Y-109254866D01*
X151887661Y-109232339D01*
X151865134Y-109204890D01*
X151848393Y-109173569D01*
X151838085Y-109139591D01*
X151834000Y-109098110D01*
X151834000Y-108496890D01*
X151838085Y-108455409D01*
X151848393Y-108421431D01*
X151865134Y-108390110D01*
X151887661Y-108362661D01*
X151915110Y-108340134D01*
X151946431Y-108323393D01*
X151980409Y-108313085D01*
X152021890Y-108309000D01*
X152698110Y-108309000D01*
X152739591Y-108313085D01*
X152739591Y-108313085D01*
G37*
G36*
X151079591Y-108303085D02*
G01*
X151113569Y-108313393D01*
X151144890Y-108330134D01*
X151172339Y-108352661D01*
X151194866Y-108380110D01*
X151211607Y-108411431D01*
X151221915Y-108445409D01*
X151226000Y-108486890D01*
X151226000Y-109088110D01*
X151221915Y-109129591D01*
X151211607Y-109163569D01*
X151194866Y-109194890D01*
X151172339Y-109222339D01*
X151144890Y-109244866D01*
X151113569Y-109261607D01*
X151079591Y-109271915D01*
X151038110Y-109276000D01*
X150361890Y-109276000D01*
X150320409Y-109271915D01*
X150286431Y-109261607D01*
X150255110Y-109244866D01*
X150227661Y-109222339D01*
X150205134Y-109194890D01*
X150188393Y-109163569D01*
X150178085Y-109129591D01*
X150174000Y-109088110D01*
X150174000Y-108486890D01*
X150178085Y-108445409D01*
X150188393Y-108411431D01*
X150205134Y-108380110D01*
X150227661Y-108352661D01*
X150255110Y-108330134D01*
X150286431Y-108313393D01*
X150320409Y-108303085D01*
X150361890Y-108299000D01*
X151038110Y-108299000D01*
X151079591Y-108303085D01*
X151079591Y-108303085D01*
G37*
G36*
X128951000Y-109251000D02*
G01*
X127349000Y-109251000D01*
X127349000Y-107649000D01*
X128951000Y-107649000D01*
X128951000Y-109251000D01*
X128951000Y-109251000D01*
G37*
G36*
X180436000Y-107801000D02*
G01*
X179684000Y-107801000D01*
X179684000Y-105699000D01*
X180436000Y-105699000D01*
X180436000Y-107801000D01*
X180436000Y-107801000D01*
G37*
G36*
X181706000Y-107801000D02*
G01*
X180954000Y-107801000D01*
X180954000Y-105699000D01*
X181706000Y-105699000D01*
X181706000Y-107801000D01*
X181706000Y-107801000D01*
G37*
G36*
X182976000Y-107801000D02*
G01*
X182224000Y-107801000D01*
X182224000Y-105699000D01*
X182976000Y-105699000D01*
X182976000Y-107801000D01*
X182976000Y-107801000D01*
G37*
G36*
X184246000Y-107801000D02*
G01*
X183494000Y-107801000D01*
X183494000Y-105699000D01*
X184246000Y-105699000D01*
X184246000Y-107801000D01*
X184246000Y-107801000D01*
G37*
G36*
X185516000Y-107801000D02*
G01*
X184764000Y-107801000D01*
X184764000Y-105699000D01*
X185516000Y-105699000D01*
X185516000Y-107801000D01*
X185516000Y-107801000D01*
G37*
G36*
X163729591Y-106738085D02*
G01*
X163763569Y-106748393D01*
X163794890Y-106765134D01*
X163822339Y-106787661D01*
X163844866Y-106815110D01*
X163861607Y-106846431D01*
X163871915Y-106880409D01*
X163876000Y-106921890D01*
X163876000Y-107523110D01*
X163871915Y-107564591D01*
X163861607Y-107598569D01*
X163844866Y-107629890D01*
X163822339Y-107657339D01*
X163794890Y-107679866D01*
X163763569Y-107696607D01*
X163729591Y-107706915D01*
X163688110Y-107711000D01*
X163011890Y-107711000D01*
X162970409Y-107706915D01*
X162936431Y-107696607D01*
X162905110Y-107679866D01*
X162877661Y-107657339D01*
X162855134Y-107629890D01*
X162838393Y-107598569D01*
X162828085Y-107564591D01*
X162824000Y-107523110D01*
X162824000Y-106921890D01*
X162828085Y-106880409D01*
X162838393Y-106846431D01*
X162855134Y-106815110D01*
X162877661Y-106787661D01*
X162905110Y-106765134D01*
X162936431Y-106748393D01*
X162970409Y-106738085D01*
X163011890Y-106734000D01*
X163688110Y-106734000D01*
X163729591Y-106738085D01*
X163729591Y-106738085D01*
G37*
G36*
X165369591Y-106738085D02*
G01*
X165403569Y-106748393D01*
X165434890Y-106765134D01*
X165462339Y-106787661D01*
X165484866Y-106815110D01*
X165501607Y-106846431D01*
X165511915Y-106880409D01*
X165516000Y-106921890D01*
X165516000Y-107523110D01*
X165511915Y-107564591D01*
X165501607Y-107598569D01*
X165484866Y-107629890D01*
X165462339Y-107657339D01*
X165434890Y-107679866D01*
X165403569Y-107696607D01*
X165369591Y-107706915D01*
X165328110Y-107711000D01*
X164651890Y-107711000D01*
X164610409Y-107706915D01*
X164576431Y-107696607D01*
X164545110Y-107679866D01*
X164517661Y-107657339D01*
X164495134Y-107629890D01*
X164478393Y-107598569D01*
X164468085Y-107564591D01*
X164464000Y-107523110D01*
X164464000Y-106921890D01*
X164468085Y-106880409D01*
X164478393Y-106846431D01*
X164495134Y-106815110D01*
X164517661Y-106787661D01*
X164545110Y-106765134D01*
X164576431Y-106748393D01*
X164610409Y-106738085D01*
X164651890Y-106734000D01*
X165328110Y-106734000D01*
X165369591Y-106738085D01*
X165369591Y-106738085D01*
G37*
G36*
X152739591Y-106738085D02*
G01*
X152773569Y-106748393D01*
X152804890Y-106765134D01*
X152832339Y-106787661D01*
X152854866Y-106815110D01*
X152871607Y-106846431D01*
X152881915Y-106880409D01*
X152886000Y-106921890D01*
X152886000Y-107523110D01*
X152881915Y-107564591D01*
X152871607Y-107598569D01*
X152854866Y-107629890D01*
X152832339Y-107657339D01*
X152804890Y-107679866D01*
X152773569Y-107696607D01*
X152739591Y-107706915D01*
X152698110Y-107711000D01*
X152021890Y-107711000D01*
X151980409Y-107706915D01*
X151946431Y-107696607D01*
X151915110Y-107679866D01*
X151887661Y-107657339D01*
X151865134Y-107629890D01*
X151848393Y-107598569D01*
X151838085Y-107564591D01*
X151834000Y-107523110D01*
X151834000Y-106921890D01*
X151838085Y-106880409D01*
X151848393Y-106846431D01*
X151865134Y-106815110D01*
X151887661Y-106787661D01*
X151915110Y-106765134D01*
X151946431Y-106748393D01*
X151980409Y-106738085D01*
X152021890Y-106734000D01*
X152698110Y-106734000D01*
X152739591Y-106738085D01*
X152739591Y-106738085D01*
G37*
G36*
X151079591Y-106728085D02*
G01*
X151113569Y-106738393D01*
X151144890Y-106755134D01*
X151172339Y-106777661D01*
X151194866Y-106805110D01*
X151211607Y-106836431D01*
X151221915Y-106870409D01*
X151226000Y-106911890D01*
X151226000Y-107513110D01*
X151221915Y-107554591D01*
X151211607Y-107588569D01*
X151194866Y-107619890D01*
X151172339Y-107647339D01*
X151144890Y-107669866D01*
X151113569Y-107686607D01*
X151079591Y-107696915D01*
X151038110Y-107701000D01*
X150361890Y-107701000D01*
X150320409Y-107696915D01*
X150286431Y-107686607D01*
X150255110Y-107669866D01*
X150227661Y-107647339D01*
X150205134Y-107619890D01*
X150188393Y-107588569D01*
X150178085Y-107554591D01*
X150174000Y-107513110D01*
X150174000Y-106911890D01*
X150178085Y-106870409D01*
X150188393Y-106836431D01*
X150205134Y-106805110D01*
X150227661Y-106777661D01*
X150255110Y-106755134D01*
X150286431Y-106738393D01*
X150320409Y-106728085D01*
X150361890Y-106724000D01*
X151038110Y-106724000D01*
X151079591Y-106728085D01*
X151079591Y-106728085D01*
G37*
G36*
X145060443Y-105335519D02*
G01*
X145126627Y-105342037D01*
X145296466Y-105393557D01*
X145452991Y-105477222D01*
X145488729Y-105506552D01*
X145590186Y-105589814D01*
X145673448Y-105691271D01*
X145702778Y-105727009D01*
X145786443Y-105883534D01*
X145837963Y-106053373D01*
X145855359Y-106230000D01*
X145837963Y-106406627D01*
X145786443Y-106576466D01*
X145702778Y-106732991D01*
X145676399Y-106765134D01*
X145590186Y-106870186D01*
X145516571Y-106930599D01*
X145452991Y-106982778D01*
X145296466Y-107066443D01*
X145126627Y-107117963D01*
X145060442Y-107124482D01*
X144994260Y-107131000D01*
X144905740Y-107131000D01*
X144839558Y-107124482D01*
X144773373Y-107117963D01*
X144603534Y-107066443D01*
X144447009Y-106982778D01*
X144383429Y-106930599D01*
X144309814Y-106870186D01*
X144223601Y-106765134D01*
X144197222Y-106732991D01*
X144113557Y-106576466D01*
X144062037Y-106406627D01*
X144044641Y-106230000D01*
X144062037Y-106053373D01*
X144113557Y-105883534D01*
X144197222Y-105727009D01*
X144226552Y-105691271D01*
X144309814Y-105589814D01*
X144411271Y-105506552D01*
X144447009Y-105477222D01*
X144603534Y-105393557D01*
X144773373Y-105342037D01*
X144839557Y-105335519D01*
X144905740Y-105329000D01*
X144994260Y-105329000D01*
X145060443Y-105335519D01*
X145060443Y-105335519D01*
G37*
G36*
X143311000Y-107131000D02*
G01*
X141509000Y-107131000D01*
X141509000Y-105329000D01*
X143311000Y-105329000D01*
X143311000Y-107131000D01*
X143311000Y-107131000D01*
G37*
G36*
X127451000Y-106476500D02*
G01*
X117549000Y-106476500D01*
X117549000Y-104899500D01*
X127451000Y-104899500D01*
X127451000Y-106476500D01*
X127451000Y-106476500D01*
G37*
G36*
X167476000Y-105301000D02*
G01*
X163024000Y-105301000D01*
X163024000Y-103749000D01*
X167476000Y-103749000D01*
X167476000Y-105301000D01*
X167476000Y-105301000D01*
G37*
G36*
X154826000Y-105301000D02*
G01*
X150374000Y-105301000D01*
X150374000Y-103749000D01*
X154826000Y-103749000D01*
X154826000Y-105301000D01*
X154826000Y-105301000D01*
G37*
G36*
X190249591Y-103798085D02*
G01*
X190283569Y-103808393D01*
X190314890Y-103825134D01*
X190342339Y-103847661D01*
X190364866Y-103875110D01*
X190381607Y-103906431D01*
X190391915Y-103940409D01*
X190396000Y-103981890D01*
X190396000Y-104658110D01*
X190391915Y-104699591D01*
X190381607Y-104733569D01*
X190364866Y-104764890D01*
X190342339Y-104792339D01*
X190314890Y-104814866D01*
X190283569Y-104831607D01*
X190249591Y-104841915D01*
X190208110Y-104846000D01*
X189606890Y-104846000D01*
X189565409Y-104841915D01*
X189531431Y-104831607D01*
X189500110Y-104814866D01*
X189472661Y-104792339D01*
X189450134Y-104764890D01*
X189433393Y-104733569D01*
X189423085Y-104699591D01*
X189419000Y-104658110D01*
X189419000Y-103981890D01*
X189423085Y-103940409D01*
X189433393Y-103906431D01*
X189450134Y-103875110D01*
X189472661Y-103847661D01*
X189500110Y-103825134D01*
X189531431Y-103808393D01*
X189565409Y-103798085D01*
X189606890Y-103794000D01*
X190208110Y-103794000D01*
X190249591Y-103798085D01*
X190249591Y-103798085D01*
G37*
G36*
X188674591Y-103798085D02*
G01*
X188708569Y-103808393D01*
X188739890Y-103825134D01*
X188767339Y-103847661D01*
X188789866Y-103875110D01*
X188806607Y-103906431D01*
X188816915Y-103940409D01*
X188821000Y-103981890D01*
X188821000Y-104658110D01*
X188816915Y-104699591D01*
X188806607Y-104733569D01*
X188789866Y-104764890D01*
X188767339Y-104792339D01*
X188739890Y-104814866D01*
X188708569Y-104831607D01*
X188674591Y-104841915D01*
X188633110Y-104846000D01*
X188031890Y-104846000D01*
X187990409Y-104841915D01*
X187956431Y-104831607D01*
X187925110Y-104814866D01*
X187897661Y-104792339D01*
X187875134Y-104764890D01*
X187858393Y-104733569D01*
X187848085Y-104699591D01*
X187844000Y-104658110D01*
X187844000Y-103981890D01*
X187848085Y-103940409D01*
X187858393Y-103906431D01*
X187875134Y-103875110D01*
X187897661Y-103847661D01*
X187925110Y-103825134D01*
X187956431Y-103808393D01*
X187990409Y-103798085D01*
X188031890Y-103794000D01*
X188633110Y-103794000D01*
X188674591Y-103798085D01*
X188674591Y-103798085D01*
G37*
G36*
X175612798Y-103123247D02*
G01*
X175648367Y-103134037D01*
X175681139Y-103151554D01*
X175709869Y-103175131D01*
X175733446Y-103203861D01*
X175750963Y-103236633D01*
X175761753Y-103272202D01*
X175766000Y-103315325D01*
X175766000Y-104424675D01*
X175761753Y-104467798D01*
X175750963Y-104503367D01*
X175733446Y-104536139D01*
X175709869Y-104564869D01*
X175681139Y-104588446D01*
X175648367Y-104605963D01*
X175612798Y-104616753D01*
X175569675Y-104621000D01*
X174510325Y-104621000D01*
X174467202Y-104616753D01*
X174431633Y-104605963D01*
X174398861Y-104588446D01*
X174370131Y-104564869D01*
X174346554Y-104536139D01*
X174329037Y-104503367D01*
X174318247Y-104467798D01*
X174314000Y-104424675D01*
X174314000Y-103315325D01*
X174318247Y-103272202D01*
X174329037Y-103236633D01*
X174346554Y-103203861D01*
X174370131Y-103175131D01*
X174398861Y-103151554D01*
X174431633Y-103134037D01*
X174467202Y-103123247D01*
X174510325Y-103119000D01*
X175569675Y-103119000D01*
X175612798Y-103123247D01*
X175612798Y-103123247D01*
G37*
G36*
X178422798Y-103123247D02*
G01*
X178458367Y-103134037D01*
X178491139Y-103151554D01*
X178519869Y-103175131D01*
X178543446Y-103203861D01*
X178560963Y-103236633D01*
X178571753Y-103272202D01*
X178576000Y-103315325D01*
X178576000Y-104424675D01*
X178571753Y-104467798D01*
X178560963Y-104503367D01*
X178543446Y-104536139D01*
X178519869Y-104564869D01*
X178491139Y-104588446D01*
X178458367Y-104605963D01*
X178422798Y-104616753D01*
X178379675Y-104621000D01*
X177320325Y-104621000D01*
X177277202Y-104616753D01*
X177241633Y-104605963D01*
X177208861Y-104588446D01*
X177180131Y-104564869D01*
X177156554Y-104536139D01*
X177139037Y-104503367D01*
X177128247Y-104467798D01*
X177124000Y-104424675D01*
X177124000Y-103315325D01*
X177128247Y-103272202D01*
X177139037Y-103236633D01*
X177156554Y-103203861D01*
X177180131Y-103175131D01*
X177208861Y-103151554D01*
X177241633Y-103134037D01*
X177277202Y-103123247D01*
X177320325Y-103119000D01*
X178379675Y-103119000D01*
X178422798Y-103123247D01*
X178422798Y-103123247D01*
G37*
G36*
X145060443Y-102585519D02*
G01*
X145126627Y-102592037D01*
X145296466Y-102643557D01*
X145452991Y-102727222D01*
X145466855Y-102738600D01*
X145590186Y-102839814D01*
X145640399Y-102901000D01*
X145702778Y-102977009D01*
X145744610Y-103055271D01*
X145780945Y-103123247D01*
X145786443Y-103133534D01*
X145837963Y-103303373D01*
X145855359Y-103480000D01*
X145837963Y-103656627D01*
X145786443Y-103826466D01*
X145702778Y-103982991D01*
X145696534Y-103990599D01*
X145590186Y-104120186D01*
X145488729Y-104203448D01*
X145452991Y-104232778D01*
X145296466Y-104316443D01*
X145126627Y-104367963D01*
X145060442Y-104374482D01*
X144994260Y-104381000D01*
X144905740Y-104381000D01*
X144839558Y-104374482D01*
X144773373Y-104367963D01*
X144603534Y-104316443D01*
X144447009Y-104232778D01*
X144411271Y-104203448D01*
X144309814Y-104120186D01*
X144203466Y-103990599D01*
X144197222Y-103982991D01*
X144113557Y-103826466D01*
X144062037Y-103656627D01*
X144044641Y-103480000D01*
X144062037Y-103303373D01*
X144113557Y-103133534D01*
X144119056Y-103123247D01*
X144155390Y-103055271D01*
X144197222Y-102977009D01*
X144259601Y-102901000D01*
X144309814Y-102839814D01*
X144433145Y-102738600D01*
X144447009Y-102727222D01*
X144603534Y-102643557D01*
X144773373Y-102592037D01*
X144839557Y-102585519D01*
X144905740Y-102579000D01*
X144994260Y-102579000D01*
X145060443Y-102585519D01*
X145060443Y-102585519D01*
G37*
G36*
X143311000Y-104381000D02*
G01*
X141509000Y-104381000D01*
X141509000Y-102579000D01*
X143311000Y-102579000D01*
X143311000Y-104381000D01*
X143311000Y-104381000D01*
G37*
G36*
X130026500Y-103901000D02*
G01*
X128449500Y-103901000D01*
X128449500Y-93999000D01*
X130026500Y-93999000D01*
X130026500Y-103901000D01*
X130026500Y-103901000D01*
G37*
G36*
X116550500Y-103901000D02*
G01*
X114973500Y-103901000D01*
X114973500Y-93999000D01*
X116550500Y-93999000D01*
X116550500Y-103901000D01*
X116550500Y-103901000D01*
G37*
G36*
X190274000Y-102738600D02*
G01*
X187886000Y-102738600D01*
X187886000Y-101163400D01*
X190274000Y-101163400D01*
X190274000Y-102738600D01*
X190274000Y-102738600D01*
G37*
G36*
X194359591Y-101193085D02*
G01*
X194393569Y-101203393D01*
X194424890Y-101220134D01*
X194452339Y-101242661D01*
X194474866Y-101270110D01*
X194491607Y-101301431D01*
X194501915Y-101335409D01*
X194506000Y-101376890D01*
X194506000Y-101978110D01*
X194501915Y-102019591D01*
X194491607Y-102053569D01*
X194474866Y-102084890D01*
X194452339Y-102112339D01*
X194424890Y-102134866D01*
X194393569Y-102151607D01*
X194359591Y-102161915D01*
X194318110Y-102166000D01*
X193641890Y-102166000D01*
X193600409Y-102161915D01*
X193566431Y-102151607D01*
X193535110Y-102134866D01*
X193507661Y-102112339D01*
X193485134Y-102084890D01*
X193468393Y-102053569D01*
X193458085Y-102019591D01*
X193454000Y-101978110D01*
X193454000Y-101376890D01*
X193458085Y-101335409D01*
X193468393Y-101301431D01*
X193485134Y-101270110D01*
X193507661Y-101242661D01*
X193535110Y-101220134D01*
X193566431Y-101203393D01*
X193600409Y-101193085D01*
X193641890Y-101189000D01*
X194318110Y-101189000D01*
X194359591Y-101193085D01*
X194359591Y-101193085D01*
G37*
G36*
X192499591Y-101153085D02*
G01*
X192533569Y-101163393D01*
X192564890Y-101180134D01*
X192592339Y-101202661D01*
X192614866Y-101230110D01*
X192631607Y-101261431D01*
X192641915Y-101295409D01*
X192646000Y-101336890D01*
X192646000Y-101938110D01*
X192641915Y-101979591D01*
X192631607Y-102013569D01*
X192614866Y-102044890D01*
X192592339Y-102072339D01*
X192564890Y-102094866D01*
X192533569Y-102111607D01*
X192499591Y-102121915D01*
X192458110Y-102126000D01*
X191781890Y-102126000D01*
X191740409Y-102121915D01*
X191706431Y-102111607D01*
X191675110Y-102094866D01*
X191647661Y-102072339D01*
X191625134Y-102044890D01*
X191608393Y-102013569D01*
X191598085Y-101979591D01*
X191594000Y-101938110D01*
X191594000Y-101336890D01*
X191598085Y-101295409D01*
X191608393Y-101261431D01*
X191625134Y-101230110D01*
X191647661Y-101202661D01*
X191675110Y-101180134D01*
X191706431Y-101163393D01*
X191740409Y-101153085D01*
X191781890Y-101149000D01*
X192458110Y-101149000D01*
X192499591Y-101153085D01*
X192499591Y-101153085D01*
G37*
G36*
X108576564Y-99959389D02*
G01*
X108767833Y-100038615D01*
X108767835Y-100038616D01*
X108939973Y-100153635D01*
X109086365Y-100300027D01*
X109182960Y-100444591D01*
X109201385Y-100472167D01*
X109280611Y-100663436D01*
X109321000Y-100866484D01*
X109321000Y-101073516D01*
X109280611Y-101276564D01*
X109201385Y-101467833D01*
X109201384Y-101467835D01*
X109086365Y-101639973D01*
X108939973Y-101786365D01*
X108767835Y-101901384D01*
X108767834Y-101901385D01*
X108767833Y-101901385D01*
X108576564Y-101980611D01*
X108373516Y-102021000D01*
X108166484Y-102021000D01*
X107963436Y-101980611D01*
X107772167Y-101901385D01*
X107772166Y-101901385D01*
X107772165Y-101901384D01*
X107600027Y-101786365D01*
X107453635Y-101639973D01*
X107338616Y-101467835D01*
X107338615Y-101467833D01*
X107259389Y-101276564D01*
X107219000Y-101073516D01*
X107219000Y-100866484D01*
X107259389Y-100663436D01*
X107338615Y-100472167D01*
X107357041Y-100444591D01*
X107453635Y-100300027D01*
X107600027Y-100153635D01*
X107772165Y-100038616D01*
X107772167Y-100038615D01*
X107963436Y-99959389D01*
X108166484Y-99919000D01*
X108373516Y-99919000D01*
X108576564Y-99959389D01*
X108576564Y-99959389D01*
G37*
G36*
X175612798Y-100423247D02*
G01*
X175648367Y-100434037D01*
X175681139Y-100451554D01*
X175709869Y-100475131D01*
X175733446Y-100503861D01*
X175750963Y-100536633D01*
X175761753Y-100572202D01*
X175766000Y-100615325D01*
X175766000Y-101724675D01*
X175761753Y-101767798D01*
X175750963Y-101803367D01*
X175733446Y-101836139D01*
X175709869Y-101864869D01*
X175681139Y-101888446D01*
X175648367Y-101905963D01*
X175612798Y-101916753D01*
X175569675Y-101921000D01*
X174510325Y-101921000D01*
X174467202Y-101916753D01*
X174431633Y-101905963D01*
X174398861Y-101888446D01*
X174370131Y-101864869D01*
X174346554Y-101836139D01*
X174329037Y-101803367D01*
X174318247Y-101767798D01*
X174314000Y-101724675D01*
X174314000Y-100615325D01*
X174318247Y-100572202D01*
X174329037Y-100536633D01*
X174346554Y-100503861D01*
X174370131Y-100475131D01*
X174398861Y-100451554D01*
X174431633Y-100434037D01*
X174467202Y-100423247D01*
X174510325Y-100419000D01*
X175569675Y-100419000D01*
X175612798Y-100423247D01*
X175612798Y-100423247D01*
G37*
G36*
X178422798Y-100423247D02*
G01*
X178458367Y-100434037D01*
X178491139Y-100451554D01*
X178519869Y-100475131D01*
X178543446Y-100503861D01*
X178560963Y-100536633D01*
X178571753Y-100572202D01*
X178576000Y-100615325D01*
X178576000Y-101724675D01*
X178571753Y-101767798D01*
X178560963Y-101803367D01*
X178543446Y-101836139D01*
X178519869Y-101864869D01*
X178491139Y-101888446D01*
X178458367Y-101905963D01*
X178422798Y-101916753D01*
X178379675Y-101921000D01*
X177320325Y-101921000D01*
X177277202Y-101916753D01*
X177241633Y-101905963D01*
X177208861Y-101888446D01*
X177180131Y-101864869D01*
X177156554Y-101836139D01*
X177139037Y-101803367D01*
X177128247Y-101767798D01*
X177124000Y-101724675D01*
X177124000Y-100615325D01*
X177128247Y-100572202D01*
X177139037Y-100536633D01*
X177156554Y-100503861D01*
X177180131Y-100475131D01*
X177208861Y-100451554D01*
X177241633Y-100434037D01*
X177277202Y-100423247D01*
X177320325Y-100419000D01*
X178379675Y-100419000D01*
X178422798Y-100423247D01*
X178422798Y-100423247D01*
G37*
G36*
X184251000Y-101801000D02*
G01*
X180949000Y-101801000D01*
X180949000Y-99699000D01*
X184251000Y-99699000D01*
X184251000Y-101801000D01*
X184251000Y-101801000D01*
G37*
G36*
X194359591Y-99618085D02*
G01*
X194393569Y-99628393D01*
X194424890Y-99645134D01*
X194452339Y-99667661D01*
X194474866Y-99695110D01*
X194491607Y-99726431D01*
X194501915Y-99760409D01*
X194506000Y-99801890D01*
X194506000Y-100403110D01*
X194501915Y-100444591D01*
X194491607Y-100478569D01*
X194474866Y-100509890D01*
X194452339Y-100537339D01*
X194424890Y-100559866D01*
X194393569Y-100576607D01*
X194359591Y-100586915D01*
X194318110Y-100591000D01*
X193641890Y-100591000D01*
X193600409Y-100586915D01*
X193566431Y-100576607D01*
X193535110Y-100559866D01*
X193507661Y-100537339D01*
X193485134Y-100509890D01*
X193468393Y-100478569D01*
X193458085Y-100444591D01*
X193454000Y-100403110D01*
X193454000Y-99801890D01*
X193458085Y-99760409D01*
X193468393Y-99726431D01*
X193485134Y-99695110D01*
X193507661Y-99667661D01*
X193535110Y-99645134D01*
X193566431Y-99628393D01*
X193600409Y-99618085D01*
X193641890Y-99614000D01*
X194318110Y-99614000D01*
X194359591Y-99618085D01*
X194359591Y-99618085D01*
G37*
G36*
X192499591Y-99578085D02*
G01*
X192533569Y-99588393D01*
X192564890Y-99605134D01*
X192592339Y-99627661D01*
X192614866Y-99655110D01*
X192631607Y-99686431D01*
X192641915Y-99720409D01*
X192646000Y-99761890D01*
X192646000Y-100363110D01*
X192641915Y-100404591D01*
X192631607Y-100438569D01*
X192614866Y-100469890D01*
X192592339Y-100497339D01*
X192564890Y-100519866D01*
X192533569Y-100536607D01*
X192499591Y-100546915D01*
X192458110Y-100551000D01*
X191781890Y-100551000D01*
X191740409Y-100546915D01*
X191706431Y-100536607D01*
X191675110Y-100519866D01*
X191647661Y-100497339D01*
X191625134Y-100469890D01*
X191608393Y-100438569D01*
X191598085Y-100404591D01*
X191594000Y-100363110D01*
X191594000Y-99761890D01*
X191598085Y-99720409D01*
X191608393Y-99686431D01*
X191625134Y-99655110D01*
X191647661Y-99627661D01*
X191675110Y-99605134D01*
X191706431Y-99588393D01*
X191740409Y-99578085D01*
X191781890Y-99574000D01*
X192458110Y-99574000D01*
X192499591Y-99578085D01*
X192499591Y-99578085D01*
G37*
G36*
X143341000Y-99711000D02*
G01*
X141539000Y-99711000D01*
X141539000Y-97909000D01*
X143341000Y-97909000D01*
X143341000Y-99711000D01*
X143341000Y-99711000D01*
G37*
G36*
X145090442Y-97915518D02*
G01*
X145156627Y-97922037D01*
X145326466Y-97973557D01*
X145482991Y-98057222D01*
X145510478Y-98079780D01*
X145620186Y-98169814D01*
X145703448Y-98271271D01*
X145732778Y-98307009D01*
X145816443Y-98463534D01*
X145867963Y-98633373D01*
X145885359Y-98810000D01*
X145867963Y-98986627D01*
X145816443Y-99156466D01*
X145732778Y-99312991D01*
X145703448Y-99348729D01*
X145620186Y-99450186D01*
X145518729Y-99533448D01*
X145482991Y-99562778D01*
X145326466Y-99646443D01*
X145156627Y-99697963D01*
X145090442Y-99704482D01*
X145024260Y-99711000D01*
X144935740Y-99711000D01*
X144869558Y-99704482D01*
X144803373Y-99697963D01*
X144633534Y-99646443D01*
X144477009Y-99562778D01*
X144441271Y-99533448D01*
X144339814Y-99450186D01*
X144256552Y-99348729D01*
X144227222Y-99312991D01*
X144143557Y-99156466D01*
X144092037Y-98986627D01*
X144074641Y-98810000D01*
X144092037Y-98633373D01*
X144143557Y-98463534D01*
X144227222Y-98307009D01*
X144256552Y-98271271D01*
X144339814Y-98169814D01*
X144449522Y-98079780D01*
X144477009Y-98057222D01*
X144633534Y-97973557D01*
X144803373Y-97922037D01*
X144869558Y-97915518D01*
X144935740Y-97909000D01*
X145024260Y-97909000D01*
X145090442Y-97915518D01*
X145090442Y-97915518D01*
G37*
G36*
X167476000Y-99451000D02*
G01*
X163024000Y-99451000D01*
X163024000Y-97899000D01*
X167476000Y-97899000D01*
X167476000Y-99451000D01*
X167476000Y-99451000D01*
G37*
G36*
X154826000Y-99451000D02*
G01*
X150374000Y-99451000D01*
X150374000Y-97899000D01*
X154826000Y-97899000D01*
X154826000Y-99451000D01*
X154826000Y-99451000D01*
G37*
G36*
X192509591Y-97933085D02*
G01*
X192543569Y-97943393D01*
X192574890Y-97960134D01*
X192602339Y-97982661D01*
X192624866Y-98010110D01*
X192641607Y-98041431D01*
X192651915Y-98075409D01*
X192656000Y-98116890D01*
X192656000Y-98718110D01*
X192651915Y-98759591D01*
X192641607Y-98793569D01*
X192624866Y-98824890D01*
X192602339Y-98852339D01*
X192574890Y-98874866D01*
X192543569Y-98891607D01*
X192509591Y-98901915D01*
X192468110Y-98906000D01*
X191791890Y-98906000D01*
X191750409Y-98901915D01*
X191716431Y-98891607D01*
X191685110Y-98874866D01*
X191657661Y-98852339D01*
X191635134Y-98824890D01*
X191618393Y-98793569D01*
X191608085Y-98759591D01*
X191604000Y-98718110D01*
X191604000Y-98116890D01*
X191608085Y-98075409D01*
X191618393Y-98041431D01*
X191635134Y-98010110D01*
X191657661Y-97982661D01*
X191685110Y-97960134D01*
X191716431Y-97943393D01*
X191750409Y-97933085D01*
X191791890Y-97929000D01*
X192468110Y-97929000D01*
X192509591Y-97933085D01*
X192509591Y-97933085D01*
G37*
G36*
X192509591Y-96358085D02*
G01*
X192543569Y-96368393D01*
X192574890Y-96385134D01*
X192602339Y-96407661D01*
X192624866Y-96435110D01*
X192641607Y-96466431D01*
X192651915Y-96500409D01*
X192656000Y-96541890D01*
X192656000Y-97143110D01*
X192651915Y-97184591D01*
X192641607Y-97218569D01*
X192624866Y-97249890D01*
X192602339Y-97277339D01*
X192574890Y-97299866D01*
X192543569Y-97316607D01*
X192509591Y-97326915D01*
X192468110Y-97331000D01*
X191791890Y-97331000D01*
X191750409Y-97326915D01*
X191716431Y-97316607D01*
X191685110Y-97299866D01*
X191657661Y-97277339D01*
X191635134Y-97249890D01*
X191618393Y-97218569D01*
X191608085Y-97184591D01*
X191604000Y-97143110D01*
X191604000Y-96541890D01*
X191608085Y-96500409D01*
X191618393Y-96466431D01*
X191635134Y-96435110D01*
X191657661Y-96407661D01*
X191685110Y-96385134D01*
X191716431Y-96368393D01*
X191750409Y-96358085D01*
X191791890Y-96354000D01*
X192468110Y-96354000D01*
X192509591Y-96358085D01*
X192509591Y-96358085D01*
G37*
G36*
X145090443Y-95175519D02*
G01*
X145156627Y-95182037D01*
X145326466Y-95233557D01*
X145482991Y-95317222D01*
X145518729Y-95346552D01*
X145620186Y-95429814D01*
X145703448Y-95531271D01*
X145732778Y-95567009D01*
X145816443Y-95723534D01*
X145867963Y-95893373D01*
X145885359Y-96070000D01*
X145867963Y-96246627D01*
X145819114Y-96407661D01*
X145816442Y-96416468D01*
X145791809Y-96462552D01*
X145732778Y-96572991D01*
X145712048Y-96598250D01*
X145620186Y-96710186D01*
X145518729Y-96793448D01*
X145482991Y-96822778D01*
X145326466Y-96906443D01*
X145156627Y-96957963D01*
X145090443Y-96964481D01*
X145024260Y-96971000D01*
X144935740Y-96971000D01*
X144869557Y-96964481D01*
X144803373Y-96957963D01*
X144633534Y-96906443D01*
X144477009Y-96822778D01*
X144441271Y-96793448D01*
X144339814Y-96710186D01*
X144247952Y-96598250D01*
X144227222Y-96572991D01*
X144168191Y-96462552D01*
X144143558Y-96416468D01*
X144140886Y-96407661D01*
X144092037Y-96246627D01*
X144074641Y-96070000D01*
X144092037Y-95893373D01*
X144143557Y-95723534D01*
X144227222Y-95567009D01*
X144256552Y-95531271D01*
X144339814Y-95429814D01*
X144441271Y-95346552D01*
X144477009Y-95317222D01*
X144633534Y-95233557D01*
X144803373Y-95182037D01*
X144869557Y-95175519D01*
X144935740Y-95169000D01*
X145024260Y-95169000D01*
X145090443Y-95175519D01*
X145090443Y-95175519D01*
G37*
G36*
X143341000Y-96971000D02*
G01*
X141539000Y-96971000D01*
X141539000Y-95169000D01*
X143341000Y-95169000D01*
X143341000Y-96971000D01*
X143341000Y-96971000D01*
G37*
G36*
X158054591Y-95878085D02*
G01*
X158088569Y-95888393D01*
X158119890Y-95905134D01*
X158147339Y-95927661D01*
X158169866Y-95955110D01*
X158186607Y-95986431D01*
X158196915Y-96020409D01*
X158201000Y-96061890D01*
X158201000Y-96738110D01*
X158196915Y-96779591D01*
X158186607Y-96813569D01*
X158169866Y-96844890D01*
X158147339Y-96872339D01*
X158119890Y-96894866D01*
X158088569Y-96911607D01*
X158054591Y-96921915D01*
X158013110Y-96926000D01*
X157411890Y-96926000D01*
X157370409Y-96921915D01*
X157336431Y-96911607D01*
X157305110Y-96894866D01*
X157277661Y-96872339D01*
X157255134Y-96844890D01*
X157238393Y-96813569D01*
X157228085Y-96779591D01*
X157224000Y-96738110D01*
X157224000Y-96061890D01*
X157228085Y-96020409D01*
X157238393Y-95986431D01*
X157255134Y-95955110D01*
X157277661Y-95927661D01*
X157305110Y-95905134D01*
X157336431Y-95888393D01*
X157370409Y-95878085D01*
X157411890Y-95874000D01*
X158013110Y-95874000D01*
X158054591Y-95878085D01*
X158054591Y-95878085D01*
G37*
G36*
X159629591Y-95878085D02*
G01*
X159663569Y-95888393D01*
X159694890Y-95905134D01*
X159722339Y-95927661D01*
X159744866Y-95955110D01*
X159761607Y-95986431D01*
X159771915Y-96020409D01*
X159776000Y-96061890D01*
X159776000Y-96738110D01*
X159771915Y-96779591D01*
X159761607Y-96813569D01*
X159744866Y-96844890D01*
X159722339Y-96872339D01*
X159694890Y-96894866D01*
X159663569Y-96911607D01*
X159629591Y-96921915D01*
X159588110Y-96926000D01*
X158986890Y-96926000D01*
X158945409Y-96921915D01*
X158911431Y-96911607D01*
X158880110Y-96894866D01*
X158852661Y-96872339D01*
X158830134Y-96844890D01*
X158813393Y-96813569D01*
X158803085Y-96779591D01*
X158799000Y-96738110D01*
X158799000Y-96061890D01*
X158803085Y-96020409D01*
X158813393Y-95986431D01*
X158830134Y-95955110D01*
X158852661Y-95927661D01*
X158880110Y-95905134D01*
X158911431Y-95888393D01*
X158945409Y-95878085D01*
X158986890Y-95874000D01*
X159588110Y-95874000D01*
X159629591Y-95878085D01*
X159629591Y-95878085D01*
G37*
G36*
X154329591Y-95878085D02*
G01*
X154363569Y-95888393D01*
X154394890Y-95905134D01*
X154422339Y-95927661D01*
X154444866Y-95955110D01*
X154461607Y-95986431D01*
X154471915Y-96020409D01*
X154476000Y-96061890D01*
X154476000Y-96738110D01*
X154471915Y-96779591D01*
X154461607Y-96813569D01*
X154444866Y-96844890D01*
X154422339Y-96872339D01*
X154394890Y-96894866D01*
X154363569Y-96911607D01*
X154329591Y-96921915D01*
X154288110Y-96926000D01*
X153686890Y-96926000D01*
X153645409Y-96921915D01*
X153611431Y-96911607D01*
X153580110Y-96894866D01*
X153552661Y-96872339D01*
X153530134Y-96844890D01*
X153513393Y-96813569D01*
X153503085Y-96779591D01*
X153499000Y-96738110D01*
X153499000Y-96061890D01*
X153503085Y-96020409D01*
X153513393Y-95986431D01*
X153530134Y-95955110D01*
X153552661Y-95927661D01*
X153580110Y-95905134D01*
X153611431Y-95888393D01*
X153645409Y-95878085D01*
X153686890Y-95874000D01*
X154288110Y-95874000D01*
X154329591Y-95878085D01*
X154329591Y-95878085D01*
G37*
G36*
X152754591Y-95878085D02*
G01*
X152788569Y-95888393D01*
X152819890Y-95905134D01*
X152847339Y-95927661D01*
X152869866Y-95955110D01*
X152886607Y-95986431D01*
X152896915Y-96020409D01*
X152901000Y-96061890D01*
X152901000Y-96738110D01*
X152896915Y-96779591D01*
X152886607Y-96813569D01*
X152869866Y-96844890D01*
X152847339Y-96872339D01*
X152819890Y-96894866D01*
X152788569Y-96911607D01*
X152754591Y-96921915D01*
X152713110Y-96926000D01*
X152111890Y-96926000D01*
X152070409Y-96921915D01*
X152036431Y-96911607D01*
X152005110Y-96894866D01*
X151977661Y-96872339D01*
X151955134Y-96844890D01*
X151938393Y-96813569D01*
X151928085Y-96779591D01*
X151924000Y-96738110D01*
X151924000Y-96061890D01*
X151928085Y-96020409D01*
X151938393Y-95986431D01*
X151955134Y-95955110D01*
X151977661Y-95927661D01*
X152005110Y-95905134D01*
X152036431Y-95888393D01*
X152070409Y-95878085D01*
X152111890Y-95874000D01*
X152713110Y-95874000D01*
X152754591Y-95878085D01*
X152754591Y-95878085D01*
G37*
G36*
X190274000Y-96896600D02*
G01*
X187886000Y-96896600D01*
X187886000Y-95321400D01*
X190274000Y-95321400D01*
X190274000Y-96896600D01*
X190274000Y-96896600D01*
G37*
G36*
X166404591Y-95828085D02*
G01*
X166438569Y-95838393D01*
X166469890Y-95855134D01*
X166497339Y-95877661D01*
X166519866Y-95905110D01*
X166536607Y-95936431D01*
X166546915Y-95970409D01*
X166551000Y-96011890D01*
X166551000Y-96688110D01*
X166546915Y-96729591D01*
X166536607Y-96763569D01*
X166519866Y-96794890D01*
X166497339Y-96822339D01*
X166469890Y-96844866D01*
X166438569Y-96861607D01*
X166404591Y-96871915D01*
X166363110Y-96876000D01*
X165761890Y-96876000D01*
X165720409Y-96871915D01*
X165686431Y-96861607D01*
X165655110Y-96844866D01*
X165627661Y-96822339D01*
X165605134Y-96794890D01*
X165588393Y-96763569D01*
X165578085Y-96729591D01*
X165574000Y-96688110D01*
X165574000Y-96011890D01*
X165578085Y-95970409D01*
X165588393Y-95936431D01*
X165605134Y-95905110D01*
X165627661Y-95877661D01*
X165655110Y-95855134D01*
X165686431Y-95838393D01*
X165720409Y-95828085D01*
X165761890Y-95824000D01*
X166363110Y-95824000D01*
X166404591Y-95828085D01*
X166404591Y-95828085D01*
G37*
G36*
X167979591Y-95828085D02*
G01*
X168013569Y-95838393D01*
X168044890Y-95855134D01*
X168072339Y-95877661D01*
X168094866Y-95905110D01*
X168111607Y-95936431D01*
X168121915Y-95970409D01*
X168126000Y-96011890D01*
X168126000Y-96688110D01*
X168121915Y-96729591D01*
X168111607Y-96763569D01*
X168094866Y-96794890D01*
X168072339Y-96822339D01*
X168044890Y-96844866D01*
X168013569Y-96861607D01*
X167979591Y-96871915D01*
X167938110Y-96876000D01*
X167336890Y-96876000D01*
X167295409Y-96871915D01*
X167261431Y-96861607D01*
X167230110Y-96844866D01*
X167202661Y-96822339D01*
X167180134Y-96794890D01*
X167163393Y-96763569D01*
X167153085Y-96729591D01*
X167149000Y-96688110D01*
X167149000Y-96011890D01*
X167153085Y-95970409D01*
X167163393Y-95936431D01*
X167180134Y-95905110D01*
X167202661Y-95877661D01*
X167230110Y-95855134D01*
X167261431Y-95838393D01*
X167295409Y-95828085D01*
X167336890Y-95824000D01*
X167938110Y-95824000D01*
X167979591Y-95828085D01*
X167979591Y-95828085D01*
G37*
G36*
X163054591Y-95828085D02*
G01*
X163088569Y-95838393D01*
X163119890Y-95855134D01*
X163147339Y-95877661D01*
X163169866Y-95905110D01*
X163186607Y-95936431D01*
X163196915Y-95970409D01*
X163201000Y-96011890D01*
X163201000Y-96688110D01*
X163196915Y-96729591D01*
X163186607Y-96763569D01*
X163169866Y-96794890D01*
X163147339Y-96822339D01*
X163119890Y-96844866D01*
X163088569Y-96861607D01*
X163054591Y-96871915D01*
X163013110Y-96876000D01*
X162411890Y-96876000D01*
X162370409Y-96871915D01*
X162336431Y-96861607D01*
X162305110Y-96844866D01*
X162277661Y-96822339D01*
X162255134Y-96794890D01*
X162238393Y-96763569D01*
X162228085Y-96729591D01*
X162224000Y-96688110D01*
X162224000Y-96011890D01*
X162228085Y-95970409D01*
X162238393Y-95936431D01*
X162255134Y-95905110D01*
X162277661Y-95877661D01*
X162305110Y-95855134D01*
X162336431Y-95838393D01*
X162370409Y-95828085D01*
X162411890Y-95824000D01*
X163013110Y-95824000D01*
X163054591Y-95828085D01*
X163054591Y-95828085D01*
G37*
G36*
X164629591Y-95828085D02*
G01*
X164663569Y-95838393D01*
X164694890Y-95855134D01*
X164722339Y-95877661D01*
X164744866Y-95905110D01*
X164761607Y-95936431D01*
X164771915Y-95970409D01*
X164776000Y-96011890D01*
X164776000Y-96688110D01*
X164771915Y-96729591D01*
X164761607Y-96763569D01*
X164744866Y-96794890D01*
X164722339Y-96822339D01*
X164694890Y-96844866D01*
X164663569Y-96861607D01*
X164629591Y-96871915D01*
X164588110Y-96876000D01*
X163986890Y-96876000D01*
X163945409Y-96871915D01*
X163911431Y-96861607D01*
X163880110Y-96844866D01*
X163852661Y-96822339D01*
X163830134Y-96794890D01*
X163813393Y-96763569D01*
X163803085Y-96729591D01*
X163799000Y-96688110D01*
X163799000Y-96011890D01*
X163803085Y-95970409D01*
X163813393Y-95936431D01*
X163830134Y-95905110D01*
X163852661Y-95877661D01*
X163880110Y-95855134D01*
X163911431Y-95838393D01*
X163945409Y-95828085D01*
X163986890Y-95824000D01*
X164588110Y-95824000D01*
X164629591Y-95828085D01*
X164629591Y-95828085D01*
G37*
G36*
X159911000Y-95301000D02*
G01*
X157309000Y-95301000D01*
X157309000Y-93999000D01*
X159911000Y-93999000D01*
X159911000Y-95301000D01*
X159911000Y-95301000D01*
G37*
G36*
X154651000Y-95301000D02*
G01*
X152049000Y-95301000D01*
X152049000Y-93999000D01*
X154651000Y-93999000D01*
X154651000Y-95301000D01*
X154651000Y-95301000D01*
G37*
G36*
X168151000Y-94701000D02*
G01*
X167449000Y-94701000D01*
X167449000Y-93399000D01*
X168151000Y-93399000D01*
X168151000Y-94701000D01*
X168151000Y-94701000D01*
G37*
G36*
X166251000Y-94701000D02*
G01*
X165549000Y-94701000D01*
X165549000Y-93399000D01*
X166251000Y-93399000D01*
X166251000Y-94701000D01*
X166251000Y-94701000D01*
G37*
G36*
X164679591Y-93453085D02*
G01*
X164713569Y-93463393D01*
X164744890Y-93480134D01*
X164772339Y-93502661D01*
X164794866Y-93530110D01*
X164811607Y-93561431D01*
X164821915Y-93595409D01*
X164826000Y-93636890D01*
X164826000Y-94238110D01*
X164821915Y-94279591D01*
X164811607Y-94313569D01*
X164794866Y-94344890D01*
X164772339Y-94372339D01*
X164744890Y-94394866D01*
X164713569Y-94411607D01*
X164679591Y-94421915D01*
X164638110Y-94426000D01*
X163961890Y-94426000D01*
X163920409Y-94421915D01*
X163886431Y-94411607D01*
X163855110Y-94394866D01*
X163827661Y-94372339D01*
X163805134Y-94344890D01*
X163788393Y-94313569D01*
X163778085Y-94279591D01*
X163774000Y-94238110D01*
X163774000Y-93636890D01*
X163778085Y-93595409D01*
X163788393Y-93561431D01*
X163805134Y-93530110D01*
X163827661Y-93502661D01*
X163855110Y-93480134D01*
X163886431Y-93463393D01*
X163920409Y-93453085D01*
X163961890Y-93449000D01*
X164638110Y-93449000D01*
X164679591Y-93453085D01*
X164679591Y-93453085D01*
G37*
G36*
X163029591Y-93453085D02*
G01*
X163063569Y-93463393D01*
X163094890Y-93480134D01*
X163122339Y-93502661D01*
X163144866Y-93530110D01*
X163161607Y-93561431D01*
X163171915Y-93595409D01*
X163176000Y-93636890D01*
X163176000Y-94238110D01*
X163171915Y-94279591D01*
X163161607Y-94313569D01*
X163144866Y-94344890D01*
X163122339Y-94372339D01*
X163094890Y-94394866D01*
X163063569Y-94411607D01*
X163029591Y-94421915D01*
X162988110Y-94426000D01*
X162311890Y-94426000D01*
X162270409Y-94421915D01*
X162236431Y-94411607D01*
X162205110Y-94394866D01*
X162177661Y-94372339D01*
X162155134Y-94344890D01*
X162138393Y-94313569D01*
X162128085Y-94279591D01*
X162124000Y-94238110D01*
X162124000Y-93636890D01*
X162128085Y-93595409D01*
X162138393Y-93561431D01*
X162155134Y-93530110D01*
X162177661Y-93502661D01*
X162205110Y-93480134D01*
X162236431Y-93463393D01*
X162270409Y-93453085D01*
X162311890Y-93449000D01*
X162988110Y-93449000D01*
X163029591Y-93453085D01*
X163029591Y-93453085D01*
G37*
G36*
X188424591Y-93218085D02*
G01*
X188458569Y-93228393D01*
X188489890Y-93245134D01*
X188517339Y-93267661D01*
X188539866Y-93295110D01*
X188556607Y-93326431D01*
X188566915Y-93360409D01*
X188571000Y-93401890D01*
X188571000Y-94078110D01*
X188566915Y-94119591D01*
X188556607Y-94153569D01*
X188539866Y-94184890D01*
X188517339Y-94212339D01*
X188489890Y-94234866D01*
X188458569Y-94251607D01*
X188424591Y-94261915D01*
X188383110Y-94266000D01*
X187781890Y-94266000D01*
X187740409Y-94261915D01*
X187706431Y-94251607D01*
X187675110Y-94234866D01*
X187647661Y-94212339D01*
X187625134Y-94184890D01*
X187608393Y-94153569D01*
X187598085Y-94119591D01*
X187594000Y-94078110D01*
X187594000Y-93401890D01*
X187598085Y-93360409D01*
X187608393Y-93326431D01*
X187625134Y-93295110D01*
X187647661Y-93267661D01*
X187675110Y-93245134D01*
X187706431Y-93228393D01*
X187740409Y-93218085D01*
X187781890Y-93214000D01*
X188383110Y-93214000D01*
X188424591Y-93218085D01*
X188424591Y-93218085D01*
G37*
G36*
X189999591Y-93218085D02*
G01*
X190033569Y-93228393D01*
X190064890Y-93245134D01*
X190092339Y-93267661D01*
X190114866Y-93295110D01*
X190131607Y-93326431D01*
X190141915Y-93360409D01*
X190146000Y-93401890D01*
X190146000Y-94078110D01*
X190141915Y-94119591D01*
X190131607Y-94153569D01*
X190114866Y-94184890D01*
X190092339Y-94212339D01*
X190064890Y-94234866D01*
X190033569Y-94251607D01*
X189999591Y-94261915D01*
X189958110Y-94266000D01*
X189356890Y-94266000D01*
X189315409Y-94261915D01*
X189281431Y-94251607D01*
X189250110Y-94234866D01*
X189222661Y-94212339D01*
X189200134Y-94184890D01*
X189183393Y-94153569D01*
X189173085Y-94119591D01*
X189169000Y-94078110D01*
X189169000Y-93401890D01*
X189173085Y-93360409D01*
X189183393Y-93326431D01*
X189200134Y-93295110D01*
X189222661Y-93267661D01*
X189250110Y-93245134D01*
X189281431Y-93228393D01*
X189315409Y-93218085D01*
X189356890Y-93214000D01*
X189958110Y-93214000D01*
X189999591Y-93218085D01*
X189999591Y-93218085D01*
G37*
G36*
X133454591Y-92028085D02*
G01*
X133488569Y-92038393D01*
X133519890Y-92055134D01*
X133547339Y-92077661D01*
X133569866Y-92105110D01*
X133586607Y-92136431D01*
X133596915Y-92170409D01*
X133601000Y-92211890D01*
X133601000Y-92888110D01*
X133596915Y-92929591D01*
X133586607Y-92963569D01*
X133569866Y-92994890D01*
X133547339Y-93022339D01*
X133519890Y-93044866D01*
X133488569Y-93061607D01*
X133454591Y-93071915D01*
X133413110Y-93076000D01*
X132811890Y-93076000D01*
X132770409Y-93071915D01*
X132736431Y-93061607D01*
X132705110Y-93044866D01*
X132677661Y-93022339D01*
X132655134Y-92994890D01*
X132638393Y-92963569D01*
X132628085Y-92929591D01*
X132624000Y-92888110D01*
X132624000Y-92211890D01*
X132628085Y-92170409D01*
X132638393Y-92136431D01*
X132655134Y-92105110D01*
X132677661Y-92077661D01*
X132705110Y-92055134D01*
X132736431Y-92038393D01*
X132770409Y-92028085D01*
X132811890Y-92024000D01*
X133413110Y-92024000D01*
X133454591Y-92028085D01*
X133454591Y-92028085D01*
G37*
G36*
X135029591Y-92028085D02*
G01*
X135063569Y-92038393D01*
X135094890Y-92055134D01*
X135122339Y-92077661D01*
X135144866Y-92105110D01*
X135161607Y-92136431D01*
X135171915Y-92170409D01*
X135176000Y-92211890D01*
X135176000Y-92888110D01*
X135171915Y-92929591D01*
X135161607Y-92963569D01*
X135144866Y-92994890D01*
X135122339Y-93022339D01*
X135094890Y-93044866D01*
X135063569Y-93061607D01*
X135029591Y-93071915D01*
X134988110Y-93076000D01*
X134386890Y-93076000D01*
X134345409Y-93071915D01*
X134311431Y-93061607D01*
X134280110Y-93044866D01*
X134252661Y-93022339D01*
X134230134Y-92994890D01*
X134213393Y-92963569D01*
X134203085Y-92929591D01*
X134199000Y-92888110D01*
X134199000Y-92211890D01*
X134203085Y-92170409D01*
X134213393Y-92136431D01*
X134230134Y-92105110D01*
X134252661Y-92077661D01*
X134280110Y-92055134D01*
X134311431Y-92038393D01*
X134345409Y-92028085D01*
X134386890Y-92024000D01*
X134988110Y-92024000D01*
X135029591Y-92028085D01*
X135029591Y-92028085D01*
G37*
G36*
X131779591Y-92053085D02*
G01*
X131813569Y-92063393D01*
X131844890Y-92080134D01*
X131872339Y-92102661D01*
X131894866Y-92130110D01*
X131911607Y-92161431D01*
X131921915Y-92195409D01*
X131926000Y-92236890D01*
X131926000Y-92838110D01*
X131921915Y-92879591D01*
X131911607Y-92913569D01*
X131894866Y-92944890D01*
X131872339Y-92972339D01*
X131844890Y-92994866D01*
X131813569Y-93011607D01*
X131779591Y-93021915D01*
X131738110Y-93026000D01*
X131061890Y-93026000D01*
X131020409Y-93021915D01*
X130986431Y-93011607D01*
X130955110Y-92994866D01*
X130927661Y-92972339D01*
X130905134Y-92944890D01*
X130888393Y-92913569D01*
X130878085Y-92879591D01*
X130874000Y-92838110D01*
X130874000Y-92236890D01*
X130878085Y-92195409D01*
X130888393Y-92161431D01*
X130905134Y-92130110D01*
X130927661Y-92102661D01*
X130955110Y-92080134D01*
X130986431Y-92063393D01*
X131020409Y-92053085D01*
X131061890Y-92049000D01*
X131738110Y-92049000D01*
X131779591Y-92053085D01*
X131779591Y-92053085D01*
G37*
G36*
X127451000Y-93000500D02*
G01*
X117549000Y-93000500D01*
X117549000Y-91423500D01*
X127451000Y-91423500D01*
X127451000Y-93000500D01*
X127451000Y-93000500D01*
G37*
G36*
X164679591Y-91878085D02*
G01*
X164713569Y-91888393D01*
X164744890Y-91905134D01*
X164772339Y-91927661D01*
X164794866Y-91955110D01*
X164811607Y-91986431D01*
X164821915Y-92020409D01*
X164826000Y-92061890D01*
X164826000Y-92663110D01*
X164821915Y-92704591D01*
X164811607Y-92738569D01*
X164794866Y-92769890D01*
X164772339Y-92797339D01*
X164744890Y-92819866D01*
X164713569Y-92836607D01*
X164679591Y-92846915D01*
X164638110Y-92851000D01*
X163961890Y-92851000D01*
X163920409Y-92846915D01*
X163886431Y-92836607D01*
X163855110Y-92819866D01*
X163827661Y-92797339D01*
X163805134Y-92769890D01*
X163788393Y-92738569D01*
X163778085Y-92704591D01*
X163774000Y-92663110D01*
X163774000Y-92061890D01*
X163778085Y-92020409D01*
X163788393Y-91986431D01*
X163805134Y-91955110D01*
X163827661Y-91927661D01*
X163855110Y-91905134D01*
X163886431Y-91888393D01*
X163920409Y-91878085D01*
X163961890Y-91874000D01*
X164638110Y-91874000D01*
X164679591Y-91878085D01*
X164679591Y-91878085D01*
G37*
G36*
X163029591Y-91878085D02*
G01*
X163063569Y-91888393D01*
X163094890Y-91905134D01*
X163122339Y-91927661D01*
X163144866Y-91955110D01*
X163161607Y-91986431D01*
X163171915Y-92020409D01*
X163176000Y-92061890D01*
X163176000Y-92663110D01*
X163171915Y-92704591D01*
X163161607Y-92738569D01*
X163144866Y-92769890D01*
X163122339Y-92797339D01*
X163094890Y-92819866D01*
X163063569Y-92836607D01*
X163029591Y-92846915D01*
X162988110Y-92851000D01*
X162311890Y-92851000D01*
X162270409Y-92846915D01*
X162236431Y-92836607D01*
X162205110Y-92819866D01*
X162177661Y-92797339D01*
X162155134Y-92769890D01*
X162138393Y-92738569D01*
X162128085Y-92704591D01*
X162124000Y-92663110D01*
X162124000Y-92061890D01*
X162128085Y-92020409D01*
X162138393Y-91986431D01*
X162155134Y-91955110D01*
X162177661Y-91927661D01*
X162205110Y-91905134D01*
X162236431Y-91888393D01*
X162270409Y-91878085D01*
X162311890Y-91874000D01*
X162988110Y-91874000D01*
X163029591Y-91878085D01*
X163029591Y-91878085D01*
G37*
G36*
X159911000Y-92801000D02*
G01*
X159209000Y-92801000D01*
X159209000Y-91499000D01*
X159911000Y-91499000D01*
X159911000Y-92801000D01*
X159911000Y-92801000D01*
G37*
G36*
X154651000Y-92801000D02*
G01*
X153949000Y-92801000D01*
X153949000Y-91499000D01*
X154651000Y-91499000D01*
X154651000Y-92801000D01*
X154651000Y-92801000D01*
G37*
G36*
X152751000Y-92801000D02*
G01*
X152049000Y-92801000D01*
X152049000Y-91499000D01*
X152751000Y-91499000D01*
X152751000Y-92801000D01*
X152751000Y-92801000D01*
G37*
G36*
X158011000Y-92801000D02*
G01*
X157309000Y-92801000D01*
X157309000Y-91499000D01*
X158011000Y-91499000D01*
X158011000Y-92801000D01*
X158011000Y-92801000D01*
G37*
G36*
X168151000Y-92201000D02*
G01*
X165549000Y-92201000D01*
X165549000Y-90899000D01*
X168151000Y-90899000D01*
X168151000Y-92201000D01*
X168151000Y-92201000D01*
G37*
G36*
X143291000Y-92191000D02*
G01*
X141489000Y-92191000D01*
X141489000Y-90389000D01*
X143291000Y-90389000D01*
X143291000Y-92191000D01*
X143291000Y-92191000D01*
G37*
G36*
X145034061Y-90394890D02*
G01*
X145106627Y-90402037D01*
X145276466Y-90453557D01*
X145432991Y-90537222D01*
X145443125Y-90545539D01*
X145570186Y-90649814D01*
X145626349Y-90718250D01*
X145682778Y-90787009D01*
X145766443Y-90943534D01*
X145817963Y-91113373D01*
X145835359Y-91290000D01*
X145817963Y-91466627D01*
X145766443Y-91636466D01*
X145682778Y-91792991D01*
X145653448Y-91828729D01*
X145570186Y-91930186D01*
X145501650Y-91986431D01*
X145432991Y-92042778D01*
X145276466Y-92126443D01*
X145106627Y-92177963D01*
X145040442Y-92184482D01*
X144974260Y-92191000D01*
X144885740Y-92191000D01*
X144819557Y-92184481D01*
X144753373Y-92177963D01*
X144583534Y-92126443D01*
X144427009Y-92042778D01*
X144358350Y-91986431D01*
X144289814Y-91930186D01*
X144206552Y-91828729D01*
X144177222Y-91792991D01*
X144093557Y-91636466D01*
X144042037Y-91466627D01*
X144024641Y-91290000D01*
X144042037Y-91113373D01*
X144093557Y-90943534D01*
X144177222Y-90787009D01*
X144233651Y-90718250D01*
X144289814Y-90649814D01*
X144416875Y-90545539D01*
X144427009Y-90537222D01*
X144583534Y-90453557D01*
X144753373Y-90402037D01*
X144825939Y-90394890D01*
X144885740Y-90389000D01*
X144974260Y-90389000D01*
X145034061Y-90394890D01*
X145034061Y-90394890D01*
G37*
G36*
X135029591Y-90478085D02*
G01*
X135063569Y-90488393D01*
X135094890Y-90505134D01*
X135122339Y-90527661D01*
X135144866Y-90555110D01*
X135161607Y-90586431D01*
X135171915Y-90620409D01*
X135176000Y-90661890D01*
X135176000Y-91338110D01*
X135171915Y-91379591D01*
X135161607Y-91413569D01*
X135144866Y-91444890D01*
X135122339Y-91472339D01*
X135094890Y-91494866D01*
X135063569Y-91511607D01*
X135029591Y-91521915D01*
X134988110Y-91526000D01*
X134386890Y-91526000D01*
X134345409Y-91521915D01*
X134311431Y-91511607D01*
X134280110Y-91494866D01*
X134252661Y-91472339D01*
X134230134Y-91444890D01*
X134213393Y-91413569D01*
X134203085Y-91379591D01*
X134199000Y-91338110D01*
X134199000Y-90661890D01*
X134203085Y-90620409D01*
X134213393Y-90586431D01*
X134230134Y-90555110D01*
X134252661Y-90527661D01*
X134280110Y-90505134D01*
X134311431Y-90488393D01*
X134345409Y-90478085D01*
X134386890Y-90474000D01*
X134988110Y-90474000D01*
X135029591Y-90478085D01*
X135029591Y-90478085D01*
G37*
G36*
X133454591Y-90478085D02*
G01*
X133488569Y-90488393D01*
X133519890Y-90505134D01*
X133547339Y-90527661D01*
X133569866Y-90555110D01*
X133586607Y-90586431D01*
X133596915Y-90620409D01*
X133601000Y-90661890D01*
X133601000Y-91338110D01*
X133596915Y-91379591D01*
X133586607Y-91413569D01*
X133569866Y-91444890D01*
X133547339Y-91472339D01*
X133519890Y-91494866D01*
X133488569Y-91511607D01*
X133454591Y-91521915D01*
X133413110Y-91526000D01*
X132811890Y-91526000D01*
X132770409Y-91521915D01*
X132736431Y-91511607D01*
X132705110Y-91494866D01*
X132677661Y-91472339D01*
X132655134Y-91444890D01*
X132638393Y-91413569D01*
X132628085Y-91379591D01*
X132624000Y-91338110D01*
X132624000Y-90661890D01*
X132628085Y-90620409D01*
X132638393Y-90586431D01*
X132655134Y-90555110D01*
X132677661Y-90527661D01*
X132705110Y-90505134D01*
X132736431Y-90488393D01*
X132770409Y-90478085D01*
X132811890Y-90474000D01*
X133413110Y-90474000D01*
X133454591Y-90478085D01*
X133454591Y-90478085D01*
G37*
G36*
X131779591Y-90478085D02*
G01*
X131813569Y-90488393D01*
X131844890Y-90505134D01*
X131872339Y-90527661D01*
X131894866Y-90555110D01*
X131911607Y-90586431D01*
X131921915Y-90620409D01*
X131926000Y-90661890D01*
X131926000Y-91263110D01*
X131921915Y-91304591D01*
X131911607Y-91338569D01*
X131894866Y-91369890D01*
X131872339Y-91397339D01*
X131844890Y-91419866D01*
X131813569Y-91436607D01*
X131779591Y-91446915D01*
X131738110Y-91451000D01*
X131061890Y-91451000D01*
X131020409Y-91446915D01*
X130986431Y-91436607D01*
X130955110Y-91419866D01*
X130927661Y-91397339D01*
X130905134Y-91369890D01*
X130888393Y-91338569D01*
X130878085Y-91304591D01*
X130874000Y-91263110D01*
X130874000Y-90661890D01*
X130878085Y-90620409D01*
X130888393Y-90586431D01*
X130905134Y-90555110D01*
X130927661Y-90527661D01*
X130955110Y-90505134D01*
X130986431Y-90488393D01*
X131020409Y-90478085D01*
X131061890Y-90474000D01*
X131738110Y-90474000D01*
X131779591Y-90478085D01*
X131779591Y-90478085D01*
G37*
G36*
X152904591Y-89428085D02*
G01*
X152938569Y-89438393D01*
X152969890Y-89455134D01*
X152997339Y-89477661D01*
X153019866Y-89505110D01*
X153036607Y-89536431D01*
X153046915Y-89570409D01*
X153051000Y-89611890D01*
X153051000Y-90288110D01*
X153046915Y-90329591D01*
X153036607Y-90363569D01*
X153019866Y-90394890D01*
X152997339Y-90422339D01*
X152969890Y-90444866D01*
X152938569Y-90461607D01*
X152904591Y-90471915D01*
X152863110Y-90476000D01*
X152261890Y-90476000D01*
X152220409Y-90471915D01*
X152186431Y-90461607D01*
X152155110Y-90444866D01*
X152127661Y-90422339D01*
X152105134Y-90394890D01*
X152088393Y-90363569D01*
X152078085Y-90329591D01*
X152074000Y-90288110D01*
X152074000Y-89611890D01*
X152078085Y-89570409D01*
X152088393Y-89536431D01*
X152105134Y-89505110D01*
X152127661Y-89477661D01*
X152155110Y-89455134D01*
X152186431Y-89438393D01*
X152220409Y-89428085D01*
X152261890Y-89424000D01*
X152863110Y-89424000D01*
X152904591Y-89428085D01*
X152904591Y-89428085D01*
G37*
G36*
X154479591Y-89428085D02*
G01*
X154513569Y-89438393D01*
X154544890Y-89455134D01*
X154572339Y-89477661D01*
X154594866Y-89505110D01*
X154611607Y-89536431D01*
X154621915Y-89570409D01*
X154626000Y-89611890D01*
X154626000Y-90288110D01*
X154621915Y-90329591D01*
X154611607Y-90363569D01*
X154594866Y-90394890D01*
X154572339Y-90422339D01*
X154544890Y-90444866D01*
X154513569Y-90461607D01*
X154479591Y-90471915D01*
X154438110Y-90476000D01*
X153836890Y-90476000D01*
X153795409Y-90471915D01*
X153761431Y-90461607D01*
X153730110Y-90444866D01*
X153702661Y-90422339D01*
X153680134Y-90394890D01*
X153663393Y-90363569D01*
X153653085Y-90329591D01*
X153649000Y-90288110D01*
X153649000Y-89611890D01*
X153653085Y-89570409D01*
X153663393Y-89536431D01*
X153680134Y-89505110D01*
X153702661Y-89477661D01*
X153730110Y-89455134D01*
X153761431Y-89438393D01*
X153795409Y-89428085D01*
X153836890Y-89424000D01*
X154438110Y-89424000D01*
X154479591Y-89428085D01*
X154479591Y-89428085D01*
G37*
G36*
X159699591Y-89428085D02*
G01*
X159733569Y-89438393D01*
X159764890Y-89455134D01*
X159792339Y-89477661D01*
X159814866Y-89505110D01*
X159831607Y-89536431D01*
X159841915Y-89570409D01*
X159846000Y-89611890D01*
X159846000Y-90288110D01*
X159841915Y-90329591D01*
X159831607Y-90363569D01*
X159814866Y-90394890D01*
X159792339Y-90422339D01*
X159764890Y-90444866D01*
X159733569Y-90461607D01*
X159699591Y-90471915D01*
X159658110Y-90476000D01*
X159056890Y-90476000D01*
X159015409Y-90471915D01*
X158981431Y-90461607D01*
X158950110Y-90444866D01*
X158922661Y-90422339D01*
X158900134Y-90394890D01*
X158883393Y-90363569D01*
X158873085Y-90329591D01*
X158869000Y-90288110D01*
X158869000Y-89611890D01*
X158873085Y-89570409D01*
X158883393Y-89536431D01*
X158900134Y-89505110D01*
X158922661Y-89477661D01*
X158950110Y-89455134D01*
X158981431Y-89438393D01*
X159015409Y-89428085D01*
X159056890Y-89424000D01*
X159658110Y-89424000D01*
X159699591Y-89428085D01*
X159699591Y-89428085D01*
G37*
G36*
X158124591Y-89428085D02*
G01*
X158158569Y-89438393D01*
X158189890Y-89455134D01*
X158217339Y-89477661D01*
X158239866Y-89505110D01*
X158256607Y-89536431D01*
X158266915Y-89570409D01*
X158271000Y-89611890D01*
X158271000Y-90288110D01*
X158266915Y-90329591D01*
X158256607Y-90363569D01*
X158239866Y-90394890D01*
X158217339Y-90422339D01*
X158189890Y-90444866D01*
X158158569Y-90461607D01*
X158124591Y-90471915D01*
X158083110Y-90476000D01*
X157481890Y-90476000D01*
X157440409Y-90471915D01*
X157406431Y-90461607D01*
X157375110Y-90444866D01*
X157347661Y-90422339D01*
X157325134Y-90394890D01*
X157308393Y-90363569D01*
X157298085Y-90329591D01*
X157294000Y-90288110D01*
X157294000Y-89611890D01*
X157298085Y-89570409D01*
X157308393Y-89536431D01*
X157325134Y-89505110D01*
X157347661Y-89477661D01*
X157375110Y-89455134D01*
X157406431Y-89438393D01*
X157440409Y-89428085D01*
X157481890Y-89424000D01*
X158083110Y-89424000D01*
X158124591Y-89428085D01*
X158124591Y-89428085D01*
G37*
G36*
X166504591Y-89228085D02*
G01*
X166538569Y-89238393D01*
X166569890Y-89255134D01*
X166597339Y-89277661D01*
X166619866Y-89305110D01*
X166636607Y-89336431D01*
X166646915Y-89370409D01*
X166651000Y-89411890D01*
X166651000Y-90088110D01*
X166646915Y-90129591D01*
X166636607Y-90163569D01*
X166619866Y-90194890D01*
X166597339Y-90222339D01*
X166569890Y-90244866D01*
X166538569Y-90261607D01*
X166504591Y-90271915D01*
X166463110Y-90276000D01*
X165861890Y-90276000D01*
X165820409Y-90271915D01*
X165786431Y-90261607D01*
X165755110Y-90244866D01*
X165727661Y-90222339D01*
X165705134Y-90194890D01*
X165688393Y-90163569D01*
X165678085Y-90129591D01*
X165674000Y-90088110D01*
X165674000Y-89411890D01*
X165678085Y-89370409D01*
X165688393Y-89336431D01*
X165705134Y-89305110D01*
X165727661Y-89277661D01*
X165755110Y-89255134D01*
X165786431Y-89238393D01*
X165820409Y-89228085D01*
X165861890Y-89224000D01*
X166463110Y-89224000D01*
X166504591Y-89228085D01*
X166504591Y-89228085D01*
G37*
G36*
X168079591Y-89228085D02*
G01*
X168113569Y-89238393D01*
X168144890Y-89255134D01*
X168172339Y-89277661D01*
X168194866Y-89305110D01*
X168211607Y-89336431D01*
X168221915Y-89370409D01*
X168226000Y-89411890D01*
X168226000Y-90088110D01*
X168221915Y-90129591D01*
X168211607Y-90163569D01*
X168194866Y-90194890D01*
X168172339Y-90222339D01*
X168144890Y-90244866D01*
X168113569Y-90261607D01*
X168079591Y-90271915D01*
X168038110Y-90276000D01*
X167436890Y-90276000D01*
X167395409Y-90271915D01*
X167361431Y-90261607D01*
X167330110Y-90244866D01*
X167302661Y-90222339D01*
X167280134Y-90194890D01*
X167263393Y-90163569D01*
X167253085Y-90129591D01*
X167249000Y-90088110D01*
X167249000Y-89411890D01*
X167253085Y-89370409D01*
X167263393Y-89336431D01*
X167280134Y-89305110D01*
X167302661Y-89277661D01*
X167330110Y-89255134D01*
X167361431Y-89238393D01*
X167395409Y-89228085D01*
X167436890Y-89224000D01*
X168038110Y-89224000D01*
X168079591Y-89228085D01*
X168079591Y-89228085D01*
G37*
G36*
X143291000Y-89451000D02*
G01*
X141489000Y-89451000D01*
X141489000Y-87649000D01*
X143291000Y-87649000D01*
X143291000Y-89451000D01*
X143291000Y-89451000D01*
G37*
G36*
X145036539Y-87655134D02*
G01*
X145106627Y-87662037D01*
X145276466Y-87713557D01*
X145432991Y-87797222D01*
X145461476Y-87820599D01*
X145570186Y-87909814D01*
X145653448Y-88011271D01*
X145682778Y-88047009D01*
X145682779Y-88047011D01*
X145759536Y-88190611D01*
X145766443Y-88203534D01*
X145817963Y-88373373D01*
X145835359Y-88550000D01*
X145817963Y-88726627D01*
X145766443Y-88896466D01*
X145682778Y-89052991D01*
X145653448Y-89088729D01*
X145570186Y-89190186D01*
X145468729Y-89273448D01*
X145432991Y-89302778D01*
X145276466Y-89386443D01*
X145106627Y-89437963D01*
X145059627Y-89442592D01*
X144974260Y-89451000D01*
X144885740Y-89451000D01*
X144800373Y-89442592D01*
X144753373Y-89437963D01*
X144583534Y-89386443D01*
X144427009Y-89302778D01*
X144391271Y-89273448D01*
X144289814Y-89190186D01*
X144206552Y-89088729D01*
X144177222Y-89052991D01*
X144093557Y-88896466D01*
X144042037Y-88726627D01*
X144024641Y-88550000D01*
X144042037Y-88373373D01*
X144093557Y-88203534D01*
X144100465Y-88190611D01*
X144177221Y-88047011D01*
X144177222Y-88047009D01*
X144206552Y-88011271D01*
X144289814Y-87909814D01*
X144398524Y-87820599D01*
X144427009Y-87797222D01*
X144583534Y-87713557D01*
X144753373Y-87662037D01*
X144823461Y-87655134D01*
X144885740Y-87649000D01*
X144974260Y-87649000D01*
X145036539Y-87655134D01*
X145036539Y-87655134D01*
G37*
G36*
X127710442Y-87145518D02*
G01*
X127776627Y-87152037D01*
X127946466Y-87203557D01*
X128102991Y-87287222D01*
X128138729Y-87316552D01*
X128240186Y-87399814D01*
X128323448Y-87501271D01*
X128352778Y-87537009D01*
X128352779Y-87537011D01*
X128401785Y-87628693D01*
X128436443Y-87693534D01*
X128487963Y-87863373D01*
X128505359Y-88040000D01*
X128487963Y-88216627D01*
X128436443Y-88386466D01*
X128352778Y-88542991D01*
X128326328Y-88575220D01*
X128240186Y-88680186D01*
X128149680Y-88754461D01*
X128102991Y-88792778D01*
X127946466Y-88876443D01*
X127776627Y-88927963D01*
X127710442Y-88934482D01*
X127644260Y-88941000D01*
X127555740Y-88941000D01*
X127489558Y-88934482D01*
X127423373Y-88927963D01*
X127253534Y-88876443D01*
X127097009Y-88792778D01*
X127050320Y-88754461D01*
X126959814Y-88680186D01*
X126873672Y-88575220D01*
X126847222Y-88542991D01*
X126763557Y-88386466D01*
X126712037Y-88216627D01*
X126694641Y-88040000D01*
X126712037Y-87863373D01*
X126763557Y-87693534D01*
X126798216Y-87628693D01*
X126847221Y-87537011D01*
X126847222Y-87537009D01*
X126876552Y-87501271D01*
X126959814Y-87399814D01*
X127061271Y-87316552D01*
X127097009Y-87287222D01*
X127253534Y-87203557D01*
X127423373Y-87152037D01*
X127489558Y-87145518D01*
X127555740Y-87139000D01*
X127644260Y-87139000D01*
X127710442Y-87145518D01*
X127710442Y-87145518D01*
G37*
G36*
X182829591Y-87778085D02*
G01*
X182863569Y-87788393D01*
X182894890Y-87805134D01*
X182922339Y-87827661D01*
X182944866Y-87855110D01*
X182961607Y-87886431D01*
X182971915Y-87920409D01*
X182976000Y-87961890D01*
X182976000Y-88638110D01*
X182971915Y-88679591D01*
X182961607Y-88713569D01*
X182944866Y-88744890D01*
X182922339Y-88772339D01*
X182894890Y-88794866D01*
X182863569Y-88811607D01*
X182829591Y-88821915D01*
X182788110Y-88826000D01*
X182186890Y-88826000D01*
X182145409Y-88821915D01*
X182111431Y-88811607D01*
X182080110Y-88794866D01*
X182052661Y-88772339D01*
X182030134Y-88744890D01*
X182013393Y-88713569D01*
X182003085Y-88679591D01*
X181999000Y-88638110D01*
X181999000Y-87961890D01*
X182003085Y-87920409D01*
X182013393Y-87886431D01*
X182030134Y-87855110D01*
X182052661Y-87827661D01*
X182080110Y-87805134D01*
X182111431Y-87788393D01*
X182145409Y-87778085D01*
X182186890Y-87774000D01*
X182788110Y-87774000D01*
X182829591Y-87778085D01*
X182829591Y-87778085D01*
G37*
G36*
X181254591Y-87778085D02*
G01*
X181288569Y-87788393D01*
X181319890Y-87805134D01*
X181347339Y-87827661D01*
X181369866Y-87855110D01*
X181386607Y-87886431D01*
X181396915Y-87920409D01*
X181401000Y-87961890D01*
X181401000Y-88638110D01*
X181396915Y-88679591D01*
X181386607Y-88713569D01*
X181369866Y-88744890D01*
X181347339Y-88772339D01*
X181319890Y-88794866D01*
X181288569Y-88811607D01*
X181254591Y-88821915D01*
X181213110Y-88826000D01*
X180611890Y-88826000D01*
X180570409Y-88821915D01*
X180536431Y-88811607D01*
X180505110Y-88794866D01*
X180477661Y-88772339D01*
X180455134Y-88744890D01*
X180438393Y-88713569D01*
X180428085Y-88679591D01*
X180424000Y-88638110D01*
X180424000Y-87961890D01*
X180428085Y-87920409D01*
X180438393Y-87886431D01*
X180455134Y-87855110D01*
X180477661Y-87827661D01*
X180505110Y-87805134D01*
X180536431Y-87788393D01*
X180570409Y-87778085D01*
X180611890Y-87774000D01*
X181213110Y-87774000D01*
X181254591Y-87778085D01*
X181254591Y-87778085D01*
G37*
G36*
X158179591Y-87753085D02*
G01*
X158213569Y-87763393D01*
X158244890Y-87780134D01*
X158272339Y-87802661D01*
X158294866Y-87830110D01*
X158311607Y-87861431D01*
X158321915Y-87895409D01*
X158326000Y-87936890D01*
X158326000Y-88538110D01*
X158321915Y-88579591D01*
X158311607Y-88613569D01*
X158294866Y-88644890D01*
X158272339Y-88672339D01*
X158244890Y-88694866D01*
X158213569Y-88711607D01*
X158179591Y-88721915D01*
X158138110Y-88726000D01*
X157461890Y-88726000D01*
X157420409Y-88721915D01*
X157386431Y-88711607D01*
X157355110Y-88694866D01*
X157327661Y-88672339D01*
X157305134Y-88644890D01*
X157288393Y-88613569D01*
X157278085Y-88579591D01*
X157274000Y-88538110D01*
X157274000Y-87936890D01*
X157278085Y-87895409D01*
X157288393Y-87861431D01*
X157305134Y-87830110D01*
X157327661Y-87802661D01*
X157355110Y-87780134D01*
X157386431Y-87763393D01*
X157420409Y-87753085D01*
X157461890Y-87749000D01*
X158138110Y-87749000D01*
X158179591Y-87753085D01*
X158179591Y-87753085D01*
G37*
G36*
X159829591Y-87753085D02*
G01*
X159863569Y-87763393D01*
X159894890Y-87780134D01*
X159922339Y-87802661D01*
X159944866Y-87830110D01*
X159961607Y-87861431D01*
X159971915Y-87895409D01*
X159976000Y-87936890D01*
X159976000Y-88538110D01*
X159971915Y-88579591D01*
X159961607Y-88613569D01*
X159944866Y-88644890D01*
X159922339Y-88672339D01*
X159894890Y-88694866D01*
X159863569Y-88711607D01*
X159829591Y-88721915D01*
X159788110Y-88726000D01*
X159111890Y-88726000D01*
X159070409Y-88721915D01*
X159036431Y-88711607D01*
X159005110Y-88694866D01*
X158977661Y-88672339D01*
X158955134Y-88644890D01*
X158938393Y-88613569D01*
X158928085Y-88579591D01*
X158924000Y-88538110D01*
X158924000Y-87936890D01*
X158928085Y-87895409D01*
X158938393Y-87861431D01*
X158955134Y-87830110D01*
X158977661Y-87802661D01*
X159005110Y-87780134D01*
X159036431Y-87763393D01*
X159070409Y-87753085D01*
X159111890Y-87749000D01*
X159788110Y-87749000D01*
X159829591Y-87753085D01*
X159829591Y-87753085D01*
G37*
G36*
X154429591Y-87628085D02*
G01*
X154463569Y-87638393D01*
X154494890Y-87655134D01*
X154522339Y-87677661D01*
X154544866Y-87705110D01*
X154561607Y-87736431D01*
X154571915Y-87770409D01*
X154576000Y-87811890D01*
X154576000Y-88488110D01*
X154571915Y-88529591D01*
X154561607Y-88563569D01*
X154544866Y-88594890D01*
X154522339Y-88622339D01*
X154494890Y-88644866D01*
X154463569Y-88661607D01*
X154429591Y-88671915D01*
X154388110Y-88676000D01*
X153786890Y-88676000D01*
X153745409Y-88671915D01*
X153711431Y-88661607D01*
X153680110Y-88644866D01*
X153652661Y-88622339D01*
X153630134Y-88594890D01*
X153613393Y-88563569D01*
X153603085Y-88529591D01*
X153599000Y-88488110D01*
X153599000Y-87811890D01*
X153603085Y-87770409D01*
X153613393Y-87736431D01*
X153630134Y-87705110D01*
X153652661Y-87677661D01*
X153680110Y-87655134D01*
X153711431Y-87638393D01*
X153745409Y-87628085D01*
X153786890Y-87624000D01*
X154388110Y-87624000D01*
X154429591Y-87628085D01*
X154429591Y-87628085D01*
G37*
G36*
X152854591Y-87628085D02*
G01*
X152888569Y-87638393D01*
X152919890Y-87655134D01*
X152947339Y-87677661D01*
X152969866Y-87705110D01*
X152986607Y-87736431D01*
X152996915Y-87770409D01*
X153001000Y-87811890D01*
X153001000Y-88488110D01*
X152996915Y-88529591D01*
X152986607Y-88563569D01*
X152969866Y-88594890D01*
X152947339Y-88622339D01*
X152919890Y-88644866D01*
X152888569Y-88661607D01*
X152854591Y-88671915D01*
X152813110Y-88676000D01*
X152211890Y-88676000D01*
X152170409Y-88671915D01*
X152136431Y-88661607D01*
X152105110Y-88644866D01*
X152077661Y-88622339D01*
X152055134Y-88594890D01*
X152038393Y-88563569D01*
X152028085Y-88529591D01*
X152024000Y-88488110D01*
X152024000Y-87811890D01*
X152028085Y-87770409D01*
X152038393Y-87736431D01*
X152055134Y-87705110D01*
X152077661Y-87677661D01*
X152105110Y-87655134D01*
X152136431Y-87638393D01*
X152170409Y-87628085D01*
X152211890Y-87624000D01*
X152813110Y-87624000D01*
X152854591Y-87628085D01*
X152854591Y-87628085D01*
G37*
G36*
X166504591Y-87528085D02*
G01*
X166538569Y-87538393D01*
X166569890Y-87555134D01*
X166597339Y-87577661D01*
X166619866Y-87605110D01*
X166636607Y-87636431D01*
X166646915Y-87670409D01*
X166651000Y-87711890D01*
X166651000Y-88388110D01*
X166646915Y-88429591D01*
X166636607Y-88463569D01*
X166619866Y-88494890D01*
X166597339Y-88522339D01*
X166569890Y-88544866D01*
X166538569Y-88561607D01*
X166504591Y-88571915D01*
X166463110Y-88576000D01*
X165861890Y-88576000D01*
X165820409Y-88571915D01*
X165786431Y-88561607D01*
X165755110Y-88544866D01*
X165727661Y-88522339D01*
X165705134Y-88494890D01*
X165688393Y-88463569D01*
X165678085Y-88429591D01*
X165674000Y-88388110D01*
X165674000Y-87711890D01*
X165678085Y-87670409D01*
X165688393Y-87636431D01*
X165705134Y-87605110D01*
X165727661Y-87577661D01*
X165755110Y-87555134D01*
X165786431Y-87538393D01*
X165820409Y-87528085D01*
X165861890Y-87524000D01*
X166463110Y-87524000D01*
X166504591Y-87528085D01*
X166504591Y-87528085D01*
G37*
G36*
X168079591Y-87528085D02*
G01*
X168113569Y-87538393D01*
X168144890Y-87555134D01*
X168172339Y-87577661D01*
X168194866Y-87605110D01*
X168211607Y-87636431D01*
X168221915Y-87670409D01*
X168226000Y-87711890D01*
X168226000Y-88388110D01*
X168221915Y-88429591D01*
X168211607Y-88463569D01*
X168194866Y-88494890D01*
X168172339Y-88522339D01*
X168144890Y-88544866D01*
X168113569Y-88561607D01*
X168079591Y-88571915D01*
X168038110Y-88576000D01*
X167436890Y-88576000D01*
X167395409Y-88571915D01*
X167361431Y-88561607D01*
X167330110Y-88544866D01*
X167302661Y-88522339D01*
X167280134Y-88494890D01*
X167263393Y-88463569D01*
X167253085Y-88429591D01*
X167249000Y-88388110D01*
X167249000Y-87711890D01*
X167253085Y-87670409D01*
X167263393Y-87636431D01*
X167280134Y-87605110D01*
X167302661Y-87577661D01*
X167330110Y-87555134D01*
X167361431Y-87538393D01*
X167395409Y-87528085D01*
X167436890Y-87524000D01*
X168038110Y-87524000D01*
X168079591Y-87528085D01*
X168079591Y-87528085D01*
G37*
G36*
X105466564Y-86169389D02*
G01*
X105657833Y-86248615D01*
X105657835Y-86248616D01*
X105714429Y-86286431D01*
X105829973Y-86363635D01*
X105976365Y-86510027D01*
X106091385Y-86682167D01*
X106170611Y-86873436D01*
X106211000Y-87076484D01*
X106211000Y-87283516D01*
X106170611Y-87486564D01*
X106091456Y-87677661D01*
X106091384Y-87677835D01*
X105976365Y-87849973D01*
X105829973Y-87996365D01*
X105657835Y-88111384D01*
X105657834Y-88111385D01*
X105657833Y-88111385D01*
X105466564Y-88190611D01*
X105263516Y-88231000D01*
X105056484Y-88231000D01*
X104853436Y-88190611D01*
X104662167Y-88111385D01*
X104662166Y-88111385D01*
X104662165Y-88111384D01*
X104490027Y-87996365D01*
X104343635Y-87849973D01*
X104228616Y-87677835D01*
X104228544Y-87677661D01*
X104149389Y-87486564D01*
X104109000Y-87283516D01*
X104109000Y-87076484D01*
X104149389Y-86873436D01*
X104228615Y-86682167D01*
X104343635Y-86510027D01*
X104490027Y-86363635D01*
X104605571Y-86286431D01*
X104662165Y-86248616D01*
X104662167Y-86248615D01*
X104853436Y-86169389D01*
X105056484Y-86129000D01*
X105263516Y-86129000D01*
X105466564Y-86169389D01*
X105466564Y-86169389D01*
G37*
G36*
X131340600Y-88170200D02*
G01*
X129968600Y-88170200D01*
X129968600Y-87509400D01*
X131340600Y-87509400D01*
X131340600Y-88170200D01*
X131340600Y-88170200D01*
G37*
G36*
X133931400Y-88170200D02*
G01*
X132559400Y-88170200D01*
X132559400Y-87509400D01*
X133931400Y-87509400D01*
X133931400Y-88170200D01*
X133931400Y-88170200D01*
G37*
G36*
X125129591Y-86503085D02*
G01*
X125163569Y-86513393D01*
X125194890Y-86530134D01*
X125222339Y-86552661D01*
X125244866Y-86580110D01*
X125261607Y-86611431D01*
X125271915Y-86645409D01*
X125276000Y-86686890D01*
X125276000Y-87288110D01*
X125271915Y-87329591D01*
X125261607Y-87363569D01*
X125244866Y-87394890D01*
X125222339Y-87422339D01*
X125194890Y-87444866D01*
X125163569Y-87461607D01*
X125129591Y-87471915D01*
X125088110Y-87476000D01*
X124411890Y-87476000D01*
X124370409Y-87471915D01*
X124336431Y-87461607D01*
X124305110Y-87444866D01*
X124277661Y-87422339D01*
X124255134Y-87394890D01*
X124238393Y-87363569D01*
X124228085Y-87329591D01*
X124224000Y-87288110D01*
X124224000Y-86686890D01*
X124228085Y-86645409D01*
X124238393Y-86611431D01*
X124255134Y-86580110D01*
X124277661Y-86552661D01*
X124305110Y-86530134D01*
X124336431Y-86513393D01*
X124370409Y-86503085D01*
X124411890Y-86499000D01*
X125088110Y-86499000D01*
X125129591Y-86503085D01*
X125129591Y-86503085D01*
G37*
G36*
X123379591Y-86503085D02*
G01*
X123413569Y-86513393D01*
X123444890Y-86530134D01*
X123472339Y-86552661D01*
X123494866Y-86580110D01*
X123511607Y-86611431D01*
X123521915Y-86645409D01*
X123526000Y-86686890D01*
X123526000Y-87288110D01*
X123521915Y-87329591D01*
X123511607Y-87363569D01*
X123494866Y-87394890D01*
X123472339Y-87422339D01*
X123444890Y-87444866D01*
X123413569Y-87461607D01*
X123379591Y-87471915D01*
X123338110Y-87476000D01*
X122661890Y-87476000D01*
X122620409Y-87471915D01*
X122586431Y-87461607D01*
X122555110Y-87444866D01*
X122527661Y-87422339D01*
X122505134Y-87394890D01*
X122488393Y-87363569D01*
X122478085Y-87329591D01*
X122474000Y-87288110D01*
X122474000Y-86686890D01*
X122478085Y-86645409D01*
X122488393Y-86611431D01*
X122505134Y-86580110D01*
X122527661Y-86552661D01*
X122555110Y-86530134D01*
X122586431Y-86513393D01*
X122620409Y-86503085D01*
X122661890Y-86499000D01*
X123338110Y-86499000D01*
X123379591Y-86503085D01*
X123379591Y-86503085D01*
G37*
G36*
X133931400Y-87230400D02*
G01*
X132559400Y-87230400D01*
X132559400Y-86569600D01*
X133931400Y-86569600D01*
X133931400Y-87230400D01*
X133931400Y-87230400D01*
G37*
G36*
X131340600Y-87230400D02*
G01*
X129968600Y-87230400D01*
X129968600Y-86569600D01*
X131340600Y-86569600D01*
X131340600Y-87230400D01*
X131340600Y-87230400D01*
G37*
G36*
X158179591Y-86178085D02*
G01*
X158213569Y-86188393D01*
X158244890Y-86205134D01*
X158272339Y-86227661D01*
X158294866Y-86255110D01*
X158311607Y-86286431D01*
X158321915Y-86320409D01*
X158326000Y-86361890D01*
X158326000Y-86963110D01*
X158321915Y-87004591D01*
X158311607Y-87038569D01*
X158294866Y-87069890D01*
X158272339Y-87097339D01*
X158244890Y-87119866D01*
X158213569Y-87136607D01*
X158179591Y-87146915D01*
X158138110Y-87151000D01*
X157461890Y-87151000D01*
X157420409Y-87146915D01*
X157386431Y-87136607D01*
X157355110Y-87119866D01*
X157327661Y-87097339D01*
X157305134Y-87069890D01*
X157288393Y-87038569D01*
X157278085Y-87004591D01*
X157274000Y-86963110D01*
X157274000Y-86361890D01*
X157278085Y-86320409D01*
X157288393Y-86286431D01*
X157305134Y-86255110D01*
X157327661Y-86227661D01*
X157355110Y-86205134D01*
X157386431Y-86188393D01*
X157420409Y-86178085D01*
X157461890Y-86174000D01*
X158138110Y-86174000D01*
X158179591Y-86178085D01*
X158179591Y-86178085D01*
G37*
G36*
X159829591Y-86178085D02*
G01*
X159863569Y-86188393D01*
X159894890Y-86205134D01*
X159922339Y-86227661D01*
X159944866Y-86255110D01*
X159961607Y-86286431D01*
X159971915Y-86320409D01*
X159976000Y-86361890D01*
X159976000Y-86963110D01*
X159971915Y-87004591D01*
X159961607Y-87038569D01*
X159944866Y-87069890D01*
X159922339Y-87097339D01*
X159894890Y-87119866D01*
X159863569Y-87136607D01*
X159829591Y-87146915D01*
X159788110Y-87151000D01*
X159111890Y-87151000D01*
X159070409Y-87146915D01*
X159036431Y-87136607D01*
X159005110Y-87119866D01*
X158977661Y-87097339D01*
X158955134Y-87069890D01*
X158938393Y-87038569D01*
X158928085Y-87004591D01*
X158924000Y-86963110D01*
X158924000Y-86361890D01*
X158928085Y-86320409D01*
X158938393Y-86286431D01*
X158955134Y-86255110D01*
X158977661Y-86227661D01*
X159005110Y-86205134D01*
X159036431Y-86188393D01*
X159070409Y-86178085D01*
X159111890Y-86174000D01*
X159788110Y-86174000D01*
X159829591Y-86178085D01*
X159829591Y-86178085D01*
G37*
G36*
X181831000Y-85024001D02*
G01*
X181833402Y-85048387D01*
X181840515Y-85071836D01*
X181852066Y-85093447D01*
X181867611Y-85112389D01*
X181886553Y-85127934D01*
X181908164Y-85139485D01*
X181931613Y-85146598D01*
X181955999Y-85149000D01*
X182806000Y-85149000D01*
X182806000Y-86251000D01*
X181955999Y-86251000D01*
X181931613Y-86253402D01*
X181908164Y-86260515D01*
X181886553Y-86272066D01*
X181867611Y-86287611D01*
X181852066Y-86306553D01*
X181840515Y-86328164D01*
X181833402Y-86351613D01*
X181831000Y-86375999D01*
X181831000Y-86726000D01*
X181529000Y-86726000D01*
X181529000Y-86375999D01*
X181526598Y-86351613D01*
X181519485Y-86328164D01*
X181507934Y-86306553D01*
X181492389Y-86287611D01*
X181473447Y-86272066D01*
X181451836Y-86260515D01*
X181428387Y-86253402D01*
X181404001Y-86251000D01*
X180554000Y-86251000D01*
X180554000Y-85650999D01*
X181406000Y-85650999D01*
X181406000Y-85749001D01*
X181408402Y-85773387D01*
X181415515Y-85796836D01*
X181427066Y-85818447D01*
X181442611Y-85837389D01*
X181461553Y-85852934D01*
X181483164Y-85864485D01*
X181506613Y-85871598D01*
X181530999Y-85874000D01*
X181829001Y-85874000D01*
X181853387Y-85871598D01*
X181876836Y-85864485D01*
X181898447Y-85852934D01*
X181917389Y-85837389D01*
X181932934Y-85818447D01*
X181944485Y-85796836D01*
X181951598Y-85773387D01*
X181954000Y-85749001D01*
X181954000Y-85650999D01*
X181951598Y-85626613D01*
X181944485Y-85603164D01*
X181932934Y-85581553D01*
X181917389Y-85562611D01*
X181898447Y-85547066D01*
X181876836Y-85535515D01*
X181853387Y-85528402D01*
X181829001Y-85526000D01*
X181530999Y-85526000D01*
X181506613Y-85528402D01*
X181483164Y-85535515D01*
X181461553Y-85547066D01*
X181442611Y-85562611D01*
X181427066Y-85581553D01*
X181415515Y-85603164D01*
X181408402Y-85626613D01*
X181406000Y-85650999D01*
X180554000Y-85650999D01*
X180554000Y-85149000D01*
X181404001Y-85149000D01*
X181428387Y-85146598D01*
X181451836Y-85139485D01*
X181473447Y-85127934D01*
X181492389Y-85112389D01*
X181507934Y-85093447D01*
X181519485Y-85071836D01*
X181526598Y-85048387D01*
X181529000Y-85024001D01*
X181529000Y-84674000D01*
X181831000Y-84674000D01*
X181831000Y-85024001D01*
X181831000Y-85024001D01*
G37*
G36*
X167181000Y-85024001D02*
G01*
X167183402Y-85048387D01*
X167190515Y-85071836D01*
X167202066Y-85093447D01*
X167217611Y-85112389D01*
X167236553Y-85127934D01*
X167258164Y-85139485D01*
X167281613Y-85146598D01*
X167305999Y-85149000D01*
X168156000Y-85149000D01*
X168156000Y-86251000D01*
X167305999Y-86251000D01*
X167281613Y-86253402D01*
X167258164Y-86260515D01*
X167236553Y-86272066D01*
X167217611Y-86287611D01*
X167202066Y-86306553D01*
X167190515Y-86328164D01*
X167183402Y-86351613D01*
X167181000Y-86375999D01*
X167181000Y-86726000D01*
X166879000Y-86726000D01*
X166879000Y-86375999D01*
X166876598Y-86351613D01*
X166869485Y-86328164D01*
X166857934Y-86306553D01*
X166842389Y-86287611D01*
X166823447Y-86272066D01*
X166801836Y-86260515D01*
X166778387Y-86253402D01*
X166754001Y-86251000D01*
X165904000Y-86251000D01*
X165904000Y-85650999D01*
X166756000Y-85650999D01*
X166756000Y-85749001D01*
X166758402Y-85773387D01*
X166765515Y-85796836D01*
X166777066Y-85818447D01*
X166792611Y-85837389D01*
X166811553Y-85852934D01*
X166833164Y-85864485D01*
X166856613Y-85871598D01*
X166880999Y-85874000D01*
X167179001Y-85874000D01*
X167203387Y-85871598D01*
X167226836Y-85864485D01*
X167248447Y-85852934D01*
X167267389Y-85837389D01*
X167282934Y-85818447D01*
X167294485Y-85796836D01*
X167301598Y-85773387D01*
X167304000Y-85749001D01*
X167304000Y-85650999D01*
X167301598Y-85626613D01*
X167294485Y-85603164D01*
X167282934Y-85581553D01*
X167267389Y-85562611D01*
X167248447Y-85547066D01*
X167226836Y-85535515D01*
X167203387Y-85528402D01*
X167179001Y-85526000D01*
X166880999Y-85526000D01*
X166856613Y-85528402D01*
X166833164Y-85535515D01*
X166811553Y-85547066D01*
X166792611Y-85562611D01*
X166777066Y-85581553D01*
X166765515Y-85603164D01*
X166758402Y-85626613D01*
X166756000Y-85650999D01*
X165904000Y-85650999D01*
X165904000Y-85149000D01*
X166754001Y-85149000D01*
X166778387Y-85146598D01*
X166801836Y-85139485D01*
X166823447Y-85127934D01*
X166842389Y-85112389D01*
X166857934Y-85093447D01*
X166869485Y-85071836D01*
X166876598Y-85048387D01*
X166879000Y-85024001D01*
X166879000Y-84674000D01*
X167181000Y-84674000D01*
X167181000Y-85024001D01*
X167181000Y-85024001D01*
G37*
G36*
X153391000Y-85024001D02*
G01*
X153393402Y-85048387D01*
X153400515Y-85071836D01*
X153412066Y-85093447D01*
X153427611Y-85112389D01*
X153446553Y-85127934D01*
X153468164Y-85139485D01*
X153491613Y-85146598D01*
X153515999Y-85149000D01*
X154366000Y-85149000D01*
X154366000Y-86251000D01*
X153515999Y-86251000D01*
X153491613Y-86253402D01*
X153468164Y-86260515D01*
X153446553Y-86272066D01*
X153427611Y-86287611D01*
X153412066Y-86306553D01*
X153400515Y-86328164D01*
X153393402Y-86351613D01*
X153391000Y-86375999D01*
X153391000Y-86726000D01*
X153089000Y-86726000D01*
X153089000Y-86375999D01*
X153086598Y-86351613D01*
X153079485Y-86328164D01*
X153067934Y-86306553D01*
X153052389Y-86287611D01*
X153033447Y-86272066D01*
X153011836Y-86260515D01*
X152988387Y-86253402D01*
X152964001Y-86251000D01*
X152114000Y-86251000D01*
X152114000Y-85650999D01*
X152966000Y-85650999D01*
X152966000Y-85749001D01*
X152968402Y-85773387D01*
X152975515Y-85796836D01*
X152987066Y-85818447D01*
X153002611Y-85837389D01*
X153021553Y-85852934D01*
X153043164Y-85864485D01*
X153066613Y-85871598D01*
X153090999Y-85874000D01*
X153389001Y-85874000D01*
X153413387Y-85871598D01*
X153436836Y-85864485D01*
X153458447Y-85852934D01*
X153477389Y-85837389D01*
X153492934Y-85818447D01*
X153504485Y-85796836D01*
X153511598Y-85773387D01*
X153514000Y-85749001D01*
X153514000Y-85650999D01*
X153511598Y-85626613D01*
X153504485Y-85603164D01*
X153492934Y-85581553D01*
X153477389Y-85562611D01*
X153458447Y-85547066D01*
X153436836Y-85535515D01*
X153413387Y-85528402D01*
X153389001Y-85526000D01*
X153090999Y-85526000D01*
X153066613Y-85528402D01*
X153043164Y-85535515D01*
X153021553Y-85547066D01*
X153002611Y-85562611D01*
X152987066Y-85581553D01*
X152975515Y-85603164D01*
X152968402Y-85626613D01*
X152966000Y-85650999D01*
X152114000Y-85650999D01*
X152114000Y-85149000D01*
X152964001Y-85149000D01*
X152988387Y-85146598D01*
X153011836Y-85139485D01*
X153033447Y-85127934D01*
X153052389Y-85112389D01*
X153067934Y-85093447D01*
X153079485Y-85071836D01*
X153086598Y-85048387D01*
X153089000Y-85024001D01*
X153089000Y-84674000D01*
X153391000Y-84674000D01*
X153391000Y-85024001D01*
X153391000Y-85024001D01*
G37*
G36*
X128501000Y-86401000D02*
G01*
X126699000Y-86401000D01*
X126699000Y-84599000D01*
X128501000Y-84599000D01*
X128501000Y-86401000D01*
X128501000Y-86401000D01*
G37*
G36*
X133931400Y-86290600D02*
G01*
X132559400Y-86290600D01*
X132559400Y-85629800D01*
X133931400Y-85629800D01*
X133931400Y-86290600D01*
X133931400Y-86290600D01*
G37*
G36*
X131340600Y-86290600D02*
G01*
X129968600Y-86290600D01*
X129968600Y-85629800D01*
X131340600Y-85629800D01*
X131340600Y-86290600D01*
X131340600Y-86290600D01*
G37*
G36*
X123379591Y-84928085D02*
G01*
X123413569Y-84938393D01*
X123444890Y-84955134D01*
X123472339Y-84977661D01*
X123494866Y-85005110D01*
X123511607Y-85036431D01*
X123521915Y-85070409D01*
X123526000Y-85111890D01*
X123526000Y-85713110D01*
X123521915Y-85754591D01*
X123511607Y-85788569D01*
X123494866Y-85819890D01*
X123472339Y-85847339D01*
X123444890Y-85869866D01*
X123413569Y-85886607D01*
X123379591Y-85896915D01*
X123338110Y-85901000D01*
X122661890Y-85901000D01*
X122620409Y-85896915D01*
X122586431Y-85886607D01*
X122555110Y-85869866D01*
X122527661Y-85847339D01*
X122505134Y-85819890D01*
X122488393Y-85788569D01*
X122478085Y-85754591D01*
X122474000Y-85713110D01*
X122474000Y-85111890D01*
X122478085Y-85070409D01*
X122488393Y-85036431D01*
X122505134Y-85005110D01*
X122527661Y-84977661D01*
X122555110Y-84955134D01*
X122586431Y-84938393D01*
X122620409Y-84928085D01*
X122661890Y-84924000D01*
X123338110Y-84924000D01*
X123379591Y-84928085D01*
X123379591Y-84928085D01*
G37*
G36*
X125129591Y-84928085D02*
G01*
X125163569Y-84938393D01*
X125194890Y-84955134D01*
X125222339Y-84977661D01*
X125244866Y-85005110D01*
X125261607Y-85036431D01*
X125271915Y-85070409D01*
X125276000Y-85111890D01*
X125276000Y-85713110D01*
X125271915Y-85754591D01*
X125261607Y-85788569D01*
X125244866Y-85819890D01*
X125222339Y-85847339D01*
X125194890Y-85869866D01*
X125163569Y-85886607D01*
X125129591Y-85896915D01*
X125088110Y-85901000D01*
X124411890Y-85901000D01*
X124370409Y-85896915D01*
X124336431Y-85886607D01*
X124305110Y-85869866D01*
X124277661Y-85847339D01*
X124255134Y-85819890D01*
X124238393Y-85788569D01*
X124228085Y-85754591D01*
X124224000Y-85713110D01*
X124224000Y-85111890D01*
X124228085Y-85070409D01*
X124238393Y-85036431D01*
X124255134Y-85005110D01*
X124277661Y-84977661D01*
X124305110Y-84955134D01*
X124336431Y-84938393D01*
X124370409Y-84928085D01*
X124411890Y-84924000D01*
X125088110Y-84924000D01*
X125129591Y-84928085D01*
X125129591Y-84928085D01*
G37*
G36*
X119779591Y-84828085D02*
G01*
X119813569Y-84838393D01*
X119844890Y-84855134D01*
X119872339Y-84877661D01*
X119894866Y-84905110D01*
X119911607Y-84936431D01*
X119921915Y-84970409D01*
X119926000Y-85011890D01*
X119926000Y-85688110D01*
X119921915Y-85729591D01*
X119911607Y-85763569D01*
X119894866Y-85794890D01*
X119872339Y-85822339D01*
X119844890Y-85844866D01*
X119813569Y-85861607D01*
X119779591Y-85871915D01*
X119738110Y-85876000D01*
X119136890Y-85876000D01*
X119095409Y-85871915D01*
X119061431Y-85861607D01*
X119030110Y-85844866D01*
X119002661Y-85822339D01*
X118980134Y-85794890D01*
X118963393Y-85763569D01*
X118953085Y-85729591D01*
X118949000Y-85688110D01*
X118949000Y-85011890D01*
X118953085Y-84970409D01*
X118963393Y-84936431D01*
X118980134Y-84905110D01*
X119002661Y-84877661D01*
X119030110Y-84855134D01*
X119061431Y-84838393D01*
X119095409Y-84828085D01*
X119136890Y-84824000D01*
X119738110Y-84824000D01*
X119779591Y-84828085D01*
X119779591Y-84828085D01*
G37*
G36*
X113704591Y-84828085D02*
G01*
X113738569Y-84838393D01*
X113769890Y-84855134D01*
X113797339Y-84877661D01*
X113819866Y-84905110D01*
X113836607Y-84936431D01*
X113846915Y-84970409D01*
X113851000Y-85011890D01*
X113851000Y-85688110D01*
X113846915Y-85729591D01*
X113836607Y-85763569D01*
X113819866Y-85794890D01*
X113797339Y-85822339D01*
X113769890Y-85844866D01*
X113738569Y-85861607D01*
X113704591Y-85871915D01*
X113663110Y-85876000D01*
X113061890Y-85876000D01*
X113020409Y-85871915D01*
X112986431Y-85861607D01*
X112955110Y-85844866D01*
X112927661Y-85822339D01*
X112905134Y-85794890D01*
X112888393Y-85763569D01*
X112878085Y-85729591D01*
X112874000Y-85688110D01*
X112874000Y-85011890D01*
X112878085Y-84970409D01*
X112888393Y-84936431D01*
X112905134Y-84905110D01*
X112927661Y-84877661D01*
X112955110Y-84855134D01*
X112986431Y-84838393D01*
X113020409Y-84828085D01*
X113061890Y-84824000D01*
X113663110Y-84824000D01*
X113704591Y-84828085D01*
X113704591Y-84828085D01*
G37*
G36*
X115279591Y-84828085D02*
G01*
X115313569Y-84838393D01*
X115344890Y-84855134D01*
X115372339Y-84877661D01*
X115394866Y-84905110D01*
X115411607Y-84936431D01*
X115421915Y-84970409D01*
X115426000Y-85011890D01*
X115426000Y-85688110D01*
X115421915Y-85729591D01*
X115411607Y-85763569D01*
X115394866Y-85794890D01*
X115372339Y-85822339D01*
X115344890Y-85844866D01*
X115313569Y-85861607D01*
X115279591Y-85871915D01*
X115238110Y-85876000D01*
X114636890Y-85876000D01*
X114595409Y-85871915D01*
X114561431Y-85861607D01*
X114530110Y-85844866D01*
X114502661Y-85822339D01*
X114480134Y-85794890D01*
X114463393Y-85763569D01*
X114453085Y-85729591D01*
X114449000Y-85688110D01*
X114449000Y-85011890D01*
X114453085Y-84970409D01*
X114463393Y-84936431D01*
X114480134Y-84905110D01*
X114502661Y-84877661D01*
X114530110Y-84855134D01*
X114561431Y-84838393D01*
X114595409Y-84828085D01*
X114636890Y-84824000D01*
X115238110Y-84824000D01*
X115279591Y-84828085D01*
X115279591Y-84828085D01*
G37*
G36*
X118204591Y-84828085D02*
G01*
X118238569Y-84838393D01*
X118269890Y-84855134D01*
X118297339Y-84877661D01*
X118319866Y-84905110D01*
X118336607Y-84936431D01*
X118346915Y-84970409D01*
X118351000Y-85011890D01*
X118351000Y-85688110D01*
X118346915Y-85729591D01*
X118336607Y-85763569D01*
X118319866Y-85794890D01*
X118297339Y-85822339D01*
X118269890Y-85844866D01*
X118238569Y-85861607D01*
X118204591Y-85871915D01*
X118163110Y-85876000D01*
X117561890Y-85876000D01*
X117520409Y-85871915D01*
X117486431Y-85861607D01*
X117455110Y-85844866D01*
X117427661Y-85822339D01*
X117405134Y-85794890D01*
X117388393Y-85763569D01*
X117378085Y-85729591D01*
X117374000Y-85688110D01*
X117374000Y-85011890D01*
X117378085Y-84970409D01*
X117388393Y-84936431D01*
X117405134Y-84905110D01*
X117427661Y-84877661D01*
X117455110Y-84855134D01*
X117486431Y-84838393D01*
X117520409Y-84828085D01*
X117561890Y-84824000D01*
X118163110Y-84824000D01*
X118204591Y-84828085D01*
X118204591Y-84828085D01*
G37*
G36*
X132256564Y-81739389D02*
G01*
X132447833Y-81818615D01*
X132447835Y-81818616D01*
X132619973Y-81933635D01*
X132766365Y-82080027D01*
X132877265Y-82246000D01*
X132881385Y-82252167D01*
X132960611Y-82443436D01*
X133001000Y-82646484D01*
X133001000Y-82853516D01*
X132960611Y-83056564D01*
X132881385Y-83247833D01*
X132881384Y-83247835D01*
X132766365Y-83419973D01*
X132619973Y-83566365D01*
X132447835Y-83681384D01*
X132447834Y-83681385D01*
X132447833Y-83681385D01*
X132256564Y-83760611D01*
X132053516Y-83801000D01*
X131846484Y-83801000D01*
X131643436Y-83760611D01*
X131452167Y-83681385D01*
X131452166Y-83681385D01*
X131452165Y-83681384D01*
X131280027Y-83566365D01*
X131133635Y-83419973D01*
X131018616Y-83247835D01*
X131018615Y-83247833D01*
X130939389Y-83056564D01*
X130899000Y-82853516D01*
X130899000Y-82646484D01*
X130939389Y-82443436D01*
X131018615Y-82252167D01*
X131022736Y-82246000D01*
X131133635Y-82080027D01*
X131280027Y-81933635D01*
X131452165Y-81818616D01*
X131452167Y-81818615D01*
X131643436Y-81739389D01*
X131846484Y-81699000D01*
X132053516Y-81699000D01*
X132256564Y-81739389D01*
X132256564Y-81739389D01*
G37*
G36*
X103960345Y-81183442D02*
G01*
X104050548Y-81192326D01*
X104224157Y-81244990D01*
X104384156Y-81330511D01*
X104408037Y-81350110D01*
X104524397Y-81445603D01*
X104603729Y-81542271D01*
X104639489Y-81585844D01*
X104725010Y-81745843D01*
X104777674Y-81919452D01*
X104795456Y-82100000D01*
X104777674Y-82280548D01*
X104725010Y-82454157D01*
X104639489Y-82614156D01*
X104612958Y-82646484D01*
X104524397Y-82754397D01*
X104427729Y-82833729D01*
X104384156Y-82869489D01*
X104224157Y-82955010D01*
X104050548Y-83007674D01*
X103960345Y-83016558D01*
X103915245Y-83021000D01*
X103364755Y-83021000D01*
X103319655Y-83016558D01*
X103229452Y-83007674D01*
X103055843Y-82955010D01*
X102895844Y-82869489D01*
X102852271Y-82833729D01*
X102755603Y-82754397D01*
X102667042Y-82646484D01*
X102640511Y-82614156D01*
X102554990Y-82454157D01*
X102502326Y-82280548D01*
X102484544Y-82100000D01*
X102502326Y-81919452D01*
X102554990Y-81745843D01*
X102640511Y-81585844D01*
X102676271Y-81542271D01*
X102755603Y-81445603D01*
X102871963Y-81350110D01*
X102895844Y-81330511D01*
X103055843Y-81244990D01*
X103229452Y-81192326D01*
X103319655Y-81183442D01*
X103364755Y-81179000D01*
X103915245Y-81179000D01*
X103960345Y-81183442D01*
X103960345Y-81183442D01*
G37*
G36*
X122961000Y-82851000D02*
G01*
X118359000Y-82851000D01*
X118359000Y-80749000D01*
X122961000Y-80749000D01*
X122961000Y-82851000D01*
X122961000Y-82851000D01*
G37*
G36*
X114461000Y-82851000D02*
G01*
X109859000Y-82851000D01*
X109859000Y-80749000D01*
X114461000Y-80749000D01*
X114461000Y-82851000D01*
X114461000Y-82851000D01*
G37*
G36*
X124899591Y-81273085D02*
G01*
X124933569Y-81283393D01*
X124964890Y-81300134D01*
X124992339Y-81322661D01*
X125014866Y-81350110D01*
X125031607Y-81381431D01*
X125041915Y-81415409D01*
X125046000Y-81456890D01*
X125046000Y-82058110D01*
X125041915Y-82099591D01*
X125031607Y-82133569D01*
X125014866Y-82164890D01*
X124992339Y-82192339D01*
X124964890Y-82214866D01*
X124933569Y-82231607D01*
X124899591Y-82241915D01*
X124858110Y-82246000D01*
X124181890Y-82246000D01*
X124140409Y-82241915D01*
X124106431Y-82231607D01*
X124075110Y-82214866D01*
X124047661Y-82192339D01*
X124025134Y-82164890D01*
X124008393Y-82133569D01*
X123998085Y-82099591D01*
X123994000Y-82058110D01*
X123994000Y-81456890D01*
X123998085Y-81415409D01*
X124008393Y-81381431D01*
X124025134Y-81350110D01*
X124047661Y-81322661D01*
X124075110Y-81300134D01*
X124106431Y-81283393D01*
X124140409Y-81273085D01*
X124181890Y-81269000D01*
X124858110Y-81269000D01*
X124899591Y-81273085D01*
X124899591Y-81273085D01*
G37*
G36*
X124899591Y-79698085D02*
G01*
X124933569Y-79708393D01*
X124964890Y-79725134D01*
X124992339Y-79747661D01*
X125014866Y-79775110D01*
X125031607Y-79806431D01*
X125041915Y-79840409D01*
X125046000Y-79881890D01*
X125046000Y-80483110D01*
X125041915Y-80524591D01*
X125031607Y-80558569D01*
X125014866Y-80589890D01*
X124992339Y-80617339D01*
X124964890Y-80639866D01*
X124933569Y-80656607D01*
X124899591Y-80666915D01*
X124858110Y-80671000D01*
X124181890Y-80671000D01*
X124140409Y-80666915D01*
X124106431Y-80656607D01*
X124075110Y-80639866D01*
X124047661Y-80617339D01*
X124025134Y-80589890D01*
X124008393Y-80558569D01*
X123998085Y-80524591D01*
X123994000Y-80483110D01*
X123994000Y-79881890D01*
X123998085Y-79840409D01*
X124008393Y-79806431D01*
X124025134Y-79775110D01*
X124047661Y-79747661D01*
X124075110Y-79725134D01*
X124106431Y-79708393D01*
X124140409Y-79698085D01*
X124181890Y-79694000D01*
X124858110Y-79694000D01*
X124899591Y-79698085D01*
X124899591Y-79698085D01*
G37*
G36*
X103960345Y-78643442D02*
G01*
X104050548Y-78652326D01*
X104224157Y-78704990D01*
X104384156Y-78790511D01*
X104427729Y-78826271D01*
X104524397Y-78905603D01*
X104603729Y-79002271D01*
X104639489Y-79045844D01*
X104725010Y-79205843D01*
X104777674Y-79379452D01*
X104795456Y-79560000D01*
X104777674Y-79740548D01*
X104725010Y-79914157D01*
X104639489Y-80074156D01*
X104603729Y-80117729D01*
X104524397Y-80214397D01*
X104427729Y-80293729D01*
X104384156Y-80329489D01*
X104224157Y-80415010D01*
X104050548Y-80467674D01*
X103982246Y-80474401D01*
X103915245Y-80481000D01*
X103364755Y-80481000D01*
X103297754Y-80474401D01*
X103229452Y-80467674D01*
X103055843Y-80415010D01*
X102895844Y-80329489D01*
X102852271Y-80293729D01*
X102755603Y-80214397D01*
X102676271Y-80117729D01*
X102640511Y-80074156D01*
X102554990Y-79914157D01*
X102502326Y-79740548D01*
X102484544Y-79560000D01*
X102502326Y-79379452D01*
X102554990Y-79205843D01*
X102640511Y-79045844D01*
X102676271Y-79002271D01*
X102755603Y-78905603D01*
X102852271Y-78826271D01*
X102895844Y-78790511D01*
X103055843Y-78704990D01*
X103229452Y-78652326D01*
X103319655Y-78643442D01*
X103364755Y-78639000D01*
X103915245Y-78639000D01*
X103960345Y-78643442D01*
X103960345Y-78643442D01*
G37*
G36*
X103960345Y-76103442D02*
G01*
X104050548Y-76112326D01*
X104224157Y-76164990D01*
X104384156Y-76250511D01*
X104427729Y-76286271D01*
X104524397Y-76365603D01*
X104603729Y-76462271D01*
X104639489Y-76505844D01*
X104725010Y-76665843D01*
X104777674Y-76839452D01*
X104795456Y-77020000D01*
X104777674Y-77200548D01*
X104725010Y-77374157D01*
X104639489Y-77534156D01*
X104603729Y-77577729D01*
X104524397Y-77674397D01*
X104427729Y-77753729D01*
X104384156Y-77789489D01*
X104224157Y-77875010D01*
X104050548Y-77927674D01*
X103960345Y-77936558D01*
X103915245Y-77941000D01*
X103364755Y-77941000D01*
X103319655Y-77936558D01*
X103229452Y-77927674D01*
X103055843Y-77875010D01*
X102895844Y-77789489D01*
X102852271Y-77753729D01*
X102755603Y-77674397D01*
X102676271Y-77577729D01*
X102640511Y-77534156D01*
X102554990Y-77374157D01*
X102502326Y-77200548D01*
X102484544Y-77020000D01*
X102502326Y-76839452D01*
X102554990Y-76665843D01*
X102640511Y-76505844D01*
X102676271Y-76462271D01*
X102755603Y-76365603D01*
X102852271Y-76286271D01*
X102895844Y-76250511D01*
X103055843Y-76164990D01*
X103229452Y-76112326D01*
X103319655Y-76103442D01*
X103364755Y-76099000D01*
X103915245Y-76099000D01*
X103960345Y-76103442D01*
X103960345Y-76103442D01*
G37*
G36*
X191123241Y-69904668D02*
G01*
X191527962Y-69985172D01*
X192119606Y-70230239D01*
X192652072Y-70586022D01*
X193104896Y-71038846D01*
X193460679Y-71571312D01*
X193705746Y-72162956D01*
X193727759Y-72273624D01*
X193830680Y-72791041D01*
X193830680Y-73431435D01*
X193804517Y-73562966D01*
X193705746Y-74059520D01*
X193460679Y-74651164D01*
X193104896Y-75183630D01*
X192652072Y-75636454D01*
X192119606Y-75992237D01*
X191527962Y-76237304D01*
X191213919Y-76299771D01*
X190899877Y-76362238D01*
X190259483Y-76362238D01*
X189945441Y-76299771D01*
X189631398Y-76237304D01*
X189039754Y-75992237D01*
X188507288Y-75636454D01*
X188054464Y-75183630D01*
X187698681Y-74651164D01*
X187453614Y-74059520D01*
X187354843Y-73562966D01*
X187328680Y-73431435D01*
X187328680Y-72791041D01*
X187431601Y-72273624D01*
X187453614Y-72162956D01*
X187698681Y-71571312D01*
X188054464Y-71038846D01*
X188507288Y-70586022D01*
X189039754Y-70230239D01*
X189631398Y-69985172D01*
X190036119Y-69904668D01*
X190259483Y-69860238D01*
X190899877Y-69860238D01*
X191123241Y-69904668D01*
X191123241Y-69904668D01*
G37*
G36*
X112071884Y-69904668D02*
G01*
X112476605Y-69985172D01*
X113068249Y-70230239D01*
X113600715Y-70586022D01*
X114053539Y-71038846D01*
X114409322Y-71571312D01*
X114654389Y-72162956D01*
X114676402Y-72273624D01*
X114779323Y-72791041D01*
X114779323Y-73431435D01*
X114753160Y-73562966D01*
X114654389Y-74059520D01*
X114409322Y-74651164D01*
X114053539Y-75183630D01*
X113600715Y-75636454D01*
X113068249Y-75992237D01*
X112476605Y-76237304D01*
X112162562Y-76299771D01*
X111848520Y-76362238D01*
X111208126Y-76362238D01*
X110894084Y-76299771D01*
X110580041Y-76237304D01*
X109988397Y-75992237D01*
X109455931Y-75636454D01*
X109003107Y-75183630D01*
X108647324Y-74651164D01*
X108402257Y-74059520D01*
X108303486Y-73562966D01*
X108277323Y-73431435D01*
X108277323Y-72791041D01*
X108380244Y-72273624D01*
X108402257Y-72162956D01*
X108647324Y-71571312D01*
X109003107Y-71038846D01*
X109455931Y-70586022D01*
X109988397Y-70230239D01*
X110580041Y-69985172D01*
X110984762Y-69904668D01*
X111208126Y-69860238D01*
X111848520Y-69860238D01*
X112071884Y-69904668D01*
X112071884Y-69904668D01*
G37*
G36*
X122933512Y-72243927D02*
G01*
X123082812Y-72273624D01*
X123246784Y-72341544D01*
X123394354Y-72440147D01*
X123519853Y-72565646D01*
X123618456Y-72713216D01*
X123686376Y-72877188D01*
X123721000Y-73051259D01*
X123721000Y-73228741D01*
X123686376Y-73402812D01*
X123618456Y-73566784D01*
X123519853Y-73714354D01*
X123394354Y-73839853D01*
X123246784Y-73938456D01*
X123101771Y-73998523D01*
X123080171Y-74010068D01*
X123061229Y-74025613D01*
X123045684Y-74044555D01*
X123034133Y-74066166D01*
X123027020Y-74089615D01*
X123024618Y-74114001D01*
X123027020Y-74138387D01*
X123034133Y-74161836D01*
X123045684Y-74183447D01*
X123061229Y-74202389D01*
X123080171Y-74217934D01*
X123101782Y-74229485D01*
X123125231Y-74236598D01*
X123149617Y-74239000D01*
X123721000Y-74239000D01*
X123721000Y-76041000D01*
X121919000Y-76041000D01*
X121919000Y-74239000D01*
X122490383Y-74239000D01*
X122514769Y-74236598D01*
X122538218Y-74229485D01*
X122559829Y-74217934D01*
X122578771Y-74202389D01*
X122594316Y-74183447D01*
X122605867Y-74161836D01*
X122612980Y-74138387D01*
X122615382Y-74114001D01*
X122612980Y-74089615D01*
X122605867Y-74066166D01*
X122594316Y-74044555D01*
X122578771Y-74025613D01*
X122559829Y-74010068D01*
X122538229Y-73998523D01*
X122393216Y-73938456D01*
X122245646Y-73839853D01*
X122120147Y-73714354D01*
X122021544Y-73566784D01*
X121953624Y-73402812D01*
X121919000Y-73228741D01*
X121919000Y-73051259D01*
X121953624Y-72877188D01*
X122021544Y-72713216D01*
X122120147Y-72565646D01*
X122245646Y-72440147D01*
X122393216Y-72341544D01*
X122557188Y-72273624D01*
X122706488Y-72243927D01*
X122731258Y-72239000D01*
X122908742Y-72239000D01*
X122933512Y-72243927D01*
X122933512Y-72243927D01*
G37*
G36*
X125433512Y-72243927D02*
G01*
X125582812Y-72273624D01*
X125746784Y-72341544D01*
X125894354Y-72440147D01*
X126019853Y-72565646D01*
X126118456Y-72713216D01*
X126186376Y-72877188D01*
X126221000Y-73051259D01*
X126221000Y-73228741D01*
X126186376Y-73402812D01*
X126118456Y-73566784D01*
X126019853Y-73714354D01*
X125894354Y-73839853D01*
X125746784Y-73938456D01*
X125582812Y-74006376D01*
X125527362Y-74017405D01*
X125503922Y-74024516D01*
X125482311Y-74036067D01*
X125463369Y-74051613D01*
X125447824Y-74070555D01*
X125436273Y-74092165D01*
X125429160Y-74115614D01*
X125426758Y-74140000D01*
X125429160Y-74164387D01*
X125436273Y-74187835D01*
X125447824Y-74209446D01*
X125463370Y-74228388D01*
X125482312Y-74243933D01*
X125503922Y-74255484D01*
X125527362Y-74262595D01*
X125582812Y-74273624D01*
X125746784Y-74341544D01*
X125894354Y-74440147D01*
X126019853Y-74565646D01*
X126118456Y-74713216D01*
X126186376Y-74877188D01*
X126221000Y-75051259D01*
X126221000Y-75228741D01*
X126186376Y-75402812D01*
X126118456Y-75566784D01*
X126019853Y-75714354D01*
X125894354Y-75839853D01*
X125746784Y-75938456D01*
X125582812Y-76006376D01*
X125433512Y-76036073D01*
X125408742Y-76041000D01*
X125231258Y-76041000D01*
X125206488Y-76036073D01*
X125057188Y-76006376D01*
X124893216Y-75938456D01*
X124745646Y-75839853D01*
X124620147Y-75714354D01*
X124521544Y-75566784D01*
X124453624Y-75402812D01*
X124419000Y-75228741D01*
X124419000Y-75051259D01*
X124453624Y-74877188D01*
X124521544Y-74713216D01*
X124620147Y-74565646D01*
X124745646Y-74440147D01*
X124893216Y-74341544D01*
X125057188Y-74273624D01*
X125112638Y-74262595D01*
X125136078Y-74255484D01*
X125157689Y-74243933D01*
X125176631Y-74228387D01*
X125192176Y-74209445D01*
X125203727Y-74187835D01*
X125210840Y-74164386D01*
X125213242Y-74140000D01*
X125210840Y-74115613D01*
X125203727Y-74092165D01*
X125192176Y-74070554D01*
X125176630Y-74051612D01*
X125157688Y-74036067D01*
X125136078Y-74024516D01*
X125112638Y-74017405D01*
X125057188Y-74006376D01*
X124893216Y-73938456D01*
X124745646Y-73839853D01*
X124620147Y-73714354D01*
X124521544Y-73566784D01*
X124453624Y-73402812D01*
X124419000Y-73228741D01*
X124419000Y-73051259D01*
X124453624Y-72877188D01*
X124521544Y-72713216D01*
X124620147Y-72565646D01*
X124745646Y-72440147D01*
X124893216Y-72341544D01*
X125057188Y-72273624D01*
X125206488Y-72243927D01*
X125231258Y-72239000D01*
X125408742Y-72239000D01*
X125433512Y-72243927D01*
X125433512Y-72243927D01*
G37*
G36*
X104649561Y-73562966D02*
G01*
X104682383Y-73572923D01*
X104712632Y-73589092D01*
X104739148Y-73610852D01*
X104760908Y-73637368D01*
X104777077Y-73667617D01*
X104787034Y-73700439D01*
X104791000Y-73740713D01*
X104791000Y-75219287D01*
X104787034Y-75259561D01*
X104777077Y-75292383D01*
X104760908Y-75322632D01*
X104739148Y-75349148D01*
X104712632Y-75370908D01*
X104682383Y-75387077D01*
X104649561Y-75397034D01*
X104609287Y-75401000D01*
X102670713Y-75401000D01*
X102630439Y-75397034D01*
X102597617Y-75387077D01*
X102567368Y-75370908D01*
X102540852Y-75349148D01*
X102519092Y-75322632D01*
X102502923Y-75292383D01*
X102492966Y-75259561D01*
X102489000Y-75219287D01*
X102489000Y-73740713D01*
X102492966Y-73700439D01*
X102502923Y-73667617D01*
X102519092Y-73637368D01*
X102540852Y-73610852D01*
X102567368Y-73589092D01*
X102597617Y-73572923D01*
X102630439Y-73562966D01*
X102670713Y-73559000D01*
X104609287Y-73559000D01*
X104649561Y-73562966D01*
X104649561Y-73562966D01*
G37*
G36*
X143313500Y-73353500D02*
G01*
X141606500Y-73353500D01*
X141606500Y-71646500D01*
X143313500Y-71646500D01*
X143313500Y-73353500D01*
X143313500Y-73353500D01*
G37*
G36*
X170483500Y-73353500D02*
G01*
X168776500Y-73353500D01*
X168776500Y-71646500D01*
X170483500Y-71646500D01*
X170483500Y-73353500D01*
X170483500Y-73353500D01*
G37*
G36*
X184023500Y-73353500D02*
G01*
X182316500Y-73353500D01*
X182316500Y-71646500D01*
X184023500Y-71646500D01*
X184023500Y-73353500D01*
X184023500Y-73353500D01*
G37*
G36*
X156903500Y-73353500D02*
G01*
X155196500Y-73353500D01*
X155196500Y-71646500D01*
X156903500Y-71646500D01*
X156903500Y-73353500D01*
X156903500Y-73353500D01*
G37*
G36*
X167338228Y-71681703D02*
G01*
X167493100Y-71745853D01*
X167632481Y-71838985D01*
X167751015Y-71957519D01*
X167844147Y-72096900D01*
X167908297Y-72251772D01*
X167941000Y-72416184D01*
X167941000Y-72583816D01*
X167908297Y-72748228D01*
X167844147Y-72903100D01*
X167751015Y-73042481D01*
X167632481Y-73161015D01*
X167493100Y-73254147D01*
X167338228Y-73318297D01*
X167173816Y-73351000D01*
X167006184Y-73351000D01*
X166841772Y-73318297D01*
X166686900Y-73254147D01*
X166547519Y-73161015D01*
X166428985Y-73042481D01*
X166335853Y-72903100D01*
X166271703Y-72748228D01*
X166239000Y-72583816D01*
X166239000Y-72416184D01*
X166271703Y-72251772D01*
X166335853Y-72096900D01*
X166428985Y-71957519D01*
X166547519Y-71838985D01*
X166686900Y-71745853D01*
X166841772Y-71681703D01*
X167006184Y-71649000D01*
X167173816Y-71649000D01*
X167338228Y-71681703D01*
X167338228Y-71681703D01*
G37*
G36*
X151218228Y-71681703D02*
G01*
X151373100Y-71745853D01*
X151512481Y-71838985D01*
X151631015Y-71957519D01*
X151724147Y-72096900D01*
X151788297Y-72251772D01*
X151821000Y-72416184D01*
X151821000Y-72583816D01*
X151788297Y-72748228D01*
X151724147Y-72903100D01*
X151631015Y-73042481D01*
X151512481Y-73161015D01*
X151373100Y-73254147D01*
X151218228Y-73318297D01*
X151053816Y-73351000D01*
X150886184Y-73351000D01*
X150721772Y-73318297D01*
X150566900Y-73254147D01*
X150427519Y-73161015D01*
X150308985Y-73042481D01*
X150215853Y-72903100D01*
X150151703Y-72748228D01*
X150119000Y-72583816D01*
X150119000Y-72416184D01*
X150151703Y-72251772D01*
X150215853Y-72096900D01*
X150308985Y-71957519D01*
X150427519Y-71838985D01*
X150566900Y-71745853D01*
X150721772Y-71681703D01*
X150886184Y-71649000D01*
X151053816Y-71649000D01*
X151218228Y-71681703D01*
X151218228Y-71681703D01*
G37*
G36*
X148678228Y-71681703D02*
G01*
X148833100Y-71745853D01*
X148972481Y-71838985D01*
X149091015Y-71957519D01*
X149184147Y-72096900D01*
X149248297Y-72251772D01*
X149281000Y-72416184D01*
X149281000Y-72583816D01*
X149248297Y-72748228D01*
X149184147Y-72903100D01*
X149091015Y-73042481D01*
X148972481Y-73161015D01*
X148833100Y-73254147D01*
X148678228Y-73318297D01*
X148513816Y-73351000D01*
X148346184Y-73351000D01*
X148181772Y-73318297D01*
X148026900Y-73254147D01*
X147887519Y-73161015D01*
X147768985Y-73042481D01*
X147675853Y-72903100D01*
X147611703Y-72748228D01*
X147579000Y-72583816D01*
X147579000Y-72416184D01*
X147611703Y-72251772D01*
X147675853Y-72096900D01*
X147768985Y-71957519D01*
X147887519Y-71838985D01*
X148026900Y-71745853D01*
X148181772Y-71681703D01*
X148346184Y-71649000D01*
X148513816Y-71649000D01*
X148678228Y-71681703D01*
X148678228Y-71681703D01*
G37*
G36*
X140168228Y-71681703D02*
G01*
X140323100Y-71745853D01*
X140462481Y-71838985D01*
X140581015Y-71957519D01*
X140674147Y-72096900D01*
X140738297Y-72251772D01*
X140771000Y-72416184D01*
X140771000Y-72583816D01*
X140738297Y-72748228D01*
X140674147Y-72903100D01*
X140581015Y-73042481D01*
X140462481Y-73161015D01*
X140323100Y-73254147D01*
X140168228Y-73318297D01*
X140003816Y-73351000D01*
X139836184Y-73351000D01*
X139671772Y-73318297D01*
X139516900Y-73254147D01*
X139377519Y-73161015D01*
X139258985Y-73042481D01*
X139165853Y-72903100D01*
X139101703Y-72748228D01*
X139069000Y-72583816D01*
X139069000Y-72416184D01*
X139101703Y-72251772D01*
X139165853Y-72096900D01*
X139258985Y-71957519D01*
X139377519Y-71838985D01*
X139516900Y-71745853D01*
X139671772Y-71681703D01*
X139836184Y-71649000D01*
X140003816Y-71649000D01*
X140168228Y-71681703D01*
X140168228Y-71681703D01*
G37*
G36*
X137628228Y-71681703D02*
G01*
X137783100Y-71745853D01*
X137922481Y-71838985D01*
X138041015Y-71957519D01*
X138134147Y-72096900D01*
X138198297Y-72251772D01*
X138231000Y-72416184D01*
X138231000Y-72583816D01*
X138198297Y-72748228D01*
X138134147Y-72903100D01*
X138041015Y-73042481D01*
X137922481Y-73161015D01*
X137783100Y-73254147D01*
X137628228Y-73318297D01*
X137463816Y-73351000D01*
X137296184Y-73351000D01*
X137131772Y-73318297D01*
X136976900Y-73254147D01*
X136837519Y-73161015D01*
X136718985Y-73042481D01*
X136625853Y-72903100D01*
X136561703Y-72748228D01*
X136529000Y-72583816D01*
X136529000Y-72416184D01*
X136561703Y-72251772D01*
X136625853Y-72096900D01*
X136718985Y-71957519D01*
X136837519Y-71838985D01*
X136976900Y-71745853D01*
X137131772Y-71681703D01*
X137296184Y-71649000D01*
X137463816Y-71649000D01*
X137628228Y-71681703D01*
X137628228Y-71681703D01*
G37*
G36*
X135088228Y-71681703D02*
G01*
X135243100Y-71745853D01*
X135382481Y-71838985D01*
X135501015Y-71957519D01*
X135594147Y-72096900D01*
X135658297Y-72251772D01*
X135691000Y-72416184D01*
X135691000Y-72583816D01*
X135658297Y-72748228D01*
X135594147Y-72903100D01*
X135501015Y-73042481D01*
X135382481Y-73161015D01*
X135243100Y-73254147D01*
X135088228Y-73318297D01*
X134923816Y-73351000D01*
X134756184Y-73351000D01*
X134591772Y-73318297D01*
X134436900Y-73254147D01*
X134297519Y-73161015D01*
X134178985Y-73042481D01*
X134085853Y-72903100D01*
X134021703Y-72748228D01*
X133989000Y-72583816D01*
X133989000Y-72416184D01*
X134021703Y-72251772D01*
X134085853Y-72096900D01*
X134178985Y-71957519D01*
X134297519Y-71838985D01*
X134436900Y-71745853D01*
X134591772Y-71681703D01*
X134756184Y-71649000D01*
X134923816Y-71649000D01*
X135088228Y-71681703D01*
X135088228Y-71681703D01*
G37*
G36*
X153758228Y-71681703D02*
G01*
X153913100Y-71745853D01*
X154052481Y-71838985D01*
X154171015Y-71957519D01*
X154264147Y-72096900D01*
X154328297Y-72251772D01*
X154361000Y-72416184D01*
X154361000Y-72583816D01*
X154328297Y-72748228D01*
X154264147Y-72903100D01*
X154171015Y-73042481D01*
X154052481Y-73161015D01*
X153913100Y-73254147D01*
X153758228Y-73318297D01*
X153593816Y-73351000D01*
X153426184Y-73351000D01*
X153261772Y-73318297D01*
X153106900Y-73254147D01*
X152967519Y-73161015D01*
X152848985Y-73042481D01*
X152755853Y-72903100D01*
X152691703Y-72748228D01*
X152659000Y-72583816D01*
X152659000Y-72416184D01*
X152691703Y-72251772D01*
X152755853Y-72096900D01*
X152848985Y-71957519D01*
X152967519Y-71838985D01*
X153106900Y-71745853D01*
X153261772Y-71681703D01*
X153426184Y-71649000D01*
X153593816Y-71649000D01*
X153758228Y-71681703D01*
X153758228Y-71681703D01*
G37*
G36*
X175798228Y-71681703D02*
G01*
X175953100Y-71745853D01*
X176092481Y-71838985D01*
X176211015Y-71957519D01*
X176304147Y-72096900D01*
X176368297Y-72251772D01*
X176401000Y-72416184D01*
X176401000Y-72583816D01*
X176368297Y-72748228D01*
X176304147Y-72903100D01*
X176211015Y-73042481D01*
X176092481Y-73161015D01*
X175953100Y-73254147D01*
X175798228Y-73318297D01*
X175633816Y-73351000D01*
X175466184Y-73351000D01*
X175301772Y-73318297D01*
X175146900Y-73254147D01*
X175007519Y-73161015D01*
X174888985Y-73042481D01*
X174795853Y-72903100D01*
X174731703Y-72748228D01*
X174699000Y-72583816D01*
X174699000Y-72416184D01*
X174731703Y-72251772D01*
X174795853Y-72096900D01*
X174888985Y-71957519D01*
X175007519Y-71838985D01*
X175146900Y-71745853D01*
X175301772Y-71681703D01*
X175466184Y-71649000D01*
X175633816Y-71649000D01*
X175798228Y-71681703D01*
X175798228Y-71681703D01*
G37*
G36*
X162258228Y-71681703D02*
G01*
X162413100Y-71745853D01*
X162552481Y-71838985D01*
X162671015Y-71957519D01*
X162764147Y-72096900D01*
X162828297Y-72251772D01*
X162861000Y-72416184D01*
X162861000Y-72583816D01*
X162828297Y-72748228D01*
X162764147Y-72903100D01*
X162671015Y-73042481D01*
X162552481Y-73161015D01*
X162413100Y-73254147D01*
X162258228Y-73318297D01*
X162093816Y-73351000D01*
X161926184Y-73351000D01*
X161761772Y-73318297D01*
X161606900Y-73254147D01*
X161467519Y-73161015D01*
X161348985Y-73042481D01*
X161255853Y-72903100D01*
X161191703Y-72748228D01*
X161159000Y-72583816D01*
X161159000Y-72416184D01*
X161191703Y-72251772D01*
X161255853Y-72096900D01*
X161348985Y-71957519D01*
X161467519Y-71838985D01*
X161606900Y-71745853D01*
X161761772Y-71681703D01*
X161926184Y-71649000D01*
X162093816Y-71649000D01*
X162258228Y-71681703D01*
X162258228Y-71681703D01*
G37*
G36*
X180878228Y-71681703D02*
G01*
X181033100Y-71745853D01*
X181172481Y-71838985D01*
X181291015Y-71957519D01*
X181384147Y-72096900D01*
X181448297Y-72251772D01*
X181481000Y-72416184D01*
X181481000Y-72583816D01*
X181448297Y-72748228D01*
X181384147Y-72903100D01*
X181291015Y-73042481D01*
X181172481Y-73161015D01*
X181033100Y-73254147D01*
X180878228Y-73318297D01*
X180713816Y-73351000D01*
X180546184Y-73351000D01*
X180381772Y-73318297D01*
X180226900Y-73254147D01*
X180087519Y-73161015D01*
X179968985Y-73042481D01*
X179875853Y-72903100D01*
X179811703Y-72748228D01*
X179779000Y-72583816D01*
X179779000Y-72416184D01*
X179811703Y-72251772D01*
X179875853Y-72096900D01*
X179968985Y-71957519D01*
X180087519Y-71838985D01*
X180226900Y-71745853D01*
X180381772Y-71681703D01*
X180546184Y-71649000D01*
X180713816Y-71649000D01*
X180878228Y-71681703D01*
X180878228Y-71681703D01*
G37*
G36*
X178338228Y-71681703D02*
G01*
X178493100Y-71745853D01*
X178632481Y-71838985D01*
X178751015Y-71957519D01*
X178844147Y-72096900D01*
X178908297Y-72251772D01*
X178941000Y-72416184D01*
X178941000Y-72583816D01*
X178908297Y-72748228D01*
X178844147Y-72903100D01*
X178751015Y-73042481D01*
X178632481Y-73161015D01*
X178493100Y-73254147D01*
X178338228Y-73318297D01*
X178173816Y-73351000D01*
X178006184Y-73351000D01*
X177841772Y-73318297D01*
X177686900Y-73254147D01*
X177547519Y-73161015D01*
X177428985Y-73042481D01*
X177335853Y-72903100D01*
X177271703Y-72748228D01*
X177239000Y-72583816D01*
X177239000Y-72416184D01*
X177271703Y-72251772D01*
X177335853Y-72096900D01*
X177428985Y-71957519D01*
X177547519Y-71838985D01*
X177686900Y-71745853D01*
X177841772Y-71681703D01*
X178006184Y-71649000D01*
X178173816Y-71649000D01*
X178338228Y-71681703D01*
X178338228Y-71681703D01*
G37*
G36*
X164798228Y-71681703D02*
G01*
X164953100Y-71745853D01*
X165092481Y-71838985D01*
X165211015Y-71957519D01*
X165304147Y-72096900D01*
X165368297Y-72251772D01*
X165401000Y-72416184D01*
X165401000Y-72583816D01*
X165368297Y-72748228D01*
X165304147Y-72903100D01*
X165211015Y-73042481D01*
X165092481Y-73161015D01*
X164953100Y-73254147D01*
X164798228Y-73318297D01*
X164633816Y-73351000D01*
X164466184Y-73351000D01*
X164301772Y-73318297D01*
X164146900Y-73254147D01*
X164007519Y-73161015D01*
X163888985Y-73042481D01*
X163795853Y-72903100D01*
X163731703Y-72748228D01*
X163699000Y-72583816D01*
X163699000Y-72416184D01*
X163731703Y-72251772D01*
X163795853Y-72096900D01*
X163888985Y-71957519D01*
X164007519Y-71838985D01*
X164146900Y-71745853D01*
X164301772Y-71681703D01*
X164466184Y-71649000D01*
X164633816Y-71649000D01*
X164798228Y-71681703D01*
X164798228Y-71681703D01*
G37*
G36*
X118575331Y-68698211D02*
G01*
X118903092Y-68833974D01*
X119198070Y-69031072D01*
X119448928Y-69281930D01*
X119646026Y-69576908D01*
X119781789Y-69904669D01*
X119851000Y-70252616D01*
X119851000Y-70607384D01*
X119781789Y-70955331D01*
X119646026Y-71283092D01*
X119448928Y-71578070D01*
X119198070Y-71828928D01*
X118903092Y-72026026D01*
X118575331Y-72161789D01*
X118227384Y-72231000D01*
X117872616Y-72231000D01*
X117524669Y-72161789D01*
X117196908Y-72026026D01*
X116901930Y-71828928D01*
X116651072Y-71578070D01*
X116453974Y-71283092D01*
X116318211Y-70955331D01*
X116249000Y-70607384D01*
X116249000Y-70252616D01*
X116318211Y-69904669D01*
X116453974Y-69576908D01*
X116651072Y-69281930D01*
X116901930Y-69031072D01*
X117196908Y-68833974D01*
X117524669Y-68698211D01*
X117872616Y-68629000D01*
X118227384Y-68629000D01*
X118575331Y-68698211D01*
X118575331Y-68698211D01*
G37*
G36*
X130615331Y-68698211D02*
G01*
X130943092Y-68833974D01*
X131238070Y-69031072D01*
X131488928Y-69281930D01*
X131686026Y-69576908D01*
X131821789Y-69904669D01*
X131891000Y-70252616D01*
X131891000Y-70607384D01*
X131821789Y-70955331D01*
X131686026Y-71283092D01*
X131488928Y-71578070D01*
X131238070Y-71828928D01*
X130943092Y-72026026D01*
X130615331Y-72161789D01*
X130267384Y-72231000D01*
X129912616Y-72231000D01*
X129564669Y-72161789D01*
X129236908Y-72026026D01*
X128941930Y-71828928D01*
X128691072Y-71578070D01*
X128493974Y-71283092D01*
X128358211Y-70955331D01*
X128289000Y-70607384D01*
X128289000Y-70252616D01*
X128358211Y-69904669D01*
X128493974Y-69576908D01*
X128691072Y-69281930D01*
X128941930Y-69031072D01*
X129236908Y-68833974D01*
X129564669Y-68698211D01*
X129912616Y-68629000D01*
X130267384Y-68629000D01*
X130615331Y-68698211D01*
X130615331Y-68698211D01*
G37*
G36*
X104329591Y-71078085D02*
G01*
X104363569Y-71088393D01*
X104394890Y-71105134D01*
X104422339Y-71127661D01*
X104444866Y-71155110D01*
X104461607Y-71186431D01*
X104471915Y-71220409D01*
X104476000Y-71261890D01*
X104476000Y-71938110D01*
X104471915Y-71979591D01*
X104461607Y-72013569D01*
X104444866Y-72044890D01*
X104422339Y-72072339D01*
X104394890Y-72094866D01*
X104363569Y-72111607D01*
X104329591Y-72121915D01*
X104288110Y-72126000D01*
X103686890Y-72126000D01*
X103645409Y-72121915D01*
X103611431Y-72111607D01*
X103580110Y-72094866D01*
X103552661Y-72072339D01*
X103530134Y-72044890D01*
X103513393Y-72013569D01*
X103503085Y-71979591D01*
X103499000Y-71938110D01*
X103499000Y-71261890D01*
X103503085Y-71220409D01*
X103513393Y-71186431D01*
X103530134Y-71155110D01*
X103552661Y-71127661D01*
X103580110Y-71105134D01*
X103611431Y-71088393D01*
X103645409Y-71078085D01*
X103686890Y-71074000D01*
X104288110Y-71074000D01*
X104329591Y-71078085D01*
X104329591Y-71078085D01*
G37*
G36*
X102754591Y-71078085D02*
G01*
X102788569Y-71088393D01*
X102819890Y-71105134D01*
X102847339Y-71127661D01*
X102869866Y-71155110D01*
X102886607Y-71186431D01*
X102896915Y-71220409D01*
X102901000Y-71261890D01*
X102901000Y-71938110D01*
X102896915Y-71979591D01*
X102886607Y-72013569D01*
X102869866Y-72044890D01*
X102847339Y-72072339D01*
X102819890Y-72094866D01*
X102788569Y-72111607D01*
X102754591Y-72121915D01*
X102713110Y-72126000D01*
X102111890Y-72126000D01*
X102070409Y-72121915D01*
X102036431Y-72111607D01*
X102005110Y-72094866D01*
X101977661Y-72072339D01*
X101955134Y-72044890D01*
X101938393Y-72013569D01*
X101928085Y-71979591D01*
X101924000Y-71938110D01*
X101924000Y-71261890D01*
X101928085Y-71220409D01*
X101938393Y-71186431D01*
X101955134Y-71155110D01*
X101977661Y-71127661D01*
X102005110Y-71105134D01*
X102036431Y-71088393D01*
X102070409Y-71078085D01*
X102111890Y-71074000D01*
X102713110Y-71074000D01*
X102754591Y-71078085D01*
X102754591Y-71078085D01*
G37*
G36*
X102734591Y-69138085D02*
G01*
X102768569Y-69148393D01*
X102799890Y-69165134D01*
X102827339Y-69187661D01*
X102849866Y-69215110D01*
X102866607Y-69246431D01*
X102876915Y-69280409D01*
X102881000Y-69321890D01*
X102881000Y-69998110D01*
X102876915Y-70039591D01*
X102866607Y-70073569D01*
X102849866Y-70104890D01*
X102827339Y-70132339D01*
X102799890Y-70154866D01*
X102768569Y-70171607D01*
X102734591Y-70181915D01*
X102693110Y-70186000D01*
X102091890Y-70186000D01*
X102050409Y-70181915D01*
X102016431Y-70171607D01*
X101985110Y-70154866D01*
X101957661Y-70132339D01*
X101935134Y-70104890D01*
X101918393Y-70073569D01*
X101908085Y-70039591D01*
X101904000Y-69998110D01*
X101904000Y-69321890D01*
X101908085Y-69280409D01*
X101918393Y-69246431D01*
X101935134Y-69215110D01*
X101957661Y-69187661D01*
X101985110Y-69165134D01*
X102016431Y-69148393D01*
X102050409Y-69138085D01*
X102091890Y-69134000D01*
X102693110Y-69134000D01*
X102734591Y-69138085D01*
X102734591Y-69138085D01*
G37*
G36*
X104309591Y-69138085D02*
G01*
X104343569Y-69148393D01*
X104374890Y-69165134D01*
X104402339Y-69187661D01*
X104424866Y-69215110D01*
X104441607Y-69246431D01*
X104451915Y-69280409D01*
X104456000Y-69321890D01*
X104456000Y-69998110D01*
X104451915Y-70039591D01*
X104441607Y-70073569D01*
X104424866Y-70104890D01*
X104402339Y-70132339D01*
X104374890Y-70154866D01*
X104343569Y-70171607D01*
X104309591Y-70181915D01*
X104268110Y-70186000D01*
X103666890Y-70186000D01*
X103625409Y-70181915D01*
X103591431Y-70171607D01*
X103560110Y-70154866D01*
X103532661Y-70132339D01*
X103510134Y-70104890D01*
X103493393Y-70073569D01*
X103483085Y-70039591D01*
X103479000Y-69998110D01*
X103479000Y-69321890D01*
X103483085Y-69280409D01*
X103493393Y-69246431D01*
X103510134Y-69215110D01*
X103532661Y-69187661D01*
X103560110Y-69165134D01*
X103591431Y-69148393D01*
X103625409Y-69138085D01*
X103666890Y-69134000D01*
X104268110Y-69134000D01*
X104309591Y-69138085D01*
X104309591Y-69138085D01*
G37*
G36*
X102371000Y-67311000D02*
G01*
X100869000Y-67311000D01*
X100869000Y-65709000D01*
X102371000Y-65709000D01*
X102371000Y-67311000D01*
X102371000Y-67311000D01*
G37*
G36*
X108171000Y-67311000D02*
G01*
X106669000Y-67311000D01*
X106669000Y-65709000D01*
X108171000Y-65709000D01*
X108171000Y-67311000D01*
X108171000Y-67311000D01*
G37*
G36*
X104690899Y-65450832D02*
G01*
X104775520Y-65467664D01*
X104934942Y-65533699D01*
X105078418Y-65629566D01*
X105200434Y-65751582D01*
X105296301Y-65895058D01*
X105362336Y-66054480D01*
X105396000Y-66223721D01*
X105396000Y-66396279D01*
X105362336Y-66565520D01*
X105296301Y-66724942D01*
X105200434Y-66868418D01*
X105078418Y-66990434D01*
X104934942Y-67086301D01*
X104775520Y-67152336D01*
X104606280Y-67186000D01*
X104433720Y-67186000D01*
X104264480Y-67152336D01*
X104105058Y-67086301D01*
X103961582Y-66990434D01*
X103839566Y-66868418D01*
X103743699Y-66724942D01*
X103677664Y-66565520D01*
X103644000Y-66396279D01*
X103644000Y-66223721D01*
X103677664Y-66054480D01*
X103743699Y-65895058D01*
X103839566Y-65751582D01*
X103961582Y-65629566D01*
X104105058Y-65533699D01*
X104264480Y-65467664D01*
X104349101Y-65450832D01*
X104433720Y-65434000D01*
X104606280Y-65434000D01*
X104690899Y-65450832D01*
X104690899Y-65450832D01*
G37*
G36*
X104775520Y-62467664D02*
G01*
X104934942Y-62533699D01*
X105078418Y-62629566D01*
X105200434Y-62751582D01*
X105296301Y-62895058D01*
X105362336Y-63054480D01*
X105396000Y-63223721D01*
X105396000Y-63396279D01*
X105362336Y-63565520D01*
X105296301Y-63724942D01*
X105200434Y-63868418D01*
X105078418Y-63990434D01*
X104934942Y-64086301D01*
X104775520Y-64152336D01*
X104690899Y-64169168D01*
X104606280Y-64186000D01*
X104433720Y-64186000D01*
X104349101Y-64169168D01*
X104264480Y-64152336D01*
X104105058Y-64086301D01*
X103961582Y-63990434D01*
X103839566Y-63868418D01*
X103743699Y-63724942D01*
X103677664Y-63565520D01*
X103644000Y-63396279D01*
X103644000Y-63223721D01*
X103677664Y-63054480D01*
X103743699Y-62895058D01*
X103839566Y-62751582D01*
X103961582Y-62629566D01*
X104105058Y-62533699D01*
X104264480Y-62467664D01*
X104433720Y-62434000D01*
X104606280Y-62434000D01*
X104775520Y-62467664D01*
X104775520Y-62467664D01*
G37*
G36*
X108171000Y-63911000D02*
G01*
X106669000Y-63911000D01*
X106669000Y-62309000D01*
X108171000Y-62309000D01*
X108171000Y-63911000D01*
X108171000Y-63911000D01*
G37*
G36*
X102371000Y-63911000D02*
G01*
X100869000Y-63911000D01*
X100869000Y-62309000D01*
X102371000Y-62309000D01*
X102371000Y-63911000D01*
X102371000Y-63911000D01*
G37*
M02*
