G04 #@! TF.GenerationSoftware,KiCad,Pcbnew,5.1.4-e60b266~84~ubuntu18.04.1*
G04 #@! TF.CreationDate,2019-10-01T18:03:50+03:00*
G04 #@! TF.ProjectId,EV2400-EVM-Interface-Board,45563234-3030-42d4-9556-4d2d496e7465,v1.0*
G04 #@! TF.SameCoordinates,Original*
G04 #@! TF.FileFunction,Soldermask,Bot*
G04 #@! TF.FilePolarity,Negative*
%FSLAX46Y46*%
G04 Gerber Fmt 4.6, Leading zero omitted, Abs format (unit mm)*
G04 Created by KiCad (PCBNEW 5.1.4-e60b266~84~ubuntu18.04.1) date 2019-10-01 18:03:50*
%MOMM*%
%LPD*%
G04 APERTURE LIST*
%ADD10C,0.100000*%
G04 APERTURE END LIST*
D10*
G36*
X178708228Y-123031703D02*
G01*
X178863100Y-123095853D01*
X179002481Y-123188985D01*
X179121015Y-123307519D01*
X179214147Y-123446900D01*
X179278297Y-123601772D01*
X179311000Y-123766184D01*
X179311000Y-123933816D01*
X179278297Y-124098228D01*
X179214147Y-124253100D01*
X179121015Y-124392481D01*
X179002481Y-124511015D01*
X178863100Y-124604147D01*
X178708228Y-124668297D01*
X178543816Y-124701000D01*
X178376184Y-124701000D01*
X178211772Y-124668297D01*
X178056900Y-124604147D01*
X177917519Y-124511015D01*
X177798985Y-124392481D01*
X177705853Y-124253100D01*
X177641703Y-124098228D01*
X177609000Y-123933816D01*
X177609000Y-123766184D01*
X177641703Y-123601772D01*
X177705853Y-123446900D01*
X177798985Y-123307519D01*
X177917519Y-123188985D01*
X178056900Y-123095853D01*
X178211772Y-123031703D01*
X178376184Y-122999000D01*
X178543816Y-122999000D01*
X178708228Y-123031703D01*
X178708228Y-123031703D01*
G37*
G36*
X178708228Y-118531703D02*
G01*
X178863100Y-118595853D01*
X179002481Y-118688985D01*
X179121015Y-118807519D01*
X179214147Y-118946900D01*
X179278297Y-119101772D01*
X179311000Y-119266184D01*
X179311000Y-119433816D01*
X179278297Y-119598228D01*
X179214147Y-119753100D01*
X179121015Y-119892481D01*
X179002481Y-120011015D01*
X178863100Y-120104147D01*
X178708228Y-120168297D01*
X178543816Y-120201000D01*
X178376184Y-120201000D01*
X178211772Y-120168297D01*
X178056900Y-120104147D01*
X177917519Y-120011015D01*
X177798985Y-119892481D01*
X177705853Y-119753100D01*
X177641703Y-119598228D01*
X177609000Y-119433816D01*
X177609000Y-119266184D01*
X177641703Y-119101772D01*
X177705853Y-118946900D01*
X177798985Y-118807519D01*
X177917519Y-118688985D01*
X178056900Y-118595853D01*
X178211772Y-118531703D01*
X178376184Y-118499000D01*
X178543816Y-118499000D01*
X178708228Y-118531703D01*
X178708228Y-118531703D01*
G37*
G36*
X136501000Y-119701000D02*
G01*
X134699000Y-119701000D01*
X134699000Y-117899000D01*
X136501000Y-117899000D01*
X136501000Y-119701000D01*
X136501000Y-119701000D01*
G37*
G36*
X156030442Y-117905518D02*
G01*
X156096627Y-117912037D01*
X156266466Y-117963557D01*
X156422991Y-118047222D01*
X156458729Y-118076552D01*
X156560186Y-118159814D01*
X156632538Y-118247977D01*
X156672778Y-118297009D01*
X156756443Y-118453534D01*
X156807963Y-118623373D01*
X156825359Y-118800000D01*
X156807963Y-118976627D01*
X156756443Y-119146466D01*
X156672778Y-119302991D01*
X156643448Y-119338729D01*
X156560186Y-119440186D01*
X156458729Y-119523448D01*
X156422991Y-119552778D01*
X156266466Y-119636443D01*
X156096627Y-119687963D01*
X156030442Y-119694482D01*
X155964260Y-119701000D01*
X155875740Y-119701000D01*
X155809558Y-119694482D01*
X155743373Y-119687963D01*
X155573534Y-119636443D01*
X155417009Y-119552778D01*
X155381271Y-119523448D01*
X155279814Y-119440186D01*
X155196552Y-119338729D01*
X155167222Y-119302991D01*
X155083557Y-119146466D01*
X155032037Y-118976627D01*
X155014641Y-118800000D01*
X155032037Y-118623373D01*
X155083557Y-118453534D01*
X155167222Y-118297009D01*
X155207462Y-118247977D01*
X155279814Y-118159814D01*
X155381271Y-118076552D01*
X155417009Y-118047222D01*
X155573534Y-117963557D01*
X155743373Y-117912037D01*
X155809558Y-117905518D01*
X155875740Y-117899000D01*
X155964260Y-117899000D01*
X156030442Y-117905518D01*
X156030442Y-117905518D01*
G37*
G36*
X158570442Y-117905518D02*
G01*
X158636627Y-117912037D01*
X158806466Y-117963557D01*
X158962991Y-118047222D01*
X158998729Y-118076552D01*
X159100186Y-118159814D01*
X159172538Y-118247977D01*
X159212778Y-118297009D01*
X159296443Y-118453534D01*
X159347963Y-118623373D01*
X159365359Y-118800000D01*
X159347963Y-118976627D01*
X159296443Y-119146466D01*
X159212778Y-119302991D01*
X159183448Y-119338729D01*
X159100186Y-119440186D01*
X158998729Y-119523448D01*
X158962991Y-119552778D01*
X158806466Y-119636443D01*
X158636627Y-119687963D01*
X158570442Y-119694482D01*
X158504260Y-119701000D01*
X158415740Y-119701000D01*
X158349558Y-119694482D01*
X158283373Y-119687963D01*
X158113534Y-119636443D01*
X157957009Y-119552778D01*
X157921271Y-119523448D01*
X157819814Y-119440186D01*
X157736552Y-119338729D01*
X157707222Y-119302991D01*
X157623557Y-119146466D01*
X157572037Y-118976627D01*
X157554641Y-118800000D01*
X157572037Y-118623373D01*
X157623557Y-118453534D01*
X157707222Y-118297009D01*
X157747462Y-118247977D01*
X157819814Y-118159814D01*
X157921271Y-118076552D01*
X157957009Y-118047222D01*
X158113534Y-117963557D01*
X158283373Y-117912037D01*
X158349558Y-117905518D01*
X158415740Y-117899000D01*
X158504260Y-117899000D01*
X158570442Y-117905518D01*
X158570442Y-117905518D01*
G37*
G36*
X153490442Y-117905518D02*
G01*
X153556627Y-117912037D01*
X153726466Y-117963557D01*
X153882991Y-118047222D01*
X153918729Y-118076552D01*
X154020186Y-118159814D01*
X154092538Y-118247977D01*
X154132778Y-118297009D01*
X154216443Y-118453534D01*
X154267963Y-118623373D01*
X154285359Y-118800000D01*
X154267963Y-118976627D01*
X154216443Y-119146466D01*
X154132778Y-119302991D01*
X154103448Y-119338729D01*
X154020186Y-119440186D01*
X153918729Y-119523448D01*
X153882991Y-119552778D01*
X153726466Y-119636443D01*
X153556627Y-119687963D01*
X153490442Y-119694482D01*
X153424260Y-119701000D01*
X153335740Y-119701000D01*
X153269558Y-119694482D01*
X153203373Y-119687963D01*
X153033534Y-119636443D01*
X152877009Y-119552778D01*
X152841271Y-119523448D01*
X152739814Y-119440186D01*
X152656552Y-119338729D01*
X152627222Y-119302991D01*
X152543557Y-119146466D01*
X152492037Y-118976627D01*
X152474641Y-118800000D01*
X152492037Y-118623373D01*
X152543557Y-118453534D01*
X152627222Y-118297009D01*
X152667462Y-118247977D01*
X152739814Y-118159814D01*
X152841271Y-118076552D01*
X152877009Y-118047222D01*
X153033534Y-117963557D01*
X153203373Y-117912037D01*
X153269558Y-117905518D01*
X153335740Y-117899000D01*
X153424260Y-117899000D01*
X153490442Y-117905518D01*
X153490442Y-117905518D01*
G37*
G36*
X161110442Y-117905518D02*
G01*
X161176627Y-117912037D01*
X161346466Y-117963557D01*
X161502991Y-118047222D01*
X161538729Y-118076552D01*
X161640186Y-118159814D01*
X161712538Y-118247977D01*
X161752778Y-118297009D01*
X161836443Y-118453534D01*
X161887963Y-118623373D01*
X161905359Y-118800000D01*
X161887963Y-118976627D01*
X161836443Y-119146466D01*
X161752778Y-119302991D01*
X161723448Y-119338729D01*
X161640186Y-119440186D01*
X161538729Y-119523448D01*
X161502991Y-119552778D01*
X161346466Y-119636443D01*
X161176627Y-119687963D01*
X161110442Y-119694482D01*
X161044260Y-119701000D01*
X160955740Y-119701000D01*
X160889558Y-119694482D01*
X160823373Y-119687963D01*
X160653534Y-119636443D01*
X160497009Y-119552778D01*
X160461271Y-119523448D01*
X160359814Y-119440186D01*
X160276552Y-119338729D01*
X160247222Y-119302991D01*
X160163557Y-119146466D01*
X160112037Y-118976627D01*
X160094641Y-118800000D01*
X160112037Y-118623373D01*
X160163557Y-118453534D01*
X160247222Y-118297009D01*
X160287462Y-118247977D01*
X160359814Y-118159814D01*
X160461271Y-118076552D01*
X160497009Y-118047222D01*
X160653534Y-117963557D01*
X160823373Y-117912037D01*
X160889558Y-117905518D01*
X160955740Y-117899000D01*
X161044260Y-117899000D01*
X161110442Y-117905518D01*
X161110442Y-117905518D01*
G37*
G36*
X163650442Y-117905518D02*
G01*
X163716627Y-117912037D01*
X163886466Y-117963557D01*
X164042991Y-118047222D01*
X164078729Y-118076552D01*
X164180186Y-118159814D01*
X164252538Y-118247977D01*
X164292778Y-118297009D01*
X164376443Y-118453534D01*
X164427963Y-118623373D01*
X164445359Y-118800000D01*
X164427963Y-118976627D01*
X164376443Y-119146466D01*
X164292778Y-119302991D01*
X164263448Y-119338729D01*
X164180186Y-119440186D01*
X164078729Y-119523448D01*
X164042991Y-119552778D01*
X163886466Y-119636443D01*
X163716627Y-119687963D01*
X163650442Y-119694482D01*
X163584260Y-119701000D01*
X163495740Y-119701000D01*
X163429558Y-119694482D01*
X163363373Y-119687963D01*
X163193534Y-119636443D01*
X163037009Y-119552778D01*
X163001271Y-119523448D01*
X162899814Y-119440186D01*
X162816552Y-119338729D01*
X162787222Y-119302991D01*
X162703557Y-119146466D01*
X162652037Y-118976627D01*
X162634641Y-118800000D01*
X162652037Y-118623373D01*
X162703557Y-118453534D01*
X162787222Y-118297009D01*
X162827462Y-118247977D01*
X162899814Y-118159814D01*
X163001271Y-118076552D01*
X163037009Y-118047222D01*
X163193534Y-117963557D01*
X163363373Y-117912037D01*
X163429558Y-117905518D01*
X163495740Y-117899000D01*
X163584260Y-117899000D01*
X163650442Y-117905518D01*
X163650442Y-117905518D01*
G37*
G36*
X150950442Y-117905518D02*
G01*
X151016627Y-117912037D01*
X151186466Y-117963557D01*
X151342991Y-118047222D01*
X151378729Y-118076552D01*
X151480186Y-118159814D01*
X151552538Y-118247977D01*
X151592778Y-118297009D01*
X151676443Y-118453534D01*
X151727963Y-118623373D01*
X151745359Y-118800000D01*
X151727963Y-118976627D01*
X151676443Y-119146466D01*
X151592778Y-119302991D01*
X151563448Y-119338729D01*
X151480186Y-119440186D01*
X151378729Y-119523448D01*
X151342991Y-119552778D01*
X151186466Y-119636443D01*
X151016627Y-119687963D01*
X150950442Y-119694482D01*
X150884260Y-119701000D01*
X150795740Y-119701000D01*
X150729558Y-119694482D01*
X150663373Y-119687963D01*
X150493534Y-119636443D01*
X150337009Y-119552778D01*
X150301271Y-119523448D01*
X150199814Y-119440186D01*
X150116552Y-119338729D01*
X150087222Y-119302991D01*
X150003557Y-119146466D01*
X149952037Y-118976627D01*
X149934641Y-118800000D01*
X149952037Y-118623373D01*
X150003557Y-118453534D01*
X150087222Y-118297009D01*
X150127462Y-118247977D01*
X150199814Y-118159814D01*
X150301271Y-118076552D01*
X150337009Y-118047222D01*
X150493534Y-117963557D01*
X150663373Y-117912037D01*
X150729558Y-117905518D01*
X150795740Y-117899000D01*
X150884260Y-117899000D01*
X150950442Y-117905518D01*
X150950442Y-117905518D01*
G37*
G36*
X145870442Y-117905518D02*
G01*
X145936627Y-117912037D01*
X146106466Y-117963557D01*
X146262991Y-118047222D01*
X146298729Y-118076552D01*
X146400186Y-118159814D01*
X146472538Y-118247977D01*
X146512778Y-118297009D01*
X146596443Y-118453534D01*
X146647963Y-118623373D01*
X146665359Y-118800000D01*
X146647963Y-118976627D01*
X146596443Y-119146466D01*
X146512778Y-119302991D01*
X146483448Y-119338729D01*
X146400186Y-119440186D01*
X146298729Y-119523448D01*
X146262991Y-119552778D01*
X146106466Y-119636443D01*
X145936627Y-119687963D01*
X145870442Y-119694482D01*
X145804260Y-119701000D01*
X145715740Y-119701000D01*
X145649558Y-119694482D01*
X145583373Y-119687963D01*
X145413534Y-119636443D01*
X145257009Y-119552778D01*
X145221271Y-119523448D01*
X145119814Y-119440186D01*
X145036552Y-119338729D01*
X145007222Y-119302991D01*
X144923557Y-119146466D01*
X144872037Y-118976627D01*
X144854641Y-118800000D01*
X144872037Y-118623373D01*
X144923557Y-118453534D01*
X145007222Y-118297009D01*
X145047462Y-118247977D01*
X145119814Y-118159814D01*
X145221271Y-118076552D01*
X145257009Y-118047222D01*
X145413534Y-117963557D01*
X145583373Y-117912037D01*
X145649558Y-117905518D01*
X145715740Y-117899000D01*
X145804260Y-117899000D01*
X145870442Y-117905518D01*
X145870442Y-117905518D01*
G37*
G36*
X148410442Y-117905518D02*
G01*
X148476627Y-117912037D01*
X148646466Y-117963557D01*
X148802991Y-118047222D01*
X148838729Y-118076552D01*
X148940186Y-118159814D01*
X149012538Y-118247977D01*
X149052778Y-118297009D01*
X149136443Y-118453534D01*
X149187963Y-118623373D01*
X149205359Y-118800000D01*
X149187963Y-118976627D01*
X149136443Y-119146466D01*
X149052778Y-119302991D01*
X149023448Y-119338729D01*
X148940186Y-119440186D01*
X148838729Y-119523448D01*
X148802991Y-119552778D01*
X148646466Y-119636443D01*
X148476627Y-119687963D01*
X148410442Y-119694482D01*
X148344260Y-119701000D01*
X148255740Y-119701000D01*
X148189558Y-119694482D01*
X148123373Y-119687963D01*
X147953534Y-119636443D01*
X147797009Y-119552778D01*
X147761271Y-119523448D01*
X147659814Y-119440186D01*
X147576552Y-119338729D01*
X147547222Y-119302991D01*
X147463557Y-119146466D01*
X147412037Y-118976627D01*
X147394641Y-118800000D01*
X147412037Y-118623373D01*
X147463557Y-118453534D01*
X147547222Y-118297009D01*
X147587462Y-118247977D01*
X147659814Y-118159814D01*
X147761271Y-118076552D01*
X147797009Y-118047222D01*
X147953534Y-117963557D01*
X148123373Y-117912037D01*
X148189558Y-117905518D01*
X148255740Y-117899000D01*
X148344260Y-117899000D01*
X148410442Y-117905518D01*
X148410442Y-117905518D01*
G37*
G36*
X138250442Y-117905518D02*
G01*
X138316627Y-117912037D01*
X138486466Y-117963557D01*
X138642991Y-118047222D01*
X138678729Y-118076552D01*
X138780186Y-118159814D01*
X138852538Y-118247977D01*
X138892778Y-118297009D01*
X138976443Y-118453534D01*
X139027963Y-118623373D01*
X139045359Y-118800000D01*
X139027963Y-118976627D01*
X138976443Y-119146466D01*
X138892778Y-119302991D01*
X138863448Y-119338729D01*
X138780186Y-119440186D01*
X138678729Y-119523448D01*
X138642991Y-119552778D01*
X138486466Y-119636443D01*
X138316627Y-119687963D01*
X138250442Y-119694482D01*
X138184260Y-119701000D01*
X138095740Y-119701000D01*
X138029558Y-119694482D01*
X137963373Y-119687963D01*
X137793534Y-119636443D01*
X137637009Y-119552778D01*
X137601271Y-119523448D01*
X137499814Y-119440186D01*
X137416552Y-119338729D01*
X137387222Y-119302991D01*
X137303557Y-119146466D01*
X137252037Y-118976627D01*
X137234641Y-118800000D01*
X137252037Y-118623373D01*
X137303557Y-118453534D01*
X137387222Y-118297009D01*
X137427462Y-118247977D01*
X137499814Y-118159814D01*
X137601271Y-118076552D01*
X137637009Y-118047222D01*
X137793534Y-117963557D01*
X137963373Y-117912037D01*
X138029558Y-117905518D01*
X138095740Y-117899000D01*
X138184260Y-117899000D01*
X138250442Y-117905518D01*
X138250442Y-117905518D01*
G37*
G36*
X143330442Y-117905518D02*
G01*
X143396627Y-117912037D01*
X143566466Y-117963557D01*
X143722991Y-118047222D01*
X143758729Y-118076552D01*
X143860186Y-118159814D01*
X143932538Y-118247977D01*
X143972778Y-118297009D01*
X144056443Y-118453534D01*
X144107963Y-118623373D01*
X144125359Y-118800000D01*
X144107963Y-118976627D01*
X144056443Y-119146466D01*
X143972778Y-119302991D01*
X143943448Y-119338729D01*
X143860186Y-119440186D01*
X143758729Y-119523448D01*
X143722991Y-119552778D01*
X143566466Y-119636443D01*
X143396627Y-119687963D01*
X143330442Y-119694482D01*
X143264260Y-119701000D01*
X143175740Y-119701000D01*
X143109558Y-119694482D01*
X143043373Y-119687963D01*
X142873534Y-119636443D01*
X142717009Y-119552778D01*
X142681271Y-119523448D01*
X142579814Y-119440186D01*
X142496552Y-119338729D01*
X142467222Y-119302991D01*
X142383557Y-119146466D01*
X142332037Y-118976627D01*
X142314641Y-118800000D01*
X142332037Y-118623373D01*
X142383557Y-118453534D01*
X142467222Y-118297009D01*
X142507462Y-118247977D01*
X142579814Y-118159814D01*
X142681271Y-118076552D01*
X142717009Y-118047222D01*
X142873534Y-117963557D01*
X143043373Y-117912037D01*
X143109558Y-117905518D01*
X143175740Y-117899000D01*
X143264260Y-117899000D01*
X143330442Y-117905518D01*
X143330442Y-117905518D01*
G37*
G36*
X140790442Y-117905518D02*
G01*
X140856627Y-117912037D01*
X141026466Y-117963557D01*
X141182991Y-118047222D01*
X141218729Y-118076552D01*
X141320186Y-118159814D01*
X141392538Y-118247977D01*
X141432778Y-118297009D01*
X141516443Y-118453534D01*
X141567963Y-118623373D01*
X141585359Y-118800000D01*
X141567963Y-118976627D01*
X141516443Y-119146466D01*
X141432778Y-119302991D01*
X141403448Y-119338729D01*
X141320186Y-119440186D01*
X141218729Y-119523448D01*
X141182991Y-119552778D01*
X141026466Y-119636443D01*
X140856627Y-119687963D01*
X140790442Y-119694482D01*
X140724260Y-119701000D01*
X140635740Y-119701000D01*
X140569558Y-119694482D01*
X140503373Y-119687963D01*
X140333534Y-119636443D01*
X140177009Y-119552778D01*
X140141271Y-119523448D01*
X140039814Y-119440186D01*
X139956552Y-119338729D01*
X139927222Y-119302991D01*
X139843557Y-119146466D01*
X139792037Y-118976627D01*
X139774641Y-118800000D01*
X139792037Y-118623373D01*
X139843557Y-118453534D01*
X139927222Y-118297009D01*
X139967462Y-118247977D01*
X140039814Y-118159814D01*
X140141271Y-118076552D01*
X140177009Y-118047222D01*
X140333534Y-117963557D01*
X140503373Y-117912037D01*
X140569558Y-117905518D01*
X140635740Y-117899000D01*
X140724260Y-117899000D01*
X140790442Y-117905518D01*
X140790442Y-117905518D01*
G37*
G36*
X191213919Y-112534227D02*
G01*
X191527962Y-112596694D01*
X192119606Y-112841761D01*
X192652072Y-113197544D01*
X193104896Y-113650368D01*
X193460679Y-114182834D01*
X193705746Y-114774478D01*
X193705746Y-114774479D01*
X193830680Y-115402563D01*
X193830680Y-116042957D01*
X193787507Y-116260000D01*
X193705746Y-116671042D01*
X193460679Y-117262686D01*
X193104896Y-117795152D01*
X192652072Y-118247976D01*
X192119606Y-118603759D01*
X191527962Y-118848826D01*
X191213919Y-118911293D01*
X190899877Y-118973760D01*
X190259483Y-118973760D01*
X189945441Y-118911293D01*
X189631398Y-118848826D01*
X189039754Y-118603759D01*
X188507288Y-118247976D01*
X188054464Y-117795152D01*
X187698681Y-117262686D01*
X187453614Y-116671042D01*
X187371853Y-116260000D01*
X187328680Y-116042957D01*
X187328680Y-115402563D01*
X187453614Y-114774479D01*
X187453614Y-114774478D01*
X187698681Y-114182834D01*
X188054464Y-113650368D01*
X188507288Y-113197544D01*
X189039754Y-112841761D01*
X189631398Y-112596694D01*
X189945441Y-112534227D01*
X190259483Y-112471760D01*
X190899877Y-112471760D01*
X191213919Y-112534227D01*
X191213919Y-112534227D01*
G37*
G36*
X112162562Y-112534227D02*
G01*
X112476605Y-112596694D01*
X113068249Y-112841761D01*
X113600715Y-113197544D01*
X114053539Y-113650368D01*
X114409322Y-114182834D01*
X114654389Y-114774478D01*
X114654389Y-114774479D01*
X114779323Y-115402563D01*
X114779323Y-116042957D01*
X114736150Y-116260000D01*
X114654389Y-116671042D01*
X114409322Y-117262686D01*
X114053539Y-117795152D01*
X113600715Y-118247976D01*
X113068249Y-118603759D01*
X112476605Y-118848826D01*
X112162562Y-118911293D01*
X111848520Y-118973760D01*
X111208126Y-118973760D01*
X110894084Y-118911293D01*
X110580041Y-118848826D01*
X109988397Y-118603759D01*
X109455931Y-118247976D01*
X109003107Y-117795152D01*
X108647324Y-117262686D01*
X108402257Y-116671042D01*
X108320496Y-116260000D01*
X108277323Y-116042957D01*
X108277323Y-115402563D01*
X108402257Y-114774479D01*
X108402257Y-114774478D01*
X108647324Y-114182834D01*
X109003107Y-113650368D01*
X109455931Y-113197544D01*
X109988397Y-112841761D01*
X110580041Y-112596694D01*
X110894084Y-112534227D01*
X111208126Y-112471760D01*
X111848520Y-112471760D01*
X112162562Y-112534227D01*
X112162562Y-112534227D01*
G37*
G36*
X150950443Y-115365519D02*
G01*
X151016627Y-115372037D01*
X151186466Y-115423557D01*
X151342991Y-115507222D01*
X151378729Y-115536552D01*
X151480186Y-115619814D01*
X151528216Y-115678340D01*
X151592778Y-115757009D01*
X151676443Y-115913534D01*
X151727963Y-116083373D01*
X151745359Y-116260000D01*
X151727963Y-116436627D01*
X151676443Y-116606466D01*
X151592778Y-116762991D01*
X151563448Y-116798729D01*
X151480186Y-116900186D01*
X151378729Y-116983448D01*
X151342991Y-117012778D01*
X151186466Y-117096443D01*
X151016627Y-117147963D01*
X150950443Y-117154481D01*
X150884260Y-117161000D01*
X150795740Y-117161000D01*
X150729557Y-117154481D01*
X150663373Y-117147963D01*
X150493534Y-117096443D01*
X150337009Y-117012778D01*
X150301271Y-116983448D01*
X150199814Y-116900186D01*
X150116552Y-116798729D01*
X150087222Y-116762991D01*
X150003557Y-116606466D01*
X149952037Y-116436627D01*
X149934641Y-116260000D01*
X149952037Y-116083373D01*
X150003557Y-115913534D01*
X150087222Y-115757009D01*
X150151784Y-115678340D01*
X150199814Y-115619814D01*
X150301271Y-115536552D01*
X150337009Y-115507222D01*
X150493534Y-115423557D01*
X150663373Y-115372037D01*
X150729557Y-115365519D01*
X150795740Y-115359000D01*
X150884260Y-115359000D01*
X150950443Y-115365519D01*
X150950443Y-115365519D01*
G37*
G36*
X153490443Y-115365519D02*
G01*
X153556627Y-115372037D01*
X153726466Y-115423557D01*
X153882991Y-115507222D01*
X153918729Y-115536552D01*
X154020186Y-115619814D01*
X154068216Y-115678340D01*
X154132778Y-115757009D01*
X154216443Y-115913534D01*
X154267963Y-116083373D01*
X154285359Y-116260000D01*
X154267963Y-116436627D01*
X154216443Y-116606466D01*
X154132778Y-116762991D01*
X154103448Y-116798729D01*
X154020186Y-116900186D01*
X153918729Y-116983448D01*
X153882991Y-117012778D01*
X153726466Y-117096443D01*
X153556627Y-117147963D01*
X153490443Y-117154481D01*
X153424260Y-117161000D01*
X153335740Y-117161000D01*
X153269557Y-117154481D01*
X153203373Y-117147963D01*
X153033534Y-117096443D01*
X152877009Y-117012778D01*
X152841271Y-116983448D01*
X152739814Y-116900186D01*
X152656552Y-116798729D01*
X152627222Y-116762991D01*
X152543557Y-116606466D01*
X152492037Y-116436627D01*
X152474641Y-116260000D01*
X152492037Y-116083373D01*
X152543557Y-115913534D01*
X152627222Y-115757009D01*
X152691784Y-115678340D01*
X152739814Y-115619814D01*
X152841271Y-115536552D01*
X152877009Y-115507222D01*
X153033534Y-115423557D01*
X153203373Y-115372037D01*
X153269557Y-115365519D01*
X153335740Y-115359000D01*
X153424260Y-115359000D01*
X153490443Y-115365519D01*
X153490443Y-115365519D01*
G37*
G36*
X156030443Y-115365519D02*
G01*
X156096627Y-115372037D01*
X156266466Y-115423557D01*
X156422991Y-115507222D01*
X156458729Y-115536552D01*
X156560186Y-115619814D01*
X156608216Y-115678340D01*
X156672778Y-115757009D01*
X156756443Y-115913534D01*
X156807963Y-116083373D01*
X156825359Y-116260000D01*
X156807963Y-116436627D01*
X156756443Y-116606466D01*
X156672778Y-116762991D01*
X156643448Y-116798729D01*
X156560186Y-116900186D01*
X156458729Y-116983448D01*
X156422991Y-117012778D01*
X156266466Y-117096443D01*
X156096627Y-117147963D01*
X156030443Y-117154481D01*
X155964260Y-117161000D01*
X155875740Y-117161000D01*
X155809557Y-117154481D01*
X155743373Y-117147963D01*
X155573534Y-117096443D01*
X155417009Y-117012778D01*
X155381271Y-116983448D01*
X155279814Y-116900186D01*
X155196552Y-116798729D01*
X155167222Y-116762991D01*
X155083557Y-116606466D01*
X155032037Y-116436627D01*
X155014641Y-116260000D01*
X155032037Y-116083373D01*
X155083557Y-115913534D01*
X155167222Y-115757009D01*
X155231784Y-115678340D01*
X155279814Y-115619814D01*
X155381271Y-115536552D01*
X155417009Y-115507222D01*
X155573534Y-115423557D01*
X155743373Y-115372037D01*
X155809557Y-115365519D01*
X155875740Y-115359000D01*
X155964260Y-115359000D01*
X156030443Y-115365519D01*
X156030443Y-115365519D01*
G37*
G36*
X158570443Y-115365519D02*
G01*
X158636627Y-115372037D01*
X158806466Y-115423557D01*
X158962991Y-115507222D01*
X158998729Y-115536552D01*
X159100186Y-115619814D01*
X159148216Y-115678340D01*
X159212778Y-115757009D01*
X159296443Y-115913534D01*
X159347963Y-116083373D01*
X159365359Y-116260000D01*
X159347963Y-116436627D01*
X159296443Y-116606466D01*
X159212778Y-116762991D01*
X159183448Y-116798729D01*
X159100186Y-116900186D01*
X158998729Y-116983448D01*
X158962991Y-117012778D01*
X158806466Y-117096443D01*
X158636627Y-117147963D01*
X158570443Y-117154481D01*
X158504260Y-117161000D01*
X158415740Y-117161000D01*
X158349557Y-117154481D01*
X158283373Y-117147963D01*
X158113534Y-117096443D01*
X157957009Y-117012778D01*
X157921271Y-116983448D01*
X157819814Y-116900186D01*
X157736552Y-116798729D01*
X157707222Y-116762991D01*
X157623557Y-116606466D01*
X157572037Y-116436627D01*
X157554641Y-116260000D01*
X157572037Y-116083373D01*
X157623557Y-115913534D01*
X157707222Y-115757009D01*
X157771784Y-115678340D01*
X157819814Y-115619814D01*
X157921271Y-115536552D01*
X157957009Y-115507222D01*
X158113534Y-115423557D01*
X158283373Y-115372037D01*
X158349557Y-115365519D01*
X158415740Y-115359000D01*
X158504260Y-115359000D01*
X158570443Y-115365519D01*
X158570443Y-115365519D01*
G37*
G36*
X161110443Y-115365519D02*
G01*
X161176627Y-115372037D01*
X161346466Y-115423557D01*
X161502991Y-115507222D01*
X161538729Y-115536552D01*
X161640186Y-115619814D01*
X161688216Y-115678340D01*
X161752778Y-115757009D01*
X161836443Y-115913534D01*
X161887963Y-116083373D01*
X161905359Y-116260000D01*
X161887963Y-116436627D01*
X161836443Y-116606466D01*
X161752778Y-116762991D01*
X161723448Y-116798729D01*
X161640186Y-116900186D01*
X161538729Y-116983448D01*
X161502991Y-117012778D01*
X161346466Y-117096443D01*
X161176627Y-117147963D01*
X161110443Y-117154481D01*
X161044260Y-117161000D01*
X160955740Y-117161000D01*
X160889557Y-117154481D01*
X160823373Y-117147963D01*
X160653534Y-117096443D01*
X160497009Y-117012778D01*
X160461271Y-116983448D01*
X160359814Y-116900186D01*
X160276552Y-116798729D01*
X160247222Y-116762991D01*
X160163557Y-116606466D01*
X160112037Y-116436627D01*
X160094641Y-116260000D01*
X160112037Y-116083373D01*
X160163557Y-115913534D01*
X160247222Y-115757009D01*
X160311784Y-115678340D01*
X160359814Y-115619814D01*
X160461271Y-115536552D01*
X160497009Y-115507222D01*
X160653534Y-115423557D01*
X160823373Y-115372037D01*
X160889557Y-115365519D01*
X160955740Y-115359000D01*
X161044260Y-115359000D01*
X161110443Y-115365519D01*
X161110443Y-115365519D01*
G37*
G36*
X148410443Y-115365519D02*
G01*
X148476627Y-115372037D01*
X148646466Y-115423557D01*
X148802991Y-115507222D01*
X148838729Y-115536552D01*
X148940186Y-115619814D01*
X148988216Y-115678340D01*
X149052778Y-115757009D01*
X149136443Y-115913534D01*
X149187963Y-116083373D01*
X149205359Y-116260000D01*
X149187963Y-116436627D01*
X149136443Y-116606466D01*
X149052778Y-116762991D01*
X149023448Y-116798729D01*
X148940186Y-116900186D01*
X148838729Y-116983448D01*
X148802991Y-117012778D01*
X148646466Y-117096443D01*
X148476627Y-117147963D01*
X148410443Y-117154481D01*
X148344260Y-117161000D01*
X148255740Y-117161000D01*
X148189557Y-117154481D01*
X148123373Y-117147963D01*
X147953534Y-117096443D01*
X147797009Y-117012778D01*
X147761271Y-116983448D01*
X147659814Y-116900186D01*
X147576552Y-116798729D01*
X147547222Y-116762991D01*
X147463557Y-116606466D01*
X147412037Y-116436627D01*
X147394641Y-116260000D01*
X147412037Y-116083373D01*
X147463557Y-115913534D01*
X147547222Y-115757009D01*
X147611784Y-115678340D01*
X147659814Y-115619814D01*
X147761271Y-115536552D01*
X147797009Y-115507222D01*
X147953534Y-115423557D01*
X148123373Y-115372037D01*
X148189557Y-115365519D01*
X148255740Y-115359000D01*
X148344260Y-115359000D01*
X148410443Y-115365519D01*
X148410443Y-115365519D01*
G37*
G36*
X145870443Y-115365519D02*
G01*
X145936627Y-115372037D01*
X146106466Y-115423557D01*
X146262991Y-115507222D01*
X146298729Y-115536552D01*
X146400186Y-115619814D01*
X146448216Y-115678340D01*
X146512778Y-115757009D01*
X146596443Y-115913534D01*
X146647963Y-116083373D01*
X146665359Y-116260000D01*
X146647963Y-116436627D01*
X146596443Y-116606466D01*
X146512778Y-116762991D01*
X146483448Y-116798729D01*
X146400186Y-116900186D01*
X146298729Y-116983448D01*
X146262991Y-117012778D01*
X146106466Y-117096443D01*
X145936627Y-117147963D01*
X145870443Y-117154481D01*
X145804260Y-117161000D01*
X145715740Y-117161000D01*
X145649557Y-117154481D01*
X145583373Y-117147963D01*
X145413534Y-117096443D01*
X145257009Y-117012778D01*
X145221271Y-116983448D01*
X145119814Y-116900186D01*
X145036552Y-116798729D01*
X145007222Y-116762991D01*
X144923557Y-116606466D01*
X144872037Y-116436627D01*
X144854641Y-116260000D01*
X144872037Y-116083373D01*
X144923557Y-115913534D01*
X145007222Y-115757009D01*
X145071784Y-115678340D01*
X145119814Y-115619814D01*
X145221271Y-115536552D01*
X145257009Y-115507222D01*
X145413534Y-115423557D01*
X145583373Y-115372037D01*
X145649557Y-115365519D01*
X145715740Y-115359000D01*
X145804260Y-115359000D01*
X145870443Y-115365519D01*
X145870443Y-115365519D01*
G37*
G36*
X143330443Y-115365519D02*
G01*
X143396627Y-115372037D01*
X143566466Y-115423557D01*
X143722991Y-115507222D01*
X143758729Y-115536552D01*
X143860186Y-115619814D01*
X143908216Y-115678340D01*
X143972778Y-115757009D01*
X144056443Y-115913534D01*
X144107963Y-116083373D01*
X144125359Y-116260000D01*
X144107963Y-116436627D01*
X144056443Y-116606466D01*
X143972778Y-116762991D01*
X143943448Y-116798729D01*
X143860186Y-116900186D01*
X143758729Y-116983448D01*
X143722991Y-117012778D01*
X143566466Y-117096443D01*
X143396627Y-117147963D01*
X143330443Y-117154481D01*
X143264260Y-117161000D01*
X143175740Y-117161000D01*
X143109557Y-117154481D01*
X143043373Y-117147963D01*
X142873534Y-117096443D01*
X142717009Y-117012778D01*
X142681271Y-116983448D01*
X142579814Y-116900186D01*
X142496552Y-116798729D01*
X142467222Y-116762991D01*
X142383557Y-116606466D01*
X142332037Y-116436627D01*
X142314641Y-116260000D01*
X142332037Y-116083373D01*
X142383557Y-115913534D01*
X142467222Y-115757009D01*
X142531784Y-115678340D01*
X142579814Y-115619814D01*
X142681271Y-115536552D01*
X142717009Y-115507222D01*
X142873534Y-115423557D01*
X143043373Y-115372037D01*
X143109557Y-115365519D01*
X143175740Y-115359000D01*
X143264260Y-115359000D01*
X143330443Y-115365519D01*
X143330443Y-115365519D01*
G37*
G36*
X140790443Y-115365519D02*
G01*
X140856627Y-115372037D01*
X141026466Y-115423557D01*
X141182991Y-115507222D01*
X141218729Y-115536552D01*
X141320186Y-115619814D01*
X141368216Y-115678340D01*
X141432778Y-115757009D01*
X141516443Y-115913534D01*
X141567963Y-116083373D01*
X141585359Y-116260000D01*
X141567963Y-116436627D01*
X141516443Y-116606466D01*
X141432778Y-116762991D01*
X141403448Y-116798729D01*
X141320186Y-116900186D01*
X141218729Y-116983448D01*
X141182991Y-117012778D01*
X141026466Y-117096443D01*
X140856627Y-117147963D01*
X140790443Y-117154481D01*
X140724260Y-117161000D01*
X140635740Y-117161000D01*
X140569557Y-117154481D01*
X140503373Y-117147963D01*
X140333534Y-117096443D01*
X140177009Y-117012778D01*
X140141271Y-116983448D01*
X140039814Y-116900186D01*
X139956552Y-116798729D01*
X139927222Y-116762991D01*
X139843557Y-116606466D01*
X139792037Y-116436627D01*
X139774641Y-116260000D01*
X139792037Y-116083373D01*
X139843557Y-115913534D01*
X139927222Y-115757009D01*
X139991784Y-115678340D01*
X140039814Y-115619814D01*
X140141271Y-115536552D01*
X140177009Y-115507222D01*
X140333534Y-115423557D01*
X140503373Y-115372037D01*
X140569557Y-115365519D01*
X140635740Y-115359000D01*
X140724260Y-115359000D01*
X140790443Y-115365519D01*
X140790443Y-115365519D01*
G37*
G36*
X138250443Y-115365519D02*
G01*
X138316627Y-115372037D01*
X138486466Y-115423557D01*
X138642991Y-115507222D01*
X138678729Y-115536552D01*
X138780186Y-115619814D01*
X138828216Y-115678340D01*
X138892778Y-115757009D01*
X138976443Y-115913534D01*
X139027963Y-116083373D01*
X139045359Y-116260000D01*
X139027963Y-116436627D01*
X138976443Y-116606466D01*
X138892778Y-116762991D01*
X138863448Y-116798729D01*
X138780186Y-116900186D01*
X138678729Y-116983448D01*
X138642991Y-117012778D01*
X138486466Y-117096443D01*
X138316627Y-117147963D01*
X138250443Y-117154481D01*
X138184260Y-117161000D01*
X138095740Y-117161000D01*
X138029557Y-117154481D01*
X137963373Y-117147963D01*
X137793534Y-117096443D01*
X137637009Y-117012778D01*
X137601271Y-116983448D01*
X137499814Y-116900186D01*
X137416552Y-116798729D01*
X137387222Y-116762991D01*
X137303557Y-116606466D01*
X137252037Y-116436627D01*
X137234641Y-116260000D01*
X137252037Y-116083373D01*
X137303557Y-115913534D01*
X137387222Y-115757009D01*
X137451784Y-115678340D01*
X137499814Y-115619814D01*
X137601271Y-115536552D01*
X137637009Y-115507222D01*
X137793534Y-115423557D01*
X137963373Y-115372037D01*
X138029557Y-115365519D01*
X138095740Y-115359000D01*
X138184260Y-115359000D01*
X138250443Y-115365519D01*
X138250443Y-115365519D01*
G37*
G36*
X135710443Y-115365519D02*
G01*
X135776627Y-115372037D01*
X135946466Y-115423557D01*
X136102991Y-115507222D01*
X136138729Y-115536552D01*
X136240186Y-115619814D01*
X136288216Y-115678340D01*
X136352778Y-115757009D01*
X136436443Y-115913534D01*
X136487963Y-116083373D01*
X136505359Y-116260000D01*
X136487963Y-116436627D01*
X136436443Y-116606466D01*
X136352778Y-116762991D01*
X136323448Y-116798729D01*
X136240186Y-116900186D01*
X136138729Y-116983448D01*
X136102991Y-117012778D01*
X135946466Y-117096443D01*
X135776627Y-117147963D01*
X135710443Y-117154481D01*
X135644260Y-117161000D01*
X135555740Y-117161000D01*
X135489557Y-117154481D01*
X135423373Y-117147963D01*
X135253534Y-117096443D01*
X135097009Y-117012778D01*
X135061271Y-116983448D01*
X134959814Y-116900186D01*
X134876552Y-116798729D01*
X134847222Y-116762991D01*
X134763557Y-116606466D01*
X134712037Y-116436627D01*
X134694641Y-116260000D01*
X134712037Y-116083373D01*
X134763557Y-115913534D01*
X134847222Y-115757009D01*
X134911784Y-115678340D01*
X134959814Y-115619814D01*
X135061271Y-115536552D01*
X135097009Y-115507222D01*
X135253534Y-115423557D01*
X135423373Y-115372037D01*
X135489557Y-115365519D01*
X135555740Y-115359000D01*
X135644260Y-115359000D01*
X135710443Y-115365519D01*
X135710443Y-115365519D01*
G37*
G36*
X163650443Y-115365519D02*
G01*
X163716627Y-115372037D01*
X163886466Y-115423557D01*
X164042991Y-115507222D01*
X164078729Y-115536552D01*
X164180186Y-115619814D01*
X164228216Y-115678340D01*
X164292778Y-115757009D01*
X164376443Y-115913534D01*
X164427963Y-116083373D01*
X164445359Y-116260000D01*
X164427963Y-116436627D01*
X164376443Y-116606466D01*
X164292778Y-116762991D01*
X164263448Y-116798729D01*
X164180186Y-116900186D01*
X164078729Y-116983448D01*
X164042991Y-117012778D01*
X163886466Y-117096443D01*
X163716627Y-117147963D01*
X163650443Y-117154481D01*
X163584260Y-117161000D01*
X163495740Y-117161000D01*
X163429557Y-117154481D01*
X163363373Y-117147963D01*
X163193534Y-117096443D01*
X163037009Y-117012778D01*
X163001271Y-116983448D01*
X162899814Y-116900186D01*
X162816552Y-116798729D01*
X162787222Y-116762991D01*
X162703557Y-116606466D01*
X162652037Y-116436627D01*
X162634641Y-116260000D01*
X162652037Y-116083373D01*
X162703557Y-115913534D01*
X162787222Y-115757009D01*
X162851784Y-115678340D01*
X162899814Y-115619814D01*
X163001271Y-115536552D01*
X163037009Y-115507222D01*
X163193534Y-115423557D01*
X163363373Y-115372037D01*
X163429557Y-115365519D01*
X163495740Y-115359000D01*
X163584260Y-115359000D01*
X163650443Y-115365519D01*
X163650443Y-115365519D01*
G37*
G36*
X175536564Y-110249389D02*
G01*
X175727833Y-110328615D01*
X175727835Y-110328616D01*
X175899973Y-110443635D01*
X176046365Y-110590027D01*
X176161385Y-110762167D01*
X176240611Y-110953436D01*
X176281000Y-111156484D01*
X176281000Y-111363516D01*
X176240611Y-111566564D01*
X176161385Y-111757833D01*
X176161384Y-111757835D01*
X176046365Y-111929973D01*
X175899973Y-112076365D01*
X175727835Y-112191384D01*
X175727834Y-112191385D01*
X175727833Y-112191385D01*
X175536564Y-112270611D01*
X175333516Y-112311000D01*
X175126484Y-112311000D01*
X174923436Y-112270611D01*
X174732167Y-112191385D01*
X174732166Y-112191385D01*
X174732165Y-112191384D01*
X174560027Y-112076365D01*
X174413635Y-111929973D01*
X174298616Y-111757835D01*
X174298615Y-111757833D01*
X174219389Y-111566564D01*
X174179000Y-111363516D01*
X174179000Y-111156484D01*
X174219389Y-110953436D01*
X174298615Y-110762167D01*
X174413635Y-110590027D01*
X174560027Y-110443635D01*
X174732165Y-110328616D01*
X174732167Y-110328615D01*
X174923436Y-110249389D01*
X175126484Y-110209000D01*
X175333516Y-110209000D01*
X175536564Y-110249389D01*
X175536564Y-110249389D01*
G37*
G36*
X164729591Y-107978085D02*
G01*
X164763569Y-107988393D01*
X164794890Y-108005134D01*
X164822339Y-108027661D01*
X164844866Y-108055110D01*
X164861607Y-108086431D01*
X164871915Y-108120409D01*
X164876000Y-108161890D01*
X164876000Y-108838110D01*
X164871915Y-108879591D01*
X164861607Y-108913569D01*
X164844866Y-108944890D01*
X164822339Y-108972339D01*
X164794890Y-108994866D01*
X164763569Y-109011607D01*
X164729591Y-109021915D01*
X164688110Y-109026000D01*
X164086890Y-109026000D01*
X164045409Y-109021915D01*
X164011431Y-109011607D01*
X163980110Y-108994866D01*
X163952661Y-108972339D01*
X163930134Y-108944890D01*
X163913393Y-108913569D01*
X163903085Y-108879591D01*
X163899000Y-108838110D01*
X163899000Y-108161890D01*
X163903085Y-108120409D01*
X163913393Y-108086431D01*
X163930134Y-108055110D01*
X163952661Y-108027661D01*
X163980110Y-108005134D01*
X164011431Y-107988393D01*
X164045409Y-107978085D01*
X164086890Y-107974000D01*
X164688110Y-107974000D01*
X164729591Y-107978085D01*
X164729591Y-107978085D01*
G37*
G36*
X163154591Y-107978085D02*
G01*
X163188569Y-107988393D01*
X163219890Y-108005134D01*
X163247339Y-108027661D01*
X163269866Y-108055110D01*
X163286607Y-108086431D01*
X163296915Y-108120409D01*
X163301000Y-108161890D01*
X163301000Y-108838110D01*
X163296915Y-108879591D01*
X163286607Y-108913569D01*
X163269866Y-108944890D01*
X163247339Y-108972339D01*
X163219890Y-108994866D01*
X163188569Y-109011607D01*
X163154591Y-109021915D01*
X163113110Y-109026000D01*
X162511890Y-109026000D01*
X162470409Y-109021915D01*
X162436431Y-109011607D01*
X162405110Y-108994866D01*
X162377661Y-108972339D01*
X162355134Y-108944890D01*
X162338393Y-108913569D01*
X162328085Y-108879591D01*
X162324000Y-108838110D01*
X162324000Y-108161890D01*
X162328085Y-108120409D01*
X162338393Y-108086431D01*
X162355134Y-108055110D01*
X162377661Y-108027661D01*
X162405110Y-108005134D01*
X162436431Y-107988393D01*
X162470409Y-107978085D01*
X162511890Y-107974000D01*
X163113110Y-107974000D01*
X163154591Y-107978085D01*
X163154591Y-107978085D01*
G37*
G36*
X169529591Y-107978085D02*
G01*
X169563569Y-107988393D01*
X169594890Y-108005134D01*
X169622339Y-108027661D01*
X169644866Y-108055110D01*
X169661607Y-108086431D01*
X169671915Y-108120409D01*
X169676000Y-108161890D01*
X169676000Y-108838110D01*
X169671915Y-108879591D01*
X169661607Y-108913569D01*
X169644866Y-108944890D01*
X169622339Y-108972339D01*
X169594890Y-108994866D01*
X169563569Y-109011607D01*
X169529591Y-109021915D01*
X169488110Y-109026000D01*
X168886890Y-109026000D01*
X168845409Y-109021915D01*
X168811431Y-109011607D01*
X168780110Y-108994866D01*
X168752661Y-108972339D01*
X168730134Y-108944890D01*
X168713393Y-108913569D01*
X168703085Y-108879591D01*
X168699000Y-108838110D01*
X168699000Y-108161890D01*
X168703085Y-108120409D01*
X168713393Y-108086431D01*
X168730134Y-108055110D01*
X168752661Y-108027661D01*
X168780110Y-108005134D01*
X168811431Y-107988393D01*
X168845409Y-107978085D01*
X168886890Y-107974000D01*
X169488110Y-107974000D01*
X169529591Y-107978085D01*
X169529591Y-107978085D01*
G37*
G36*
X167954591Y-107978085D02*
G01*
X167988569Y-107988393D01*
X168019890Y-108005134D01*
X168047339Y-108027661D01*
X168069866Y-108055110D01*
X168086607Y-108086431D01*
X168096915Y-108120409D01*
X168101000Y-108161890D01*
X168101000Y-108838110D01*
X168096915Y-108879591D01*
X168086607Y-108913569D01*
X168069866Y-108944890D01*
X168047339Y-108972339D01*
X168019890Y-108994866D01*
X167988569Y-109011607D01*
X167954591Y-109021915D01*
X167913110Y-109026000D01*
X167311890Y-109026000D01*
X167270409Y-109021915D01*
X167236431Y-109011607D01*
X167205110Y-108994866D01*
X167177661Y-108972339D01*
X167155134Y-108944890D01*
X167138393Y-108913569D01*
X167128085Y-108879591D01*
X167124000Y-108838110D01*
X167124000Y-108161890D01*
X167128085Y-108120409D01*
X167138393Y-108086431D01*
X167155134Y-108055110D01*
X167177661Y-108027661D01*
X167205110Y-108005134D01*
X167236431Y-107988393D01*
X167270409Y-107978085D01*
X167311890Y-107974000D01*
X167913110Y-107974000D01*
X167954591Y-107978085D01*
X167954591Y-107978085D01*
G37*
G36*
X169621000Y-107221000D02*
G01*
X167019000Y-107221000D01*
X167019000Y-105919000D01*
X169621000Y-105919000D01*
X169621000Y-107221000D01*
X169621000Y-107221000D01*
G37*
G36*
X164871000Y-107221000D02*
G01*
X162269000Y-107221000D01*
X162269000Y-105919000D01*
X164871000Y-105919000D01*
X164871000Y-107221000D01*
X164871000Y-107221000D01*
G37*
G36*
X143311000Y-107131000D02*
G01*
X141509000Y-107131000D01*
X141509000Y-105329000D01*
X143311000Y-105329000D01*
X143311000Y-107131000D01*
X143311000Y-107131000D01*
G37*
G36*
X145060443Y-105335519D02*
G01*
X145126627Y-105342037D01*
X145296466Y-105393557D01*
X145452991Y-105477222D01*
X145488729Y-105506552D01*
X145590186Y-105589814D01*
X145673448Y-105691271D01*
X145702778Y-105727009D01*
X145786443Y-105883534D01*
X145837963Y-106053373D01*
X145855359Y-106230000D01*
X145837963Y-106406627D01*
X145786443Y-106576466D01*
X145702778Y-106732991D01*
X145673448Y-106768729D01*
X145590186Y-106870186D01*
X145488729Y-106953448D01*
X145452991Y-106982778D01*
X145296466Y-107066443D01*
X145126627Y-107117963D01*
X145060442Y-107124482D01*
X144994260Y-107131000D01*
X144905740Y-107131000D01*
X144839558Y-107124482D01*
X144773373Y-107117963D01*
X144603534Y-107066443D01*
X144447009Y-106982778D01*
X144411271Y-106953448D01*
X144309814Y-106870186D01*
X144226552Y-106768729D01*
X144197222Y-106732991D01*
X144113557Y-106576466D01*
X144062037Y-106406627D01*
X144044641Y-106230000D01*
X144062037Y-106053373D01*
X144113557Y-105883534D01*
X144197222Y-105727009D01*
X144226552Y-105691271D01*
X144309814Y-105589814D01*
X144411271Y-105506552D01*
X144447009Y-105477222D01*
X144603534Y-105393557D01*
X144773373Y-105342037D01*
X144839557Y-105335519D01*
X144905740Y-105329000D01*
X144994260Y-105329000D01*
X145060443Y-105335519D01*
X145060443Y-105335519D01*
G37*
G36*
X164871000Y-104721000D02*
G01*
X164169000Y-104721000D01*
X164169000Y-103419000D01*
X164871000Y-103419000D01*
X164871000Y-104721000D01*
X164871000Y-104721000D01*
G37*
G36*
X169621000Y-104721000D02*
G01*
X168919000Y-104721000D01*
X168919000Y-103419000D01*
X169621000Y-103419000D01*
X169621000Y-104721000D01*
X169621000Y-104721000D01*
G37*
G36*
X167721000Y-104721000D02*
G01*
X167019000Y-104721000D01*
X167019000Y-103419000D01*
X167721000Y-103419000D01*
X167721000Y-104721000D01*
X167721000Y-104721000D01*
G37*
G36*
X162971000Y-104721000D02*
G01*
X162269000Y-104721000D01*
X162269000Y-103419000D01*
X162971000Y-103419000D01*
X162971000Y-104721000D01*
X162971000Y-104721000D01*
G37*
G36*
X179397000Y-104621000D02*
G01*
X178695000Y-104621000D01*
X178695000Y-103319000D01*
X179397000Y-103319000D01*
X179397000Y-104621000D01*
X179397000Y-104621000D01*
G37*
G36*
X177497000Y-104621000D02*
G01*
X176795000Y-104621000D01*
X176795000Y-103319000D01*
X177497000Y-103319000D01*
X177497000Y-104621000D01*
X177497000Y-104621000D01*
G37*
G36*
X145053513Y-102584836D02*
G01*
X145126627Y-102592037D01*
X145296466Y-102643557D01*
X145452991Y-102727222D01*
X145488729Y-102756552D01*
X145590186Y-102839814D01*
X145673448Y-102941271D01*
X145702778Y-102977009D01*
X145786443Y-103133534D01*
X145837963Y-103303373D01*
X145855359Y-103480000D01*
X145837963Y-103656627D01*
X145786443Y-103826466D01*
X145702778Y-103982991D01*
X145673448Y-104018729D01*
X145590186Y-104120186D01*
X145488729Y-104203448D01*
X145452991Y-104232778D01*
X145452989Y-104232779D01*
X145305514Y-104311607D01*
X145296466Y-104316443D01*
X145126627Y-104367963D01*
X145060442Y-104374482D01*
X144994260Y-104381000D01*
X144905740Y-104381000D01*
X144839558Y-104374482D01*
X144773373Y-104367963D01*
X144603534Y-104316443D01*
X144594487Y-104311607D01*
X144447011Y-104232779D01*
X144447009Y-104232778D01*
X144411271Y-104203448D01*
X144309814Y-104120186D01*
X144226552Y-104018729D01*
X144197222Y-103982991D01*
X144113557Y-103826466D01*
X144062037Y-103656627D01*
X144044641Y-103480000D01*
X144062037Y-103303373D01*
X144113557Y-103133534D01*
X144197222Y-102977009D01*
X144226552Y-102941271D01*
X144309814Y-102839814D01*
X144411271Y-102756552D01*
X144447009Y-102727222D01*
X144603534Y-102643557D01*
X144773373Y-102592037D01*
X144846487Y-102584836D01*
X144905740Y-102579000D01*
X144994260Y-102579000D01*
X145053513Y-102584836D01*
X145053513Y-102584836D01*
G37*
G36*
X143311000Y-104381000D02*
G01*
X141509000Y-104381000D01*
X141509000Y-102579000D01*
X143311000Y-102579000D01*
X143311000Y-104381000D01*
X143311000Y-104381000D01*
G37*
G36*
X116329591Y-103278085D02*
G01*
X116363569Y-103288393D01*
X116394890Y-103305134D01*
X116422339Y-103327661D01*
X116444866Y-103355110D01*
X116461607Y-103386431D01*
X116471915Y-103420409D01*
X116476000Y-103461890D01*
X116476000Y-104138110D01*
X116471915Y-104179591D01*
X116461607Y-104213569D01*
X116444866Y-104244890D01*
X116422339Y-104272339D01*
X116394890Y-104294866D01*
X116363569Y-104311607D01*
X116329591Y-104321915D01*
X116288110Y-104326000D01*
X115686890Y-104326000D01*
X115645409Y-104321915D01*
X115611431Y-104311607D01*
X115580110Y-104294866D01*
X115552661Y-104272339D01*
X115530134Y-104244890D01*
X115513393Y-104213569D01*
X115503085Y-104179591D01*
X115499000Y-104138110D01*
X115499000Y-103461890D01*
X115503085Y-103420409D01*
X115513393Y-103386431D01*
X115530134Y-103355110D01*
X115552661Y-103327661D01*
X115580110Y-103305134D01*
X115611431Y-103288393D01*
X115645409Y-103278085D01*
X115686890Y-103274000D01*
X116288110Y-103274000D01*
X116329591Y-103278085D01*
X116329591Y-103278085D01*
G37*
G36*
X114754591Y-103278085D02*
G01*
X114788569Y-103288393D01*
X114819890Y-103305134D01*
X114847339Y-103327661D01*
X114869866Y-103355110D01*
X114886607Y-103386431D01*
X114896915Y-103420409D01*
X114901000Y-103461890D01*
X114901000Y-104138110D01*
X114896915Y-104179591D01*
X114886607Y-104213569D01*
X114869866Y-104244890D01*
X114847339Y-104272339D01*
X114819890Y-104294866D01*
X114788569Y-104311607D01*
X114754591Y-104321915D01*
X114713110Y-104326000D01*
X114111890Y-104326000D01*
X114070409Y-104321915D01*
X114036431Y-104311607D01*
X114005110Y-104294866D01*
X113977661Y-104272339D01*
X113955134Y-104244890D01*
X113938393Y-104213569D01*
X113928085Y-104179591D01*
X113924000Y-104138110D01*
X113924000Y-103461890D01*
X113928085Y-103420409D01*
X113938393Y-103386431D01*
X113955134Y-103355110D01*
X113977661Y-103327661D01*
X114005110Y-103305134D01*
X114036431Y-103288393D01*
X114070409Y-103278085D01*
X114111890Y-103274000D01*
X114713110Y-103274000D01*
X114754591Y-103278085D01*
X114754591Y-103278085D01*
G37*
G36*
X116329591Y-101578085D02*
G01*
X116363569Y-101588393D01*
X116394890Y-101605134D01*
X116422339Y-101627661D01*
X116444866Y-101655110D01*
X116461607Y-101686431D01*
X116471915Y-101720409D01*
X116476000Y-101761890D01*
X116476000Y-102438110D01*
X116471915Y-102479591D01*
X116461607Y-102513569D01*
X116444866Y-102544890D01*
X116422339Y-102572339D01*
X116394890Y-102594866D01*
X116363569Y-102611607D01*
X116329591Y-102621915D01*
X116288110Y-102626000D01*
X115686890Y-102626000D01*
X115645409Y-102621915D01*
X115611431Y-102611607D01*
X115580110Y-102594866D01*
X115552661Y-102572339D01*
X115530134Y-102544890D01*
X115513393Y-102513569D01*
X115503085Y-102479591D01*
X115499000Y-102438110D01*
X115499000Y-101761890D01*
X115503085Y-101720409D01*
X115513393Y-101686431D01*
X115530134Y-101655110D01*
X115552661Y-101627661D01*
X115580110Y-101605134D01*
X115611431Y-101588393D01*
X115645409Y-101578085D01*
X115686890Y-101574000D01*
X116288110Y-101574000D01*
X116329591Y-101578085D01*
X116329591Y-101578085D01*
G37*
G36*
X114754591Y-101578085D02*
G01*
X114788569Y-101588393D01*
X114819890Y-101605134D01*
X114847339Y-101627661D01*
X114869866Y-101655110D01*
X114886607Y-101686431D01*
X114896915Y-101720409D01*
X114901000Y-101761890D01*
X114901000Y-102438110D01*
X114896915Y-102479591D01*
X114886607Y-102513569D01*
X114869866Y-102544890D01*
X114847339Y-102572339D01*
X114819890Y-102594866D01*
X114788569Y-102611607D01*
X114754591Y-102621915D01*
X114713110Y-102626000D01*
X114111890Y-102626000D01*
X114070409Y-102621915D01*
X114036431Y-102611607D01*
X114005110Y-102594866D01*
X113977661Y-102572339D01*
X113955134Y-102544890D01*
X113938393Y-102513569D01*
X113928085Y-102479591D01*
X113924000Y-102438110D01*
X113924000Y-101761890D01*
X113928085Y-101720409D01*
X113938393Y-101686431D01*
X113955134Y-101655110D01*
X113977661Y-101627661D01*
X114005110Y-101605134D01*
X114036431Y-101588393D01*
X114070409Y-101578085D01*
X114111890Y-101574000D01*
X114713110Y-101574000D01*
X114754591Y-101578085D01*
X114754591Y-101578085D01*
G37*
G36*
X186004468Y-101553565D02*
G01*
X186043138Y-101565296D01*
X186078777Y-101584346D01*
X186110017Y-101609983D01*
X186135654Y-101641223D01*
X186154704Y-101676862D01*
X186166435Y-101715532D01*
X186171000Y-101761888D01*
X186171000Y-102413112D01*
X186166435Y-102459468D01*
X186154704Y-102498138D01*
X186135654Y-102533777D01*
X186110017Y-102565017D01*
X186078777Y-102590654D01*
X186043138Y-102609704D01*
X186004468Y-102621435D01*
X185958112Y-102626000D01*
X184881888Y-102626000D01*
X184835532Y-102621435D01*
X184796862Y-102609704D01*
X184761223Y-102590654D01*
X184729983Y-102565017D01*
X184704346Y-102533777D01*
X184685296Y-102498138D01*
X184673565Y-102459468D01*
X184669000Y-102413112D01*
X184669000Y-101761888D01*
X184673565Y-101715532D01*
X184685296Y-101676862D01*
X184704346Y-101641223D01*
X184729983Y-101609983D01*
X184761223Y-101584346D01*
X184796862Y-101565296D01*
X184835532Y-101553565D01*
X184881888Y-101549000D01*
X185958112Y-101549000D01*
X186004468Y-101553565D01*
X186004468Y-101553565D01*
G37*
G36*
X167854591Y-101228085D02*
G01*
X167888569Y-101238393D01*
X167919890Y-101255134D01*
X167947339Y-101277661D01*
X167969866Y-101305110D01*
X167986607Y-101336431D01*
X167996915Y-101370409D01*
X168001000Y-101411890D01*
X168001000Y-102088110D01*
X167996915Y-102129591D01*
X167986607Y-102163569D01*
X167969866Y-102194890D01*
X167947339Y-102222339D01*
X167919890Y-102244866D01*
X167888569Y-102261607D01*
X167854591Y-102271915D01*
X167813110Y-102276000D01*
X167211890Y-102276000D01*
X167170409Y-102271915D01*
X167136431Y-102261607D01*
X167105110Y-102244866D01*
X167077661Y-102222339D01*
X167055134Y-102194890D01*
X167038393Y-102163569D01*
X167028085Y-102129591D01*
X167024000Y-102088110D01*
X167024000Y-101411890D01*
X167028085Y-101370409D01*
X167038393Y-101336431D01*
X167055134Y-101305110D01*
X167077661Y-101277661D01*
X167105110Y-101255134D01*
X167136431Y-101238393D01*
X167170409Y-101228085D01*
X167211890Y-101224000D01*
X167813110Y-101224000D01*
X167854591Y-101228085D01*
X167854591Y-101228085D01*
G37*
G36*
X169429591Y-101228085D02*
G01*
X169463569Y-101238393D01*
X169494890Y-101255134D01*
X169522339Y-101277661D01*
X169544866Y-101305110D01*
X169561607Y-101336431D01*
X169571915Y-101370409D01*
X169576000Y-101411890D01*
X169576000Y-102088110D01*
X169571915Y-102129591D01*
X169561607Y-102163569D01*
X169544866Y-102194890D01*
X169522339Y-102222339D01*
X169494890Y-102244866D01*
X169463569Y-102261607D01*
X169429591Y-102271915D01*
X169388110Y-102276000D01*
X168786890Y-102276000D01*
X168745409Y-102271915D01*
X168711431Y-102261607D01*
X168680110Y-102244866D01*
X168652661Y-102222339D01*
X168630134Y-102194890D01*
X168613393Y-102163569D01*
X168603085Y-102129591D01*
X168599000Y-102088110D01*
X168599000Y-101411890D01*
X168603085Y-101370409D01*
X168613393Y-101336431D01*
X168630134Y-101305110D01*
X168652661Y-101277661D01*
X168680110Y-101255134D01*
X168711431Y-101238393D01*
X168745409Y-101228085D01*
X168786890Y-101224000D01*
X169388110Y-101224000D01*
X169429591Y-101228085D01*
X169429591Y-101228085D01*
G37*
G36*
X164729591Y-101178085D02*
G01*
X164763569Y-101188393D01*
X164794890Y-101205134D01*
X164822339Y-101227661D01*
X164844866Y-101255110D01*
X164861607Y-101286431D01*
X164871915Y-101320409D01*
X164876000Y-101361890D01*
X164876000Y-102038110D01*
X164871915Y-102079591D01*
X164861607Y-102113569D01*
X164844866Y-102144890D01*
X164822339Y-102172339D01*
X164794890Y-102194866D01*
X164763569Y-102211607D01*
X164729591Y-102221915D01*
X164688110Y-102226000D01*
X164086890Y-102226000D01*
X164045409Y-102221915D01*
X164011431Y-102211607D01*
X163980110Y-102194866D01*
X163952661Y-102172339D01*
X163930134Y-102144890D01*
X163913393Y-102113569D01*
X163903085Y-102079591D01*
X163899000Y-102038110D01*
X163899000Y-101361890D01*
X163903085Y-101320409D01*
X163913393Y-101286431D01*
X163930134Y-101255110D01*
X163952661Y-101227661D01*
X163980110Y-101205134D01*
X164011431Y-101188393D01*
X164045409Y-101178085D01*
X164086890Y-101174000D01*
X164688110Y-101174000D01*
X164729591Y-101178085D01*
X164729591Y-101178085D01*
G37*
G36*
X163154591Y-101178085D02*
G01*
X163188569Y-101188393D01*
X163219890Y-101205134D01*
X163247339Y-101227661D01*
X163269866Y-101255110D01*
X163286607Y-101286431D01*
X163296915Y-101320409D01*
X163301000Y-101361890D01*
X163301000Y-102038110D01*
X163296915Y-102079591D01*
X163286607Y-102113569D01*
X163269866Y-102144890D01*
X163247339Y-102172339D01*
X163219890Y-102194866D01*
X163188569Y-102211607D01*
X163154591Y-102221915D01*
X163113110Y-102226000D01*
X162511890Y-102226000D01*
X162470409Y-102221915D01*
X162436431Y-102211607D01*
X162405110Y-102194866D01*
X162377661Y-102172339D01*
X162355134Y-102144890D01*
X162338393Y-102113569D01*
X162328085Y-102079591D01*
X162324000Y-102038110D01*
X162324000Y-101361890D01*
X162328085Y-101320409D01*
X162338393Y-101286431D01*
X162355134Y-101255110D01*
X162377661Y-101227661D01*
X162405110Y-101205134D01*
X162436431Y-101188393D01*
X162470409Y-101178085D01*
X162511890Y-101174000D01*
X163113110Y-101174000D01*
X163154591Y-101178085D01*
X163154591Y-101178085D01*
G37*
G36*
X179397000Y-102121000D02*
G01*
X176795000Y-102121000D01*
X176795000Y-100819000D01*
X179397000Y-100819000D01*
X179397000Y-102121000D01*
X179397000Y-102121000D01*
G37*
G36*
X108576564Y-99959389D02*
G01*
X108733662Y-100024461D01*
X108767835Y-100038616D01*
X108939973Y-100153635D01*
X109086365Y-100300027D01*
X109198675Y-100468110D01*
X109201385Y-100472167D01*
X109280611Y-100663436D01*
X109321000Y-100866484D01*
X109321000Y-101073516D01*
X109280611Y-101276564D01*
X109224557Y-101411890D01*
X109201384Y-101467835D01*
X109086365Y-101639973D01*
X108939973Y-101786365D01*
X108767835Y-101901384D01*
X108767834Y-101901385D01*
X108767833Y-101901385D01*
X108576564Y-101980611D01*
X108373516Y-102021000D01*
X108166484Y-102021000D01*
X107963436Y-101980611D01*
X107772167Y-101901385D01*
X107772166Y-101901385D01*
X107772165Y-101901384D01*
X107600027Y-101786365D01*
X107453635Y-101639973D01*
X107338616Y-101467835D01*
X107315443Y-101411890D01*
X107259389Y-101276564D01*
X107219000Y-101073516D01*
X107219000Y-100866484D01*
X107259389Y-100663436D01*
X107338615Y-100472167D01*
X107341326Y-100468110D01*
X107453635Y-100300027D01*
X107600027Y-100153635D01*
X107772165Y-100038616D01*
X107806338Y-100024461D01*
X107963436Y-99959389D01*
X108166484Y-99919000D01*
X108373516Y-99919000D01*
X108576564Y-99959389D01*
X108576564Y-99959389D01*
G37*
G36*
X169559591Y-99813085D02*
G01*
X169593569Y-99823393D01*
X169624890Y-99840134D01*
X169652339Y-99862661D01*
X169674866Y-99890110D01*
X169691607Y-99921431D01*
X169701915Y-99955409D01*
X169706000Y-99996890D01*
X169706000Y-100598110D01*
X169701915Y-100639591D01*
X169691607Y-100673569D01*
X169674866Y-100704890D01*
X169652339Y-100732339D01*
X169624890Y-100754866D01*
X169593569Y-100771607D01*
X169559591Y-100781915D01*
X169518110Y-100786000D01*
X168841890Y-100786000D01*
X168800409Y-100781915D01*
X168766431Y-100771607D01*
X168735110Y-100754866D01*
X168707661Y-100732339D01*
X168685134Y-100704890D01*
X168668393Y-100673569D01*
X168658085Y-100639591D01*
X168654000Y-100598110D01*
X168654000Y-99996890D01*
X168658085Y-99955409D01*
X168668393Y-99921431D01*
X168685134Y-99890110D01*
X168707661Y-99862661D01*
X168735110Y-99840134D01*
X168766431Y-99823393D01*
X168800409Y-99813085D01*
X168841890Y-99809000D01*
X169518110Y-99809000D01*
X169559591Y-99813085D01*
X169559591Y-99813085D01*
G37*
G36*
X167729591Y-99803085D02*
G01*
X167763569Y-99813393D01*
X167794890Y-99830134D01*
X167822339Y-99852661D01*
X167844866Y-99880110D01*
X167861607Y-99911431D01*
X167871915Y-99945409D01*
X167876000Y-99986890D01*
X167876000Y-100588110D01*
X167871915Y-100629591D01*
X167861607Y-100663569D01*
X167844866Y-100694890D01*
X167822339Y-100722339D01*
X167794890Y-100744866D01*
X167763569Y-100761607D01*
X167729591Y-100771915D01*
X167688110Y-100776000D01*
X167011890Y-100776000D01*
X166970409Y-100771915D01*
X166936431Y-100761607D01*
X166905110Y-100744866D01*
X166877661Y-100722339D01*
X166855134Y-100694890D01*
X166838393Y-100663569D01*
X166828085Y-100629591D01*
X166824000Y-100588110D01*
X166824000Y-99986890D01*
X166828085Y-99945409D01*
X166838393Y-99911431D01*
X166855134Y-99880110D01*
X166877661Y-99852661D01*
X166905110Y-99830134D01*
X166936431Y-99813393D01*
X166970409Y-99803085D01*
X167011890Y-99799000D01*
X167688110Y-99799000D01*
X167729591Y-99803085D01*
X167729591Y-99803085D01*
G37*
G36*
X186004468Y-99678565D02*
G01*
X186043138Y-99690296D01*
X186078777Y-99709346D01*
X186110017Y-99734983D01*
X186135654Y-99766223D01*
X186154704Y-99801862D01*
X186166435Y-99840532D01*
X186171000Y-99886888D01*
X186171000Y-100538112D01*
X186166435Y-100584468D01*
X186154704Y-100623138D01*
X186135654Y-100658777D01*
X186110017Y-100690017D01*
X186078777Y-100715654D01*
X186043138Y-100734704D01*
X186004468Y-100746435D01*
X185958112Y-100751000D01*
X184881888Y-100751000D01*
X184835532Y-100746435D01*
X184796862Y-100734704D01*
X184761223Y-100715654D01*
X184729983Y-100690017D01*
X184704346Y-100658777D01*
X184685296Y-100623138D01*
X184673565Y-100584468D01*
X184669000Y-100538112D01*
X184669000Y-99886888D01*
X184673565Y-99840532D01*
X184685296Y-99801862D01*
X184704346Y-99766223D01*
X184729983Y-99734983D01*
X184761223Y-99709346D01*
X184796862Y-99690296D01*
X184835532Y-99678565D01*
X184881888Y-99674000D01*
X185958112Y-99674000D01*
X186004468Y-99678565D01*
X186004468Y-99678565D01*
G37*
G36*
X162999591Y-99683085D02*
G01*
X163033569Y-99693393D01*
X163064890Y-99710134D01*
X163092339Y-99732661D01*
X163114866Y-99760110D01*
X163131607Y-99791431D01*
X163141915Y-99825409D01*
X163146000Y-99866890D01*
X163146000Y-100468110D01*
X163141915Y-100509591D01*
X163131607Y-100543569D01*
X163114866Y-100574890D01*
X163092339Y-100602339D01*
X163064890Y-100624866D01*
X163033569Y-100641607D01*
X162999591Y-100651915D01*
X162958110Y-100656000D01*
X162281890Y-100656000D01*
X162240409Y-100651915D01*
X162206431Y-100641607D01*
X162175110Y-100624866D01*
X162147661Y-100602339D01*
X162125134Y-100574890D01*
X162108393Y-100543569D01*
X162098085Y-100509591D01*
X162094000Y-100468110D01*
X162094000Y-99866890D01*
X162098085Y-99825409D01*
X162108393Y-99791431D01*
X162125134Y-99760110D01*
X162147661Y-99732661D01*
X162175110Y-99710134D01*
X162206431Y-99693393D01*
X162240409Y-99683085D01*
X162281890Y-99679000D01*
X162958110Y-99679000D01*
X162999591Y-99683085D01*
X162999591Y-99683085D01*
G37*
G36*
X164829591Y-99653085D02*
G01*
X164863569Y-99663393D01*
X164894890Y-99680134D01*
X164922339Y-99702661D01*
X164944866Y-99730110D01*
X164961607Y-99761431D01*
X164971915Y-99795409D01*
X164976000Y-99836890D01*
X164976000Y-100438110D01*
X164971915Y-100479591D01*
X164961607Y-100513569D01*
X164944866Y-100544890D01*
X164922339Y-100572339D01*
X164894890Y-100594866D01*
X164863569Y-100611607D01*
X164829591Y-100621915D01*
X164788110Y-100626000D01*
X164111890Y-100626000D01*
X164070409Y-100621915D01*
X164036431Y-100611607D01*
X164005110Y-100594866D01*
X163977661Y-100572339D01*
X163955134Y-100544890D01*
X163938393Y-100513569D01*
X163928085Y-100479591D01*
X163924000Y-100438110D01*
X163924000Y-99836890D01*
X163928085Y-99795409D01*
X163938393Y-99761431D01*
X163955134Y-99730110D01*
X163977661Y-99702661D01*
X164005110Y-99680134D01*
X164036431Y-99663393D01*
X164070409Y-99653085D01*
X164111890Y-99649000D01*
X164788110Y-99649000D01*
X164829591Y-99653085D01*
X164829591Y-99653085D01*
G37*
G36*
X129179591Y-99353085D02*
G01*
X129213569Y-99363393D01*
X129244890Y-99380134D01*
X129272339Y-99402661D01*
X129294866Y-99430110D01*
X129311607Y-99461431D01*
X129321915Y-99495409D01*
X129326000Y-99536890D01*
X129326000Y-100138110D01*
X129321915Y-100179591D01*
X129311607Y-100213569D01*
X129294866Y-100244890D01*
X129272339Y-100272339D01*
X129244890Y-100294866D01*
X129213569Y-100311607D01*
X129179591Y-100321915D01*
X129138110Y-100326000D01*
X128461890Y-100326000D01*
X128420409Y-100321915D01*
X128386431Y-100311607D01*
X128355110Y-100294866D01*
X128327661Y-100272339D01*
X128305134Y-100244890D01*
X128288393Y-100213569D01*
X128278085Y-100179591D01*
X128274000Y-100138110D01*
X128274000Y-99536890D01*
X128278085Y-99495409D01*
X128288393Y-99461431D01*
X128305134Y-99430110D01*
X128327661Y-99402661D01*
X128355110Y-99380134D01*
X128386431Y-99363393D01*
X128420409Y-99353085D01*
X128461890Y-99349000D01*
X129138110Y-99349000D01*
X129179591Y-99353085D01*
X129179591Y-99353085D01*
G37*
G36*
X179255591Y-99048085D02*
G01*
X179289569Y-99058393D01*
X179320890Y-99075134D01*
X179348339Y-99097661D01*
X179370866Y-99125110D01*
X179387607Y-99156431D01*
X179397915Y-99190409D01*
X179402000Y-99231890D01*
X179402000Y-99908110D01*
X179397915Y-99949591D01*
X179387607Y-99983569D01*
X179370866Y-100014890D01*
X179348339Y-100042339D01*
X179320890Y-100064866D01*
X179289569Y-100081607D01*
X179255591Y-100091915D01*
X179214110Y-100096000D01*
X178612890Y-100096000D01*
X178571409Y-100091915D01*
X178537431Y-100081607D01*
X178506110Y-100064866D01*
X178478661Y-100042339D01*
X178456134Y-100014890D01*
X178439393Y-99983569D01*
X178429085Y-99949591D01*
X178425000Y-99908110D01*
X178425000Y-99231890D01*
X178429085Y-99190409D01*
X178439393Y-99156431D01*
X178456134Y-99125110D01*
X178478661Y-99097661D01*
X178506110Y-99075134D01*
X178537431Y-99058393D01*
X178571409Y-99048085D01*
X178612890Y-99044000D01*
X179214110Y-99044000D01*
X179255591Y-99048085D01*
X179255591Y-99048085D01*
G37*
G36*
X177680591Y-99048085D02*
G01*
X177714569Y-99058393D01*
X177745890Y-99075134D01*
X177773339Y-99097661D01*
X177795866Y-99125110D01*
X177812607Y-99156431D01*
X177822915Y-99190409D01*
X177827000Y-99231890D01*
X177827000Y-99908110D01*
X177822915Y-99949591D01*
X177812607Y-99983569D01*
X177795866Y-100014890D01*
X177773339Y-100042339D01*
X177745890Y-100064866D01*
X177714569Y-100081607D01*
X177680591Y-100091915D01*
X177639110Y-100096000D01*
X177037890Y-100096000D01*
X176996409Y-100091915D01*
X176962431Y-100081607D01*
X176931110Y-100064866D01*
X176903661Y-100042339D01*
X176881134Y-100014890D01*
X176864393Y-99983569D01*
X176854085Y-99949591D01*
X176850000Y-99908110D01*
X176850000Y-99231890D01*
X176854085Y-99190409D01*
X176864393Y-99156431D01*
X176881134Y-99125110D01*
X176903661Y-99097661D01*
X176931110Y-99075134D01*
X176962431Y-99058393D01*
X176996409Y-99048085D01*
X177037890Y-99044000D01*
X177639110Y-99044000D01*
X177680591Y-99048085D01*
X177680591Y-99048085D01*
G37*
G36*
X145090442Y-97915518D02*
G01*
X145156627Y-97922037D01*
X145326466Y-97973557D01*
X145482991Y-98057222D01*
X145503435Y-98074000D01*
X145620186Y-98169814D01*
X145702897Y-98270599D01*
X145732778Y-98307009D01*
X145751776Y-98342552D01*
X145801104Y-98434836D01*
X145816443Y-98463534D01*
X145867963Y-98633373D01*
X145885359Y-98810000D01*
X145867963Y-98986627D01*
X145816443Y-99156466D01*
X145816442Y-99156468D01*
X145803935Y-99179866D01*
X145732778Y-99312991D01*
X145703448Y-99348729D01*
X145620186Y-99450186D01*
X145518729Y-99533448D01*
X145482991Y-99562778D01*
X145326466Y-99646443D01*
X145156627Y-99697963D01*
X145090442Y-99704482D01*
X145024260Y-99711000D01*
X144935740Y-99711000D01*
X144869558Y-99704482D01*
X144803373Y-99697963D01*
X144633534Y-99646443D01*
X144477009Y-99562778D01*
X144441271Y-99533448D01*
X144339814Y-99450186D01*
X144256552Y-99348729D01*
X144227222Y-99312991D01*
X144156065Y-99179866D01*
X144143558Y-99156468D01*
X144143557Y-99156466D01*
X144092037Y-98986627D01*
X144074641Y-98810000D01*
X144092037Y-98633373D01*
X144143557Y-98463534D01*
X144158897Y-98434836D01*
X144208224Y-98342552D01*
X144227222Y-98307009D01*
X144257103Y-98270599D01*
X144339814Y-98169814D01*
X144456565Y-98074000D01*
X144477009Y-98057222D01*
X144633534Y-97973557D01*
X144803373Y-97922037D01*
X144869558Y-97915518D01*
X144935740Y-97909000D01*
X145024260Y-97909000D01*
X145090442Y-97915518D01*
X145090442Y-97915518D01*
G37*
G36*
X143341000Y-99711000D02*
G01*
X141539000Y-99711000D01*
X141539000Y-97909000D01*
X143341000Y-97909000D01*
X143341000Y-99711000D01*
X143341000Y-99711000D01*
G37*
G36*
X169559591Y-98238085D02*
G01*
X169593569Y-98248393D01*
X169624890Y-98265134D01*
X169652339Y-98287661D01*
X169674866Y-98315110D01*
X169691607Y-98346431D01*
X169701915Y-98380409D01*
X169706000Y-98421890D01*
X169706000Y-99023110D01*
X169701915Y-99064591D01*
X169691607Y-99098569D01*
X169674866Y-99129890D01*
X169652339Y-99157339D01*
X169624890Y-99179866D01*
X169593569Y-99196607D01*
X169559591Y-99206915D01*
X169518110Y-99211000D01*
X168841890Y-99211000D01*
X168800409Y-99206915D01*
X168766431Y-99196607D01*
X168735110Y-99179866D01*
X168707661Y-99157339D01*
X168685134Y-99129890D01*
X168668393Y-99098569D01*
X168658085Y-99064591D01*
X168654000Y-99023110D01*
X168654000Y-98421890D01*
X168658085Y-98380409D01*
X168668393Y-98346431D01*
X168685134Y-98315110D01*
X168707661Y-98287661D01*
X168735110Y-98265134D01*
X168766431Y-98248393D01*
X168800409Y-98238085D01*
X168841890Y-98234000D01*
X169518110Y-98234000D01*
X169559591Y-98238085D01*
X169559591Y-98238085D01*
G37*
G36*
X167729591Y-98228085D02*
G01*
X167763569Y-98238393D01*
X167794890Y-98255134D01*
X167822339Y-98277661D01*
X167844866Y-98305110D01*
X167861607Y-98336431D01*
X167871915Y-98370409D01*
X167876000Y-98411890D01*
X167876000Y-99013110D01*
X167871915Y-99054591D01*
X167861607Y-99088569D01*
X167844866Y-99119890D01*
X167822339Y-99147339D01*
X167794890Y-99169866D01*
X167763569Y-99186607D01*
X167729591Y-99196915D01*
X167688110Y-99201000D01*
X167011890Y-99201000D01*
X166970409Y-99196915D01*
X166936431Y-99186607D01*
X166905110Y-99169866D01*
X166877661Y-99147339D01*
X166855134Y-99119890D01*
X166838393Y-99088569D01*
X166828085Y-99054591D01*
X166824000Y-99013110D01*
X166824000Y-98411890D01*
X166828085Y-98370409D01*
X166838393Y-98336431D01*
X166855134Y-98305110D01*
X166877661Y-98277661D01*
X166905110Y-98255134D01*
X166936431Y-98238393D01*
X166970409Y-98228085D01*
X167011890Y-98224000D01*
X167688110Y-98224000D01*
X167729591Y-98228085D01*
X167729591Y-98228085D01*
G37*
G36*
X162999591Y-98108085D02*
G01*
X163033569Y-98118393D01*
X163064890Y-98135134D01*
X163092339Y-98157661D01*
X163114866Y-98185110D01*
X163131607Y-98216431D01*
X163141915Y-98250409D01*
X163146000Y-98291890D01*
X163146000Y-98893110D01*
X163141915Y-98934591D01*
X163131607Y-98968569D01*
X163114866Y-98999890D01*
X163092339Y-99027339D01*
X163064890Y-99049866D01*
X163033569Y-99066607D01*
X162999591Y-99076915D01*
X162958110Y-99081000D01*
X162281890Y-99081000D01*
X162240409Y-99076915D01*
X162206431Y-99066607D01*
X162175110Y-99049866D01*
X162147661Y-99027339D01*
X162125134Y-98999890D01*
X162108393Y-98968569D01*
X162098085Y-98934591D01*
X162094000Y-98893110D01*
X162094000Y-98291890D01*
X162098085Y-98250409D01*
X162108393Y-98216431D01*
X162125134Y-98185110D01*
X162147661Y-98157661D01*
X162175110Y-98135134D01*
X162206431Y-98118393D01*
X162240409Y-98108085D01*
X162281890Y-98104000D01*
X162958110Y-98104000D01*
X162999591Y-98108085D01*
X162999591Y-98108085D01*
G37*
G36*
X164829591Y-98078085D02*
G01*
X164863569Y-98088393D01*
X164894890Y-98105134D01*
X164922339Y-98127661D01*
X164944866Y-98155110D01*
X164961607Y-98186431D01*
X164971915Y-98220409D01*
X164976000Y-98261890D01*
X164976000Y-98863110D01*
X164971915Y-98904591D01*
X164961607Y-98938569D01*
X164944866Y-98969890D01*
X164922339Y-98997339D01*
X164894890Y-99019866D01*
X164863569Y-99036607D01*
X164829591Y-99046915D01*
X164788110Y-99051000D01*
X164111890Y-99051000D01*
X164070409Y-99046915D01*
X164036431Y-99036607D01*
X164005110Y-99019866D01*
X163977661Y-98997339D01*
X163955134Y-98969890D01*
X163938393Y-98938569D01*
X163928085Y-98904591D01*
X163924000Y-98863110D01*
X163924000Y-98261890D01*
X163928085Y-98220409D01*
X163938393Y-98186431D01*
X163955134Y-98155110D01*
X163977661Y-98127661D01*
X164005110Y-98105134D01*
X164036431Y-98088393D01*
X164070409Y-98078085D01*
X164111890Y-98074000D01*
X164788110Y-98074000D01*
X164829591Y-98078085D01*
X164829591Y-98078085D01*
G37*
G36*
X129179591Y-97778085D02*
G01*
X129213569Y-97788393D01*
X129244890Y-97805134D01*
X129272339Y-97827661D01*
X129294866Y-97855110D01*
X129311607Y-97886431D01*
X129321915Y-97920409D01*
X129326000Y-97961890D01*
X129326000Y-98563110D01*
X129321915Y-98604591D01*
X129311607Y-98638569D01*
X129294866Y-98669890D01*
X129272339Y-98697339D01*
X129244890Y-98719866D01*
X129213569Y-98736607D01*
X129179591Y-98746915D01*
X129138110Y-98751000D01*
X128461890Y-98751000D01*
X128420409Y-98746915D01*
X128386431Y-98736607D01*
X128355110Y-98719866D01*
X128327661Y-98697339D01*
X128305134Y-98669890D01*
X128288393Y-98638569D01*
X128278085Y-98604591D01*
X128274000Y-98563110D01*
X128274000Y-97961890D01*
X128278085Y-97920409D01*
X128288393Y-97886431D01*
X128305134Y-97855110D01*
X128327661Y-97827661D01*
X128355110Y-97805134D01*
X128386431Y-97788393D01*
X128420409Y-97778085D01*
X128461890Y-97774000D01*
X129138110Y-97774000D01*
X129179591Y-97778085D01*
X129179591Y-97778085D01*
G37*
G36*
X177695591Y-97503085D02*
G01*
X177729569Y-97513393D01*
X177760890Y-97530134D01*
X177788339Y-97552661D01*
X177810866Y-97580110D01*
X177827607Y-97611431D01*
X177837915Y-97645409D01*
X177842000Y-97686890D01*
X177842000Y-98288110D01*
X177837915Y-98329591D01*
X177827607Y-98363569D01*
X177810866Y-98394890D01*
X177788339Y-98422339D01*
X177760890Y-98444866D01*
X177729569Y-98461607D01*
X177695591Y-98471915D01*
X177654110Y-98476000D01*
X176977890Y-98476000D01*
X176936409Y-98471915D01*
X176902431Y-98461607D01*
X176871110Y-98444866D01*
X176843661Y-98422339D01*
X176821134Y-98394890D01*
X176804393Y-98363569D01*
X176794085Y-98329591D01*
X176790000Y-98288110D01*
X176790000Y-97686890D01*
X176794085Y-97645409D01*
X176804393Y-97611431D01*
X176821134Y-97580110D01*
X176843661Y-97552661D01*
X176871110Y-97530134D01*
X176902431Y-97513393D01*
X176936409Y-97503085D01*
X176977890Y-97499000D01*
X177654110Y-97499000D01*
X177695591Y-97503085D01*
X177695591Y-97503085D01*
G37*
G36*
X179335591Y-97503085D02*
G01*
X179369569Y-97513393D01*
X179400890Y-97530134D01*
X179428339Y-97552661D01*
X179450866Y-97580110D01*
X179467607Y-97611431D01*
X179477915Y-97645409D01*
X179482000Y-97686890D01*
X179482000Y-98288110D01*
X179477915Y-98329591D01*
X179467607Y-98363569D01*
X179450866Y-98394890D01*
X179428339Y-98422339D01*
X179400890Y-98444866D01*
X179369569Y-98461607D01*
X179335591Y-98471915D01*
X179294110Y-98476000D01*
X178617890Y-98476000D01*
X178576409Y-98471915D01*
X178542431Y-98461607D01*
X178511110Y-98444866D01*
X178483661Y-98422339D01*
X178461134Y-98394890D01*
X178444393Y-98363569D01*
X178434085Y-98329591D01*
X178430000Y-98288110D01*
X178430000Y-97686890D01*
X178434085Y-97645409D01*
X178444393Y-97611431D01*
X178461134Y-97580110D01*
X178483661Y-97552661D01*
X178511110Y-97530134D01*
X178542431Y-97513393D01*
X178576409Y-97503085D01*
X178617890Y-97499000D01*
X179294110Y-97499000D01*
X179335591Y-97503085D01*
X179335591Y-97503085D01*
G37*
G36*
X143341000Y-96971000D02*
G01*
X141539000Y-96971000D01*
X141539000Y-95169000D01*
X143341000Y-95169000D01*
X143341000Y-96971000D01*
X143341000Y-96971000D01*
G37*
G36*
X145090443Y-95175519D02*
G01*
X145156627Y-95182037D01*
X145326466Y-95233557D01*
X145482991Y-95317222D01*
X145518729Y-95346552D01*
X145620186Y-95429814D01*
X145703448Y-95531271D01*
X145732778Y-95567009D01*
X145816443Y-95723534D01*
X145867963Y-95893373D01*
X145885359Y-96070000D01*
X145867963Y-96246627D01*
X145816443Y-96416466D01*
X145732778Y-96572991D01*
X145703448Y-96608729D01*
X145620186Y-96710186D01*
X145519948Y-96792448D01*
X145482991Y-96822778D01*
X145482989Y-96822779D01*
X145344292Y-96896915D01*
X145326466Y-96906443D01*
X145156627Y-96957963D01*
X145090443Y-96964481D01*
X145024260Y-96971000D01*
X144935740Y-96971000D01*
X144869557Y-96964481D01*
X144803373Y-96957963D01*
X144633534Y-96906443D01*
X144615709Y-96896915D01*
X144477011Y-96822779D01*
X144477009Y-96822778D01*
X144440052Y-96792448D01*
X144339814Y-96710186D01*
X144256552Y-96608729D01*
X144227222Y-96572991D01*
X144143557Y-96416466D01*
X144092037Y-96246627D01*
X144074641Y-96070000D01*
X144092037Y-95893373D01*
X144143557Y-95723534D01*
X144227222Y-95567009D01*
X144256552Y-95531271D01*
X144339814Y-95429814D01*
X144441271Y-95346552D01*
X144477009Y-95317222D01*
X144633534Y-95233557D01*
X144803373Y-95182037D01*
X144869557Y-95175519D01*
X144935740Y-95169000D01*
X145024260Y-95169000D01*
X145090443Y-95175519D01*
X145090443Y-95175519D01*
G37*
G36*
X179335591Y-95928085D02*
G01*
X179369569Y-95938393D01*
X179400890Y-95955134D01*
X179428339Y-95977661D01*
X179450866Y-96005110D01*
X179467607Y-96036431D01*
X179477915Y-96070409D01*
X179482000Y-96111890D01*
X179482000Y-96713110D01*
X179477915Y-96754591D01*
X179467607Y-96788569D01*
X179450866Y-96819890D01*
X179428339Y-96847339D01*
X179400890Y-96869866D01*
X179369569Y-96886607D01*
X179335591Y-96896915D01*
X179294110Y-96901000D01*
X178617890Y-96901000D01*
X178576409Y-96896915D01*
X178542431Y-96886607D01*
X178511110Y-96869866D01*
X178483661Y-96847339D01*
X178461134Y-96819890D01*
X178444393Y-96788569D01*
X178434085Y-96754591D01*
X178430000Y-96713110D01*
X178430000Y-96111890D01*
X178434085Y-96070409D01*
X178444393Y-96036431D01*
X178461134Y-96005110D01*
X178483661Y-95977661D01*
X178511110Y-95955134D01*
X178542431Y-95938393D01*
X178576409Y-95928085D01*
X178617890Y-95924000D01*
X179294110Y-95924000D01*
X179335591Y-95928085D01*
X179335591Y-95928085D01*
G37*
G36*
X177695591Y-95928085D02*
G01*
X177729569Y-95938393D01*
X177760890Y-95955134D01*
X177788339Y-95977661D01*
X177810866Y-96005110D01*
X177827607Y-96036431D01*
X177837915Y-96070409D01*
X177842000Y-96111890D01*
X177842000Y-96713110D01*
X177837915Y-96754591D01*
X177827607Y-96788569D01*
X177810866Y-96819890D01*
X177788339Y-96847339D01*
X177760890Y-96869866D01*
X177729569Y-96886607D01*
X177695591Y-96896915D01*
X177654110Y-96901000D01*
X176977890Y-96901000D01*
X176936409Y-96896915D01*
X176902431Y-96886607D01*
X176871110Y-96869866D01*
X176843661Y-96847339D01*
X176821134Y-96819890D01*
X176804393Y-96788569D01*
X176794085Y-96754591D01*
X176790000Y-96713110D01*
X176790000Y-96111890D01*
X176794085Y-96070409D01*
X176804393Y-96036431D01*
X176821134Y-96005110D01*
X176843661Y-95977661D01*
X176871110Y-95955134D01*
X176902431Y-95938393D01*
X176936409Y-95928085D01*
X176977890Y-95924000D01*
X177654110Y-95924000D01*
X177695591Y-95928085D01*
X177695591Y-95928085D01*
G37*
G36*
X162901000Y-94751000D02*
G01*
X162199000Y-94751000D01*
X162199000Y-93449000D01*
X162901000Y-93449000D01*
X162901000Y-94751000D01*
X162901000Y-94751000D01*
G37*
G36*
X164801000Y-94751000D02*
G01*
X164099000Y-94751000D01*
X164099000Y-93449000D01*
X164801000Y-93449000D01*
X164801000Y-94751000D01*
X164801000Y-94751000D01*
G37*
G36*
X154539591Y-93443085D02*
G01*
X154573569Y-93453393D01*
X154604890Y-93470134D01*
X154632339Y-93492661D01*
X154654866Y-93520110D01*
X154671607Y-93551431D01*
X154681915Y-93585409D01*
X154686000Y-93626890D01*
X154686000Y-94228110D01*
X154681915Y-94269591D01*
X154671607Y-94303569D01*
X154654866Y-94334890D01*
X154632339Y-94362339D01*
X154604890Y-94384866D01*
X154573569Y-94401607D01*
X154539591Y-94411915D01*
X154498110Y-94416000D01*
X153821890Y-94416000D01*
X153780409Y-94411915D01*
X153746431Y-94401607D01*
X153715110Y-94384866D01*
X153687661Y-94362339D01*
X153665134Y-94334890D01*
X153648393Y-94303569D01*
X153638085Y-94269591D01*
X153634000Y-94228110D01*
X153634000Y-93626890D01*
X153638085Y-93585409D01*
X153648393Y-93551431D01*
X153665134Y-93520110D01*
X153687661Y-93492661D01*
X153715110Y-93470134D01*
X153746431Y-93453393D01*
X153780409Y-93443085D01*
X153821890Y-93439000D01*
X154498110Y-93439000D01*
X154539591Y-93443085D01*
X154539591Y-93443085D01*
G37*
G36*
X152849591Y-93433085D02*
G01*
X152883569Y-93443393D01*
X152914890Y-93460134D01*
X152942339Y-93482661D01*
X152964866Y-93510110D01*
X152981607Y-93541431D01*
X152991915Y-93575409D01*
X152996000Y-93616890D01*
X152996000Y-94218110D01*
X152991915Y-94259591D01*
X152981607Y-94293569D01*
X152964866Y-94324890D01*
X152942339Y-94352339D01*
X152914890Y-94374866D01*
X152883569Y-94391607D01*
X152849591Y-94401915D01*
X152808110Y-94406000D01*
X152131890Y-94406000D01*
X152090409Y-94401915D01*
X152056431Y-94391607D01*
X152025110Y-94374866D01*
X151997661Y-94352339D01*
X151975134Y-94324890D01*
X151958393Y-94293569D01*
X151948085Y-94259591D01*
X151944000Y-94218110D01*
X151944000Y-93616890D01*
X151948085Y-93575409D01*
X151958393Y-93541431D01*
X151975134Y-93510110D01*
X151997661Y-93482661D01*
X152025110Y-93460134D01*
X152056431Y-93443393D01*
X152090409Y-93433085D01*
X152131890Y-93429000D01*
X152808110Y-93429000D01*
X152849591Y-93433085D01*
X152849591Y-93433085D01*
G37*
G36*
X168279591Y-93303085D02*
G01*
X168313569Y-93313393D01*
X168344890Y-93330134D01*
X168372339Y-93352661D01*
X168394866Y-93380110D01*
X168411607Y-93411431D01*
X168421915Y-93445409D01*
X168426000Y-93486890D01*
X168426000Y-94088110D01*
X168421915Y-94129591D01*
X168411607Y-94163569D01*
X168394866Y-94194890D01*
X168372339Y-94222339D01*
X168344890Y-94244866D01*
X168313569Y-94261607D01*
X168279591Y-94271915D01*
X168238110Y-94276000D01*
X167561890Y-94276000D01*
X167520409Y-94271915D01*
X167486431Y-94261607D01*
X167455110Y-94244866D01*
X167427661Y-94222339D01*
X167405134Y-94194890D01*
X167388393Y-94163569D01*
X167378085Y-94129591D01*
X167374000Y-94088110D01*
X167374000Y-93486890D01*
X167378085Y-93445409D01*
X167388393Y-93411431D01*
X167405134Y-93380110D01*
X167427661Y-93352661D01*
X167455110Y-93330134D01*
X167486431Y-93313393D01*
X167520409Y-93303085D01*
X167561890Y-93299000D01*
X168238110Y-93299000D01*
X168279591Y-93303085D01*
X168279591Y-93303085D01*
G37*
G36*
X166429591Y-93303085D02*
G01*
X166463569Y-93313393D01*
X166494890Y-93330134D01*
X166522339Y-93352661D01*
X166544866Y-93380110D01*
X166561607Y-93411431D01*
X166571915Y-93445409D01*
X166576000Y-93486890D01*
X166576000Y-94088110D01*
X166571915Y-94129591D01*
X166561607Y-94163569D01*
X166544866Y-94194890D01*
X166522339Y-94222339D01*
X166494890Y-94244866D01*
X166463569Y-94261607D01*
X166429591Y-94271915D01*
X166388110Y-94276000D01*
X165711890Y-94276000D01*
X165670409Y-94271915D01*
X165636431Y-94261607D01*
X165605110Y-94244866D01*
X165577661Y-94222339D01*
X165555134Y-94194890D01*
X165538393Y-94163569D01*
X165528085Y-94129591D01*
X165524000Y-94088110D01*
X165524000Y-93486890D01*
X165528085Y-93445409D01*
X165538393Y-93411431D01*
X165555134Y-93380110D01*
X165577661Y-93352661D01*
X165605110Y-93330134D01*
X165636431Y-93313393D01*
X165670409Y-93303085D01*
X165711890Y-93299000D01*
X166388110Y-93299000D01*
X166429591Y-93303085D01*
X166429591Y-93303085D01*
G37*
G36*
X154539591Y-91868085D02*
G01*
X154573569Y-91878393D01*
X154604890Y-91895134D01*
X154632339Y-91917661D01*
X154654866Y-91945110D01*
X154671607Y-91976431D01*
X154681915Y-92010409D01*
X154686000Y-92051890D01*
X154686000Y-92653110D01*
X154681915Y-92694591D01*
X154671607Y-92728569D01*
X154654866Y-92759890D01*
X154632339Y-92787339D01*
X154604890Y-92809866D01*
X154573569Y-92826607D01*
X154539591Y-92836915D01*
X154498110Y-92841000D01*
X153821890Y-92841000D01*
X153780409Y-92836915D01*
X153746431Y-92826607D01*
X153715110Y-92809866D01*
X153687661Y-92787339D01*
X153665134Y-92759890D01*
X153648393Y-92728569D01*
X153638085Y-92694591D01*
X153634000Y-92653110D01*
X153634000Y-92051890D01*
X153638085Y-92010409D01*
X153648393Y-91976431D01*
X153665134Y-91945110D01*
X153687661Y-91917661D01*
X153715110Y-91895134D01*
X153746431Y-91878393D01*
X153780409Y-91868085D01*
X153821890Y-91864000D01*
X154498110Y-91864000D01*
X154539591Y-91868085D01*
X154539591Y-91868085D01*
G37*
G36*
X152849591Y-91858085D02*
G01*
X152883569Y-91868393D01*
X152914890Y-91885134D01*
X152942339Y-91907661D01*
X152964866Y-91935110D01*
X152981607Y-91966431D01*
X152991915Y-92000409D01*
X152996000Y-92041890D01*
X152996000Y-92643110D01*
X152991915Y-92684591D01*
X152981607Y-92718569D01*
X152964866Y-92749890D01*
X152942339Y-92777339D01*
X152914890Y-92799866D01*
X152883569Y-92816607D01*
X152849591Y-92826915D01*
X152808110Y-92831000D01*
X152131890Y-92831000D01*
X152090409Y-92826915D01*
X152056431Y-92816607D01*
X152025110Y-92799866D01*
X151997661Y-92777339D01*
X151975134Y-92749890D01*
X151958393Y-92718569D01*
X151948085Y-92684591D01*
X151944000Y-92643110D01*
X151944000Y-92041890D01*
X151948085Y-92000409D01*
X151958393Y-91966431D01*
X151975134Y-91935110D01*
X151997661Y-91907661D01*
X152025110Y-91885134D01*
X152056431Y-91868393D01*
X152090409Y-91858085D01*
X152131890Y-91854000D01*
X152808110Y-91854000D01*
X152849591Y-91858085D01*
X152849591Y-91858085D01*
G37*
G36*
X168279591Y-91728085D02*
G01*
X168313569Y-91738393D01*
X168344890Y-91755134D01*
X168372339Y-91777661D01*
X168394866Y-91805110D01*
X168411607Y-91836431D01*
X168421915Y-91870409D01*
X168426000Y-91911890D01*
X168426000Y-92513110D01*
X168421915Y-92554591D01*
X168411607Y-92588569D01*
X168394866Y-92619890D01*
X168372339Y-92647339D01*
X168344890Y-92669866D01*
X168313569Y-92686607D01*
X168279591Y-92696915D01*
X168238110Y-92701000D01*
X167561890Y-92701000D01*
X167520409Y-92696915D01*
X167486431Y-92686607D01*
X167455110Y-92669866D01*
X167427661Y-92647339D01*
X167405134Y-92619890D01*
X167388393Y-92588569D01*
X167378085Y-92554591D01*
X167374000Y-92513110D01*
X167374000Y-91911890D01*
X167378085Y-91870409D01*
X167388393Y-91836431D01*
X167405134Y-91805110D01*
X167427661Y-91777661D01*
X167455110Y-91755134D01*
X167486431Y-91738393D01*
X167520409Y-91728085D01*
X167561890Y-91724000D01*
X168238110Y-91724000D01*
X168279591Y-91728085D01*
X168279591Y-91728085D01*
G37*
G36*
X166429591Y-91728085D02*
G01*
X166463569Y-91738393D01*
X166494890Y-91755134D01*
X166522339Y-91777661D01*
X166544866Y-91805110D01*
X166561607Y-91836431D01*
X166571915Y-91870409D01*
X166576000Y-91911890D01*
X166576000Y-92513110D01*
X166571915Y-92554591D01*
X166561607Y-92588569D01*
X166544866Y-92619890D01*
X166522339Y-92647339D01*
X166494890Y-92669866D01*
X166463569Y-92686607D01*
X166429591Y-92696915D01*
X166388110Y-92701000D01*
X165711890Y-92701000D01*
X165670409Y-92696915D01*
X165636431Y-92686607D01*
X165605110Y-92669866D01*
X165577661Y-92647339D01*
X165555134Y-92619890D01*
X165538393Y-92588569D01*
X165528085Y-92554591D01*
X165524000Y-92513110D01*
X165524000Y-91911890D01*
X165528085Y-91870409D01*
X165538393Y-91836431D01*
X165555134Y-91805110D01*
X165577661Y-91777661D01*
X165605110Y-91755134D01*
X165636431Y-91738393D01*
X165670409Y-91728085D01*
X165711890Y-91724000D01*
X166388110Y-91724000D01*
X166429591Y-91728085D01*
X166429591Y-91728085D01*
G37*
G36*
X164801000Y-92251000D02*
G01*
X162199000Y-92251000D01*
X162199000Y-90949000D01*
X164801000Y-90949000D01*
X164801000Y-92251000D01*
X164801000Y-92251000D01*
G37*
G36*
X145040442Y-90395518D02*
G01*
X145106627Y-90402037D01*
X145276466Y-90453557D01*
X145432991Y-90537222D01*
X145468729Y-90566552D01*
X145570186Y-90649814D01*
X145653448Y-90751271D01*
X145682778Y-90787009D01*
X145766443Y-90943534D01*
X145817963Y-91113373D01*
X145835359Y-91290000D01*
X145817963Y-91466627D01*
X145766443Y-91636466D01*
X145682778Y-91792991D01*
X145672832Y-91805110D01*
X145570186Y-91930186D01*
X145468729Y-92013448D01*
X145432991Y-92042778D01*
X145354729Y-92084610D01*
X145310503Y-92108250D01*
X145276466Y-92126443D01*
X145106627Y-92177963D01*
X145040442Y-92184482D01*
X144974260Y-92191000D01*
X144885740Y-92191000D01*
X144819557Y-92184481D01*
X144753373Y-92177963D01*
X144583534Y-92126443D01*
X144549498Y-92108250D01*
X144505271Y-92084610D01*
X144427009Y-92042778D01*
X144391271Y-92013448D01*
X144289814Y-91930186D01*
X144187168Y-91805110D01*
X144177222Y-91792991D01*
X144093557Y-91636466D01*
X144042037Y-91466627D01*
X144024641Y-91290000D01*
X144042037Y-91113373D01*
X144093557Y-90943534D01*
X144177222Y-90787009D01*
X144206552Y-90751271D01*
X144289814Y-90649814D01*
X144391271Y-90566552D01*
X144427009Y-90537222D01*
X144583534Y-90453557D01*
X144753373Y-90402037D01*
X144819558Y-90395518D01*
X144885740Y-90389000D01*
X144974260Y-90389000D01*
X145040442Y-90395518D01*
X145040442Y-90395518D01*
G37*
G36*
X143291000Y-92191000D02*
G01*
X141489000Y-92191000D01*
X141489000Y-90389000D01*
X143291000Y-90389000D01*
X143291000Y-92191000D01*
X143291000Y-92191000D01*
G37*
G36*
X164499591Y-88518085D02*
G01*
X164533569Y-88528393D01*
X164564890Y-88545134D01*
X164592339Y-88567661D01*
X164614866Y-88595110D01*
X164631607Y-88626431D01*
X164641915Y-88660409D01*
X164646000Y-88701890D01*
X164646000Y-89378110D01*
X164641915Y-89419591D01*
X164631607Y-89453569D01*
X164614866Y-89484890D01*
X164592339Y-89512339D01*
X164564890Y-89534866D01*
X164533569Y-89551607D01*
X164499591Y-89561915D01*
X164458110Y-89566000D01*
X163856890Y-89566000D01*
X163815409Y-89561915D01*
X163781431Y-89551607D01*
X163750110Y-89534866D01*
X163722661Y-89512339D01*
X163700134Y-89484890D01*
X163683393Y-89453569D01*
X163673085Y-89419591D01*
X163669000Y-89378110D01*
X163669000Y-88701890D01*
X163673085Y-88660409D01*
X163683393Y-88626431D01*
X163700134Y-88595110D01*
X163722661Y-88567661D01*
X163750110Y-88545134D01*
X163781431Y-88528393D01*
X163815409Y-88518085D01*
X163856890Y-88514000D01*
X164458110Y-88514000D01*
X164499591Y-88518085D01*
X164499591Y-88518085D01*
G37*
G36*
X162924591Y-88518085D02*
G01*
X162958569Y-88528393D01*
X162989890Y-88545134D01*
X163017339Y-88567661D01*
X163039866Y-88595110D01*
X163056607Y-88626431D01*
X163066915Y-88660409D01*
X163071000Y-88701890D01*
X163071000Y-89378110D01*
X163066915Y-89419591D01*
X163056607Y-89453569D01*
X163039866Y-89484890D01*
X163017339Y-89512339D01*
X162989890Y-89534866D01*
X162958569Y-89551607D01*
X162924591Y-89561915D01*
X162883110Y-89566000D01*
X162281890Y-89566000D01*
X162240409Y-89561915D01*
X162206431Y-89551607D01*
X162175110Y-89534866D01*
X162147661Y-89512339D01*
X162125134Y-89484890D01*
X162108393Y-89453569D01*
X162098085Y-89419591D01*
X162094000Y-89378110D01*
X162094000Y-88701890D01*
X162098085Y-88660409D01*
X162108393Y-88626431D01*
X162125134Y-88595110D01*
X162147661Y-88567661D01*
X162175110Y-88545134D01*
X162206431Y-88528393D01*
X162240409Y-88518085D01*
X162281890Y-88514000D01*
X162883110Y-88514000D01*
X162924591Y-88518085D01*
X162924591Y-88518085D01*
G37*
G36*
X145040442Y-87655518D02*
G01*
X145106627Y-87662037D01*
X145276466Y-87713557D01*
X145432991Y-87797222D01*
X145468729Y-87826552D01*
X145570186Y-87909814D01*
X145653448Y-88011271D01*
X145682778Y-88047009D01*
X145682779Y-88047011D01*
X145759536Y-88190611D01*
X145766443Y-88203534D01*
X145817963Y-88373373D01*
X145835359Y-88550000D01*
X145817963Y-88726627D01*
X145766443Y-88896466D01*
X145682778Y-89052991D01*
X145653448Y-89088729D01*
X145570186Y-89190186D01*
X145468729Y-89273448D01*
X145432991Y-89302778D01*
X145276466Y-89386443D01*
X145106627Y-89437963D01*
X145040442Y-89444482D01*
X144974260Y-89451000D01*
X144885740Y-89451000D01*
X144819558Y-89444482D01*
X144753373Y-89437963D01*
X144583534Y-89386443D01*
X144427009Y-89302778D01*
X144391271Y-89273448D01*
X144289814Y-89190186D01*
X144206552Y-89088729D01*
X144177222Y-89052991D01*
X144093557Y-88896466D01*
X144042037Y-88726627D01*
X144024641Y-88550000D01*
X144042037Y-88373373D01*
X144093557Y-88203534D01*
X144100465Y-88190611D01*
X144177221Y-88047011D01*
X144177222Y-88047009D01*
X144206552Y-88011271D01*
X144289814Y-87909814D01*
X144391271Y-87826552D01*
X144427009Y-87797222D01*
X144583534Y-87713557D01*
X144753373Y-87662037D01*
X144819558Y-87655518D01*
X144885740Y-87649000D01*
X144974260Y-87649000D01*
X145040442Y-87655518D01*
X145040442Y-87655518D01*
G37*
G36*
X143291000Y-89451000D02*
G01*
X141489000Y-89451000D01*
X141489000Y-87649000D01*
X143291000Y-87649000D01*
X143291000Y-89451000D01*
X143291000Y-89451000D01*
G37*
G36*
X127710442Y-87145518D02*
G01*
X127776627Y-87152037D01*
X127946466Y-87203557D01*
X128102991Y-87287222D01*
X128124519Y-87304890D01*
X128240186Y-87399814D01*
X128323448Y-87501271D01*
X128352778Y-87537009D01*
X128436443Y-87693534D01*
X128487963Y-87863373D01*
X128505359Y-88040000D01*
X128487963Y-88216627D01*
X128436443Y-88386466D01*
X128352778Y-88542991D01*
X128332532Y-88567661D01*
X128240186Y-88680186D01*
X128145063Y-88758250D01*
X128102991Y-88792778D01*
X127946466Y-88876443D01*
X127776627Y-88927963D01*
X127710442Y-88934482D01*
X127644260Y-88941000D01*
X127555740Y-88941000D01*
X127489558Y-88934482D01*
X127423373Y-88927963D01*
X127253534Y-88876443D01*
X127097009Y-88792778D01*
X127054937Y-88758250D01*
X126959814Y-88680186D01*
X126867468Y-88567661D01*
X126847222Y-88542991D01*
X126763557Y-88386466D01*
X126712037Y-88216627D01*
X126694641Y-88040000D01*
X126712037Y-87863373D01*
X126763557Y-87693534D01*
X126847222Y-87537009D01*
X126876552Y-87501271D01*
X126959814Y-87399814D01*
X127075481Y-87304890D01*
X127097009Y-87287222D01*
X127253534Y-87203557D01*
X127423373Y-87152037D01*
X127489558Y-87145518D01*
X127555740Y-87139000D01*
X127644260Y-87139000D01*
X127710442Y-87145518D01*
X127710442Y-87145518D01*
G37*
G36*
X105466564Y-86169389D02*
G01*
X105657833Y-86248615D01*
X105657835Y-86248616D01*
X105829973Y-86363635D01*
X105976365Y-86510027D01*
X106072064Y-86653250D01*
X106091385Y-86682167D01*
X106170611Y-86873436D01*
X106211000Y-87076484D01*
X106211000Y-87283516D01*
X106170611Y-87486564D01*
X106149716Y-87537009D01*
X106091384Y-87677835D01*
X105976365Y-87849973D01*
X105829973Y-87996365D01*
X105657835Y-88111384D01*
X105657834Y-88111385D01*
X105657833Y-88111385D01*
X105466564Y-88190611D01*
X105263516Y-88231000D01*
X105056484Y-88231000D01*
X104853436Y-88190611D01*
X104662167Y-88111385D01*
X104662166Y-88111385D01*
X104662165Y-88111384D01*
X104490027Y-87996365D01*
X104343635Y-87849973D01*
X104228616Y-87677835D01*
X104170284Y-87537009D01*
X104149389Y-87486564D01*
X104109000Y-87283516D01*
X104109000Y-87076484D01*
X104149389Y-86873436D01*
X104228615Y-86682167D01*
X104247937Y-86653250D01*
X104343635Y-86510027D01*
X104490027Y-86363635D01*
X104662165Y-86248616D01*
X104662167Y-86248615D01*
X104853436Y-86169389D01*
X105056484Y-86129000D01*
X105263516Y-86129000D01*
X105466564Y-86169389D01*
X105466564Y-86169389D01*
G37*
G36*
X133099591Y-87193085D02*
G01*
X133133569Y-87203393D01*
X133164890Y-87220134D01*
X133192339Y-87242661D01*
X133214866Y-87270110D01*
X133231607Y-87301431D01*
X133241915Y-87335409D01*
X133246000Y-87376890D01*
X133246000Y-87978110D01*
X133241915Y-88019591D01*
X133231607Y-88053569D01*
X133214866Y-88084890D01*
X133192339Y-88112339D01*
X133164890Y-88134866D01*
X133133569Y-88151607D01*
X133099591Y-88161915D01*
X133058110Y-88166000D01*
X132381890Y-88166000D01*
X132340409Y-88161915D01*
X132306431Y-88151607D01*
X132275110Y-88134866D01*
X132247661Y-88112339D01*
X132225134Y-88084890D01*
X132208393Y-88053569D01*
X132198085Y-88019591D01*
X132194000Y-87978110D01*
X132194000Y-87376890D01*
X132198085Y-87335409D01*
X132208393Y-87301431D01*
X132225134Y-87270110D01*
X132247661Y-87242661D01*
X132275110Y-87220134D01*
X132306431Y-87203393D01*
X132340409Y-87193085D01*
X132381890Y-87189000D01*
X133058110Y-87189000D01*
X133099591Y-87193085D01*
X133099591Y-87193085D01*
G37*
G36*
X131429591Y-87193085D02*
G01*
X131463569Y-87203393D01*
X131494890Y-87220134D01*
X131522339Y-87242661D01*
X131544866Y-87270110D01*
X131561607Y-87301431D01*
X131571915Y-87335409D01*
X131576000Y-87376890D01*
X131576000Y-87978110D01*
X131571915Y-88019591D01*
X131561607Y-88053569D01*
X131544866Y-88084890D01*
X131522339Y-88112339D01*
X131494890Y-88134866D01*
X131463569Y-88151607D01*
X131429591Y-88161915D01*
X131388110Y-88166000D01*
X130711890Y-88166000D01*
X130670409Y-88161915D01*
X130636431Y-88151607D01*
X130605110Y-88134866D01*
X130577661Y-88112339D01*
X130555134Y-88084890D01*
X130538393Y-88053569D01*
X130528085Y-88019591D01*
X130524000Y-87978110D01*
X130524000Y-87376890D01*
X130528085Y-87335409D01*
X130538393Y-87301431D01*
X130555134Y-87270110D01*
X130577661Y-87242661D01*
X130605110Y-87220134D01*
X130636431Y-87203393D01*
X130670409Y-87193085D01*
X130711890Y-87189000D01*
X131388110Y-87189000D01*
X131429591Y-87193085D01*
X131429591Y-87193085D01*
G37*
G36*
X150239591Y-86433085D02*
G01*
X150273569Y-86443393D01*
X150304890Y-86460134D01*
X150332339Y-86482661D01*
X150354866Y-86510110D01*
X150371607Y-86541431D01*
X150381915Y-86575409D01*
X150386000Y-86616890D01*
X150386000Y-87218110D01*
X150381915Y-87259591D01*
X150371607Y-87293569D01*
X150354866Y-87324890D01*
X150332339Y-87352339D01*
X150304890Y-87374866D01*
X150273569Y-87391607D01*
X150239591Y-87401915D01*
X150198110Y-87406000D01*
X149521890Y-87406000D01*
X149480409Y-87401915D01*
X149446431Y-87391607D01*
X149415110Y-87374866D01*
X149387661Y-87352339D01*
X149365134Y-87324890D01*
X149348393Y-87293569D01*
X149338085Y-87259591D01*
X149334000Y-87218110D01*
X149334000Y-86616890D01*
X149338085Y-86575409D01*
X149348393Y-86541431D01*
X149365134Y-86510110D01*
X149387661Y-86482661D01*
X149415110Y-86460134D01*
X149446431Y-86443393D01*
X149480409Y-86433085D01*
X149521890Y-86429000D01*
X150198110Y-86429000D01*
X150239591Y-86433085D01*
X150239591Y-86433085D01*
G37*
G36*
X148289591Y-86433085D02*
G01*
X148323569Y-86443393D01*
X148354890Y-86460134D01*
X148382339Y-86482661D01*
X148404866Y-86510110D01*
X148421607Y-86541431D01*
X148431915Y-86575409D01*
X148436000Y-86616890D01*
X148436000Y-87218110D01*
X148431915Y-87259591D01*
X148421607Y-87293569D01*
X148404866Y-87324890D01*
X148382339Y-87352339D01*
X148354890Y-87374866D01*
X148323569Y-87391607D01*
X148289591Y-87401915D01*
X148248110Y-87406000D01*
X147571890Y-87406000D01*
X147530409Y-87401915D01*
X147496431Y-87391607D01*
X147465110Y-87374866D01*
X147437661Y-87352339D01*
X147415134Y-87324890D01*
X147398393Y-87293569D01*
X147388085Y-87259591D01*
X147384000Y-87218110D01*
X147384000Y-86616890D01*
X147388085Y-86575409D01*
X147398393Y-86541431D01*
X147415134Y-86510110D01*
X147437661Y-86482661D01*
X147465110Y-86460134D01*
X147496431Y-86443393D01*
X147530409Y-86433085D01*
X147571890Y-86429000D01*
X148248110Y-86429000D01*
X148289591Y-86433085D01*
X148289591Y-86433085D01*
G37*
G36*
X152189591Y-86423085D02*
G01*
X152223569Y-86433393D01*
X152254890Y-86450134D01*
X152282339Y-86472661D01*
X152304866Y-86500110D01*
X152321607Y-86531431D01*
X152331915Y-86565409D01*
X152336000Y-86606890D01*
X152336000Y-87208110D01*
X152331915Y-87249591D01*
X152321607Y-87283569D01*
X152304866Y-87314890D01*
X152282339Y-87342339D01*
X152254890Y-87364866D01*
X152223569Y-87381607D01*
X152189591Y-87391915D01*
X152148110Y-87396000D01*
X151471890Y-87396000D01*
X151430409Y-87391915D01*
X151396431Y-87381607D01*
X151365110Y-87364866D01*
X151337661Y-87342339D01*
X151315134Y-87314890D01*
X151298393Y-87283569D01*
X151288085Y-87249591D01*
X151284000Y-87208110D01*
X151284000Y-86606890D01*
X151288085Y-86565409D01*
X151298393Y-86531431D01*
X151315134Y-86500110D01*
X151337661Y-86472661D01*
X151365110Y-86450134D01*
X151396431Y-86433393D01*
X151430409Y-86423085D01*
X151471890Y-86419000D01*
X152148110Y-86419000D01*
X152189591Y-86423085D01*
X152189591Y-86423085D01*
G37*
G36*
X154129591Y-86413085D02*
G01*
X154163569Y-86423393D01*
X154194890Y-86440134D01*
X154222339Y-86462661D01*
X154244866Y-86490110D01*
X154261607Y-86521431D01*
X154271915Y-86555409D01*
X154276000Y-86596890D01*
X154276000Y-87198110D01*
X154271915Y-87239591D01*
X154261607Y-87273569D01*
X154244866Y-87304890D01*
X154222339Y-87332339D01*
X154194890Y-87354866D01*
X154163569Y-87371607D01*
X154129591Y-87381915D01*
X154088110Y-87386000D01*
X153411890Y-87386000D01*
X153370409Y-87381915D01*
X153336431Y-87371607D01*
X153305110Y-87354866D01*
X153277661Y-87332339D01*
X153255134Y-87304890D01*
X153238393Y-87273569D01*
X153228085Y-87239591D01*
X153224000Y-87198110D01*
X153224000Y-86596890D01*
X153228085Y-86555409D01*
X153238393Y-86521431D01*
X153255134Y-86490110D01*
X153277661Y-86462661D01*
X153305110Y-86440134D01*
X153336431Y-86423393D01*
X153370409Y-86413085D01*
X153411890Y-86409000D01*
X154088110Y-86409000D01*
X154129591Y-86413085D01*
X154129591Y-86413085D01*
G37*
G36*
X184429591Y-86413085D02*
G01*
X184463569Y-86423393D01*
X184494890Y-86440134D01*
X184522339Y-86462661D01*
X184544866Y-86490110D01*
X184561607Y-86521431D01*
X184571915Y-86555409D01*
X184576000Y-86596890D01*
X184576000Y-87198110D01*
X184571915Y-87239591D01*
X184561607Y-87273569D01*
X184544866Y-87304890D01*
X184522339Y-87332339D01*
X184494890Y-87354866D01*
X184463569Y-87371607D01*
X184429591Y-87381915D01*
X184388110Y-87386000D01*
X183711890Y-87386000D01*
X183670409Y-87381915D01*
X183636431Y-87371607D01*
X183605110Y-87354866D01*
X183577661Y-87332339D01*
X183555134Y-87304890D01*
X183538393Y-87273569D01*
X183528085Y-87239591D01*
X183524000Y-87198110D01*
X183524000Y-86596890D01*
X183528085Y-86555409D01*
X183538393Y-86521431D01*
X183555134Y-86490110D01*
X183577661Y-86462661D01*
X183605110Y-86440134D01*
X183636431Y-86423393D01*
X183670409Y-86413085D01*
X183711890Y-86409000D01*
X184388110Y-86409000D01*
X184429591Y-86413085D01*
X184429591Y-86413085D01*
G37*
G36*
X163929591Y-86413085D02*
G01*
X163963569Y-86423393D01*
X163994890Y-86440134D01*
X164022339Y-86462661D01*
X164044866Y-86490110D01*
X164061607Y-86521431D01*
X164071915Y-86555409D01*
X164076000Y-86596890D01*
X164076000Y-87198110D01*
X164071915Y-87239591D01*
X164061607Y-87273569D01*
X164044866Y-87304890D01*
X164022339Y-87332339D01*
X163994890Y-87354866D01*
X163963569Y-87371607D01*
X163929591Y-87381915D01*
X163888110Y-87386000D01*
X163211890Y-87386000D01*
X163170409Y-87381915D01*
X163136431Y-87371607D01*
X163105110Y-87354866D01*
X163077661Y-87332339D01*
X163055134Y-87304890D01*
X163038393Y-87273569D01*
X163028085Y-87239591D01*
X163024000Y-87198110D01*
X163024000Y-86596890D01*
X163028085Y-86555409D01*
X163038393Y-86521431D01*
X163055134Y-86490110D01*
X163077661Y-86462661D01*
X163105110Y-86440134D01*
X163136431Y-86423393D01*
X163170409Y-86413085D01*
X163211890Y-86409000D01*
X163888110Y-86409000D01*
X163929591Y-86413085D01*
X163929591Y-86413085D01*
G37*
G36*
X165879591Y-86413085D02*
G01*
X165913569Y-86423393D01*
X165944890Y-86440134D01*
X165972339Y-86462661D01*
X165994866Y-86490110D01*
X166011607Y-86521431D01*
X166021915Y-86555409D01*
X166026000Y-86596890D01*
X166026000Y-87198110D01*
X166021915Y-87239591D01*
X166011607Y-87273569D01*
X165994866Y-87304890D01*
X165972339Y-87332339D01*
X165944890Y-87354866D01*
X165913569Y-87371607D01*
X165879591Y-87381915D01*
X165838110Y-87386000D01*
X165161890Y-87386000D01*
X165120409Y-87381915D01*
X165086431Y-87371607D01*
X165055110Y-87354866D01*
X165027661Y-87332339D01*
X165005134Y-87304890D01*
X164988393Y-87273569D01*
X164978085Y-87239591D01*
X164974000Y-87198110D01*
X164974000Y-86596890D01*
X164978085Y-86555409D01*
X164988393Y-86521431D01*
X165005134Y-86490110D01*
X165027661Y-86462661D01*
X165055110Y-86440134D01*
X165086431Y-86423393D01*
X165120409Y-86413085D01*
X165161890Y-86409000D01*
X165838110Y-86409000D01*
X165879591Y-86413085D01*
X165879591Y-86413085D01*
G37*
G36*
X167829591Y-86413085D02*
G01*
X167863569Y-86423393D01*
X167894890Y-86440134D01*
X167922339Y-86462661D01*
X167944866Y-86490110D01*
X167961607Y-86521431D01*
X167971915Y-86555409D01*
X167976000Y-86596890D01*
X167976000Y-87198110D01*
X167971915Y-87239591D01*
X167961607Y-87273569D01*
X167944866Y-87304890D01*
X167922339Y-87332339D01*
X167894890Y-87354866D01*
X167863569Y-87371607D01*
X167829591Y-87381915D01*
X167788110Y-87386000D01*
X167111890Y-87386000D01*
X167070409Y-87381915D01*
X167036431Y-87371607D01*
X167005110Y-87354866D01*
X166977661Y-87332339D01*
X166955134Y-87304890D01*
X166938393Y-87273569D01*
X166928085Y-87239591D01*
X166924000Y-87198110D01*
X166924000Y-86596890D01*
X166928085Y-86555409D01*
X166938393Y-86521431D01*
X166955134Y-86490110D01*
X166977661Y-86462661D01*
X167005110Y-86440134D01*
X167036431Y-86423393D01*
X167070409Y-86413085D01*
X167111890Y-86409000D01*
X167788110Y-86409000D01*
X167829591Y-86413085D01*
X167829591Y-86413085D01*
G37*
G36*
X178639591Y-86413085D02*
G01*
X178673569Y-86423393D01*
X178704890Y-86440134D01*
X178732339Y-86462661D01*
X178754866Y-86490110D01*
X178771607Y-86521431D01*
X178781915Y-86555409D01*
X178786000Y-86596890D01*
X178786000Y-87198110D01*
X178781915Y-87239591D01*
X178771607Y-87273569D01*
X178754866Y-87304890D01*
X178732339Y-87332339D01*
X178704890Y-87354866D01*
X178673569Y-87371607D01*
X178639591Y-87381915D01*
X178598110Y-87386000D01*
X177921890Y-87386000D01*
X177880409Y-87381915D01*
X177846431Y-87371607D01*
X177815110Y-87354866D01*
X177787661Y-87332339D01*
X177765134Y-87304890D01*
X177748393Y-87273569D01*
X177738085Y-87239591D01*
X177734000Y-87198110D01*
X177734000Y-86596890D01*
X177738085Y-86555409D01*
X177748393Y-86521431D01*
X177765134Y-86490110D01*
X177787661Y-86462661D01*
X177815110Y-86440134D01*
X177846431Y-86423393D01*
X177880409Y-86413085D01*
X177921890Y-86409000D01*
X178598110Y-86409000D01*
X178639591Y-86413085D01*
X178639591Y-86413085D01*
G37*
G36*
X180539591Y-86413085D02*
G01*
X180573569Y-86423393D01*
X180604890Y-86440134D01*
X180632339Y-86462661D01*
X180654866Y-86490110D01*
X180671607Y-86521431D01*
X180681915Y-86555409D01*
X180686000Y-86596890D01*
X180686000Y-87198110D01*
X180681915Y-87239591D01*
X180671607Y-87273569D01*
X180654866Y-87304890D01*
X180632339Y-87332339D01*
X180604890Y-87354866D01*
X180573569Y-87371607D01*
X180539591Y-87381915D01*
X180498110Y-87386000D01*
X179821890Y-87386000D01*
X179780409Y-87381915D01*
X179746431Y-87371607D01*
X179715110Y-87354866D01*
X179687661Y-87332339D01*
X179665134Y-87304890D01*
X179648393Y-87273569D01*
X179638085Y-87239591D01*
X179634000Y-87198110D01*
X179634000Y-86596890D01*
X179638085Y-86555409D01*
X179648393Y-86521431D01*
X179665134Y-86490110D01*
X179687661Y-86462661D01*
X179715110Y-86440134D01*
X179746431Y-86423393D01*
X179780409Y-86413085D01*
X179821890Y-86409000D01*
X180498110Y-86409000D01*
X180539591Y-86413085D01*
X180539591Y-86413085D01*
G37*
G36*
X182449591Y-86413085D02*
G01*
X182483569Y-86423393D01*
X182514890Y-86440134D01*
X182542339Y-86462661D01*
X182564866Y-86490110D01*
X182581607Y-86521431D01*
X182591915Y-86555409D01*
X182596000Y-86596890D01*
X182596000Y-87198110D01*
X182591915Y-87239591D01*
X182581607Y-87273569D01*
X182564866Y-87304890D01*
X182542339Y-87332339D01*
X182514890Y-87354866D01*
X182483569Y-87371607D01*
X182449591Y-87381915D01*
X182408110Y-87386000D01*
X181731890Y-87386000D01*
X181690409Y-87381915D01*
X181656431Y-87371607D01*
X181625110Y-87354866D01*
X181597661Y-87332339D01*
X181575134Y-87304890D01*
X181558393Y-87273569D01*
X181548085Y-87239591D01*
X181544000Y-87198110D01*
X181544000Y-86596890D01*
X181548085Y-86555409D01*
X181558393Y-86521431D01*
X181575134Y-86490110D01*
X181597661Y-86462661D01*
X181625110Y-86440134D01*
X181656431Y-86423393D01*
X181690409Y-86413085D01*
X181731890Y-86409000D01*
X182408110Y-86409000D01*
X182449591Y-86413085D01*
X182449591Y-86413085D01*
G37*
G36*
X169779591Y-86403085D02*
G01*
X169813569Y-86413393D01*
X169844890Y-86430134D01*
X169872339Y-86452661D01*
X169894866Y-86480110D01*
X169911607Y-86511431D01*
X169921915Y-86545409D01*
X169926000Y-86586890D01*
X169926000Y-87188110D01*
X169921915Y-87229591D01*
X169911607Y-87263569D01*
X169894866Y-87294890D01*
X169872339Y-87322339D01*
X169844890Y-87344866D01*
X169813569Y-87361607D01*
X169779591Y-87371915D01*
X169738110Y-87376000D01*
X169061890Y-87376000D01*
X169020409Y-87371915D01*
X168986431Y-87361607D01*
X168955110Y-87344866D01*
X168927661Y-87322339D01*
X168905134Y-87294890D01*
X168888393Y-87263569D01*
X168878085Y-87229591D01*
X168874000Y-87188110D01*
X168874000Y-86586890D01*
X168878085Y-86545409D01*
X168888393Y-86511431D01*
X168905134Y-86480110D01*
X168927661Y-86452661D01*
X168955110Y-86430134D01*
X168986431Y-86413393D01*
X169020409Y-86403085D01*
X169061890Y-86399000D01*
X169738110Y-86399000D01*
X169779591Y-86403085D01*
X169779591Y-86403085D01*
G37*
G36*
X131429591Y-85618085D02*
G01*
X131463569Y-85628393D01*
X131494890Y-85645134D01*
X131522339Y-85667661D01*
X131544866Y-85695110D01*
X131561607Y-85726431D01*
X131571915Y-85760409D01*
X131576000Y-85801890D01*
X131576000Y-86403110D01*
X131571915Y-86444591D01*
X131561607Y-86478569D01*
X131544866Y-86509890D01*
X131522339Y-86537339D01*
X131494890Y-86559866D01*
X131463569Y-86576607D01*
X131429591Y-86586915D01*
X131388110Y-86591000D01*
X130711890Y-86591000D01*
X130670409Y-86586915D01*
X130636431Y-86576607D01*
X130605110Y-86559866D01*
X130577661Y-86537339D01*
X130555134Y-86509890D01*
X130538393Y-86478569D01*
X130528085Y-86444591D01*
X130524000Y-86403110D01*
X130524000Y-85801890D01*
X130528085Y-85760409D01*
X130538393Y-85726431D01*
X130555134Y-85695110D01*
X130577661Y-85667661D01*
X130605110Y-85645134D01*
X130636431Y-85628393D01*
X130670409Y-85618085D01*
X130711890Y-85614000D01*
X131388110Y-85614000D01*
X131429591Y-85618085D01*
X131429591Y-85618085D01*
G37*
G36*
X133099591Y-85618085D02*
G01*
X133133569Y-85628393D01*
X133164890Y-85645134D01*
X133192339Y-85667661D01*
X133214866Y-85695110D01*
X133231607Y-85726431D01*
X133241915Y-85760409D01*
X133246000Y-85801890D01*
X133246000Y-86403110D01*
X133241915Y-86444591D01*
X133231607Y-86478569D01*
X133214866Y-86509890D01*
X133192339Y-86537339D01*
X133164890Y-86559866D01*
X133133569Y-86576607D01*
X133099591Y-86586915D01*
X133058110Y-86591000D01*
X132381890Y-86591000D01*
X132340409Y-86586915D01*
X132306431Y-86576607D01*
X132275110Y-86559866D01*
X132247661Y-86537339D01*
X132225134Y-86509890D01*
X132208393Y-86478569D01*
X132198085Y-86444591D01*
X132194000Y-86403110D01*
X132194000Y-85801890D01*
X132198085Y-85760409D01*
X132208393Y-85726431D01*
X132225134Y-85695110D01*
X132247661Y-85667661D01*
X132275110Y-85645134D01*
X132306431Y-85628393D01*
X132340409Y-85618085D01*
X132381890Y-85614000D01*
X133058110Y-85614000D01*
X133099591Y-85618085D01*
X133099591Y-85618085D01*
G37*
G36*
X128501000Y-86401000D02*
G01*
X126699000Y-86401000D01*
X126699000Y-84599000D01*
X128501000Y-84599000D01*
X128501000Y-86401000D01*
X128501000Y-86401000D01*
G37*
G36*
X150239591Y-84858085D02*
G01*
X150273569Y-84868393D01*
X150304890Y-84885134D01*
X150332339Y-84907661D01*
X150354866Y-84935110D01*
X150371607Y-84966431D01*
X150381915Y-85000409D01*
X150386000Y-85041890D01*
X150386000Y-85643110D01*
X150381915Y-85684591D01*
X150371607Y-85718569D01*
X150354866Y-85749890D01*
X150332339Y-85777339D01*
X150304890Y-85799866D01*
X150273569Y-85816607D01*
X150239591Y-85826915D01*
X150198110Y-85831000D01*
X149521890Y-85831000D01*
X149480409Y-85826915D01*
X149446431Y-85816607D01*
X149415110Y-85799866D01*
X149387661Y-85777339D01*
X149365134Y-85749890D01*
X149348393Y-85718569D01*
X149338085Y-85684591D01*
X149334000Y-85643110D01*
X149334000Y-85041890D01*
X149338085Y-85000409D01*
X149348393Y-84966431D01*
X149365134Y-84935110D01*
X149387661Y-84907661D01*
X149415110Y-84885134D01*
X149446431Y-84868393D01*
X149480409Y-84858085D01*
X149521890Y-84854000D01*
X150198110Y-84854000D01*
X150239591Y-84858085D01*
X150239591Y-84858085D01*
G37*
G36*
X148289591Y-84858085D02*
G01*
X148323569Y-84868393D01*
X148354890Y-84885134D01*
X148382339Y-84907661D01*
X148404866Y-84935110D01*
X148421607Y-84966431D01*
X148431915Y-85000409D01*
X148436000Y-85041890D01*
X148436000Y-85643110D01*
X148431915Y-85684591D01*
X148421607Y-85718569D01*
X148404866Y-85749890D01*
X148382339Y-85777339D01*
X148354890Y-85799866D01*
X148323569Y-85816607D01*
X148289591Y-85826915D01*
X148248110Y-85831000D01*
X147571890Y-85831000D01*
X147530409Y-85826915D01*
X147496431Y-85816607D01*
X147465110Y-85799866D01*
X147437661Y-85777339D01*
X147415134Y-85749890D01*
X147398393Y-85718569D01*
X147388085Y-85684591D01*
X147384000Y-85643110D01*
X147384000Y-85041890D01*
X147388085Y-85000409D01*
X147398393Y-84966431D01*
X147415134Y-84935110D01*
X147437661Y-84907661D01*
X147465110Y-84885134D01*
X147496431Y-84868393D01*
X147530409Y-84858085D01*
X147571890Y-84854000D01*
X148248110Y-84854000D01*
X148289591Y-84858085D01*
X148289591Y-84858085D01*
G37*
G36*
X152189591Y-84848085D02*
G01*
X152223569Y-84858393D01*
X152254890Y-84875134D01*
X152282339Y-84897661D01*
X152304866Y-84925110D01*
X152321607Y-84956431D01*
X152331915Y-84990409D01*
X152336000Y-85031890D01*
X152336000Y-85633110D01*
X152331915Y-85674591D01*
X152321607Y-85708569D01*
X152304866Y-85739890D01*
X152282339Y-85767339D01*
X152254890Y-85789866D01*
X152223569Y-85806607D01*
X152189591Y-85816915D01*
X152148110Y-85821000D01*
X151471890Y-85821000D01*
X151430409Y-85816915D01*
X151396431Y-85806607D01*
X151365110Y-85789866D01*
X151337661Y-85767339D01*
X151315134Y-85739890D01*
X151298393Y-85708569D01*
X151288085Y-85674591D01*
X151284000Y-85633110D01*
X151284000Y-85031890D01*
X151288085Y-84990409D01*
X151298393Y-84956431D01*
X151315134Y-84925110D01*
X151337661Y-84897661D01*
X151365110Y-84875134D01*
X151396431Y-84858393D01*
X151430409Y-84848085D01*
X151471890Y-84844000D01*
X152148110Y-84844000D01*
X152189591Y-84848085D01*
X152189591Y-84848085D01*
G37*
G36*
X184429591Y-84838085D02*
G01*
X184463569Y-84848393D01*
X184494890Y-84865134D01*
X184522339Y-84887661D01*
X184544866Y-84915110D01*
X184561607Y-84946431D01*
X184571915Y-84980409D01*
X184576000Y-85021890D01*
X184576000Y-85623110D01*
X184571915Y-85664591D01*
X184561607Y-85698569D01*
X184544866Y-85729890D01*
X184522339Y-85757339D01*
X184494890Y-85779866D01*
X184463569Y-85796607D01*
X184429591Y-85806915D01*
X184388110Y-85811000D01*
X183711890Y-85811000D01*
X183670409Y-85806915D01*
X183636431Y-85796607D01*
X183605110Y-85779866D01*
X183577661Y-85757339D01*
X183555134Y-85729890D01*
X183538393Y-85698569D01*
X183528085Y-85664591D01*
X183524000Y-85623110D01*
X183524000Y-85021890D01*
X183528085Y-84980409D01*
X183538393Y-84946431D01*
X183555134Y-84915110D01*
X183577661Y-84887661D01*
X183605110Y-84865134D01*
X183636431Y-84848393D01*
X183670409Y-84838085D01*
X183711890Y-84834000D01*
X184388110Y-84834000D01*
X184429591Y-84838085D01*
X184429591Y-84838085D01*
G37*
G36*
X180539591Y-84838085D02*
G01*
X180573569Y-84848393D01*
X180604890Y-84865134D01*
X180632339Y-84887661D01*
X180654866Y-84915110D01*
X180671607Y-84946431D01*
X180681915Y-84980409D01*
X180686000Y-85021890D01*
X180686000Y-85623110D01*
X180681915Y-85664591D01*
X180671607Y-85698569D01*
X180654866Y-85729890D01*
X180632339Y-85757339D01*
X180604890Y-85779866D01*
X180573569Y-85796607D01*
X180539591Y-85806915D01*
X180498110Y-85811000D01*
X179821890Y-85811000D01*
X179780409Y-85806915D01*
X179746431Y-85796607D01*
X179715110Y-85779866D01*
X179687661Y-85757339D01*
X179665134Y-85729890D01*
X179648393Y-85698569D01*
X179638085Y-85664591D01*
X179634000Y-85623110D01*
X179634000Y-85021890D01*
X179638085Y-84980409D01*
X179648393Y-84946431D01*
X179665134Y-84915110D01*
X179687661Y-84887661D01*
X179715110Y-84865134D01*
X179746431Y-84848393D01*
X179780409Y-84838085D01*
X179821890Y-84834000D01*
X180498110Y-84834000D01*
X180539591Y-84838085D01*
X180539591Y-84838085D01*
G37*
G36*
X182449591Y-84838085D02*
G01*
X182483569Y-84848393D01*
X182514890Y-84865134D01*
X182542339Y-84887661D01*
X182564866Y-84915110D01*
X182581607Y-84946431D01*
X182591915Y-84980409D01*
X182596000Y-85021890D01*
X182596000Y-85623110D01*
X182591915Y-85664591D01*
X182581607Y-85698569D01*
X182564866Y-85729890D01*
X182542339Y-85757339D01*
X182514890Y-85779866D01*
X182483569Y-85796607D01*
X182449591Y-85806915D01*
X182408110Y-85811000D01*
X181731890Y-85811000D01*
X181690409Y-85806915D01*
X181656431Y-85796607D01*
X181625110Y-85779866D01*
X181597661Y-85757339D01*
X181575134Y-85729890D01*
X181558393Y-85698569D01*
X181548085Y-85664591D01*
X181544000Y-85623110D01*
X181544000Y-85021890D01*
X181548085Y-84980409D01*
X181558393Y-84946431D01*
X181575134Y-84915110D01*
X181597661Y-84887661D01*
X181625110Y-84865134D01*
X181656431Y-84848393D01*
X181690409Y-84838085D01*
X181731890Y-84834000D01*
X182408110Y-84834000D01*
X182449591Y-84838085D01*
X182449591Y-84838085D01*
G37*
G36*
X165879591Y-84838085D02*
G01*
X165913569Y-84848393D01*
X165944890Y-84865134D01*
X165972339Y-84887661D01*
X165994866Y-84915110D01*
X166011607Y-84946431D01*
X166021915Y-84980409D01*
X166026000Y-85021890D01*
X166026000Y-85623110D01*
X166021915Y-85664591D01*
X166011607Y-85698569D01*
X165994866Y-85729890D01*
X165972339Y-85757339D01*
X165944890Y-85779866D01*
X165913569Y-85796607D01*
X165879591Y-85806915D01*
X165838110Y-85811000D01*
X165161890Y-85811000D01*
X165120409Y-85806915D01*
X165086431Y-85796607D01*
X165055110Y-85779866D01*
X165027661Y-85757339D01*
X165005134Y-85729890D01*
X164988393Y-85698569D01*
X164978085Y-85664591D01*
X164974000Y-85623110D01*
X164974000Y-85021890D01*
X164978085Y-84980409D01*
X164988393Y-84946431D01*
X165005134Y-84915110D01*
X165027661Y-84887661D01*
X165055110Y-84865134D01*
X165086431Y-84848393D01*
X165120409Y-84838085D01*
X165161890Y-84834000D01*
X165838110Y-84834000D01*
X165879591Y-84838085D01*
X165879591Y-84838085D01*
G37*
G36*
X163929591Y-84838085D02*
G01*
X163963569Y-84848393D01*
X163994890Y-84865134D01*
X164022339Y-84887661D01*
X164044866Y-84915110D01*
X164061607Y-84946431D01*
X164071915Y-84980409D01*
X164076000Y-85021890D01*
X164076000Y-85623110D01*
X164071915Y-85664591D01*
X164061607Y-85698569D01*
X164044866Y-85729890D01*
X164022339Y-85757339D01*
X163994890Y-85779866D01*
X163963569Y-85796607D01*
X163929591Y-85806915D01*
X163888110Y-85811000D01*
X163211890Y-85811000D01*
X163170409Y-85806915D01*
X163136431Y-85796607D01*
X163105110Y-85779866D01*
X163077661Y-85757339D01*
X163055134Y-85729890D01*
X163038393Y-85698569D01*
X163028085Y-85664591D01*
X163024000Y-85623110D01*
X163024000Y-85021890D01*
X163028085Y-84980409D01*
X163038393Y-84946431D01*
X163055134Y-84915110D01*
X163077661Y-84887661D01*
X163105110Y-84865134D01*
X163136431Y-84848393D01*
X163170409Y-84838085D01*
X163211890Y-84834000D01*
X163888110Y-84834000D01*
X163929591Y-84838085D01*
X163929591Y-84838085D01*
G37*
G36*
X154129591Y-84838085D02*
G01*
X154163569Y-84848393D01*
X154194890Y-84865134D01*
X154222339Y-84887661D01*
X154244866Y-84915110D01*
X154261607Y-84946431D01*
X154271915Y-84980409D01*
X154276000Y-85021890D01*
X154276000Y-85623110D01*
X154271915Y-85664591D01*
X154261607Y-85698569D01*
X154244866Y-85729890D01*
X154222339Y-85757339D01*
X154194890Y-85779866D01*
X154163569Y-85796607D01*
X154129591Y-85806915D01*
X154088110Y-85811000D01*
X153411890Y-85811000D01*
X153370409Y-85806915D01*
X153336431Y-85796607D01*
X153305110Y-85779866D01*
X153277661Y-85757339D01*
X153255134Y-85729890D01*
X153238393Y-85698569D01*
X153228085Y-85664591D01*
X153224000Y-85623110D01*
X153224000Y-85021890D01*
X153228085Y-84980409D01*
X153238393Y-84946431D01*
X153255134Y-84915110D01*
X153277661Y-84887661D01*
X153305110Y-84865134D01*
X153336431Y-84848393D01*
X153370409Y-84838085D01*
X153411890Y-84834000D01*
X154088110Y-84834000D01*
X154129591Y-84838085D01*
X154129591Y-84838085D01*
G37*
G36*
X178639591Y-84838085D02*
G01*
X178673569Y-84848393D01*
X178704890Y-84865134D01*
X178732339Y-84887661D01*
X178754866Y-84915110D01*
X178771607Y-84946431D01*
X178781915Y-84980409D01*
X178786000Y-85021890D01*
X178786000Y-85623110D01*
X178781915Y-85664591D01*
X178771607Y-85698569D01*
X178754866Y-85729890D01*
X178732339Y-85757339D01*
X178704890Y-85779866D01*
X178673569Y-85796607D01*
X178639591Y-85806915D01*
X178598110Y-85811000D01*
X177921890Y-85811000D01*
X177880409Y-85806915D01*
X177846431Y-85796607D01*
X177815110Y-85779866D01*
X177787661Y-85757339D01*
X177765134Y-85729890D01*
X177748393Y-85698569D01*
X177738085Y-85664591D01*
X177734000Y-85623110D01*
X177734000Y-85021890D01*
X177738085Y-84980409D01*
X177748393Y-84946431D01*
X177765134Y-84915110D01*
X177787661Y-84887661D01*
X177815110Y-84865134D01*
X177846431Y-84848393D01*
X177880409Y-84838085D01*
X177921890Y-84834000D01*
X178598110Y-84834000D01*
X178639591Y-84838085D01*
X178639591Y-84838085D01*
G37*
G36*
X167829591Y-84838085D02*
G01*
X167863569Y-84848393D01*
X167894890Y-84865134D01*
X167922339Y-84887661D01*
X167944866Y-84915110D01*
X167961607Y-84946431D01*
X167971915Y-84980409D01*
X167976000Y-85021890D01*
X167976000Y-85623110D01*
X167971915Y-85664591D01*
X167961607Y-85698569D01*
X167944866Y-85729890D01*
X167922339Y-85757339D01*
X167894890Y-85779866D01*
X167863569Y-85796607D01*
X167829591Y-85806915D01*
X167788110Y-85811000D01*
X167111890Y-85811000D01*
X167070409Y-85806915D01*
X167036431Y-85796607D01*
X167005110Y-85779866D01*
X166977661Y-85757339D01*
X166955134Y-85729890D01*
X166938393Y-85698569D01*
X166928085Y-85664591D01*
X166924000Y-85623110D01*
X166924000Y-85021890D01*
X166928085Y-84980409D01*
X166938393Y-84946431D01*
X166955134Y-84915110D01*
X166977661Y-84887661D01*
X167005110Y-84865134D01*
X167036431Y-84848393D01*
X167070409Y-84838085D01*
X167111890Y-84834000D01*
X167788110Y-84834000D01*
X167829591Y-84838085D01*
X167829591Y-84838085D01*
G37*
G36*
X169779591Y-84828085D02*
G01*
X169813569Y-84838393D01*
X169844890Y-84855134D01*
X169872339Y-84877661D01*
X169894866Y-84905110D01*
X169911607Y-84936431D01*
X169921915Y-84970409D01*
X169926000Y-85011890D01*
X169926000Y-85613110D01*
X169921915Y-85654591D01*
X169911607Y-85688569D01*
X169894866Y-85719890D01*
X169872339Y-85747339D01*
X169844890Y-85769866D01*
X169813569Y-85786607D01*
X169779591Y-85796915D01*
X169738110Y-85801000D01*
X169061890Y-85801000D01*
X169020409Y-85796915D01*
X168986431Y-85786607D01*
X168955110Y-85769866D01*
X168927661Y-85747339D01*
X168905134Y-85719890D01*
X168888393Y-85688569D01*
X168878085Y-85654591D01*
X168874000Y-85613110D01*
X168874000Y-85011890D01*
X168878085Y-84970409D01*
X168888393Y-84936431D01*
X168905134Y-84905110D01*
X168927661Y-84877661D01*
X168955110Y-84855134D01*
X168986431Y-84838393D01*
X169020409Y-84828085D01*
X169061890Y-84824000D01*
X169738110Y-84824000D01*
X169779591Y-84828085D01*
X169779591Y-84828085D01*
G37*
G36*
X132256564Y-81739389D02*
G01*
X132447833Y-81818615D01*
X132447835Y-81818616D01*
X132598747Y-81919452D01*
X132619973Y-81933635D01*
X132766365Y-82080027D01*
X132881385Y-82252167D01*
X132960611Y-82443436D01*
X133001000Y-82646484D01*
X133001000Y-82853516D01*
X132960611Y-83056564D01*
X132881385Y-83247833D01*
X132881384Y-83247835D01*
X132766365Y-83419973D01*
X132619973Y-83566365D01*
X132447835Y-83681384D01*
X132447834Y-83681385D01*
X132447833Y-83681385D01*
X132256564Y-83760611D01*
X132053516Y-83801000D01*
X131846484Y-83801000D01*
X131643436Y-83760611D01*
X131452167Y-83681385D01*
X131452166Y-83681385D01*
X131452165Y-83681384D01*
X131280027Y-83566365D01*
X131133635Y-83419973D01*
X131018616Y-83247835D01*
X131018615Y-83247833D01*
X130939389Y-83056564D01*
X130899000Y-82853516D01*
X130899000Y-82646484D01*
X130939389Y-82443436D01*
X131018615Y-82252167D01*
X131133635Y-82080027D01*
X131280027Y-81933635D01*
X131301253Y-81919452D01*
X131452165Y-81818616D01*
X131452167Y-81818615D01*
X131643436Y-81739389D01*
X131846484Y-81699000D01*
X132053516Y-81699000D01*
X132256564Y-81739389D01*
X132256564Y-81739389D01*
G37*
G36*
X103960345Y-81183442D02*
G01*
X104050548Y-81192326D01*
X104224157Y-81244990D01*
X104384156Y-81330511D01*
X104427729Y-81366271D01*
X104524397Y-81445603D01*
X104603729Y-81542271D01*
X104639489Y-81585844D01*
X104725010Y-81745843D01*
X104777674Y-81919452D01*
X104795456Y-82100000D01*
X104777674Y-82280548D01*
X104725010Y-82454157D01*
X104639489Y-82614156D01*
X104612958Y-82646484D01*
X104524397Y-82754397D01*
X104427729Y-82833729D01*
X104384156Y-82869489D01*
X104224157Y-82955010D01*
X104050548Y-83007674D01*
X103960345Y-83016558D01*
X103915245Y-83021000D01*
X103364755Y-83021000D01*
X103319655Y-83016558D01*
X103229452Y-83007674D01*
X103055843Y-82955010D01*
X102895844Y-82869489D01*
X102852271Y-82833729D01*
X102755603Y-82754397D01*
X102667042Y-82646484D01*
X102640511Y-82614156D01*
X102554990Y-82454157D01*
X102502326Y-82280548D01*
X102484544Y-82100000D01*
X102502326Y-81919452D01*
X102554990Y-81745843D01*
X102640511Y-81585844D01*
X102676271Y-81542271D01*
X102755603Y-81445603D01*
X102852271Y-81366271D01*
X102895844Y-81330511D01*
X103055843Y-81244990D01*
X103229452Y-81192326D01*
X103319655Y-81183442D01*
X103364755Y-81179000D01*
X103915245Y-81179000D01*
X103960345Y-81183442D01*
X103960345Y-81183442D01*
G37*
G36*
X103960345Y-78643442D02*
G01*
X104050548Y-78652326D01*
X104224157Y-78704990D01*
X104384156Y-78790511D01*
X104427729Y-78826271D01*
X104524397Y-78905603D01*
X104603729Y-79002271D01*
X104639489Y-79045844D01*
X104725010Y-79205843D01*
X104777674Y-79379452D01*
X104795456Y-79560000D01*
X104777674Y-79740548D01*
X104725010Y-79914157D01*
X104639489Y-80074156D01*
X104603729Y-80117729D01*
X104524397Y-80214397D01*
X104427729Y-80293729D01*
X104384156Y-80329489D01*
X104224157Y-80415010D01*
X104050548Y-80467674D01*
X103960345Y-80476558D01*
X103915245Y-80481000D01*
X103364755Y-80481000D01*
X103319655Y-80476558D01*
X103229452Y-80467674D01*
X103055843Y-80415010D01*
X102895844Y-80329489D01*
X102852271Y-80293729D01*
X102755603Y-80214397D01*
X102676271Y-80117729D01*
X102640511Y-80074156D01*
X102554990Y-79914157D01*
X102502326Y-79740548D01*
X102484544Y-79560000D01*
X102502326Y-79379452D01*
X102554990Y-79205843D01*
X102640511Y-79045844D01*
X102676271Y-79002271D01*
X102755603Y-78905603D01*
X102852271Y-78826271D01*
X102895844Y-78790511D01*
X103055843Y-78704990D01*
X103229452Y-78652326D01*
X103319655Y-78643442D01*
X103364755Y-78639000D01*
X103915245Y-78639000D01*
X103960345Y-78643442D01*
X103960345Y-78643442D01*
G37*
G36*
X180091000Y-78051000D02*
G01*
X179389000Y-78051000D01*
X179389000Y-76949000D01*
X180091000Y-76949000D01*
X180091000Y-78051000D01*
X180091000Y-78051000D01*
G37*
G36*
X136861000Y-78051000D02*
G01*
X136159000Y-78051000D01*
X136159000Y-76949000D01*
X136861000Y-76949000D01*
X136861000Y-78051000D01*
X136861000Y-78051000D01*
G37*
G36*
X141221000Y-78051000D02*
G01*
X140519000Y-78051000D01*
X140519000Y-76949000D01*
X141221000Y-76949000D01*
X141221000Y-78051000D01*
X141221000Y-78051000D01*
G37*
G36*
X150431000Y-78051000D02*
G01*
X149729000Y-78051000D01*
X149729000Y-76949000D01*
X150431000Y-76949000D01*
X150431000Y-78051000D01*
X150431000Y-78051000D01*
G37*
G36*
X166461000Y-78051000D02*
G01*
X165759000Y-78051000D01*
X165759000Y-76949000D01*
X166461000Y-76949000D01*
X166461000Y-78051000D01*
X166461000Y-78051000D01*
G37*
G36*
X154771000Y-78051000D02*
G01*
X154069000Y-78051000D01*
X154069000Y-76949000D01*
X154771000Y-76949000D01*
X154771000Y-78051000D01*
X154771000Y-78051000D01*
G37*
G36*
X103960345Y-76103442D02*
G01*
X104050548Y-76112326D01*
X104224157Y-76164990D01*
X104384156Y-76250511D01*
X104427729Y-76286271D01*
X104524397Y-76365603D01*
X104603729Y-76462271D01*
X104639489Y-76505844D01*
X104725010Y-76665843D01*
X104777674Y-76839452D01*
X104795456Y-77020000D01*
X104777674Y-77200548D01*
X104725010Y-77374157D01*
X104639489Y-77534156D01*
X104603729Y-77577729D01*
X104524397Y-77674397D01*
X104427729Y-77753729D01*
X104384156Y-77789489D01*
X104224157Y-77875010D01*
X104050548Y-77927674D01*
X103960345Y-77936558D01*
X103915245Y-77941000D01*
X103364755Y-77941000D01*
X103319655Y-77936558D01*
X103229452Y-77927674D01*
X103055843Y-77875010D01*
X102895844Y-77789489D01*
X102852271Y-77753729D01*
X102755603Y-77674397D01*
X102676271Y-77577729D01*
X102640511Y-77534156D01*
X102554990Y-77374157D01*
X102502326Y-77200548D01*
X102484544Y-77020000D01*
X102502326Y-76839452D01*
X102554990Y-76665843D01*
X102640511Y-76505844D01*
X102676271Y-76462271D01*
X102755603Y-76365603D01*
X102852271Y-76286271D01*
X102895844Y-76250511D01*
X103055843Y-76164990D01*
X103229452Y-76112326D01*
X103319655Y-76103442D01*
X103364755Y-76099000D01*
X103915245Y-76099000D01*
X103960345Y-76103442D01*
X103960345Y-76103442D01*
G37*
G36*
X191123241Y-69904668D02*
G01*
X191527962Y-69985172D01*
X192119606Y-70230239D01*
X192652072Y-70586022D01*
X193104896Y-71038846D01*
X193460679Y-71571312D01*
X193705746Y-72162956D01*
X193727759Y-72273624D01*
X193830680Y-72791041D01*
X193830680Y-73431435D01*
X193804517Y-73562966D01*
X193705746Y-74059520D01*
X193460679Y-74651164D01*
X193212945Y-75021923D01*
X193104897Y-75183629D01*
X192652071Y-75636455D01*
X192546157Y-75707224D01*
X192119606Y-75992237D01*
X191527962Y-76237304D01*
X191213919Y-76299771D01*
X190899877Y-76362238D01*
X190259483Y-76362238D01*
X189945441Y-76299771D01*
X189631398Y-76237304D01*
X189039754Y-75992237D01*
X188613203Y-75707224D01*
X188507289Y-75636455D01*
X188054463Y-75183629D01*
X187946415Y-75021923D01*
X187698681Y-74651164D01*
X187453614Y-74059520D01*
X187354843Y-73562966D01*
X187328680Y-73431435D01*
X187328680Y-72791041D01*
X187431601Y-72273624D01*
X187453614Y-72162956D01*
X187698681Y-71571312D01*
X188054464Y-71038846D01*
X188507288Y-70586022D01*
X189039754Y-70230239D01*
X189631398Y-69985172D01*
X190036119Y-69904668D01*
X190259483Y-69860238D01*
X190899877Y-69860238D01*
X191123241Y-69904668D01*
X191123241Y-69904668D01*
G37*
G36*
X112071884Y-69904668D02*
G01*
X112476605Y-69985172D01*
X113068249Y-70230239D01*
X113600715Y-70586022D01*
X114053539Y-71038846D01*
X114409322Y-71571312D01*
X114654389Y-72162956D01*
X114676402Y-72273624D01*
X114779323Y-72791041D01*
X114779323Y-73431435D01*
X114753160Y-73562966D01*
X114654389Y-74059520D01*
X114409322Y-74651164D01*
X114161588Y-75021923D01*
X114053540Y-75183629D01*
X113600714Y-75636455D01*
X113494800Y-75707224D01*
X113068249Y-75992237D01*
X112476605Y-76237304D01*
X112162562Y-76299771D01*
X111848520Y-76362238D01*
X111208126Y-76362238D01*
X110894084Y-76299771D01*
X110580041Y-76237304D01*
X109988397Y-75992237D01*
X109561846Y-75707224D01*
X109455932Y-75636455D01*
X109003106Y-75183629D01*
X108895058Y-75021923D01*
X108647324Y-74651164D01*
X108402257Y-74059520D01*
X108303486Y-73562966D01*
X108277323Y-73431435D01*
X108277323Y-72791041D01*
X108380244Y-72273624D01*
X108402257Y-72162956D01*
X108647324Y-71571312D01*
X109003107Y-71038846D01*
X109455931Y-70586022D01*
X109988397Y-70230239D01*
X110580041Y-69985172D01*
X110984762Y-69904668D01*
X111208126Y-69860238D01*
X111848520Y-69860238D01*
X112071884Y-69904668D01*
X112071884Y-69904668D01*
G37*
G36*
X122933512Y-72243927D02*
G01*
X123082812Y-72273624D01*
X123246784Y-72341544D01*
X123394354Y-72440147D01*
X123519853Y-72565646D01*
X123618456Y-72713216D01*
X123686376Y-72877188D01*
X123721000Y-73051259D01*
X123721000Y-73228741D01*
X123686376Y-73402812D01*
X123618456Y-73566784D01*
X123519853Y-73714354D01*
X123394354Y-73839853D01*
X123246784Y-73938456D01*
X123101771Y-73998523D01*
X123080171Y-74010068D01*
X123061229Y-74025613D01*
X123045684Y-74044555D01*
X123034133Y-74066166D01*
X123027020Y-74089615D01*
X123024618Y-74114001D01*
X123027020Y-74138387D01*
X123034133Y-74161836D01*
X123045684Y-74183447D01*
X123061229Y-74202389D01*
X123080171Y-74217934D01*
X123101782Y-74229485D01*
X123125231Y-74236598D01*
X123149617Y-74239000D01*
X123721000Y-74239000D01*
X123721000Y-76041000D01*
X121919000Y-76041000D01*
X121919000Y-74239000D01*
X122490383Y-74239000D01*
X122514769Y-74236598D01*
X122538218Y-74229485D01*
X122559829Y-74217934D01*
X122578771Y-74202389D01*
X122594316Y-74183447D01*
X122605867Y-74161836D01*
X122612980Y-74138387D01*
X122615382Y-74114001D01*
X122612980Y-74089615D01*
X122605867Y-74066166D01*
X122594316Y-74044555D01*
X122578771Y-74025613D01*
X122559829Y-74010068D01*
X122538229Y-73998523D01*
X122393216Y-73938456D01*
X122245646Y-73839853D01*
X122120147Y-73714354D01*
X122021544Y-73566784D01*
X121953624Y-73402812D01*
X121919000Y-73228741D01*
X121919000Y-73051259D01*
X121953624Y-72877188D01*
X122021544Y-72713216D01*
X122120147Y-72565646D01*
X122245646Y-72440147D01*
X122393216Y-72341544D01*
X122557188Y-72273624D01*
X122706488Y-72243927D01*
X122731258Y-72239000D01*
X122908742Y-72239000D01*
X122933512Y-72243927D01*
X122933512Y-72243927D01*
G37*
G36*
X125433512Y-72243927D02*
G01*
X125582812Y-72273624D01*
X125746784Y-72341544D01*
X125894354Y-72440147D01*
X126019853Y-72565646D01*
X126118456Y-72713216D01*
X126186376Y-72877188D01*
X126221000Y-73051259D01*
X126221000Y-73228741D01*
X126186376Y-73402812D01*
X126118456Y-73566784D01*
X126019853Y-73714354D01*
X125894354Y-73839853D01*
X125746784Y-73938456D01*
X125582812Y-74006376D01*
X125527362Y-74017405D01*
X125503922Y-74024516D01*
X125482311Y-74036067D01*
X125463369Y-74051613D01*
X125447824Y-74070555D01*
X125436273Y-74092165D01*
X125429160Y-74115614D01*
X125426758Y-74140000D01*
X125429160Y-74164387D01*
X125436273Y-74187835D01*
X125447824Y-74209446D01*
X125463370Y-74228388D01*
X125482312Y-74243933D01*
X125503922Y-74255484D01*
X125527362Y-74262595D01*
X125582812Y-74273624D01*
X125746784Y-74341544D01*
X125894354Y-74440147D01*
X126019853Y-74565646D01*
X126118456Y-74713216D01*
X126186376Y-74877188D01*
X126221000Y-75051259D01*
X126221000Y-75228741D01*
X126186376Y-75402812D01*
X126118456Y-75566784D01*
X126019853Y-75714354D01*
X125894354Y-75839853D01*
X125746784Y-75938456D01*
X125582812Y-76006376D01*
X125433512Y-76036073D01*
X125408742Y-76041000D01*
X125231258Y-76041000D01*
X125206488Y-76036073D01*
X125057188Y-76006376D01*
X124893216Y-75938456D01*
X124745646Y-75839853D01*
X124620147Y-75714354D01*
X124521544Y-75566784D01*
X124453624Y-75402812D01*
X124419000Y-75228741D01*
X124419000Y-75051259D01*
X124453624Y-74877188D01*
X124521544Y-74713216D01*
X124620147Y-74565646D01*
X124745646Y-74440147D01*
X124893216Y-74341544D01*
X125057188Y-74273624D01*
X125112638Y-74262595D01*
X125136078Y-74255484D01*
X125157689Y-74243933D01*
X125176631Y-74228387D01*
X125192176Y-74209445D01*
X125203727Y-74187835D01*
X125210840Y-74164386D01*
X125213242Y-74140000D01*
X125210840Y-74115613D01*
X125203727Y-74092165D01*
X125192176Y-74070554D01*
X125176630Y-74051612D01*
X125157688Y-74036067D01*
X125136078Y-74024516D01*
X125112638Y-74017405D01*
X125057188Y-74006376D01*
X124893216Y-73938456D01*
X124745646Y-73839853D01*
X124620147Y-73714354D01*
X124521544Y-73566784D01*
X124453624Y-73402812D01*
X124419000Y-73228741D01*
X124419000Y-73051259D01*
X124453624Y-72877188D01*
X124521544Y-72713216D01*
X124620147Y-72565646D01*
X124745646Y-72440147D01*
X124893216Y-72341544D01*
X125057188Y-72273624D01*
X125206488Y-72243927D01*
X125231258Y-72239000D01*
X125408742Y-72239000D01*
X125433512Y-72243927D01*
X125433512Y-72243927D01*
G37*
G36*
X167416000Y-75651000D02*
G01*
X166714000Y-75651000D01*
X166714000Y-74549000D01*
X167416000Y-74549000D01*
X167416000Y-75651000D01*
X167416000Y-75651000D01*
G37*
G36*
X137816000Y-75651000D02*
G01*
X137114000Y-75651000D01*
X137114000Y-74549000D01*
X137816000Y-74549000D01*
X137816000Y-75651000D01*
X137816000Y-75651000D01*
G37*
G36*
X155726000Y-75651000D02*
G01*
X155024000Y-75651000D01*
X155024000Y-74549000D01*
X155726000Y-74549000D01*
X155726000Y-75651000D01*
X155726000Y-75651000D01*
G37*
G36*
X153816000Y-75651000D02*
G01*
X153114000Y-75651000D01*
X153114000Y-74549000D01*
X153816000Y-74549000D01*
X153816000Y-75651000D01*
X153816000Y-75651000D01*
G37*
G36*
X181046000Y-75651000D02*
G01*
X180344000Y-75651000D01*
X180344000Y-74549000D01*
X181046000Y-74549000D01*
X181046000Y-75651000D01*
X181046000Y-75651000D01*
G37*
G36*
X179136000Y-75651000D02*
G01*
X178434000Y-75651000D01*
X178434000Y-74549000D01*
X179136000Y-74549000D01*
X179136000Y-75651000D01*
X179136000Y-75651000D01*
G37*
G36*
X165506000Y-75651000D02*
G01*
X164804000Y-75651000D01*
X164804000Y-74549000D01*
X165506000Y-74549000D01*
X165506000Y-75651000D01*
X165506000Y-75651000D01*
G37*
G36*
X140266000Y-75651000D02*
G01*
X139564000Y-75651000D01*
X139564000Y-74549000D01*
X140266000Y-74549000D01*
X140266000Y-75651000D01*
X140266000Y-75651000D01*
G37*
G36*
X135906000Y-75651000D02*
G01*
X135204000Y-75651000D01*
X135204000Y-74549000D01*
X135906000Y-74549000D01*
X135906000Y-75651000D01*
X135906000Y-75651000D01*
G37*
G36*
X151386000Y-75651000D02*
G01*
X150684000Y-75651000D01*
X150684000Y-74549000D01*
X151386000Y-74549000D01*
X151386000Y-75651000D01*
X151386000Y-75651000D01*
G37*
G36*
X142176000Y-75651000D02*
G01*
X141474000Y-75651000D01*
X141474000Y-74549000D01*
X142176000Y-74549000D01*
X142176000Y-75651000D01*
X142176000Y-75651000D01*
G37*
G36*
X149476000Y-75651000D02*
G01*
X148774000Y-75651000D01*
X148774000Y-74549000D01*
X149476000Y-74549000D01*
X149476000Y-75651000D01*
X149476000Y-75651000D01*
G37*
G36*
X104649561Y-73562966D02*
G01*
X104682383Y-73572923D01*
X104712632Y-73589092D01*
X104739148Y-73610852D01*
X104760908Y-73637368D01*
X104777077Y-73667617D01*
X104787034Y-73700439D01*
X104791000Y-73740713D01*
X104791000Y-75219287D01*
X104787034Y-75259561D01*
X104777077Y-75292383D01*
X104760908Y-75322632D01*
X104739148Y-75349148D01*
X104712632Y-75370908D01*
X104682383Y-75387077D01*
X104649561Y-75397034D01*
X104609287Y-75401000D01*
X102670713Y-75401000D01*
X102630439Y-75397034D01*
X102597617Y-75387077D01*
X102567368Y-75370908D01*
X102540852Y-75349148D01*
X102519092Y-75322632D01*
X102502923Y-75292383D01*
X102492966Y-75259561D01*
X102489000Y-75219287D01*
X102489000Y-73740713D01*
X102492966Y-73700439D01*
X102502923Y-73667617D01*
X102519092Y-73637368D01*
X102540852Y-73610852D01*
X102567368Y-73589092D01*
X102597617Y-73572923D01*
X102630439Y-73562966D01*
X102670713Y-73559000D01*
X104609287Y-73559000D01*
X104649561Y-73562966D01*
X104649561Y-73562966D01*
G37*
G36*
X170483500Y-73353500D02*
G01*
X168776500Y-73353500D01*
X168776500Y-71646500D01*
X170483500Y-71646500D01*
X170483500Y-73353500D01*
X170483500Y-73353500D01*
G37*
G36*
X143313500Y-73353500D02*
G01*
X141606500Y-73353500D01*
X141606500Y-71646500D01*
X143313500Y-71646500D01*
X143313500Y-73353500D01*
X143313500Y-73353500D01*
G37*
G36*
X156903500Y-73353500D02*
G01*
X155196500Y-73353500D01*
X155196500Y-71646500D01*
X156903500Y-71646500D01*
X156903500Y-73353500D01*
X156903500Y-73353500D01*
G37*
G36*
X184023500Y-73353500D02*
G01*
X182316500Y-73353500D01*
X182316500Y-71646500D01*
X184023500Y-71646500D01*
X184023500Y-73353500D01*
X184023500Y-73353500D01*
G37*
G36*
X135088228Y-71681703D02*
G01*
X135243100Y-71745853D01*
X135382481Y-71838985D01*
X135501015Y-71957519D01*
X135594147Y-72096900D01*
X135658297Y-72251772D01*
X135691000Y-72416184D01*
X135691000Y-72583816D01*
X135658297Y-72748228D01*
X135594147Y-72903100D01*
X135501015Y-73042481D01*
X135382481Y-73161015D01*
X135243100Y-73254147D01*
X135088228Y-73318297D01*
X134923816Y-73351000D01*
X134756184Y-73351000D01*
X134591772Y-73318297D01*
X134436900Y-73254147D01*
X134297519Y-73161015D01*
X134178985Y-73042481D01*
X134085853Y-72903100D01*
X134021703Y-72748228D01*
X133989000Y-72583816D01*
X133989000Y-72416184D01*
X134021703Y-72251772D01*
X134085853Y-72096900D01*
X134178985Y-71957519D01*
X134297519Y-71838985D01*
X134436900Y-71745853D01*
X134591772Y-71681703D01*
X134756184Y-71649000D01*
X134923816Y-71649000D01*
X135088228Y-71681703D01*
X135088228Y-71681703D01*
G37*
G36*
X148678228Y-71681703D02*
G01*
X148833100Y-71745853D01*
X148972481Y-71838985D01*
X149091015Y-71957519D01*
X149184147Y-72096900D01*
X149248297Y-72251772D01*
X149281000Y-72416184D01*
X149281000Y-72583816D01*
X149248297Y-72748228D01*
X149184147Y-72903100D01*
X149091015Y-73042481D01*
X148972481Y-73161015D01*
X148833100Y-73254147D01*
X148678228Y-73318297D01*
X148513816Y-73351000D01*
X148346184Y-73351000D01*
X148181772Y-73318297D01*
X148026900Y-73254147D01*
X147887519Y-73161015D01*
X147768985Y-73042481D01*
X147675853Y-72903100D01*
X147611703Y-72748228D01*
X147579000Y-72583816D01*
X147579000Y-72416184D01*
X147611703Y-72251772D01*
X147675853Y-72096900D01*
X147768985Y-71957519D01*
X147887519Y-71838985D01*
X148026900Y-71745853D01*
X148181772Y-71681703D01*
X148346184Y-71649000D01*
X148513816Y-71649000D01*
X148678228Y-71681703D01*
X148678228Y-71681703D01*
G37*
G36*
X153758228Y-71681703D02*
G01*
X153913100Y-71745853D01*
X154052481Y-71838985D01*
X154171015Y-71957519D01*
X154264147Y-72096900D01*
X154328297Y-72251772D01*
X154361000Y-72416184D01*
X154361000Y-72583816D01*
X154328297Y-72748228D01*
X154264147Y-72903100D01*
X154171015Y-73042481D01*
X154052481Y-73161015D01*
X153913100Y-73254147D01*
X153758228Y-73318297D01*
X153593816Y-73351000D01*
X153426184Y-73351000D01*
X153261772Y-73318297D01*
X153106900Y-73254147D01*
X152967519Y-73161015D01*
X152848985Y-73042481D01*
X152755853Y-72903100D01*
X152691703Y-72748228D01*
X152659000Y-72583816D01*
X152659000Y-72416184D01*
X152691703Y-72251772D01*
X152755853Y-72096900D01*
X152848985Y-71957519D01*
X152967519Y-71838985D01*
X153106900Y-71745853D01*
X153261772Y-71681703D01*
X153426184Y-71649000D01*
X153593816Y-71649000D01*
X153758228Y-71681703D01*
X153758228Y-71681703D01*
G37*
G36*
X167338228Y-71681703D02*
G01*
X167493100Y-71745853D01*
X167632481Y-71838985D01*
X167751015Y-71957519D01*
X167844147Y-72096900D01*
X167908297Y-72251772D01*
X167941000Y-72416184D01*
X167941000Y-72583816D01*
X167908297Y-72748228D01*
X167844147Y-72903100D01*
X167751015Y-73042481D01*
X167632481Y-73161015D01*
X167493100Y-73254147D01*
X167338228Y-73318297D01*
X167173816Y-73351000D01*
X167006184Y-73351000D01*
X166841772Y-73318297D01*
X166686900Y-73254147D01*
X166547519Y-73161015D01*
X166428985Y-73042481D01*
X166335853Y-72903100D01*
X166271703Y-72748228D01*
X166239000Y-72583816D01*
X166239000Y-72416184D01*
X166271703Y-72251772D01*
X166335853Y-72096900D01*
X166428985Y-71957519D01*
X166547519Y-71838985D01*
X166686900Y-71745853D01*
X166841772Y-71681703D01*
X167006184Y-71649000D01*
X167173816Y-71649000D01*
X167338228Y-71681703D01*
X167338228Y-71681703D01*
G37*
G36*
X164798228Y-71681703D02*
G01*
X164953100Y-71745853D01*
X165092481Y-71838985D01*
X165211015Y-71957519D01*
X165304147Y-72096900D01*
X165368297Y-72251772D01*
X165401000Y-72416184D01*
X165401000Y-72583816D01*
X165368297Y-72748228D01*
X165304147Y-72903100D01*
X165211015Y-73042481D01*
X165092481Y-73161015D01*
X164953100Y-73254147D01*
X164798228Y-73318297D01*
X164633816Y-73351000D01*
X164466184Y-73351000D01*
X164301772Y-73318297D01*
X164146900Y-73254147D01*
X164007519Y-73161015D01*
X163888985Y-73042481D01*
X163795853Y-72903100D01*
X163731703Y-72748228D01*
X163699000Y-72583816D01*
X163699000Y-72416184D01*
X163731703Y-72251772D01*
X163795853Y-72096900D01*
X163888985Y-71957519D01*
X164007519Y-71838985D01*
X164146900Y-71745853D01*
X164301772Y-71681703D01*
X164466184Y-71649000D01*
X164633816Y-71649000D01*
X164798228Y-71681703D01*
X164798228Y-71681703D01*
G37*
G36*
X151218228Y-71681703D02*
G01*
X151373100Y-71745853D01*
X151512481Y-71838985D01*
X151631015Y-71957519D01*
X151724147Y-72096900D01*
X151788297Y-72251772D01*
X151821000Y-72416184D01*
X151821000Y-72583816D01*
X151788297Y-72748228D01*
X151724147Y-72903100D01*
X151631015Y-73042481D01*
X151512481Y-73161015D01*
X151373100Y-73254147D01*
X151218228Y-73318297D01*
X151053816Y-73351000D01*
X150886184Y-73351000D01*
X150721772Y-73318297D01*
X150566900Y-73254147D01*
X150427519Y-73161015D01*
X150308985Y-73042481D01*
X150215853Y-72903100D01*
X150151703Y-72748228D01*
X150119000Y-72583816D01*
X150119000Y-72416184D01*
X150151703Y-72251772D01*
X150215853Y-72096900D01*
X150308985Y-71957519D01*
X150427519Y-71838985D01*
X150566900Y-71745853D01*
X150721772Y-71681703D01*
X150886184Y-71649000D01*
X151053816Y-71649000D01*
X151218228Y-71681703D01*
X151218228Y-71681703D01*
G37*
G36*
X162258228Y-71681703D02*
G01*
X162413100Y-71745853D01*
X162552481Y-71838985D01*
X162671015Y-71957519D01*
X162764147Y-72096900D01*
X162828297Y-72251772D01*
X162861000Y-72416184D01*
X162861000Y-72583816D01*
X162828297Y-72748228D01*
X162764147Y-72903100D01*
X162671015Y-73042481D01*
X162552481Y-73161015D01*
X162413100Y-73254147D01*
X162258228Y-73318297D01*
X162093816Y-73351000D01*
X161926184Y-73351000D01*
X161761772Y-73318297D01*
X161606900Y-73254147D01*
X161467519Y-73161015D01*
X161348985Y-73042481D01*
X161255853Y-72903100D01*
X161191703Y-72748228D01*
X161159000Y-72583816D01*
X161159000Y-72416184D01*
X161191703Y-72251772D01*
X161255853Y-72096900D01*
X161348985Y-71957519D01*
X161467519Y-71838985D01*
X161606900Y-71745853D01*
X161761772Y-71681703D01*
X161926184Y-71649000D01*
X162093816Y-71649000D01*
X162258228Y-71681703D01*
X162258228Y-71681703D01*
G37*
G36*
X180878228Y-71681703D02*
G01*
X181033100Y-71745853D01*
X181172481Y-71838985D01*
X181291015Y-71957519D01*
X181384147Y-72096900D01*
X181448297Y-72251772D01*
X181481000Y-72416184D01*
X181481000Y-72583816D01*
X181448297Y-72748228D01*
X181384147Y-72903100D01*
X181291015Y-73042481D01*
X181172481Y-73161015D01*
X181033100Y-73254147D01*
X180878228Y-73318297D01*
X180713816Y-73351000D01*
X180546184Y-73351000D01*
X180381772Y-73318297D01*
X180226900Y-73254147D01*
X180087519Y-73161015D01*
X179968985Y-73042481D01*
X179875853Y-72903100D01*
X179811703Y-72748228D01*
X179779000Y-72583816D01*
X179779000Y-72416184D01*
X179811703Y-72251772D01*
X179875853Y-72096900D01*
X179968985Y-71957519D01*
X180087519Y-71838985D01*
X180226900Y-71745853D01*
X180381772Y-71681703D01*
X180546184Y-71649000D01*
X180713816Y-71649000D01*
X180878228Y-71681703D01*
X180878228Y-71681703D01*
G37*
G36*
X178338228Y-71681703D02*
G01*
X178493100Y-71745853D01*
X178632481Y-71838985D01*
X178751015Y-71957519D01*
X178844147Y-72096900D01*
X178908297Y-72251772D01*
X178941000Y-72416184D01*
X178941000Y-72583816D01*
X178908297Y-72748228D01*
X178844147Y-72903100D01*
X178751015Y-73042481D01*
X178632481Y-73161015D01*
X178493100Y-73254147D01*
X178338228Y-73318297D01*
X178173816Y-73351000D01*
X178006184Y-73351000D01*
X177841772Y-73318297D01*
X177686900Y-73254147D01*
X177547519Y-73161015D01*
X177428985Y-73042481D01*
X177335853Y-72903100D01*
X177271703Y-72748228D01*
X177239000Y-72583816D01*
X177239000Y-72416184D01*
X177271703Y-72251772D01*
X177335853Y-72096900D01*
X177428985Y-71957519D01*
X177547519Y-71838985D01*
X177686900Y-71745853D01*
X177841772Y-71681703D01*
X178006184Y-71649000D01*
X178173816Y-71649000D01*
X178338228Y-71681703D01*
X178338228Y-71681703D01*
G37*
G36*
X137628228Y-71681703D02*
G01*
X137783100Y-71745853D01*
X137922481Y-71838985D01*
X138041015Y-71957519D01*
X138134147Y-72096900D01*
X138198297Y-72251772D01*
X138231000Y-72416184D01*
X138231000Y-72583816D01*
X138198297Y-72748228D01*
X138134147Y-72903100D01*
X138041015Y-73042481D01*
X137922481Y-73161015D01*
X137783100Y-73254147D01*
X137628228Y-73318297D01*
X137463816Y-73351000D01*
X137296184Y-73351000D01*
X137131772Y-73318297D01*
X136976900Y-73254147D01*
X136837519Y-73161015D01*
X136718985Y-73042481D01*
X136625853Y-72903100D01*
X136561703Y-72748228D01*
X136529000Y-72583816D01*
X136529000Y-72416184D01*
X136561703Y-72251772D01*
X136625853Y-72096900D01*
X136718985Y-71957519D01*
X136837519Y-71838985D01*
X136976900Y-71745853D01*
X137131772Y-71681703D01*
X137296184Y-71649000D01*
X137463816Y-71649000D01*
X137628228Y-71681703D01*
X137628228Y-71681703D01*
G37*
G36*
X175798228Y-71681703D02*
G01*
X175953100Y-71745853D01*
X176092481Y-71838985D01*
X176211015Y-71957519D01*
X176304147Y-72096900D01*
X176368297Y-72251772D01*
X176401000Y-72416184D01*
X176401000Y-72583816D01*
X176368297Y-72748228D01*
X176304147Y-72903100D01*
X176211015Y-73042481D01*
X176092481Y-73161015D01*
X175953100Y-73254147D01*
X175798228Y-73318297D01*
X175633816Y-73351000D01*
X175466184Y-73351000D01*
X175301772Y-73318297D01*
X175146900Y-73254147D01*
X175007519Y-73161015D01*
X174888985Y-73042481D01*
X174795853Y-72903100D01*
X174731703Y-72748228D01*
X174699000Y-72583816D01*
X174699000Y-72416184D01*
X174731703Y-72251772D01*
X174795853Y-72096900D01*
X174888985Y-71957519D01*
X175007519Y-71838985D01*
X175146900Y-71745853D01*
X175301772Y-71681703D01*
X175466184Y-71649000D01*
X175633816Y-71649000D01*
X175798228Y-71681703D01*
X175798228Y-71681703D01*
G37*
G36*
X140168228Y-71681703D02*
G01*
X140323100Y-71745853D01*
X140462481Y-71838985D01*
X140581015Y-71957519D01*
X140674147Y-72096900D01*
X140738297Y-72251772D01*
X140771000Y-72416184D01*
X140771000Y-72583816D01*
X140738297Y-72748228D01*
X140674147Y-72903100D01*
X140581015Y-73042481D01*
X140462481Y-73161015D01*
X140323100Y-73254147D01*
X140168228Y-73318297D01*
X140003816Y-73351000D01*
X139836184Y-73351000D01*
X139671772Y-73318297D01*
X139516900Y-73254147D01*
X139377519Y-73161015D01*
X139258985Y-73042481D01*
X139165853Y-72903100D01*
X139101703Y-72748228D01*
X139069000Y-72583816D01*
X139069000Y-72416184D01*
X139101703Y-72251772D01*
X139165853Y-72096900D01*
X139258985Y-71957519D01*
X139377519Y-71838985D01*
X139516900Y-71745853D01*
X139671772Y-71681703D01*
X139836184Y-71649000D01*
X140003816Y-71649000D01*
X140168228Y-71681703D01*
X140168228Y-71681703D01*
G37*
G36*
X118575331Y-68698211D02*
G01*
X118903092Y-68833974D01*
X119198070Y-69031072D01*
X119448928Y-69281930D01*
X119646026Y-69576908D01*
X119781789Y-69904669D01*
X119851000Y-70252616D01*
X119851000Y-70607384D01*
X119781789Y-70955331D01*
X119646026Y-71283092D01*
X119448928Y-71578070D01*
X119198070Y-71828928D01*
X118903092Y-72026026D01*
X118575331Y-72161789D01*
X118227384Y-72231000D01*
X117872616Y-72231000D01*
X117524669Y-72161789D01*
X117196908Y-72026026D01*
X116901930Y-71828928D01*
X116651072Y-71578070D01*
X116453974Y-71283092D01*
X116318211Y-70955331D01*
X116249000Y-70607384D01*
X116249000Y-70252616D01*
X116318211Y-69904669D01*
X116453974Y-69576908D01*
X116651072Y-69281930D01*
X116901930Y-69031072D01*
X117196908Y-68833974D01*
X117524669Y-68698211D01*
X117872616Y-68629000D01*
X118227384Y-68629000D01*
X118575331Y-68698211D01*
X118575331Y-68698211D01*
G37*
G36*
X130615331Y-68698211D02*
G01*
X130943092Y-68833974D01*
X131238070Y-69031072D01*
X131488928Y-69281930D01*
X131686026Y-69576908D01*
X131821789Y-69904669D01*
X131891000Y-70252616D01*
X131891000Y-70607384D01*
X131821789Y-70955331D01*
X131686026Y-71283092D01*
X131488928Y-71578070D01*
X131238070Y-71828928D01*
X130943092Y-72026026D01*
X130615331Y-72161789D01*
X130267384Y-72231000D01*
X129912616Y-72231000D01*
X129564669Y-72161789D01*
X129236908Y-72026026D01*
X128941930Y-71828928D01*
X128691072Y-71578070D01*
X128493974Y-71283092D01*
X128358211Y-70955331D01*
X128289000Y-70607384D01*
X128289000Y-70252616D01*
X128358211Y-69904669D01*
X128493974Y-69576908D01*
X128691072Y-69281930D01*
X128941930Y-69031072D01*
X129236908Y-68833974D01*
X129564669Y-68698211D01*
X129912616Y-68629000D01*
X130267384Y-68629000D01*
X130615331Y-68698211D01*
X130615331Y-68698211D01*
G37*
G36*
X178929591Y-69503085D02*
G01*
X178963569Y-69513393D01*
X178994890Y-69530134D01*
X179022339Y-69552661D01*
X179044866Y-69580110D01*
X179061607Y-69611431D01*
X179071915Y-69645409D01*
X179076000Y-69686890D01*
X179076000Y-70288110D01*
X179071915Y-70329591D01*
X179061607Y-70363569D01*
X179044866Y-70394890D01*
X179022339Y-70422339D01*
X178994890Y-70444866D01*
X178963569Y-70461607D01*
X178929591Y-70471915D01*
X178888110Y-70476000D01*
X178211890Y-70476000D01*
X178170409Y-70471915D01*
X178136431Y-70461607D01*
X178105110Y-70444866D01*
X178077661Y-70422339D01*
X178055134Y-70394890D01*
X178038393Y-70363569D01*
X178028085Y-70329591D01*
X178024000Y-70288110D01*
X178024000Y-69686890D01*
X178028085Y-69645409D01*
X178038393Y-69611431D01*
X178055134Y-69580110D01*
X178077661Y-69552661D01*
X178105110Y-69530134D01*
X178136431Y-69513393D01*
X178170409Y-69503085D01*
X178211890Y-69499000D01*
X178888110Y-69499000D01*
X178929591Y-69503085D01*
X178929591Y-69503085D01*
G37*
G36*
X177219591Y-69503085D02*
G01*
X177253569Y-69513393D01*
X177284890Y-69530134D01*
X177312339Y-69552661D01*
X177334866Y-69580110D01*
X177351607Y-69611431D01*
X177361915Y-69645409D01*
X177366000Y-69686890D01*
X177366000Y-70288110D01*
X177361915Y-70329591D01*
X177351607Y-70363569D01*
X177334866Y-70394890D01*
X177312339Y-70422339D01*
X177284890Y-70444866D01*
X177253569Y-70461607D01*
X177219591Y-70471915D01*
X177178110Y-70476000D01*
X176501890Y-70476000D01*
X176460409Y-70471915D01*
X176426431Y-70461607D01*
X176395110Y-70444866D01*
X176367661Y-70422339D01*
X176345134Y-70394890D01*
X176328393Y-70363569D01*
X176318085Y-70329591D01*
X176314000Y-70288110D01*
X176314000Y-69686890D01*
X176318085Y-69645409D01*
X176328393Y-69611431D01*
X176345134Y-69580110D01*
X176367661Y-69552661D01*
X176395110Y-69530134D01*
X176426431Y-69513393D01*
X176460409Y-69503085D01*
X176501890Y-69499000D01*
X177178110Y-69499000D01*
X177219591Y-69503085D01*
X177219591Y-69503085D01*
G37*
G36*
X165399591Y-69503085D02*
G01*
X165433569Y-69513393D01*
X165464890Y-69530134D01*
X165492339Y-69552661D01*
X165514866Y-69580110D01*
X165531607Y-69611431D01*
X165541915Y-69645409D01*
X165546000Y-69686890D01*
X165546000Y-70288110D01*
X165541915Y-70329591D01*
X165531607Y-70363569D01*
X165514866Y-70394890D01*
X165492339Y-70422339D01*
X165464890Y-70444866D01*
X165433569Y-70461607D01*
X165399591Y-70471915D01*
X165358110Y-70476000D01*
X164681890Y-70476000D01*
X164640409Y-70471915D01*
X164606431Y-70461607D01*
X164575110Y-70444866D01*
X164547661Y-70422339D01*
X164525134Y-70394890D01*
X164508393Y-70363569D01*
X164498085Y-70329591D01*
X164494000Y-70288110D01*
X164494000Y-69686890D01*
X164498085Y-69645409D01*
X164508393Y-69611431D01*
X164525134Y-69580110D01*
X164547661Y-69552661D01*
X164575110Y-69530134D01*
X164606431Y-69513393D01*
X164640409Y-69503085D01*
X164681890Y-69499000D01*
X165358110Y-69499000D01*
X165399591Y-69503085D01*
X165399591Y-69503085D01*
G37*
G36*
X163689591Y-69503085D02*
G01*
X163723569Y-69513393D01*
X163754890Y-69530134D01*
X163782339Y-69552661D01*
X163804866Y-69580110D01*
X163821607Y-69611431D01*
X163831915Y-69645409D01*
X163836000Y-69686890D01*
X163836000Y-70288110D01*
X163831915Y-70329591D01*
X163821607Y-70363569D01*
X163804866Y-70394890D01*
X163782339Y-70422339D01*
X163754890Y-70444866D01*
X163723569Y-70461607D01*
X163689591Y-70471915D01*
X163648110Y-70476000D01*
X162971890Y-70476000D01*
X162930409Y-70471915D01*
X162896431Y-70461607D01*
X162865110Y-70444866D01*
X162837661Y-70422339D01*
X162815134Y-70394890D01*
X162798393Y-70363569D01*
X162788085Y-70329591D01*
X162784000Y-70288110D01*
X162784000Y-69686890D01*
X162788085Y-69645409D01*
X162798393Y-69611431D01*
X162815134Y-69580110D01*
X162837661Y-69552661D01*
X162865110Y-69530134D01*
X162896431Y-69513393D01*
X162930409Y-69503085D01*
X162971890Y-69499000D01*
X163648110Y-69499000D01*
X163689591Y-69503085D01*
X163689591Y-69503085D01*
G37*
G36*
X155229591Y-69503085D02*
G01*
X155263569Y-69513393D01*
X155294890Y-69530134D01*
X155322339Y-69552661D01*
X155344866Y-69580110D01*
X155361607Y-69611431D01*
X155371915Y-69645409D01*
X155376000Y-69686890D01*
X155376000Y-70288110D01*
X155371915Y-70329591D01*
X155361607Y-70363569D01*
X155344866Y-70394890D01*
X155322339Y-70422339D01*
X155294890Y-70444866D01*
X155263569Y-70461607D01*
X155229591Y-70471915D01*
X155188110Y-70476000D01*
X154511890Y-70476000D01*
X154470409Y-70471915D01*
X154436431Y-70461607D01*
X154405110Y-70444866D01*
X154377661Y-70422339D01*
X154355134Y-70394890D01*
X154338393Y-70363569D01*
X154328085Y-70329591D01*
X154324000Y-70288110D01*
X154324000Y-69686890D01*
X154328085Y-69645409D01*
X154338393Y-69611431D01*
X154355134Y-69580110D01*
X154377661Y-69552661D01*
X154405110Y-69530134D01*
X154436431Y-69513393D01*
X154470409Y-69503085D01*
X154511890Y-69499000D01*
X155188110Y-69499000D01*
X155229591Y-69503085D01*
X155229591Y-69503085D01*
G37*
G36*
X153489591Y-69503085D02*
G01*
X153523569Y-69513393D01*
X153554890Y-69530134D01*
X153582339Y-69552661D01*
X153604866Y-69580110D01*
X153621607Y-69611431D01*
X153631915Y-69645409D01*
X153636000Y-69686890D01*
X153636000Y-70288110D01*
X153631915Y-70329591D01*
X153621607Y-70363569D01*
X153604866Y-70394890D01*
X153582339Y-70422339D01*
X153554890Y-70444866D01*
X153523569Y-70461607D01*
X153489591Y-70471915D01*
X153448110Y-70476000D01*
X152771890Y-70476000D01*
X152730409Y-70471915D01*
X152696431Y-70461607D01*
X152665110Y-70444866D01*
X152637661Y-70422339D01*
X152615134Y-70394890D01*
X152598393Y-70363569D01*
X152588085Y-70329591D01*
X152584000Y-70288110D01*
X152584000Y-69686890D01*
X152588085Y-69645409D01*
X152598393Y-69611431D01*
X152615134Y-69580110D01*
X152637661Y-69552661D01*
X152665110Y-69530134D01*
X152696431Y-69513393D01*
X152730409Y-69503085D01*
X152771890Y-69499000D01*
X153448110Y-69499000D01*
X153489591Y-69503085D01*
X153489591Y-69503085D01*
G37*
G36*
X150019591Y-69503085D02*
G01*
X150053569Y-69513393D01*
X150084890Y-69530134D01*
X150112339Y-69552661D01*
X150134866Y-69580110D01*
X150151607Y-69611431D01*
X150161915Y-69645409D01*
X150166000Y-69686890D01*
X150166000Y-70288110D01*
X150161915Y-70329591D01*
X150151607Y-70363569D01*
X150134866Y-70394890D01*
X150112339Y-70422339D01*
X150084890Y-70444866D01*
X150053569Y-70461607D01*
X150019591Y-70471915D01*
X149978110Y-70476000D01*
X149301890Y-70476000D01*
X149260409Y-70471915D01*
X149226431Y-70461607D01*
X149195110Y-70444866D01*
X149167661Y-70422339D01*
X149145134Y-70394890D01*
X149128393Y-70363569D01*
X149118085Y-70329591D01*
X149114000Y-70288110D01*
X149114000Y-69686890D01*
X149118085Y-69645409D01*
X149128393Y-69611431D01*
X149145134Y-69580110D01*
X149167661Y-69552661D01*
X149195110Y-69530134D01*
X149226431Y-69513393D01*
X149260409Y-69503085D01*
X149301890Y-69499000D01*
X149978110Y-69499000D01*
X150019591Y-69503085D01*
X150019591Y-69503085D01*
G37*
G36*
X139929591Y-69503085D02*
G01*
X139963569Y-69513393D01*
X139994890Y-69530134D01*
X140022339Y-69552661D01*
X140044866Y-69580110D01*
X140061607Y-69611431D01*
X140071915Y-69645409D01*
X140076000Y-69686890D01*
X140076000Y-70288110D01*
X140071915Y-70329591D01*
X140061607Y-70363569D01*
X140044866Y-70394890D01*
X140022339Y-70422339D01*
X139994890Y-70444866D01*
X139963569Y-70461607D01*
X139929591Y-70471915D01*
X139888110Y-70476000D01*
X139211890Y-70476000D01*
X139170409Y-70471915D01*
X139136431Y-70461607D01*
X139105110Y-70444866D01*
X139077661Y-70422339D01*
X139055134Y-70394890D01*
X139038393Y-70363569D01*
X139028085Y-70329591D01*
X139024000Y-70288110D01*
X139024000Y-69686890D01*
X139028085Y-69645409D01*
X139038393Y-69611431D01*
X139055134Y-69580110D01*
X139077661Y-69552661D01*
X139105110Y-69530134D01*
X139136431Y-69513393D01*
X139170409Y-69503085D01*
X139211890Y-69499000D01*
X139888110Y-69499000D01*
X139929591Y-69503085D01*
X139929591Y-69503085D01*
G37*
G36*
X136429591Y-69503085D02*
G01*
X136463569Y-69513393D01*
X136494890Y-69530134D01*
X136522339Y-69552661D01*
X136544866Y-69580110D01*
X136561607Y-69611431D01*
X136571915Y-69645409D01*
X136576000Y-69686890D01*
X136576000Y-70288110D01*
X136571915Y-70329591D01*
X136561607Y-70363569D01*
X136544866Y-70394890D01*
X136522339Y-70422339D01*
X136494890Y-70444866D01*
X136463569Y-70461607D01*
X136429591Y-70471915D01*
X136388110Y-70476000D01*
X135711890Y-70476000D01*
X135670409Y-70471915D01*
X135636431Y-70461607D01*
X135605110Y-70444866D01*
X135577661Y-70422339D01*
X135555134Y-70394890D01*
X135538393Y-70363569D01*
X135528085Y-70329591D01*
X135524000Y-70288110D01*
X135524000Y-69686890D01*
X135528085Y-69645409D01*
X135538393Y-69611431D01*
X135555134Y-69580110D01*
X135577661Y-69552661D01*
X135605110Y-69530134D01*
X135636431Y-69513393D01*
X135670409Y-69503085D01*
X135711890Y-69499000D01*
X136388110Y-69499000D01*
X136429591Y-69503085D01*
X136429591Y-69503085D01*
G37*
G36*
X138199591Y-69503085D02*
G01*
X138233569Y-69513393D01*
X138264890Y-69530134D01*
X138292339Y-69552661D01*
X138314866Y-69580110D01*
X138331607Y-69611431D01*
X138341915Y-69645409D01*
X138346000Y-69686890D01*
X138346000Y-70288110D01*
X138341915Y-70329591D01*
X138331607Y-70363569D01*
X138314866Y-70394890D01*
X138292339Y-70422339D01*
X138264890Y-70444866D01*
X138233569Y-70461607D01*
X138199591Y-70471915D01*
X138158110Y-70476000D01*
X137481890Y-70476000D01*
X137440409Y-70471915D01*
X137406431Y-70461607D01*
X137375110Y-70444866D01*
X137347661Y-70422339D01*
X137325134Y-70394890D01*
X137308393Y-70363569D01*
X137298085Y-70329591D01*
X137294000Y-70288110D01*
X137294000Y-69686890D01*
X137298085Y-69645409D01*
X137308393Y-69611431D01*
X137325134Y-69580110D01*
X137347661Y-69552661D01*
X137375110Y-69530134D01*
X137406431Y-69513393D01*
X137440409Y-69503085D01*
X137481890Y-69499000D01*
X138158110Y-69499000D01*
X138199591Y-69503085D01*
X138199591Y-69503085D01*
G37*
G36*
X141679591Y-69503085D02*
G01*
X141713569Y-69513393D01*
X141744890Y-69530134D01*
X141772339Y-69552661D01*
X141794866Y-69580110D01*
X141811607Y-69611431D01*
X141821915Y-69645409D01*
X141826000Y-69686890D01*
X141826000Y-70288110D01*
X141821915Y-70329591D01*
X141811607Y-70363569D01*
X141794866Y-70394890D01*
X141772339Y-70422339D01*
X141744890Y-70444866D01*
X141713569Y-70461607D01*
X141679591Y-70471915D01*
X141638110Y-70476000D01*
X140961890Y-70476000D01*
X140920409Y-70471915D01*
X140886431Y-70461607D01*
X140855110Y-70444866D01*
X140827661Y-70422339D01*
X140805134Y-70394890D01*
X140788393Y-70363569D01*
X140778085Y-70329591D01*
X140774000Y-70288110D01*
X140774000Y-69686890D01*
X140778085Y-69645409D01*
X140788393Y-69611431D01*
X140805134Y-69580110D01*
X140827661Y-69552661D01*
X140855110Y-69530134D01*
X140886431Y-69513393D01*
X140920409Y-69503085D01*
X140961890Y-69499000D01*
X141638110Y-69499000D01*
X141679591Y-69503085D01*
X141679591Y-69503085D01*
G37*
G36*
X151749591Y-69503085D02*
G01*
X151783569Y-69513393D01*
X151814890Y-69530134D01*
X151842339Y-69552661D01*
X151864866Y-69580110D01*
X151881607Y-69611431D01*
X151891915Y-69645409D01*
X151896000Y-69686890D01*
X151896000Y-70288110D01*
X151891915Y-70329591D01*
X151881607Y-70363569D01*
X151864866Y-70394890D01*
X151842339Y-70422339D01*
X151814890Y-70444866D01*
X151783569Y-70461607D01*
X151749591Y-70471915D01*
X151708110Y-70476000D01*
X151031890Y-70476000D01*
X150990409Y-70471915D01*
X150956431Y-70461607D01*
X150925110Y-70444866D01*
X150897661Y-70422339D01*
X150875134Y-70394890D01*
X150858393Y-70363569D01*
X150848085Y-70329591D01*
X150844000Y-70288110D01*
X150844000Y-69686890D01*
X150848085Y-69645409D01*
X150858393Y-69611431D01*
X150875134Y-69580110D01*
X150897661Y-69552661D01*
X150925110Y-69530134D01*
X150956431Y-69513393D01*
X150990409Y-69503085D01*
X151031890Y-69499000D01*
X151708110Y-69499000D01*
X151749591Y-69503085D01*
X151749591Y-69503085D01*
G37*
G36*
X138199591Y-67928085D02*
G01*
X138233569Y-67938393D01*
X138264890Y-67955134D01*
X138292339Y-67977661D01*
X138314866Y-68005110D01*
X138331607Y-68036431D01*
X138341915Y-68070409D01*
X138346000Y-68111890D01*
X138346000Y-68713110D01*
X138341915Y-68754591D01*
X138331607Y-68788569D01*
X138314866Y-68819890D01*
X138292339Y-68847339D01*
X138264890Y-68869866D01*
X138233569Y-68886607D01*
X138199591Y-68896915D01*
X138158110Y-68901000D01*
X137481890Y-68901000D01*
X137440409Y-68896915D01*
X137406431Y-68886607D01*
X137375110Y-68869866D01*
X137347661Y-68847339D01*
X137325134Y-68819890D01*
X137308393Y-68788569D01*
X137298085Y-68754591D01*
X137294000Y-68713110D01*
X137294000Y-68111890D01*
X137298085Y-68070409D01*
X137308393Y-68036431D01*
X137325134Y-68005110D01*
X137347661Y-67977661D01*
X137375110Y-67955134D01*
X137406431Y-67938393D01*
X137440409Y-67928085D01*
X137481890Y-67924000D01*
X138158110Y-67924000D01*
X138199591Y-67928085D01*
X138199591Y-67928085D01*
G37*
G36*
X178929591Y-67928085D02*
G01*
X178963569Y-67938393D01*
X178994890Y-67955134D01*
X179022339Y-67977661D01*
X179044866Y-68005110D01*
X179061607Y-68036431D01*
X179071915Y-68070409D01*
X179076000Y-68111890D01*
X179076000Y-68713110D01*
X179071915Y-68754591D01*
X179061607Y-68788569D01*
X179044866Y-68819890D01*
X179022339Y-68847339D01*
X178994890Y-68869866D01*
X178963569Y-68886607D01*
X178929591Y-68896915D01*
X178888110Y-68901000D01*
X178211890Y-68901000D01*
X178170409Y-68896915D01*
X178136431Y-68886607D01*
X178105110Y-68869866D01*
X178077661Y-68847339D01*
X178055134Y-68819890D01*
X178038393Y-68788569D01*
X178028085Y-68754591D01*
X178024000Y-68713110D01*
X178024000Y-68111890D01*
X178028085Y-68070409D01*
X178038393Y-68036431D01*
X178055134Y-68005110D01*
X178077661Y-67977661D01*
X178105110Y-67955134D01*
X178136431Y-67938393D01*
X178170409Y-67928085D01*
X178211890Y-67924000D01*
X178888110Y-67924000D01*
X178929591Y-67928085D01*
X178929591Y-67928085D01*
G37*
G36*
X177219591Y-67928085D02*
G01*
X177253569Y-67938393D01*
X177284890Y-67955134D01*
X177312339Y-67977661D01*
X177334866Y-68005110D01*
X177351607Y-68036431D01*
X177361915Y-68070409D01*
X177366000Y-68111890D01*
X177366000Y-68713110D01*
X177361915Y-68754591D01*
X177351607Y-68788569D01*
X177334866Y-68819890D01*
X177312339Y-68847339D01*
X177284890Y-68869866D01*
X177253569Y-68886607D01*
X177219591Y-68896915D01*
X177178110Y-68901000D01*
X176501890Y-68901000D01*
X176460409Y-68896915D01*
X176426431Y-68886607D01*
X176395110Y-68869866D01*
X176367661Y-68847339D01*
X176345134Y-68819890D01*
X176328393Y-68788569D01*
X176318085Y-68754591D01*
X176314000Y-68713110D01*
X176314000Y-68111890D01*
X176318085Y-68070409D01*
X176328393Y-68036431D01*
X176345134Y-68005110D01*
X176367661Y-67977661D01*
X176395110Y-67955134D01*
X176426431Y-67938393D01*
X176460409Y-67928085D01*
X176501890Y-67924000D01*
X177178110Y-67924000D01*
X177219591Y-67928085D01*
X177219591Y-67928085D01*
G37*
G36*
X165399591Y-67928085D02*
G01*
X165433569Y-67938393D01*
X165464890Y-67955134D01*
X165492339Y-67977661D01*
X165514866Y-68005110D01*
X165531607Y-68036431D01*
X165541915Y-68070409D01*
X165546000Y-68111890D01*
X165546000Y-68713110D01*
X165541915Y-68754591D01*
X165531607Y-68788569D01*
X165514866Y-68819890D01*
X165492339Y-68847339D01*
X165464890Y-68869866D01*
X165433569Y-68886607D01*
X165399591Y-68896915D01*
X165358110Y-68901000D01*
X164681890Y-68901000D01*
X164640409Y-68896915D01*
X164606431Y-68886607D01*
X164575110Y-68869866D01*
X164547661Y-68847339D01*
X164525134Y-68819890D01*
X164508393Y-68788569D01*
X164498085Y-68754591D01*
X164494000Y-68713110D01*
X164494000Y-68111890D01*
X164498085Y-68070409D01*
X164508393Y-68036431D01*
X164525134Y-68005110D01*
X164547661Y-67977661D01*
X164575110Y-67955134D01*
X164606431Y-67938393D01*
X164640409Y-67928085D01*
X164681890Y-67924000D01*
X165358110Y-67924000D01*
X165399591Y-67928085D01*
X165399591Y-67928085D01*
G37*
G36*
X163689591Y-67928085D02*
G01*
X163723569Y-67938393D01*
X163754890Y-67955134D01*
X163782339Y-67977661D01*
X163804866Y-68005110D01*
X163821607Y-68036431D01*
X163831915Y-68070409D01*
X163836000Y-68111890D01*
X163836000Y-68713110D01*
X163831915Y-68754591D01*
X163821607Y-68788569D01*
X163804866Y-68819890D01*
X163782339Y-68847339D01*
X163754890Y-68869866D01*
X163723569Y-68886607D01*
X163689591Y-68896915D01*
X163648110Y-68901000D01*
X162971890Y-68901000D01*
X162930409Y-68896915D01*
X162896431Y-68886607D01*
X162865110Y-68869866D01*
X162837661Y-68847339D01*
X162815134Y-68819890D01*
X162798393Y-68788569D01*
X162788085Y-68754591D01*
X162784000Y-68713110D01*
X162784000Y-68111890D01*
X162788085Y-68070409D01*
X162798393Y-68036431D01*
X162815134Y-68005110D01*
X162837661Y-67977661D01*
X162865110Y-67955134D01*
X162896431Y-67938393D01*
X162930409Y-67928085D01*
X162971890Y-67924000D01*
X163648110Y-67924000D01*
X163689591Y-67928085D01*
X163689591Y-67928085D01*
G37*
G36*
X136429591Y-67928085D02*
G01*
X136463569Y-67938393D01*
X136494890Y-67955134D01*
X136522339Y-67977661D01*
X136544866Y-68005110D01*
X136561607Y-68036431D01*
X136571915Y-68070409D01*
X136576000Y-68111890D01*
X136576000Y-68713110D01*
X136571915Y-68754591D01*
X136561607Y-68788569D01*
X136544866Y-68819890D01*
X136522339Y-68847339D01*
X136494890Y-68869866D01*
X136463569Y-68886607D01*
X136429591Y-68896915D01*
X136388110Y-68901000D01*
X135711890Y-68901000D01*
X135670409Y-68896915D01*
X135636431Y-68886607D01*
X135605110Y-68869866D01*
X135577661Y-68847339D01*
X135555134Y-68819890D01*
X135538393Y-68788569D01*
X135528085Y-68754591D01*
X135524000Y-68713110D01*
X135524000Y-68111890D01*
X135528085Y-68070409D01*
X135538393Y-68036431D01*
X135555134Y-68005110D01*
X135577661Y-67977661D01*
X135605110Y-67955134D01*
X135636431Y-67938393D01*
X135670409Y-67928085D01*
X135711890Y-67924000D01*
X136388110Y-67924000D01*
X136429591Y-67928085D01*
X136429591Y-67928085D01*
G37*
G36*
X139929591Y-67928085D02*
G01*
X139963569Y-67938393D01*
X139994890Y-67955134D01*
X140022339Y-67977661D01*
X140044866Y-68005110D01*
X140061607Y-68036431D01*
X140071915Y-68070409D01*
X140076000Y-68111890D01*
X140076000Y-68713110D01*
X140071915Y-68754591D01*
X140061607Y-68788569D01*
X140044866Y-68819890D01*
X140022339Y-68847339D01*
X139994890Y-68869866D01*
X139963569Y-68886607D01*
X139929591Y-68896915D01*
X139888110Y-68901000D01*
X139211890Y-68901000D01*
X139170409Y-68896915D01*
X139136431Y-68886607D01*
X139105110Y-68869866D01*
X139077661Y-68847339D01*
X139055134Y-68819890D01*
X139038393Y-68788569D01*
X139028085Y-68754591D01*
X139024000Y-68713110D01*
X139024000Y-68111890D01*
X139028085Y-68070409D01*
X139038393Y-68036431D01*
X139055134Y-68005110D01*
X139077661Y-67977661D01*
X139105110Y-67955134D01*
X139136431Y-67938393D01*
X139170409Y-67928085D01*
X139211890Y-67924000D01*
X139888110Y-67924000D01*
X139929591Y-67928085D01*
X139929591Y-67928085D01*
G37*
G36*
X141679591Y-67928085D02*
G01*
X141713569Y-67938393D01*
X141744890Y-67955134D01*
X141772339Y-67977661D01*
X141794866Y-68005110D01*
X141811607Y-68036431D01*
X141821915Y-68070409D01*
X141826000Y-68111890D01*
X141826000Y-68713110D01*
X141821915Y-68754591D01*
X141811607Y-68788569D01*
X141794866Y-68819890D01*
X141772339Y-68847339D01*
X141744890Y-68869866D01*
X141713569Y-68886607D01*
X141679591Y-68896915D01*
X141638110Y-68901000D01*
X140961890Y-68901000D01*
X140920409Y-68896915D01*
X140886431Y-68886607D01*
X140855110Y-68869866D01*
X140827661Y-68847339D01*
X140805134Y-68819890D01*
X140788393Y-68788569D01*
X140778085Y-68754591D01*
X140774000Y-68713110D01*
X140774000Y-68111890D01*
X140778085Y-68070409D01*
X140788393Y-68036431D01*
X140805134Y-68005110D01*
X140827661Y-67977661D01*
X140855110Y-67955134D01*
X140886431Y-67938393D01*
X140920409Y-67928085D01*
X140961890Y-67924000D01*
X141638110Y-67924000D01*
X141679591Y-67928085D01*
X141679591Y-67928085D01*
G37*
G36*
X150019591Y-67928085D02*
G01*
X150053569Y-67938393D01*
X150084890Y-67955134D01*
X150112339Y-67977661D01*
X150134866Y-68005110D01*
X150151607Y-68036431D01*
X150161915Y-68070409D01*
X150166000Y-68111890D01*
X150166000Y-68713110D01*
X150161915Y-68754591D01*
X150151607Y-68788569D01*
X150134866Y-68819890D01*
X150112339Y-68847339D01*
X150084890Y-68869866D01*
X150053569Y-68886607D01*
X150019591Y-68896915D01*
X149978110Y-68901000D01*
X149301890Y-68901000D01*
X149260409Y-68896915D01*
X149226431Y-68886607D01*
X149195110Y-68869866D01*
X149167661Y-68847339D01*
X149145134Y-68819890D01*
X149128393Y-68788569D01*
X149118085Y-68754591D01*
X149114000Y-68713110D01*
X149114000Y-68111890D01*
X149118085Y-68070409D01*
X149128393Y-68036431D01*
X149145134Y-68005110D01*
X149167661Y-67977661D01*
X149195110Y-67955134D01*
X149226431Y-67938393D01*
X149260409Y-67928085D01*
X149301890Y-67924000D01*
X149978110Y-67924000D01*
X150019591Y-67928085D01*
X150019591Y-67928085D01*
G37*
G36*
X151749591Y-67928085D02*
G01*
X151783569Y-67938393D01*
X151814890Y-67955134D01*
X151842339Y-67977661D01*
X151864866Y-68005110D01*
X151881607Y-68036431D01*
X151891915Y-68070409D01*
X151896000Y-68111890D01*
X151896000Y-68713110D01*
X151891915Y-68754591D01*
X151881607Y-68788569D01*
X151864866Y-68819890D01*
X151842339Y-68847339D01*
X151814890Y-68869866D01*
X151783569Y-68886607D01*
X151749591Y-68896915D01*
X151708110Y-68901000D01*
X151031890Y-68901000D01*
X150990409Y-68896915D01*
X150956431Y-68886607D01*
X150925110Y-68869866D01*
X150897661Y-68847339D01*
X150875134Y-68819890D01*
X150858393Y-68788569D01*
X150848085Y-68754591D01*
X150844000Y-68713110D01*
X150844000Y-68111890D01*
X150848085Y-68070409D01*
X150858393Y-68036431D01*
X150875134Y-68005110D01*
X150897661Y-67977661D01*
X150925110Y-67955134D01*
X150956431Y-67938393D01*
X150990409Y-67928085D01*
X151031890Y-67924000D01*
X151708110Y-67924000D01*
X151749591Y-67928085D01*
X151749591Y-67928085D01*
G37*
G36*
X153489591Y-67928085D02*
G01*
X153523569Y-67938393D01*
X153554890Y-67955134D01*
X153582339Y-67977661D01*
X153604866Y-68005110D01*
X153621607Y-68036431D01*
X153631915Y-68070409D01*
X153636000Y-68111890D01*
X153636000Y-68713110D01*
X153631915Y-68754591D01*
X153621607Y-68788569D01*
X153604866Y-68819890D01*
X153582339Y-68847339D01*
X153554890Y-68869866D01*
X153523569Y-68886607D01*
X153489591Y-68896915D01*
X153448110Y-68901000D01*
X152771890Y-68901000D01*
X152730409Y-68896915D01*
X152696431Y-68886607D01*
X152665110Y-68869866D01*
X152637661Y-68847339D01*
X152615134Y-68819890D01*
X152598393Y-68788569D01*
X152588085Y-68754591D01*
X152584000Y-68713110D01*
X152584000Y-68111890D01*
X152588085Y-68070409D01*
X152598393Y-68036431D01*
X152615134Y-68005110D01*
X152637661Y-67977661D01*
X152665110Y-67955134D01*
X152696431Y-67938393D01*
X152730409Y-67928085D01*
X152771890Y-67924000D01*
X153448110Y-67924000D01*
X153489591Y-67928085D01*
X153489591Y-67928085D01*
G37*
G36*
X155229591Y-67928085D02*
G01*
X155263569Y-67938393D01*
X155294890Y-67955134D01*
X155322339Y-67977661D01*
X155344866Y-68005110D01*
X155361607Y-68036431D01*
X155371915Y-68070409D01*
X155376000Y-68111890D01*
X155376000Y-68713110D01*
X155371915Y-68754591D01*
X155361607Y-68788569D01*
X155344866Y-68819890D01*
X155322339Y-68847339D01*
X155294890Y-68869866D01*
X155263569Y-68886607D01*
X155229591Y-68896915D01*
X155188110Y-68901000D01*
X154511890Y-68901000D01*
X154470409Y-68896915D01*
X154436431Y-68886607D01*
X154405110Y-68869866D01*
X154377661Y-68847339D01*
X154355134Y-68819890D01*
X154338393Y-68788569D01*
X154328085Y-68754591D01*
X154324000Y-68713110D01*
X154324000Y-68111890D01*
X154328085Y-68070409D01*
X154338393Y-68036431D01*
X154355134Y-68005110D01*
X154377661Y-67977661D01*
X154405110Y-67955134D01*
X154436431Y-67938393D01*
X154470409Y-67928085D01*
X154511890Y-67924000D01*
X155188110Y-67924000D01*
X155229591Y-67928085D01*
X155229591Y-67928085D01*
G37*
G36*
X104690899Y-65450832D02*
G01*
X104775520Y-65467664D01*
X104934942Y-65533699D01*
X105078418Y-65629566D01*
X105200434Y-65751582D01*
X105296301Y-65895058D01*
X105362336Y-66054480D01*
X105396000Y-66223721D01*
X105396000Y-66396279D01*
X105362336Y-66565520D01*
X105296301Y-66724942D01*
X105200434Y-66868418D01*
X105078418Y-66990434D01*
X104934942Y-67086301D01*
X104775520Y-67152336D01*
X104606280Y-67186000D01*
X104433720Y-67186000D01*
X104264480Y-67152336D01*
X104105058Y-67086301D01*
X103961582Y-66990434D01*
X103839566Y-66868418D01*
X103743699Y-66724942D01*
X103677664Y-66565520D01*
X103644000Y-66396279D01*
X103644000Y-66223721D01*
X103677664Y-66054480D01*
X103743699Y-65895058D01*
X103839566Y-65751582D01*
X103961582Y-65629566D01*
X104105058Y-65533699D01*
X104264480Y-65467664D01*
X104349101Y-65450832D01*
X104433720Y-65434000D01*
X104606280Y-65434000D01*
X104690899Y-65450832D01*
X104690899Y-65450832D01*
G37*
G36*
X133816000Y-67026000D02*
G01*
X133164000Y-67026000D01*
X133164000Y-65774000D01*
X133816000Y-65774000D01*
X133816000Y-67026000D01*
X133816000Y-67026000D01*
G37*
G36*
X161026000Y-67026000D02*
G01*
X160374000Y-67026000D01*
X160374000Y-65774000D01*
X161026000Y-65774000D01*
X161026000Y-67026000D01*
X161026000Y-67026000D01*
G37*
G36*
X147446000Y-67026000D02*
G01*
X146794000Y-67026000D01*
X146794000Y-65774000D01*
X147446000Y-65774000D01*
X147446000Y-67026000D01*
X147446000Y-67026000D01*
G37*
G36*
X137271000Y-66926000D02*
G01*
X136669000Y-66926000D01*
X136669000Y-66074000D01*
X137271000Y-66074000D01*
X137271000Y-66926000D01*
X137271000Y-66926000D01*
G37*
G36*
X154261000Y-66926000D02*
G01*
X153659000Y-66926000D01*
X153659000Y-66074000D01*
X154261000Y-66074000D01*
X154261000Y-66926000D01*
X154261000Y-66926000D01*
G37*
G36*
X140751000Y-66926000D02*
G01*
X140149000Y-66926000D01*
X140149000Y-66074000D01*
X140751000Y-66074000D01*
X140751000Y-66926000D01*
X140751000Y-66926000D01*
G37*
G36*
X164491000Y-66926000D02*
G01*
X163889000Y-66926000D01*
X163889000Y-66074000D01*
X164491000Y-66074000D01*
X164491000Y-66926000D01*
X164491000Y-66926000D01*
G37*
G36*
X150851000Y-66926000D02*
G01*
X150249000Y-66926000D01*
X150249000Y-66074000D01*
X150851000Y-66074000D01*
X150851000Y-66926000D01*
X150851000Y-66926000D01*
G37*
G36*
X178021000Y-66926000D02*
G01*
X177419000Y-66926000D01*
X177419000Y-66074000D01*
X178021000Y-66074000D01*
X178021000Y-66926000D01*
X178021000Y-66926000D01*
G37*
G36*
X148096000Y-65026000D02*
G01*
X147444000Y-65026000D01*
X147444000Y-63774000D01*
X148096000Y-63774000D01*
X148096000Y-65026000D01*
X148096000Y-65026000D01*
G37*
G36*
X133166000Y-65026000D02*
G01*
X132514000Y-65026000D01*
X132514000Y-63774000D01*
X133166000Y-63774000D01*
X133166000Y-65026000D01*
X133166000Y-65026000D01*
G37*
G36*
X134466000Y-65026000D02*
G01*
X133814000Y-65026000D01*
X133814000Y-63774000D01*
X134466000Y-63774000D01*
X134466000Y-65026000D01*
X134466000Y-65026000D01*
G37*
G36*
X146796000Y-65026000D02*
G01*
X146144000Y-65026000D01*
X146144000Y-63774000D01*
X146796000Y-63774000D01*
X146796000Y-65026000D01*
X146796000Y-65026000D01*
G37*
G36*
X160376000Y-65026000D02*
G01*
X159724000Y-65026000D01*
X159724000Y-63774000D01*
X160376000Y-63774000D01*
X160376000Y-65026000D01*
X160376000Y-65026000D01*
G37*
G36*
X161676000Y-65026000D02*
G01*
X161024000Y-65026000D01*
X161024000Y-63774000D01*
X161676000Y-63774000D01*
X161676000Y-65026000D01*
X161676000Y-65026000D01*
G37*
G36*
X151501000Y-64726000D02*
G01*
X150899000Y-64726000D01*
X150899000Y-63874000D01*
X151501000Y-63874000D01*
X151501000Y-64726000D01*
X151501000Y-64726000D01*
G37*
G36*
X137921000Y-64726000D02*
G01*
X137319000Y-64726000D01*
X137319000Y-63874000D01*
X137921000Y-63874000D01*
X137921000Y-64726000D01*
X137921000Y-64726000D01*
G37*
G36*
X136621000Y-64726000D02*
G01*
X136019000Y-64726000D01*
X136019000Y-63874000D01*
X136621000Y-63874000D01*
X136621000Y-64726000D01*
X136621000Y-64726000D01*
G37*
G36*
X154911000Y-64726000D02*
G01*
X154309000Y-64726000D01*
X154309000Y-63874000D01*
X154911000Y-63874000D01*
X154911000Y-64726000D01*
X154911000Y-64726000D01*
G37*
G36*
X141401000Y-64726000D02*
G01*
X140799000Y-64726000D01*
X140799000Y-63874000D01*
X141401000Y-63874000D01*
X141401000Y-64726000D01*
X141401000Y-64726000D01*
G37*
G36*
X140101000Y-64726000D02*
G01*
X139499000Y-64726000D01*
X139499000Y-63874000D01*
X140101000Y-63874000D01*
X140101000Y-64726000D01*
X140101000Y-64726000D01*
G37*
G36*
X150201000Y-64726000D02*
G01*
X149599000Y-64726000D01*
X149599000Y-63874000D01*
X150201000Y-63874000D01*
X150201000Y-64726000D01*
X150201000Y-64726000D01*
G37*
G36*
X165141000Y-64726000D02*
G01*
X164539000Y-64726000D01*
X164539000Y-63874000D01*
X165141000Y-63874000D01*
X165141000Y-64726000D01*
X165141000Y-64726000D01*
G37*
G36*
X177371000Y-64726000D02*
G01*
X176769000Y-64726000D01*
X176769000Y-63874000D01*
X177371000Y-63874000D01*
X177371000Y-64726000D01*
X177371000Y-64726000D01*
G37*
G36*
X178671000Y-64726000D02*
G01*
X178069000Y-64726000D01*
X178069000Y-63874000D01*
X178671000Y-63874000D01*
X178671000Y-64726000D01*
X178671000Y-64726000D01*
G37*
G36*
X153611000Y-64726000D02*
G01*
X153009000Y-64726000D01*
X153009000Y-63874000D01*
X153611000Y-63874000D01*
X153611000Y-64726000D01*
X153611000Y-64726000D01*
G37*
G36*
X163841000Y-64726000D02*
G01*
X163239000Y-64726000D01*
X163239000Y-63874000D01*
X163841000Y-63874000D01*
X163841000Y-64726000D01*
X163841000Y-64726000D01*
G37*
G36*
X104775520Y-62467664D02*
G01*
X104934942Y-62533699D01*
X105078418Y-62629566D01*
X105200434Y-62751582D01*
X105296301Y-62895058D01*
X105362336Y-63054480D01*
X105368894Y-63087448D01*
X105393591Y-63211607D01*
X105396000Y-63223721D01*
X105396000Y-63396279D01*
X105362336Y-63565520D01*
X105296301Y-63724942D01*
X105200434Y-63868418D01*
X105078418Y-63990434D01*
X104934942Y-64086301D01*
X104775520Y-64152336D01*
X104690899Y-64169168D01*
X104606280Y-64186000D01*
X104433720Y-64186000D01*
X104349101Y-64169168D01*
X104264480Y-64152336D01*
X104105058Y-64086301D01*
X103961582Y-63990434D01*
X103839566Y-63868418D01*
X103743699Y-63724942D01*
X103677664Y-63565520D01*
X103644000Y-63396279D01*
X103644000Y-63223721D01*
X103646410Y-63211607D01*
X103671106Y-63087448D01*
X103677664Y-63054480D01*
X103743699Y-62895058D01*
X103839566Y-62751582D01*
X103961582Y-62629566D01*
X104105058Y-62533699D01*
X104264480Y-62467664D01*
X104433720Y-62434000D01*
X104606280Y-62434000D01*
X104775520Y-62467664D01*
X104775520Y-62467664D01*
G37*
G36*
X151689591Y-62188085D02*
G01*
X151723569Y-62198393D01*
X151754890Y-62215134D01*
X151782339Y-62237661D01*
X151804866Y-62265110D01*
X151821607Y-62296431D01*
X151831915Y-62330409D01*
X151836000Y-62371890D01*
X151836000Y-63048110D01*
X151831915Y-63089591D01*
X151821607Y-63123569D01*
X151804866Y-63154890D01*
X151782339Y-63182339D01*
X151754890Y-63204866D01*
X151723569Y-63221607D01*
X151689591Y-63231915D01*
X151648110Y-63236000D01*
X151046890Y-63236000D01*
X151005409Y-63231915D01*
X150971431Y-63221607D01*
X150940110Y-63204866D01*
X150912661Y-63182339D01*
X150890134Y-63154890D01*
X150873393Y-63123569D01*
X150863085Y-63089591D01*
X150859000Y-63048110D01*
X150859000Y-62371890D01*
X150863085Y-62330409D01*
X150873393Y-62296431D01*
X150890134Y-62265110D01*
X150912661Y-62237661D01*
X150940110Y-62215134D01*
X150971431Y-62198393D01*
X151005409Y-62188085D01*
X151046890Y-62184000D01*
X151648110Y-62184000D01*
X151689591Y-62188085D01*
X151689591Y-62188085D01*
G37*
G36*
X150114591Y-62188085D02*
G01*
X150148569Y-62198393D01*
X150179890Y-62215134D01*
X150207339Y-62237661D01*
X150229866Y-62265110D01*
X150246607Y-62296431D01*
X150256915Y-62330409D01*
X150261000Y-62371890D01*
X150261000Y-63048110D01*
X150256915Y-63089591D01*
X150246607Y-63123569D01*
X150229866Y-63154890D01*
X150207339Y-63182339D01*
X150179890Y-63204866D01*
X150148569Y-63221607D01*
X150114591Y-63231915D01*
X150073110Y-63236000D01*
X149471890Y-63236000D01*
X149430409Y-63231915D01*
X149396431Y-63221607D01*
X149365110Y-63204866D01*
X149337661Y-63182339D01*
X149315134Y-63154890D01*
X149298393Y-63123569D01*
X149288085Y-63089591D01*
X149284000Y-63048110D01*
X149284000Y-62371890D01*
X149288085Y-62330409D01*
X149298393Y-62296431D01*
X149315134Y-62265110D01*
X149337661Y-62237661D01*
X149365110Y-62215134D01*
X149396431Y-62198393D01*
X149430409Y-62188085D01*
X149471890Y-62184000D01*
X150073110Y-62184000D01*
X150114591Y-62188085D01*
X150114591Y-62188085D01*
G37*
G36*
X138109591Y-62178085D02*
G01*
X138143569Y-62188393D01*
X138174890Y-62205134D01*
X138202339Y-62227661D01*
X138224866Y-62255110D01*
X138241607Y-62286431D01*
X138251915Y-62320409D01*
X138256000Y-62361890D01*
X138256000Y-63038110D01*
X138251915Y-63079591D01*
X138241607Y-63113569D01*
X138224866Y-63144890D01*
X138202339Y-63172339D01*
X138174890Y-63194866D01*
X138143569Y-63211607D01*
X138109591Y-63221915D01*
X138068110Y-63226000D01*
X137466890Y-63226000D01*
X137425409Y-63221915D01*
X137391431Y-63211607D01*
X137360110Y-63194866D01*
X137332661Y-63172339D01*
X137310134Y-63144890D01*
X137293393Y-63113569D01*
X137283085Y-63079591D01*
X137279000Y-63038110D01*
X137279000Y-62361890D01*
X137283085Y-62320409D01*
X137293393Y-62286431D01*
X137310134Y-62255110D01*
X137332661Y-62227661D01*
X137360110Y-62205134D01*
X137391431Y-62188393D01*
X137425409Y-62178085D01*
X137466890Y-62174000D01*
X138068110Y-62174000D01*
X138109591Y-62178085D01*
X138109591Y-62178085D01*
G37*
G36*
X136534591Y-62178085D02*
G01*
X136568569Y-62188393D01*
X136599890Y-62205134D01*
X136627339Y-62227661D01*
X136649866Y-62255110D01*
X136666607Y-62286431D01*
X136676915Y-62320409D01*
X136681000Y-62361890D01*
X136681000Y-63038110D01*
X136676915Y-63079591D01*
X136666607Y-63113569D01*
X136649866Y-63144890D01*
X136627339Y-63172339D01*
X136599890Y-63194866D01*
X136568569Y-63211607D01*
X136534591Y-63221915D01*
X136493110Y-63226000D01*
X135891890Y-63226000D01*
X135850409Y-63221915D01*
X135816431Y-63211607D01*
X135785110Y-63194866D01*
X135757661Y-63172339D01*
X135735134Y-63144890D01*
X135718393Y-63113569D01*
X135708085Y-63079591D01*
X135704000Y-63038110D01*
X135704000Y-62361890D01*
X135708085Y-62320409D01*
X135718393Y-62286431D01*
X135735134Y-62255110D01*
X135757661Y-62227661D01*
X135785110Y-62205134D01*
X135816431Y-62188393D01*
X135850409Y-62178085D01*
X135891890Y-62174000D01*
X136493110Y-62174000D01*
X136534591Y-62178085D01*
X136534591Y-62178085D01*
G37*
G36*
X165319591Y-62148085D02*
G01*
X165353569Y-62158393D01*
X165384890Y-62175134D01*
X165412339Y-62197661D01*
X165434866Y-62225110D01*
X165451607Y-62256431D01*
X165461915Y-62290409D01*
X165466000Y-62331890D01*
X165466000Y-63008110D01*
X165461915Y-63049591D01*
X165451607Y-63083569D01*
X165434866Y-63114890D01*
X165412339Y-63142339D01*
X165384890Y-63164866D01*
X165353569Y-63181607D01*
X165319591Y-63191915D01*
X165278110Y-63196000D01*
X164676890Y-63196000D01*
X164635409Y-63191915D01*
X164601431Y-63181607D01*
X164570110Y-63164866D01*
X164542661Y-63142339D01*
X164520134Y-63114890D01*
X164503393Y-63083569D01*
X164493085Y-63049591D01*
X164489000Y-63008110D01*
X164489000Y-62331890D01*
X164493085Y-62290409D01*
X164503393Y-62256431D01*
X164520134Y-62225110D01*
X164542661Y-62197661D01*
X164570110Y-62175134D01*
X164601431Y-62158393D01*
X164635409Y-62148085D01*
X164676890Y-62144000D01*
X165278110Y-62144000D01*
X165319591Y-62148085D01*
X165319591Y-62148085D01*
G37*
G36*
X163744591Y-62148085D02*
G01*
X163778569Y-62158393D01*
X163809890Y-62175134D01*
X163837339Y-62197661D01*
X163859866Y-62225110D01*
X163876607Y-62256431D01*
X163886915Y-62290409D01*
X163891000Y-62331890D01*
X163891000Y-63008110D01*
X163886915Y-63049591D01*
X163876607Y-63083569D01*
X163859866Y-63114890D01*
X163837339Y-63142339D01*
X163809890Y-63164866D01*
X163778569Y-63181607D01*
X163744591Y-63191915D01*
X163703110Y-63196000D01*
X163101890Y-63196000D01*
X163060409Y-63191915D01*
X163026431Y-63181607D01*
X162995110Y-63164866D01*
X162967661Y-63142339D01*
X162945134Y-63114890D01*
X162928393Y-63083569D01*
X162918085Y-63049591D01*
X162914000Y-63008110D01*
X162914000Y-62331890D01*
X162918085Y-62290409D01*
X162928393Y-62256431D01*
X162945134Y-62225110D01*
X162967661Y-62197661D01*
X162995110Y-62175134D01*
X163026431Y-62158393D01*
X163060409Y-62148085D01*
X163101890Y-62144000D01*
X163703110Y-62144000D01*
X163744591Y-62148085D01*
X163744591Y-62148085D01*
G37*
M02*
