G04 #@! TF.GenerationSoftware,KiCad,Pcbnew,5.1.4-e60b266~84~ubuntu18.04.1*
G04 #@! TF.CreationDate,2019-10-01T18:03:50+03:00*
G04 #@! TF.ProjectId,EV2400-EVM-Interface-Board,45563234-3030-42d4-9556-4d2d496e7465,v1.0*
G04 #@! TF.SameCoordinates,Original*
G04 #@! TF.FileFunction,Legend,Top*
G04 #@! TF.FilePolarity,Positive*
%FSLAX46Y46*%
G04 Gerber Fmt 4.6, Leading zero omitted, Abs format (unit mm)*
G04 Created by KiCad (PCBNEW 5.1.4-e60b266~84~ubuntu18.04.1) date 2019-10-01 18:03:50*
%MOMM*%
%LPD*%
G04 APERTURE LIST*
%ADD10C,0.100000*%
%ADD11C,0.120000*%
%ADD12C,0.152400*%
%ADD13C,0.200000*%
%ADD14C,0.150000*%
%ADD15C,0.254000*%
G04 APERTURE END LIST*
D10*
X174280000Y-69450000D02*
X174280000Y-61270000D01*
X184440000Y-69450000D02*
X174280000Y-69450000D01*
X184440000Y-61270000D02*
X184440000Y-69450000D01*
X174280000Y-61270000D02*
X184440000Y-61270000D01*
X160740000Y-69450000D02*
X160740000Y-61270000D01*
X170900000Y-69450000D02*
X160740000Y-69450000D01*
X170900000Y-61270000D02*
X170900000Y-69450000D01*
X160740000Y-61270000D02*
X170900000Y-61270000D01*
X147160000Y-69450000D02*
X147160000Y-61270000D01*
X157320000Y-69450000D02*
X147160000Y-69450000D01*
X157320000Y-61270000D02*
X157320000Y-69450000D01*
X147160000Y-61270000D02*
X157320000Y-61270000D01*
X133570000Y-69450000D02*
X133570000Y-61270000D01*
X143730000Y-69450000D02*
X133570000Y-69450000D01*
X143730000Y-61270000D02*
X143730000Y-69450000D01*
X133570000Y-61270000D02*
X143730000Y-61270000D01*
D11*
X127200000Y-109400000D02*
X127200000Y-107500000D01*
X129100000Y-109400000D02*
X127200000Y-109400000D01*
X129100000Y-107500000D02*
X129100000Y-109400000D01*
X127200000Y-107500000D02*
X129100000Y-107500000D01*
X125560000Y-111860000D02*
X125560000Y-109960000D01*
X127460000Y-111860000D02*
X125560000Y-111860000D01*
X127460000Y-109960000D02*
X127460000Y-111860000D01*
X125560000Y-109960000D02*
X127460000Y-109960000D01*
X122950000Y-111860000D02*
X122950000Y-109960000D01*
X124850000Y-111860000D02*
X122950000Y-111860000D01*
X124850000Y-109960000D02*
X124850000Y-111860000D01*
X122950000Y-109960000D02*
X124850000Y-109960000D01*
X120310000Y-111860000D02*
X120310000Y-109960000D01*
X122210000Y-111860000D02*
X120310000Y-111860000D01*
X122210000Y-109960000D02*
X122210000Y-111860000D01*
X120310000Y-109960000D02*
X122210000Y-109960000D01*
D12*
X131075000Y-88424000D02*
X131650000Y-88424000D01*
X132254800Y-88424000D02*
G75*
G03X131645200Y-88424000I-304800J0D01*
G01*
X132250000Y-88424000D02*
X132825000Y-88424000D01*
X131645200Y-88424000D02*
X132254800Y-88424000D01*
X131416600Y-88424000D02*
X131645200Y-88424000D01*
X132825000Y-85376000D02*
X131075000Y-85376000D01*
D13*
X157110000Y-95250000D02*
X157110000Y-94050000D01*
X160060000Y-93700000D02*
X157160000Y-93700000D01*
X160060000Y-93100000D02*
X160060000Y-93700000D01*
X157160000Y-93100000D02*
X160060000Y-93100000D01*
X157160000Y-93700000D02*
X157160000Y-93100000D01*
X151850000Y-95250000D02*
X151850000Y-94050000D01*
X154800000Y-93700000D02*
X151900000Y-93700000D01*
X154800000Y-93100000D02*
X154800000Y-93700000D01*
X151900000Y-93100000D02*
X154800000Y-93100000D01*
X151900000Y-93700000D02*
X151900000Y-93100000D01*
X168350000Y-90950000D02*
X168350000Y-92150000D01*
X165400000Y-92500000D02*
X168300000Y-92500000D01*
X165400000Y-93100000D02*
X165400000Y-92500000D01*
X168300000Y-93100000D02*
X165400000Y-93100000D01*
X168300000Y-92500000D02*
X168300000Y-93100000D01*
X190570000Y-96430000D02*
X190570000Y-95430000D01*
D12*
X190629400Y-98725200D02*
X190629400Y-96769400D01*
X190629400Y-99334800D02*
X190629400Y-98725200D01*
X190629400Y-101290600D02*
X190629400Y-99334800D01*
X187530600Y-96769400D02*
X187530600Y-101290600D01*
D14*
X179419175Y-119499704D02*
G75*
G02X180960000Y-121631386I-852175J-2238682D01*
G01*
X173960000Y-128850000D02*
X182960000Y-128850000D01*
X173960000Y-114150000D02*
X182960000Y-114150000D01*
X173960000Y-125850000D02*
X175960000Y-125850000D01*
X175960000Y-125850000D02*
X180960000Y-125850000D01*
X180960000Y-125850000D02*
X182960000Y-125850000D01*
X175960000Y-125830000D02*
X175960000Y-121654000D01*
X177500825Y-119522318D02*
G75*
G03X175960000Y-121654000I852175J-2238682D01*
G01*
X180960000Y-121654000D02*
X180960000Y-125850000D01*
X173960000Y-128850000D02*
X173960000Y-125850000D01*
X173960000Y-121850000D02*
X173960000Y-119650000D01*
X173960000Y-115650000D02*
X173960000Y-114150000D01*
X182960000Y-114150000D02*
X182960000Y-115650000D01*
X182960000Y-119650000D02*
X182960000Y-121850000D01*
X182960000Y-125850000D02*
X182960000Y-128850000D01*
D11*
X123320000Y-77460000D02*
X122820000Y-76960000D01*
X122320000Y-77460000D02*
X123320000Y-77460000D01*
X122820000Y-76960000D02*
X122320000Y-77460000D01*
X130230000Y-60020000D02*
X130230000Y-68380000D01*
X117910000Y-60020000D02*
X130230000Y-60020000D01*
X117910000Y-68380000D02*
X117910000Y-60020000D01*
X130230000Y-76740000D02*
X130230000Y-72480000D01*
X117910000Y-76740000D02*
X130230000Y-76740000D01*
X117910000Y-72480000D02*
X117910000Y-76740000D01*
D13*
X150075000Y-105250000D02*
X150075000Y-103800000D01*
X155100000Y-103450000D02*
X150100000Y-103450000D01*
X155100000Y-99750000D02*
X155100000Y-103450000D01*
X150100000Y-99750000D02*
X155100000Y-99750000D01*
X150100000Y-103450000D02*
X150100000Y-99750000D01*
X162725000Y-105250000D02*
X162725000Y-103800000D01*
X167750000Y-103450000D02*
X162750000Y-103450000D01*
X167750000Y-99750000D02*
X167750000Y-103450000D01*
X162750000Y-99750000D02*
X167750000Y-99750000D01*
X162750000Y-103450000D02*
X162750000Y-99750000D01*
X179385000Y-107750000D02*
X179385000Y-105750000D01*
X185850000Y-105400000D02*
X179350000Y-105400000D01*
X185850000Y-102100000D02*
X185850000Y-105400000D01*
X179350000Y-102100000D02*
X185850000Y-102100000D01*
X179350000Y-105400000D02*
X179350000Y-102100000D01*
D15*
X115400000Y-93450000D02*
G75*
G03X115400000Y-93450000I-125000J0D01*
G01*
D13*
X116850000Y-104600000D02*
X116850000Y-93300000D01*
X128150000Y-104600000D02*
X116850000Y-104600000D01*
X128150000Y-93300000D02*
X128150000Y-104600000D01*
X116850000Y-93300000D02*
X128150000Y-93300000D01*
D11*
X134330000Y-120080000D02*
X134330000Y-118810000D01*
X135600000Y-120080000D02*
X134330000Y-120080000D01*
X163920000Y-117302929D02*
X163920000Y-117757071D01*
X163160000Y-117302929D02*
X163160000Y-117757071D01*
X163920000Y-119842929D02*
X163920000Y-120240000D01*
X163160000Y-119842929D02*
X163160000Y-120240000D01*
X163920000Y-128900000D02*
X163920000Y-122900000D01*
X163160000Y-128900000D02*
X163920000Y-128900000D01*
X163160000Y-122900000D02*
X163160000Y-128900000D01*
X162270000Y-120240000D02*
X162270000Y-122900000D01*
X161380000Y-117302929D02*
X161380000Y-117757071D01*
X160620000Y-117302929D02*
X160620000Y-117757071D01*
X161380000Y-119842929D02*
X161380000Y-120240000D01*
X160620000Y-119842929D02*
X160620000Y-120240000D01*
X161380000Y-128900000D02*
X161380000Y-122900000D01*
X160620000Y-128900000D02*
X161380000Y-128900000D01*
X160620000Y-122900000D02*
X160620000Y-128900000D01*
X159730000Y-120240000D02*
X159730000Y-122900000D01*
X158840000Y-117302929D02*
X158840000Y-117757071D01*
X158080000Y-117302929D02*
X158080000Y-117757071D01*
X158840000Y-119842929D02*
X158840000Y-120240000D01*
X158080000Y-119842929D02*
X158080000Y-120240000D01*
X158840000Y-128900000D02*
X158840000Y-122900000D01*
X158080000Y-128900000D02*
X158840000Y-128900000D01*
X158080000Y-122900000D02*
X158080000Y-128900000D01*
X157190000Y-120240000D02*
X157190000Y-122900000D01*
X156300000Y-117302929D02*
X156300000Y-117757071D01*
X155540000Y-117302929D02*
X155540000Y-117757071D01*
X156300000Y-119842929D02*
X156300000Y-120240000D01*
X155540000Y-119842929D02*
X155540000Y-120240000D01*
X156300000Y-128900000D02*
X156300000Y-122900000D01*
X155540000Y-128900000D02*
X156300000Y-128900000D01*
X155540000Y-122900000D02*
X155540000Y-128900000D01*
X154650000Y-120240000D02*
X154650000Y-122900000D01*
X153760000Y-117302929D02*
X153760000Y-117757071D01*
X153000000Y-117302929D02*
X153000000Y-117757071D01*
X153760000Y-119842929D02*
X153760000Y-120240000D01*
X153000000Y-119842929D02*
X153000000Y-120240000D01*
X153760000Y-128900000D02*
X153760000Y-122900000D01*
X153000000Y-128900000D02*
X153760000Y-128900000D01*
X153000000Y-122900000D02*
X153000000Y-128900000D01*
X152110000Y-120240000D02*
X152110000Y-122900000D01*
X151220000Y-117302929D02*
X151220000Y-117757071D01*
X150460000Y-117302929D02*
X150460000Y-117757071D01*
X151220000Y-119842929D02*
X151220000Y-120240000D01*
X150460000Y-119842929D02*
X150460000Y-120240000D01*
X151220000Y-128900000D02*
X151220000Y-122900000D01*
X150460000Y-128900000D02*
X151220000Y-128900000D01*
X150460000Y-122900000D02*
X150460000Y-128900000D01*
X149570000Y-120240000D02*
X149570000Y-122900000D01*
X148680000Y-117302929D02*
X148680000Y-117757071D01*
X147920000Y-117302929D02*
X147920000Y-117757071D01*
X148680000Y-119842929D02*
X148680000Y-120240000D01*
X147920000Y-119842929D02*
X147920000Y-120240000D01*
X148680000Y-128900000D02*
X148680000Y-122900000D01*
X147920000Y-128900000D02*
X148680000Y-128900000D01*
X147920000Y-122900000D02*
X147920000Y-128900000D01*
X147030000Y-120240000D02*
X147030000Y-122900000D01*
X146140000Y-117302929D02*
X146140000Y-117757071D01*
X145380000Y-117302929D02*
X145380000Y-117757071D01*
X146140000Y-119842929D02*
X146140000Y-120240000D01*
X145380000Y-119842929D02*
X145380000Y-120240000D01*
X146140000Y-128900000D02*
X146140000Y-122900000D01*
X145380000Y-128900000D02*
X146140000Y-128900000D01*
X145380000Y-122900000D02*
X145380000Y-128900000D01*
X144490000Y-120240000D02*
X144490000Y-122900000D01*
X143600000Y-117302929D02*
X143600000Y-117757071D01*
X142840000Y-117302929D02*
X142840000Y-117757071D01*
X143600000Y-119842929D02*
X143600000Y-120240000D01*
X142840000Y-119842929D02*
X142840000Y-120240000D01*
X143600000Y-128900000D02*
X143600000Y-122900000D01*
X142840000Y-128900000D02*
X143600000Y-128900000D01*
X142840000Y-122900000D02*
X142840000Y-128900000D01*
X141950000Y-120240000D02*
X141950000Y-122900000D01*
X141060000Y-117302929D02*
X141060000Y-117757071D01*
X140300000Y-117302929D02*
X140300000Y-117757071D01*
X141060000Y-119842929D02*
X141060000Y-120240000D01*
X140300000Y-119842929D02*
X140300000Y-120240000D01*
X141060000Y-128900000D02*
X141060000Y-122900000D01*
X140300000Y-128900000D02*
X141060000Y-128900000D01*
X140300000Y-122900000D02*
X140300000Y-128900000D01*
X139410000Y-120240000D02*
X139410000Y-122900000D01*
X138520000Y-117302929D02*
X138520000Y-117757071D01*
X137760000Y-117302929D02*
X137760000Y-117757071D01*
X138520000Y-119842929D02*
X138520000Y-120240000D01*
X137760000Y-119842929D02*
X137760000Y-120240000D01*
X138520000Y-128900000D02*
X138520000Y-122900000D01*
X137760000Y-128900000D02*
X138520000Y-128900000D01*
X137760000Y-122900000D02*
X137760000Y-128900000D01*
X136870000Y-120240000D02*
X136870000Y-122900000D01*
X135980000Y-117370000D02*
X135980000Y-117757071D01*
X135220000Y-117370000D02*
X135220000Y-117757071D01*
X135980000Y-119842929D02*
X135980000Y-120240000D01*
X135220000Y-119842929D02*
X135220000Y-120240000D01*
X135880000Y-122900000D02*
X135880000Y-128900000D01*
X135760000Y-122900000D02*
X135760000Y-128900000D01*
X135640000Y-122900000D02*
X135640000Y-128900000D01*
X135520000Y-122900000D02*
X135520000Y-128900000D01*
X135400000Y-122900000D02*
X135400000Y-128900000D01*
X135280000Y-122900000D02*
X135280000Y-128900000D01*
X135980000Y-128900000D02*
X135980000Y-122900000D01*
X135220000Y-128900000D02*
X135980000Y-128900000D01*
X135220000Y-122900000D02*
X135220000Y-128900000D01*
X134270000Y-122900000D02*
X134270000Y-120240000D01*
X164870000Y-122900000D02*
X134270000Y-122900000D01*
X164870000Y-120240000D02*
X164870000Y-122900000D01*
X134270000Y-120240000D02*
X164870000Y-120240000D01*
D10*
X105520000Y-59810000D02*
X105520000Y-61760000D01*
X103520000Y-59810000D02*
X105520000Y-59810000D01*
X103520000Y-61760000D02*
X103520000Y-59810000D01*
X106520000Y-67810000D02*
X102520000Y-67810000D01*
X106520000Y-61760000D02*
X106520000Y-67810000D01*
X102520000Y-61760000D02*
X106520000Y-61760000D01*
X102520000Y-67810000D02*
X102520000Y-61760000D01*
D11*
X109710000Y-84350000D02*
X122310000Y-84350000D01*
X109710000Y-79250000D02*
X109710000Y-84350000D01*
X122310000Y-79250000D02*
X109710000Y-79250000D01*
D15*
X182380000Y-84725000D02*
G75*
G03X182380000Y-84725000I-100000J0D01*
G01*
X167730000Y-84725000D02*
G75*
G03X167730000Y-84725000I-100000J0D01*
G01*
X153940000Y-84725000D02*
G75*
G03X153940000Y-84725000I-100000J0D01*
G01*
D11*
X106360000Y-87180000D02*
G75*
G03X106360000Y-87180000I-1200000J0D01*
G01*
X109470000Y-100970000D02*
G75*
G03X109470000Y-100970000I-1200000J0D01*
G01*
X176430000Y-111260000D02*
G75*
G03X176430000Y-111260000I-1200000J0D01*
G01*
X133150000Y-82750000D02*
G75*
G03X133150000Y-82750000I-1200000J0D01*
G01*
X194490000Y-101052779D02*
X194490000Y-100727221D01*
X193470000Y-101052779D02*
X193470000Y-100727221D01*
X192640000Y-97792779D02*
X192640000Y-97467221D01*
X191620000Y-97792779D02*
X191620000Y-97467221D01*
X192630000Y-101012779D02*
X192630000Y-100687221D01*
X191610000Y-101012779D02*
X191610000Y-100687221D01*
X103362779Y-71090000D02*
X103037221Y-71090000D01*
X103362779Y-72110000D02*
X103037221Y-72110000D01*
X120960000Y-123012779D02*
X120960000Y-122687221D01*
X119940000Y-123012779D02*
X119940000Y-122687221D01*
X110110000Y-122962779D02*
X110110000Y-122637221D01*
X109090000Y-122962779D02*
X109090000Y-122637221D01*
X100970000Y-118547221D02*
X100970000Y-118872779D01*
X101990000Y-118547221D02*
X101990000Y-118872779D01*
X159960000Y-87612779D02*
X159960000Y-87287221D01*
X158940000Y-87612779D02*
X158940000Y-87287221D01*
X151850000Y-107847221D02*
X151850000Y-108172779D01*
X152870000Y-107847221D02*
X152870000Y-108172779D01*
X150190000Y-107837221D02*
X150190000Y-108162779D01*
X151210000Y-107837221D02*
X151210000Y-108162779D01*
X164480000Y-107847221D02*
X164480000Y-108172779D01*
X165500000Y-107847221D02*
X165500000Y-108172779D01*
X162840000Y-107847221D02*
X162840000Y-108172779D01*
X163860000Y-107847221D02*
X163860000Y-108172779D01*
X164810000Y-93312779D02*
X164810000Y-92987221D01*
X163790000Y-93312779D02*
X163790000Y-92987221D01*
X188707221Y-94250000D02*
X189032779Y-94250000D01*
X188707221Y-93230000D02*
X189032779Y-93230000D01*
X181537221Y-88810000D02*
X181862779Y-88810000D01*
X181537221Y-87790000D02*
X181862779Y-87790000D01*
X166787221Y-88560000D02*
X167112779Y-88560000D01*
X166787221Y-87540000D02*
X167112779Y-87540000D01*
X153137221Y-88660000D02*
X153462779Y-88660000D01*
X153137221Y-87640000D02*
X153462779Y-87640000D01*
X130890000Y-91587221D02*
X130890000Y-91912779D01*
X131910000Y-91587221D02*
X131910000Y-91912779D01*
X133737221Y-93060000D02*
X134062779Y-93060000D01*
X133737221Y-92040000D02*
X134062779Y-92040000D01*
X133737221Y-91510000D02*
X134062779Y-91510000D01*
X133737221Y-90490000D02*
X134062779Y-90490000D01*
X125030000Y-81132779D02*
X125030000Y-80807221D01*
X124010000Y-81132779D02*
X124010000Y-80807221D01*
X126270000Y-84170000D02*
X127600000Y-84170000D01*
X126270000Y-85500000D02*
X126270000Y-84170000D01*
X126270000Y-86770000D02*
X128930000Y-86770000D01*
X128930000Y-86770000D02*
X128930000Y-89370000D01*
X126270000Y-86770000D02*
X126270000Y-89370000D01*
X126270000Y-89370000D02*
X128930000Y-89370000D01*
X141080000Y-107560000D02*
X141080000Y-106230000D01*
X142410000Y-107560000D02*
X141080000Y-107560000D01*
X143680000Y-107560000D02*
X143680000Y-104900000D01*
X143680000Y-104900000D02*
X146280000Y-104900000D01*
X143680000Y-107560000D02*
X146280000Y-107560000D01*
X146280000Y-107560000D02*
X146280000Y-104900000D01*
X141080000Y-104810000D02*
X141080000Y-103480000D01*
X142410000Y-104810000D02*
X141080000Y-104810000D01*
X143680000Y-104810000D02*
X143680000Y-102150000D01*
X143680000Y-102150000D02*
X146280000Y-102150000D01*
X143680000Y-104810000D02*
X146280000Y-104810000D01*
X146280000Y-104810000D02*
X146280000Y-102150000D01*
X141110000Y-97400000D02*
X141110000Y-96070000D01*
X142440000Y-97400000D02*
X141110000Y-97400000D01*
X143710000Y-97400000D02*
X143710000Y-94740000D01*
X143710000Y-94740000D02*
X146310000Y-94740000D01*
X143710000Y-97400000D02*
X146310000Y-97400000D01*
X146310000Y-97400000D02*
X146310000Y-94740000D01*
X141110000Y-100140000D02*
X141110000Y-98810000D01*
X142440000Y-100140000D02*
X141110000Y-100140000D01*
X143710000Y-100140000D02*
X143710000Y-97480000D01*
X143710000Y-97480000D02*
X146310000Y-97480000D01*
X143710000Y-100140000D02*
X146310000Y-100140000D01*
X146310000Y-100140000D02*
X146310000Y-97480000D01*
X141060000Y-92620000D02*
X141060000Y-91290000D01*
X142390000Y-92620000D02*
X141060000Y-92620000D01*
X143660000Y-92620000D02*
X143660000Y-89960000D01*
X143660000Y-89960000D02*
X146260000Y-89960000D01*
X143660000Y-92620000D02*
X146260000Y-92620000D01*
X146260000Y-92620000D02*
X146260000Y-89960000D01*
X141060000Y-89880000D02*
X141060000Y-88550000D01*
X142390000Y-89880000D02*
X141060000Y-89880000D01*
X143660000Y-89880000D02*
X143660000Y-87220000D01*
X143660000Y-87220000D02*
X146260000Y-87220000D01*
X143660000Y-89880000D02*
X146260000Y-89880000D01*
X146260000Y-89880000D02*
X146260000Y-87220000D01*
X106070000Y-82900000D02*
X106670000Y-82900000D01*
X106070000Y-81300000D02*
X106070000Y-82900000D01*
X106670000Y-81300000D02*
X106070000Y-81300000D01*
X106070000Y-80360000D02*
X106670000Y-80360000D01*
X106070000Y-78760000D02*
X106070000Y-80360000D01*
X106670000Y-78760000D02*
X106070000Y-78760000D01*
X106070000Y-77820000D02*
X106670000Y-77820000D01*
X106070000Y-76220000D02*
X106070000Y-77820000D01*
X106670000Y-76220000D02*
X106070000Y-76220000D01*
X106070000Y-75280000D02*
X106670000Y-75280000D01*
X106070000Y-73680000D02*
X106070000Y-75280000D01*
X106670000Y-73680000D02*
X106070000Y-73680000D01*
X100650000Y-81850000D02*
X101650000Y-81850000D01*
X100650000Y-74730000D02*
X101650000Y-74730000D01*
X102180000Y-81850000D02*
X101650000Y-82100000D01*
X102180000Y-74730000D02*
X102180000Y-81850000D01*
X101650000Y-74480000D02*
X102180000Y-74730000D01*
X101650000Y-82100000D02*
X100650000Y-82100000D01*
X101650000Y-74480000D02*
X101650000Y-82100000D01*
X100650000Y-74480000D02*
X101650000Y-74480000D01*
X105640000Y-72810000D02*
X101640000Y-72810000D01*
X106670000Y-83480000D02*
X106670000Y-73100000D01*
X100650000Y-83480000D02*
X106670000Y-83480000D01*
X100650000Y-73100000D02*
X100650000Y-83480000D01*
X106670000Y-73100000D02*
X100650000Y-73100000D01*
D10*
X123000000Y-128000000D02*
X123000000Y-124500000D01*
X127000000Y-128000000D02*
X123000000Y-128000000D01*
X127000000Y-124500000D02*
X127000000Y-128000000D01*
X125500000Y-121000000D02*
X124500000Y-121000000D01*
X112000000Y-128000000D02*
X112000000Y-124500000D01*
X116000000Y-128000000D02*
X112000000Y-128000000D01*
X116000000Y-124500000D02*
X116000000Y-128000000D01*
X114500000Y-121000000D02*
X113500000Y-121000000D01*
X101000000Y-128000000D02*
X101000000Y-124500000D01*
X105000000Y-128000000D02*
X101000000Y-128000000D01*
X105000000Y-124500000D02*
X105000000Y-128000000D01*
X103500000Y-121000000D02*
X102500000Y-121000000D01*
D11*
X114312779Y-84840000D02*
X113987221Y-84840000D01*
X114312779Y-85860000D02*
X113987221Y-85860000D01*
X118487221Y-85860000D02*
X118812779Y-85860000D01*
X118487221Y-84840000D02*
X118812779Y-84840000D01*
X122490000Y-86037221D02*
X122490000Y-86362779D01*
X123510000Y-86037221D02*
X123510000Y-86362779D01*
X124240000Y-86037221D02*
X124240000Y-86362779D01*
X125260000Y-86037221D02*
X125260000Y-86362779D01*
X103342779Y-69150000D02*
X103017221Y-69150000D01*
X103342779Y-70170000D02*
X103017221Y-70170000D01*
X153037221Y-96910000D02*
X153362779Y-96910000D01*
X153037221Y-95890000D02*
X153362779Y-95890000D01*
X153187221Y-90460000D02*
X153512779Y-90460000D01*
X153187221Y-89440000D02*
X153512779Y-89440000D01*
X158310000Y-87612779D02*
X158310000Y-87287221D01*
X157290000Y-87612779D02*
X157290000Y-87287221D01*
X158407221Y-90460000D02*
X158732779Y-90460000D01*
X158407221Y-89440000D02*
X158732779Y-89440000D01*
X158337221Y-96910000D02*
X158662779Y-96910000D01*
X158337221Y-95890000D02*
X158662779Y-95890000D01*
X167012779Y-95840000D02*
X166687221Y-95840000D01*
X167012779Y-96860000D02*
X166687221Y-96860000D01*
X167112779Y-89240000D02*
X166787221Y-89240000D01*
X167112779Y-90260000D02*
X166787221Y-90260000D01*
X163160000Y-93312779D02*
X163160000Y-92987221D01*
X162140000Y-93312779D02*
X162140000Y-92987221D01*
X163337221Y-96860000D02*
X163662779Y-96860000D01*
X163337221Y-95840000D02*
X163662779Y-95840000D01*
X174105000Y-100210000D02*
X174105000Y-104120000D01*
X175975000Y-100210000D02*
X174105000Y-100210000D01*
X175975000Y-104120000D02*
X175975000Y-100210000D01*
X176915000Y-100210000D02*
X176915000Y-104120000D01*
X178785000Y-100210000D02*
X176915000Y-100210000D01*
X178785000Y-104120000D02*
X178785000Y-100210000D01*
X189282779Y-103810000D02*
X188957221Y-103810000D01*
X189282779Y-104830000D02*
X188957221Y-104830000D01*
X186000000Y-110251422D02*
X186000000Y-110768578D01*
X187420000Y-110251422D02*
X187420000Y-110768578D01*
X169755000Y-125910000D02*
X169755000Y-122000000D01*
X167885000Y-125910000D02*
X169755000Y-125910000D01*
X167885000Y-122000000D02*
X167885000Y-125910000D01*
X184010000Y-110251422D02*
X184010000Y-110768578D01*
X185430000Y-110251422D02*
X185430000Y-110768578D01*
X183050000Y-110462779D02*
X183050000Y-110137221D01*
X182030000Y-110462779D02*
X182030000Y-110137221D01*
D15*
X173226666Y-74804523D02*
X173226666Y-75711666D01*
X173166190Y-75893095D01*
X173045238Y-76014047D01*
X172863809Y-76074523D01*
X172742857Y-76074523D01*
X174436190Y-74804523D02*
X173831428Y-74804523D01*
X173770952Y-75409285D01*
X173831428Y-75348809D01*
X173952380Y-75288333D01*
X174254761Y-75288333D01*
X174375714Y-75348809D01*
X174436190Y-75409285D01*
X174496666Y-75530238D01*
X174496666Y-75832619D01*
X174436190Y-75953571D01*
X174375714Y-76014047D01*
X174254761Y-76074523D01*
X173952380Y-76074523D01*
X173831428Y-76014047D01*
X173770952Y-75953571D01*
X159576666Y-74804523D02*
X159576666Y-75711666D01*
X159516190Y-75893095D01*
X159395238Y-76014047D01*
X159213809Y-76074523D01*
X159092857Y-76074523D01*
X160725714Y-75227857D02*
X160725714Y-76074523D01*
X160423333Y-74744047D02*
X160120952Y-75651190D01*
X160907142Y-75651190D01*
X145876666Y-74904523D02*
X145876666Y-75811666D01*
X145816190Y-75993095D01*
X145695238Y-76114047D01*
X145513809Y-76174523D01*
X145392857Y-76174523D01*
X146360476Y-74904523D02*
X147146666Y-74904523D01*
X146723333Y-75388333D01*
X146904761Y-75388333D01*
X147025714Y-75448809D01*
X147086190Y-75509285D01*
X147146666Y-75630238D01*
X147146666Y-75932619D01*
X147086190Y-76053571D01*
X147025714Y-76114047D01*
X146904761Y-76174523D01*
X146541904Y-76174523D01*
X146420952Y-76114047D01*
X146360476Y-76053571D01*
X132126666Y-74854523D02*
X132126666Y-75761666D01*
X132066190Y-75943095D01*
X131945238Y-76064047D01*
X131763809Y-76124523D01*
X131642857Y-76124523D01*
X132670952Y-74975476D02*
X132731428Y-74915000D01*
X132852380Y-74854523D01*
X133154761Y-74854523D01*
X133275714Y-74915000D01*
X133336190Y-74975476D01*
X133396666Y-75096428D01*
X133396666Y-75217380D01*
X133336190Y-75398809D01*
X132610476Y-76124523D01*
X133396666Y-76124523D01*
D14*
X129490476Y-108082380D02*
X130109523Y-108082380D01*
X129776190Y-108463333D01*
X129919047Y-108463333D01*
X130014285Y-108510952D01*
X130061904Y-108558571D01*
X130109523Y-108653809D01*
X130109523Y-108891904D01*
X130061904Y-108987142D01*
X130014285Y-109034761D01*
X129919047Y-109082380D01*
X129633333Y-109082380D01*
X129538095Y-109034761D01*
X129490476Y-108987142D01*
X130680952Y-108510952D02*
X130585714Y-108463333D01*
X130538095Y-108415714D01*
X130490476Y-108320476D01*
X130490476Y-108272857D01*
X130538095Y-108177619D01*
X130585714Y-108130000D01*
X130680952Y-108082380D01*
X130871428Y-108082380D01*
X130966666Y-108130000D01*
X131014285Y-108177619D01*
X131061904Y-108272857D01*
X131061904Y-108320476D01*
X131014285Y-108415714D01*
X130966666Y-108463333D01*
X130871428Y-108510952D01*
X130680952Y-108510952D01*
X130585714Y-108558571D01*
X130538095Y-108606190D01*
X130490476Y-108701428D01*
X130490476Y-108891904D01*
X130538095Y-108987142D01*
X130585714Y-109034761D01*
X130680952Y-109082380D01*
X130871428Y-109082380D01*
X130966666Y-109034761D01*
X131014285Y-108987142D01*
X131061904Y-108891904D01*
X131061904Y-108701428D01*
X131014285Y-108606190D01*
X130966666Y-108558571D01*
X130871428Y-108510952D01*
X125700476Y-112302380D02*
X126319523Y-112302380D01*
X125986190Y-112683333D01*
X126129047Y-112683333D01*
X126224285Y-112730952D01*
X126271904Y-112778571D01*
X126319523Y-112873809D01*
X126319523Y-113111904D01*
X126271904Y-113207142D01*
X126224285Y-113254761D01*
X126129047Y-113302380D01*
X125843333Y-113302380D01*
X125748095Y-113254761D01*
X125700476Y-113207142D01*
X126652857Y-112302380D02*
X127319523Y-112302380D01*
X126890952Y-113302380D01*
X123060476Y-112322380D02*
X123679523Y-112322380D01*
X123346190Y-112703333D01*
X123489047Y-112703333D01*
X123584285Y-112750952D01*
X123631904Y-112798571D01*
X123679523Y-112893809D01*
X123679523Y-113131904D01*
X123631904Y-113227142D01*
X123584285Y-113274761D01*
X123489047Y-113322380D01*
X123203333Y-113322380D01*
X123108095Y-113274761D01*
X123060476Y-113227142D01*
X124584285Y-112322380D02*
X124108095Y-112322380D01*
X124060476Y-112798571D01*
X124108095Y-112750952D01*
X124203333Y-112703333D01*
X124441428Y-112703333D01*
X124536666Y-112750952D01*
X124584285Y-112798571D01*
X124631904Y-112893809D01*
X124631904Y-113131904D01*
X124584285Y-113227142D01*
X124536666Y-113274761D01*
X124441428Y-113322380D01*
X124203333Y-113322380D01*
X124108095Y-113274761D01*
X124060476Y-113227142D01*
X120420476Y-112322380D02*
X121039523Y-112322380D01*
X120706190Y-112703333D01*
X120849047Y-112703333D01*
X120944285Y-112750952D01*
X120991904Y-112798571D01*
X121039523Y-112893809D01*
X121039523Y-113131904D01*
X120991904Y-113227142D01*
X120944285Y-113274761D01*
X120849047Y-113322380D01*
X120563333Y-113322380D01*
X120468095Y-113274761D01*
X120420476Y-113227142D01*
X121991904Y-113322380D02*
X121420476Y-113322380D01*
X121706190Y-113322380D02*
X121706190Y-112322380D01*
X121610952Y-112465238D01*
X121515714Y-112560476D01*
X121420476Y-112608095D01*
D15*
X134582380Y-85154523D02*
X134582380Y-86182619D01*
X134642857Y-86303571D01*
X134703333Y-86364047D01*
X134824285Y-86424523D01*
X135066190Y-86424523D01*
X135187142Y-86364047D01*
X135247619Y-86303571D01*
X135308095Y-86182619D01*
X135308095Y-85154523D01*
X135852380Y-85275476D02*
X135912857Y-85215000D01*
X136033809Y-85154523D01*
X136336190Y-85154523D01*
X136457142Y-85215000D01*
X136517619Y-85275476D01*
X136578095Y-85396428D01*
X136578095Y-85517380D01*
X136517619Y-85698809D01*
X135791904Y-86424523D01*
X136578095Y-86424523D01*
X155494523Y-97322380D02*
X156522619Y-97322380D01*
X156643571Y-97261904D01*
X156704047Y-97201428D01*
X156764523Y-97080476D01*
X156764523Y-96838571D01*
X156704047Y-96717619D01*
X156643571Y-96657142D01*
X156522619Y-96596666D01*
X155494523Y-96596666D01*
X156764523Y-95326666D02*
X156764523Y-96052380D01*
X156764523Y-95689523D02*
X155494523Y-95689523D01*
X155675952Y-95810476D01*
X155796904Y-95931428D01*
X155857380Y-96052380D01*
X156038809Y-94600952D02*
X155978333Y-94721904D01*
X155917857Y-94782380D01*
X155796904Y-94842857D01*
X155736428Y-94842857D01*
X155615476Y-94782380D01*
X155555000Y-94721904D01*
X155494523Y-94600952D01*
X155494523Y-94359047D01*
X155555000Y-94238095D01*
X155615476Y-94177619D01*
X155736428Y-94117142D01*
X155796904Y-94117142D01*
X155917857Y-94177619D01*
X155978333Y-94238095D01*
X156038809Y-94359047D01*
X156038809Y-94600952D01*
X156099285Y-94721904D01*
X156159761Y-94782380D01*
X156280714Y-94842857D01*
X156522619Y-94842857D01*
X156643571Y-94782380D01*
X156704047Y-94721904D01*
X156764523Y-94600952D01*
X156764523Y-94359047D01*
X156704047Y-94238095D01*
X156643571Y-94177619D01*
X156522619Y-94117142D01*
X156280714Y-94117142D01*
X156159761Y-94177619D01*
X156099285Y-94238095D01*
X156038809Y-94359047D01*
X150164523Y-95322380D02*
X151192619Y-95322380D01*
X151313571Y-95261904D01*
X151374047Y-95201428D01*
X151434523Y-95080476D01*
X151434523Y-94838571D01*
X151374047Y-94717619D01*
X151313571Y-94657142D01*
X151192619Y-94596666D01*
X150164523Y-94596666D01*
X151434523Y-93326666D02*
X151434523Y-94052380D01*
X151434523Y-93689523D02*
X150164523Y-93689523D01*
X150345952Y-93810476D01*
X150466904Y-93931428D01*
X150527380Y-94052380D01*
X150164523Y-92177619D02*
X150164523Y-92782380D01*
X150769285Y-92842857D01*
X150708809Y-92782380D01*
X150648333Y-92661428D01*
X150648333Y-92359047D01*
X150708809Y-92238095D01*
X150769285Y-92177619D01*
X150890238Y-92117142D01*
X151192619Y-92117142D01*
X151313571Y-92177619D01*
X151374047Y-92238095D01*
X151434523Y-92359047D01*
X151434523Y-92661428D01*
X151374047Y-92782380D01*
X151313571Y-92842857D01*
X169177619Y-91894523D02*
X169177619Y-92922619D01*
X169238095Y-93043571D01*
X169298571Y-93104047D01*
X169419523Y-93164523D01*
X169661428Y-93164523D01*
X169782380Y-93104047D01*
X169842857Y-93043571D01*
X169903333Y-92922619D01*
X169903333Y-91894523D01*
X171173333Y-93164523D02*
X170447619Y-93164523D01*
X170810476Y-93164523D02*
X170810476Y-91894523D01*
X170689523Y-92075952D01*
X170568571Y-92196904D01*
X170447619Y-92257380D01*
X171596666Y-91894523D02*
X172382857Y-91894523D01*
X171959523Y-92378333D01*
X172140952Y-92378333D01*
X172261904Y-92438809D01*
X172322380Y-92499285D01*
X172382857Y-92620238D01*
X172382857Y-92922619D01*
X172322380Y-93043571D01*
X172261904Y-93104047D01*
X172140952Y-93164523D01*
X171778095Y-93164523D01*
X171657142Y-93104047D01*
X171596666Y-93043571D01*
X184832380Y-95844523D02*
X184832380Y-96872619D01*
X184892857Y-96993571D01*
X184953333Y-97054047D01*
X185074285Y-97114523D01*
X185316190Y-97114523D01*
X185437142Y-97054047D01*
X185497619Y-96993571D01*
X185558095Y-96872619D01*
X185558095Y-95844523D01*
X186344285Y-96388809D02*
X186223333Y-96328333D01*
X186162857Y-96267857D01*
X186102380Y-96146904D01*
X186102380Y-96086428D01*
X186162857Y-95965476D01*
X186223333Y-95905000D01*
X186344285Y-95844523D01*
X186586190Y-95844523D01*
X186707142Y-95905000D01*
X186767619Y-95965476D01*
X186828095Y-96086428D01*
X186828095Y-96146904D01*
X186767619Y-96267857D01*
X186707142Y-96328333D01*
X186586190Y-96388809D01*
X186344285Y-96388809D01*
X186223333Y-96449285D01*
X186162857Y-96509761D01*
X186102380Y-96630714D01*
X186102380Y-96872619D01*
X186162857Y-96993571D01*
X186223333Y-97054047D01*
X186344285Y-97114523D01*
X186586190Y-97114523D01*
X186707142Y-97054047D01*
X186767619Y-96993571D01*
X186828095Y-96872619D01*
X186828095Y-96630714D01*
X186767619Y-96509761D01*
X186707142Y-96449285D01*
X186586190Y-96388809D01*
X187607076Y-124156047D02*
X187607076Y-125017833D01*
X187549623Y-125190190D01*
X187434719Y-125305095D01*
X187262361Y-125362547D01*
X187147457Y-125362547D01*
X188066695Y-124156047D02*
X188871028Y-124156047D01*
X188353957Y-125362547D01*
D14*
X114666666Y-63552380D02*
X114666666Y-64266666D01*
X114619047Y-64409523D01*
X114523809Y-64504761D01*
X114380952Y-64552380D01*
X114285714Y-64552380D01*
X115666666Y-64552380D02*
X115095238Y-64552380D01*
X115380952Y-64552380D02*
X115380952Y-63552380D01*
X115285714Y-63695238D01*
X115190476Y-63790476D01*
X115095238Y-63838095D01*
D15*
X148264523Y-103292380D02*
X149292619Y-103292380D01*
X149413571Y-103231904D01*
X149474047Y-103171428D01*
X149534523Y-103050476D01*
X149534523Y-102808571D01*
X149474047Y-102687619D01*
X149413571Y-102627142D01*
X149292619Y-102566666D01*
X148264523Y-102566666D01*
X149534523Y-101296666D02*
X149534523Y-102022380D01*
X149534523Y-101659523D02*
X148264523Y-101659523D01*
X148445952Y-101780476D01*
X148566904Y-101901428D01*
X148627380Y-102022380D01*
X148687857Y-100208095D02*
X149534523Y-100208095D01*
X148204047Y-100510476D02*
X149111190Y-100812857D01*
X149111190Y-100026666D01*
X161144523Y-101507619D02*
X162172619Y-101507619D01*
X162293571Y-101447142D01*
X162354047Y-101386666D01*
X162414523Y-101265714D01*
X162414523Y-101023809D01*
X162354047Y-100902857D01*
X162293571Y-100842380D01*
X162172619Y-100781904D01*
X161144523Y-100781904D01*
X162414523Y-100116666D02*
X162414523Y-99874761D01*
X162354047Y-99753809D01*
X162293571Y-99693333D01*
X162112142Y-99572380D01*
X161870238Y-99511904D01*
X161386428Y-99511904D01*
X161265476Y-99572380D01*
X161205000Y-99632857D01*
X161144523Y-99753809D01*
X161144523Y-99995714D01*
X161205000Y-100116666D01*
X161265476Y-100177142D01*
X161386428Y-100237619D01*
X161688809Y-100237619D01*
X161809761Y-100177142D01*
X161870238Y-100116666D01*
X161930714Y-99995714D01*
X161930714Y-99753809D01*
X161870238Y-99632857D01*
X161809761Y-99572380D01*
X161688809Y-99511904D01*
X180572380Y-97654523D02*
X180572380Y-98682619D01*
X180632857Y-98803571D01*
X180693333Y-98864047D01*
X180814285Y-98924523D01*
X181056190Y-98924523D01*
X181177142Y-98864047D01*
X181237619Y-98803571D01*
X181298095Y-98682619D01*
X181298095Y-97654523D01*
X181781904Y-97654523D02*
X182628571Y-97654523D01*
X182084285Y-98924523D01*
X112212380Y-93574523D02*
X112212380Y-94602619D01*
X112272857Y-94723571D01*
X112333333Y-94784047D01*
X112454285Y-94844523D01*
X112696190Y-94844523D01*
X112817142Y-94784047D01*
X112877619Y-94723571D01*
X112938095Y-94602619D01*
X112938095Y-93574523D01*
X114208095Y-94844523D02*
X113482380Y-94844523D01*
X113845238Y-94844523D02*
X113845238Y-93574523D01*
X113724285Y-93755952D01*
X113603333Y-93876904D01*
X113482380Y-93937380D01*
D14*
X132356666Y-121482380D02*
X132356666Y-122196666D01*
X132309047Y-122339523D01*
X132213809Y-122434761D01*
X132070952Y-122482380D01*
X131975714Y-122482380D01*
X133261428Y-121482380D02*
X133070952Y-121482380D01*
X132975714Y-121530000D01*
X132928095Y-121577619D01*
X132832857Y-121720476D01*
X132785238Y-121910952D01*
X132785238Y-122291904D01*
X132832857Y-122387142D01*
X132880476Y-122434761D01*
X132975714Y-122482380D01*
X133166190Y-122482380D01*
X133261428Y-122434761D01*
X133309047Y-122387142D01*
X133356666Y-122291904D01*
X133356666Y-122053809D01*
X133309047Y-121958571D01*
X133261428Y-121910952D01*
X133166190Y-121863333D01*
X132975714Y-121863333D01*
X132880476Y-121910952D01*
X132832857Y-121958571D01*
X132785238Y-122053809D01*
D15*
X108606666Y-65314047D02*
X108788095Y-65374523D01*
X109090476Y-65374523D01*
X109211428Y-65314047D01*
X109271904Y-65253571D01*
X109332380Y-65132619D01*
X109332380Y-65011666D01*
X109271904Y-64890714D01*
X109211428Y-64830238D01*
X109090476Y-64769761D01*
X108848571Y-64709285D01*
X108727619Y-64648809D01*
X108667142Y-64588333D01*
X108606666Y-64467380D01*
X108606666Y-64346428D01*
X108667142Y-64225476D01*
X108727619Y-64165000D01*
X108848571Y-64104523D01*
X109150952Y-64104523D01*
X109332380Y-64165000D01*
X109755714Y-64104523D02*
X110058095Y-65374523D01*
X110300000Y-64467380D01*
X110541904Y-65374523D01*
X110844285Y-64104523D01*
X111993333Y-65374523D02*
X111267619Y-65374523D01*
X111630476Y-65374523D02*
X111630476Y-64104523D01*
X111509523Y-64285952D01*
X111388571Y-64406904D01*
X111267619Y-64467380D01*
D14*
X115823809Y-78436190D02*
X115823809Y-78912380D01*
X115490476Y-77912380D02*
X115823809Y-78436190D01*
X116157142Y-77912380D01*
X117014285Y-78912380D02*
X116442857Y-78912380D01*
X116728571Y-78912380D02*
X116728571Y-77912380D01*
X116633333Y-78055238D01*
X116538095Y-78150476D01*
X116442857Y-78198095D01*
D15*
X179312380Y-82884523D02*
X179312380Y-83912619D01*
X179372857Y-84033571D01*
X179433333Y-84094047D01*
X179554285Y-84154523D01*
X179796190Y-84154523D01*
X179917142Y-84094047D01*
X179977619Y-84033571D01*
X180038095Y-83912619D01*
X180038095Y-82884523D01*
X181187142Y-82884523D02*
X180945238Y-82884523D01*
X180824285Y-82945000D01*
X180763809Y-83005476D01*
X180642857Y-83186904D01*
X180582380Y-83428809D01*
X180582380Y-83912619D01*
X180642857Y-84033571D01*
X180703333Y-84094047D01*
X180824285Y-84154523D01*
X181066190Y-84154523D01*
X181187142Y-84094047D01*
X181247619Y-84033571D01*
X181308095Y-83912619D01*
X181308095Y-83610238D01*
X181247619Y-83489285D01*
X181187142Y-83428809D01*
X181066190Y-83368333D01*
X180824285Y-83368333D01*
X180703333Y-83428809D01*
X180642857Y-83489285D01*
X180582380Y-83610238D01*
X162932380Y-82994523D02*
X162932380Y-84022619D01*
X162992857Y-84143571D01*
X163053333Y-84204047D01*
X163174285Y-84264523D01*
X163416190Y-84264523D01*
X163537142Y-84204047D01*
X163597619Y-84143571D01*
X163658095Y-84022619D01*
X163658095Y-82994523D01*
X164867619Y-82994523D02*
X164262857Y-82994523D01*
X164202380Y-83599285D01*
X164262857Y-83538809D01*
X164383809Y-83478333D01*
X164686190Y-83478333D01*
X164807142Y-83538809D01*
X164867619Y-83599285D01*
X164928095Y-83720238D01*
X164928095Y-84022619D01*
X164867619Y-84143571D01*
X164807142Y-84204047D01*
X164686190Y-84264523D01*
X164383809Y-84264523D01*
X164262857Y-84204047D01*
X164202380Y-84143571D01*
X149112380Y-82854523D02*
X149112380Y-83882619D01*
X149172857Y-84003571D01*
X149233333Y-84064047D01*
X149354285Y-84124523D01*
X149596190Y-84124523D01*
X149717142Y-84064047D01*
X149777619Y-84003571D01*
X149838095Y-83882619D01*
X149838095Y-82854523D01*
X150987142Y-83277857D02*
X150987142Y-84124523D01*
X150684761Y-82794047D02*
X150382380Y-83701190D01*
X151168571Y-83701190D01*
D14*
X103898095Y-84634380D02*
X104469523Y-84634380D01*
X104183809Y-85634380D02*
X104183809Y-84634380D01*
X104802857Y-85634380D02*
X104802857Y-84634380D01*
X105183809Y-84634380D01*
X105279047Y-84682000D01*
X105326666Y-84729619D01*
X105374285Y-84824857D01*
X105374285Y-84967714D01*
X105326666Y-85062952D01*
X105279047Y-85110571D01*
X105183809Y-85158190D01*
X104802857Y-85158190D01*
X106231428Y-84967714D02*
X106231428Y-85634380D01*
X105993333Y-84586761D02*
X105755238Y-85301047D01*
X106374285Y-85301047D01*
X107008095Y-98424380D02*
X107579523Y-98424380D01*
X107293809Y-99424380D02*
X107293809Y-98424380D01*
X107912857Y-99424380D02*
X107912857Y-98424380D01*
X108293809Y-98424380D01*
X108389047Y-98472000D01*
X108436666Y-98519619D01*
X108484285Y-98614857D01*
X108484285Y-98757714D01*
X108436666Y-98852952D01*
X108389047Y-98900571D01*
X108293809Y-98948190D01*
X107912857Y-98948190D01*
X108817619Y-98424380D02*
X109436666Y-98424380D01*
X109103333Y-98805333D01*
X109246190Y-98805333D01*
X109341428Y-98852952D01*
X109389047Y-98900571D01*
X109436666Y-98995809D01*
X109436666Y-99233904D01*
X109389047Y-99329142D01*
X109341428Y-99376761D01*
X109246190Y-99424380D01*
X108960476Y-99424380D01*
X108865238Y-99376761D01*
X108817619Y-99329142D01*
X177048095Y-110342380D02*
X177619523Y-110342380D01*
X177333809Y-111342380D02*
X177333809Y-110342380D01*
X177952857Y-111342380D02*
X177952857Y-110342380D01*
X178333809Y-110342380D01*
X178429047Y-110390000D01*
X178476666Y-110437619D01*
X178524285Y-110532857D01*
X178524285Y-110675714D01*
X178476666Y-110770952D01*
X178429047Y-110818571D01*
X178333809Y-110866190D01*
X177952857Y-110866190D01*
X178905238Y-110437619D02*
X178952857Y-110390000D01*
X179048095Y-110342380D01*
X179286190Y-110342380D01*
X179381428Y-110390000D01*
X179429047Y-110437619D01*
X179476666Y-110532857D01*
X179476666Y-110628095D01*
X179429047Y-110770952D01*
X178857619Y-111342380D01*
X179476666Y-111342380D01*
X130688095Y-80204380D02*
X131259523Y-80204380D01*
X130973809Y-81204380D02*
X130973809Y-80204380D01*
X131592857Y-81204380D02*
X131592857Y-80204380D01*
X131973809Y-80204380D01*
X132069047Y-80252000D01*
X132116666Y-80299619D01*
X132164285Y-80394857D01*
X132164285Y-80537714D01*
X132116666Y-80632952D01*
X132069047Y-80680571D01*
X131973809Y-80728190D01*
X131592857Y-80728190D01*
X133116666Y-81204380D02*
X132545238Y-81204380D01*
X132830952Y-81204380D02*
X132830952Y-80204380D01*
X132735714Y-80347238D01*
X132640476Y-80442476D01*
X132545238Y-80490095D01*
X195952380Y-101512857D02*
X195476190Y-101846190D01*
X195952380Y-102084285D02*
X194952380Y-102084285D01*
X194952380Y-101703333D01*
X195000000Y-101608095D01*
X195047619Y-101560476D01*
X195142857Y-101512857D01*
X195285714Y-101512857D01*
X195380952Y-101560476D01*
X195428571Y-101608095D01*
X195476190Y-101703333D01*
X195476190Y-102084285D01*
X195285714Y-100655714D02*
X195952380Y-100655714D01*
X194904761Y-100893809D02*
X195619047Y-101131904D01*
X195619047Y-100512857D01*
X194952380Y-99655714D02*
X194952380Y-100131904D01*
X195428571Y-100179523D01*
X195380952Y-100131904D01*
X195333333Y-100036666D01*
X195333333Y-99798571D01*
X195380952Y-99703333D01*
X195428571Y-99655714D01*
X195523809Y-99608095D01*
X195761904Y-99608095D01*
X195857142Y-99655714D01*
X195904761Y-99703333D01*
X195952380Y-99798571D01*
X195952380Y-100036666D01*
X195904761Y-100131904D01*
X195857142Y-100179523D01*
X192702380Y-95202857D02*
X192226190Y-95536190D01*
X192702380Y-95774285D02*
X191702380Y-95774285D01*
X191702380Y-95393333D01*
X191750000Y-95298095D01*
X191797619Y-95250476D01*
X191892857Y-95202857D01*
X192035714Y-95202857D01*
X192130952Y-95250476D01*
X192178571Y-95298095D01*
X192226190Y-95393333D01*
X192226190Y-95774285D01*
X192035714Y-94345714D02*
X192702380Y-94345714D01*
X191654761Y-94583809D02*
X192369047Y-94821904D01*
X192369047Y-94202857D01*
X192035714Y-93393333D02*
X192702380Y-93393333D01*
X191654761Y-93631428D02*
X192369047Y-93869523D01*
X192369047Y-93250476D01*
X192582380Y-104482857D02*
X192106190Y-104816190D01*
X192582380Y-105054285D02*
X191582380Y-105054285D01*
X191582380Y-104673333D01*
X191630000Y-104578095D01*
X191677619Y-104530476D01*
X191772857Y-104482857D01*
X191915714Y-104482857D01*
X192010952Y-104530476D01*
X192058571Y-104578095D01*
X192106190Y-104673333D01*
X192106190Y-105054285D01*
X191915714Y-103625714D02*
X192582380Y-103625714D01*
X191534761Y-103863809D02*
X192249047Y-104101904D01*
X192249047Y-103482857D01*
X191582380Y-103197142D02*
X191582380Y-102578095D01*
X191963333Y-102911428D01*
X191963333Y-102768571D01*
X192010952Y-102673333D01*
X192058571Y-102625714D01*
X192153809Y-102578095D01*
X192391904Y-102578095D01*
X192487142Y-102625714D01*
X192534761Y-102673333D01*
X192582380Y-102768571D01*
X192582380Y-103054285D01*
X192534761Y-103149523D01*
X192487142Y-103197142D01*
X105657142Y-72052380D02*
X105323809Y-71576190D01*
X105085714Y-72052380D02*
X105085714Y-71052380D01*
X105466666Y-71052380D01*
X105561904Y-71100000D01*
X105609523Y-71147619D01*
X105657142Y-71242857D01*
X105657142Y-71385714D01*
X105609523Y-71480952D01*
X105561904Y-71528571D01*
X105466666Y-71576190D01*
X105085714Y-71576190D01*
X106514285Y-71385714D02*
X106514285Y-72052380D01*
X106276190Y-71004761D02*
X106038095Y-71719047D01*
X106657142Y-71719047D01*
X106990476Y-71147619D02*
X107038095Y-71100000D01*
X107133333Y-71052380D01*
X107371428Y-71052380D01*
X107466666Y-71100000D01*
X107514285Y-71147619D01*
X107561904Y-71242857D01*
X107561904Y-71338095D01*
X107514285Y-71480952D01*
X106942857Y-72052380D01*
X107561904Y-72052380D01*
X119322380Y-123572857D02*
X118846190Y-123906190D01*
X119322380Y-124144285D02*
X118322380Y-124144285D01*
X118322380Y-123763333D01*
X118370000Y-123668095D01*
X118417619Y-123620476D01*
X118512857Y-123572857D01*
X118655714Y-123572857D01*
X118750952Y-123620476D01*
X118798571Y-123668095D01*
X118846190Y-123763333D01*
X118846190Y-124144285D01*
X118655714Y-122715714D02*
X119322380Y-122715714D01*
X118274761Y-122953809D02*
X118989047Y-123191904D01*
X118989047Y-122572857D01*
X119322380Y-121668095D02*
X119322380Y-122239523D01*
X119322380Y-121953809D02*
X118322380Y-121953809D01*
X118465238Y-122049047D01*
X118560476Y-122144285D01*
X118608095Y-122239523D01*
X108532380Y-123272857D02*
X108056190Y-123606190D01*
X108532380Y-123844285D02*
X107532380Y-123844285D01*
X107532380Y-123463333D01*
X107580000Y-123368095D01*
X107627619Y-123320476D01*
X107722857Y-123272857D01*
X107865714Y-123272857D01*
X107960952Y-123320476D01*
X108008571Y-123368095D01*
X108056190Y-123463333D01*
X108056190Y-123844285D01*
X107865714Y-122415714D02*
X108532380Y-122415714D01*
X107484761Y-122653809D02*
X108199047Y-122891904D01*
X108199047Y-122272857D01*
X107532380Y-121701428D02*
X107532380Y-121606190D01*
X107580000Y-121510952D01*
X107627619Y-121463333D01*
X107722857Y-121415714D01*
X107913333Y-121368095D01*
X108151428Y-121368095D01*
X108341904Y-121415714D01*
X108437142Y-121463333D01*
X108484761Y-121510952D01*
X108532380Y-121606190D01*
X108532380Y-121701428D01*
X108484761Y-121796666D01*
X108437142Y-121844285D01*
X108341904Y-121891904D01*
X108151428Y-121939523D01*
X107913333Y-121939523D01*
X107722857Y-121891904D01*
X107627619Y-121844285D01*
X107580000Y-121796666D01*
X107532380Y-121701428D01*
X103362380Y-119352857D02*
X102886190Y-119686190D01*
X103362380Y-119924285D02*
X102362380Y-119924285D01*
X102362380Y-119543333D01*
X102410000Y-119448095D01*
X102457619Y-119400476D01*
X102552857Y-119352857D01*
X102695714Y-119352857D01*
X102790952Y-119400476D01*
X102838571Y-119448095D01*
X102886190Y-119543333D01*
X102886190Y-119924285D01*
X102362380Y-119019523D02*
X102362380Y-118400476D01*
X102743333Y-118733809D01*
X102743333Y-118590952D01*
X102790952Y-118495714D01*
X102838571Y-118448095D01*
X102933809Y-118400476D01*
X103171904Y-118400476D01*
X103267142Y-118448095D01*
X103314761Y-118495714D01*
X103362380Y-118590952D01*
X103362380Y-118876666D01*
X103314761Y-118971904D01*
X103267142Y-119019523D01*
X103362380Y-117924285D02*
X103362380Y-117733809D01*
X103314761Y-117638571D01*
X103267142Y-117590952D01*
X103124285Y-117495714D01*
X102933809Y-117448095D01*
X102552857Y-117448095D01*
X102457619Y-117495714D01*
X102410000Y-117543333D01*
X102362380Y-117638571D01*
X102362380Y-117829047D01*
X102410000Y-117924285D01*
X102457619Y-117971904D01*
X102552857Y-118019523D01*
X102790952Y-118019523D01*
X102886190Y-117971904D01*
X102933809Y-117924285D01*
X102981428Y-117829047D01*
X102981428Y-117638571D01*
X102933809Y-117543333D01*
X102886190Y-117495714D01*
X102790952Y-117448095D01*
X161452380Y-88132857D02*
X160976190Y-88466190D01*
X161452380Y-88704285D02*
X160452380Y-88704285D01*
X160452380Y-88323333D01*
X160500000Y-88228095D01*
X160547619Y-88180476D01*
X160642857Y-88132857D01*
X160785714Y-88132857D01*
X160880952Y-88180476D01*
X160928571Y-88228095D01*
X160976190Y-88323333D01*
X160976190Y-88704285D01*
X160452380Y-87799523D02*
X160452380Y-87180476D01*
X160833333Y-87513809D01*
X160833333Y-87370952D01*
X160880952Y-87275714D01*
X160928571Y-87228095D01*
X161023809Y-87180476D01*
X161261904Y-87180476D01*
X161357142Y-87228095D01*
X161404761Y-87275714D01*
X161452380Y-87370952D01*
X161452380Y-87656666D01*
X161404761Y-87751904D01*
X161357142Y-87799523D01*
X160880952Y-86609047D02*
X160833333Y-86704285D01*
X160785714Y-86751904D01*
X160690476Y-86799523D01*
X160642857Y-86799523D01*
X160547619Y-86751904D01*
X160500000Y-86704285D01*
X160452380Y-86609047D01*
X160452380Y-86418571D01*
X160500000Y-86323333D01*
X160547619Y-86275714D01*
X160642857Y-86228095D01*
X160690476Y-86228095D01*
X160785714Y-86275714D01*
X160833333Y-86323333D01*
X160880952Y-86418571D01*
X160880952Y-86609047D01*
X160928571Y-86704285D01*
X160976190Y-86751904D01*
X161071428Y-86799523D01*
X161261904Y-86799523D01*
X161357142Y-86751904D01*
X161404761Y-86704285D01*
X161452380Y-86609047D01*
X161452380Y-86418571D01*
X161404761Y-86323333D01*
X161357142Y-86275714D01*
X161261904Y-86228095D01*
X161071428Y-86228095D01*
X160976190Y-86275714D01*
X160928571Y-86323333D01*
X160880952Y-86418571D01*
X152297142Y-110742380D02*
X151963809Y-110266190D01*
X151725714Y-110742380D02*
X151725714Y-109742380D01*
X152106666Y-109742380D01*
X152201904Y-109790000D01*
X152249523Y-109837619D01*
X152297142Y-109932857D01*
X152297142Y-110075714D01*
X152249523Y-110170952D01*
X152201904Y-110218571D01*
X152106666Y-110266190D01*
X151725714Y-110266190D01*
X152630476Y-109742380D02*
X153249523Y-109742380D01*
X152916190Y-110123333D01*
X153059047Y-110123333D01*
X153154285Y-110170952D01*
X153201904Y-110218571D01*
X153249523Y-110313809D01*
X153249523Y-110551904D01*
X153201904Y-110647142D01*
X153154285Y-110694761D01*
X153059047Y-110742380D01*
X152773333Y-110742380D01*
X152678095Y-110694761D01*
X152630476Y-110647142D01*
X154106666Y-109742380D02*
X153916190Y-109742380D01*
X153820952Y-109790000D01*
X153773333Y-109837619D01*
X153678095Y-109980476D01*
X153630476Y-110170952D01*
X153630476Y-110551904D01*
X153678095Y-110647142D01*
X153725714Y-110694761D01*
X153820952Y-110742380D01*
X154011428Y-110742380D01*
X154106666Y-110694761D01*
X154154285Y-110647142D01*
X154201904Y-110551904D01*
X154201904Y-110313809D01*
X154154285Y-110218571D01*
X154106666Y-110170952D01*
X154011428Y-110123333D01*
X153820952Y-110123333D01*
X153725714Y-110170952D01*
X153678095Y-110218571D01*
X153630476Y-110313809D01*
X147857142Y-108902380D02*
X147523809Y-108426190D01*
X147285714Y-108902380D02*
X147285714Y-107902380D01*
X147666666Y-107902380D01*
X147761904Y-107950000D01*
X147809523Y-107997619D01*
X147857142Y-108092857D01*
X147857142Y-108235714D01*
X147809523Y-108330952D01*
X147761904Y-108378571D01*
X147666666Y-108426190D01*
X147285714Y-108426190D01*
X148190476Y-107902380D02*
X148809523Y-107902380D01*
X148476190Y-108283333D01*
X148619047Y-108283333D01*
X148714285Y-108330952D01*
X148761904Y-108378571D01*
X148809523Y-108473809D01*
X148809523Y-108711904D01*
X148761904Y-108807142D01*
X148714285Y-108854761D01*
X148619047Y-108902380D01*
X148333333Y-108902380D01*
X148238095Y-108854761D01*
X148190476Y-108807142D01*
X149714285Y-107902380D02*
X149238095Y-107902380D01*
X149190476Y-108378571D01*
X149238095Y-108330952D01*
X149333333Y-108283333D01*
X149571428Y-108283333D01*
X149666666Y-108330952D01*
X149714285Y-108378571D01*
X149761904Y-108473809D01*
X149761904Y-108711904D01*
X149714285Y-108807142D01*
X149666666Y-108854761D01*
X149571428Y-108902380D01*
X149333333Y-108902380D01*
X149238095Y-108854761D01*
X149190476Y-108807142D01*
X166702380Y-107542857D02*
X166226190Y-107876190D01*
X166702380Y-108114285D02*
X165702380Y-108114285D01*
X165702380Y-107733333D01*
X165750000Y-107638095D01*
X165797619Y-107590476D01*
X165892857Y-107542857D01*
X166035714Y-107542857D01*
X166130952Y-107590476D01*
X166178571Y-107638095D01*
X166226190Y-107733333D01*
X166226190Y-108114285D01*
X165702380Y-107209523D02*
X165702380Y-106590476D01*
X166083333Y-106923809D01*
X166083333Y-106780952D01*
X166130952Y-106685714D01*
X166178571Y-106638095D01*
X166273809Y-106590476D01*
X166511904Y-106590476D01*
X166607142Y-106638095D01*
X166654761Y-106685714D01*
X166702380Y-106780952D01*
X166702380Y-107066666D01*
X166654761Y-107161904D01*
X166607142Y-107209523D01*
X165797619Y-106209523D02*
X165750000Y-106161904D01*
X165702380Y-106066666D01*
X165702380Y-105828571D01*
X165750000Y-105733333D01*
X165797619Y-105685714D01*
X165892857Y-105638095D01*
X165988095Y-105638095D01*
X166130952Y-105685714D01*
X166702380Y-106257142D01*
X166702380Y-105638095D01*
X162332380Y-108702857D02*
X161856190Y-109036190D01*
X162332380Y-109274285D02*
X161332380Y-109274285D01*
X161332380Y-108893333D01*
X161380000Y-108798095D01*
X161427619Y-108750476D01*
X161522857Y-108702857D01*
X161665714Y-108702857D01*
X161760952Y-108750476D01*
X161808571Y-108798095D01*
X161856190Y-108893333D01*
X161856190Y-109274285D01*
X161332380Y-108369523D02*
X161332380Y-107750476D01*
X161713333Y-108083809D01*
X161713333Y-107940952D01*
X161760952Y-107845714D01*
X161808571Y-107798095D01*
X161903809Y-107750476D01*
X162141904Y-107750476D01*
X162237142Y-107798095D01*
X162284761Y-107845714D01*
X162332380Y-107940952D01*
X162332380Y-108226666D01*
X162284761Y-108321904D01*
X162237142Y-108369523D01*
X162332380Y-106798095D02*
X162332380Y-107369523D01*
X162332380Y-107083809D02*
X161332380Y-107083809D01*
X161475238Y-107179047D01*
X161570476Y-107274285D01*
X161618095Y-107369523D01*
X164682380Y-90852857D02*
X164206190Y-91186190D01*
X164682380Y-91424285D02*
X163682380Y-91424285D01*
X163682380Y-91043333D01*
X163730000Y-90948095D01*
X163777619Y-90900476D01*
X163872857Y-90852857D01*
X164015714Y-90852857D01*
X164110952Y-90900476D01*
X164158571Y-90948095D01*
X164206190Y-91043333D01*
X164206190Y-91424285D01*
X163682380Y-90519523D02*
X163682380Y-89900476D01*
X164063333Y-90233809D01*
X164063333Y-90090952D01*
X164110952Y-89995714D01*
X164158571Y-89948095D01*
X164253809Y-89900476D01*
X164491904Y-89900476D01*
X164587142Y-89948095D01*
X164634761Y-89995714D01*
X164682380Y-90090952D01*
X164682380Y-90376666D01*
X164634761Y-90471904D01*
X164587142Y-90519523D01*
X163682380Y-89281428D02*
X163682380Y-89186190D01*
X163730000Y-89090952D01*
X163777619Y-89043333D01*
X163872857Y-88995714D01*
X164063333Y-88948095D01*
X164301428Y-88948095D01*
X164491904Y-88995714D01*
X164587142Y-89043333D01*
X164634761Y-89090952D01*
X164682380Y-89186190D01*
X164682380Y-89281428D01*
X164634761Y-89376666D01*
X164587142Y-89424285D01*
X164491904Y-89471904D01*
X164301428Y-89519523D01*
X164063333Y-89519523D01*
X163872857Y-89471904D01*
X163777619Y-89424285D01*
X163730000Y-89376666D01*
X163682380Y-89281428D01*
X188227142Y-92762380D02*
X187893809Y-92286190D01*
X187655714Y-92762380D02*
X187655714Y-91762380D01*
X188036666Y-91762380D01*
X188131904Y-91810000D01*
X188179523Y-91857619D01*
X188227142Y-91952857D01*
X188227142Y-92095714D01*
X188179523Y-92190952D01*
X188131904Y-92238571D01*
X188036666Y-92286190D01*
X187655714Y-92286190D01*
X188608095Y-91857619D02*
X188655714Y-91810000D01*
X188750952Y-91762380D01*
X188989047Y-91762380D01*
X189084285Y-91810000D01*
X189131904Y-91857619D01*
X189179523Y-91952857D01*
X189179523Y-92048095D01*
X189131904Y-92190952D01*
X188560476Y-92762380D01*
X189179523Y-92762380D01*
X190036666Y-91762380D02*
X189846190Y-91762380D01*
X189750952Y-91810000D01*
X189703333Y-91857619D01*
X189608095Y-92000476D01*
X189560476Y-92190952D01*
X189560476Y-92571904D01*
X189608095Y-92667142D01*
X189655714Y-92714761D01*
X189750952Y-92762380D01*
X189941428Y-92762380D01*
X190036666Y-92714761D01*
X190084285Y-92667142D01*
X190131904Y-92571904D01*
X190131904Y-92333809D01*
X190084285Y-92238571D01*
X190036666Y-92190952D01*
X189941428Y-92143333D01*
X189750952Y-92143333D01*
X189655714Y-92190952D01*
X189608095Y-92238571D01*
X189560476Y-92333809D01*
X184027142Y-88752380D02*
X183693809Y-88276190D01*
X183455714Y-88752380D02*
X183455714Y-87752380D01*
X183836666Y-87752380D01*
X183931904Y-87800000D01*
X183979523Y-87847619D01*
X184027142Y-87942857D01*
X184027142Y-88085714D01*
X183979523Y-88180952D01*
X183931904Y-88228571D01*
X183836666Y-88276190D01*
X183455714Y-88276190D01*
X184979523Y-88752380D02*
X184408095Y-88752380D01*
X184693809Y-88752380D02*
X184693809Y-87752380D01*
X184598571Y-87895238D01*
X184503333Y-87990476D01*
X184408095Y-88038095D01*
X185455714Y-88752380D02*
X185646190Y-88752380D01*
X185741428Y-88704761D01*
X185789047Y-88657142D01*
X185884285Y-88514285D01*
X185931904Y-88323809D01*
X185931904Y-87942857D01*
X185884285Y-87847619D01*
X185836666Y-87800000D01*
X185741428Y-87752380D01*
X185550952Y-87752380D01*
X185455714Y-87800000D01*
X185408095Y-87847619D01*
X185360476Y-87942857D01*
X185360476Y-88180952D01*
X185408095Y-88276190D01*
X185455714Y-88323809D01*
X185550952Y-88371428D01*
X185741428Y-88371428D01*
X185836666Y-88323809D01*
X185884285Y-88276190D01*
X185931904Y-88180952D01*
X169387142Y-88532380D02*
X169053809Y-88056190D01*
X168815714Y-88532380D02*
X168815714Y-87532380D01*
X169196666Y-87532380D01*
X169291904Y-87580000D01*
X169339523Y-87627619D01*
X169387142Y-87722857D01*
X169387142Y-87865714D01*
X169339523Y-87960952D01*
X169291904Y-88008571D01*
X169196666Y-88056190D01*
X168815714Y-88056190D01*
X170339523Y-88532380D02*
X169768095Y-88532380D01*
X170053809Y-88532380D02*
X170053809Y-87532380D01*
X169958571Y-87675238D01*
X169863333Y-87770476D01*
X169768095Y-87818095D01*
X171196666Y-87532380D02*
X171006190Y-87532380D01*
X170910952Y-87580000D01*
X170863333Y-87627619D01*
X170768095Y-87770476D01*
X170720476Y-87960952D01*
X170720476Y-88341904D01*
X170768095Y-88437142D01*
X170815714Y-88484761D01*
X170910952Y-88532380D01*
X171101428Y-88532380D01*
X171196666Y-88484761D01*
X171244285Y-88437142D01*
X171291904Y-88341904D01*
X171291904Y-88103809D01*
X171244285Y-88008571D01*
X171196666Y-87960952D01*
X171101428Y-87913333D01*
X170910952Y-87913333D01*
X170815714Y-87960952D01*
X170768095Y-88008571D01*
X170720476Y-88103809D01*
X150583333Y-88692380D02*
X150250000Y-88216190D01*
X150011904Y-88692380D02*
X150011904Y-87692380D01*
X150392857Y-87692380D01*
X150488095Y-87740000D01*
X150535714Y-87787619D01*
X150583333Y-87882857D01*
X150583333Y-88025714D01*
X150535714Y-88120952D01*
X150488095Y-88168571D01*
X150392857Y-88216190D01*
X150011904Y-88216190D01*
X151488095Y-87692380D02*
X151011904Y-87692380D01*
X150964285Y-88168571D01*
X151011904Y-88120952D01*
X151107142Y-88073333D01*
X151345238Y-88073333D01*
X151440476Y-88120952D01*
X151488095Y-88168571D01*
X151535714Y-88263809D01*
X151535714Y-88501904D01*
X151488095Y-88597142D01*
X151440476Y-88644761D01*
X151345238Y-88692380D01*
X151107142Y-88692380D01*
X151011904Y-88644761D01*
X150964285Y-88597142D01*
X132102380Y-94416666D02*
X131626190Y-94750000D01*
X132102380Y-94988095D02*
X131102380Y-94988095D01*
X131102380Y-94607142D01*
X131150000Y-94511904D01*
X131197619Y-94464285D01*
X131292857Y-94416666D01*
X131435714Y-94416666D01*
X131530952Y-94464285D01*
X131578571Y-94511904D01*
X131626190Y-94607142D01*
X131626190Y-94988095D01*
X131435714Y-93559523D02*
X132102380Y-93559523D01*
X131054761Y-93797619D02*
X131769047Y-94035714D01*
X131769047Y-93416666D01*
X133683333Y-94452380D02*
X133350000Y-93976190D01*
X133111904Y-94452380D02*
X133111904Y-93452380D01*
X133492857Y-93452380D01*
X133588095Y-93500000D01*
X133635714Y-93547619D01*
X133683333Y-93642857D01*
X133683333Y-93785714D01*
X133635714Y-93880952D01*
X133588095Y-93928571D01*
X133492857Y-93976190D01*
X133111904Y-93976190D01*
X134016666Y-93452380D02*
X134635714Y-93452380D01*
X134302380Y-93833333D01*
X134445238Y-93833333D01*
X134540476Y-93880952D01*
X134588095Y-93928571D01*
X134635714Y-94023809D01*
X134635714Y-94261904D01*
X134588095Y-94357142D01*
X134540476Y-94404761D01*
X134445238Y-94452380D01*
X134159523Y-94452380D01*
X134064285Y-94404761D01*
X134016666Y-94357142D01*
X133303333Y-90132380D02*
X132970000Y-89656190D01*
X132731904Y-90132380D02*
X132731904Y-89132380D01*
X133112857Y-89132380D01*
X133208095Y-89180000D01*
X133255714Y-89227619D01*
X133303333Y-89322857D01*
X133303333Y-89465714D01*
X133255714Y-89560952D01*
X133208095Y-89608571D01*
X133112857Y-89656190D01*
X132731904Y-89656190D01*
X133684285Y-89227619D02*
X133731904Y-89180000D01*
X133827142Y-89132380D01*
X134065238Y-89132380D01*
X134160476Y-89180000D01*
X134208095Y-89227619D01*
X134255714Y-89322857D01*
X134255714Y-89418095D01*
X134208095Y-89560952D01*
X133636666Y-90132380D01*
X134255714Y-90132380D01*
X126412380Y-80536666D02*
X125936190Y-80870000D01*
X126412380Y-81108095D02*
X125412380Y-81108095D01*
X125412380Y-80727142D01*
X125460000Y-80631904D01*
X125507619Y-80584285D01*
X125602857Y-80536666D01*
X125745714Y-80536666D01*
X125840952Y-80584285D01*
X125888571Y-80631904D01*
X125936190Y-80727142D01*
X125936190Y-81108095D01*
X126412380Y-79584285D02*
X126412380Y-80155714D01*
X126412380Y-79870000D02*
X125412380Y-79870000D01*
X125555238Y-79965238D01*
X125650476Y-80060476D01*
X125698095Y-80155714D01*
X127236666Y-82652380D02*
X127236666Y-83366666D01*
X127189047Y-83509523D01*
X127093809Y-83604761D01*
X126950952Y-83652380D01*
X126855714Y-83652380D01*
X127712857Y-83652380D02*
X127712857Y-82652380D01*
X128093809Y-82652380D01*
X128189047Y-82700000D01*
X128236666Y-82747619D01*
X128284285Y-82842857D01*
X128284285Y-82985714D01*
X128236666Y-83080952D01*
X128189047Y-83128571D01*
X128093809Y-83176190D01*
X127712857Y-83176190D01*
X128617619Y-82652380D02*
X129284285Y-82652380D01*
X128855714Y-83652380D01*
X138656666Y-105892380D02*
X138656666Y-106606666D01*
X138609047Y-106749523D01*
X138513809Y-106844761D01*
X138370952Y-106892380D01*
X138275714Y-106892380D01*
X139132857Y-106892380D02*
X139132857Y-105892380D01*
X139513809Y-105892380D01*
X139609047Y-105940000D01*
X139656666Y-105987619D01*
X139704285Y-106082857D01*
X139704285Y-106225714D01*
X139656666Y-106320952D01*
X139609047Y-106368571D01*
X139513809Y-106416190D01*
X139132857Y-106416190D01*
X140561428Y-105892380D02*
X140370952Y-105892380D01*
X140275714Y-105940000D01*
X140228095Y-105987619D01*
X140132857Y-106130476D01*
X140085238Y-106320952D01*
X140085238Y-106701904D01*
X140132857Y-106797142D01*
X140180476Y-106844761D01*
X140275714Y-106892380D01*
X140466190Y-106892380D01*
X140561428Y-106844761D01*
X140609047Y-106797142D01*
X140656666Y-106701904D01*
X140656666Y-106463809D01*
X140609047Y-106368571D01*
X140561428Y-106320952D01*
X140466190Y-106273333D01*
X140275714Y-106273333D01*
X140180476Y-106320952D01*
X140132857Y-106368571D01*
X140085238Y-106463809D01*
X138626666Y-103082380D02*
X138626666Y-103796666D01*
X138579047Y-103939523D01*
X138483809Y-104034761D01*
X138340952Y-104082380D01*
X138245714Y-104082380D01*
X139102857Y-104082380D02*
X139102857Y-103082380D01*
X139483809Y-103082380D01*
X139579047Y-103130000D01*
X139626666Y-103177619D01*
X139674285Y-103272857D01*
X139674285Y-103415714D01*
X139626666Y-103510952D01*
X139579047Y-103558571D01*
X139483809Y-103606190D01*
X139102857Y-103606190D01*
X140579047Y-103082380D02*
X140102857Y-103082380D01*
X140055238Y-103558571D01*
X140102857Y-103510952D01*
X140198095Y-103463333D01*
X140436190Y-103463333D01*
X140531428Y-103510952D01*
X140579047Y-103558571D01*
X140626666Y-103653809D01*
X140626666Y-103891904D01*
X140579047Y-103987142D01*
X140531428Y-104034761D01*
X140436190Y-104082380D01*
X140198095Y-104082380D01*
X140102857Y-104034761D01*
X140055238Y-103987142D01*
X138746666Y-95642380D02*
X138746666Y-96356666D01*
X138699047Y-96499523D01*
X138603809Y-96594761D01*
X138460952Y-96642380D01*
X138365714Y-96642380D01*
X139222857Y-96642380D02*
X139222857Y-95642380D01*
X139603809Y-95642380D01*
X139699047Y-95690000D01*
X139746666Y-95737619D01*
X139794285Y-95832857D01*
X139794285Y-95975714D01*
X139746666Y-96070952D01*
X139699047Y-96118571D01*
X139603809Y-96166190D01*
X139222857Y-96166190D01*
X140651428Y-95975714D02*
X140651428Y-96642380D01*
X140413333Y-95594761D02*
X140175238Y-96309047D01*
X140794285Y-96309047D01*
X138686666Y-98472380D02*
X138686666Y-99186666D01*
X138639047Y-99329523D01*
X138543809Y-99424761D01*
X138400952Y-99472380D01*
X138305714Y-99472380D01*
X139162857Y-99472380D02*
X139162857Y-98472380D01*
X139543809Y-98472380D01*
X139639047Y-98520000D01*
X139686666Y-98567619D01*
X139734285Y-98662857D01*
X139734285Y-98805714D01*
X139686666Y-98900952D01*
X139639047Y-98948571D01*
X139543809Y-98996190D01*
X139162857Y-98996190D01*
X140067619Y-98472380D02*
X140686666Y-98472380D01*
X140353333Y-98853333D01*
X140496190Y-98853333D01*
X140591428Y-98900952D01*
X140639047Y-98948571D01*
X140686666Y-99043809D01*
X140686666Y-99281904D01*
X140639047Y-99377142D01*
X140591428Y-99424761D01*
X140496190Y-99472380D01*
X140210476Y-99472380D01*
X140115238Y-99424761D01*
X140067619Y-99377142D01*
X138506666Y-90912380D02*
X138506666Y-91626666D01*
X138459047Y-91769523D01*
X138363809Y-91864761D01*
X138220952Y-91912380D01*
X138125714Y-91912380D01*
X138982857Y-91912380D02*
X138982857Y-90912380D01*
X139363809Y-90912380D01*
X139459047Y-90960000D01*
X139506666Y-91007619D01*
X139554285Y-91102857D01*
X139554285Y-91245714D01*
X139506666Y-91340952D01*
X139459047Y-91388571D01*
X139363809Y-91436190D01*
X138982857Y-91436190D01*
X139935238Y-91007619D02*
X139982857Y-90960000D01*
X140078095Y-90912380D01*
X140316190Y-90912380D01*
X140411428Y-90960000D01*
X140459047Y-91007619D01*
X140506666Y-91102857D01*
X140506666Y-91198095D01*
X140459047Y-91340952D01*
X139887619Y-91912380D01*
X140506666Y-91912380D01*
X138626666Y-88132380D02*
X138626666Y-88846666D01*
X138579047Y-88989523D01*
X138483809Y-89084761D01*
X138340952Y-89132380D01*
X138245714Y-89132380D01*
X139102857Y-89132380D02*
X139102857Y-88132380D01*
X139483809Y-88132380D01*
X139579047Y-88180000D01*
X139626666Y-88227619D01*
X139674285Y-88322857D01*
X139674285Y-88465714D01*
X139626666Y-88560952D01*
X139579047Y-88608571D01*
X139483809Y-88656190D01*
X139102857Y-88656190D01*
X140626666Y-89132380D02*
X140055238Y-89132380D01*
X140340952Y-89132380D02*
X140340952Y-88132380D01*
X140245714Y-88275238D01*
X140150476Y-88370476D01*
X140055238Y-88418095D01*
X107666666Y-78052380D02*
X107666666Y-78766666D01*
X107619047Y-78909523D01*
X107523809Y-79004761D01*
X107380952Y-79052380D01*
X107285714Y-79052380D01*
X108285714Y-78480952D02*
X108190476Y-78433333D01*
X108142857Y-78385714D01*
X108095238Y-78290476D01*
X108095238Y-78242857D01*
X108142857Y-78147619D01*
X108190476Y-78100000D01*
X108285714Y-78052380D01*
X108476190Y-78052380D01*
X108571428Y-78100000D01*
X108619047Y-78147619D01*
X108666666Y-78242857D01*
X108666666Y-78290476D01*
X108619047Y-78385714D01*
X108571428Y-78433333D01*
X108476190Y-78480952D01*
X108285714Y-78480952D01*
X108190476Y-78528571D01*
X108142857Y-78576190D01*
X108095238Y-78671428D01*
X108095238Y-78861904D01*
X108142857Y-78957142D01*
X108190476Y-79004761D01*
X108285714Y-79052380D01*
X108476190Y-79052380D01*
X108571428Y-79004761D01*
X108619047Y-78957142D01*
X108666666Y-78861904D01*
X108666666Y-78671428D01*
X108619047Y-78576190D01*
X108571428Y-78528571D01*
X108476190Y-78480952D01*
D15*
X124062619Y-126224523D02*
X124062619Y-124954523D01*
X124365000Y-124954523D01*
X124546428Y-125015000D01*
X124667380Y-125135952D01*
X124727857Y-125256904D01*
X124788333Y-125498809D01*
X124788333Y-125680238D01*
X124727857Y-125922142D01*
X124667380Y-126043095D01*
X124546428Y-126164047D01*
X124365000Y-126224523D01*
X124062619Y-126224523D01*
X125393095Y-126224523D02*
X125635000Y-126224523D01*
X125755952Y-126164047D01*
X125816428Y-126103571D01*
X125937380Y-125922142D01*
X125997857Y-125680238D01*
X125997857Y-125196428D01*
X125937380Y-125075476D01*
X125876904Y-125015000D01*
X125755952Y-124954523D01*
X125514047Y-124954523D01*
X125393095Y-125015000D01*
X125332619Y-125075476D01*
X125272142Y-125196428D01*
X125272142Y-125498809D01*
X125332619Y-125619761D01*
X125393095Y-125680238D01*
X125514047Y-125740714D01*
X125755952Y-125740714D01*
X125876904Y-125680238D01*
X125937380Y-125619761D01*
X125997857Y-125498809D01*
X113062619Y-126224523D02*
X113062619Y-124954523D01*
X113365000Y-124954523D01*
X113546428Y-125015000D01*
X113667380Y-125135952D01*
X113727857Y-125256904D01*
X113788333Y-125498809D01*
X113788333Y-125680238D01*
X113727857Y-125922142D01*
X113667380Y-126043095D01*
X113546428Y-126164047D01*
X113365000Y-126224523D01*
X113062619Y-126224523D01*
X114514047Y-125498809D02*
X114393095Y-125438333D01*
X114332619Y-125377857D01*
X114272142Y-125256904D01*
X114272142Y-125196428D01*
X114332619Y-125075476D01*
X114393095Y-125015000D01*
X114514047Y-124954523D01*
X114755952Y-124954523D01*
X114876904Y-125015000D01*
X114937380Y-125075476D01*
X114997857Y-125196428D01*
X114997857Y-125256904D01*
X114937380Y-125377857D01*
X114876904Y-125438333D01*
X114755952Y-125498809D01*
X114514047Y-125498809D01*
X114393095Y-125559285D01*
X114332619Y-125619761D01*
X114272142Y-125740714D01*
X114272142Y-125982619D01*
X114332619Y-126103571D01*
X114393095Y-126164047D01*
X114514047Y-126224523D01*
X114755952Y-126224523D01*
X114876904Y-126164047D01*
X114937380Y-126103571D01*
X114997857Y-125982619D01*
X114997857Y-125740714D01*
X114937380Y-125619761D01*
X114876904Y-125559285D01*
X114755952Y-125498809D01*
X102062619Y-126224523D02*
X102062619Y-124954523D01*
X102365000Y-124954523D01*
X102546428Y-125015000D01*
X102667380Y-125135952D01*
X102727857Y-125256904D01*
X102788333Y-125498809D01*
X102788333Y-125680238D01*
X102727857Y-125922142D01*
X102667380Y-126043095D01*
X102546428Y-126164047D01*
X102365000Y-126224523D01*
X102062619Y-126224523D01*
X103211666Y-124954523D02*
X104058333Y-124954523D01*
X103514047Y-126224523D01*
D14*
X113557142Y-87207142D02*
X113509523Y-87254761D01*
X113366666Y-87302380D01*
X113271428Y-87302380D01*
X113128571Y-87254761D01*
X113033333Y-87159523D01*
X112985714Y-87064285D01*
X112938095Y-86873809D01*
X112938095Y-86730952D01*
X112985714Y-86540476D01*
X113033333Y-86445238D01*
X113128571Y-86350000D01*
X113271428Y-86302380D01*
X113366666Y-86302380D01*
X113509523Y-86350000D01*
X113557142Y-86397619D01*
X114414285Y-86635714D02*
X114414285Y-87302380D01*
X114176190Y-86254761D02*
X113938095Y-86969047D01*
X114557142Y-86969047D01*
X114842857Y-86302380D02*
X115461904Y-86302380D01*
X115128571Y-86683333D01*
X115271428Y-86683333D01*
X115366666Y-86730952D01*
X115414285Y-86778571D01*
X115461904Y-86873809D01*
X115461904Y-87111904D01*
X115414285Y-87207142D01*
X115366666Y-87254761D01*
X115271428Y-87302380D01*
X114985714Y-87302380D01*
X114890476Y-87254761D01*
X114842857Y-87207142D01*
X118037142Y-87157142D02*
X117989523Y-87204761D01*
X117846666Y-87252380D01*
X117751428Y-87252380D01*
X117608571Y-87204761D01*
X117513333Y-87109523D01*
X117465714Y-87014285D01*
X117418095Y-86823809D01*
X117418095Y-86680952D01*
X117465714Y-86490476D01*
X117513333Y-86395238D01*
X117608571Y-86300000D01*
X117751428Y-86252380D01*
X117846666Y-86252380D01*
X117989523Y-86300000D01*
X118037142Y-86347619D01*
X118894285Y-86585714D02*
X118894285Y-87252380D01*
X118656190Y-86204761D02*
X118418095Y-86919047D01*
X119037142Y-86919047D01*
X119370476Y-86347619D02*
X119418095Y-86300000D01*
X119513333Y-86252380D01*
X119751428Y-86252380D01*
X119846666Y-86300000D01*
X119894285Y-86347619D01*
X119941904Y-86442857D01*
X119941904Y-86538095D01*
X119894285Y-86680952D01*
X119322857Y-87252380D01*
X119941904Y-87252380D01*
X123117142Y-89642857D02*
X123164761Y-89690476D01*
X123212380Y-89833333D01*
X123212380Y-89928571D01*
X123164761Y-90071428D01*
X123069523Y-90166666D01*
X122974285Y-90214285D01*
X122783809Y-90261904D01*
X122640952Y-90261904D01*
X122450476Y-90214285D01*
X122355238Y-90166666D01*
X122260000Y-90071428D01*
X122212380Y-89928571D01*
X122212380Y-89833333D01*
X122260000Y-89690476D01*
X122307619Y-89642857D01*
X122545714Y-88785714D02*
X123212380Y-88785714D01*
X122164761Y-89023809D02*
X122879047Y-89261904D01*
X122879047Y-88642857D01*
X123212380Y-87738095D02*
X123212380Y-88309523D01*
X123212380Y-88023809D02*
X122212380Y-88023809D01*
X122355238Y-88119047D01*
X122450476Y-88214285D01*
X122498095Y-88309523D01*
X124887142Y-89642857D02*
X124934761Y-89690476D01*
X124982380Y-89833333D01*
X124982380Y-89928571D01*
X124934761Y-90071428D01*
X124839523Y-90166666D01*
X124744285Y-90214285D01*
X124553809Y-90261904D01*
X124410952Y-90261904D01*
X124220476Y-90214285D01*
X124125238Y-90166666D01*
X124030000Y-90071428D01*
X123982380Y-89928571D01*
X123982380Y-89833333D01*
X124030000Y-89690476D01*
X124077619Y-89642857D01*
X123982380Y-89309523D02*
X123982380Y-88690476D01*
X124363333Y-89023809D01*
X124363333Y-88880952D01*
X124410952Y-88785714D01*
X124458571Y-88738095D01*
X124553809Y-88690476D01*
X124791904Y-88690476D01*
X124887142Y-88738095D01*
X124934761Y-88785714D01*
X124982380Y-88880952D01*
X124982380Y-89166666D01*
X124934761Y-89261904D01*
X124887142Y-89309523D01*
X123982380Y-88357142D02*
X123982380Y-87690476D01*
X124982380Y-88119047D01*
X105657142Y-70257142D02*
X105609523Y-70304761D01*
X105466666Y-70352380D01*
X105371428Y-70352380D01*
X105228571Y-70304761D01*
X105133333Y-70209523D01*
X105085714Y-70114285D01*
X105038095Y-69923809D01*
X105038095Y-69780952D01*
X105085714Y-69590476D01*
X105133333Y-69495238D01*
X105228571Y-69400000D01*
X105371428Y-69352380D01*
X105466666Y-69352380D01*
X105609523Y-69400000D01*
X105657142Y-69447619D01*
X105990476Y-69352380D02*
X106609523Y-69352380D01*
X106276190Y-69733333D01*
X106419047Y-69733333D01*
X106514285Y-69780952D01*
X106561904Y-69828571D01*
X106609523Y-69923809D01*
X106609523Y-70161904D01*
X106561904Y-70257142D01*
X106514285Y-70304761D01*
X106419047Y-70352380D01*
X106133333Y-70352380D01*
X106038095Y-70304761D01*
X105990476Y-70257142D01*
X107466666Y-69352380D02*
X107276190Y-69352380D01*
X107180952Y-69400000D01*
X107133333Y-69447619D01*
X107038095Y-69590476D01*
X106990476Y-69780952D01*
X106990476Y-70161904D01*
X107038095Y-70257142D01*
X107085714Y-70304761D01*
X107180952Y-70352380D01*
X107371428Y-70352380D01*
X107466666Y-70304761D01*
X107514285Y-70257142D01*
X107561904Y-70161904D01*
X107561904Y-69923809D01*
X107514285Y-69828571D01*
X107466666Y-69780952D01*
X107371428Y-69733333D01*
X107180952Y-69733333D01*
X107085714Y-69780952D01*
X107038095Y-69828571D01*
X106990476Y-69923809D01*
X149607142Y-96567142D02*
X149559523Y-96614761D01*
X149416666Y-96662380D01*
X149321428Y-96662380D01*
X149178571Y-96614761D01*
X149083333Y-96519523D01*
X149035714Y-96424285D01*
X148988095Y-96233809D01*
X148988095Y-96090952D01*
X149035714Y-95900476D01*
X149083333Y-95805238D01*
X149178571Y-95710000D01*
X149321428Y-95662380D01*
X149416666Y-95662380D01*
X149559523Y-95710000D01*
X149607142Y-95757619D01*
X149940476Y-95662380D02*
X150559523Y-95662380D01*
X150226190Y-96043333D01*
X150369047Y-96043333D01*
X150464285Y-96090952D01*
X150511904Y-96138571D01*
X150559523Y-96233809D01*
X150559523Y-96471904D01*
X150511904Y-96567142D01*
X150464285Y-96614761D01*
X150369047Y-96662380D01*
X150083333Y-96662380D01*
X149988095Y-96614761D01*
X149940476Y-96567142D01*
X151464285Y-95662380D02*
X150988095Y-95662380D01*
X150940476Y-96138571D01*
X150988095Y-96090952D01*
X151083333Y-96043333D01*
X151321428Y-96043333D01*
X151416666Y-96090952D01*
X151464285Y-96138571D01*
X151511904Y-96233809D01*
X151511904Y-96471904D01*
X151464285Y-96567142D01*
X151416666Y-96614761D01*
X151321428Y-96662380D01*
X151083333Y-96662380D01*
X150988095Y-96614761D01*
X150940476Y-96567142D01*
X149687142Y-90377142D02*
X149639523Y-90424761D01*
X149496666Y-90472380D01*
X149401428Y-90472380D01*
X149258571Y-90424761D01*
X149163333Y-90329523D01*
X149115714Y-90234285D01*
X149068095Y-90043809D01*
X149068095Y-89900952D01*
X149115714Y-89710476D01*
X149163333Y-89615238D01*
X149258571Y-89520000D01*
X149401428Y-89472380D01*
X149496666Y-89472380D01*
X149639523Y-89520000D01*
X149687142Y-89567619D01*
X150020476Y-89472380D02*
X150639523Y-89472380D01*
X150306190Y-89853333D01*
X150449047Y-89853333D01*
X150544285Y-89900952D01*
X150591904Y-89948571D01*
X150639523Y-90043809D01*
X150639523Y-90281904D01*
X150591904Y-90377142D01*
X150544285Y-90424761D01*
X150449047Y-90472380D01*
X150163333Y-90472380D01*
X150068095Y-90424761D01*
X150020476Y-90377142D01*
X151496666Y-89805714D02*
X151496666Y-90472380D01*
X151258571Y-89424761D02*
X151020476Y-90139047D01*
X151639523Y-90139047D01*
X156727142Y-88092857D02*
X156774761Y-88140476D01*
X156822380Y-88283333D01*
X156822380Y-88378571D01*
X156774761Y-88521428D01*
X156679523Y-88616666D01*
X156584285Y-88664285D01*
X156393809Y-88711904D01*
X156250952Y-88711904D01*
X156060476Y-88664285D01*
X155965238Y-88616666D01*
X155870000Y-88521428D01*
X155822380Y-88378571D01*
X155822380Y-88283333D01*
X155870000Y-88140476D01*
X155917619Y-88092857D01*
X155822380Y-87759523D02*
X155822380Y-87140476D01*
X156203333Y-87473809D01*
X156203333Y-87330952D01*
X156250952Y-87235714D01*
X156298571Y-87188095D01*
X156393809Y-87140476D01*
X156631904Y-87140476D01*
X156727142Y-87188095D01*
X156774761Y-87235714D01*
X156822380Y-87330952D01*
X156822380Y-87616666D01*
X156774761Y-87711904D01*
X156727142Y-87759523D01*
X155917619Y-86759523D02*
X155870000Y-86711904D01*
X155822380Y-86616666D01*
X155822380Y-86378571D01*
X155870000Y-86283333D01*
X155917619Y-86235714D01*
X156012857Y-86188095D01*
X156108095Y-86188095D01*
X156250952Y-86235714D01*
X156822380Y-86807142D01*
X156822380Y-86188095D01*
X155117142Y-90307142D02*
X155069523Y-90354761D01*
X154926666Y-90402380D01*
X154831428Y-90402380D01*
X154688571Y-90354761D01*
X154593333Y-90259523D01*
X154545714Y-90164285D01*
X154498095Y-89973809D01*
X154498095Y-89830952D01*
X154545714Y-89640476D01*
X154593333Y-89545238D01*
X154688571Y-89450000D01*
X154831428Y-89402380D01*
X154926666Y-89402380D01*
X155069523Y-89450000D01*
X155117142Y-89497619D01*
X155450476Y-89402380D02*
X156069523Y-89402380D01*
X155736190Y-89783333D01*
X155879047Y-89783333D01*
X155974285Y-89830952D01*
X156021904Y-89878571D01*
X156069523Y-89973809D01*
X156069523Y-90211904D01*
X156021904Y-90307142D01*
X155974285Y-90354761D01*
X155879047Y-90402380D01*
X155593333Y-90402380D01*
X155498095Y-90354761D01*
X155450476Y-90307142D01*
X157021904Y-90402380D02*
X156450476Y-90402380D01*
X156736190Y-90402380D02*
X156736190Y-89402380D01*
X156640952Y-89545238D01*
X156545714Y-89640476D01*
X156450476Y-89688095D01*
X158067142Y-98237142D02*
X158019523Y-98284761D01*
X157876666Y-98332380D01*
X157781428Y-98332380D01*
X157638571Y-98284761D01*
X157543333Y-98189523D01*
X157495714Y-98094285D01*
X157448095Y-97903809D01*
X157448095Y-97760952D01*
X157495714Y-97570476D01*
X157543333Y-97475238D01*
X157638571Y-97380000D01*
X157781428Y-97332380D01*
X157876666Y-97332380D01*
X158019523Y-97380000D01*
X158067142Y-97427619D01*
X158400476Y-97332380D02*
X159019523Y-97332380D01*
X158686190Y-97713333D01*
X158829047Y-97713333D01*
X158924285Y-97760952D01*
X158971904Y-97808571D01*
X159019523Y-97903809D01*
X159019523Y-98141904D01*
X158971904Y-98237142D01*
X158924285Y-98284761D01*
X158829047Y-98332380D01*
X158543333Y-98332380D01*
X158448095Y-98284761D01*
X158400476Y-98237142D01*
X159638571Y-97332380D02*
X159733809Y-97332380D01*
X159829047Y-97380000D01*
X159876666Y-97427619D01*
X159924285Y-97522857D01*
X159971904Y-97713333D01*
X159971904Y-97951428D01*
X159924285Y-98141904D01*
X159876666Y-98237142D01*
X159829047Y-98284761D01*
X159733809Y-98332380D01*
X159638571Y-98332380D01*
X159543333Y-98284761D01*
X159495714Y-98237142D01*
X159448095Y-98141904D01*
X159400476Y-97951428D01*
X159400476Y-97713333D01*
X159448095Y-97522857D01*
X159495714Y-97427619D01*
X159543333Y-97380000D01*
X159638571Y-97332380D01*
X168742857Y-95807142D02*
X168695238Y-95759523D01*
X168647619Y-95616666D01*
X168647619Y-95521428D01*
X168695238Y-95378571D01*
X168790476Y-95283333D01*
X168885714Y-95235714D01*
X169076190Y-95188095D01*
X169219047Y-95188095D01*
X169409523Y-95235714D01*
X169504761Y-95283333D01*
X169600000Y-95378571D01*
X169647619Y-95521428D01*
X169647619Y-95616666D01*
X169600000Y-95759523D01*
X169552380Y-95807142D01*
X169552380Y-96188095D02*
X169600000Y-96235714D01*
X169647619Y-96330952D01*
X169647619Y-96569047D01*
X169600000Y-96664285D01*
X169552380Y-96711904D01*
X169457142Y-96759523D01*
X169361904Y-96759523D01*
X169219047Y-96711904D01*
X168647619Y-96140476D01*
X168647619Y-96759523D01*
X169219047Y-97330952D02*
X169266666Y-97235714D01*
X169314285Y-97188095D01*
X169409523Y-97140476D01*
X169457142Y-97140476D01*
X169552380Y-97188095D01*
X169600000Y-97235714D01*
X169647619Y-97330952D01*
X169647619Y-97521428D01*
X169600000Y-97616666D01*
X169552380Y-97664285D01*
X169457142Y-97711904D01*
X169409523Y-97711904D01*
X169314285Y-97664285D01*
X169266666Y-97616666D01*
X169219047Y-97521428D01*
X169219047Y-97330952D01*
X169171428Y-97235714D01*
X169123809Y-97188095D01*
X169028571Y-97140476D01*
X168838095Y-97140476D01*
X168742857Y-97188095D01*
X168695238Y-97235714D01*
X168647619Y-97330952D01*
X168647619Y-97521428D01*
X168695238Y-97616666D01*
X168742857Y-97664285D01*
X168838095Y-97711904D01*
X169028571Y-97711904D01*
X169123809Y-97664285D01*
X169171428Y-97616666D01*
X169219047Y-97521428D01*
X169187142Y-90207142D02*
X169139523Y-90254761D01*
X168996666Y-90302380D01*
X168901428Y-90302380D01*
X168758571Y-90254761D01*
X168663333Y-90159523D01*
X168615714Y-90064285D01*
X168568095Y-89873809D01*
X168568095Y-89730952D01*
X168615714Y-89540476D01*
X168663333Y-89445238D01*
X168758571Y-89350000D01*
X168901428Y-89302380D01*
X168996666Y-89302380D01*
X169139523Y-89350000D01*
X169187142Y-89397619D01*
X169568095Y-89397619D02*
X169615714Y-89350000D01*
X169710952Y-89302380D01*
X169949047Y-89302380D01*
X170044285Y-89350000D01*
X170091904Y-89397619D01*
X170139523Y-89492857D01*
X170139523Y-89588095D01*
X170091904Y-89730952D01*
X169520476Y-90302380D01*
X170139523Y-90302380D01*
X170472857Y-89302380D02*
X171139523Y-89302380D01*
X170710952Y-90302380D01*
X163117142Y-90942857D02*
X163164761Y-90990476D01*
X163212380Y-91133333D01*
X163212380Y-91228571D01*
X163164761Y-91371428D01*
X163069523Y-91466666D01*
X162974285Y-91514285D01*
X162783809Y-91561904D01*
X162640952Y-91561904D01*
X162450476Y-91514285D01*
X162355238Y-91466666D01*
X162260000Y-91371428D01*
X162212380Y-91228571D01*
X162212380Y-91133333D01*
X162260000Y-90990476D01*
X162307619Y-90942857D01*
X162307619Y-90561904D02*
X162260000Y-90514285D01*
X162212380Y-90419047D01*
X162212380Y-90180952D01*
X162260000Y-90085714D01*
X162307619Y-90038095D01*
X162402857Y-89990476D01*
X162498095Y-89990476D01*
X162640952Y-90038095D01*
X163212380Y-90609523D01*
X163212380Y-89990476D01*
X162212380Y-89657142D02*
X162212380Y-89038095D01*
X162593333Y-89371428D01*
X162593333Y-89228571D01*
X162640952Y-89133333D01*
X162688571Y-89085714D01*
X162783809Y-89038095D01*
X163021904Y-89038095D01*
X163117142Y-89085714D01*
X163164761Y-89133333D01*
X163212380Y-89228571D01*
X163212380Y-89514285D01*
X163164761Y-89609523D01*
X163117142Y-89657142D01*
X160992857Y-95807142D02*
X160945238Y-95759523D01*
X160897619Y-95616666D01*
X160897619Y-95521428D01*
X160945238Y-95378571D01*
X161040476Y-95283333D01*
X161135714Y-95235714D01*
X161326190Y-95188095D01*
X161469047Y-95188095D01*
X161659523Y-95235714D01*
X161754761Y-95283333D01*
X161850000Y-95378571D01*
X161897619Y-95521428D01*
X161897619Y-95616666D01*
X161850000Y-95759523D01*
X161802380Y-95807142D01*
X161802380Y-96188095D02*
X161850000Y-96235714D01*
X161897619Y-96330952D01*
X161897619Y-96569047D01*
X161850000Y-96664285D01*
X161802380Y-96711904D01*
X161707142Y-96759523D01*
X161611904Y-96759523D01*
X161469047Y-96711904D01*
X160897619Y-96140476D01*
X160897619Y-96759523D01*
X161802380Y-97140476D02*
X161850000Y-97188095D01*
X161897619Y-97283333D01*
X161897619Y-97521428D01*
X161850000Y-97616666D01*
X161802380Y-97664285D01*
X161707142Y-97711904D01*
X161611904Y-97711904D01*
X161469047Y-97664285D01*
X160897619Y-97092857D01*
X160897619Y-97711904D01*
X175637142Y-106962857D02*
X175684761Y-107010476D01*
X175732380Y-107153333D01*
X175732380Y-107248571D01*
X175684761Y-107391428D01*
X175589523Y-107486666D01*
X175494285Y-107534285D01*
X175303809Y-107581904D01*
X175160952Y-107581904D01*
X174970476Y-107534285D01*
X174875238Y-107486666D01*
X174780000Y-107391428D01*
X174732380Y-107248571D01*
X174732380Y-107153333D01*
X174780000Y-107010476D01*
X174827619Y-106962857D01*
X175732380Y-106010476D02*
X175732380Y-106581904D01*
X175732380Y-106296190D02*
X174732380Y-106296190D01*
X174875238Y-106391428D01*
X174970476Y-106486666D01*
X175018095Y-106581904D01*
X174732380Y-105677142D02*
X174732380Y-105010476D01*
X175732380Y-105439047D01*
X178317142Y-106862857D02*
X178364761Y-106910476D01*
X178412380Y-107053333D01*
X178412380Y-107148571D01*
X178364761Y-107291428D01*
X178269523Y-107386666D01*
X178174285Y-107434285D01*
X177983809Y-107481904D01*
X177840952Y-107481904D01*
X177650476Y-107434285D01*
X177555238Y-107386666D01*
X177460000Y-107291428D01*
X177412380Y-107148571D01*
X177412380Y-107053333D01*
X177460000Y-106910476D01*
X177507619Y-106862857D01*
X178412380Y-105910476D02*
X178412380Y-106481904D01*
X178412380Y-106196190D02*
X177412380Y-106196190D01*
X177555238Y-106291428D01*
X177650476Y-106386666D01*
X177698095Y-106481904D01*
X177745714Y-105053333D02*
X178412380Y-105053333D01*
X177364761Y-105291428D02*
X178079047Y-105529523D01*
X178079047Y-104910476D01*
X188477142Y-106107142D02*
X188429523Y-106154761D01*
X188286666Y-106202380D01*
X188191428Y-106202380D01*
X188048571Y-106154761D01*
X187953333Y-106059523D01*
X187905714Y-105964285D01*
X187858095Y-105773809D01*
X187858095Y-105630952D01*
X187905714Y-105440476D01*
X187953333Y-105345238D01*
X188048571Y-105250000D01*
X188191428Y-105202380D01*
X188286666Y-105202380D01*
X188429523Y-105250000D01*
X188477142Y-105297619D01*
X189429523Y-106202380D02*
X188858095Y-106202380D01*
X189143809Y-106202380D02*
X189143809Y-105202380D01*
X189048571Y-105345238D01*
X188953333Y-105440476D01*
X188858095Y-105488095D01*
X190381904Y-106202380D02*
X189810476Y-106202380D01*
X190096190Y-106202380D02*
X190096190Y-105202380D01*
X190000952Y-105345238D01*
X189905714Y-105440476D01*
X189810476Y-105488095D01*
X188717142Y-111152857D02*
X188764761Y-111200476D01*
X188812380Y-111343333D01*
X188812380Y-111438571D01*
X188764761Y-111581428D01*
X188669523Y-111676666D01*
X188574285Y-111724285D01*
X188383809Y-111771904D01*
X188240952Y-111771904D01*
X188050476Y-111724285D01*
X187955238Y-111676666D01*
X187860000Y-111581428D01*
X187812380Y-111438571D01*
X187812380Y-111343333D01*
X187860000Y-111200476D01*
X187907619Y-111152857D01*
X188812380Y-110200476D02*
X188812380Y-110771904D01*
X188812380Y-110486190D02*
X187812380Y-110486190D01*
X187955238Y-110581428D01*
X188050476Y-110676666D01*
X188098095Y-110771904D01*
X187812380Y-109581428D02*
X187812380Y-109486190D01*
X187860000Y-109390952D01*
X187907619Y-109343333D01*
X188002857Y-109295714D01*
X188193333Y-109248095D01*
X188431428Y-109248095D01*
X188621904Y-109295714D01*
X188717142Y-109343333D01*
X188764761Y-109390952D01*
X188812380Y-109486190D01*
X188812380Y-109581428D01*
X188764761Y-109676666D01*
X188717142Y-109724285D01*
X188621904Y-109771904D01*
X188431428Y-109819523D01*
X188193333Y-109819523D01*
X188002857Y-109771904D01*
X187907619Y-109724285D01*
X187860000Y-109676666D01*
X187812380Y-109581428D01*
X167477142Y-123816666D02*
X167524761Y-123864285D01*
X167572380Y-124007142D01*
X167572380Y-124102380D01*
X167524761Y-124245238D01*
X167429523Y-124340476D01*
X167334285Y-124388095D01*
X167143809Y-124435714D01*
X167000952Y-124435714D01*
X166810476Y-124388095D01*
X166715238Y-124340476D01*
X166620000Y-124245238D01*
X166572380Y-124102380D01*
X166572380Y-124007142D01*
X166620000Y-123864285D01*
X166667619Y-123816666D01*
X167572380Y-123340476D02*
X167572380Y-123150000D01*
X167524761Y-123054761D01*
X167477142Y-123007142D01*
X167334285Y-122911904D01*
X167143809Y-122864285D01*
X166762857Y-122864285D01*
X166667619Y-122911904D01*
X166620000Y-122959523D01*
X166572380Y-123054761D01*
X166572380Y-123245238D01*
X166620000Y-123340476D01*
X166667619Y-123388095D01*
X166762857Y-123435714D01*
X167000952Y-123435714D01*
X167096190Y-123388095D01*
X167143809Y-123340476D01*
X167191428Y-123245238D01*
X167191428Y-123054761D01*
X167143809Y-122959523D01*
X167096190Y-122911904D01*
X167000952Y-122864285D01*
X185147142Y-113386666D02*
X185194761Y-113434285D01*
X185242380Y-113577142D01*
X185242380Y-113672380D01*
X185194761Y-113815238D01*
X185099523Y-113910476D01*
X185004285Y-113958095D01*
X184813809Y-114005714D01*
X184670952Y-114005714D01*
X184480476Y-113958095D01*
X184385238Y-113910476D01*
X184290000Y-113815238D01*
X184242380Y-113672380D01*
X184242380Y-113577142D01*
X184290000Y-113434285D01*
X184337619Y-113386666D01*
X184670952Y-112815238D02*
X184623333Y-112910476D01*
X184575714Y-112958095D01*
X184480476Y-113005714D01*
X184432857Y-113005714D01*
X184337619Y-112958095D01*
X184290000Y-112910476D01*
X184242380Y-112815238D01*
X184242380Y-112624761D01*
X184290000Y-112529523D01*
X184337619Y-112481904D01*
X184432857Y-112434285D01*
X184480476Y-112434285D01*
X184575714Y-112481904D01*
X184623333Y-112529523D01*
X184670952Y-112624761D01*
X184670952Y-112815238D01*
X184718571Y-112910476D01*
X184766190Y-112958095D01*
X184861428Y-113005714D01*
X185051904Y-113005714D01*
X185147142Y-112958095D01*
X185194761Y-112910476D01*
X185242380Y-112815238D01*
X185242380Y-112624761D01*
X185194761Y-112529523D01*
X185147142Y-112481904D01*
X185051904Y-112434285D01*
X184861428Y-112434285D01*
X184766190Y-112481904D01*
X184718571Y-112529523D01*
X184670952Y-112624761D01*
X183137142Y-112966666D02*
X183184761Y-113014285D01*
X183232380Y-113157142D01*
X183232380Y-113252380D01*
X183184761Y-113395238D01*
X183089523Y-113490476D01*
X182994285Y-113538095D01*
X182803809Y-113585714D01*
X182660952Y-113585714D01*
X182470476Y-113538095D01*
X182375238Y-113490476D01*
X182280000Y-113395238D01*
X182232380Y-113252380D01*
X182232380Y-113157142D01*
X182280000Y-113014285D01*
X182327619Y-112966666D01*
X182232380Y-112633333D02*
X182232380Y-111966666D01*
X183232380Y-112395238D01*
M02*
