G04 #@! TF.GenerationSoftware,KiCad,Pcbnew,5.1.4-e60b266~84~ubuntu18.04.1*
G04 #@! TF.CreationDate,2019-10-01T18:03:50+03:00*
G04 #@! TF.ProjectId,EV2400-EVM-Interface-Board,45563234-3030-42d4-9556-4d2d496e7465,v1.0*
G04 #@! TF.SameCoordinates,Original*
G04 #@! TF.FileFunction,Legend,Bot*
G04 #@! TF.FilePolarity,Positive*
%FSLAX46Y46*%
G04 Gerber Fmt 4.6, Leading zero omitted, Abs format (unit mm)*
G04 Created by KiCad (PCBNEW 5.1.4-e60b266~84~ubuntu18.04.1) date 2019-10-01 18:03:50*
%MOMM*%
%LPD*%
G04 APERTURE LIST*
%ADD10C,0.200000*%
%ADD11C,0.120000*%
%ADD12C,0.254000*%
%ADD13C,0.150000*%
G04 APERTURE END LIST*
D10*
X152915000Y-74600000D02*
X152915000Y-75600000D01*
X155880000Y-75950000D02*
X152960000Y-75950000D01*
X155880000Y-76650000D02*
X155880000Y-75950000D01*
X152960000Y-76650000D02*
X155880000Y-76650000D01*
X152960000Y-75950000D02*
X152960000Y-76650000D01*
X178235000Y-74600000D02*
X178235000Y-75600000D01*
X181200000Y-75950000D02*
X178280000Y-75950000D01*
X181200000Y-76650000D02*
X181200000Y-75950000D01*
X178280000Y-76650000D02*
X181200000Y-76650000D01*
X178280000Y-75950000D02*
X178280000Y-76650000D01*
X164605000Y-74600000D02*
X164605000Y-75600000D01*
X167570000Y-75950000D02*
X164650000Y-75950000D01*
X167570000Y-76650000D02*
X167570000Y-75950000D01*
X164650000Y-76650000D02*
X167570000Y-76650000D01*
X164650000Y-75950000D02*
X164650000Y-76650000D01*
X148575000Y-74600000D02*
X148575000Y-75600000D01*
X151540000Y-75950000D02*
X148620000Y-75950000D01*
X151540000Y-76650000D02*
X151540000Y-75950000D01*
X148620000Y-76650000D02*
X151540000Y-76650000D01*
X148620000Y-75950000D02*
X148620000Y-76650000D01*
X139365000Y-74600000D02*
X139365000Y-75600000D01*
X142330000Y-75950000D02*
X139410000Y-75950000D01*
X142330000Y-76650000D02*
X142330000Y-75950000D01*
X139410000Y-76650000D02*
X142330000Y-76650000D01*
X139410000Y-75950000D02*
X139410000Y-76650000D01*
X135005000Y-74600000D02*
X135005000Y-75600000D01*
X137970000Y-75950000D02*
X135050000Y-75950000D01*
X137970000Y-76650000D02*
X137970000Y-75950000D01*
X135050000Y-76650000D02*
X137970000Y-76650000D01*
X135050000Y-75950000D02*
X135050000Y-76650000D01*
X169820000Y-107170000D02*
X169820000Y-105970000D01*
X166870000Y-105620000D02*
X169770000Y-105620000D01*
X166870000Y-105020000D02*
X166870000Y-105620000D01*
X169770000Y-105020000D02*
X166870000Y-105020000D01*
X169770000Y-105620000D02*
X169770000Y-105020000D01*
X162000000Y-91000000D02*
X162000000Y-92200000D01*
X164950000Y-92550000D02*
X162050000Y-92550000D01*
X164950000Y-93150000D02*
X164950000Y-92550000D01*
X162050000Y-93150000D02*
X164950000Y-93150000D01*
X162050000Y-92550000D02*
X162050000Y-93150000D01*
X165070000Y-107170000D02*
X165070000Y-105970000D01*
X162120000Y-105620000D02*
X165020000Y-105620000D01*
X162120000Y-105020000D02*
X162120000Y-105620000D01*
X165020000Y-105020000D02*
X162120000Y-105020000D01*
X165020000Y-105620000D02*
X165020000Y-105020000D01*
X176596000Y-100870000D02*
X176596000Y-102070000D01*
X179546000Y-102420000D02*
X176646000Y-102420000D01*
X179546000Y-103020000D02*
X179546000Y-102420000D01*
X176646000Y-103020000D02*
X179546000Y-103020000D01*
X176646000Y-102420000D02*
X176646000Y-103020000D01*
X176570000Y-63925000D02*
X176570000Y-64675000D01*
X178720000Y-65025000D02*
X176720000Y-65025000D01*
X178720000Y-65775000D02*
X178720000Y-65025000D01*
X176720000Y-65775000D02*
X178720000Y-65775000D01*
X176720000Y-65025000D02*
X176720000Y-65775000D01*
X163040000Y-63925000D02*
X163040000Y-64675000D01*
X165190000Y-65025000D02*
X163190000Y-65025000D01*
X165190000Y-65775000D02*
X165190000Y-65025000D01*
X163190000Y-65775000D02*
X165190000Y-65775000D01*
X163190000Y-65025000D02*
X163190000Y-65775000D01*
X149400000Y-63925000D02*
X149400000Y-64675000D01*
X151550000Y-65025000D02*
X149550000Y-65025000D01*
X151550000Y-65775000D02*
X151550000Y-65025000D01*
X149550000Y-65775000D02*
X151550000Y-65775000D01*
X149550000Y-65025000D02*
X149550000Y-65775000D01*
X152810000Y-63925000D02*
X152810000Y-64675000D01*
X154960000Y-65025000D02*
X152960000Y-65025000D01*
X154960000Y-65775000D02*
X154960000Y-65025000D01*
X152960000Y-65775000D02*
X154960000Y-65775000D01*
X152960000Y-65025000D02*
X152960000Y-65775000D01*
X135820000Y-63925000D02*
X135820000Y-64675000D01*
X137970000Y-65025000D02*
X135970000Y-65025000D01*
X137970000Y-65775000D02*
X137970000Y-65025000D01*
X135970000Y-65775000D02*
X137970000Y-65775000D01*
X135970000Y-65025000D02*
X135970000Y-65775000D01*
X139300000Y-63925000D02*
X139300000Y-64675000D01*
X141450000Y-65025000D02*
X139450000Y-65025000D01*
X141450000Y-65775000D02*
X141450000Y-65025000D01*
X139450000Y-65775000D02*
X141450000Y-65775000D01*
X139450000Y-65025000D02*
X139450000Y-65775000D01*
X159525000Y-63825000D02*
X159525000Y-64975000D01*
X161700000Y-65325000D02*
X159700000Y-65325000D01*
X161700000Y-65475000D02*
X161700000Y-65325000D01*
X159700000Y-65475000D02*
X161700000Y-65475000D01*
X159700000Y-65325000D02*
X159700000Y-65475000D01*
X145945000Y-63825000D02*
X145945000Y-64975000D01*
X148120000Y-65325000D02*
X146120000Y-65325000D01*
X148120000Y-65475000D02*
X148120000Y-65325000D01*
X146120000Y-65475000D02*
X148120000Y-65475000D01*
X146120000Y-65325000D02*
X146120000Y-65475000D01*
X132315000Y-63825000D02*
X132315000Y-64975000D01*
X134490000Y-65325000D02*
X132490000Y-65325000D01*
X134490000Y-65475000D02*
X134490000Y-65325000D01*
X132490000Y-65475000D02*
X134490000Y-65475000D01*
X132490000Y-65325000D02*
X132490000Y-65475000D01*
D11*
X164352779Y-63180000D02*
X164027221Y-63180000D01*
X164352779Y-62160000D02*
X164027221Y-62160000D01*
X150722779Y-63220000D02*
X150397221Y-63220000D01*
X150722779Y-62200000D02*
X150397221Y-62200000D01*
X137142779Y-63210000D02*
X136817221Y-63210000D01*
X137142779Y-62190000D02*
X136817221Y-62190000D01*
X154670000Y-92977221D02*
X154670000Y-93302779D01*
X153650000Y-92977221D02*
X153650000Y-93302779D01*
X165540000Y-93162779D02*
X165540000Y-92837221D01*
X166560000Y-93162779D02*
X166560000Y-92837221D01*
X166840000Y-99662779D02*
X166840000Y-99337221D01*
X167860000Y-99662779D02*
X167860000Y-99337221D01*
X162110000Y-99542779D02*
X162110000Y-99217221D01*
X163130000Y-99542779D02*
X163130000Y-99217221D01*
X177963221Y-99060000D02*
X178288779Y-99060000D01*
X177963221Y-100080000D02*
X178288779Y-100080000D01*
X131560000Y-86727221D02*
X131560000Y-87052779D01*
X130540000Y-86727221D02*
X130540000Y-87052779D01*
X180670000Y-85947221D02*
X180670000Y-86272779D01*
X179650000Y-85947221D02*
X179650000Y-86272779D01*
X177350000Y-69037221D02*
X177350000Y-69362779D01*
X176330000Y-69037221D02*
X176330000Y-69362779D01*
X179060000Y-69037221D02*
X179060000Y-69362779D01*
X178040000Y-69037221D02*
X178040000Y-69362779D01*
X165530000Y-69037221D02*
X165530000Y-69362779D01*
X164510000Y-69037221D02*
X164510000Y-69362779D01*
X163820000Y-69037221D02*
X163820000Y-69362779D01*
X162800000Y-69037221D02*
X162800000Y-69362779D01*
X178770000Y-85947221D02*
X178770000Y-86272779D01*
X177750000Y-85947221D02*
X177750000Y-86272779D01*
X150150000Y-69037221D02*
X150150000Y-69362779D01*
X149130000Y-69037221D02*
X149130000Y-69362779D01*
X155360000Y-69037221D02*
X155360000Y-69362779D01*
X154340000Y-69037221D02*
X154340000Y-69362779D01*
X166010000Y-85947221D02*
X166010000Y-86272779D01*
X164990000Y-85947221D02*
X164990000Y-86272779D01*
X151880000Y-69037221D02*
X151880000Y-69362779D01*
X150860000Y-69037221D02*
X150860000Y-69362779D01*
X153620000Y-69037221D02*
X153620000Y-69362779D01*
X152600000Y-69037221D02*
X152600000Y-69362779D01*
X164060000Y-85947221D02*
X164060000Y-86272779D01*
X163040000Y-85947221D02*
X163040000Y-86272779D01*
X138330000Y-69037221D02*
X138330000Y-69362779D01*
X137310000Y-69037221D02*
X137310000Y-69362779D01*
X140060000Y-69037221D02*
X140060000Y-69362779D01*
X139040000Y-69037221D02*
X139040000Y-69362779D01*
X136560000Y-69037221D02*
X136560000Y-69362779D01*
X135540000Y-69037221D02*
X135540000Y-69362779D01*
X141810000Y-69037221D02*
X141810000Y-69362779D01*
X140790000Y-69037221D02*
X140790000Y-69362779D01*
X148420000Y-85967221D02*
X148420000Y-86292779D01*
X147400000Y-85967221D02*
X147400000Y-86292779D01*
X150370000Y-85967221D02*
X150370000Y-86292779D01*
X149350000Y-85967221D02*
X149350000Y-86292779D01*
X115362779Y-104310000D02*
X115037221Y-104310000D01*
X115362779Y-103290000D02*
X115037221Y-103290000D01*
X128290000Y-99212779D02*
X128290000Y-98887221D01*
X129310000Y-99212779D02*
X129310000Y-98887221D01*
X115037221Y-101590000D02*
X115362779Y-101590000D01*
X115037221Y-102610000D02*
X115362779Y-102610000D01*
X152980000Y-92967221D02*
X152980000Y-93292779D01*
X151960000Y-92967221D02*
X151960000Y-93292779D01*
X167390000Y-93162779D02*
X167390000Y-92837221D01*
X168410000Y-93162779D02*
X168410000Y-92837221D01*
X168670000Y-99672779D02*
X168670000Y-99347221D01*
X169690000Y-99672779D02*
X169690000Y-99347221D01*
X168462779Y-102260000D02*
X168137221Y-102260000D01*
X168462779Y-101240000D02*
X168137221Y-101240000D01*
X168562779Y-109010000D02*
X168237221Y-109010000D01*
X168562779Y-107990000D02*
X168237221Y-107990000D01*
X163207221Y-88530000D02*
X163532779Y-88530000D01*
X163207221Y-89550000D02*
X163532779Y-89550000D01*
X163940000Y-99512779D02*
X163940000Y-99187221D01*
X164960000Y-99512779D02*
X164960000Y-99187221D01*
X163762779Y-102210000D02*
X163437221Y-102210000D01*
X163762779Y-101190000D02*
X163437221Y-101190000D01*
X163762779Y-109010000D02*
X163437221Y-109010000D01*
X163762779Y-107990000D02*
X163437221Y-107990000D01*
X178446000Y-97362779D02*
X178446000Y-97037221D01*
X179466000Y-97362779D02*
X179466000Y-97037221D01*
X176806000Y-97362779D02*
X176806000Y-97037221D01*
X177826000Y-97362779D02*
X177826000Y-97037221D01*
X133230000Y-86727221D02*
X133230000Y-87052779D01*
X132210000Y-86727221D02*
X132210000Y-87052779D01*
X186130000Y-100891422D02*
X186130000Y-101408578D01*
X184710000Y-100891422D02*
X184710000Y-101408578D01*
X184560000Y-85947221D02*
X184560000Y-86272779D01*
X183540000Y-85947221D02*
X183540000Y-86272779D01*
X182580000Y-85947221D02*
X182580000Y-86272779D01*
X181560000Y-85947221D02*
X181560000Y-86272779D01*
X167960000Y-85947221D02*
X167960000Y-86272779D01*
X166940000Y-85947221D02*
X166940000Y-86272779D01*
X169910000Y-85937221D02*
X169910000Y-86262779D01*
X168890000Y-85937221D02*
X168890000Y-86262779D01*
X154260000Y-85947221D02*
X154260000Y-86272779D01*
X153240000Y-85947221D02*
X153240000Y-86272779D01*
X152320000Y-85957221D02*
X152320000Y-86282779D01*
X151300000Y-85957221D02*
X151300000Y-86282779D01*
D12*
X155307380Y-80234523D02*
X155307380Y-78964523D01*
X155005000Y-78964523D01*
X154823571Y-79025000D01*
X154702619Y-79145952D01*
X154642142Y-79266904D01*
X154581666Y-79508809D01*
X154581666Y-79690238D01*
X154642142Y-79932142D01*
X154702619Y-80053095D01*
X154823571Y-80174047D01*
X155005000Y-80234523D01*
X155307380Y-80234523D01*
X153493095Y-79387857D02*
X153493095Y-80234523D01*
X153795476Y-78904047D02*
X154097857Y-79811190D01*
X153311666Y-79811190D01*
X180717380Y-80154523D02*
X180717380Y-78884523D01*
X180415000Y-78884523D01*
X180233571Y-78945000D01*
X180112619Y-79065952D01*
X180052142Y-79186904D01*
X179991666Y-79428809D01*
X179991666Y-79610238D01*
X180052142Y-79852142D01*
X180112619Y-79973095D01*
X180233571Y-80094047D01*
X180415000Y-80154523D01*
X180717380Y-80154523D01*
X178903095Y-78884523D02*
X179145000Y-78884523D01*
X179265952Y-78945000D01*
X179326428Y-79005476D01*
X179447380Y-79186904D01*
X179507857Y-79428809D01*
X179507857Y-79912619D01*
X179447380Y-80033571D01*
X179386904Y-80094047D01*
X179265952Y-80154523D01*
X179024047Y-80154523D01*
X178903095Y-80094047D01*
X178842619Y-80033571D01*
X178782142Y-79912619D01*
X178782142Y-79610238D01*
X178842619Y-79489285D01*
X178903095Y-79428809D01*
X179024047Y-79368333D01*
X179265952Y-79368333D01*
X179386904Y-79428809D01*
X179447380Y-79489285D01*
X179507857Y-79610238D01*
X166997380Y-80124523D02*
X166997380Y-78854523D01*
X166695000Y-78854523D01*
X166513571Y-78915000D01*
X166392619Y-79035952D01*
X166332142Y-79156904D01*
X166271666Y-79398809D01*
X166271666Y-79580238D01*
X166332142Y-79822142D01*
X166392619Y-79943095D01*
X166513571Y-80064047D01*
X166695000Y-80124523D01*
X166997380Y-80124523D01*
X165122619Y-78854523D02*
X165727380Y-78854523D01*
X165787857Y-79459285D01*
X165727380Y-79398809D01*
X165606428Y-79338333D01*
X165304047Y-79338333D01*
X165183095Y-79398809D01*
X165122619Y-79459285D01*
X165062142Y-79580238D01*
X165062142Y-79882619D01*
X165122619Y-80003571D01*
X165183095Y-80064047D01*
X165304047Y-80124523D01*
X165606428Y-80124523D01*
X165727380Y-80064047D01*
X165787857Y-80003571D01*
X150987380Y-80064523D02*
X150987380Y-78794523D01*
X150685000Y-78794523D01*
X150503571Y-78855000D01*
X150382619Y-78975952D01*
X150322142Y-79096904D01*
X150261666Y-79338809D01*
X150261666Y-79520238D01*
X150322142Y-79762142D01*
X150382619Y-79883095D01*
X150503571Y-80004047D01*
X150685000Y-80064523D01*
X150987380Y-80064523D01*
X149838333Y-78794523D02*
X149052142Y-78794523D01*
X149475476Y-79278333D01*
X149294047Y-79278333D01*
X149173095Y-79338809D01*
X149112619Y-79399285D01*
X149052142Y-79520238D01*
X149052142Y-79822619D01*
X149112619Y-79943571D01*
X149173095Y-80004047D01*
X149294047Y-80064523D01*
X149656904Y-80064523D01*
X149777857Y-80004047D01*
X149838333Y-79943571D01*
X141757380Y-80394523D02*
X141757380Y-79124523D01*
X141455000Y-79124523D01*
X141273571Y-79185000D01*
X141152619Y-79305952D01*
X141092142Y-79426904D01*
X141031666Y-79668809D01*
X141031666Y-79850238D01*
X141092142Y-80092142D01*
X141152619Y-80213095D01*
X141273571Y-80334047D01*
X141455000Y-80394523D01*
X141757380Y-80394523D01*
X140547857Y-79245476D02*
X140487380Y-79185000D01*
X140366428Y-79124523D01*
X140064047Y-79124523D01*
X139943095Y-79185000D01*
X139882619Y-79245476D01*
X139822142Y-79366428D01*
X139822142Y-79487380D01*
X139882619Y-79668809D01*
X140608333Y-80394523D01*
X139822142Y-80394523D01*
X137397380Y-80444523D02*
X137397380Y-79174523D01*
X137095000Y-79174523D01*
X136913571Y-79235000D01*
X136792619Y-79355952D01*
X136732142Y-79476904D01*
X136671666Y-79718809D01*
X136671666Y-79900238D01*
X136732142Y-80142142D01*
X136792619Y-80263095D01*
X136913571Y-80384047D01*
X137095000Y-80444523D01*
X137397380Y-80444523D01*
X135462142Y-80444523D02*
X136187857Y-80444523D01*
X135825000Y-80444523D02*
X135825000Y-79174523D01*
X135945952Y-79355952D01*
X136066904Y-79476904D01*
X136187857Y-79537380D01*
X170164523Y-103747619D02*
X171192619Y-103747619D01*
X171313571Y-103808095D01*
X171374047Y-103868571D01*
X171434523Y-103989523D01*
X171434523Y-104231428D01*
X171374047Y-104352380D01*
X171313571Y-104412857D01*
X171192619Y-104473333D01*
X170164523Y-104473333D01*
X171434523Y-105743333D02*
X171434523Y-105017619D01*
X171434523Y-105380476D02*
X170164523Y-105380476D01*
X170345952Y-105259523D01*
X170466904Y-105138571D01*
X170527380Y-105017619D01*
X170285476Y-106227142D02*
X170225000Y-106287619D01*
X170164523Y-106408571D01*
X170164523Y-106710952D01*
X170225000Y-106831904D01*
X170285476Y-106892380D01*
X170406428Y-106952857D01*
X170527380Y-106952857D01*
X170708809Y-106892380D01*
X171434523Y-106166666D01*
X171434523Y-106952857D01*
X160454523Y-91167619D02*
X161482619Y-91167619D01*
X161603571Y-91228095D01*
X161664047Y-91288571D01*
X161724523Y-91409523D01*
X161724523Y-91651428D01*
X161664047Y-91772380D01*
X161603571Y-91832857D01*
X161482619Y-91893333D01*
X160454523Y-91893333D01*
X161724523Y-93163333D02*
X161724523Y-92437619D01*
X161724523Y-92800476D02*
X160454523Y-92800476D01*
X160635952Y-92679523D01*
X160756904Y-92558571D01*
X160817380Y-92437619D01*
X161724523Y-94372857D02*
X161724523Y-93647142D01*
X161724523Y-94010000D02*
X160454523Y-94010000D01*
X160635952Y-93889047D01*
X160756904Y-93768095D01*
X160817380Y-93647142D01*
X160034523Y-103617619D02*
X161062619Y-103617619D01*
X161183571Y-103678095D01*
X161244047Y-103738571D01*
X161304523Y-103859523D01*
X161304523Y-104101428D01*
X161244047Y-104222380D01*
X161183571Y-104282857D01*
X161062619Y-104343333D01*
X160034523Y-104343333D01*
X161304523Y-105613333D02*
X161304523Y-104887619D01*
X161304523Y-105250476D02*
X160034523Y-105250476D01*
X160215952Y-105129523D01*
X160336904Y-105008571D01*
X160397380Y-104887619D01*
X160034523Y-106399523D02*
X160034523Y-106520476D01*
X160095000Y-106641428D01*
X160155476Y-106701904D01*
X160276428Y-106762380D01*
X160518333Y-106822857D01*
X160820714Y-106822857D01*
X161062619Y-106762380D01*
X161183571Y-106701904D01*
X161244047Y-106641428D01*
X161304523Y-106520476D01*
X161304523Y-106399523D01*
X161244047Y-106278571D01*
X161183571Y-106218095D01*
X161062619Y-106157619D01*
X160820714Y-106097142D01*
X160518333Y-106097142D01*
X160276428Y-106157619D01*
X160155476Y-106218095D01*
X160095000Y-106278571D01*
X160034523Y-106399523D01*
X174860523Y-101752380D02*
X175888619Y-101752380D01*
X176009571Y-101812857D01*
X176070047Y-101873333D01*
X176130523Y-101994285D01*
X176130523Y-102236190D01*
X176070047Y-102357142D01*
X176009571Y-102417619D01*
X175888619Y-102478095D01*
X174860523Y-102478095D01*
X174860523Y-102961904D02*
X174860523Y-103748095D01*
X175344333Y-103324761D01*
X175344333Y-103506190D01*
X175404809Y-103627142D01*
X175465285Y-103687619D01*
X175586238Y-103748095D01*
X175888619Y-103748095D01*
X176009571Y-103687619D01*
X176070047Y-103627142D01*
X176130523Y-103506190D01*
X176130523Y-103143333D01*
X176070047Y-103022380D01*
X176009571Y-102961904D01*
X180560952Y-66895476D02*
X180681904Y-66835000D01*
X180802857Y-66714047D01*
X180984285Y-66532619D01*
X181105238Y-66472142D01*
X181226190Y-66472142D01*
X181165714Y-66774523D02*
X181286666Y-66714047D01*
X181407619Y-66593095D01*
X181468095Y-66351190D01*
X181468095Y-65927857D01*
X181407619Y-65685952D01*
X181286666Y-65565000D01*
X181165714Y-65504523D01*
X180923809Y-65504523D01*
X180802857Y-65565000D01*
X180681904Y-65685952D01*
X180621428Y-65927857D01*
X180621428Y-66351190D01*
X180681904Y-66593095D01*
X180802857Y-66714047D01*
X180923809Y-66774523D01*
X181165714Y-66774523D01*
X179532857Y-65504523D02*
X179774761Y-65504523D01*
X179895714Y-65565000D01*
X179956190Y-65625476D01*
X180077142Y-65806904D01*
X180137619Y-66048809D01*
X180137619Y-66532619D01*
X180077142Y-66653571D01*
X180016666Y-66714047D01*
X179895714Y-66774523D01*
X179653809Y-66774523D01*
X179532857Y-66714047D01*
X179472380Y-66653571D01*
X179411904Y-66532619D01*
X179411904Y-66230238D01*
X179472380Y-66109285D01*
X179532857Y-66048809D01*
X179653809Y-65988333D01*
X179895714Y-65988333D01*
X180016666Y-66048809D01*
X180077142Y-66109285D01*
X180137619Y-66230238D01*
X167270952Y-66055476D02*
X167391904Y-65995000D01*
X167512857Y-65874047D01*
X167694285Y-65692619D01*
X167815238Y-65632142D01*
X167936190Y-65632142D01*
X167875714Y-65934523D02*
X167996666Y-65874047D01*
X168117619Y-65753095D01*
X168178095Y-65511190D01*
X168178095Y-65087857D01*
X168117619Y-64845952D01*
X167996666Y-64725000D01*
X167875714Y-64664523D01*
X167633809Y-64664523D01*
X167512857Y-64725000D01*
X167391904Y-64845952D01*
X167331428Y-65087857D01*
X167331428Y-65511190D01*
X167391904Y-65753095D01*
X167512857Y-65874047D01*
X167633809Y-65934523D01*
X167875714Y-65934523D01*
X166182380Y-64664523D02*
X166787142Y-64664523D01*
X166847619Y-65269285D01*
X166787142Y-65208809D01*
X166666190Y-65148333D01*
X166363809Y-65148333D01*
X166242857Y-65208809D01*
X166182380Y-65269285D01*
X166121904Y-65390238D01*
X166121904Y-65692619D01*
X166182380Y-65813571D01*
X166242857Y-65874047D01*
X166363809Y-65934523D01*
X166666190Y-65934523D01*
X166787142Y-65874047D01*
X166847619Y-65813571D01*
X152370952Y-67595476D02*
X152491904Y-67535000D01*
X152612857Y-67414047D01*
X152794285Y-67232619D01*
X152915238Y-67172142D01*
X153036190Y-67172142D01*
X152975714Y-67474523D02*
X153096666Y-67414047D01*
X153217619Y-67293095D01*
X153278095Y-67051190D01*
X153278095Y-66627857D01*
X153217619Y-66385952D01*
X153096666Y-66265000D01*
X152975714Y-66204523D01*
X152733809Y-66204523D01*
X152612857Y-66265000D01*
X152491904Y-66385952D01*
X152431428Y-66627857D01*
X152431428Y-67051190D01*
X152491904Y-67293095D01*
X152612857Y-67414047D01*
X152733809Y-67474523D01*
X152975714Y-67474523D01*
X151342857Y-66627857D02*
X151342857Y-67474523D01*
X151645238Y-66144047D02*
X151947619Y-67051190D01*
X151161428Y-67051190D01*
X156580952Y-66345476D02*
X156701904Y-66285000D01*
X156822857Y-66164047D01*
X157004285Y-65982619D01*
X157125238Y-65922142D01*
X157246190Y-65922142D01*
X157185714Y-66224523D02*
X157306666Y-66164047D01*
X157427619Y-66043095D01*
X157488095Y-65801190D01*
X157488095Y-65377857D01*
X157427619Y-65135952D01*
X157306666Y-65015000D01*
X157185714Y-64954523D01*
X156943809Y-64954523D01*
X156822857Y-65015000D01*
X156701904Y-65135952D01*
X156641428Y-65377857D01*
X156641428Y-65801190D01*
X156701904Y-66043095D01*
X156822857Y-66164047D01*
X156943809Y-66224523D01*
X157185714Y-66224523D01*
X156218095Y-64954523D02*
X155431904Y-64954523D01*
X155855238Y-65438333D01*
X155673809Y-65438333D01*
X155552857Y-65498809D01*
X155492380Y-65559285D01*
X155431904Y-65680238D01*
X155431904Y-65982619D01*
X155492380Y-66103571D01*
X155552857Y-66164047D01*
X155673809Y-66224523D01*
X156036666Y-66224523D01*
X156157619Y-66164047D01*
X156218095Y-66103571D01*
X138790952Y-67635476D02*
X138911904Y-67575000D01*
X139032857Y-67454047D01*
X139214285Y-67272619D01*
X139335238Y-67212142D01*
X139456190Y-67212142D01*
X139395714Y-67514523D02*
X139516666Y-67454047D01*
X139637619Y-67333095D01*
X139698095Y-67091190D01*
X139698095Y-66667857D01*
X139637619Y-66425952D01*
X139516666Y-66305000D01*
X139395714Y-66244523D01*
X139153809Y-66244523D01*
X139032857Y-66305000D01*
X138911904Y-66425952D01*
X138851428Y-66667857D01*
X138851428Y-67091190D01*
X138911904Y-67333095D01*
X139032857Y-67454047D01*
X139153809Y-67514523D01*
X139395714Y-67514523D01*
X138367619Y-66365476D02*
X138307142Y-66305000D01*
X138186190Y-66244523D01*
X137883809Y-66244523D01*
X137762857Y-66305000D01*
X137702380Y-66365476D01*
X137641904Y-66486428D01*
X137641904Y-66607380D01*
X137702380Y-66788809D01*
X138428095Y-67514523D01*
X137641904Y-67514523D01*
X142930952Y-65255476D02*
X143051904Y-65195000D01*
X143172857Y-65074047D01*
X143354285Y-64892619D01*
X143475238Y-64832142D01*
X143596190Y-64832142D01*
X143535714Y-65134523D02*
X143656666Y-65074047D01*
X143777619Y-64953095D01*
X143838095Y-64711190D01*
X143838095Y-64287857D01*
X143777619Y-64045952D01*
X143656666Y-63925000D01*
X143535714Y-63864523D01*
X143293809Y-63864523D01*
X143172857Y-63925000D01*
X143051904Y-64045952D01*
X142991428Y-64287857D01*
X142991428Y-64711190D01*
X143051904Y-64953095D01*
X143172857Y-65074047D01*
X143293809Y-65134523D01*
X143535714Y-65134523D01*
X141781904Y-65134523D02*
X142507619Y-65134523D01*
X142144761Y-65134523D02*
X142144761Y-63864523D01*
X142265714Y-64045952D01*
X142386666Y-64166904D01*
X142507619Y-64227380D01*
X160830952Y-63355476D02*
X160951904Y-63295000D01*
X161072857Y-63174047D01*
X161254285Y-62992619D01*
X161375238Y-62932142D01*
X161496190Y-62932142D01*
X161435714Y-63234523D02*
X161556666Y-63174047D01*
X161677619Y-63053095D01*
X161738095Y-62811190D01*
X161738095Y-62387857D01*
X161677619Y-62145952D01*
X161556666Y-62025000D01*
X161435714Y-61964523D01*
X161193809Y-61964523D01*
X161072857Y-62025000D01*
X160951904Y-62145952D01*
X160891428Y-62387857D01*
X160891428Y-62811190D01*
X160951904Y-63053095D01*
X161072857Y-63174047D01*
X161193809Y-63234523D01*
X161435714Y-63234523D01*
X160286666Y-63234523D02*
X160044761Y-63234523D01*
X159923809Y-63174047D01*
X159863333Y-63113571D01*
X159742380Y-62932142D01*
X159681904Y-62690238D01*
X159681904Y-62206428D01*
X159742380Y-62085476D01*
X159802857Y-62025000D01*
X159923809Y-61964523D01*
X160165714Y-61964523D01*
X160286666Y-62025000D01*
X160347142Y-62085476D01*
X160407619Y-62206428D01*
X160407619Y-62508809D01*
X160347142Y-62629761D01*
X160286666Y-62690238D01*
X160165714Y-62750714D01*
X159923809Y-62750714D01*
X159802857Y-62690238D01*
X159742380Y-62629761D01*
X159681904Y-62508809D01*
X147380952Y-63455476D02*
X147501904Y-63395000D01*
X147622857Y-63274047D01*
X147804285Y-63092619D01*
X147925238Y-63032142D01*
X148046190Y-63032142D01*
X147985714Y-63334523D02*
X148106666Y-63274047D01*
X148227619Y-63153095D01*
X148288095Y-62911190D01*
X148288095Y-62487857D01*
X148227619Y-62245952D01*
X148106666Y-62125000D01*
X147985714Y-62064523D01*
X147743809Y-62064523D01*
X147622857Y-62125000D01*
X147501904Y-62245952D01*
X147441428Y-62487857D01*
X147441428Y-62911190D01*
X147501904Y-63153095D01*
X147622857Y-63274047D01*
X147743809Y-63334523D01*
X147985714Y-63334523D01*
X146715714Y-62608809D02*
X146836666Y-62548333D01*
X146897142Y-62487857D01*
X146957619Y-62366904D01*
X146957619Y-62306428D01*
X146897142Y-62185476D01*
X146836666Y-62125000D01*
X146715714Y-62064523D01*
X146473809Y-62064523D01*
X146352857Y-62125000D01*
X146292380Y-62185476D01*
X146231904Y-62306428D01*
X146231904Y-62366904D01*
X146292380Y-62487857D01*
X146352857Y-62548333D01*
X146473809Y-62608809D01*
X146715714Y-62608809D01*
X146836666Y-62669285D01*
X146897142Y-62729761D01*
X146957619Y-62850714D01*
X146957619Y-63092619D01*
X146897142Y-63213571D01*
X146836666Y-63274047D01*
X146715714Y-63334523D01*
X146473809Y-63334523D01*
X146352857Y-63274047D01*
X146292380Y-63213571D01*
X146231904Y-63092619D01*
X146231904Y-62850714D01*
X146292380Y-62729761D01*
X146352857Y-62669285D01*
X146473809Y-62608809D01*
X133390952Y-63285476D02*
X133511904Y-63225000D01*
X133632857Y-63104047D01*
X133814285Y-62922619D01*
X133935238Y-62862142D01*
X134056190Y-62862142D01*
X133995714Y-63164523D02*
X134116666Y-63104047D01*
X134237619Y-62983095D01*
X134298095Y-62741190D01*
X134298095Y-62317857D01*
X134237619Y-62075952D01*
X134116666Y-61955000D01*
X133995714Y-61894523D01*
X133753809Y-61894523D01*
X133632857Y-61955000D01*
X133511904Y-62075952D01*
X133451428Y-62317857D01*
X133451428Y-62741190D01*
X133511904Y-62983095D01*
X133632857Y-63104047D01*
X133753809Y-63164523D01*
X133995714Y-63164523D01*
X133028095Y-61894523D02*
X132181428Y-61894523D01*
X132725714Y-63164523D01*
D13*
X167882857Y-63162380D02*
X168216190Y-62686190D01*
X168454285Y-63162380D02*
X168454285Y-62162380D01*
X168073333Y-62162380D01*
X167978095Y-62210000D01*
X167930476Y-62257619D01*
X167882857Y-62352857D01*
X167882857Y-62495714D01*
X167930476Y-62590952D01*
X167978095Y-62638571D01*
X168073333Y-62686190D01*
X168454285Y-62686190D01*
X167025714Y-62495714D02*
X167025714Y-63162380D01*
X167263809Y-62114761D02*
X167501904Y-62829047D01*
X166882857Y-62829047D01*
X166359047Y-62590952D02*
X166454285Y-62543333D01*
X166501904Y-62495714D01*
X166549523Y-62400476D01*
X166549523Y-62352857D01*
X166501904Y-62257619D01*
X166454285Y-62210000D01*
X166359047Y-62162380D01*
X166168571Y-62162380D01*
X166073333Y-62210000D01*
X166025714Y-62257619D01*
X165978095Y-62352857D01*
X165978095Y-62400476D01*
X166025714Y-62495714D01*
X166073333Y-62543333D01*
X166168571Y-62590952D01*
X166359047Y-62590952D01*
X166454285Y-62638571D01*
X166501904Y-62686190D01*
X166549523Y-62781428D01*
X166549523Y-62971904D01*
X166501904Y-63067142D01*
X166454285Y-63114761D01*
X166359047Y-63162380D01*
X166168571Y-63162380D01*
X166073333Y-63114761D01*
X166025714Y-63067142D01*
X165978095Y-62971904D01*
X165978095Y-62781428D01*
X166025714Y-62686190D01*
X166073333Y-62638571D01*
X166168571Y-62590952D01*
X154232857Y-63342380D02*
X154566190Y-62866190D01*
X154804285Y-63342380D02*
X154804285Y-62342380D01*
X154423333Y-62342380D01*
X154328095Y-62390000D01*
X154280476Y-62437619D01*
X154232857Y-62532857D01*
X154232857Y-62675714D01*
X154280476Y-62770952D01*
X154328095Y-62818571D01*
X154423333Y-62866190D01*
X154804285Y-62866190D01*
X153375714Y-62675714D02*
X153375714Y-63342380D01*
X153613809Y-62294761D02*
X153851904Y-63009047D01*
X153232857Y-63009047D01*
X152947142Y-62342380D02*
X152280476Y-62342380D01*
X152709047Y-63342380D01*
X140482857Y-63252380D02*
X140816190Y-62776190D01*
X141054285Y-63252380D02*
X141054285Y-62252380D01*
X140673333Y-62252380D01*
X140578095Y-62300000D01*
X140530476Y-62347619D01*
X140482857Y-62442857D01*
X140482857Y-62585714D01*
X140530476Y-62680952D01*
X140578095Y-62728571D01*
X140673333Y-62776190D01*
X141054285Y-62776190D01*
X139625714Y-62585714D02*
X139625714Y-63252380D01*
X139863809Y-62204761D02*
X140101904Y-62919047D01*
X139482857Y-62919047D01*
X138673333Y-62252380D02*
X138863809Y-62252380D01*
X138959047Y-62300000D01*
X139006666Y-62347619D01*
X139101904Y-62490476D01*
X139149523Y-62680952D01*
X139149523Y-63061904D01*
X139101904Y-63157142D01*
X139054285Y-63204761D01*
X138959047Y-63252380D01*
X138768571Y-63252380D01*
X138673333Y-63204761D01*
X138625714Y-63157142D01*
X138578095Y-63061904D01*
X138578095Y-62823809D01*
X138625714Y-62728571D01*
X138673333Y-62680952D01*
X138768571Y-62633333D01*
X138959047Y-62633333D01*
X139054285Y-62680952D01*
X139101904Y-62728571D01*
X139149523Y-62823809D01*
X156892857Y-92692380D02*
X157226190Y-92216190D01*
X157464285Y-92692380D02*
X157464285Y-91692380D01*
X157083333Y-91692380D01*
X156988095Y-91740000D01*
X156940476Y-91787619D01*
X156892857Y-91882857D01*
X156892857Y-92025714D01*
X156940476Y-92120952D01*
X156988095Y-92168571D01*
X157083333Y-92216190D01*
X157464285Y-92216190D01*
X156559523Y-91692380D02*
X155940476Y-91692380D01*
X156273809Y-92073333D01*
X156130952Y-92073333D01*
X156035714Y-92120952D01*
X155988095Y-92168571D01*
X155940476Y-92263809D01*
X155940476Y-92501904D01*
X155988095Y-92597142D01*
X156035714Y-92644761D01*
X156130952Y-92692380D01*
X156416666Y-92692380D01*
X156511904Y-92644761D01*
X156559523Y-92597142D01*
X155607142Y-91692380D02*
X154940476Y-91692380D01*
X155369047Y-92692380D01*
X167382380Y-94977142D02*
X166906190Y-94643809D01*
X167382380Y-94405714D02*
X166382380Y-94405714D01*
X166382380Y-94786666D01*
X166430000Y-94881904D01*
X166477619Y-94929523D01*
X166572857Y-94977142D01*
X166715714Y-94977142D01*
X166810952Y-94929523D01*
X166858571Y-94881904D01*
X166906190Y-94786666D01*
X166906190Y-94405714D01*
X166382380Y-95310476D02*
X166382380Y-95929523D01*
X166763333Y-95596190D01*
X166763333Y-95739047D01*
X166810952Y-95834285D01*
X166858571Y-95881904D01*
X166953809Y-95929523D01*
X167191904Y-95929523D01*
X167287142Y-95881904D01*
X167334761Y-95834285D01*
X167382380Y-95739047D01*
X167382380Y-95453333D01*
X167334761Y-95358095D01*
X167287142Y-95310476D01*
X166715714Y-96786666D02*
X167382380Y-96786666D01*
X166334761Y-96548571D02*
X167049047Y-96310476D01*
X167049047Y-96929523D01*
X168142857Y-97982380D02*
X168476190Y-97506190D01*
X168714285Y-97982380D02*
X168714285Y-96982380D01*
X168333333Y-96982380D01*
X168238095Y-97030000D01*
X168190476Y-97077619D01*
X168142857Y-97172857D01*
X168142857Y-97315714D01*
X168190476Y-97410952D01*
X168238095Y-97458571D01*
X168333333Y-97506190D01*
X168714285Y-97506190D01*
X167809523Y-96982380D02*
X167190476Y-96982380D01*
X167523809Y-97363333D01*
X167380952Y-97363333D01*
X167285714Y-97410952D01*
X167238095Y-97458571D01*
X167190476Y-97553809D01*
X167190476Y-97791904D01*
X167238095Y-97887142D01*
X167285714Y-97934761D01*
X167380952Y-97982380D01*
X167666666Y-97982380D01*
X167761904Y-97934761D01*
X167809523Y-97887142D01*
X166857142Y-96982380D02*
X166238095Y-96982380D01*
X166571428Y-97363333D01*
X166428571Y-97363333D01*
X166333333Y-97410952D01*
X166285714Y-97458571D01*
X166238095Y-97553809D01*
X166238095Y-97791904D01*
X166285714Y-97887142D01*
X166333333Y-97934761D01*
X166428571Y-97982380D01*
X166714285Y-97982380D01*
X166809523Y-97934761D01*
X166857142Y-97887142D01*
X160577619Y-99972857D02*
X161053809Y-100306190D01*
X160577619Y-100544285D02*
X161577619Y-100544285D01*
X161577619Y-100163333D01*
X161530000Y-100068095D01*
X161482380Y-100020476D01*
X161387142Y-99972857D01*
X161244285Y-99972857D01*
X161149047Y-100020476D01*
X161101428Y-100068095D01*
X161053809Y-100163333D01*
X161053809Y-100544285D01*
X161482380Y-99591904D02*
X161530000Y-99544285D01*
X161577619Y-99449047D01*
X161577619Y-99210952D01*
X161530000Y-99115714D01*
X161482380Y-99068095D01*
X161387142Y-99020476D01*
X161291904Y-99020476D01*
X161149047Y-99068095D01*
X160577619Y-99639523D01*
X160577619Y-99020476D01*
X160577619Y-98544285D02*
X160577619Y-98353809D01*
X160625238Y-98258571D01*
X160672857Y-98210952D01*
X160815714Y-98115714D01*
X161006190Y-98068095D01*
X161387142Y-98068095D01*
X161482380Y-98115714D01*
X161530000Y-98163333D01*
X161577619Y-98258571D01*
X161577619Y-98449047D01*
X161530000Y-98544285D01*
X161482380Y-98591904D01*
X161387142Y-98639523D01*
X161149047Y-98639523D01*
X161053809Y-98591904D01*
X161006190Y-98544285D01*
X160958571Y-98449047D01*
X160958571Y-98258571D01*
X161006190Y-98163333D01*
X161053809Y-98115714D01*
X161149047Y-98068095D01*
X181968857Y-99902380D02*
X182302190Y-99426190D01*
X182540285Y-99902380D02*
X182540285Y-98902380D01*
X182159333Y-98902380D01*
X182064095Y-98950000D01*
X182016476Y-98997619D01*
X181968857Y-99092857D01*
X181968857Y-99235714D01*
X182016476Y-99330952D01*
X182064095Y-99378571D01*
X182159333Y-99426190D01*
X182540285Y-99426190D01*
X181587904Y-98997619D02*
X181540285Y-98950000D01*
X181445047Y-98902380D01*
X181206952Y-98902380D01*
X181111714Y-98950000D01*
X181064095Y-98997619D01*
X181016476Y-99092857D01*
X181016476Y-99188095D01*
X181064095Y-99330952D01*
X181635523Y-99902380D01*
X181016476Y-99902380D01*
X180445047Y-99330952D02*
X180540285Y-99283333D01*
X180587904Y-99235714D01*
X180635523Y-99140476D01*
X180635523Y-99092857D01*
X180587904Y-98997619D01*
X180540285Y-98950000D01*
X180445047Y-98902380D01*
X180254571Y-98902380D01*
X180159333Y-98950000D01*
X180111714Y-98997619D01*
X180064095Y-99092857D01*
X180064095Y-99140476D01*
X180111714Y-99235714D01*
X180159333Y-99283333D01*
X180254571Y-99330952D01*
X180445047Y-99330952D01*
X180540285Y-99378571D01*
X180587904Y-99426190D01*
X180635523Y-99521428D01*
X180635523Y-99711904D01*
X180587904Y-99807142D01*
X180540285Y-99854761D01*
X180445047Y-99902380D01*
X180254571Y-99902380D01*
X180159333Y-99854761D01*
X180111714Y-99807142D01*
X180064095Y-99711904D01*
X180064095Y-99521428D01*
X180111714Y-99426190D01*
X180159333Y-99378571D01*
X180254571Y-99330952D01*
X131542380Y-83297142D02*
X131066190Y-82963809D01*
X131542380Y-82725714D02*
X130542380Y-82725714D01*
X130542380Y-83106666D01*
X130590000Y-83201904D01*
X130637619Y-83249523D01*
X130732857Y-83297142D01*
X130875714Y-83297142D01*
X130970952Y-83249523D01*
X131018571Y-83201904D01*
X131066190Y-83106666D01*
X131066190Y-82725714D01*
X130637619Y-83678095D02*
X130590000Y-83725714D01*
X130542380Y-83820952D01*
X130542380Y-84059047D01*
X130590000Y-84154285D01*
X130637619Y-84201904D01*
X130732857Y-84249523D01*
X130828095Y-84249523D01*
X130970952Y-84201904D01*
X131542380Y-83630476D01*
X131542380Y-84249523D01*
X130542380Y-84582857D02*
X130542380Y-85249523D01*
X131542380Y-84820952D01*
X180782857Y-84342380D02*
X181116190Y-83866190D01*
X181354285Y-84342380D02*
X181354285Y-83342380D01*
X180973333Y-83342380D01*
X180878095Y-83390000D01*
X180830476Y-83437619D01*
X180782857Y-83532857D01*
X180782857Y-83675714D01*
X180830476Y-83770952D01*
X180878095Y-83818571D01*
X180973333Y-83866190D01*
X181354285Y-83866190D01*
X180401904Y-83437619D02*
X180354285Y-83390000D01*
X180259047Y-83342380D01*
X180020952Y-83342380D01*
X179925714Y-83390000D01*
X179878095Y-83437619D01*
X179830476Y-83532857D01*
X179830476Y-83628095D01*
X179878095Y-83770952D01*
X180449523Y-84342380D01*
X179830476Y-84342380D01*
X178925714Y-83342380D02*
X179401904Y-83342380D01*
X179449523Y-83818571D01*
X179401904Y-83770952D01*
X179306666Y-83723333D01*
X179068571Y-83723333D01*
X178973333Y-83770952D01*
X178925714Y-83818571D01*
X178878095Y-83913809D01*
X178878095Y-84151904D01*
X178925714Y-84247142D01*
X178973333Y-84294761D01*
X179068571Y-84342380D01*
X179306666Y-84342380D01*
X179401904Y-84294761D01*
X179449523Y-84247142D01*
X175862380Y-68557142D02*
X175386190Y-68223809D01*
X175862380Y-67985714D02*
X174862380Y-67985714D01*
X174862380Y-68366666D01*
X174910000Y-68461904D01*
X174957619Y-68509523D01*
X175052857Y-68557142D01*
X175195714Y-68557142D01*
X175290952Y-68509523D01*
X175338571Y-68461904D01*
X175386190Y-68366666D01*
X175386190Y-67985714D01*
X174957619Y-68938095D02*
X174910000Y-68985714D01*
X174862380Y-69080952D01*
X174862380Y-69319047D01*
X174910000Y-69414285D01*
X174957619Y-69461904D01*
X175052857Y-69509523D01*
X175148095Y-69509523D01*
X175290952Y-69461904D01*
X175862380Y-68890476D01*
X175862380Y-69509523D01*
X175195714Y-70366666D02*
X175862380Y-70366666D01*
X174814761Y-70128571D02*
X175529047Y-69890476D01*
X175529047Y-70509523D01*
X180642380Y-68397142D02*
X180166190Y-68063809D01*
X180642380Y-67825714D02*
X179642380Y-67825714D01*
X179642380Y-68206666D01*
X179690000Y-68301904D01*
X179737619Y-68349523D01*
X179832857Y-68397142D01*
X179975714Y-68397142D01*
X180070952Y-68349523D01*
X180118571Y-68301904D01*
X180166190Y-68206666D01*
X180166190Y-67825714D01*
X179737619Y-68778095D02*
X179690000Y-68825714D01*
X179642380Y-68920952D01*
X179642380Y-69159047D01*
X179690000Y-69254285D01*
X179737619Y-69301904D01*
X179832857Y-69349523D01*
X179928095Y-69349523D01*
X180070952Y-69301904D01*
X180642380Y-68730476D01*
X180642380Y-69349523D01*
X179642380Y-69682857D02*
X179642380Y-70301904D01*
X180023333Y-69968571D01*
X180023333Y-70111428D01*
X180070952Y-70206666D01*
X180118571Y-70254285D01*
X180213809Y-70301904D01*
X180451904Y-70301904D01*
X180547142Y-70254285D01*
X180594761Y-70206666D01*
X180642380Y-70111428D01*
X180642380Y-69825714D01*
X180594761Y-69730476D01*
X180547142Y-69682857D01*
X166922380Y-68507142D02*
X166446190Y-68173809D01*
X166922380Y-67935714D02*
X165922380Y-67935714D01*
X165922380Y-68316666D01*
X165970000Y-68411904D01*
X166017619Y-68459523D01*
X166112857Y-68507142D01*
X166255714Y-68507142D01*
X166350952Y-68459523D01*
X166398571Y-68411904D01*
X166446190Y-68316666D01*
X166446190Y-67935714D01*
X166017619Y-68888095D02*
X165970000Y-68935714D01*
X165922380Y-69030952D01*
X165922380Y-69269047D01*
X165970000Y-69364285D01*
X166017619Y-69411904D01*
X166112857Y-69459523D01*
X166208095Y-69459523D01*
X166350952Y-69411904D01*
X166922380Y-68840476D01*
X166922380Y-69459523D01*
X166017619Y-69840476D02*
X165970000Y-69888095D01*
X165922380Y-69983333D01*
X165922380Y-70221428D01*
X165970000Y-70316666D01*
X166017619Y-70364285D01*
X166112857Y-70411904D01*
X166208095Y-70411904D01*
X166350952Y-70364285D01*
X166922380Y-69792857D01*
X166922380Y-70411904D01*
X162212380Y-68477142D02*
X161736190Y-68143809D01*
X162212380Y-67905714D02*
X161212380Y-67905714D01*
X161212380Y-68286666D01*
X161260000Y-68381904D01*
X161307619Y-68429523D01*
X161402857Y-68477142D01*
X161545714Y-68477142D01*
X161640952Y-68429523D01*
X161688571Y-68381904D01*
X161736190Y-68286666D01*
X161736190Y-67905714D01*
X161307619Y-68858095D02*
X161260000Y-68905714D01*
X161212380Y-69000952D01*
X161212380Y-69239047D01*
X161260000Y-69334285D01*
X161307619Y-69381904D01*
X161402857Y-69429523D01*
X161498095Y-69429523D01*
X161640952Y-69381904D01*
X162212380Y-68810476D01*
X162212380Y-69429523D01*
X162212380Y-70381904D02*
X162212380Y-69810476D01*
X162212380Y-70096190D02*
X161212380Y-70096190D01*
X161355238Y-70000952D01*
X161450476Y-69905714D01*
X161498095Y-69810476D01*
X177032380Y-85537142D02*
X176556190Y-85203809D01*
X177032380Y-84965714D02*
X176032380Y-84965714D01*
X176032380Y-85346666D01*
X176080000Y-85441904D01*
X176127619Y-85489523D01*
X176222857Y-85537142D01*
X176365714Y-85537142D01*
X176460952Y-85489523D01*
X176508571Y-85441904D01*
X176556190Y-85346666D01*
X176556190Y-84965714D01*
X176127619Y-85918095D02*
X176080000Y-85965714D01*
X176032380Y-86060952D01*
X176032380Y-86299047D01*
X176080000Y-86394285D01*
X176127619Y-86441904D01*
X176222857Y-86489523D01*
X176318095Y-86489523D01*
X176460952Y-86441904D01*
X177032380Y-85870476D01*
X177032380Y-86489523D01*
X176032380Y-87108571D02*
X176032380Y-87203809D01*
X176080000Y-87299047D01*
X176127619Y-87346666D01*
X176222857Y-87394285D01*
X176413333Y-87441904D01*
X176651428Y-87441904D01*
X176841904Y-87394285D01*
X176937142Y-87346666D01*
X176984761Y-87299047D01*
X177032380Y-87203809D01*
X177032380Y-87108571D01*
X176984761Y-87013333D01*
X176937142Y-86965714D01*
X176841904Y-86918095D01*
X176651428Y-86870476D01*
X176413333Y-86870476D01*
X176222857Y-86918095D01*
X176127619Y-86965714D01*
X176080000Y-87013333D01*
X176032380Y-87108571D01*
X148722380Y-68307142D02*
X148246190Y-67973809D01*
X148722380Y-67735714D02*
X147722380Y-67735714D01*
X147722380Y-68116666D01*
X147770000Y-68211904D01*
X147817619Y-68259523D01*
X147912857Y-68307142D01*
X148055714Y-68307142D01*
X148150952Y-68259523D01*
X148198571Y-68211904D01*
X148246190Y-68116666D01*
X148246190Y-67735714D01*
X148722380Y-69259523D02*
X148722380Y-68688095D01*
X148722380Y-68973809D02*
X147722380Y-68973809D01*
X147865238Y-68878571D01*
X147960476Y-68783333D01*
X148008095Y-68688095D01*
X148150952Y-69830952D02*
X148103333Y-69735714D01*
X148055714Y-69688095D01*
X147960476Y-69640476D01*
X147912857Y-69640476D01*
X147817619Y-69688095D01*
X147770000Y-69735714D01*
X147722380Y-69830952D01*
X147722380Y-70021428D01*
X147770000Y-70116666D01*
X147817619Y-70164285D01*
X147912857Y-70211904D01*
X147960476Y-70211904D01*
X148055714Y-70164285D01*
X148103333Y-70116666D01*
X148150952Y-70021428D01*
X148150952Y-69830952D01*
X148198571Y-69735714D01*
X148246190Y-69688095D01*
X148341428Y-69640476D01*
X148531904Y-69640476D01*
X148627142Y-69688095D01*
X148674761Y-69735714D01*
X148722380Y-69830952D01*
X148722380Y-70021428D01*
X148674761Y-70116666D01*
X148627142Y-70164285D01*
X148531904Y-70211904D01*
X148341428Y-70211904D01*
X148246190Y-70164285D01*
X148198571Y-70116666D01*
X148150952Y-70021428D01*
X156802380Y-68297142D02*
X156326190Y-67963809D01*
X156802380Y-67725714D02*
X155802380Y-67725714D01*
X155802380Y-68106666D01*
X155850000Y-68201904D01*
X155897619Y-68249523D01*
X155992857Y-68297142D01*
X156135714Y-68297142D01*
X156230952Y-68249523D01*
X156278571Y-68201904D01*
X156326190Y-68106666D01*
X156326190Y-67725714D01*
X156802380Y-69249523D02*
X156802380Y-68678095D01*
X156802380Y-68963809D02*
X155802380Y-68963809D01*
X155945238Y-68868571D01*
X156040476Y-68773333D01*
X156088095Y-68678095D01*
X155802380Y-69582857D02*
X155802380Y-70249523D01*
X156802380Y-69820952D01*
X164432857Y-84342380D02*
X164766190Y-83866190D01*
X165004285Y-84342380D02*
X165004285Y-83342380D01*
X164623333Y-83342380D01*
X164528095Y-83390000D01*
X164480476Y-83437619D01*
X164432857Y-83532857D01*
X164432857Y-83675714D01*
X164480476Y-83770952D01*
X164528095Y-83818571D01*
X164623333Y-83866190D01*
X165004285Y-83866190D01*
X163480476Y-84342380D02*
X164051904Y-84342380D01*
X163766190Y-84342380D02*
X163766190Y-83342380D01*
X163861428Y-83485238D01*
X163956666Y-83580476D01*
X164051904Y-83628095D01*
X162575714Y-83342380D02*
X163051904Y-83342380D01*
X163099523Y-83818571D01*
X163051904Y-83770952D01*
X162956666Y-83723333D01*
X162718571Y-83723333D01*
X162623333Y-83770952D01*
X162575714Y-83818571D01*
X162528095Y-83913809D01*
X162528095Y-84151904D01*
X162575714Y-84247142D01*
X162623333Y-84294761D01*
X162718571Y-84342380D01*
X162956666Y-84342380D01*
X163051904Y-84294761D01*
X163099523Y-84247142D01*
X151432857Y-71652380D02*
X151766190Y-71176190D01*
X152004285Y-71652380D02*
X152004285Y-70652380D01*
X151623333Y-70652380D01*
X151528095Y-70700000D01*
X151480476Y-70747619D01*
X151432857Y-70842857D01*
X151432857Y-70985714D01*
X151480476Y-71080952D01*
X151528095Y-71128571D01*
X151623333Y-71176190D01*
X152004285Y-71176190D01*
X150480476Y-71652380D02*
X151051904Y-71652380D01*
X150766190Y-71652380D02*
X150766190Y-70652380D01*
X150861428Y-70795238D01*
X150956666Y-70890476D01*
X151051904Y-70938095D01*
X149623333Y-70985714D02*
X149623333Y-71652380D01*
X149861428Y-70604761D02*
X150099523Y-71319047D01*
X149480476Y-71319047D01*
X154382857Y-71632380D02*
X154716190Y-71156190D01*
X154954285Y-71632380D02*
X154954285Y-70632380D01*
X154573333Y-70632380D01*
X154478095Y-70680000D01*
X154430476Y-70727619D01*
X154382857Y-70822857D01*
X154382857Y-70965714D01*
X154430476Y-71060952D01*
X154478095Y-71108571D01*
X154573333Y-71156190D01*
X154954285Y-71156190D01*
X153430476Y-71632380D02*
X154001904Y-71632380D01*
X153716190Y-71632380D02*
X153716190Y-70632380D01*
X153811428Y-70775238D01*
X153906666Y-70870476D01*
X154001904Y-70918095D01*
X153097142Y-70632380D02*
X152478095Y-70632380D01*
X152811428Y-71013333D01*
X152668571Y-71013333D01*
X152573333Y-71060952D01*
X152525714Y-71108571D01*
X152478095Y-71203809D01*
X152478095Y-71441904D01*
X152525714Y-71537142D01*
X152573333Y-71584761D01*
X152668571Y-71632380D01*
X152954285Y-71632380D01*
X153049523Y-71584761D01*
X153097142Y-71537142D01*
X162602380Y-85567142D02*
X162126190Y-85233809D01*
X162602380Y-84995714D02*
X161602380Y-84995714D01*
X161602380Y-85376666D01*
X161650000Y-85471904D01*
X161697619Y-85519523D01*
X161792857Y-85567142D01*
X161935714Y-85567142D01*
X162030952Y-85519523D01*
X162078571Y-85471904D01*
X162126190Y-85376666D01*
X162126190Y-84995714D01*
X162602380Y-86519523D02*
X162602380Y-85948095D01*
X162602380Y-86233809D02*
X161602380Y-86233809D01*
X161745238Y-86138571D01*
X161840476Y-86043333D01*
X161888095Y-85948095D01*
X161697619Y-86900476D02*
X161650000Y-86948095D01*
X161602380Y-87043333D01*
X161602380Y-87281428D01*
X161650000Y-87376666D01*
X161697619Y-87424285D01*
X161792857Y-87471904D01*
X161888095Y-87471904D01*
X162030952Y-87424285D01*
X162602380Y-86852857D01*
X162602380Y-87471904D01*
X137692857Y-72072380D02*
X138026190Y-71596190D01*
X138264285Y-72072380D02*
X138264285Y-71072380D01*
X137883333Y-71072380D01*
X137788095Y-71120000D01*
X137740476Y-71167619D01*
X137692857Y-71262857D01*
X137692857Y-71405714D01*
X137740476Y-71500952D01*
X137788095Y-71548571D01*
X137883333Y-71596190D01*
X138264285Y-71596190D01*
X136740476Y-72072380D02*
X137311904Y-72072380D01*
X137026190Y-72072380D02*
X137026190Y-71072380D01*
X137121428Y-71215238D01*
X137216666Y-71310476D01*
X137311904Y-71358095D01*
X135788095Y-72072380D02*
X136359523Y-72072380D01*
X136073809Y-72072380D02*
X136073809Y-71072380D01*
X136169047Y-71215238D01*
X136264285Y-71310476D01*
X136359523Y-71358095D01*
X140712857Y-71892380D02*
X141046190Y-71416190D01*
X141284285Y-71892380D02*
X141284285Y-70892380D01*
X140903333Y-70892380D01*
X140808095Y-70940000D01*
X140760476Y-70987619D01*
X140712857Y-71082857D01*
X140712857Y-71225714D01*
X140760476Y-71320952D01*
X140808095Y-71368571D01*
X140903333Y-71416190D01*
X141284285Y-71416190D01*
X139760476Y-71892380D02*
X140331904Y-71892380D01*
X140046190Y-71892380D02*
X140046190Y-70892380D01*
X140141428Y-71035238D01*
X140236666Y-71130476D01*
X140331904Y-71178095D01*
X139141428Y-70892380D02*
X139046190Y-70892380D01*
X138950952Y-70940000D01*
X138903333Y-70987619D01*
X138855714Y-71082857D01*
X138808095Y-71273333D01*
X138808095Y-71511428D01*
X138855714Y-71701904D01*
X138903333Y-71797142D01*
X138950952Y-71844761D01*
X139046190Y-71892380D01*
X139141428Y-71892380D01*
X139236666Y-71844761D01*
X139284285Y-71797142D01*
X139331904Y-71701904D01*
X139379523Y-71511428D01*
X139379523Y-71273333D01*
X139331904Y-71082857D01*
X139284285Y-70987619D01*
X139236666Y-70940000D01*
X139141428Y-70892380D01*
X135072380Y-69033333D02*
X134596190Y-68700000D01*
X135072380Y-68461904D02*
X134072380Y-68461904D01*
X134072380Y-68842857D01*
X134120000Y-68938095D01*
X134167619Y-68985714D01*
X134262857Y-69033333D01*
X134405714Y-69033333D01*
X134500952Y-68985714D01*
X134548571Y-68938095D01*
X134596190Y-68842857D01*
X134596190Y-68461904D01*
X135072380Y-69509523D02*
X135072380Y-69700000D01*
X135024761Y-69795238D01*
X134977142Y-69842857D01*
X134834285Y-69938095D01*
X134643809Y-69985714D01*
X134262857Y-69985714D01*
X134167619Y-69938095D01*
X134120000Y-69890476D01*
X134072380Y-69795238D01*
X134072380Y-69604761D01*
X134120000Y-69509523D01*
X134167619Y-69461904D01*
X134262857Y-69414285D01*
X134500952Y-69414285D01*
X134596190Y-69461904D01*
X134643809Y-69509523D01*
X134691428Y-69604761D01*
X134691428Y-69795238D01*
X134643809Y-69890476D01*
X134596190Y-69938095D01*
X134500952Y-69985714D01*
X143172380Y-68293333D02*
X142696190Y-67960000D01*
X143172380Y-67721904D02*
X142172380Y-67721904D01*
X142172380Y-68102857D01*
X142220000Y-68198095D01*
X142267619Y-68245714D01*
X142362857Y-68293333D01*
X142505714Y-68293333D01*
X142600952Y-68245714D01*
X142648571Y-68198095D01*
X142696190Y-68102857D01*
X142696190Y-67721904D01*
X142600952Y-68864761D02*
X142553333Y-68769523D01*
X142505714Y-68721904D01*
X142410476Y-68674285D01*
X142362857Y-68674285D01*
X142267619Y-68721904D01*
X142220000Y-68769523D01*
X142172380Y-68864761D01*
X142172380Y-69055238D01*
X142220000Y-69150476D01*
X142267619Y-69198095D01*
X142362857Y-69245714D01*
X142410476Y-69245714D01*
X142505714Y-69198095D01*
X142553333Y-69150476D01*
X142600952Y-69055238D01*
X142600952Y-68864761D01*
X142648571Y-68769523D01*
X142696190Y-68721904D01*
X142791428Y-68674285D01*
X142981904Y-68674285D01*
X143077142Y-68721904D01*
X143124761Y-68769523D01*
X143172380Y-68864761D01*
X143172380Y-69055238D01*
X143124761Y-69150476D01*
X143077142Y-69198095D01*
X142981904Y-69245714D01*
X142791428Y-69245714D01*
X142696190Y-69198095D01*
X142648571Y-69150476D01*
X142600952Y-69055238D01*
X148442380Y-83513333D02*
X147966190Y-83180000D01*
X148442380Y-82941904D02*
X147442380Y-82941904D01*
X147442380Y-83322857D01*
X147490000Y-83418095D01*
X147537619Y-83465714D01*
X147632857Y-83513333D01*
X147775714Y-83513333D01*
X147870952Y-83465714D01*
X147918571Y-83418095D01*
X147966190Y-83322857D01*
X147966190Y-82941904D01*
X147442380Y-83846666D02*
X147442380Y-84513333D01*
X148442380Y-84084761D01*
X150202380Y-83533333D02*
X149726190Y-83200000D01*
X150202380Y-82961904D02*
X149202380Y-82961904D01*
X149202380Y-83342857D01*
X149250000Y-83438095D01*
X149297619Y-83485714D01*
X149392857Y-83533333D01*
X149535714Y-83533333D01*
X149630952Y-83485714D01*
X149678571Y-83438095D01*
X149726190Y-83342857D01*
X149726190Y-82961904D01*
X149202380Y-84390476D02*
X149202380Y-84200000D01*
X149250000Y-84104761D01*
X149297619Y-84057142D01*
X149440476Y-83961904D01*
X149630952Y-83914285D01*
X150011904Y-83914285D01*
X150107142Y-83961904D01*
X150154761Y-84009523D01*
X150202380Y-84104761D01*
X150202380Y-84295238D01*
X150154761Y-84390476D01*
X150107142Y-84438095D01*
X150011904Y-84485714D01*
X149773809Y-84485714D01*
X149678571Y-84438095D01*
X149630952Y-84390476D01*
X149583333Y-84295238D01*
X149583333Y-84104761D01*
X149630952Y-84009523D01*
X149678571Y-83961904D01*
X149773809Y-83914285D01*
X112832857Y-104187142D02*
X112880476Y-104234761D01*
X113023333Y-104282380D01*
X113118571Y-104282380D01*
X113261428Y-104234761D01*
X113356666Y-104139523D01*
X113404285Y-104044285D01*
X113451904Y-103853809D01*
X113451904Y-103710952D01*
X113404285Y-103520476D01*
X113356666Y-103425238D01*
X113261428Y-103330000D01*
X113118571Y-103282380D01*
X113023333Y-103282380D01*
X112880476Y-103330000D01*
X112832857Y-103377619D01*
X111975714Y-103615714D02*
X111975714Y-104282380D01*
X112213809Y-103234761D02*
X112451904Y-103949047D01*
X111832857Y-103949047D01*
X111261428Y-103282380D02*
X111166190Y-103282380D01*
X111070952Y-103330000D01*
X111023333Y-103377619D01*
X110975714Y-103472857D01*
X110928095Y-103663333D01*
X110928095Y-103901428D01*
X110975714Y-104091904D01*
X111023333Y-104187142D01*
X111070952Y-104234761D01*
X111166190Y-104282380D01*
X111261428Y-104282380D01*
X111356666Y-104234761D01*
X111404285Y-104187142D01*
X111451904Y-104091904D01*
X111499523Y-103901428D01*
X111499523Y-103663333D01*
X111451904Y-103472857D01*
X111404285Y-103377619D01*
X111356666Y-103330000D01*
X111261428Y-103282380D01*
X130497142Y-98247142D02*
X130544761Y-98199523D01*
X130592380Y-98056666D01*
X130592380Y-97961428D01*
X130544761Y-97818571D01*
X130449523Y-97723333D01*
X130354285Y-97675714D01*
X130163809Y-97628095D01*
X130020952Y-97628095D01*
X129830476Y-97675714D01*
X129735238Y-97723333D01*
X129640000Y-97818571D01*
X129592380Y-97961428D01*
X129592380Y-98056666D01*
X129640000Y-98199523D01*
X129687619Y-98247142D01*
X129592380Y-98580476D02*
X129592380Y-99199523D01*
X129973333Y-98866190D01*
X129973333Y-99009047D01*
X130020952Y-99104285D01*
X130068571Y-99151904D01*
X130163809Y-99199523D01*
X130401904Y-99199523D01*
X130497142Y-99151904D01*
X130544761Y-99104285D01*
X130592380Y-99009047D01*
X130592380Y-98723333D01*
X130544761Y-98628095D01*
X130497142Y-98580476D01*
X130592380Y-99675714D02*
X130592380Y-99866190D01*
X130544761Y-99961428D01*
X130497142Y-100009047D01*
X130354285Y-100104285D01*
X130163809Y-100151904D01*
X129782857Y-100151904D01*
X129687619Y-100104285D01*
X129640000Y-100056666D01*
X129592380Y-99961428D01*
X129592380Y-99770952D01*
X129640000Y-99675714D01*
X129687619Y-99628095D01*
X129782857Y-99580476D01*
X130020952Y-99580476D01*
X130116190Y-99628095D01*
X130163809Y-99675714D01*
X130211428Y-99770952D01*
X130211428Y-99961428D01*
X130163809Y-100056666D01*
X130116190Y-100104285D01*
X130020952Y-100151904D01*
X112842857Y-102507142D02*
X112890476Y-102554761D01*
X113033333Y-102602380D01*
X113128571Y-102602380D01*
X113271428Y-102554761D01*
X113366666Y-102459523D01*
X113414285Y-102364285D01*
X113461904Y-102173809D01*
X113461904Y-102030952D01*
X113414285Y-101840476D01*
X113366666Y-101745238D01*
X113271428Y-101650000D01*
X113128571Y-101602380D01*
X113033333Y-101602380D01*
X112890476Y-101650000D01*
X112842857Y-101697619D01*
X112509523Y-101602380D02*
X111890476Y-101602380D01*
X112223809Y-101983333D01*
X112080952Y-101983333D01*
X111985714Y-102030952D01*
X111938095Y-102078571D01*
X111890476Y-102173809D01*
X111890476Y-102411904D01*
X111938095Y-102507142D01*
X111985714Y-102554761D01*
X112080952Y-102602380D01*
X112366666Y-102602380D01*
X112461904Y-102554761D01*
X112509523Y-102507142D01*
X111319047Y-102030952D02*
X111414285Y-101983333D01*
X111461904Y-101935714D01*
X111509523Y-101840476D01*
X111509523Y-101792857D01*
X111461904Y-101697619D01*
X111414285Y-101650000D01*
X111319047Y-101602380D01*
X111128571Y-101602380D01*
X111033333Y-101650000D01*
X110985714Y-101697619D01*
X110938095Y-101792857D01*
X110938095Y-101840476D01*
X110985714Y-101935714D01*
X111033333Y-101983333D01*
X111128571Y-102030952D01*
X111319047Y-102030952D01*
X111414285Y-102078571D01*
X111461904Y-102126190D01*
X111509523Y-102221428D01*
X111509523Y-102411904D01*
X111461904Y-102507142D01*
X111414285Y-102554761D01*
X111319047Y-102602380D01*
X111128571Y-102602380D01*
X111033333Y-102554761D01*
X110985714Y-102507142D01*
X110938095Y-102411904D01*
X110938095Y-102221428D01*
X110985714Y-102126190D01*
X111033333Y-102078571D01*
X111128571Y-102030952D01*
X151447142Y-92407142D02*
X151494761Y-92359523D01*
X151542380Y-92216666D01*
X151542380Y-92121428D01*
X151494761Y-91978571D01*
X151399523Y-91883333D01*
X151304285Y-91835714D01*
X151113809Y-91788095D01*
X150970952Y-91788095D01*
X150780476Y-91835714D01*
X150685238Y-91883333D01*
X150590000Y-91978571D01*
X150542380Y-92121428D01*
X150542380Y-92216666D01*
X150590000Y-92359523D01*
X150637619Y-92407142D01*
X150542380Y-92740476D02*
X150542380Y-93359523D01*
X150923333Y-93026190D01*
X150923333Y-93169047D01*
X150970952Y-93264285D01*
X151018571Y-93311904D01*
X151113809Y-93359523D01*
X151351904Y-93359523D01*
X151447142Y-93311904D01*
X151494761Y-93264285D01*
X151542380Y-93169047D01*
X151542380Y-92883333D01*
X151494761Y-92788095D01*
X151447142Y-92740476D01*
X150542380Y-93692857D02*
X150542380Y-94311904D01*
X150923333Y-93978571D01*
X150923333Y-94121428D01*
X150970952Y-94216666D01*
X151018571Y-94264285D01*
X151113809Y-94311904D01*
X151351904Y-94311904D01*
X151447142Y-94264285D01*
X151494761Y-94216666D01*
X151542380Y-94121428D01*
X151542380Y-93835714D01*
X151494761Y-93740476D01*
X151447142Y-93692857D01*
X169657142Y-91667142D02*
X169704761Y-91619523D01*
X169752380Y-91476666D01*
X169752380Y-91381428D01*
X169704761Y-91238571D01*
X169609523Y-91143333D01*
X169514285Y-91095714D01*
X169323809Y-91048095D01*
X169180952Y-91048095D01*
X168990476Y-91095714D01*
X168895238Y-91143333D01*
X168800000Y-91238571D01*
X168752380Y-91381428D01*
X168752380Y-91476666D01*
X168800000Y-91619523D01*
X168847619Y-91667142D01*
X168847619Y-92048095D02*
X168800000Y-92095714D01*
X168752380Y-92190952D01*
X168752380Y-92429047D01*
X168800000Y-92524285D01*
X168847619Y-92571904D01*
X168942857Y-92619523D01*
X169038095Y-92619523D01*
X169180952Y-92571904D01*
X169752380Y-92000476D01*
X169752380Y-92619523D01*
X169752380Y-93095714D02*
X169752380Y-93286190D01*
X169704761Y-93381428D01*
X169657142Y-93429047D01*
X169514285Y-93524285D01*
X169323809Y-93571904D01*
X168942857Y-93571904D01*
X168847619Y-93524285D01*
X168800000Y-93476666D01*
X168752380Y-93381428D01*
X168752380Y-93190952D01*
X168800000Y-93095714D01*
X168847619Y-93048095D01*
X168942857Y-93000476D01*
X169180952Y-93000476D01*
X169276190Y-93048095D01*
X169323809Y-93095714D01*
X169371428Y-93190952D01*
X169371428Y-93381428D01*
X169323809Y-93476666D01*
X169276190Y-93524285D01*
X169180952Y-93571904D01*
X170967142Y-98867142D02*
X171014761Y-98819523D01*
X171062380Y-98676666D01*
X171062380Y-98581428D01*
X171014761Y-98438571D01*
X170919523Y-98343333D01*
X170824285Y-98295714D01*
X170633809Y-98248095D01*
X170490952Y-98248095D01*
X170300476Y-98295714D01*
X170205238Y-98343333D01*
X170110000Y-98438571D01*
X170062380Y-98581428D01*
X170062380Y-98676666D01*
X170110000Y-98819523D01*
X170157619Y-98867142D01*
X170157619Y-99248095D02*
X170110000Y-99295714D01*
X170062380Y-99390952D01*
X170062380Y-99629047D01*
X170110000Y-99724285D01*
X170157619Y-99771904D01*
X170252857Y-99819523D01*
X170348095Y-99819523D01*
X170490952Y-99771904D01*
X171062380Y-99200476D01*
X171062380Y-99819523D01*
X170062380Y-100676666D02*
X170062380Y-100486190D01*
X170110000Y-100390952D01*
X170157619Y-100343333D01*
X170300476Y-100248095D01*
X170490952Y-100200476D01*
X170871904Y-100200476D01*
X170967142Y-100248095D01*
X171014761Y-100295714D01*
X171062380Y-100390952D01*
X171062380Y-100581428D01*
X171014761Y-100676666D01*
X170967142Y-100724285D01*
X170871904Y-100771904D01*
X170633809Y-100771904D01*
X170538571Y-100724285D01*
X170490952Y-100676666D01*
X170443333Y-100581428D01*
X170443333Y-100390952D01*
X170490952Y-100295714D01*
X170538571Y-100248095D01*
X170633809Y-100200476D01*
X171912857Y-102117142D02*
X171960476Y-102164761D01*
X172103333Y-102212380D01*
X172198571Y-102212380D01*
X172341428Y-102164761D01*
X172436666Y-102069523D01*
X172484285Y-101974285D01*
X172531904Y-101783809D01*
X172531904Y-101640952D01*
X172484285Y-101450476D01*
X172436666Y-101355238D01*
X172341428Y-101260000D01*
X172198571Y-101212380D01*
X172103333Y-101212380D01*
X171960476Y-101260000D01*
X171912857Y-101307619D01*
X171531904Y-101307619D02*
X171484285Y-101260000D01*
X171389047Y-101212380D01*
X171150952Y-101212380D01*
X171055714Y-101260000D01*
X171008095Y-101307619D01*
X170960476Y-101402857D01*
X170960476Y-101498095D01*
X171008095Y-101640952D01*
X171579523Y-102212380D01*
X170960476Y-102212380D01*
X170055714Y-101212380D02*
X170531904Y-101212380D01*
X170579523Y-101688571D01*
X170531904Y-101640952D01*
X170436666Y-101593333D01*
X170198571Y-101593333D01*
X170103333Y-101640952D01*
X170055714Y-101688571D01*
X170008095Y-101783809D01*
X170008095Y-102021904D01*
X170055714Y-102117142D01*
X170103333Y-102164761D01*
X170198571Y-102212380D01*
X170436666Y-102212380D01*
X170531904Y-102164761D01*
X170579523Y-102117142D01*
X172002857Y-108847142D02*
X172050476Y-108894761D01*
X172193333Y-108942380D01*
X172288571Y-108942380D01*
X172431428Y-108894761D01*
X172526666Y-108799523D01*
X172574285Y-108704285D01*
X172621904Y-108513809D01*
X172621904Y-108370952D01*
X172574285Y-108180476D01*
X172526666Y-108085238D01*
X172431428Y-107990000D01*
X172288571Y-107942380D01*
X172193333Y-107942380D01*
X172050476Y-107990000D01*
X172002857Y-108037619D01*
X171621904Y-108037619D02*
X171574285Y-107990000D01*
X171479047Y-107942380D01*
X171240952Y-107942380D01*
X171145714Y-107990000D01*
X171098095Y-108037619D01*
X171050476Y-108132857D01*
X171050476Y-108228095D01*
X171098095Y-108370952D01*
X171669523Y-108942380D01*
X171050476Y-108942380D01*
X170193333Y-108275714D02*
X170193333Y-108942380D01*
X170431428Y-107894761D02*
X170669523Y-108609047D01*
X170050476Y-108609047D01*
X160292857Y-89497142D02*
X160340476Y-89544761D01*
X160483333Y-89592380D01*
X160578571Y-89592380D01*
X160721428Y-89544761D01*
X160816666Y-89449523D01*
X160864285Y-89354285D01*
X160911904Y-89163809D01*
X160911904Y-89020952D01*
X160864285Y-88830476D01*
X160816666Y-88735238D01*
X160721428Y-88640000D01*
X160578571Y-88592380D01*
X160483333Y-88592380D01*
X160340476Y-88640000D01*
X160292857Y-88687619D01*
X159911904Y-88687619D02*
X159864285Y-88640000D01*
X159769047Y-88592380D01*
X159530952Y-88592380D01*
X159435714Y-88640000D01*
X159388095Y-88687619D01*
X159340476Y-88782857D01*
X159340476Y-88878095D01*
X159388095Y-89020952D01*
X159959523Y-89592380D01*
X159340476Y-89592380D01*
X158388095Y-89592380D02*
X158959523Y-89592380D01*
X158673809Y-89592380D02*
X158673809Y-88592380D01*
X158769047Y-88735238D01*
X158864285Y-88830476D01*
X158959523Y-88878095D01*
X164892857Y-97357142D02*
X164940476Y-97404761D01*
X165083333Y-97452380D01*
X165178571Y-97452380D01*
X165321428Y-97404761D01*
X165416666Y-97309523D01*
X165464285Y-97214285D01*
X165511904Y-97023809D01*
X165511904Y-96880952D01*
X165464285Y-96690476D01*
X165416666Y-96595238D01*
X165321428Y-96500000D01*
X165178571Y-96452380D01*
X165083333Y-96452380D01*
X164940476Y-96500000D01*
X164892857Y-96547619D01*
X164511904Y-96547619D02*
X164464285Y-96500000D01*
X164369047Y-96452380D01*
X164130952Y-96452380D01*
X164035714Y-96500000D01*
X163988095Y-96547619D01*
X163940476Y-96642857D01*
X163940476Y-96738095D01*
X163988095Y-96880952D01*
X164559523Y-97452380D01*
X163940476Y-97452380D01*
X163321428Y-96452380D02*
X163226190Y-96452380D01*
X163130952Y-96500000D01*
X163083333Y-96547619D01*
X163035714Y-96642857D01*
X162988095Y-96833333D01*
X162988095Y-97071428D01*
X163035714Y-97261904D01*
X163083333Y-97357142D01*
X163130952Y-97404761D01*
X163226190Y-97452380D01*
X163321428Y-97452380D01*
X163416666Y-97404761D01*
X163464285Y-97357142D01*
X163511904Y-97261904D01*
X163559523Y-97071428D01*
X163559523Y-96833333D01*
X163511904Y-96642857D01*
X163464285Y-96547619D01*
X163416666Y-96500000D01*
X163321428Y-96452380D01*
X161162857Y-102127142D02*
X161210476Y-102174761D01*
X161353333Y-102222380D01*
X161448571Y-102222380D01*
X161591428Y-102174761D01*
X161686666Y-102079523D01*
X161734285Y-101984285D01*
X161781904Y-101793809D01*
X161781904Y-101650952D01*
X161734285Y-101460476D01*
X161686666Y-101365238D01*
X161591428Y-101270000D01*
X161448571Y-101222380D01*
X161353333Y-101222380D01*
X161210476Y-101270000D01*
X161162857Y-101317619D01*
X160210476Y-102222380D02*
X160781904Y-102222380D01*
X160496190Y-102222380D02*
X160496190Y-101222380D01*
X160591428Y-101365238D01*
X160686666Y-101460476D01*
X160781904Y-101508095D01*
X159734285Y-102222380D02*
X159543809Y-102222380D01*
X159448571Y-102174761D01*
X159400952Y-102127142D01*
X159305714Y-101984285D01*
X159258095Y-101793809D01*
X159258095Y-101412857D01*
X159305714Y-101317619D01*
X159353333Y-101270000D01*
X159448571Y-101222380D01*
X159639047Y-101222380D01*
X159734285Y-101270000D01*
X159781904Y-101317619D01*
X159829523Y-101412857D01*
X159829523Y-101650952D01*
X159781904Y-101746190D01*
X159734285Y-101793809D01*
X159639047Y-101841428D01*
X159448571Y-101841428D01*
X159353333Y-101793809D01*
X159305714Y-101746190D01*
X159258095Y-101650952D01*
X162912857Y-110427142D02*
X162960476Y-110474761D01*
X163103333Y-110522380D01*
X163198571Y-110522380D01*
X163341428Y-110474761D01*
X163436666Y-110379523D01*
X163484285Y-110284285D01*
X163531904Y-110093809D01*
X163531904Y-109950952D01*
X163484285Y-109760476D01*
X163436666Y-109665238D01*
X163341428Y-109570000D01*
X163198571Y-109522380D01*
X163103333Y-109522380D01*
X162960476Y-109570000D01*
X162912857Y-109617619D01*
X161960476Y-110522380D02*
X162531904Y-110522380D01*
X162246190Y-110522380D02*
X162246190Y-109522380D01*
X162341428Y-109665238D01*
X162436666Y-109760476D01*
X162531904Y-109808095D01*
X161389047Y-109950952D02*
X161484285Y-109903333D01*
X161531904Y-109855714D01*
X161579523Y-109760476D01*
X161579523Y-109712857D01*
X161531904Y-109617619D01*
X161484285Y-109570000D01*
X161389047Y-109522380D01*
X161198571Y-109522380D01*
X161103333Y-109570000D01*
X161055714Y-109617619D01*
X161008095Y-109712857D01*
X161008095Y-109760476D01*
X161055714Y-109855714D01*
X161103333Y-109903333D01*
X161198571Y-109950952D01*
X161389047Y-109950952D01*
X161484285Y-109998571D01*
X161531904Y-110046190D01*
X161579523Y-110141428D01*
X161579523Y-110331904D01*
X161531904Y-110427142D01*
X161484285Y-110474761D01*
X161389047Y-110522380D01*
X161198571Y-110522380D01*
X161103333Y-110474761D01*
X161055714Y-110427142D01*
X161008095Y-110331904D01*
X161008095Y-110141428D01*
X161055714Y-110046190D01*
X161103333Y-109998571D01*
X161198571Y-109950952D01*
X180743142Y-96557142D02*
X180790761Y-96509523D01*
X180838380Y-96366666D01*
X180838380Y-96271428D01*
X180790761Y-96128571D01*
X180695523Y-96033333D01*
X180600285Y-95985714D01*
X180409809Y-95938095D01*
X180266952Y-95938095D01*
X180076476Y-95985714D01*
X179981238Y-96033333D01*
X179886000Y-96128571D01*
X179838380Y-96271428D01*
X179838380Y-96366666D01*
X179886000Y-96509523D01*
X179933619Y-96557142D01*
X180838380Y-97509523D02*
X180838380Y-96938095D01*
X180838380Y-97223809D02*
X179838380Y-97223809D01*
X179981238Y-97128571D01*
X180076476Y-97033333D01*
X180124095Y-96938095D01*
X179838380Y-98366666D02*
X179838380Y-98176190D01*
X179886000Y-98080952D01*
X179933619Y-98033333D01*
X180076476Y-97938095D01*
X180266952Y-97890476D01*
X180647904Y-97890476D01*
X180743142Y-97938095D01*
X180790761Y-97985714D01*
X180838380Y-98080952D01*
X180838380Y-98271428D01*
X180790761Y-98366666D01*
X180743142Y-98414285D01*
X180647904Y-98461904D01*
X180409809Y-98461904D01*
X180314571Y-98414285D01*
X180266952Y-98366666D01*
X180219333Y-98271428D01*
X180219333Y-98080952D01*
X180266952Y-97985714D01*
X180314571Y-97938095D01*
X180409809Y-97890476D01*
X176123142Y-96547142D02*
X176170761Y-96499523D01*
X176218380Y-96356666D01*
X176218380Y-96261428D01*
X176170761Y-96118571D01*
X176075523Y-96023333D01*
X175980285Y-95975714D01*
X175789809Y-95928095D01*
X175646952Y-95928095D01*
X175456476Y-95975714D01*
X175361238Y-96023333D01*
X175266000Y-96118571D01*
X175218380Y-96261428D01*
X175218380Y-96356666D01*
X175266000Y-96499523D01*
X175313619Y-96547142D01*
X176218380Y-97499523D02*
X176218380Y-96928095D01*
X176218380Y-97213809D02*
X175218380Y-97213809D01*
X175361238Y-97118571D01*
X175456476Y-97023333D01*
X175504095Y-96928095D01*
X175218380Y-98404285D02*
X175218380Y-97928095D01*
X175694571Y-97880476D01*
X175646952Y-97928095D01*
X175599333Y-98023333D01*
X175599333Y-98261428D01*
X175646952Y-98356666D01*
X175694571Y-98404285D01*
X175789809Y-98451904D01*
X176027904Y-98451904D01*
X176123142Y-98404285D01*
X176170761Y-98356666D01*
X176218380Y-98261428D01*
X176218380Y-98023333D01*
X176170761Y-97928095D01*
X176123142Y-97880476D01*
X133087142Y-89157142D02*
X133134761Y-89109523D01*
X133182380Y-88966666D01*
X133182380Y-88871428D01*
X133134761Y-88728571D01*
X133039523Y-88633333D01*
X132944285Y-88585714D01*
X132753809Y-88538095D01*
X132610952Y-88538095D01*
X132420476Y-88585714D01*
X132325238Y-88633333D01*
X132230000Y-88728571D01*
X132182380Y-88871428D01*
X132182380Y-88966666D01*
X132230000Y-89109523D01*
X132277619Y-89157142D01*
X133182380Y-90109523D02*
X133182380Y-89538095D01*
X133182380Y-89823809D02*
X132182380Y-89823809D01*
X132325238Y-89728571D01*
X132420476Y-89633333D01*
X132468095Y-89538095D01*
X132182380Y-90442857D02*
X132182380Y-91061904D01*
X132563333Y-90728571D01*
X132563333Y-90871428D01*
X132610952Y-90966666D01*
X132658571Y-91014285D01*
X132753809Y-91061904D01*
X132991904Y-91061904D01*
X133087142Y-91014285D01*
X133134761Y-90966666D01*
X133182380Y-90871428D01*
X133182380Y-90585714D01*
X133134761Y-90490476D01*
X133087142Y-90442857D01*
X186057142Y-103747142D02*
X186104761Y-103699523D01*
X186152380Y-103556666D01*
X186152380Y-103461428D01*
X186104761Y-103318571D01*
X186009523Y-103223333D01*
X185914285Y-103175714D01*
X185723809Y-103128095D01*
X185580952Y-103128095D01*
X185390476Y-103175714D01*
X185295238Y-103223333D01*
X185200000Y-103318571D01*
X185152380Y-103461428D01*
X185152380Y-103556666D01*
X185200000Y-103699523D01*
X185247619Y-103747142D01*
X186152380Y-104699523D02*
X186152380Y-104128095D01*
X186152380Y-104413809D02*
X185152380Y-104413809D01*
X185295238Y-104318571D01*
X185390476Y-104223333D01*
X185438095Y-104128095D01*
X185247619Y-105080476D02*
X185200000Y-105128095D01*
X185152380Y-105223333D01*
X185152380Y-105461428D01*
X185200000Y-105556666D01*
X185247619Y-105604285D01*
X185342857Y-105651904D01*
X185438095Y-105651904D01*
X185580952Y-105604285D01*
X186152380Y-105032857D01*
X186152380Y-105651904D01*
X185827142Y-85963333D02*
X185874761Y-85915714D01*
X185922380Y-85772857D01*
X185922380Y-85677619D01*
X185874761Y-85534761D01*
X185779523Y-85439523D01*
X185684285Y-85391904D01*
X185493809Y-85344285D01*
X185350952Y-85344285D01*
X185160476Y-85391904D01*
X185065238Y-85439523D01*
X184970000Y-85534761D01*
X184922380Y-85677619D01*
X184922380Y-85772857D01*
X184970000Y-85915714D01*
X185017619Y-85963333D01*
X184922380Y-86820476D02*
X184922380Y-86630000D01*
X184970000Y-86534761D01*
X185017619Y-86487142D01*
X185160476Y-86391904D01*
X185350952Y-86344285D01*
X185731904Y-86344285D01*
X185827142Y-86391904D01*
X185874761Y-86439523D01*
X185922380Y-86534761D01*
X185922380Y-86725238D01*
X185874761Y-86820476D01*
X185827142Y-86868095D01*
X185731904Y-86915714D01*
X185493809Y-86915714D01*
X185398571Y-86868095D01*
X185350952Y-86820476D01*
X185303333Y-86725238D01*
X185303333Y-86534761D01*
X185350952Y-86439523D01*
X185398571Y-86391904D01*
X185493809Y-86344285D01*
X182166666Y-88417142D02*
X182214285Y-88464761D01*
X182357142Y-88512380D01*
X182452380Y-88512380D01*
X182595238Y-88464761D01*
X182690476Y-88369523D01*
X182738095Y-88274285D01*
X182785714Y-88083809D01*
X182785714Y-87940952D01*
X182738095Y-87750476D01*
X182690476Y-87655238D01*
X182595238Y-87560000D01*
X182452380Y-87512380D01*
X182357142Y-87512380D01*
X182214285Y-87560000D01*
X182166666Y-87607619D01*
X181261904Y-87512380D02*
X181738095Y-87512380D01*
X181785714Y-87988571D01*
X181738095Y-87940952D01*
X181642857Y-87893333D01*
X181404761Y-87893333D01*
X181309523Y-87940952D01*
X181261904Y-87988571D01*
X181214285Y-88083809D01*
X181214285Y-88321904D01*
X181261904Y-88417142D01*
X181309523Y-88464761D01*
X181404761Y-88512380D01*
X181642857Y-88512380D01*
X181738095Y-88464761D01*
X181785714Y-88417142D01*
X167606666Y-89007142D02*
X167654285Y-89054761D01*
X167797142Y-89102380D01*
X167892380Y-89102380D01*
X168035238Y-89054761D01*
X168130476Y-88959523D01*
X168178095Y-88864285D01*
X168225714Y-88673809D01*
X168225714Y-88530952D01*
X168178095Y-88340476D01*
X168130476Y-88245238D01*
X168035238Y-88150000D01*
X167892380Y-88102380D01*
X167797142Y-88102380D01*
X167654285Y-88150000D01*
X167606666Y-88197619D01*
X166749523Y-88435714D02*
X166749523Y-89102380D01*
X166987619Y-88054761D02*
X167225714Y-88769047D01*
X166606666Y-88769047D01*
X171257142Y-85443333D02*
X171304761Y-85395714D01*
X171352380Y-85252857D01*
X171352380Y-85157619D01*
X171304761Y-85014761D01*
X171209523Y-84919523D01*
X171114285Y-84871904D01*
X170923809Y-84824285D01*
X170780952Y-84824285D01*
X170590476Y-84871904D01*
X170495238Y-84919523D01*
X170400000Y-85014761D01*
X170352380Y-85157619D01*
X170352380Y-85252857D01*
X170400000Y-85395714D01*
X170447619Y-85443333D01*
X170352380Y-85776666D02*
X170352380Y-86395714D01*
X170733333Y-86062380D01*
X170733333Y-86205238D01*
X170780952Y-86300476D01*
X170828571Y-86348095D01*
X170923809Y-86395714D01*
X171161904Y-86395714D01*
X171257142Y-86348095D01*
X171304761Y-86300476D01*
X171352380Y-86205238D01*
X171352380Y-85919523D01*
X171304761Y-85824285D01*
X171257142Y-85776666D01*
X153986666Y-89077142D02*
X154034285Y-89124761D01*
X154177142Y-89172380D01*
X154272380Y-89172380D01*
X154415238Y-89124761D01*
X154510476Y-89029523D01*
X154558095Y-88934285D01*
X154605714Y-88743809D01*
X154605714Y-88600952D01*
X154558095Y-88410476D01*
X154510476Y-88315238D01*
X154415238Y-88220000D01*
X154272380Y-88172380D01*
X154177142Y-88172380D01*
X154034285Y-88220000D01*
X153986666Y-88267619D01*
X153605714Y-88267619D02*
X153558095Y-88220000D01*
X153462857Y-88172380D01*
X153224761Y-88172380D01*
X153129523Y-88220000D01*
X153081904Y-88267619D01*
X153034285Y-88362857D01*
X153034285Y-88458095D01*
X153081904Y-88600952D01*
X153653333Y-89172380D01*
X153034285Y-89172380D01*
X151966666Y-89427142D02*
X152014285Y-89474761D01*
X152157142Y-89522380D01*
X152252380Y-89522380D01*
X152395238Y-89474761D01*
X152490476Y-89379523D01*
X152538095Y-89284285D01*
X152585714Y-89093809D01*
X152585714Y-88950952D01*
X152538095Y-88760476D01*
X152490476Y-88665238D01*
X152395238Y-88570000D01*
X152252380Y-88522380D01*
X152157142Y-88522380D01*
X152014285Y-88570000D01*
X151966666Y-88617619D01*
X151014285Y-89522380D02*
X151585714Y-89522380D01*
X151300000Y-89522380D02*
X151300000Y-88522380D01*
X151395238Y-88665238D01*
X151490476Y-88760476D01*
X151585714Y-88808095D01*
M02*
