M48
; DRILL file {KiCad 5.1.4-e60b266~84~ubuntu18.04.1} date Tue 01 Oct 2019 18:03:48 MSK
; FORMAT={-:-/ absolute / inch / decimal}
; #@! TF.CreationDate,2019-10-01T18:03:48+03:00
; #@! TF.GenerationSoftware,Kicad,Pcbnew,5.1.4-e60b266~84~ubuntu18.04.1
; #@! TF.FileFunction,Plated,1,2,PTH
FMAT,2
INCH
T1C0.0150
T2C0.0197
T3C0.0200
T4C0.0362
T5C0.0394
T6C0.0421
T7C0.0472
T8C0.0917
T9C0.1260
%
G90
G05
T1
X3.9953Y-4.5803
X4.1232Y-4.7354
X4.1858Y-4.763
X4.2205Y-4.7358
X4.2528Y-4.7622
X4.289Y-4.7358
X4.3205Y-4.2799
X4.3547Y-4.2461
X4.3878Y-4.2787
X4.5394Y-4.1339
X4.6276Y-4.0835
X4.7756Y-4.2402
X4.8327Y-4.2402
X4.9488Y-4.0394
X4.9488Y-4.1024
X4.9661Y-3.0965
X4.9843Y-4.0728
X5.0059Y-4.4409
X5.0472Y-3.624
X5.0787Y-3.6516
X5.0827Y-3.4213
X5.1083Y-4.3248
X5.1122Y-2.4921
X5.1142Y-3.5807
X5.1417Y-2.4646
X5.1437Y-3.0972
X5.1437Y-4.2933
X5.1551Y-3.9114
X5.1575Y-4.0217
X5.1713Y-2.4921
X5.1811Y-4.3248
X5.1831Y-3.8854
X5.1909Y-3.998
X5.2205Y-4.2933
X5.2807Y-3.235
X5.2807Y-3.3331
X5.3012Y-4.2953
X5.3043Y-3.5205
X5.3047Y-3.4583
X5.3146Y-2.4634
X5.3386Y-4.3248
X5.3716Y-4.2953
X5.3858Y-4.0354
X5.3858Y-4.0728
X5.3858Y-4.1102
X5.3874Y-3.672
X5.3913Y-3.2933
X5.4374Y-4.2748
X5.4665Y-2.9567
X5.5118Y-4.2752
X5.5817Y-3.1866
X5.5827Y-3.2441
X5.5933Y-3.6713
X5.6091Y-2.4657
X5.6161Y-3.2146
X5.6181Y-3.1535
X5.6378Y-2.7559
X5.6449Y-3.3354
X5.6752Y-2.7264
X5.7209Y-3.3902
X5.7217Y-2.9571
X5.7268Y-2.6476
X5.728Y-2.4642
X5.7402Y-2.7559
X5.7417Y-3.102
X5.7778Y-3.1277
X5.778Y-2.7445
X5.7858Y-3.9067
X5.7862Y-4.2748
X5.7925Y-2.5724
X5.8705Y-3.515
X5.8824Y-4.221
X5.8846Y-3.9055
X5.8866Y-4.6287
X5.8906Y-3.7122
X5.8996Y-3.4878
X5.9583Y-4.026
X5.9638Y-3.4661
X5.9862Y-3.998
X5.9949Y-3.0508
X6.0016Y-2.9575
X6.0064Y-3.5787
X6.0528Y-3.2935
X6.0684Y-3.5812
X6.0913Y-3.2957
X6.094Y-4.2214
X6.0949Y-4.0256
X6.1185Y-3.748
X6.1236Y-3.3382
X6.1236Y-3.4232
X6.1335Y-2.5315
X6.1437Y-3.5807
X6.1449Y-2.4654
X6.1457Y-2.6472
X6.1937Y-3.3004
X6.2071Y-3.5823
X6.2555Y-3.9114
X6.298Y-3.9236
X6.3398Y-4.1776
X6.3563Y-3.5035
X6.3783Y-2.6476
X6.3795Y-3.0504
X6.4024Y-4.0504
X6.4035Y-3.75
X6.4571Y-4.3224
X6.468Y-3.7505
X6.4776Y-3.4591
X6.4783Y-3.3902
X6.4783Y-4.0512
X6.5067Y-3.5079
X6.515Y-3.3004
X6.5217Y-4.3504
X6.5315Y-3.75
X6.5327Y-3.9791
X6.5331Y-4.0496
X6.5488Y-4.3846
X6.5591Y-4.2339
X6.5886Y-4.0492
X6.6063Y-3.75
X6.6193Y-3.3024
X6.624Y-3.9173
X6.635Y-3.1327
X6.6354Y-4.3504
X6.639Y-2.9575
X6.6575Y-3.5528
X6.6614Y-3.7098
X6.6642Y-3.1063
X6.6642Y-4.0472
X6.6717Y-4.3846
X6.6791Y-2.4642
X6.6791Y-2.5394
X6.6807Y-2.6472
X6.6862Y-3.2441
X6.6976Y-2.9965
X6.7114Y-4.813
X6.7409Y-3.7776
X6.765Y-3.0524
X6.7756Y-4.2248
X6.7795Y-3.9496
X6.7878Y-3.8067
X6.8366Y-3.9638
X6.837Y-4.015
X6.8398Y-3.05
X6.9118Y-2.4657
X6.9118Y-2.5398
X6.9126Y-2.6472
X6.913Y-2.7626
X6.9673Y-3.2078
X7.0043Y-3.7417
X7.0138Y-3.1492
X7.0146Y-3.3098
X7.0551Y-3.4606
X7.0783Y-2.5315
X7.1949Y-3.0492
X7.2461Y-3.2988
X7.2783Y-2.724
X7.3Y-3.1925
X7.3098Y-2.6931
X7.3327Y-3.2205
X7.5067Y-3.8406
T2
X4.2964Y-4.556
X4.3241Y-4.4892
X4.3241Y-4.6228
X4.3909Y-4.4615
X4.3909Y-4.6505
X4.4577Y-4.4892
X4.4577Y-4.6228
X4.4854Y-4.556
X7.4086Y-4.556
X7.4363Y-4.4892
X7.4363Y-4.6228
X7.5031Y-4.4615
X7.5031Y-4.6505
X7.57Y-4.4892
X7.57Y-4.6228
X7.5976Y-4.556
X7.4086Y-2.8784
X7.4363Y-2.8116
X7.4363Y-2.9452
X7.5031Y-2.7839
X7.5031Y-2.9729
X7.57Y-2.8116
X7.57Y-2.9452
X7.5976Y-2.8784
X4.2964Y-2.8784
X4.3241Y-2.8116
X4.3241Y-2.9452
X4.3909Y-2.7839
X4.3909Y-2.9729
X4.4577Y-2.8116
X4.4577Y-2.9452
X4.4854Y-2.8784
T3
X4.0732Y-4.6264
X4.0764Y-4.0831
X4.0768Y-4.2795
X4.0823Y-3.3315
X4.1602Y-2.7437
X4.2642Y-3.4913
X4.2724Y-4.9858
X4.3642Y-4.8661
X4.3941Y-2.4618
X4.4969Y-3.865
X4.5299Y-3.4224
X4.5394Y-3.6681
X4.5685Y-3.0335
X4.626Y-3.9016
X4.626Y-4.0197
X4.6421Y-3.422
X4.7024Y-4.6264
X4.7039Y-4.9858
X4.7972Y-4.8685
X4.8835Y-2.4614
X4.961Y-3.6929
X4.9661Y-3.2886
X5.0059Y-3.8661
X5.0067Y-3.9563
X5.1823Y-4.6248
X5.3402Y-4.9843
X5.3752Y-3.7843
X5.6079Y-3.3909
X5.8157Y-2.465
X5.8346Y-3.7933
X5.8346Y-3.8701
X5.8862Y-4.9831
X5.9764Y-3.2988
X5.9902Y-4.5012
X6.0592Y-4.2834
X6.1177Y-3.678
X6.2437Y-3.6709
X6.2783Y-2.9579
X6.3386Y-4.2835
X6.3937Y-4.5008
X6.3996Y-3.5512
X6.4409Y-4.9831
X6.5472Y-4.2835
X6.5764Y-3.298
X6.7866Y-3.2783
X6.8413Y-3.6327
X6.8917Y-4.1874
X6.9476Y-4.7862
X7.1055Y-4.089
X7.1067Y-4.785
X7.1681Y-3.2988
X7.1827Y-3.6882
X7.1831Y-3.5543
X7.213Y-2.4654
X7.3567Y-3.0902
X7.4016Y-3.9449
X7.4683Y-3.9443
X7.5008Y-4.9831
X7.5035Y-4.289
X7.511Y-3.4618
X7.5126Y-3.0898
X7.7909Y-4.5583
X7.7909Y-4.9831
X7.7929Y-2.4665
X7.7941Y-3.0906
X7.7941Y-3.9744
X7.7945Y-3.4606
T4
X4.8354Y-2.8795
X4.8354Y-2.9583
X4.9339Y-2.8795
X4.9339Y-2.9583
T5
X6.8988Y-4.3803
X5.3386Y-4.5772
X5.3386Y-4.6772
X5.4386Y-4.5772
X5.4386Y-4.6772
X5.5386Y-4.5772
X5.5386Y-4.6772
X5.6386Y-4.5772
X5.6386Y-4.6772
X5.7386Y-4.5772
X5.7386Y-4.6772
X5.8386Y-4.5772
X5.8386Y-4.6772
X5.9386Y-4.5772
X5.9386Y-4.6772
X6.0386Y-4.5772
X6.0386Y-4.6772
X6.1386Y-4.5772
X6.1386Y-4.6772
X6.2386Y-4.5772
X6.2386Y-4.6772
X6.3386Y-4.5772
X6.3386Y-4.6772
X6.4386Y-4.5772
X6.4386Y-4.6772
X5.6067Y-4.1823
X5.7067Y-4.1823
X5.1949Y-3.2579
X4.2626Y-3.9752
X5.6079Y-3.7823
X5.7079Y-3.7823
X4.1402Y-3.4323
X5.6059Y-3.4862
X5.7059Y-3.4862
X5.6067Y-4.074
X5.7067Y-4.074
X5.6059Y-3.5941
X5.7059Y-3.5941
X5.6079Y-3.8902
X5.7079Y-3.8902
X5.0236Y-3.3661
X5.0236Y-3.4661
T6
X6.3783Y-2.8543
X6.4783Y-2.8543
X6.5783Y-2.8543
X6.6783Y-2.8543
X5.3087Y-2.8543
X5.4087Y-2.8543
X5.5087Y-2.8543
X5.6087Y-2.8543
X5.8437Y-2.8543
X5.9437Y-2.8543
X6.0437Y-2.8543
X6.1437Y-2.8543
X6.9114Y-2.8543
X7.0114Y-2.8543
X7.1114Y-2.8543
X7.2114Y-2.8543
T7
X4.0803Y-2.9323
X4.0803Y-3.0323
X4.0803Y-3.1323
X4.0803Y-3.2323
T8
X4.6476Y-2.7728
X5.1217Y-2.7728
T9
X4.3909Y-4.556
X7.5031Y-4.556
X7.5031Y-2.8784
X4.3909Y-2.8784
T0
M30
