G04 #@! TF.GenerationSoftware,KiCad,Pcbnew,5.0.1-33cea8e~66~ubuntu18.04.1*
G04 #@! TF.CreationDate,2018-10-14T22:27:10+03:00*
G04 #@! TF.ProjectId,AA-PI-Radio-Board,41412D50492D526164696F2D426F6172,rev?*
G04 #@! TF.SameCoordinates,Original*
G04 #@! TF.FileFunction,Soldermask,Bot*
G04 #@! TF.FilePolarity,Negative*
%FSLAX46Y46*%
G04 Gerber Fmt 4.6, Leading zero omitted, Abs format (unit mm)*
G04 Created by KiCad (PCBNEW 5.0.1-33cea8e~66~ubuntu18.04.1) date Sun 14 Oct 2018 22:27:10 MSK*
%MOMM*%
%LPD*%
G01*
G04 APERTURE LIST*
%ADD10C,0.100000*%
G04 APERTURE END LIST*
D10*
G36*
X152742323Y-134865060D02*
X152981521Y-134912639D01*
X153281947Y-135037080D01*
X153552324Y-135217740D01*
X153782260Y-135447676D01*
X153962920Y-135718053D01*
X154087361Y-136018479D01*
X154150800Y-136337410D01*
X154150800Y-136662590D01*
X154087361Y-136981521D01*
X153962920Y-137281947D01*
X153782260Y-137552324D01*
X153552324Y-137782260D01*
X153281947Y-137962920D01*
X152981521Y-138087361D01*
X152742323Y-138134940D01*
X152662591Y-138150800D01*
X152337409Y-138150800D01*
X152257677Y-138134940D01*
X152018479Y-138087361D01*
X151718053Y-137962920D01*
X151447676Y-137782260D01*
X151217740Y-137552324D01*
X151037080Y-137281947D01*
X150912639Y-136981521D01*
X150849200Y-136662590D01*
X150849200Y-136337410D01*
X150912639Y-136018479D01*
X151037080Y-135718053D01*
X151217740Y-135447676D01*
X151447676Y-135217740D01*
X151718053Y-135037080D01*
X152018479Y-134912639D01*
X152257677Y-134865060D01*
X152337409Y-134849200D01*
X152662591Y-134849200D01*
X152742323Y-134865060D01*
X152742323Y-134865060D01*
G37*
G36*
X103742323Y-134865060D02*
X103981521Y-134912639D01*
X104281947Y-135037080D01*
X104552324Y-135217740D01*
X104782260Y-135447676D01*
X104962920Y-135718053D01*
X105087361Y-136018479D01*
X105150800Y-136337410D01*
X105150800Y-136662590D01*
X105087361Y-136981521D01*
X104962920Y-137281947D01*
X104782260Y-137552324D01*
X104552324Y-137782260D01*
X104281947Y-137962920D01*
X103981521Y-138087361D01*
X103742323Y-138134940D01*
X103662591Y-138150800D01*
X103337409Y-138150800D01*
X103257677Y-138134940D01*
X103018479Y-138087361D01*
X102718053Y-137962920D01*
X102447676Y-137782260D01*
X102217740Y-137552324D01*
X102037080Y-137281947D01*
X101912639Y-136981521D01*
X101849200Y-136662590D01*
X101849200Y-136337410D01*
X101912639Y-136018479D01*
X102037080Y-135718053D01*
X102217740Y-135447676D01*
X102447676Y-135217740D01*
X102718053Y-135037080D01*
X103018479Y-134912639D01*
X103257677Y-134865060D01*
X103337409Y-134849200D01*
X103662591Y-134849200D01*
X103742323Y-134865060D01*
X103742323Y-134865060D01*
G37*
G36*
X129600800Y-128000800D02*
X127799200Y-128000800D01*
X127799200Y-126199200D01*
X129600800Y-126199200D01*
X129600800Y-128000800D01*
X129600800Y-128000800D01*
G37*
G36*
X133868362Y-126203545D02*
X133956588Y-126212234D01*
X134069789Y-126246573D01*
X134126390Y-126263743D01*
X134264980Y-126337822D01*
X134282879Y-126347389D01*
X134318609Y-126376712D01*
X134420044Y-126459956D01*
X134503288Y-126561391D01*
X134532611Y-126597121D01*
X134532612Y-126597123D01*
X134616257Y-126753610D01*
X134616257Y-126753611D01*
X134667766Y-126923412D01*
X134685158Y-127100000D01*
X134667766Y-127276588D01*
X134633427Y-127389789D01*
X134616257Y-127446390D01*
X134542178Y-127584980D01*
X134532611Y-127602879D01*
X134503288Y-127638609D01*
X134420044Y-127740044D01*
X134318609Y-127823288D01*
X134282879Y-127852611D01*
X134282877Y-127852612D01*
X134126390Y-127936257D01*
X134069789Y-127953427D01*
X133956588Y-127987766D01*
X133868362Y-127996455D01*
X133824250Y-128000800D01*
X133735750Y-128000800D01*
X133691638Y-127996455D01*
X133603412Y-127987766D01*
X133490211Y-127953427D01*
X133433610Y-127936257D01*
X133277123Y-127852612D01*
X133277121Y-127852611D01*
X133241391Y-127823288D01*
X133139956Y-127740044D01*
X133056712Y-127638609D01*
X133027389Y-127602879D01*
X133017822Y-127584980D01*
X132943743Y-127446390D01*
X132926573Y-127389789D01*
X132892234Y-127276588D01*
X132874842Y-127100000D01*
X132892234Y-126923412D01*
X132943743Y-126753611D01*
X132943743Y-126753610D01*
X133027388Y-126597123D01*
X133027389Y-126597121D01*
X133056712Y-126561391D01*
X133139956Y-126459956D01*
X133241391Y-126376712D01*
X133277121Y-126347389D01*
X133295020Y-126337822D01*
X133433610Y-126263743D01*
X133490211Y-126246573D01*
X133603412Y-126212234D01*
X133691638Y-126203545D01*
X133735750Y-126199200D01*
X133824250Y-126199200D01*
X133868362Y-126203545D01*
X133868362Y-126203545D01*
G37*
G36*
X131328362Y-126203545D02*
X131416588Y-126212234D01*
X131529789Y-126246573D01*
X131586390Y-126263743D01*
X131724980Y-126337822D01*
X131742879Y-126347389D01*
X131778609Y-126376712D01*
X131880044Y-126459956D01*
X131963288Y-126561391D01*
X131992611Y-126597121D01*
X131992612Y-126597123D01*
X132076257Y-126753610D01*
X132076257Y-126753611D01*
X132127766Y-126923412D01*
X132145158Y-127100000D01*
X132127766Y-127276588D01*
X132093427Y-127389789D01*
X132076257Y-127446390D01*
X132002178Y-127584980D01*
X131992611Y-127602879D01*
X131963288Y-127638609D01*
X131880044Y-127740044D01*
X131778609Y-127823288D01*
X131742879Y-127852611D01*
X131742877Y-127852612D01*
X131586390Y-127936257D01*
X131529789Y-127953427D01*
X131416588Y-127987766D01*
X131328362Y-127996455D01*
X131284250Y-128000800D01*
X131195750Y-128000800D01*
X131151638Y-127996455D01*
X131063412Y-127987766D01*
X130950211Y-127953427D01*
X130893610Y-127936257D01*
X130737123Y-127852612D01*
X130737121Y-127852611D01*
X130701391Y-127823288D01*
X130599956Y-127740044D01*
X130516712Y-127638609D01*
X130487389Y-127602879D01*
X130477822Y-127584980D01*
X130403743Y-127446390D01*
X130386573Y-127389789D01*
X130352234Y-127276588D01*
X130334842Y-127100000D01*
X130352234Y-126923412D01*
X130403743Y-126753611D01*
X130403743Y-126753610D01*
X130487388Y-126597123D01*
X130487389Y-126597121D01*
X130516712Y-126561391D01*
X130599956Y-126459956D01*
X130701391Y-126376712D01*
X130737121Y-126347389D01*
X130755020Y-126337822D01*
X130893610Y-126263743D01*
X130950211Y-126246573D01*
X131063412Y-126212234D01*
X131151638Y-126203545D01*
X131195750Y-126199200D01*
X131284250Y-126199200D01*
X131328362Y-126203545D01*
X131328362Y-126203545D01*
G37*
G36*
X108122466Y-85616385D02*
X108165665Y-85624978D01*
X108276290Y-85670800D01*
X108287743Y-85675544D01*
X108397613Y-85748957D01*
X108491043Y-85842387D01*
X108564456Y-85952257D01*
X108615022Y-86074336D01*
X108640800Y-86203930D01*
X108640800Y-86336070D01*
X108615022Y-86465664D01*
X108564456Y-86587743D01*
X108491043Y-86697613D01*
X108397613Y-86791043D01*
X108397610Y-86791045D01*
X108287743Y-86864456D01*
X108165665Y-86915022D01*
X108122466Y-86923615D01*
X108036070Y-86940800D01*
X107903930Y-86940800D01*
X107817534Y-86923615D01*
X107774335Y-86915022D01*
X107652257Y-86864456D01*
X107542390Y-86791045D01*
X107542387Y-86791043D01*
X107448957Y-86697613D01*
X107375544Y-86587743D01*
X107324978Y-86465664D01*
X107299200Y-86336070D01*
X107299200Y-86203930D01*
X107324978Y-86074336D01*
X107375544Y-85952257D01*
X107448957Y-85842387D01*
X107542387Y-85748957D01*
X107652257Y-85675544D01*
X107663710Y-85670800D01*
X107774335Y-85624978D01*
X107817534Y-85616385D01*
X107903930Y-85599200D01*
X108036070Y-85599200D01*
X108122466Y-85616385D01*
X108122466Y-85616385D01*
G37*
G36*
X105582466Y-85616385D02*
X105625665Y-85624978D01*
X105736290Y-85670800D01*
X105747743Y-85675544D01*
X105857613Y-85748957D01*
X105951043Y-85842387D01*
X106024456Y-85952257D01*
X106075022Y-86074336D01*
X106100800Y-86203930D01*
X106100800Y-86336070D01*
X106075022Y-86465664D01*
X106024456Y-86587743D01*
X105951043Y-86697613D01*
X105857613Y-86791043D01*
X105857610Y-86791045D01*
X105747743Y-86864456D01*
X105625665Y-86915022D01*
X105582466Y-86923615D01*
X105496070Y-86940800D01*
X105363930Y-86940800D01*
X105277534Y-86923615D01*
X105234335Y-86915022D01*
X105112257Y-86864456D01*
X105002390Y-86791045D01*
X105002387Y-86791043D01*
X104908957Y-86697613D01*
X104835544Y-86587743D01*
X104784978Y-86465664D01*
X104759200Y-86336070D01*
X104759200Y-86203930D01*
X104784978Y-86074336D01*
X104835544Y-85952257D01*
X104908957Y-85842387D01*
X105002387Y-85748957D01*
X105112257Y-85675544D01*
X105123710Y-85670800D01*
X105234335Y-85624978D01*
X105277534Y-85616385D01*
X105363930Y-85599200D01*
X105496070Y-85599200D01*
X105582466Y-85616385D01*
X105582466Y-85616385D01*
G37*
G36*
X106852466Y-84346385D02*
X106895665Y-84354978D01*
X107006290Y-84400800D01*
X107017743Y-84405544D01*
X107127613Y-84478957D01*
X107221043Y-84572387D01*
X107294456Y-84682257D01*
X107345022Y-84804336D01*
X107370800Y-84933930D01*
X107370800Y-85066070D01*
X107345022Y-85195664D01*
X107294456Y-85317743D01*
X107221043Y-85427613D01*
X107127613Y-85521043D01*
X107127610Y-85521045D01*
X107017743Y-85594456D01*
X106895665Y-85645022D01*
X106852466Y-85653615D01*
X106766070Y-85670800D01*
X106633930Y-85670800D01*
X106547534Y-85653615D01*
X106504335Y-85645022D01*
X106382257Y-85594456D01*
X106272390Y-85521045D01*
X106272387Y-85521043D01*
X106178957Y-85427613D01*
X106105544Y-85317743D01*
X106054978Y-85195664D01*
X106029200Y-85066070D01*
X106029200Y-84933930D01*
X106054978Y-84804336D01*
X106105544Y-84682257D01*
X106178957Y-84572387D01*
X106272387Y-84478957D01*
X106382257Y-84405544D01*
X106393710Y-84400800D01*
X106504335Y-84354978D01*
X106547534Y-84346385D01*
X106633930Y-84329200D01*
X106766070Y-84329200D01*
X106852466Y-84346385D01*
X106852466Y-84346385D01*
G37*
G36*
X147550800Y-84450800D02*
X145749200Y-84450800D01*
X145749200Y-82649200D01*
X147550800Y-82649200D01*
X147550800Y-84450800D01*
X147550800Y-84450800D01*
G37*
G36*
X143950800Y-84450800D02*
X142149200Y-84450800D01*
X142149200Y-82649200D01*
X143950800Y-82649200D01*
X143950800Y-84450800D01*
X143950800Y-84450800D01*
G37*
G36*
X108122466Y-83076385D02*
X108165665Y-83084978D01*
X108287743Y-83135544D01*
X108397613Y-83208957D01*
X108491043Y-83302387D01*
X108564456Y-83412257D01*
X108615022Y-83534336D01*
X108640800Y-83663930D01*
X108640800Y-83796070D01*
X108615022Y-83925664D01*
X108564456Y-84047743D01*
X108491043Y-84157613D01*
X108397613Y-84251043D01*
X108397610Y-84251045D01*
X108287743Y-84324456D01*
X108165665Y-84375022D01*
X108122466Y-84383615D01*
X108036070Y-84400800D01*
X107903930Y-84400800D01*
X107817534Y-84383615D01*
X107774335Y-84375022D01*
X107652257Y-84324456D01*
X107542390Y-84251045D01*
X107542387Y-84251043D01*
X107448957Y-84157613D01*
X107375544Y-84047743D01*
X107324978Y-83925664D01*
X107299200Y-83796070D01*
X107299200Y-83663930D01*
X107324978Y-83534336D01*
X107375544Y-83412257D01*
X107448957Y-83302387D01*
X107542387Y-83208957D01*
X107652257Y-83135544D01*
X107774335Y-83084978D01*
X107817534Y-83076385D01*
X107903930Y-83059200D01*
X108036070Y-83059200D01*
X108122466Y-83076385D01*
X108122466Y-83076385D01*
G37*
G36*
X105582466Y-83076385D02*
X105625665Y-83084978D01*
X105747743Y-83135544D01*
X105857613Y-83208957D01*
X105951043Y-83302387D01*
X106024456Y-83412257D01*
X106075022Y-83534336D01*
X106100800Y-83663930D01*
X106100800Y-83796070D01*
X106075022Y-83925664D01*
X106024456Y-84047743D01*
X105951043Y-84157613D01*
X105857613Y-84251043D01*
X105857610Y-84251045D01*
X105747743Y-84324456D01*
X105625665Y-84375022D01*
X105582466Y-84383615D01*
X105496070Y-84400800D01*
X105363930Y-84400800D01*
X105277534Y-84383615D01*
X105234335Y-84375022D01*
X105112257Y-84324456D01*
X105002390Y-84251045D01*
X105002387Y-84251043D01*
X104908957Y-84157613D01*
X104835544Y-84047743D01*
X104784978Y-83925664D01*
X104759200Y-83796070D01*
X104759200Y-83663930D01*
X104784978Y-83534336D01*
X104835544Y-83412257D01*
X104908957Y-83302387D01*
X105002387Y-83208957D01*
X105112257Y-83135544D01*
X105234335Y-83084978D01*
X105277534Y-83076385D01*
X105363930Y-83059200D01*
X105496070Y-83059200D01*
X105582466Y-83076385D01*
X105582466Y-83076385D01*
G37*
G36*
X133032466Y-82716385D02*
X133075665Y-82724978D01*
X133144043Y-82753301D01*
X133197743Y-82775544D01*
X133307613Y-82848957D01*
X133401043Y-82942387D01*
X133474456Y-83052257D01*
X133525022Y-83174336D01*
X133550800Y-83303930D01*
X133550800Y-83436070D01*
X133525022Y-83565664D01*
X133474456Y-83687743D01*
X133401043Y-83797613D01*
X133307613Y-83891043D01*
X133307610Y-83891045D01*
X133197743Y-83964456D01*
X133075665Y-84015022D01*
X133032466Y-84023615D01*
X132946070Y-84040800D01*
X132813930Y-84040800D01*
X132727534Y-84023615D01*
X132684335Y-84015022D01*
X132562257Y-83964456D01*
X132452390Y-83891045D01*
X132452387Y-83891043D01*
X132358957Y-83797613D01*
X132285544Y-83687743D01*
X132234978Y-83565664D01*
X132209200Y-83436070D01*
X132209200Y-83303930D01*
X132234978Y-83174336D01*
X132285544Y-83052257D01*
X132358957Y-82942387D01*
X132452387Y-82848957D01*
X132562257Y-82775544D01*
X132615957Y-82753301D01*
X132684335Y-82724978D01*
X132727534Y-82716385D01*
X132813930Y-82699200D01*
X132946070Y-82699200D01*
X133032466Y-82716385D01*
X133032466Y-82716385D01*
G37*
G36*
X135572466Y-82716385D02*
X135615665Y-82724978D01*
X135684043Y-82753301D01*
X135737743Y-82775544D01*
X135847613Y-82848957D01*
X135941043Y-82942387D01*
X136014456Y-83052257D01*
X136065022Y-83174336D01*
X136090800Y-83303930D01*
X136090800Y-83436070D01*
X136065022Y-83565664D01*
X136014456Y-83687743D01*
X135941043Y-83797613D01*
X135847613Y-83891043D01*
X135847610Y-83891045D01*
X135737743Y-83964456D01*
X135615665Y-84015022D01*
X135572466Y-84023615D01*
X135486070Y-84040800D01*
X135353930Y-84040800D01*
X135267534Y-84023615D01*
X135224335Y-84015022D01*
X135102257Y-83964456D01*
X134992390Y-83891045D01*
X134992387Y-83891043D01*
X134898957Y-83797613D01*
X134825544Y-83687743D01*
X134774978Y-83565664D01*
X134749200Y-83436070D01*
X134749200Y-83303930D01*
X134774978Y-83174336D01*
X134825544Y-83052257D01*
X134898957Y-82942387D01*
X134992387Y-82848957D01*
X135102257Y-82775544D01*
X135155957Y-82753301D01*
X135224335Y-82724978D01*
X135267534Y-82716385D01*
X135353930Y-82699200D01*
X135486070Y-82699200D01*
X135572466Y-82716385D01*
X135572466Y-82716385D01*
G37*
G36*
X120732967Y-80709385D02*
X120946949Y-80798019D01*
X121139532Y-80926699D01*
X121303301Y-81090468D01*
X121431981Y-81283051D01*
X121520615Y-81497033D01*
X121565800Y-81724192D01*
X121565800Y-81955808D01*
X121520615Y-82182967D01*
X121431981Y-82396949D01*
X121303301Y-82589532D01*
X121139532Y-82753301D01*
X120946949Y-82881981D01*
X120732967Y-82970615D01*
X120505808Y-83015800D01*
X120274192Y-83015800D01*
X120047033Y-82970615D01*
X119833051Y-82881981D01*
X119640468Y-82753301D01*
X119476699Y-82589532D01*
X119348019Y-82396949D01*
X119259385Y-82182967D01*
X119214200Y-81955808D01*
X119214200Y-81724192D01*
X119259385Y-81497033D01*
X119348019Y-81283051D01*
X119476699Y-81090468D01*
X119640468Y-80926699D01*
X119833051Y-80798019D01*
X120047033Y-80709385D01*
X120274192Y-80664200D01*
X120505808Y-80664200D01*
X120732967Y-80709385D01*
X120732967Y-80709385D01*
G37*
G36*
X115652967Y-80709385D02*
X115866949Y-80798019D01*
X116059532Y-80926699D01*
X116223301Y-81090468D01*
X116351981Y-81283051D01*
X116440615Y-81497033D01*
X116485800Y-81724192D01*
X116485800Y-81955808D01*
X116440615Y-82182967D01*
X116351981Y-82396949D01*
X116223301Y-82589532D01*
X116059532Y-82753301D01*
X115866949Y-82881981D01*
X115652967Y-82970615D01*
X115425808Y-83015800D01*
X115194192Y-83015800D01*
X114967033Y-82970615D01*
X114753051Y-82881981D01*
X114560468Y-82753301D01*
X114396699Y-82589532D01*
X114268019Y-82396949D01*
X114179385Y-82182967D01*
X114134200Y-81955808D01*
X114134200Y-81724192D01*
X114179385Y-81497033D01*
X114268019Y-81283051D01*
X114396699Y-81090468D01*
X114560468Y-80926699D01*
X114753051Y-80798019D01*
X114967033Y-80709385D01*
X115194192Y-80664200D01*
X115425808Y-80664200D01*
X115652967Y-80709385D01*
X115652967Y-80709385D01*
G37*
G36*
X134302466Y-81446385D02*
X134345665Y-81454978D01*
X134447193Y-81497032D01*
X134467743Y-81505544D01*
X134577613Y-81578957D01*
X134671043Y-81672387D01*
X134744456Y-81782257D01*
X134795022Y-81904336D01*
X134820800Y-82033930D01*
X134820800Y-82166070D01*
X134795022Y-82295664D01*
X134744456Y-82417743D01*
X134671043Y-82527613D01*
X134577613Y-82621043D01*
X134577610Y-82621045D01*
X134467743Y-82694456D01*
X134345665Y-82745022D01*
X134304043Y-82753301D01*
X134216070Y-82770800D01*
X134083930Y-82770800D01*
X133995957Y-82753301D01*
X133954335Y-82745022D01*
X133832257Y-82694456D01*
X133722390Y-82621045D01*
X133722387Y-82621043D01*
X133628957Y-82527613D01*
X133555544Y-82417743D01*
X133504978Y-82295664D01*
X133479200Y-82166070D01*
X133479200Y-82033930D01*
X133504978Y-81904336D01*
X133555544Y-81782257D01*
X133628957Y-81672387D01*
X133722387Y-81578957D01*
X133832257Y-81505544D01*
X133852807Y-81497032D01*
X133954335Y-81454978D01*
X133997534Y-81446385D01*
X134083930Y-81429200D01*
X134216070Y-81429200D01*
X134302466Y-81446385D01*
X134302466Y-81446385D01*
G37*
G36*
X143138362Y-80113545D02*
X143226588Y-80122234D01*
X143339789Y-80156573D01*
X143396390Y-80173743D01*
X143512010Y-80235544D01*
X143552879Y-80257389D01*
X143588609Y-80286712D01*
X143690044Y-80369956D01*
X143773288Y-80471391D01*
X143802611Y-80507121D01*
X143802612Y-80507123D01*
X143886257Y-80663610D01*
X143886257Y-80663611D01*
X143937766Y-80833412D01*
X143955158Y-81010000D01*
X143937766Y-81186588D01*
X143908504Y-81283050D01*
X143886257Y-81356390D01*
X143847339Y-81429200D01*
X143802611Y-81512879D01*
X143773288Y-81548609D01*
X143690044Y-81650044D01*
X143599693Y-81724192D01*
X143552879Y-81762611D01*
X143552877Y-81762612D01*
X143396390Y-81846257D01*
X143339789Y-81863427D01*
X143226588Y-81897766D01*
X143159880Y-81904336D01*
X143094250Y-81910800D01*
X143005750Y-81910800D01*
X142940120Y-81904336D01*
X142873412Y-81897766D01*
X142760211Y-81863427D01*
X142703610Y-81846257D01*
X142547123Y-81762612D01*
X142547121Y-81762611D01*
X142500307Y-81724192D01*
X142409956Y-81650044D01*
X142326712Y-81548609D01*
X142297389Y-81512879D01*
X142252661Y-81429200D01*
X142213743Y-81356390D01*
X142191496Y-81283050D01*
X142162234Y-81186588D01*
X142144842Y-81010000D01*
X142162234Y-80833412D01*
X142213743Y-80663611D01*
X142213743Y-80663610D01*
X142297388Y-80507123D01*
X142297389Y-80507121D01*
X142326712Y-80471391D01*
X142409956Y-80369956D01*
X142511391Y-80286712D01*
X142547121Y-80257389D01*
X142587990Y-80235544D01*
X142703610Y-80173743D01*
X142760211Y-80156573D01*
X142873412Y-80122234D01*
X142961638Y-80113545D01*
X143005750Y-80109200D01*
X143094250Y-80109200D01*
X143138362Y-80113545D01*
X143138362Y-80113545D01*
G37*
G36*
X146738362Y-80113545D02*
X146826588Y-80122234D01*
X146939789Y-80156573D01*
X146996390Y-80173743D01*
X147112010Y-80235544D01*
X147152879Y-80257389D01*
X147188609Y-80286712D01*
X147290044Y-80369956D01*
X147373288Y-80471391D01*
X147402611Y-80507121D01*
X147402612Y-80507123D01*
X147486257Y-80663610D01*
X147486257Y-80663611D01*
X147537766Y-80833412D01*
X147555158Y-81010000D01*
X147537766Y-81186588D01*
X147508504Y-81283050D01*
X147486257Y-81356390D01*
X147447339Y-81429200D01*
X147402611Y-81512879D01*
X147373288Y-81548609D01*
X147290044Y-81650044D01*
X147199693Y-81724192D01*
X147152879Y-81762611D01*
X147152877Y-81762612D01*
X146996390Y-81846257D01*
X146939789Y-81863427D01*
X146826588Y-81897766D01*
X146759880Y-81904336D01*
X146694250Y-81910800D01*
X146605750Y-81910800D01*
X146540120Y-81904336D01*
X146473412Y-81897766D01*
X146360211Y-81863427D01*
X146303610Y-81846257D01*
X146147123Y-81762612D01*
X146147121Y-81762611D01*
X146100307Y-81724192D01*
X146009956Y-81650044D01*
X145926712Y-81548609D01*
X145897389Y-81512879D01*
X145852661Y-81429200D01*
X145813743Y-81356390D01*
X145791496Y-81283050D01*
X145762234Y-81186588D01*
X145744842Y-81010000D01*
X145762234Y-80833412D01*
X145813743Y-80663611D01*
X145813743Y-80663610D01*
X145897388Y-80507123D01*
X145897389Y-80507121D01*
X145926712Y-80471391D01*
X146009956Y-80369956D01*
X146111391Y-80286712D01*
X146147121Y-80257389D01*
X146187990Y-80235544D01*
X146303610Y-80173743D01*
X146360211Y-80156573D01*
X146473412Y-80122234D01*
X146561638Y-80113545D01*
X146605750Y-80109200D01*
X146694250Y-80109200D01*
X146738362Y-80113545D01*
X146738362Y-80113545D01*
G37*
G36*
X135559182Y-80173743D02*
X135615665Y-80184978D01*
X135737743Y-80235544D01*
X135847613Y-80308957D01*
X135941043Y-80402387D01*
X135941045Y-80402390D01*
X136014456Y-80512257D01*
X136065022Y-80634335D01*
X136090800Y-80763932D01*
X136090800Y-80896068D01*
X136065022Y-81025665D01*
X136014456Y-81147743D01*
X135941043Y-81257613D01*
X135847613Y-81351043D01*
X135847610Y-81351045D01*
X135737743Y-81424456D01*
X135615665Y-81475022D01*
X135572466Y-81483615D01*
X135486070Y-81500800D01*
X135353930Y-81500800D01*
X135267534Y-81483615D01*
X135224335Y-81475022D01*
X135102257Y-81424456D01*
X134992390Y-81351045D01*
X134992387Y-81351043D01*
X134898957Y-81257613D01*
X134825544Y-81147743D01*
X134774978Y-81025665D01*
X134749200Y-80896068D01*
X134749200Y-80763932D01*
X134774978Y-80634335D01*
X134825544Y-80512257D01*
X134898955Y-80402390D01*
X134898957Y-80402387D01*
X134992387Y-80308957D01*
X135102257Y-80235544D01*
X135224335Y-80184978D01*
X135280818Y-80173743D01*
X135353930Y-80159200D01*
X135486070Y-80159200D01*
X135559182Y-80173743D01*
X135559182Y-80173743D01*
G37*
G36*
X133019182Y-80173743D02*
X133075665Y-80184978D01*
X133197743Y-80235544D01*
X133307613Y-80308957D01*
X133401043Y-80402387D01*
X133401045Y-80402390D01*
X133474456Y-80512257D01*
X133525022Y-80634335D01*
X133550800Y-80763932D01*
X133550800Y-80896068D01*
X133525022Y-81025665D01*
X133474456Y-81147743D01*
X133401043Y-81257613D01*
X133307613Y-81351043D01*
X133307610Y-81351045D01*
X133197743Y-81424456D01*
X133075665Y-81475022D01*
X133032466Y-81483615D01*
X132946070Y-81500800D01*
X132813930Y-81500800D01*
X132727534Y-81483615D01*
X132684335Y-81475022D01*
X132562257Y-81424456D01*
X132452390Y-81351045D01*
X132452387Y-81351043D01*
X132358957Y-81257613D01*
X132285544Y-81147743D01*
X132234978Y-81025665D01*
X132209200Y-80896068D01*
X132209200Y-80763932D01*
X132234978Y-80634335D01*
X132285544Y-80512257D01*
X132358955Y-80402390D01*
X132358957Y-80402387D01*
X132452387Y-80308957D01*
X132562257Y-80235544D01*
X132684335Y-80184978D01*
X132740818Y-80173743D01*
X132813930Y-80159200D01*
X132946070Y-80159200D01*
X133019182Y-80173743D01*
X133019182Y-80173743D01*
G37*
G36*
X118163798Y-78265542D02*
X118359581Y-78346638D01*
X118535785Y-78464374D01*
X118685626Y-78614215D01*
X118803362Y-78790419D01*
X118884458Y-78986202D01*
X118925800Y-79194042D01*
X118925800Y-79405958D01*
X118884458Y-79613798D01*
X118803362Y-79809581D01*
X118685626Y-79985785D01*
X118535785Y-80135626D01*
X118359581Y-80253362D01*
X118163798Y-80334458D01*
X117955958Y-80375800D01*
X117744042Y-80375800D01*
X117536202Y-80334458D01*
X117340419Y-80253362D01*
X117164215Y-80135626D01*
X117014374Y-79985785D01*
X116896638Y-79809581D01*
X116815542Y-79613798D01*
X116774200Y-79405958D01*
X116774200Y-79194042D01*
X116815542Y-78986202D01*
X116896638Y-78790419D01*
X117014374Y-78614215D01*
X117164215Y-78464374D01*
X117340419Y-78346638D01*
X117536202Y-78265542D01*
X117744042Y-78224200D01*
X117955958Y-78224200D01*
X118163798Y-78265542D01*
X118163798Y-78265542D01*
G37*
G36*
X103742323Y-76865060D02*
X103981521Y-76912639D01*
X104281947Y-77037080D01*
X104552324Y-77217740D01*
X104782260Y-77447676D01*
X104962920Y-77718053D01*
X105087361Y-78018479D01*
X105150800Y-78337410D01*
X105150800Y-78662590D01*
X105087361Y-78981521D01*
X104962920Y-79281947D01*
X104782260Y-79552324D01*
X104552324Y-79782260D01*
X104281947Y-79962920D01*
X103981521Y-80087361D01*
X103742323Y-80134940D01*
X103662591Y-80150800D01*
X103337409Y-80150800D01*
X103257677Y-80134940D01*
X103018479Y-80087361D01*
X102718053Y-79962920D01*
X102447676Y-79782260D01*
X102217740Y-79552324D01*
X102037080Y-79281947D01*
X101912639Y-78981521D01*
X101849200Y-78662590D01*
X101849200Y-78337410D01*
X101912639Y-78018479D01*
X102037080Y-77718053D01*
X102217740Y-77447676D01*
X102447676Y-77217740D01*
X102718053Y-77037080D01*
X103018479Y-76912639D01*
X103257677Y-76865060D01*
X103337409Y-76849200D01*
X103662591Y-76849200D01*
X103742323Y-76865060D01*
X103742323Y-76865060D01*
G37*
G36*
X152742323Y-76865060D02*
X152981521Y-76912639D01*
X153281947Y-77037080D01*
X153552324Y-77217740D01*
X153782260Y-77447676D01*
X153962920Y-77718053D01*
X154087361Y-78018479D01*
X154150800Y-78337410D01*
X154150800Y-78662590D01*
X154087361Y-78981521D01*
X153962920Y-79281947D01*
X153782260Y-79552324D01*
X153552324Y-79782260D01*
X153281947Y-79962920D01*
X152981521Y-80087361D01*
X152742323Y-80134940D01*
X152662591Y-80150800D01*
X152337409Y-80150800D01*
X152257677Y-80134940D01*
X152018479Y-80087361D01*
X151718053Y-79962920D01*
X151447676Y-79782260D01*
X151217740Y-79552324D01*
X151037080Y-79281947D01*
X150912639Y-78981521D01*
X150849200Y-78662590D01*
X150849200Y-78337410D01*
X150912639Y-78018479D01*
X151037080Y-77718053D01*
X151217740Y-77447676D01*
X151447676Y-77217740D01*
X151718053Y-77037080D01*
X152018479Y-76912639D01*
X152257677Y-76865060D01*
X152337409Y-76849200D01*
X152662591Y-76849200D01*
X152742323Y-76865060D01*
X152742323Y-76865060D01*
G37*
G36*
X115652967Y-75629385D02*
X115866949Y-75718019D01*
X116059532Y-75846699D01*
X116223301Y-76010468D01*
X116351981Y-76203051D01*
X116440615Y-76417033D01*
X116485800Y-76644192D01*
X116485800Y-76875808D01*
X116440615Y-77102967D01*
X116351981Y-77316949D01*
X116223301Y-77509532D01*
X116059532Y-77673301D01*
X115866949Y-77801981D01*
X115652967Y-77890615D01*
X115425808Y-77935800D01*
X115194192Y-77935800D01*
X114967033Y-77890615D01*
X114753051Y-77801981D01*
X114560468Y-77673301D01*
X114396699Y-77509532D01*
X114268019Y-77316949D01*
X114179385Y-77102967D01*
X114134200Y-76875808D01*
X114134200Y-76644192D01*
X114179385Y-76417033D01*
X114268019Y-76203051D01*
X114396699Y-76010468D01*
X114560468Y-75846699D01*
X114753051Y-75718019D01*
X114967033Y-75629385D01*
X115194192Y-75584200D01*
X115425808Y-75584200D01*
X115652967Y-75629385D01*
X115652967Y-75629385D01*
G37*
G36*
X120732967Y-75629385D02*
X120946949Y-75718019D01*
X121139532Y-75846699D01*
X121303301Y-76010468D01*
X121431981Y-76203051D01*
X121520615Y-76417033D01*
X121565800Y-76644192D01*
X121565800Y-76875808D01*
X121520615Y-77102967D01*
X121431981Y-77316949D01*
X121303301Y-77509532D01*
X121139532Y-77673301D01*
X120946949Y-77801981D01*
X120732967Y-77890615D01*
X120505808Y-77935800D01*
X120274192Y-77935800D01*
X120047033Y-77890615D01*
X119833051Y-77801981D01*
X119640468Y-77673301D01*
X119476699Y-77509532D01*
X119348019Y-77316949D01*
X119259385Y-77102967D01*
X119214200Y-76875808D01*
X119214200Y-76644192D01*
X119259385Y-76417033D01*
X119348019Y-76203051D01*
X119476699Y-76010468D01*
X119640468Y-75846699D01*
X119833051Y-75718019D01*
X120047033Y-75629385D01*
X120274192Y-75584200D01*
X120505808Y-75584200D01*
X120732967Y-75629385D01*
X120732967Y-75629385D01*
G37*
M02*
