G04 #@! TF.GenerationSoftware,KiCad,Pcbnew,5.0.1-33cea8e~68~ubuntu18.04.1*
G04 #@! TF.CreationDate,2018-11-04T18:35:11+03:00*
G04 #@! TF.ProjectId,AA-PI-Radio-Board,41412D50492D526164696F2D426F6172,rev?*
G04 #@! TF.SameCoordinates,Original*
G04 #@! TF.FileFunction,Legend,Top*
G04 #@! TF.FilePolarity,Positive*
%FSLAX46Y46*%
G04 Gerber Fmt 4.6, Leading zero omitted, Abs format (unit mm)*
G04 Created by KiCad (PCBNEW 5.0.1-33cea8e~68~ubuntu18.04.1) date Sun 04 Nov 2018 18:35:11 MSK*
%MOMM*%
%LPD*%
G01*
G04 APERTURE LIST*
%ADD10C,0.200000*%
%ADD11C,0.150000*%
%ADD12C,0.010000*%
%ADD13C,0.120000*%
G04 APERTURE END LIST*
D10*
X109173809Y-96591666D02*
X109121428Y-96539285D01*
X109016666Y-96382142D01*
X108964285Y-96277380D01*
X108911904Y-96120238D01*
X108859523Y-95858333D01*
X108859523Y-95648809D01*
X108911904Y-95386904D01*
X108964285Y-95229761D01*
X109016666Y-95125000D01*
X109121428Y-94967857D01*
X109173809Y-94915476D01*
X110221428Y-96067857D02*
X110169047Y-96120238D01*
X110011904Y-96172619D01*
X109907142Y-96172619D01*
X109750000Y-96120238D01*
X109645238Y-96015476D01*
X109592857Y-95910714D01*
X109540476Y-95701190D01*
X109540476Y-95544047D01*
X109592857Y-95334523D01*
X109645238Y-95229761D01*
X109750000Y-95125000D01*
X109907142Y-95072619D01*
X110011904Y-95072619D01*
X110169047Y-95125000D01*
X110221428Y-95177380D01*
X110588095Y-96591666D02*
X110640476Y-96539285D01*
X110745238Y-96382142D01*
X110797619Y-96277380D01*
X110850000Y-96120238D01*
X110902380Y-95858333D01*
X110902380Y-95648809D01*
X110850000Y-95386904D01*
X110797619Y-95229761D01*
X110745238Y-95125000D01*
X110640476Y-94967857D01*
X110588095Y-94915476D01*
X112211904Y-95177380D02*
X112264285Y-95125000D01*
X112369047Y-95072619D01*
X112630952Y-95072619D01*
X112735714Y-95125000D01*
X112788095Y-95177380D01*
X112840476Y-95282142D01*
X112840476Y-95386904D01*
X112788095Y-95544047D01*
X112159523Y-96172619D01*
X112840476Y-96172619D01*
X113521428Y-95072619D02*
X113626190Y-95072619D01*
X113730952Y-95125000D01*
X113783333Y-95177380D01*
X113835714Y-95282142D01*
X113888095Y-95491666D01*
X113888095Y-95753571D01*
X113835714Y-95963095D01*
X113783333Y-96067857D01*
X113730952Y-96120238D01*
X113626190Y-96172619D01*
X113521428Y-96172619D01*
X113416666Y-96120238D01*
X113364285Y-96067857D01*
X113311904Y-95963095D01*
X113259523Y-95753571D01*
X113259523Y-95491666D01*
X113311904Y-95282142D01*
X113364285Y-95177380D01*
X113416666Y-95125000D01*
X113521428Y-95072619D01*
X114935714Y-96172619D02*
X114307142Y-96172619D01*
X114621428Y-96172619D02*
X114621428Y-95072619D01*
X114516666Y-95229761D01*
X114411904Y-95334523D01*
X114307142Y-95386904D01*
X115564285Y-95544047D02*
X115459523Y-95491666D01*
X115407142Y-95439285D01*
X115354761Y-95334523D01*
X115354761Y-95282142D01*
X115407142Y-95177380D01*
X115459523Y-95125000D01*
X115564285Y-95072619D01*
X115773809Y-95072619D01*
X115878571Y-95125000D01*
X115930952Y-95177380D01*
X115983333Y-95282142D01*
X115983333Y-95334523D01*
X115930952Y-95439285D01*
X115878571Y-95491666D01*
X115773809Y-95544047D01*
X115564285Y-95544047D01*
X115459523Y-95596428D01*
X115407142Y-95648809D01*
X115354761Y-95753571D01*
X115354761Y-95963095D01*
X115407142Y-96067857D01*
X115459523Y-96120238D01*
X115564285Y-96172619D01*
X115773809Y-96172619D01*
X115878571Y-96120238D01*
X115930952Y-96067857D01*
X115983333Y-95963095D01*
X115983333Y-95753571D01*
X115930952Y-95648809D01*
X115878571Y-95596428D01*
X115773809Y-95544047D01*
X117502380Y-95072619D02*
X117711904Y-95072619D01*
X117816666Y-95125000D01*
X117921428Y-95229761D01*
X117973809Y-95439285D01*
X117973809Y-95805952D01*
X117921428Y-96015476D01*
X117816666Y-96120238D01*
X117711904Y-96172619D01*
X117502380Y-96172619D01*
X117397619Y-96120238D01*
X117292857Y-96015476D01*
X117240476Y-95805952D01*
X117240476Y-95439285D01*
X117292857Y-95229761D01*
X117397619Y-95125000D01*
X117502380Y-95072619D01*
X119073809Y-96172619D02*
X118707142Y-95648809D01*
X118445238Y-96172619D02*
X118445238Y-95072619D01*
X118864285Y-95072619D01*
X118969047Y-95125000D01*
X119021428Y-95177380D01*
X119073809Y-95282142D01*
X119073809Y-95439285D01*
X119021428Y-95544047D01*
X118969047Y-95596428D01*
X118864285Y-95648809D01*
X118445238Y-95648809D01*
X119545238Y-96172619D02*
X119545238Y-95072619D01*
X119964285Y-95072619D01*
X120069047Y-95125000D01*
X120121428Y-95177380D01*
X120173809Y-95282142D01*
X120173809Y-95439285D01*
X120121428Y-95544047D01*
X120069047Y-95596428D01*
X119964285Y-95648809D01*
X119545238Y-95648809D01*
X120592857Y-95858333D02*
X121116666Y-95858333D01*
X120488095Y-96172619D02*
X120854761Y-95072619D01*
X121221428Y-96172619D01*
X122111904Y-96172619D02*
X121588095Y-96172619D01*
X121588095Y-95072619D01*
X122321428Y-95072619D02*
X122950000Y-95072619D01*
X122635714Y-96172619D02*
X122635714Y-95072619D01*
X123316666Y-95596428D02*
X123683333Y-95596428D01*
X123840476Y-96172619D02*
X123316666Y-96172619D01*
X123316666Y-95072619D01*
X123840476Y-95072619D01*
X124940476Y-96067857D02*
X124888095Y-96120238D01*
X124730952Y-96172619D01*
X124626190Y-96172619D01*
X124469047Y-96120238D01*
X124364285Y-96015476D01*
X124311904Y-95910714D01*
X124259523Y-95701190D01*
X124259523Y-95544047D01*
X124311904Y-95334523D01*
X124364285Y-95229761D01*
X124469047Y-95125000D01*
X124626190Y-95072619D01*
X124730952Y-95072619D01*
X124888095Y-95125000D01*
X124940476Y-95177380D01*
X125411904Y-96172619D02*
X125411904Y-95072619D01*
X125411904Y-95596428D02*
X126040476Y-95596428D01*
X126040476Y-96172619D02*
X126040476Y-95072619D01*
X110090476Y-97708333D02*
X110614285Y-97708333D01*
X109985714Y-98022619D02*
X110352380Y-96922619D01*
X110719047Y-98022619D01*
X111033333Y-97708333D02*
X111557142Y-97708333D01*
X110928571Y-98022619D02*
X111295238Y-96922619D01*
X111661904Y-98022619D01*
X112028571Y-97603571D02*
X112866666Y-97603571D01*
X113390476Y-98022619D02*
X113390476Y-96922619D01*
X113809523Y-96922619D01*
X113914285Y-96975000D01*
X113966666Y-97027380D01*
X114019047Y-97132142D01*
X114019047Y-97289285D01*
X113966666Y-97394047D01*
X113914285Y-97446428D01*
X113809523Y-97498809D01*
X113390476Y-97498809D01*
X114490476Y-98022619D02*
X114490476Y-96922619D01*
X115695238Y-96922619D02*
X116061904Y-98022619D01*
X116428571Y-96922619D01*
X117214285Y-97970238D02*
X117109523Y-98022619D01*
X116899999Y-98022619D01*
X116795238Y-97970238D01*
X116742857Y-97865476D01*
X116742857Y-97446428D01*
X116795238Y-97341666D01*
X116899999Y-97289285D01*
X117109523Y-97289285D01*
X117214285Y-97341666D01*
X117266666Y-97446428D01*
X117266666Y-97551190D01*
X116742857Y-97655952D01*
X117738095Y-98022619D02*
X117738095Y-97289285D01*
X117738095Y-97498809D02*
X117790476Y-97394047D01*
X117842857Y-97341666D01*
X117947619Y-97289285D01*
X118052380Y-97289285D01*
X118366666Y-97970238D02*
X118471428Y-98022619D01*
X118680952Y-98022619D01*
X118785714Y-97970238D01*
X118838095Y-97865476D01*
X118838095Y-97813095D01*
X118785714Y-97708333D01*
X118680952Y-97655952D01*
X118523809Y-97655952D01*
X118419047Y-97603571D01*
X118366666Y-97498809D01*
X118366666Y-97446428D01*
X118419047Y-97341666D01*
X118523809Y-97289285D01*
X118680952Y-97289285D01*
X118785714Y-97341666D01*
X119309523Y-98022619D02*
X119309523Y-97289285D01*
X119309523Y-96922619D02*
X119257142Y-96975000D01*
X119309523Y-97027380D01*
X119361904Y-96975000D01*
X119309523Y-96922619D01*
X119309523Y-97027380D01*
X119990476Y-98022619D02*
X119885714Y-97970238D01*
X119833333Y-97917857D01*
X119780952Y-97813095D01*
X119780952Y-97498809D01*
X119833333Y-97394047D01*
X119885714Y-97341666D01*
X119990476Y-97289285D01*
X120147619Y-97289285D01*
X120252380Y-97341666D01*
X120304761Y-97394047D01*
X120357142Y-97498809D01*
X120357142Y-97813095D01*
X120304761Y-97917857D01*
X120252380Y-97970238D01*
X120147619Y-98022619D01*
X119990476Y-98022619D01*
X120828571Y-97289285D02*
X120828571Y-98022619D01*
X120828571Y-97394047D02*
X120880952Y-97341666D01*
X120985714Y-97289285D01*
X121142857Y-97289285D01*
X121247619Y-97341666D01*
X121300000Y-97446428D01*
X121300000Y-98022619D01*
X122609523Y-97027380D02*
X122661904Y-96975000D01*
X122766666Y-96922619D01*
X123028571Y-96922619D01*
X123133333Y-96975000D01*
X123185714Y-97027380D01*
X123238095Y-97132142D01*
X123238095Y-97236904D01*
X123185714Y-97394047D01*
X122557142Y-98022619D01*
X123238095Y-98022619D01*
X123709523Y-97917857D02*
X123761904Y-97970238D01*
X123709523Y-98022619D01*
X123657142Y-97970238D01*
X123709523Y-97917857D01*
X123709523Y-98022619D01*
X124442857Y-96922619D02*
X124547619Y-96922619D01*
X124652380Y-96975000D01*
X124704761Y-97027380D01*
X124757142Y-97132142D01*
X124809523Y-97341666D01*
X124809523Y-97603571D01*
X124757142Y-97813095D01*
X124704761Y-97917857D01*
X124652380Y-97970238D01*
X124547619Y-98022619D01*
X124442857Y-98022619D01*
X124338095Y-97970238D01*
X124285714Y-97917857D01*
X124233333Y-97813095D01*
X124180952Y-97603571D01*
X124180952Y-97341666D01*
X124233333Y-97132142D01*
X124285714Y-97027380D01*
X124338095Y-96975000D01*
X124442857Y-96922619D01*
D11*
G04 #@! TO.C,J2*
X107725000Y-103850000D02*
X107725000Y-116350000D01*
X105275000Y-103850000D02*
X105275000Y-116350000D01*
X105275000Y-103850000D02*
X102450000Y-103850000D01*
X105275000Y-116350000D02*
X102450000Y-116350000D01*
X102450000Y-103850000D02*
X102450000Y-100425000D01*
X102450000Y-116350000D02*
X102450000Y-119775000D01*
X102450000Y-100425000D02*
X105500000Y-100425000D01*
X102450000Y-119775000D02*
X105500000Y-119775000D01*
X105500000Y-100425000D02*
X105500000Y-103850000D01*
X105500000Y-119775000D02*
X105500000Y-116350000D01*
X105500000Y-103850000D02*
X107725000Y-103850000D01*
X105500000Y-116350000D02*
X107725000Y-116350000D01*
D12*
G04 #@! TO.C,REF\002A\002A*
G36*
X117546957Y-87066571D02*
X117643232Y-87090809D01*
X117729816Y-87133641D01*
X117804627Y-87193419D01*
X117865582Y-87268494D01*
X117910601Y-87357220D01*
X117936864Y-87453530D01*
X117942714Y-87550795D01*
X117927860Y-87644654D01*
X117894160Y-87732511D01*
X117843472Y-87811770D01*
X117777655Y-87879836D01*
X117698566Y-87934112D01*
X117608066Y-87972002D01*
X117556800Y-87984426D01*
X117512302Y-87991947D01*
X117478001Y-87994919D01*
X117445040Y-87993094D01*
X117404566Y-87986225D01*
X117371469Y-87979250D01*
X117278053Y-87947741D01*
X117194381Y-87896617D01*
X117122335Y-87827429D01*
X117063800Y-87741728D01*
X117049852Y-87714489D01*
X117033414Y-87678122D01*
X117023106Y-87647582D01*
X117017540Y-87615450D01*
X117015331Y-87574307D01*
X117015052Y-87528222D01*
X117019139Y-87443865D01*
X117032554Y-87374586D01*
X117057744Y-87313961D01*
X117097154Y-87255567D01*
X117135702Y-87211302D01*
X117207594Y-87145484D01*
X117282687Y-87100053D01*
X117365438Y-87072850D01*
X117443072Y-87062576D01*
X117546957Y-87066571D01*
X117546957Y-87066571D01*
G37*
X117546957Y-87066571D02*
X117643232Y-87090809D01*
X117729816Y-87133641D01*
X117804627Y-87193419D01*
X117865582Y-87268494D01*
X117910601Y-87357220D01*
X117936864Y-87453530D01*
X117942714Y-87550795D01*
X117927860Y-87644654D01*
X117894160Y-87732511D01*
X117843472Y-87811770D01*
X117777655Y-87879836D01*
X117698566Y-87934112D01*
X117608066Y-87972002D01*
X117556800Y-87984426D01*
X117512302Y-87991947D01*
X117478001Y-87994919D01*
X117445040Y-87993094D01*
X117404566Y-87986225D01*
X117371469Y-87979250D01*
X117278053Y-87947741D01*
X117194381Y-87896617D01*
X117122335Y-87827429D01*
X117063800Y-87741728D01*
X117049852Y-87714489D01*
X117033414Y-87678122D01*
X117023106Y-87647582D01*
X117017540Y-87615450D01*
X117015331Y-87574307D01*
X117015052Y-87528222D01*
X117019139Y-87443865D01*
X117032554Y-87374586D01*
X117057744Y-87313961D01*
X117097154Y-87255567D01*
X117135702Y-87211302D01*
X117207594Y-87145484D01*
X117282687Y-87100053D01*
X117365438Y-87072850D01*
X117443072Y-87062576D01*
X117546957Y-87066571D01*
G36*
X126006507Y-89512245D02*
X126006526Y-89746662D01*
X126006552Y-89959603D01*
X126006625Y-90152168D01*
X126006782Y-90325459D01*
X126007064Y-90480576D01*
X126007509Y-90618620D01*
X126008156Y-90740692D01*
X126009045Y-90847894D01*
X126010213Y-90941326D01*
X126011701Y-91022090D01*
X126013546Y-91091286D01*
X126015789Y-91150015D01*
X126018469Y-91199379D01*
X126021623Y-91240478D01*
X126025292Y-91274413D01*
X126029513Y-91302286D01*
X126034327Y-91325198D01*
X126039773Y-91344249D01*
X126045888Y-91360540D01*
X126052712Y-91375173D01*
X126060285Y-91389249D01*
X126068645Y-91403868D01*
X126073839Y-91412974D01*
X126108104Y-91473689D01*
X125249955Y-91473689D01*
X125249955Y-91377733D01*
X125249224Y-91334370D01*
X125247272Y-91301205D01*
X125244463Y-91283424D01*
X125243221Y-91281778D01*
X125231799Y-91288662D01*
X125209084Y-91306505D01*
X125186385Y-91325879D01*
X125131800Y-91366614D01*
X125062321Y-91407617D01*
X124985270Y-91445123D01*
X124907965Y-91475364D01*
X124877113Y-91485012D01*
X124808616Y-91499578D01*
X124725764Y-91509539D01*
X124636371Y-91514583D01*
X124548248Y-91514396D01*
X124469207Y-91508666D01*
X124431511Y-91502858D01*
X124293414Y-91464797D01*
X124166113Y-91407073D01*
X124050292Y-91330211D01*
X123946637Y-91234739D01*
X123855833Y-91121179D01*
X123789031Y-91010381D01*
X123734164Y-90893625D01*
X123692163Y-90774276D01*
X123662167Y-90648283D01*
X123643311Y-90511594D01*
X123634732Y-90360158D01*
X123634006Y-90282711D01*
X123636100Y-90225934D01*
X124465217Y-90225934D01*
X124465424Y-90319002D01*
X124468337Y-90406692D01*
X124474000Y-90483772D01*
X124482455Y-90545009D01*
X124485038Y-90557350D01*
X124516840Y-90664633D01*
X124558498Y-90751658D01*
X124610363Y-90818642D01*
X124672781Y-90865805D01*
X124746100Y-90893365D01*
X124830669Y-90901541D01*
X124926835Y-90890551D01*
X124990311Y-90874829D01*
X125039454Y-90856639D01*
X125093583Y-90830791D01*
X125134244Y-90807089D01*
X125204800Y-90760721D01*
X125204800Y-89610530D01*
X125137392Y-89566962D01*
X125058867Y-89526040D01*
X124974681Y-89499389D01*
X124889557Y-89487465D01*
X124808216Y-89490722D01*
X124735380Y-89509615D01*
X124703426Y-89525184D01*
X124645501Y-89568181D01*
X124596544Y-89624953D01*
X124555390Y-89697575D01*
X124520874Y-89788121D01*
X124491833Y-89898666D01*
X124490552Y-89904533D01*
X124480381Y-89966788D01*
X124472739Y-90044594D01*
X124467670Y-90132720D01*
X124465217Y-90225934D01*
X123636100Y-90225934D01*
X123641857Y-90069895D01*
X123663802Y-89874059D01*
X123699786Y-89695332D01*
X123749759Y-89533845D01*
X123813668Y-89389726D01*
X123891462Y-89263106D01*
X123983089Y-89154115D01*
X124088497Y-89062883D01*
X124133662Y-89031932D01*
X124234611Y-88975785D01*
X124337901Y-88936174D01*
X124447989Y-88912014D01*
X124569330Y-88902219D01*
X124661836Y-88903265D01*
X124791490Y-88914231D01*
X124904084Y-88936046D01*
X125002875Y-88969714D01*
X125091121Y-89016236D01*
X125139986Y-89050448D01*
X125169353Y-89072362D01*
X125191043Y-89087333D01*
X125199253Y-89091733D01*
X125200868Y-89080904D01*
X125202159Y-89050251D01*
X125203138Y-89002526D01*
X125203817Y-88940479D01*
X125204210Y-88866862D01*
X125204330Y-88784427D01*
X125204188Y-88695925D01*
X125203797Y-88604107D01*
X125203171Y-88511724D01*
X125202320Y-88421528D01*
X125201260Y-88336271D01*
X125200001Y-88258703D01*
X125198556Y-88191576D01*
X125196938Y-88137641D01*
X125195161Y-88099650D01*
X125194669Y-88092667D01*
X125187092Y-88022251D01*
X125175531Y-87967102D01*
X125157792Y-87919981D01*
X125131682Y-87873647D01*
X125125415Y-87864067D01*
X125100983Y-87827378D01*
X126006311Y-87827378D01*
X126006507Y-89512245D01*
X126006507Y-89512245D01*
G37*
X126006507Y-89512245D02*
X126006526Y-89746662D01*
X126006552Y-89959603D01*
X126006625Y-90152168D01*
X126006782Y-90325459D01*
X126007064Y-90480576D01*
X126007509Y-90618620D01*
X126008156Y-90740692D01*
X126009045Y-90847894D01*
X126010213Y-90941326D01*
X126011701Y-91022090D01*
X126013546Y-91091286D01*
X126015789Y-91150015D01*
X126018469Y-91199379D01*
X126021623Y-91240478D01*
X126025292Y-91274413D01*
X126029513Y-91302286D01*
X126034327Y-91325198D01*
X126039773Y-91344249D01*
X126045888Y-91360540D01*
X126052712Y-91375173D01*
X126060285Y-91389249D01*
X126068645Y-91403868D01*
X126073839Y-91412974D01*
X126108104Y-91473689D01*
X125249955Y-91473689D01*
X125249955Y-91377733D01*
X125249224Y-91334370D01*
X125247272Y-91301205D01*
X125244463Y-91283424D01*
X125243221Y-91281778D01*
X125231799Y-91288662D01*
X125209084Y-91306505D01*
X125186385Y-91325879D01*
X125131800Y-91366614D01*
X125062321Y-91407617D01*
X124985270Y-91445123D01*
X124907965Y-91475364D01*
X124877113Y-91485012D01*
X124808616Y-91499578D01*
X124725764Y-91509539D01*
X124636371Y-91514583D01*
X124548248Y-91514396D01*
X124469207Y-91508666D01*
X124431511Y-91502858D01*
X124293414Y-91464797D01*
X124166113Y-91407073D01*
X124050292Y-91330211D01*
X123946637Y-91234739D01*
X123855833Y-91121179D01*
X123789031Y-91010381D01*
X123734164Y-90893625D01*
X123692163Y-90774276D01*
X123662167Y-90648283D01*
X123643311Y-90511594D01*
X123634732Y-90360158D01*
X123634006Y-90282711D01*
X123636100Y-90225934D01*
X124465217Y-90225934D01*
X124465424Y-90319002D01*
X124468337Y-90406692D01*
X124474000Y-90483772D01*
X124482455Y-90545009D01*
X124485038Y-90557350D01*
X124516840Y-90664633D01*
X124558498Y-90751658D01*
X124610363Y-90818642D01*
X124672781Y-90865805D01*
X124746100Y-90893365D01*
X124830669Y-90901541D01*
X124926835Y-90890551D01*
X124990311Y-90874829D01*
X125039454Y-90856639D01*
X125093583Y-90830791D01*
X125134244Y-90807089D01*
X125204800Y-90760721D01*
X125204800Y-89610530D01*
X125137392Y-89566962D01*
X125058867Y-89526040D01*
X124974681Y-89499389D01*
X124889557Y-89487465D01*
X124808216Y-89490722D01*
X124735380Y-89509615D01*
X124703426Y-89525184D01*
X124645501Y-89568181D01*
X124596544Y-89624953D01*
X124555390Y-89697575D01*
X124520874Y-89788121D01*
X124491833Y-89898666D01*
X124490552Y-89904533D01*
X124480381Y-89966788D01*
X124472739Y-90044594D01*
X124467670Y-90132720D01*
X124465217Y-90225934D01*
X123636100Y-90225934D01*
X123641857Y-90069895D01*
X123663802Y-89874059D01*
X123699786Y-89695332D01*
X123749759Y-89533845D01*
X123813668Y-89389726D01*
X123891462Y-89263106D01*
X123983089Y-89154115D01*
X124088497Y-89062883D01*
X124133662Y-89031932D01*
X124234611Y-88975785D01*
X124337901Y-88936174D01*
X124447989Y-88912014D01*
X124569330Y-88902219D01*
X124661836Y-88903265D01*
X124791490Y-88914231D01*
X124904084Y-88936046D01*
X125002875Y-88969714D01*
X125091121Y-89016236D01*
X125139986Y-89050448D01*
X125169353Y-89072362D01*
X125191043Y-89087333D01*
X125199253Y-89091733D01*
X125200868Y-89080904D01*
X125202159Y-89050251D01*
X125203138Y-89002526D01*
X125203817Y-88940479D01*
X125204210Y-88866862D01*
X125204330Y-88784427D01*
X125204188Y-88695925D01*
X125203797Y-88604107D01*
X125203171Y-88511724D01*
X125202320Y-88421528D01*
X125201260Y-88336271D01*
X125200001Y-88258703D01*
X125198556Y-88191576D01*
X125196938Y-88137641D01*
X125195161Y-88099650D01*
X125194669Y-88092667D01*
X125187092Y-88022251D01*
X125175531Y-87967102D01*
X125157792Y-87919981D01*
X125131682Y-87873647D01*
X125125415Y-87864067D01*
X125100983Y-87827378D01*
X126006311Y-87827378D01*
X126006507Y-89512245D01*
G36*
X122493574Y-88906552D02*
X122645492Y-88926567D01*
X122780756Y-88960202D01*
X122900239Y-89007725D01*
X123004815Y-89069405D01*
X123082424Y-89132965D01*
X123151265Y-89207099D01*
X123205006Y-89286871D01*
X123247910Y-89379091D01*
X123263384Y-89422161D01*
X123276244Y-89461142D01*
X123287446Y-89497289D01*
X123297120Y-89532434D01*
X123305396Y-89568410D01*
X123312403Y-89607050D01*
X123318272Y-89650185D01*
X123323131Y-89699649D01*
X123327110Y-89757273D01*
X123330340Y-89824891D01*
X123332949Y-89904334D01*
X123335067Y-89997436D01*
X123336824Y-90106027D01*
X123338349Y-90231942D01*
X123339772Y-90377012D01*
X123341025Y-90519778D01*
X123342351Y-90675968D01*
X123343556Y-90811239D01*
X123344766Y-90927246D01*
X123346106Y-91025645D01*
X123347700Y-91108093D01*
X123349675Y-91176246D01*
X123352156Y-91231760D01*
X123355269Y-91276292D01*
X123359138Y-91311498D01*
X123363889Y-91339034D01*
X123369648Y-91360556D01*
X123376539Y-91377722D01*
X123384689Y-91392186D01*
X123394223Y-91405606D01*
X123405266Y-91419638D01*
X123409566Y-91425071D01*
X123425386Y-91447910D01*
X123432422Y-91463463D01*
X123432444Y-91463922D01*
X123421567Y-91466121D01*
X123390582Y-91468147D01*
X123341957Y-91469942D01*
X123278163Y-91471451D01*
X123201669Y-91472616D01*
X123114944Y-91473380D01*
X123020457Y-91473686D01*
X123009550Y-91473689D01*
X122586657Y-91473689D01*
X122583395Y-91377622D01*
X122580133Y-91281556D01*
X122518044Y-91332543D01*
X122420714Y-91400057D01*
X122310813Y-91454749D01*
X122224349Y-91484978D01*
X122155278Y-91499666D01*
X122071925Y-91509659D01*
X121982159Y-91514646D01*
X121893845Y-91514313D01*
X121814851Y-91508351D01*
X121778622Y-91502638D01*
X121638603Y-91464776D01*
X121512178Y-91409932D01*
X121400260Y-91338924D01*
X121303762Y-91252568D01*
X121223600Y-91151679D01*
X121160687Y-91037076D01*
X121116312Y-90910984D01*
X121103978Y-90854401D01*
X121096368Y-90792202D01*
X121092739Y-90717363D01*
X121092245Y-90683467D01*
X121092310Y-90680282D01*
X121852248Y-90680282D01*
X121861541Y-90755333D01*
X121889728Y-90819160D01*
X121938197Y-90874798D01*
X121943254Y-90879211D01*
X121991548Y-90914037D01*
X122043257Y-90936620D01*
X122103989Y-90948540D01*
X122179352Y-90951383D01*
X122197459Y-90950978D01*
X122251278Y-90948325D01*
X122291308Y-90942909D01*
X122326324Y-90932745D01*
X122365103Y-90915850D01*
X122375745Y-90910672D01*
X122436396Y-90874844D01*
X122483215Y-90832212D01*
X122495952Y-90816973D01*
X122540622Y-90760462D01*
X122540622Y-90564586D01*
X122540086Y-90485939D01*
X122538396Y-90427988D01*
X122535428Y-90388875D01*
X122531057Y-90366741D01*
X122526972Y-90360274D01*
X122511047Y-90357111D01*
X122477264Y-90354488D01*
X122430340Y-90352655D01*
X122374993Y-90351857D01*
X122366106Y-90351842D01*
X122245330Y-90357096D01*
X122142660Y-90373263D01*
X122056106Y-90400961D01*
X121983681Y-90440808D01*
X121928751Y-90487758D01*
X121884204Y-90545645D01*
X121859480Y-90608693D01*
X121852248Y-90680282D01*
X121092310Y-90680282D01*
X121094178Y-90589712D01*
X121102522Y-90510812D01*
X121118768Y-90439590D01*
X121144405Y-90368864D01*
X121168401Y-90316493D01*
X121227020Y-90221196D01*
X121305117Y-90133170D01*
X121400315Y-90054017D01*
X121510238Y-89985340D01*
X121632510Y-89928741D01*
X121764755Y-89885821D01*
X121829422Y-89870882D01*
X121965604Y-89848777D01*
X122114049Y-89834194D01*
X122265505Y-89827813D01*
X122392064Y-89829445D01*
X122553950Y-89836224D01*
X122546530Y-89777245D01*
X122527238Y-89678092D01*
X122496104Y-89597372D01*
X122452269Y-89534466D01*
X122394871Y-89488756D01*
X122323048Y-89459622D01*
X122235941Y-89446447D01*
X122132686Y-89448611D01*
X122094711Y-89452612D01*
X121953520Y-89477780D01*
X121816707Y-89518814D01*
X121722178Y-89556815D01*
X121677018Y-89576190D01*
X121638585Y-89591760D01*
X121612234Y-89601405D01*
X121604546Y-89603452D01*
X121594802Y-89594374D01*
X121578083Y-89565405D01*
X121554232Y-89516217D01*
X121523093Y-89446484D01*
X121484507Y-89355879D01*
X121477910Y-89340089D01*
X121447853Y-89267772D01*
X121420874Y-89202425D01*
X121398136Y-89146906D01*
X121380806Y-89104072D01*
X121370048Y-89076781D01*
X121366941Y-89067942D01*
X121376940Y-89063187D01*
X121403217Y-89057910D01*
X121431489Y-89054231D01*
X121461646Y-89049474D01*
X121509433Y-89040028D01*
X121570612Y-89026820D01*
X121640946Y-89010776D01*
X121716194Y-88992820D01*
X121744755Y-88985797D01*
X121849816Y-88960209D01*
X121937480Y-88940147D01*
X122012068Y-88924969D01*
X122077903Y-88914035D01*
X122139307Y-88906704D01*
X122200602Y-88902335D01*
X122266110Y-88900287D01*
X122324128Y-88899889D01*
X122493574Y-88906552D01*
X122493574Y-88906552D01*
G37*
X122493574Y-88906552D02*
X122645492Y-88926567D01*
X122780756Y-88960202D01*
X122900239Y-89007725D01*
X123004815Y-89069405D01*
X123082424Y-89132965D01*
X123151265Y-89207099D01*
X123205006Y-89286871D01*
X123247910Y-89379091D01*
X123263384Y-89422161D01*
X123276244Y-89461142D01*
X123287446Y-89497289D01*
X123297120Y-89532434D01*
X123305396Y-89568410D01*
X123312403Y-89607050D01*
X123318272Y-89650185D01*
X123323131Y-89699649D01*
X123327110Y-89757273D01*
X123330340Y-89824891D01*
X123332949Y-89904334D01*
X123335067Y-89997436D01*
X123336824Y-90106027D01*
X123338349Y-90231942D01*
X123339772Y-90377012D01*
X123341025Y-90519778D01*
X123342351Y-90675968D01*
X123343556Y-90811239D01*
X123344766Y-90927246D01*
X123346106Y-91025645D01*
X123347700Y-91108093D01*
X123349675Y-91176246D01*
X123352156Y-91231760D01*
X123355269Y-91276292D01*
X123359138Y-91311498D01*
X123363889Y-91339034D01*
X123369648Y-91360556D01*
X123376539Y-91377722D01*
X123384689Y-91392186D01*
X123394223Y-91405606D01*
X123405266Y-91419638D01*
X123409566Y-91425071D01*
X123425386Y-91447910D01*
X123432422Y-91463463D01*
X123432444Y-91463922D01*
X123421567Y-91466121D01*
X123390582Y-91468147D01*
X123341957Y-91469942D01*
X123278163Y-91471451D01*
X123201669Y-91472616D01*
X123114944Y-91473380D01*
X123020457Y-91473686D01*
X123009550Y-91473689D01*
X122586657Y-91473689D01*
X122583395Y-91377622D01*
X122580133Y-91281556D01*
X122518044Y-91332543D01*
X122420714Y-91400057D01*
X122310813Y-91454749D01*
X122224349Y-91484978D01*
X122155278Y-91499666D01*
X122071925Y-91509659D01*
X121982159Y-91514646D01*
X121893845Y-91514313D01*
X121814851Y-91508351D01*
X121778622Y-91502638D01*
X121638603Y-91464776D01*
X121512178Y-91409932D01*
X121400260Y-91338924D01*
X121303762Y-91252568D01*
X121223600Y-91151679D01*
X121160687Y-91037076D01*
X121116312Y-90910984D01*
X121103978Y-90854401D01*
X121096368Y-90792202D01*
X121092739Y-90717363D01*
X121092245Y-90683467D01*
X121092310Y-90680282D01*
X121852248Y-90680282D01*
X121861541Y-90755333D01*
X121889728Y-90819160D01*
X121938197Y-90874798D01*
X121943254Y-90879211D01*
X121991548Y-90914037D01*
X122043257Y-90936620D01*
X122103989Y-90948540D01*
X122179352Y-90951383D01*
X122197459Y-90950978D01*
X122251278Y-90948325D01*
X122291308Y-90942909D01*
X122326324Y-90932745D01*
X122365103Y-90915850D01*
X122375745Y-90910672D01*
X122436396Y-90874844D01*
X122483215Y-90832212D01*
X122495952Y-90816973D01*
X122540622Y-90760462D01*
X122540622Y-90564586D01*
X122540086Y-90485939D01*
X122538396Y-90427988D01*
X122535428Y-90388875D01*
X122531057Y-90366741D01*
X122526972Y-90360274D01*
X122511047Y-90357111D01*
X122477264Y-90354488D01*
X122430340Y-90352655D01*
X122374993Y-90351857D01*
X122366106Y-90351842D01*
X122245330Y-90357096D01*
X122142660Y-90373263D01*
X122056106Y-90400961D01*
X121983681Y-90440808D01*
X121928751Y-90487758D01*
X121884204Y-90545645D01*
X121859480Y-90608693D01*
X121852248Y-90680282D01*
X121092310Y-90680282D01*
X121094178Y-90589712D01*
X121102522Y-90510812D01*
X121118768Y-90439590D01*
X121144405Y-90368864D01*
X121168401Y-90316493D01*
X121227020Y-90221196D01*
X121305117Y-90133170D01*
X121400315Y-90054017D01*
X121510238Y-89985340D01*
X121632510Y-89928741D01*
X121764755Y-89885821D01*
X121829422Y-89870882D01*
X121965604Y-89848777D01*
X122114049Y-89834194D01*
X122265505Y-89827813D01*
X122392064Y-89829445D01*
X122553950Y-89836224D01*
X122546530Y-89777245D01*
X122527238Y-89678092D01*
X122496104Y-89597372D01*
X122452269Y-89534466D01*
X122394871Y-89488756D01*
X122323048Y-89459622D01*
X122235941Y-89446447D01*
X122132686Y-89448611D01*
X122094711Y-89452612D01*
X121953520Y-89477780D01*
X121816707Y-89518814D01*
X121722178Y-89556815D01*
X121677018Y-89576190D01*
X121638585Y-89591760D01*
X121612234Y-89601405D01*
X121604546Y-89603452D01*
X121594802Y-89594374D01*
X121578083Y-89565405D01*
X121554232Y-89516217D01*
X121523093Y-89446484D01*
X121484507Y-89355879D01*
X121477910Y-89340089D01*
X121447853Y-89267772D01*
X121420874Y-89202425D01*
X121398136Y-89146906D01*
X121380806Y-89104072D01*
X121370048Y-89076781D01*
X121366941Y-89067942D01*
X121376940Y-89063187D01*
X121403217Y-89057910D01*
X121431489Y-89054231D01*
X121461646Y-89049474D01*
X121509433Y-89040028D01*
X121570612Y-89026820D01*
X121640946Y-89010776D01*
X121716194Y-88992820D01*
X121744755Y-88985797D01*
X121849816Y-88960209D01*
X121937480Y-88940147D01*
X122012068Y-88924969D01*
X122077903Y-88914035D01*
X122139307Y-88906704D01*
X122200602Y-88902335D01*
X122266110Y-88900287D01*
X122324128Y-88899889D01*
X122493574Y-88906552D01*
G36*
X120148429Y-87989071D02*
X120308570Y-88010245D01*
X120472510Y-88050385D01*
X120642313Y-88109889D01*
X120820043Y-88189154D01*
X120831310Y-88194699D01*
X120889005Y-88222725D01*
X120940552Y-88246802D01*
X120982191Y-88265249D01*
X121010162Y-88276386D01*
X121019733Y-88278933D01*
X121038950Y-88283941D01*
X121043561Y-88288147D01*
X121038458Y-88298580D01*
X121022418Y-88324868D01*
X120997288Y-88364257D01*
X120964914Y-88413991D01*
X120927143Y-88471315D01*
X120885822Y-88533476D01*
X120842798Y-88597718D01*
X120799917Y-88661285D01*
X120759026Y-88721425D01*
X120721971Y-88775380D01*
X120690600Y-88820397D01*
X120666759Y-88853721D01*
X120652294Y-88872597D01*
X120650309Y-88874787D01*
X120640191Y-88870138D01*
X120617850Y-88852962D01*
X120587280Y-88826440D01*
X120571536Y-88811964D01*
X120475047Y-88736682D01*
X120368336Y-88681241D01*
X120252832Y-88646141D01*
X120129962Y-88631880D01*
X120060561Y-88633051D01*
X119939423Y-88650212D01*
X119830205Y-88686094D01*
X119732582Y-88740959D01*
X119646228Y-88815070D01*
X119570815Y-88908688D01*
X119506018Y-89022076D01*
X119468601Y-89108667D01*
X119424748Y-89244366D01*
X119392428Y-89391850D01*
X119371557Y-89547314D01*
X119362051Y-89706956D01*
X119363827Y-89866973D01*
X119376803Y-90023561D01*
X119400894Y-90172918D01*
X119436018Y-90311240D01*
X119482092Y-90434724D01*
X119498373Y-90468978D01*
X119566620Y-90583064D01*
X119647079Y-90679557D01*
X119738570Y-90757670D01*
X119839911Y-90816617D01*
X119949920Y-90855612D01*
X120067415Y-90873868D01*
X120108883Y-90875211D01*
X120230441Y-90864290D01*
X120350878Y-90831474D01*
X120468666Y-90777439D01*
X120582277Y-90702865D01*
X120673685Y-90624539D01*
X120720215Y-90580008D01*
X120901483Y-90877271D01*
X120946580Y-90951433D01*
X120987819Y-91019646D01*
X121023735Y-91079459D01*
X121052866Y-91128420D01*
X121073750Y-91164079D01*
X121084924Y-91183984D01*
X121086375Y-91187079D01*
X121078146Y-91196718D01*
X121052567Y-91213999D01*
X121012873Y-91237283D01*
X120962297Y-91264934D01*
X120904074Y-91295315D01*
X120841437Y-91326790D01*
X120777621Y-91357722D01*
X120715860Y-91386473D01*
X120659388Y-91411408D01*
X120611438Y-91430889D01*
X120587986Y-91439318D01*
X120454221Y-91477133D01*
X120316327Y-91502136D01*
X120168622Y-91515140D01*
X120041833Y-91517468D01*
X119973878Y-91516373D01*
X119908277Y-91514275D01*
X119850847Y-91511434D01*
X119807403Y-91508106D01*
X119793298Y-91506422D01*
X119654284Y-91477587D01*
X119512757Y-91432468D01*
X119375275Y-91373750D01*
X119248394Y-91304120D01*
X119170889Y-91251441D01*
X119043481Y-91143239D01*
X118925178Y-91016671D01*
X118818172Y-90874866D01*
X118724652Y-90720951D01*
X118646810Y-90558053D01*
X118602956Y-90440756D01*
X118552708Y-90257128D01*
X118519209Y-90062581D01*
X118502449Y-89861325D01*
X118502416Y-89657568D01*
X118519101Y-89455521D01*
X118552493Y-89259392D01*
X118602580Y-89073391D01*
X118606397Y-89061803D01*
X118669281Y-88899750D01*
X118746028Y-88751832D01*
X118839242Y-88613865D01*
X118951527Y-88481661D01*
X118995392Y-88436399D01*
X119131534Y-88312457D01*
X119271491Y-88209915D01*
X119417411Y-88127656D01*
X119571442Y-88064564D01*
X119735732Y-88019523D01*
X119831289Y-88002033D01*
X119990023Y-87986466D01*
X120148429Y-87989071D01*
X120148429Y-87989071D01*
G37*
X120148429Y-87989071D02*
X120308570Y-88010245D01*
X120472510Y-88050385D01*
X120642313Y-88109889D01*
X120820043Y-88189154D01*
X120831310Y-88194699D01*
X120889005Y-88222725D01*
X120940552Y-88246802D01*
X120982191Y-88265249D01*
X121010162Y-88276386D01*
X121019733Y-88278933D01*
X121038950Y-88283941D01*
X121043561Y-88288147D01*
X121038458Y-88298580D01*
X121022418Y-88324868D01*
X120997288Y-88364257D01*
X120964914Y-88413991D01*
X120927143Y-88471315D01*
X120885822Y-88533476D01*
X120842798Y-88597718D01*
X120799917Y-88661285D01*
X120759026Y-88721425D01*
X120721971Y-88775380D01*
X120690600Y-88820397D01*
X120666759Y-88853721D01*
X120652294Y-88872597D01*
X120650309Y-88874787D01*
X120640191Y-88870138D01*
X120617850Y-88852962D01*
X120587280Y-88826440D01*
X120571536Y-88811964D01*
X120475047Y-88736682D01*
X120368336Y-88681241D01*
X120252832Y-88646141D01*
X120129962Y-88631880D01*
X120060561Y-88633051D01*
X119939423Y-88650212D01*
X119830205Y-88686094D01*
X119732582Y-88740959D01*
X119646228Y-88815070D01*
X119570815Y-88908688D01*
X119506018Y-89022076D01*
X119468601Y-89108667D01*
X119424748Y-89244366D01*
X119392428Y-89391850D01*
X119371557Y-89547314D01*
X119362051Y-89706956D01*
X119363827Y-89866973D01*
X119376803Y-90023561D01*
X119400894Y-90172918D01*
X119436018Y-90311240D01*
X119482092Y-90434724D01*
X119498373Y-90468978D01*
X119566620Y-90583064D01*
X119647079Y-90679557D01*
X119738570Y-90757670D01*
X119839911Y-90816617D01*
X119949920Y-90855612D01*
X120067415Y-90873868D01*
X120108883Y-90875211D01*
X120230441Y-90864290D01*
X120350878Y-90831474D01*
X120468666Y-90777439D01*
X120582277Y-90702865D01*
X120673685Y-90624539D01*
X120720215Y-90580008D01*
X120901483Y-90877271D01*
X120946580Y-90951433D01*
X120987819Y-91019646D01*
X121023735Y-91079459D01*
X121052866Y-91128420D01*
X121073750Y-91164079D01*
X121084924Y-91183984D01*
X121086375Y-91187079D01*
X121078146Y-91196718D01*
X121052567Y-91213999D01*
X121012873Y-91237283D01*
X120962297Y-91264934D01*
X120904074Y-91295315D01*
X120841437Y-91326790D01*
X120777621Y-91357722D01*
X120715860Y-91386473D01*
X120659388Y-91411408D01*
X120611438Y-91430889D01*
X120587986Y-91439318D01*
X120454221Y-91477133D01*
X120316327Y-91502136D01*
X120168622Y-91515140D01*
X120041833Y-91517468D01*
X119973878Y-91516373D01*
X119908277Y-91514275D01*
X119850847Y-91511434D01*
X119807403Y-91508106D01*
X119793298Y-91506422D01*
X119654284Y-91477587D01*
X119512757Y-91432468D01*
X119375275Y-91373750D01*
X119248394Y-91304120D01*
X119170889Y-91251441D01*
X119043481Y-91143239D01*
X118925178Y-91016671D01*
X118818172Y-90874866D01*
X118724652Y-90720951D01*
X118646810Y-90558053D01*
X118602956Y-90440756D01*
X118552708Y-90257128D01*
X118519209Y-90062581D01*
X118502449Y-89861325D01*
X118502416Y-89657568D01*
X118519101Y-89455521D01*
X118552493Y-89259392D01*
X118602580Y-89073391D01*
X118606397Y-89061803D01*
X118669281Y-88899750D01*
X118746028Y-88751832D01*
X118839242Y-88613865D01*
X118951527Y-88481661D01*
X118995392Y-88436399D01*
X119131534Y-88312457D01*
X119271491Y-88209915D01*
X119417411Y-88127656D01*
X119571442Y-88064564D01*
X119735732Y-88019523D01*
X119831289Y-88002033D01*
X119990023Y-87986466D01*
X120148429Y-87989071D01*
G36*
X116873600Y-87529054D02*
X116884465Y-87642993D01*
X116916082Y-87750616D01*
X116966985Y-87849615D01*
X117035707Y-87937684D01*
X117120781Y-88012516D01*
X117217768Y-88070384D01*
X117324036Y-88110005D01*
X117431050Y-88128573D01*
X117536700Y-88127434D01*
X117638875Y-88107930D01*
X117735466Y-88071406D01*
X117824362Y-88019205D01*
X117903454Y-87952673D01*
X117970631Y-87873152D01*
X118023783Y-87781987D01*
X118060801Y-87680523D01*
X118079573Y-87570102D01*
X118081511Y-87520206D01*
X118081511Y-87432267D01*
X118133440Y-87432267D01*
X118169747Y-87435111D01*
X118196645Y-87446911D01*
X118223751Y-87470649D01*
X118262133Y-87509031D01*
X118262133Y-89700602D01*
X118262124Y-89962739D01*
X118262092Y-90203241D01*
X118262028Y-90423048D01*
X118261924Y-90623101D01*
X118261773Y-90804344D01*
X118261566Y-90967716D01*
X118261294Y-91114160D01*
X118260950Y-91244617D01*
X118260526Y-91360029D01*
X118260013Y-91461338D01*
X118259403Y-91549484D01*
X118258688Y-91625410D01*
X118257860Y-91690057D01*
X118256911Y-91744367D01*
X118255833Y-91789280D01*
X118254617Y-91825740D01*
X118253255Y-91854687D01*
X118251739Y-91877063D01*
X118250062Y-91893809D01*
X118248214Y-91905868D01*
X118246187Y-91914180D01*
X118243975Y-91919687D01*
X118242892Y-91921537D01*
X118238729Y-91928549D01*
X118235195Y-91934996D01*
X118231365Y-91940900D01*
X118226318Y-91946286D01*
X118219129Y-91951178D01*
X118208877Y-91955598D01*
X118194636Y-91959572D01*
X118175486Y-91963121D01*
X118150501Y-91966270D01*
X118118760Y-91969042D01*
X118079338Y-91971461D01*
X118031314Y-91973551D01*
X117973763Y-91975335D01*
X117905763Y-91976837D01*
X117826390Y-91978080D01*
X117734721Y-91979089D01*
X117629834Y-91979885D01*
X117510804Y-91980494D01*
X117376710Y-91980939D01*
X117226627Y-91981243D01*
X117059633Y-91981430D01*
X116874804Y-91981524D01*
X116671217Y-91981548D01*
X116447950Y-91981525D01*
X116204078Y-91981480D01*
X115938679Y-91981437D01*
X115900296Y-91981432D01*
X115633318Y-91981389D01*
X115387998Y-91981318D01*
X115163417Y-91981213D01*
X114958655Y-91981066D01*
X114772794Y-91980869D01*
X114604912Y-91980616D01*
X114454092Y-91980300D01*
X114319413Y-91979913D01*
X114199956Y-91979447D01*
X114094801Y-91978897D01*
X114003029Y-91978253D01*
X113923721Y-91977511D01*
X113855957Y-91976661D01*
X113798818Y-91975697D01*
X113751383Y-91974611D01*
X113712734Y-91973397D01*
X113681951Y-91972047D01*
X113658115Y-91970555D01*
X113640306Y-91968911D01*
X113627605Y-91967111D01*
X113619092Y-91965145D01*
X113614734Y-91963477D01*
X113606272Y-91959906D01*
X113598503Y-91957270D01*
X113591398Y-91954634D01*
X113584927Y-91951062D01*
X113579061Y-91945621D01*
X113573771Y-91937375D01*
X113569026Y-91925390D01*
X113564798Y-91908731D01*
X113561057Y-91886463D01*
X113557773Y-91857652D01*
X113554917Y-91821363D01*
X113552460Y-91776661D01*
X113550371Y-91722611D01*
X113548622Y-91658279D01*
X113547183Y-91582730D01*
X113546024Y-91495030D01*
X113545117Y-91394243D01*
X113544431Y-91279434D01*
X113543937Y-91149670D01*
X113543605Y-91004015D01*
X113543407Y-90841535D01*
X113543313Y-90661295D01*
X113543292Y-90462360D01*
X113543315Y-90243796D01*
X113543354Y-90004668D01*
X113543378Y-89744040D01*
X113543378Y-89701889D01*
X113543364Y-89438992D01*
X113543339Y-89197732D01*
X113543329Y-88977165D01*
X113543358Y-88776352D01*
X113543452Y-88594349D01*
X113543638Y-88430216D01*
X113543941Y-88283011D01*
X113544386Y-88151792D01*
X113544966Y-88041867D01*
X113847803Y-88041867D01*
X113887593Y-88099711D01*
X113898764Y-88115479D01*
X113908834Y-88129441D01*
X113917862Y-88142784D01*
X113925903Y-88156693D01*
X113933014Y-88172356D01*
X113939253Y-88190958D01*
X113944675Y-88213686D01*
X113949338Y-88241727D01*
X113953299Y-88276267D01*
X113956615Y-88318492D01*
X113959341Y-88369589D01*
X113961536Y-88430744D01*
X113963255Y-88503144D01*
X113964556Y-88587975D01*
X113965495Y-88686422D01*
X113966130Y-88799674D01*
X113966516Y-88928916D01*
X113966712Y-89075334D01*
X113966773Y-89240116D01*
X113966757Y-89424447D01*
X113966720Y-89629513D01*
X113966711Y-89752133D01*
X113966735Y-89969082D01*
X113966769Y-90164642D01*
X113966757Y-90339999D01*
X113966642Y-90496341D01*
X113966370Y-90634857D01*
X113965882Y-90756734D01*
X113965124Y-90863160D01*
X113964038Y-90955322D01*
X113962569Y-91034409D01*
X113960660Y-91101608D01*
X113958256Y-91158107D01*
X113955299Y-91205093D01*
X113951734Y-91243755D01*
X113947505Y-91275280D01*
X113942554Y-91300855D01*
X113936827Y-91321670D01*
X113930267Y-91338911D01*
X113922817Y-91353765D01*
X113914421Y-91367422D01*
X113905024Y-91381069D01*
X113894568Y-91395893D01*
X113888477Y-91404783D01*
X113849704Y-91462400D01*
X114381268Y-91462400D01*
X114504517Y-91462365D01*
X114607013Y-91462215D01*
X114690580Y-91461878D01*
X114757044Y-91461286D01*
X114808229Y-91460367D01*
X114845959Y-91459051D01*
X114872060Y-91457269D01*
X114888356Y-91454951D01*
X114896672Y-91452026D01*
X114898832Y-91448424D01*
X114896661Y-91444075D01*
X114895465Y-91442645D01*
X114870315Y-91405573D01*
X114844417Y-91352772D01*
X114820808Y-91290770D01*
X114812539Y-91264357D01*
X114807922Y-91246416D01*
X114804021Y-91225355D01*
X114800752Y-91199089D01*
X114798034Y-91165532D01*
X114795785Y-91122599D01*
X114793923Y-91068204D01*
X114792364Y-91000262D01*
X114791028Y-90916688D01*
X114789831Y-90815395D01*
X114788692Y-90694300D01*
X114788315Y-90649600D01*
X114787298Y-90524449D01*
X114786540Y-90420082D01*
X114786097Y-90334707D01*
X114786030Y-90266533D01*
X114786395Y-90213765D01*
X114787252Y-90174614D01*
X114788659Y-90147285D01*
X114790675Y-90129986D01*
X114793357Y-90120926D01*
X114796764Y-90118312D01*
X114800956Y-90120351D01*
X114805429Y-90124667D01*
X114815784Y-90137602D01*
X114837842Y-90166676D01*
X114870043Y-90209759D01*
X114910826Y-90264718D01*
X114958630Y-90329423D01*
X115011895Y-90401742D01*
X115069060Y-90479544D01*
X115128563Y-90560698D01*
X115188845Y-90643072D01*
X115248345Y-90724536D01*
X115305502Y-90802957D01*
X115358755Y-90876204D01*
X115406543Y-90942147D01*
X115447307Y-90998654D01*
X115479484Y-91043593D01*
X115501515Y-91074834D01*
X115506083Y-91081466D01*
X115529004Y-91118369D01*
X115555812Y-91166359D01*
X115581211Y-91215897D01*
X115584432Y-91222577D01*
X115606110Y-91270772D01*
X115618696Y-91308334D01*
X115624426Y-91344160D01*
X115625544Y-91386200D01*
X115624910Y-91462400D01*
X116779349Y-91462400D01*
X116688185Y-91368669D01*
X116641388Y-91318775D01*
X116591101Y-91262295D01*
X116545056Y-91208026D01*
X116524631Y-91182673D01*
X116494193Y-91143128D01*
X116454138Y-91089916D01*
X116405639Y-91024667D01*
X116349865Y-90949011D01*
X116287989Y-90864577D01*
X116221181Y-90772994D01*
X116150613Y-90675892D01*
X116077455Y-90574901D01*
X116002879Y-90471650D01*
X115928056Y-90367768D01*
X115854157Y-90264885D01*
X115782354Y-90164631D01*
X115713816Y-90068636D01*
X115649716Y-89978527D01*
X115591225Y-89895936D01*
X115539514Y-89822492D01*
X115495753Y-89759824D01*
X115461115Y-89709561D01*
X115436770Y-89673334D01*
X115423889Y-89652771D01*
X115422131Y-89648668D01*
X115430090Y-89637342D01*
X115450885Y-89610162D01*
X115483153Y-89568829D01*
X115525530Y-89515044D01*
X115576653Y-89450506D01*
X115635159Y-89376918D01*
X115699686Y-89295978D01*
X115768869Y-89209388D01*
X115841347Y-89118848D01*
X115915754Y-89026060D01*
X115975483Y-88951702D01*
X116986489Y-88951702D01*
X116992398Y-88964659D01*
X117006728Y-88986908D01*
X117007775Y-88988391D01*
X117026562Y-89018544D01*
X117046209Y-89055375D01*
X117050108Y-89063511D01*
X117053644Y-89071940D01*
X117056770Y-89082059D01*
X117059514Y-89095260D01*
X117061908Y-89112938D01*
X117063981Y-89136484D01*
X117065765Y-89167293D01*
X117067288Y-89206757D01*
X117068581Y-89256269D01*
X117069674Y-89317223D01*
X117070597Y-89391011D01*
X117071381Y-89479028D01*
X117072055Y-89582665D01*
X117072650Y-89703316D01*
X117073195Y-89842374D01*
X117073721Y-90001232D01*
X117074255Y-90180089D01*
X117074794Y-90365207D01*
X117075228Y-90529145D01*
X117075491Y-90673303D01*
X117075516Y-90799079D01*
X117075235Y-90907871D01*
X117074581Y-91001077D01*
X117073486Y-91080097D01*
X117071882Y-91146328D01*
X117069703Y-91201170D01*
X117066881Y-91246021D01*
X117063349Y-91282278D01*
X117059039Y-91311341D01*
X117053883Y-91334609D01*
X117047815Y-91353479D01*
X117040767Y-91369351D01*
X117032671Y-91383622D01*
X117023460Y-91397691D01*
X117014960Y-91410158D01*
X116997824Y-91436452D01*
X116987678Y-91454037D01*
X116986489Y-91457257D01*
X116997396Y-91458334D01*
X117028589Y-91459335D01*
X117077777Y-91460235D01*
X117142667Y-91461010D01*
X117220970Y-91461637D01*
X117310393Y-91462091D01*
X117408644Y-91462349D01*
X117477555Y-91462400D01*
X117582548Y-91462180D01*
X117679390Y-91461548D01*
X117765893Y-91460549D01*
X117839868Y-91459227D01*
X117899126Y-91457626D01*
X117941480Y-91455791D01*
X117964740Y-91453765D01*
X117968622Y-91452493D01*
X117960924Y-91437591D01*
X117952926Y-91429560D01*
X117939754Y-91412434D01*
X117922515Y-91382183D01*
X117910593Y-91357622D01*
X117883955Y-91298711D01*
X117880880Y-90121845D01*
X117877805Y-88944978D01*
X117432147Y-88944978D01*
X117334330Y-88945142D01*
X117243936Y-88945611D01*
X117163370Y-88946347D01*
X117095038Y-88947316D01*
X117041344Y-88948480D01*
X117004695Y-88949803D01*
X116987496Y-88951249D01*
X116986489Y-88951702D01*
X115975483Y-88951702D01*
X115990730Y-88932722D01*
X116064910Y-88840537D01*
X116136931Y-88751204D01*
X116205431Y-88666424D01*
X116269045Y-88587898D01*
X116326412Y-88517326D01*
X116376167Y-88456409D01*
X116416948Y-88406847D01*
X116434112Y-88386178D01*
X116520404Y-88285516D01*
X116597003Y-88202259D01*
X116665817Y-88134438D01*
X116728752Y-88080089D01*
X116738133Y-88072722D01*
X116777644Y-88042117D01*
X115645884Y-88041867D01*
X115651173Y-88089844D01*
X115647870Y-88147188D01*
X115626339Y-88215463D01*
X115586365Y-88295212D01*
X115541057Y-88367495D01*
X115524839Y-88390140D01*
X115496786Y-88427696D01*
X115458570Y-88478021D01*
X115411863Y-88538973D01*
X115358339Y-88608411D01*
X115299669Y-88684194D01*
X115237525Y-88764180D01*
X115173579Y-88846228D01*
X115109505Y-88928196D01*
X115046973Y-89007943D01*
X114987657Y-89083327D01*
X114933229Y-89152207D01*
X114885361Y-89212442D01*
X114845725Y-89261889D01*
X114815994Y-89298408D01*
X114797839Y-89319858D01*
X114794780Y-89323156D01*
X114791921Y-89315149D01*
X114789707Y-89284855D01*
X114788143Y-89232556D01*
X114787233Y-89158531D01*
X114786980Y-89063063D01*
X114787387Y-88946434D01*
X114788296Y-88826445D01*
X114789618Y-88694333D01*
X114791143Y-88582594D01*
X114793119Y-88489025D01*
X114795794Y-88411419D01*
X114799418Y-88347574D01*
X114804239Y-88295283D01*
X114810506Y-88252344D01*
X114818468Y-88216551D01*
X114828373Y-88185700D01*
X114840469Y-88157586D01*
X114855007Y-88130005D01*
X114869689Y-88104966D01*
X114907686Y-88041867D01*
X113847803Y-88041867D01*
X113544966Y-88041867D01*
X113544999Y-88035617D01*
X113545805Y-87933544D01*
X113546830Y-87844633D01*
X113548100Y-87767941D01*
X113549640Y-87702527D01*
X113551476Y-87647449D01*
X113553633Y-87601765D01*
X113556137Y-87564534D01*
X113559013Y-87534813D01*
X113562287Y-87511662D01*
X113565985Y-87494139D01*
X113570131Y-87481301D01*
X113574753Y-87472208D01*
X113579874Y-87465918D01*
X113585522Y-87461488D01*
X113591721Y-87457978D01*
X113598496Y-87454445D01*
X113604492Y-87450876D01*
X113609725Y-87448300D01*
X113617901Y-87445972D01*
X113630114Y-87443878D01*
X113647459Y-87442007D01*
X113671031Y-87440347D01*
X113701923Y-87438884D01*
X113741232Y-87437608D01*
X113790050Y-87436504D01*
X113849473Y-87435561D01*
X113920596Y-87434767D01*
X114004512Y-87434109D01*
X114102317Y-87433575D01*
X114215106Y-87433153D01*
X114343971Y-87432829D01*
X114490009Y-87432592D01*
X114654314Y-87432430D01*
X114837980Y-87432330D01*
X115042103Y-87432280D01*
X115253247Y-87432267D01*
X116873600Y-87432267D01*
X116873600Y-87529054D01*
X116873600Y-87529054D01*
G37*
X116873600Y-87529054D02*
X116884465Y-87642993D01*
X116916082Y-87750616D01*
X116966985Y-87849615D01*
X117035707Y-87937684D01*
X117120781Y-88012516D01*
X117217768Y-88070384D01*
X117324036Y-88110005D01*
X117431050Y-88128573D01*
X117536700Y-88127434D01*
X117638875Y-88107930D01*
X117735466Y-88071406D01*
X117824362Y-88019205D01*
X117903454Y-87952673D01*
X117970631Y-87873152D01*
X118023783Y-87781987D01*
X118060801Y-87680523D01*
X118079573Y-87570102D01*
X118081511Y-87520206D01*
X118081511Y-87432267D01*
X118133440Y-87432267D01*
X118169747Y-87435111D01*
X118196645Y-87446911D01*
X118223751Y-87470649D01*
X118262133Y-87509031D01*
X118262133Y-89700602D01*
X118262124Y-89962739D01*
X118262092Y-90203241D01*
X118262028Y-90423048D01*
X118261924Y-90623101D01*
X118261773Y-90804344D01*
X118261566Y-90967716D01*
X118261294Y-91114160D01*
X118260950Y-91244617D01*
X118260526Y-91360029D01*
X118260013Y-91461338D01*
X118259403Y-91549484D01*
X118258688Y-91625410D01*
X118257860Y-91690057D01*
X118256911Y-91744367D01*
X118255833Y-91789280D01*
X118254617Y-91825740D01*
X118253255Y-91854687D01*
X118251739Y-91877063D01*
X118250062Y-91893809D01*
X118248214Y-91905868D01*
X118246187Y-91914180D01*
X118243975Y-91919687D01*
X118242892Y-91921537D01*
X118238729Y-91928549D01*
X118235195Y-91934996D01*
X118231365Y-91940900D01*
X118226318Y-91946286D01*
X118219129Y-91951178D01*
X118208877Y-91955598D01*
X118194636Y-91959572D01*
X118175486Y-91963121D01*
X118150501Y-91966270D01*
X118118760Y-91969042D01*
X118079338Y-91971461D01*
X118031314Y-91973551D01*
X117973763Y-91975335D01*
X117905763Y-91976837D01*
X117826390Y-91978080D01*
X117734721Y-91979089D01*
X117629834Y-91979885D01*
X117510804Y-91980494D01*
X117376710Y-91980939D01*
X117226627Y-91981243D01*
X117059633Y-91981430D01*
X116874804Y-91981524D01*
X116671217Y-91981548D01*
X116447950Y-91981525D01*
X116204078Y-91981480D01*
X115938679Y-91981437D01*
X115900296Y-91981432D01*
X115633318Y-91981389D01*
X115387998Y-91981318D01*
X115163417Y-91981213D01*
X114958655Y-91981066D01*
X114772794Y-91980869D01*
X114604912Y-91980616D01*
X114454092Y-91980300D01*
X114319413Y-91979913D01*
X114199956Y-91979447D01*
X114094801Y-91978897D01*
X114003029Y-91978253D01*
X113923721Y-91977511D01*
X113855957Y-91976661D01*
X113798818Y-91975697D01*
X113751383Y-91974611D01*
X113712734Y-91973397D01*
X113681951Y-91972047D01*
X113658115Y-91970555D01*
X113640306Y-91968911D01*
X113627605Y-91967111D01*
X113619092Y-91965145D01*
X113614734Y-91963477D01*
X113606272Y-91959906D01*
X113598503Y-91957270D01*
X113591398Y-91954634D01*
X113584927Y-91951062D01*
X113579061Y-91945621D01*
X113573771Y-91937375D01*
X113569026Y-91925390D01*
X113564798Y-91908731D01*
X113561057Y-91886463D01*
X113557773Y-91857652D01*
X113554917Y-91821363D01*
X113552460Y-91776661D01*
X113550371Y-91722611D01*
X113548622Y-91658279D01*
X113547183Y-91582730D01*
X113546024Y-91495030D01*
X113545117Y-91394243D01*
X113544431Y-91279434D01*
X113543937Y-91149670D01*
X113543605Y-91004015D01*
X113543407Y-90841535D01*
X113543313Y-90661295D01*
X113543292Y-90462360D01*
X113543315Y-90243796D01*
X113543354Y-90004668D01*
X113543378Y-89744040D01*
X113543378Y-89701889D01*
X113543364Y-89438992D01*
X113543339Y-89197732D01*
X113543329Y-88977165D01*
X113543358Y-88776352D01*
X113543452Y-88594349D01*
X113543638Y-88430216D01*
X113543941Y-88283011D01*
X113544386Y-88151792D01*
X113544966Y-88041867D01*
X113847803Y-88041867D01*
X113887593Y-88099711D01*
X113898764Y-88115479D01*
X113908834Y-88129441D01*
X113917862Y-88142784D01*
X113925903Y-88156693D01*
X113933014Y-88172356D01*
X113939253Y-88190958D01*
X113944675Y-88213686D01*
X113949338Y-88241727D01*
X113953299Y-88276267D01*
X113956615Y-88318492D01*
X113959341Y-88369589D01*
X113961536Y-88430744D01*
X113963255Y-88503144D01*
X113964556Y-88587975D01*
X113965495Y-88686422D01*
X113966130Y-88799674D01*
X113966516Y-88928916D01*
X113966712Y-89075334D01*
X113966773Y-89240116D01*
X113966757Y-89424447D01*
X113966720Y-89629513D01*
X113966711Y-89752133D01*
X113966735Y-89969082D01*
X113966769Y-90164642D01*
X113966757Y-90339999D01*
X113966642Y-90496341D01*
X113966370Y-90634857D01*
X113965882Y-90756734D01*
X113965124Y-90863160D01*
X113964038Y-90955322D01*
X113962569Y-91034409D01*
X113960660Y-91101608D01*
X113958256Y-91158107D01*
X113955299Y-91205093D01*
X113951734Y-91243755D01*
X113947505Y-91275280D01*
X113942554Y-91300855D01*
X113936827Y-91321670D01*
X113930267Y-91338911D01*
X113922817Y-91353765D01*
X113914421Y-91367422D01*
X113905024Y-91381069D01*
X113894568Y-91395893D01*
X113888477Y-91404783D01*
X113849704Y-91462400D01*
X114381268Y-91462400D01*
X114504517Y-91462365D01*
X114607013Y-91462215D01*
X114690580Y-91461878D01*
X114757044Y-91461286D01*
X114808229Y-91460367D01*
X114845959Y-91459051D01*
X114872060Y-91457269D01*
X114888356Y-91454951D01*
X114896672Y-91452026D01*
X114898832Y-91448424D01*
X114896661Y-91444075D01*
X114895465Y-91442645D01*
X114870315Y-91405573D01*
X114844417Y-91352772D01*
X114820808Y-91290770D01*
X114812539Y-91264357D01*
X114807922Y-91246416D01*
X114804021Y-91225355D01*
X114800752Y-91199089D01*
X114798034Y-91165532D01*
X114795785Y-91122599D01*
X114793923Y-91068204D01*
X114792364Y-91000262D01*
X114791028Y-90916688D01*
X114789831Y-90815395D01*
X114788692Y-90694300D01*
X114788315Y-90649600D01*
X114787298Y-90524449D01*
X114786540Y-90420082D01*
X114786097Y-90334707D01*
X114786030Y-90266533D01*
X114786395Y-90213765D01*
X114787252Y-90174614D01*
X114788659Y-90147285D01*
X114790675Y-90129986D01*
X114793357Y-90120926D01*
X114796764Y-90118312D01*
X114800956Y-90120351D01*
X114805429Y-90124667D01*
X114815784Y-90137602D01*
X114837842Y-90166676D01*
X114870043Y-90209759D01*
X114910826Y-90264718D01*
X114958630Y-90329423D01*
X115011895Y-90401742D01*
X115069060Y-90479544D01*
X115128563Y-90560698D01*
X115188845Y-90643072D01*
X115248345Y-90724536D01*
X115305502Y-90802957D01*
X115358755Y-90876204D01*
X115406543Y-90942147D01*
X115447307Y-90998654D01*
X115479484Y-91043593D01*
X115501515Y-91074834D01*
X115506083Y-91081466D01*
X115529004Y-91118369D01*
X115555812Y-91166359D01*
X115581211Y-91215897D01*
X115584432Y-91222577D01*
X115606110Y-91270772D01*
X115618696Y-91308334D01*
X115624426Y-91344160D01*
X115625544Y-91386200D01*
X115624910Y-91462400D01*
X116779349Y-91462400D01*
X116688185Y-91368669D01*
X116641388Y-91318775D01*
X116591101Y-91262295D01*
X116545056Y-91208026D01*
X116524631Y-91182673D01*
X116494193Y-91143128D01*
X116454138Y-91089916D01*
X116405639Y-91024667D01*
X116349865Y-90949011D01*
X116287989Y-90864577D01*
X116221181Y-90772994D01*
X116150613Y-90675892D01*
X116077455Y-90574901D01*
X116002879Y-90471650D01*
X115928056Y-90367768D01*
X115854157Y-90264885D01*
X115782354Y-90164631D01*
X115713816Y-90068636D01*
X115649716Y-89978527D01*
X115591225Y-89895936D01*
X115539514Y-89822492D01*
X115495753Y-89759824D01*
X115461115Y-89709561D01*
X115436770Y-89673334D01*
X115423889Y-89652771D01*
X115422131Y-89648668D01*
X115430090Y-89637342D01*
X115450885Y-89610162D01*
X115483153Y-89568829D01*
X115525530Y-89515044D01*
X115576653Y-89450506D01*
X115635159Y-89376918D01*
X115699686Y-89295978D01*
X115768869Y-89209388D01*
X115841347Y-89118848D01*
X115915754Y-89026060D01*
X115975483Y-88951702D01*
X116986489Y-88951702D01*
X116992398Y-88964659D01*
X117006728Y-88986908D01*
X117007775Y-88988391D01*
X117026562Y-89018544D01*
X117046209Y-89055375D01*
X117050108Y-89063511D01*
X117053644Y-89071940D01*
X117056770Y-89082059D01*
X117059514Y-89095260D01*
X117061908Y-89112938D01*
X117063981Y-89136484D01*
X117065765Y-89167293D01*
X117067288Y-89206757D01*
X117068581Y-89256269D01*
X117069674Y-89317223D01*
X117070597Y-89391011D01*
X117071381Y-89479028D01*
X117072055Y-89582665D01*
X117072650Y-89703316D01*
X117073195Y-89842374D01*
X117073721Y-90001232D01*
X117074255Y-90180089D01*
X117074794Y-90365207D01*
X117075228Y-90529145D01*
X117075491Y-90673303D01*
X117075516Y-90799079D01*
X117075235Y-90907871D01*
X117074581Y-91001077D01*
X117073486Y-91080097D01*
X117071882Y-91146328D01*
X117069703Y-91201170D01*
X117066881Y-91246021D01*
X117063349Y-91282278D01*
X117059039Y-91311341D01*
X117053883Y-91334609D01*
X117047815Y-91353479D01*
X117040767Y-91369351D01*
X117032671Y-91383622D01*
X117023460Y-91397691D01*
X117014960Y-91410158D01*
X116997824Y-91436452D01*
X116987678Y-91454037D01*
X116986489Y-91457257D01*
X116997396Y-91458334D01*
X117028589Y-91459335D01*
X117077777Y-91460235D01*
X117142667Y-91461010D01*
X117220970Y-91461637D01*
X117310393Y-91462091D01*
X117408644Y-91462349D01*
X117477555Y-91462400D01*
X117582548Y-91462180D01*
X117679390Y-91461548D01*
X117765893Y-91460549D01*
X117839868Y-91459227D01*
X117899126Y-91457626D01*
X117941480Y-91455791D01*
X117964740Y-91453765D01*
X117968622Y-91452493D01*
X117960924Y-91437591D01*
X117952926Y-91429560D01*
X117939754Y-91412434D01*
X117922515Y-91382183D01*
X117910593Y-91357622D01*
X117883955Y-91298711D01*
X117880880Y-90121845D01*
X117877805Y-88944978D01*
X117432147Y-88944978D01*
X117334330Y-88945142D01*
X117243936Y-88945611D01*
X117163370Y-88946347D01*
X117095038Y-88947316D01*
X117041344Y-88948480D01*
X117004695Y-88949803D01*
X116987496Y-88951249D01*
X116986489Y-88951702D01*
X115975483Y-88951702D01*
X115990730Y-88932722D01*
X116064910Y-88840537D01*
X116136931Y-88751204D01*
X116205431Y-88666424D01*
X116269045Y-88587898D01*
X116326412Y-88517326D01*
X116376167Y-88456409D01*
X116416948Y-88406847D01*
X116434112Y-88386178D01*
X116520404Y-88285516D01*
X116597003Y-88202259D01*
X116665817Y-88134438D01*
X116728752Y-88080089D01*
X116738133Y-88072722D01*
X116777644Y-88042117D01*
X115645884Y-88041867D01*
X115651173Y-88089844D01*
X115647870Y-88147188D01*
X115626339Y-88215463D01*
X115586365Y-88295212D01*
X115541057Y-88367495D01*
X115524839Y-88390140D01*
X115496786Y-88427696D01*
X115458570Y-88478021D01*
X115411863Y-88538973D01*
X115358339Y-88608411D01*
X115299669Y-88684194D01*
X115237525Y-88764180D01*
X115173579Y-88846228D01*
X115109505Y-88928196D01*
X115046973Y-89007943D01*
X114987657Y-89083327D01*
X114933229Y-89152207D01*
X114885361Y-89212442D01*
X114845725Y-89261889D01*
X114815994Y-89298408D01*
X114797839Y-89319858D01*
X114794780Y-89323156D01*
X114791921Y-89315149D01*
X114789707Y-89284855D01*
X114788143Y-89232556D01*
X114787233Y-89158531D01*
X114786980Y-89063063D01*
X114787387Y-88946434D01*
X114788296Y-88826445D01*
X114789618Y-88694333D01*
X114791143Y-88582594D01*
X114793119Y-88489025D01*
X114795794Y-88411419D01*
X114799418Y-88347574D01*
X114804239Y-88295283D01*
X114810506Y-88252344D01*
X114818468Y-88216551D01*
X114828373Y-88185700D01*
X114840469Y-88157586D01*
X114855007Y-88130005D01*
X114869689Y-88104966D01*
X114907686Y-88041867D01*
X113847803Y-88041867D01*
X113544966Y-88041867D01*
X113544999Y-88035617D01*
X113545805Y-87933544D01*
X113546830Y-87844633D01*
X113548100Y-87767941D01*
X113549640Y-87702527D01*
X113551476Y-87647449D01*
X113553633Y-87601765D01*
X113556137Y-87564534D01*
X113559013Y-87534813D01*
X113562287Y-87511662D01*
X113565985Y-87494139D01*
X113570131Y-87481301D01*
X113574753Y-87472208D01*
X113579874Y-87465918D01*
X113585522Y-87461488D01*
X113591721Y-87457978D01*
X113598496Y-87454445D01*
X113604492Y-87450876D01*
X113609725Y-87448300D01*
X113617901Y-87445972D01*
X113630114Y-87443878D01*
X113647459Y-87442007D01*
X113671031Y-87440347D01*
X113701923Y-87438884D01*
X113741232Y-87437608D01*
X113790050Y-87436504D01*
X113849473Y-87435561D01*
X113920596Y-87434767D01*
X114004512Y-87434109D01*
X114102317Y-87433575D01*
X114215106Y-87433153D01*
X114343971Y-87432829D01*
X114490009Y-87432592D01*
X114654314Y-87432430D01*
X114837980Y-87432330D01*
X115042103Y-87432280D01*
X115253247Y-87432267D01*
X116873600Y-87432267D01*
X116873600Y-87529054D01*
G36*
X126048823Y-92314533D02*
X126080202Y-92336776D01*
X126107911Y-92364485D01*
X126107911Y-92673920D01*
X126107838Y-92765799D01*
X126107495Y-92837840D01*
X126106692Y-92892780D01*
X126105241Y-92933360D01*
X126102952Y-92962317D01*
X126099636Y-92982391D01*
X126095105Y-92996321D01*
X126089169Y-93006845D01*
X126084514Y-93013100D01*
X126053783Y-93037673D01*
X126018496Y-93040341D01*
X125986245Y-93025271D01*
X125975588Y-93016374D01*
X125968464Y-93004557D01*
X125964167Y-92985526D01*
X125961991Y-92954992D01*
X125961228Y-92908662D01*
X125961155Y-92872871D01*
X125961155Y-92738045D01*
X125464444Y-92738045D01*
X125464444Y-92860700D01*
X125463931Y-92916787D01*
X125461876Y-92955333D01*
X125457508Y-92981361D01*
X125450056Y-92999897D01*
X125441047Y-93013100D01*
X125410144Y-93037604D01*
X125375196Y-93040506D01*
X125341738Y-93023089D01*
X125332604Y-93013959D01*
X125326152Y-93001855D01*
X125321897Y-92983001D01*
X125319352Y-92953620D01*
X125318029Y-92909937D01*
X125317443Y-92848175D01*
X125317375Y-92834000D01*
X125316891Y-92717631D01*
X125316641Y-92621727D01*
X125316723Y-92544177D01*
X125317231Y-92482869D01*
X125318262Y-92435690D01*
X125319913Y-92400530D01*
X125322279Y-92375276D01*
X125325457Y-92357817D01*
X125329544Y-92346041D01*
X125334634Y-92337835D01*
X125340266Y-92331645D01*
X125372128Y-92311844D01*
X125405357Y-92314533D01*
X125436735Y-92336776D01*
X125449433Y-92351126D01*
X125457526Y-92366978D01*
X125462042Y-92389554D01*
X125464006Y-92424078D01*
X125464444Y-92475776D01*
X125464444Y-92591289D01*
X125961155Y-92591289D01*
X125961155Y-92472756D01*
X125961662Y-92418148D01*
X125963698Y-92381275D01*
X125968035Y-92357307D01*
X125975447Y-92341415D01*
X125983733Y-92331645D01*
X126015594Y-92311844D01*
X126048823Y-92314533D01*
X126048823Y-92314533D01*
G37*
X126048823Y-92314533D02*
X126080202Y-92336776D01*
X126107911Y-92364485D01*
X126107911Y-92673920D01*
X126107838Y-92765799D01*
X126107495Y-92837840D01*
X126106692Y-92892780D01*
X126105241Y-92933360D01*
X126102952Y-92962317D01*
X126099636Y-92982391D01*
X126095105Y-92996321D01*
X126089169Y-93006845D01*
X126084514Y-93013100D01*
X126053783Y-93037673D01*
X126018496Y-93040341D01*
X125986245Y-93025271D01*
X125975588Y-93016374D01*
X125968464Y-93004557D01*
X125964167Y-92985526D01*
X125961991Y-92954992D01*
X125961228Y-92908662D01*
X125961155Y-92872871D01*
X125961155Y-92738045D01*
X125464444Y-92738045D01*
X125464444Y-92860700D01*
X125463931Y-92916787D01*
X125461876Y-92955333D01*
X125457508Y-92981361D01*
X125450056Y-92999897D01*
X125441047Y-93013100D01*
X125410144Y-93037604D01*
X125375196Y-93040506D01*
X125341738Y-93023089D01*
X125332604Y-93013959D01*
X125326152Y-93001855D01*
X125321897Y-92983001D01*
X125319352Y-92953620D01*
X125318029Y-92909937D01*
X125317443Y-92848175D01*
X125317375Y-92834000D01*
X125316891Y-92717631D01*
X125316641Y-92621727D01*
X125316723Y-92544177D01*
X125317231Y-92482869D01*
X125318262Y-92435690D01*
X125319913Y-92400530D01*
X125322279Y-92375276D01*
X125325457Y-92357817D01*
X125329544Y-92346041D01*
X125334634Y-92337835D01*
X125340266Y-92331645D01*
X125372128Y-92311844D01*
X125405357Y-92314533D01*
X125436735Y-92336776D01*
X125449433Y-92351126D01*
X125457526Y-92366978D01*
X125462042Y-92389554D01*
X125464006Y-92424078D01*
X125464444Y-92475776D01*
X125464444Y-92591289D01*
X125961155Y-92591289D01*
X125961155Y-92472756D01*
X125961662Y-92418148D01*
X125963698Y-92381275D01*
X125968035Y-92357307D01*
X125975447Y-92341415D01*
X125983733Y-92331645D01*
X126015594Y-92311844D01*
X126048823Y-92314533D01*
G36*
X124783065Y-92309163D02*
X124861772Y-92309542D01*
X124922863Y-92310333D01*
X124968817Y-92311670D01*
X125002114Y-92313683D01*
X125025236Y-92316506D01*
X125040662Y-92320269D01*
X125050871Y-92325105D01*
X125055813Y-92328822D01*
X125081457Y-92361358D01*
X125084559Y-92395138D01*
X125068711Y-92425826D01*
X125058348Y-92438089D01*
X125047196Y-92446450D01*
X125031035Y-92451657D01*
X125005642Y-92454457D01*
X124966798Y-92455596D01*
X124910280Y-92455821D01*
X124899180Y-92455822D01*
X124753244Y-92455822D01*
X124753244Y-92726756D01*
X124753148Y-92812154D01*
X124752711Y-92877864D01*
X124751712Y-92926774D01*
X124749928Y-92961773D01*
X124747137Y-92985749D01*
X124743117Y-93001593D01*
X124737645Y-93012191D01*
X124730666Y-93020267D01*
X124697734Y-93040112D01*
X124663354Y-93038548D01*
X124632176Y-93015906D01*
X124629886Y-93013100D01*
X124622429Y-93002492D01*
X124616747Y-92990081D01*
X124612601Y-92972850D01*
X124609750Y-92947784D01*
X124607954Y-92911867D01*
X124606972Y-92862083D01*
X124606564Y-92795417D01*
X124606489Y-92719589D01*
X124606489Y-92455822D01*
X124467127Y-92455822D01*
X124407322Y-92455418D01*
X124365918Y-92453840D01*
X124338748Y-92450547D01*
X124321646Y-92444992D01*
X124310443Y-92436631D01*
X124309083Y-92435178D01*
X124292725Y-92401939D01*
X124294172Y-92364362D01*
X124312978Y-92331645D01*
X124320250Y-92325298D01*
X124329627Y-92320266D01*
X124343609Y-92316396D01*
X124364696Y-92313537D01*
X124395389Y-92311535D01*
X124438189Y-92310239D01*
X124495595Y-92309498D01*
X124570110Y-92309158D01*
X124664233Y-92309068D01*
X124684260Y-92309067D01*
X124783065Y-92309163D01*
X124783065Y-92309163D01*
G37*
X124783065Y-92309163D02*
X124861772Y-92309542D01*
X124922863Y-92310333D01*
X124968817Y-92311670D01*
X125002114Y-92313683D01*
X125025236Y-92316506D01*
X125040662Y-92320269D01*
X125050871Y-92325105D01*
X125055813Y-92328822D01*
X125081457Y-92361358D01*
X125084559Y-92395138D01*
X125068711Y-92425826D01*
X125058348Y-92438089D01*
X125047196Y-92446450D01*
X125031035Y-92451657D01*
X125005642Y-92454457D01*
X124966798Y-92455596D01*
X124910280Y-92455821D01*
X124899180Y-92455822D01*
X124753244Y-92455822D01*
X124753244Y-92726756D01*
X124753148Y-92812154D01*
X124752711Y-92877864D01*
X124751712Y-92926774D01*
X124749928Y-92961773D01*
X124747137Y-92985749D01*
X124743117Y-93001593D01*
X124737645Y-93012191D01*
X124730666Y-93020267D01*
X124697734Y-93040112D01*
X124663354Y-93038548D01*
X124632176Y-93015906D01*
X124629886Y-93013100D01*
X124622429Y-93002492D01*
X124616747Y-92990081D01*
X124612601Y-92972850D01*
X124609750Y-92947784D01*
X124607954Y-92911867D01*
X124606972Y-92862083D01*
X124606564Y-92795417D01*
X124606489Y-92719589D01*
X124606489Y-92455822D01*
X124467127Y-92455822D01*
X124407322Y-92455418D01*
X124365918Y-92453840D01*
X124338748Y-92450547D01*
X124321646Y-92444992D01*
X124310443Y-92436631D01*
X124309083Y-92435178D01*
X124292725Y-92401939D01*
X124294172Y-92364362D01*
X124312978Y-92331645D01*
X124320250Y-92325298D01*
X124329627Y-92320266D01*
X124343609Y-92316396D01*
X124364696Y-92313537D01*
X124395389Y-92311535D01*
X124438189Y-92310239D01*
X124495595Y-92309498D01*
X124570110Y-92309158D01*
X124664233Y-92309068D01*
X124684260Y-92309067D01*
X124783065Y-92309163D01*
G36*
X124008614Y-92315877D02*
X124032327Y-92330647D01*
X124058978Y-92352227D01*
X124058978Y-92673773D01*
X124058893Y-92767830D01*
X124058529Y-92841932D01*
X124057724Y-92898704D01*
X124056313Y-92940768D01*
X124054133Y-92970748D01*
X124051021Y-92991267D01*
X124046814Y-93004949D01*
X124041348Y-93014416D01*
X124037472Y-93019082D01*
X124006034Y-93039575D01*
X123970233Y-93038739D01*
X123938873Y-93021264D01*
X123912222Y-92999684D01*
X123912222Y-92352227D01*
X123938873Y-92330647D01*
X123964594Y-92314949D01*
X123985600Y-92309067D01*
X124008614Y-92315877D01*
X124008614Y-92315877D01*
G37*
X124008614Y-92315877D02*
X124032327Y-92330647D01*
X124058978Y-92352227D01*
X124058978Y-92673773D01*
X124058893Y-92767830D01*
X124058529Y-92841932D01*
X124057724Y-92898704D01*
X124056313Y-92940768D01*
X124054133Y-92970748D01*
X124051021Y-92991267D01*
X124046814Y-93004949D01*
X124041348Y-93014416D01*
X124037472Y-93019082D01*
X124006034Y-93039575D01*
X123970233Y-93038739D01*
X123938873Y-93021264D01*
X123912222Y-92999684D01*
X123912222Y-92352227D01*
X123938873Y-92330647D01*
X123964594Y-92314949D01*
X123985600Y-92309067D01*
X124008614Y-92315877D01*
G36*
X123564665Y-92311034D02*
X123584255Y-92318035D01*
X123585010Y-92318377D01*
X123611613Y-92338678D01*
X123626270Y-92359561D01*
X123629138Y-92369352D01*
X123628996Y-92382361D01*
X123624961Y-92400895D01*
X123616146Y-92427257D01*
X123601669Y-92463752D01*
X123580645Y-92512687D01*
X123552188Y-92576365D01*
X123515415Y-92657093D01*
X123495175Y-92701216D01*
X123458625Y-92779985D01*
X123424315Y-92852423D01*
X123393552Y-92915880D01*
X123367648Y-92967708D01*
X123347910Y-93005259D01*
X123335650Y-93025884D01*
X123333224Y-93028733D01*
X123302183Y-93041302D01*
X123267121Y-93039619D01*
X123239000Y-93024332D01*
X123237854Y-93023089D01*
X123226668Y-93006154D01*
X123207904Y-92973170D01*
X123183875Y-92928380D01*
X123156897Y-92876032D01*
X123147201Y-92856742D01*
X123074014Y-92710150D01*
X122994240Y-92869393D01*
X122965767Y-92924415D01*
X122939350Y-92972132D01*
X122917148Y-93008893D01*
X122901319Y-93031044D01*
X122895954Y-93035741D01*
X122854257Y-93042102D01*
X122819849Y-93028733D01*
X122809728Y-93014446D01*
X122792214Y-92982692D01*
X122768735Y-92936597D01*
X122740720Y-92879285D01*
X122709599Y-92813880D01*
X122676799Y-92743507D01*
X122643750Y-92671291D01*
X122611881Y-92600355D01*
X122582619Y-92533825D01*
X122557395Y-92474826D01*
X122537636Y-92426481D01*
X122524772Y-92391915D01*
X122520231Y-92374253D01*
X122520277Y-92373613D01*
X122531326Y-92351388D01*
X122553410Y-92328753D01*
X122554710Y-92327768D01*
X122581853Y-92312425D01*
X122606958Y-92312574D01*
X122616368Y-92315466D01*
X122627834Y-92321718D01*
X122640010Y-92334014D01*
X122654357Y-92354908D01*
X122672336Y-92386949D01*
X122695407Y-92432688D01*
X122725030Y-92494677D01*
X122751745Y-92551898D01*
X122782480Y-92618226D01*
X122810021Y-92677874D01*
X122832938Y-92727725D01*
X122849798Y-92764664D01*
X122859173Y-92785573D01*
X122860540Y-92788845D01*
X122866689Y-92783497D01*
X122880822Y-92761109D01*
X122901057Y-92724946D01*
X122925515Y-92678277D01*
X122935248Y-92659022D01*
X122968217Y-92594004D01*
X122993643Y-92546654D01*
X123013612Y-92514219D01*
X123030210Y-92493946D01*
X123045524Y-92483082D01*
X123061640Y-92478875D01*
X123072143Y-92478400D01*
X123090670Y-92480042D01*
X123106904Y-92486831D01*
X123123035Y-92501566D01*
X123141251Y-92527044D01*
X123163739Y-92566061D01*
X123192689Y-92621414D01*
X123208662Y-92652903D01*
X123234570Y-92703087D01*
X123257167Y-92744704D01*
X123274458Y-92774242D01*
X123284450Y-92788189D01*
X123285809Y-92788770D01*
X123292261Y-92777793D01*
X123306708Y-92749290D01*
X123327703Y-92706244D01*
X123353797Y-92651638D01*
X123383546Y-92588454D01*
X123398180Y-92557071D01*
X123436250Y-92476078D01*
X123466905Y-92413756D01*
X123491737Y-92368071D01*
X123512337Y-92336989D01*
X123530298Y-92318478D01*
X123547210Y-92310504D01*
X123564665Y-92311034D01*
X123564665Y-92311034D01*
G37*
X123564665Y-92311034D02*
X123584255Y-92318035D01*
X123585010Y-92318377D01*
X123611613Y-92338678D01*
X123626270Y-92359561D01*
X123629138Y-92369352D01*
X123628996Y-92382361D01*
X123624961Y-92400895D01*
X123616146Y-92427257D01*
X123601669Y-92463752D01*
X123580645Y-92512687D01*
X123552188Y-92576365D01*
X123515415Y-92657093D01*
X123495175Y-92701216D01*
X123458625Y-92779985D01*
X123424315Y-92852423D01*
X123393552Y-92915880D01*
X123367648Y-92967708D01*
X123347910Y-93005259D01*
X123335650Y-93025884D01*
X123333224Y-93028733D01*
X123302183Y-93041302D01*
X123267121Y-93039619D01*
X123239000Y-93024332D01*
X123237854Y-93023089D01*
X123226668Y-93006154D01*
X123207904Y-92973170D01*
X123183875Y-92928380D01*
X123156897Y-92876032D01*
X123147201Y-92856742D01*
X123074014Y-92710150D01*
X122994240Y-92869393D01*
X122965767Y-92924415D01*
X122939350Y-92972132D01*
X122917148Y-93008893D01*
X122901319Y-93031044D01*
X122895954Y-93035741D01*
X122854257Y-93042102D01*
X122819849Y-93028733D01*
X122809728Y-93014446D01*
X122792214Y-92982692D01*
X122768735Y-92936597D01*
X122740720Y-92879285D01*
X122709599Y-92813880D01*
X122676799Y-92743507D01*
X122643750Y-92671291D01*
X122611881Y-92600355D01*
X122582619Y-92533825D01*
X122557395Y-92474826D01*
X122537636Y-92426481D01*
X122524772Y-92391915D01*
X122520231Y-92374253D01*
X122520277Y-92373613D01*
X122531326Y-92351388D01*
X122553410Y-92328753D01*
X122554710Y-92327768D01*
X122581853Y-92312425D01*
X122606958Y-92312574D01*
X122616368Y-92315466D01*
X122627834Y-92321718D01*
X122640010Y-92334014D01*
X122654357Y-92354908D01*
X122672336Y-92386949D01*
X122695407Y-92432688D01*
X122725030Y-92494677D01*
X122751745Y-92551898D01*
X122782480Y-92618226D01*
X122810021Y-92677874D01*
X122832938Y-92727725D01*
X122849798Y-92764664D01*
X122859173Y-92785573D01*
X122860540Y-92788845D01*
X122866689Y-92783497D01*
X122880822Y-92761109D01*
X122901057Y-92724946D01*
X122925515Y-92678277D01*
X122935248Y-92659022D01*
X122968217Y-92594004D01*
X122993643Y-92546654D01*
X123013612Y-92514219D01*
X123030210Y-92493946D01*
X123045524Y-92483082D01*
X123061640Y-92478875D01*
X123072143Y-92478400D01*
X123090670Y-92480042D01*
X123106904Y-92486831D01*
X123123035Y-92501566D01*
X123141251Y-92527044D01*
X123163739Y-92566061D01*
X123192689Y-92621414D01*
X123208662Y-92652903D01*
X123234570Y-92703087D01*
X123257167Y-92744704D01*
X123274458Y-92774242D01*
X123284450Y-92788189D01*
X123285809Y-92788770D01*
X123292261Y-92777793D01*
X123306708Y-92749290D01*
X123327703Y-92706244D01*
X123353797Y-92651638D01*
X123383546Y-92588454D01*
X123398180Y-92557071D01*
X123436250Y-92476078D01*
X123466905Y-92413756D01*
X123491737Y-92368071D01*
X123512337Y-92336989D01*
X123530298Y-92318478D01*
X123547210Y-92310504D01*
X123564665Y-92311034D01*
G36*
X120838309Y-92309275D02*
X120967288Y-92313636D01*
X121076991Y-92326861D01*
X121169226Y-92349741D01*
X121245802Y-92383070D01*
X121308527Y-92427638D01*
X121359212Y-92484236D01*
X121399663Y-92553658D01*
X121400459Y-92555351D01*
X121424601Y-92617483D01*
X121433203Y-92672509D01*
X121426231Y-92727887D01*
X121403654Y-92791073D01*
X121399372Y-92800689D01*
X121370172Y-92856966D01*
X121337356Y-92900451D01*
X121295002Y-92937417D01*
X121237190Y-92974135D01*
X121233831Y-92976052D01*
X121183504Y-93000227D01*
X121126621Y-93018282D01*
X121059527Y-93030839D01*
X120978565Y-93038522D01*
X120880082Y-93041953D01*
X120845286Y-93042251D01*
X120679594Y-93042845D01*
X120656197Y-93013100D01*
X120649257Y-93003319D01*
X120643842Y-92991897D01*
X120639765Y-92976095D01*
X120636837Y-92953175D01*
X120634867Y-92920396D01*
X120634225Y-92896089D01*
X120790844Y-92896089D01*
X120884726Y-92896089D01*
X120939664Y-92894483D01*
X120996060Y-92890255D01*
X121042345Y-92884292D01*
X121045139Y-92883790D01*
X121127348Y-92861736D01*
X121191114Y-92828600D01*
X121238452Y-92782847D01*
X121271382Y-92722939D01*
X121277108Y-92707061D01*
X121282721Y-92682333D01*
X121280291Y-92657902D01*
X121268467Y-92625400D01*
X121261340Y-92609434D01*
X121238000Y-92567006D01*
X121209880Y-92537240D01*
X121178940Y-92516511D01*
X121116966Y-92489537D01*
X121037651Y-92469998D01*
X120945253Y-92458746D01*
X120878333Y-92456270D01*
X120790844Y-92455822D01*
X120790844Y-92896089D01*
X120634225Y-92896089D01*
X120633668Y-92875021D01*
X120633050Y-92814311D01*
X120632825Y-92735526D01*
X120632800Y-92673920D01*
X120632800Y-92364485D01*
X120660509Y-92336776D01*
X120672806Y-92325544D01*
X120686103Y-92317853D01*
X120704672Y-92313040D01*
X120732786Y-92310446D01*
X120774717Y-92309410D01*
X120834737Y-92309270D01*
X120838309Y-92309275D01*
X120838309Y-92309275D01*
G37*
X120838309Y-92309275D02*
X120967288Y-92313636D01*
X121076991Y-92326861D01*
X121169226Y-92349741D01*
X121245802Y-92383070D01*
X121308527Y-92427638D01*
X121359212Y-92484236D01*
X121399663Y-92553658D01*
X121400459Y-92555351D01*
X121424601Y-92617483D01*
X121433203Y-92672509D01*
X121426231Y-92727887D01*
X121403654Y-92791073D01*
X121399372Y-92800689D01*
X121370172Y-92856966D01*
X121337356Y-92900451D01*
X121295002Y-92937417D01*
X121237190Y-92974135D01*
X121233831Y-92976052D01*
X121183504Y-93000227D01*
X121126621Y-93018282D01*
X121059527Y-93030839D01*
X120978565Y-93038522D01*
X120880082Y-93041953D01*
X120845286Y-93042251D01*
X120679594Y-93042845D01*
X120656197Y-93013100D01*
X120649257Y-93003319D01*
X120643842Y-92991897D01*
X120639765Y-92976095D01*
X120636837Y-92953175D01*
X120634867Y-92920396D01*
X120634225Y-92896089D01*
X120790844Y-92896089D01*
X120884726Y-92896089D01*
X120939664Y-92894483D01*
X120996060Y-92890255D01*
X121042345Y-92884292D01*
X121045139Y-92883790D01*
X121127348Y-92861736D01*
X121191114Y-92828600D01*
X121238452Y-92782847D01*
X121271382Y-92722939D01*
X121277108Y-92707061D01*
X121282721Y-92682333D01*
X121280291Y-92657902D01*
X121268467Y-92625400D01*
X121261340Y-92609434D01*
X121238000Y-92567006D01*
X121209880Y-92537240D01*
X121178940Y-92516511D01*
X121116966Y-92489537D01*
X121037651Y-92469998D01*
X120945253Y-92458746D01*
X120878333Y-92456270D01*
X120790844Y-92455822D01*
X120790844Y-92896089D01*
X120634225Y-92896089D01*
X120633668Y-92875021D01*
X120633050Y-92814311D01*
X120632825Y-92735526D01*
X120632800Y-92673920D01*
X120632800Y-92364485D01*
X120660509Y-92336776D01*
X120672806Y-92325544D01*
X120686103Y-92317853D01*
X120704672Y-92313040D01*
X120732786Y-92310446D01*
X120774717Y-92309410D01*
X120834737Y-92309270D01*
X120838309Y-92309275D01*
G36*
X120050343Y-92309260D02*
X120126701Y-92310174D01*
X120185217Y-92312311D01*
X120228255Y-92316175D01*
X120258183Y-92322267D01*
X120277368Y-92331090D01*
X120288176Y-92343146D01*
X120292973Y-92358939D01*
X120294127Y-92378970D01*
X120294133Y-92381335D01*
X120293131Y-92403992D01*
X120288396Y-92421503D01*
X120277333Y-92434574D01*
X120257348Y-92443913D01*
X120225846Y-92450227D01*
X120180232Y-92454222D01*
X120117913Y-92456606D01*
X120036293Y-92458086D01*
X120011277Y-92458414D01*
X119769200Y-92461467D01*
X119765814Y-92526378D01*
X119762429Y-92591289D01*
X119930576Y-92591289D01*
X119996266Y-92591531D01*
X120043172Y-92592556D01*
X120075083Y-92594811D01*
X120095791Y-92598742D01*
X120109084Y-92604798D01*
X120118755Y-92613424D01*
X120118817Y-92613493D01*
X120136356Y-92647112D01*
X120135722Y-92683448D01*
X120117314Y-92714423D01*
X120113671Y-92717607D01*
X120100741Y-92725812D01*
X120083024Y-92731521D01*
X120056570Y-92735162D01*
X120017432Y-92737167D01*
X119961662Y-92737964D01*
X119925994Y-92738045D01*
X119763555Y-92738045D01*
X119763555Y-92896089D01*
X120010161Y-92896089D01*
X120091580Y-92896231D01*
X120153410Y-92896814D01*
X120198637Y-92898068D01*
X120230248Y-92900227D01*
X120251231Y-92903523D01*
X120264573Y-92908189D01*
X120273261Y-92914457D01*
X120275450Y-92916733D01*
X120291614Y-92948280D01*
X120292797Y-92984168D01*
X120279536Y-93015285D01*
X120269043Y-93025271D01*
X120258129Y-93030769D01*
X120241217Y-93035022D01*
X120215633Y-93038180D01*
X120178701Y-93040392D01*
X120127746Y-93041806D01*
X120060094Y-93042572D01*
X119973069Y-93042838D01*
X119953394Y-93042845D01*
X119864911Y-93042787D01*
X119796227Y-93042467D01*
X119744564Y-93041667D01*
X119707145Y-93040167D01*
X119681190Y-93037749D01*
X119663922Y-93034194D01*
X119652562Y-93029282D01*
X119644332Y-93022795D01*
X119639817Y-93018138D01*
X119633021Y-93009889D01*
X119627712Y-92999669D01*
X119623706Y-92984800D01*
X119620821Y-92962602D01*
X119618874Y-92930393D01*
X119617681Y-92885496D01*
X119617061Y-92825228D01*
X119616829Y-92746911D01*
X119616800Y-92680994D01*
X119616871Y-92588628D01*
X119617208Y-92516117D01*
X119617998Y-92460737D01*
X119619426Y-92419765D01*
X119621679Y-92390478D01*
X119624943Y-92370153D01*
X119629404Y-92356066D01*
X119635248Y-92345495D01*
X119640197Y-92338811D01*
X119663594Y-92309067D01*
X119953774Y-92309067D01*
X120050343Y-92309260D01*
X120050343Y-92309260D01*
G37*
X120050343Y-92309260D02*
X120126701Y-92310174D01*
X120185217Y-92312311D01*
X120228255Y-92316175D01*
X120258183Y-92322267D01*
X120277368Y-92331090D01*
X120288176Y-92343146D01*
X120292973Y-92358939D01*
X120294127Y-92378970D01*
X120294133Y-92381335D01*
X120293131Y-92403992D01*
X120288396Y-92421503D01*
X120277333Y-92434574D01*
X120257348Y-92443913D01*
X120225846Y-92450227D01*
X120180232Y-92454222D01*
X120117913Y-92456606D01*
X120036293Y-92458086D01*
X120011277Y-92458414D01*
X119769200Y-92461467D01*
X119765814Y-92526378D01*
X119762429Y-92591289D01*
X119930576Y-92591289D01*
X119996266Y-92591531D01*
X120043172Y-92592556D01*
X120075083Y-92594811D01*
X120095791Y-92598742D01*
X120109084Y-92604798D01*
X120118755Y-92613424D01*
X120118817Y-92613493D01*
X120136356Y-92647112D01*
X120135722Y-92683448D01*
X120117314Y-92714423D01*
X120113671Y-92717607D01*
X120100741Y-92725812D01*
X120083024Y-92731521D01*
X120056570Y-92735162D01*
X120017432Y-92737167D01*
X119961662Y-92737964D01*
X119925994Y-92738045D01*
X119763555Y-92738045D01*
X119763555Y-92896089D01*
X120010161Y-92896089D01*
X120091580Y-92896231D01*
X120153410Y-92896814D01*
X120198637Y-92898068D01*
X120230248Y-92900227D01*
X120251231Y-92903523D01*
X120264573Y-92908189D01*
X120273261Y-92914457D01*
X120275450Y-92916733D01*
X120291614Y-92948280D01*
X120292797Y-92984168D01*
X120279536Y-93015285D01*
X120269043Y-93025271D01*
X120258129Y-93030769D01*
X120241217Y-93035022D01*
X120215633Y-93038180D01*
X120178701Y-93040392D01*
X120127746Y-93041806D01*
X120060094Y-93042572D01*
X119973069Y-93042838D01*
X119953394Y-93042845D01*
X119864911Y-93042787D01*
X119796227Y-93042467D01*
X119744564Y-93041667D01*
X119707145Y-93040167D01*
X119681190Y-93037749D01*
X119663922Y-93034194D01*
X119652562Y-93029282D01*
X119644332Y-93022795D01*
X119639817Y-93018138D01*
X119633021Y-93009889D01*
X119627712Y-92999669D01*
X119623706Y-92984800D01*
X119620821Y-92962602D01*
X119618874Y-92930393D01*
X119617681Y-92885496D01*
X119617061Y-92825228D01*
X119616829Y-92746911D01*
X119616800Y-92680994D01*
X119616871Y-92588628D01*
X119617208Y-92516117D01*
X119617998Y-92460737D01*
X119619426Y-92419765D01*
X119621679Y-92390478D01*
X119624943Y-92370153D01*
X119629404Y-92356066D01*
X119635248Y-92345495D01*
X119640197Y-92338811D01*
X119663594Y-92309067D01*
X119953774Y-92309067D01*
X120050343Y-92309260D01*
G36*
X118519886Y-92313448D02*
X118543452Y-92327273D01*
X118574265Y-92349881D01*
X118613922Y-92382338D01*
X118664020Y-92425708D01*
X118726157Y-92481058D01*
X118801928Y-92549451D01*
X118888666Y-92628084D01*
X119069289Y-92791878D01*
X119074933Y-92572029D01*
X119076971Y-92496351D01*
X119078937Y-92439994D01*
X119081266Y-92399706D01*
X119084394Y-92372235D01*
X119088755Y-92354329D01*
X119094784Y-92342737D01*
X119102916Y-92334208D01*
X119107228Y-92330623D01*
X119141759Y-92311670D01*
X119174617Y-92314441D01*
X119200682Y-92330633D01*
X119227333Y-92352199D01*
X119230648Y-92667151D01*
X119231565Y-92759779D01*
X119232032Y-92832544D01*
X119231887Y-92888161D01*
X119230968Y-92929342D01*
X119229113Y-92958803D01*
X119226161Y-92979255D01*
X119221950Y-92993413D01*
X119216318Y-93003991D01*
X119210073Y-93012474D01*
X119196561Y-93028207D01*
X119183117Y-93038636D01*
X119167876Y-93042639D01*
X119148974Y-93039094D01*
X119124545Y-93026879D01*
X119092727Y-93004871D01*
X119051652Y-92971949D01*
X118999458Y-92926991D01*
X118934278Y-92868875D01*
X118860444Y-92802099D01*
X118595155Y-92561458D01*
X118589511Y-92780589D01*
X118587469Y-92856128D01*
X118585498Y-92912354D01*
X118583161Y-92952524D01*
X118580019Y-92979896D01*
X118575636Y-92997728D01*
X118569576Y-93009279D01*
X118561400Y-93017807D01*
X118557216Y-93021282D01*
X118520235Y-93040372D01*
X118485292Y-93037493D01*
X118454864Y-93013100D01*
X118447903Y-93003286D01*
X118442477Y-92991826D01*
X118438397Y-92975968D01*
X118435471Y-92952963D01*
X118433508Y-92920062D01*
X118432317Y-92874516D01*
X118431708Y-92813573D01*
X118431489Y-92734486D01*
X118431466Y-92675956D01*
X118431540Y-92584407D01*
X118431887Y-92512687D01*
X118432699Y-92458045D01*
X118434167Y-92417732D01*
X118436481Y-92388998D01*
X118439833Y-92369093D01*
X118444412Y-92355268D01*
X118450411Y-92344772D01*
X118454864Y-92338811D01*
X118466150Y-92324691D01*
X118476699Y-92314029D01*
X118488107Y-92307892D01*
X118501970Y-92307343D01*
X118519886Y-92313448D01*
X118519886Y-92313448D01*
G37*
X118519886Y-92313448D02*
X118543452Y-92327273D01*
X118574265Y-92349881D01*
X118613922Y-92382338D01*
X118664020Y-92425708D01*
X118726157Y-92481058D01*
X118801928Y-92549451D01*
X118888666Y-92628084D01*
X119069289Y-92791878D01*
X119074933Y-92572029D01*
X119076971Y-92496351D01*
X119078937Y-92439994D01*
X119081266Y-92399706D01*
X119084394Y-92372235D01*
X119088755Y-92354329D01*
X119094784Y-92342737D01*
X119102916Y-92334208D01*
X119107228Y-92330623D01*
X119141759Y-92311670D01*
X119174617Y-92314441D01*
X119200682Y-92330633D01*
X119227333Y-92352199D01*
X119230648Y-92667151D01*
X119231565Y-92759779D01*
X119232032Y-92832544D01*
X119231887Y-92888161D01*
X119230968Y-92929342D01*
X119229113Y-92958803D01*
X119226161Y-92979255D01*
X119221950Y-92993413D01*
X119216318Y-93003991D01*
X119210073Y-93012474D01*
X119196561Y-93028207D01*
X119183117Y-93038636D01*
X119167876Y-93042639D01*
X119148974Y-93039094D01*
X119124545Y-93026879D01*
X119092727Y-93004871D01*
X119051652Y-92971949D01*
X118999458Y-92926991D01*
X118934278Y-92868875D01*
X118860444Y-92802099D01*
X118595155Y-92561458D01*
X118589511Y-92780589D01*
X118587469Y-92856128D01*
X118585498Y-92912354D01*
X118583161Y-92952524D01*
X118580019Y-92979896D01*
X118575636Y-92997728D01*
X118569576Y-93009279D01*
X118561400Y-93017807D01*
X118557216Y-93021282D01*
X118520235Y-93040372D01*
X118485292Y-93037493D01*
X118454864Y-93013100D01*
X118447903Y-93003286D01*
X118442477Y-92991826D01*
X118438397Y-92975968D01*
X118435471Y-92952963D01*
X118433508Y-92920062D01*
X118432317Y-92874516D01*
X118431708Y-92813573D01*
X118431489Y-92734486D01*
X118431466Y-92675956D01*
X118431540Y-92584407D01*
X118431887Y-92512687D01*
X118432699Y-92458045D01*
X118434167Y-92417732D01*
X118436481Y-92388998D01*
X118439833Y-92369093D01*
X118444412Y-92355268D01*
X118450411Y-92344772D01*
X118454864Y-92338811D01*
X118466150Y-92324691D01*
X118476699Y-92314029D01*
X118488107Y-92307892D01*
X118501970Y-92307343D01*
X118519886Y-92313448D01*
G36*
X117869919Y-92314599D02*
X117938435Y-92326095D01*
X117991057Y-92343967D01*
X118025292Y-92367499D01*
X118034621Y-92380924D01*
X118044107Y-92412148D01*
X118037723Y-92440395D01*
X118017570Y-92467182D01*
X117986255Y-92479713D01*
X117940817Y-92478696D01*
X117905674Y-92471906D01*
X117827581Y-92458971D01*
X117747774Y-92457742D01*
X117658445Y-92468241D01*
X117633771Y-92472690D01*
X117550709Y-92496108D01*
X117485727Y-92530945D01*
X117439539Y-92576604D01*
X117412855Y-92632494D01*
X117407337Y-92661388D01*
X117410949Y-92720012D01*
X117434271Y-92771879D01*
X117475176Y-92815978D01*
X117531541Y-92851299D01*
X117601240Y-92876829D01*
X117682148Y-92891559D01*
X117772140Y-92894478D01*
X117869090Y-92884575D01*
X117874564Y-92883641D01*
X117913125Y-92876459D01*
X117934506Y-92869521D01*
X117943773Y-92859227D01*
X117945994Y-92841976D01*
X117946044Y-92832841D01*
X117946044Y-92794489D01*
X117877569Y-92794489D01*
X117817100Y-92790347D01*
X117775835Y-92777147D01*
X117751825Y-92753730D01*
X117743123Y-92718936D01*
X117743017Y-92714394D01*
X117748108Y-92684654D01*
X117765567Y-92663419D01*
X117798061Y-92649366D01*
X117848257Y-92641173D01*
X117896877Y-92638161D01*
X117967544Y-92636433D01*
X118018802Y-92639070D01*
X118053761Y-92648800D01*
X118075530Y-92668353D01*
X118087220Y-92700456D01*
X118091940Y-92747838D01*
X118092800Y-92810071D01*
X118091391Y-92879535D01*
X118087152Y-92926786D01*
X118080064Y-92952012D01*
X118078689Y-92953988D01*
X118039772Y-92985508D01*
X117982714Y-93010470D01*
X117911131Y-93028340D01*
X117828642Y-93038586D01*
X117738861Y-93040673D01*
X117645408Y-93034068D01*
X117590444Y-93025956D01*
X117504234Y-93001554D01*
X117424108Y-92961662D01*
X117357023Y-92909887D01*
X117346827Y-92899539D01*
X117313698Y-92856035D01*
X117283806Y-92802118D01*
X117260643Y-92745592D01*
X117247702Y-92694259D01*
X117246142Y-92674544D01*
X117252782Y-92633419D01*
X117270432Y-92582252D01*
X117295703Y-92528394D01*
X117325211Y-92479195D01*
X117351281Y-92446334D01*
X117412235Y-92397452D01*
X117491031Y-92358545D01*
X117584843Y-92330494D01*
X117690850Y-92314179D01*
X117788000Y-92310192D01*
X117869919Y-92314599D01*
X117869919Y-92314599D01*
G37*
X117869919Y-92314599D02*
X117938435Y-92326095D01*
X117991057Y-92343967D01*
X118025292Y-92367499D01*
X118034621Y-92380924D01*
X118044107Y-92412148D01*
X118037723Y-92440395D01*
X118017570Y-92467182D01*
X117986255Y-92479713D01*
X117940817Y-92478696D01*
X117905674Y-92471906D01*
X117827581Y-92458971D01*
X117747774Y-92457742D01*
X117658445Y-92468241D01*
X117633771Y-92472690D01*
X117550709Y-92496108D01*
X117485727Y-92530945D01*
X117439539Y-92576604D01*
X117412855Y-92632494D01*
X117407337Y-92661388D01*
X117410949Y-92720012D01*
X117434271Y-92771879D01*
X117475176Y-92815978D01*
X117531541Y-92851299D01*
X117601240Y-92876829D01*
X117682148Y-92891559D01*
X117772140Y-92894478D01*
X117869090Y-92884575D01*
X117874564Y-92883641D01*
X117913125Y-92876459D01*
X117934506Y-92869521D01*
X117943773Y-92859227D01*
X117945994Y-92841976D01*
X117946044Y-92832841D01*
X117946044Y-92794489D01*
X117877569Y-92794489D01*
X117817100Y-92790347D01*
X117775835Y-92777147D01*
X117751825Y-92753730D01*
X117743123Y-92718936D01*
X117743017Y-92714394D01*
X117748108Y-92684654D01*
X117765567Y-92663419D01*
X117798061Y-92649366D01*
X117848257Y-92641173D01*
X117896877Y-92638161D01*
X117967544Y-92636433D01*
X118018802Y-92639070D01*
X118053761Y-92648800D01*
X118075530Y-92668353D01*
X118087220Y-92700456D01*
X118091940Y-92747838D01*
X118092800Y-92810071D01*
X118091391Y-92879535D01*
X118087152Y-92926786D01*
X118080064Y-92952012D01*
X118078689Y-92953988D01*
X118039772Y-92985508D01*
X117982714Y-93010470D01*
X117911131Y-93028340D01*
X117828642Y-93038586D01*
X117738861Y-93040673D01*
X117645408Y-93034068D01*
X117590444Y-93025956D01*
X117504234Y-93001554D01*
X117424108Y-92961662D01*
X117357023Y-92909887D01*
X117346827Y-92899539D01*
X117313698Y-92856035D01*
X117283806Y-92802118D01*
X117260643Y-92745592D01*
X117247702Y-92694259D01*
X117246142Y-92674544D01*
X117252782Y-92633419D01*
X117270432Y-92582252D01*
X117295703Y-92528394D01*
X117325211Y-92479195D01*
X117351281Y-92446334D01*
X117412235Y-92397452D01*
X117491031Y-92358545D01*
X117584843Y-92330494D01*
X117690850Y-92314179D01*
X117788000Y-92310192D01*
X117869919Y-92314599D01*
G36*
X116896178Y-92331645D02*
X116902758Y-92339218D01*
X116907921Y-92348987D01*
X116911836Y-92363571D01*
X116914676Y-92385585D01*
X116916613Y-92417648D01*
X116917817Y-92462375D01*
X116918461Y-92522385D01*
X116918716Y-92600294D01*
X116918755Y-92675956D01*
X116918686Y-92769802D01*
X116918362Y-92843689D01*
X116917614Y-92900232D01*
X116916268Y-92942049D01*
X116914154Y-92971757D01*
X116911100Y-92991973D01*
X116906934Y-93005314D01*
X116901484Y-93014398D01*
X116896178Y-93020267D01*
X116863174Y-93039947D01*
X116828009Y-93038181D01*
X116796545Y-93016717D01*
X116789316Y-93008337D01*
X116783666Y-92998614D01*
X116779401Y-92984861D01*
X116776327Y-92964389D01*
X116774248Y-92934512D01*
X116772970Y-92892541D01*
X116772299Y-92835789D01*
X116772041Y-92761567D01*
X116772000Y-92677537D01*
X116772000Y-92364485D01*
X116799709Y-92336776D01*
X116833863Y-92313463D01*
X116866994Y-92312623D01*
X116896178Y-92331645D01*
X116896178Y-92331645D01*
G37*
X116896178Y-92331645D02*
X116902758Y-92339218D01*
X116907921Y-92348987D01*
X116911836Y-92363571D01*
X116914676Y-92385585D01*
X116916613Y-92417648D01*
X116917817Y-92462375D01*
X116918461Y-92522385D01*
X116918716Y-92600294D01*
X116918755Y-92675956D01*
X116918686Y-92769802D01*
X116918362Y-92843689D01*
X116917614Y-92900232D01*
X116916268Y-92942049D01*
X116914154Y-92971757D01*
X116911100Y-92991973D01*
X116906934Y-93005314D01*
X116901484Y-93014398D01*
X116896178Y-93020267D01*
X116863174Y-93039947D01*
X116828009Y-93038181D01*
X116796545Y-93016717D01*
X116789316Y-93008337D01*
X116783666Y-92998614D01*
X116779401Y-92984861D01*
X116776327Y-92964389D01*
X116774248Y-92934512D01*
X116772970Y-92892541D01*
X116772299Y-92835789D01*
X116772041Y-92761567D01*
X116772000Y-92677537D01*
X116772000Y-92364485D01*
X116799709Y-92336776D01*
X116833863Y-92313463D01*
X116866994Y-92312623D01*
X116896178Y-92331645D01*
G36*
X116128297Y-92310351D02*
X116203112Y-92315581D01*
X116272694Y-92323750D01*
X116332998Y-92334550D01*
X116379980Y-92347673D01*
X116409594Y-92362813D01*
X116414140Y-92367269D01*
X116429946Y-92401850D01*
X116425153Y-92437351D01*
X116400636Y-92467725D01*
X116399466Y-92468596D01*
X116385046Y-92477954D01*
X116369992Y-92482876D01*
X116348995Y-92483473D01*
X116316743Y-92479861D01*
X116267927Y-92472154D01*
X116264000Y-92471505D01*
X116191261Y-92462569D01*
X116112783Y-92458161D01*
X116034073Y-92458119D01*
X115960639Y-92462279D01*
X115897989Y-92470479D01*
X115851630Y-92482557D01*
X115848584Y-92483771D01*
X115814952Y-92502615D01*
X115803136Y-92521685D01*
X115812386Y-92540439D01*
X115841953Y-92558337D01*
X115891089Y-92574837D01*
X115959043Y-92589396D01*
X116004355Y-92596406D01*
X116098544Y-92609889D01*
X116173456Y-92622214D01*
X116232283Y-92634449D01*
X116278215Y-92647661D01*
X116314445Y-92662917D01*
X116344162Y-92681285D01*
X116370558Y-92703831D01*
X116391770Y-92725971D01*
X116416935Y-92756819D01*
X116429319Y-92783345D01*
X116433192Y-92816026D01*
X116433333Y-92827995D01*
X116430424Y-92867712D01*
X116418798Y-92897259D01*
X116398677Y-92923486D01*
X116357784Y-92963576D01*
X116312183Y-92994149D01*
X116258487Y-93016203D01*
X116193308Y-93030735D01*
X116113256Y-93038741D01*
X116014943Y-93041218D01*
X115998711Y-93041177D01*
X115933151Y-93039818D01*
X115868134Y-93036730D01*
X115810748Y-93032356D01*
X115768078Y-93027140D01*
X115764628Y-93026541D01*
X115722204Y-93016491D01*
X115686220Y-93003796D01*
X115665850Y-92992190D01*
X115646893Y-92961572D01*
X115645573Y-92925918D01*
X115661915Y-92894144D01*
X115665571Y-92890551D01*
X115680685Y-92879876D01*
X115699585Y-92875276D01*
X115728838Y-92876059D01*
X115764349Y-92880127D01*
X115804030Y-92883762D01*
X115859655Y-92886828D01*
X115924594Y-92889053D01*
X115992215Y-92890164D01*
X116010000Y-92890237D01*
X116077872Y-92889964D01*
X116127546Y-92888646D01*
X116163390Y-92885827D01*
X116189776Y-92881050D01*
X116211074Y-92873857D01*
X116223874Y-92867867D01*
X116252000Y-92851233D01*
X116269932Y-92836168D01*
X116272553Y-92831897D01*
X116267024Y-92814263D01*
X116240740Y-92797192D01*
X116195522Y-92781458D01*
X116133192Y-92767838D01*
X116114829Y-92764804D01*
X116018910Y-92749738D01*
X115942359Y-92737146D01*
X115882220Y-92726111D01*
X115835540Y-92715720D01*
X115799363Y-92705056D01*
X115770735Y-92693205D01*
X115746702Y-92679251D01*
X115724308Y-92662281D01*
X115700598Y-92641378D01*
X115692620Y-92634049D01*
X115664647Y-92606699D01*
X115649840Y-92585029D01*
X115644048Y-92560232D01*
X115643111Y-92528983D01*
X115653425Y-92467705D01*
X115684248Y-92415640D01*
X115735405Y-92372958D01*
X115806717Y-92339825D01*
X115857600Y-92324964D01*
X115912900Y-92315366D01*
X115979147Y-92309936D01*
X116052294Y-92308367D01*
X116128297Y-92310351D01*
X116128297Y-92310351D01*
G37*
X116128297Y-92310351D02*
X116203112Y-92315581D01*
X116272694Y-92323750D01*
X116332998Y-92334550D01*
X116379980Y-92347673D01*
X116409594Y-92362813D01*
X116414140Y-92367269D01*
X116429946Y-92401850D01*
X116425153Y-92437351D01*
X116400636Y-92467725D01*
X116399466Y-92468596D01*
X116385046Y-92477954D01*
X116369992Y-92482876D01*
X116348995Y-92483473D01*
X116316743Y-92479861D01*
X116267927Y-92472154D01*
X116264000Y-92471505D01*
X116191261Y-92462569D01*
X116112783Y-92458161D01*
X116034073Y-92458119D01*
X115960639Y-92462279D01*
X115897989Y-92470479D01*
X115851630Y-92482557D01*
X115848584Y-92483771D01*
X115814952Y-92502615D01*
X115803136Y-92521685D01*
X115812386Y-92540439D01*
X115841953Y-92558337D01*
X115891089Y-92574837D01*
X115959043Y-92589396D01*
X116004355Y-92596406D01*
X116098544Y-92609889D01*
X116173456Y-92622214D01*
X116232283Y-92634449D01*
X116278215Y-92647661D01*
X116314445Y-92662917D01*
X116344162Y-92681285D01*
X116370558Y-92703831D01*
X116391770Y-92725971D01*
X116416935Y-92756819D01*
X116429319Y-92783345D01*
X116433192Y-92816026D01*
X116433333Y-92827995D01*
X116430424Y-92867712D01*
X116418798Y-92897259D01*
X116398677Y-92923486D01*
X116357784Y-92963576D01*
X116312183Y-92994149D01*
X116258487Y-93016203D01*
X116193308Y-93030735D01*
X116113256Y-93038741D01*
X116014943Y-93041218D01*
X115998711Y-93041177D01*
X115933151Y-93039818D01*
X115868134Y-93036730D01*
X115810748Y-93032356D01*
X115768078Y-93027140D01*
X115764628Y-93026541D01*
X115722204Y-93016491D01*
X115686220Y-93003796D01*
X115665850Y-92992190D01*
X115646893Y-92961572D01*
X115645573Y-92925918D01*
X115661915Y-92894144D01*
X115665571Y-92890551D01*
X115680685Y-92879876D01*
X115699585Y-92875276D01*
X115728838Y-92876059D01*
X115764349Y-92880127D01*
X115804030Y-92883762D01*
X115859655Y-92886828D01*
X115924594Y-92889053D01*
X115992215Y-92890164D01*
X116010000Y-92890237D01*
X116077872Y-92889964D01*
X116127546Y-92888646D01*
X116163390Y-92885827D01*
X116189776Y-92881050D01*
X116211074Y-92873857D01*
X116223874Y-92867867D01*
X116252000Y-92851233D01*
X116269932Y-92836168D01*
X116272553Y-92831897D01*
X116267024Y-92814263D01*
X116240740Y-92797192D01*
X116195522Y-92781458D01*
X116133192Y-92767838D01*
X116114829Y-92764804D01*
X116018910Y-92749738D01*
X115942359Y-92737146D01*
X115882220Y-92726111D01*
X115835540Y-92715720D01*
X115799363Y-92705056D01*
X115770735Y-92693205D01*
X115746702Y-92679251D01*
X115724308Y-92662281D01*
X115700598Y-92641378D01*
X115692620Y-92634049D01*
X115664647Y-92606699D01*
X115649840Y-92585029D01*
X115644048Y-92560232D01*
X115643111Y-92528983D01*
X115653425Y-92467705D01*
X115684248Y-92415640D01*
X115735405Y-92372958D01*
X115806717Y-92339825D01*
X115857600Y-92324964D01*
X115912900Y-92315366D01*
X115979147Y-92309936D01*
X116052294Y-92308367D01*
X116128297Y-92310351D01*
G36*
X115107206Y-92309146D02*
X115176614Y-92309518D01*
X115229003Y-92310385D01*
X115267153Y-92311946D01*
X115293841Y-92314403D01*
X115311847Y-92317957D01*
X115323951Y-92322810D01*
X115332931Y-92329161D01*
X115336182Y-92332084D01*
X115355957Y-92363142D01*
X115359518Y-92398828D01*
X115346509Y-92430510D01*
X115340494Y-92436913D01*
X115330765Y-92443121D01*
X115315099Y-92447910D01*
X115290592Y-92451514D01*
X115254339Y-92454164D01*
X115203435Y-92456095D01*
X115134974Y-92457539D01*
X115072383Y-92458418D01*
X114824666Y-92461467D01*
X114821281Y-92526378D01*
X114817895Y-92591289D01*
X114986042Y-92591289D01*
X115059041Y-92591919D01*
X115112483Y-92594553D01*
X115149372Y-92600309D01*
X115172712Y-92610304D01*
X115185506Y-92625656D01*
X115190758Y-92647482D01*
X115191555Y-92667738D01*
X115189077Y-92692592D01*
X115179723Y-92710906D01*
X115160617Y-92723637D01*
X115128882Y-92731741D01*
X115081641Y-92736176D01*
X115016017Y-92737899D01*
X114980199Y-92738045D01*
X114819022Y-92738045D01*
X114819022Y-92896089D01*
X115067378Y-92896089D01*
X115148787Y-92896202D01*
X115210658Y-92896712D01*
X115256032Y-92897870D01*
X115287946Y-92899930D01*
X115309441Y-92903146D01*
X115323557Y-92907772D01*
X115333332Y-92914059D01*
X115338311Y-92918667D01*
X115355390Y-92945560D01*
X115360889Y-92969467D01*
X115353037Y-92998667D01*
X115338311Y-93020267D01*
X115330454Y-93027066D01*
X115320312Y-93032346D01*
X115305156Y-93036298D01*
X115282259Y-93039113D01*
X115248891Y-93040982D01*
X115202325Y-93042098D01*
X115139833Y-93042651D01*
X115058686Y-93042833D01*
X115016578Y-93042845D01*
X114926402Y-93042765D01*
X114856076Y-93042398D01*
X114802871Y-93041552D01*
X114764060Y-93040036D01*
X114736913Y-93037659D01*
X114718702Y-93034229D01*
X114706700Y-93029554D01*
X114698178Y-93023444D01*
X114694844Y-93020267D01*
X114688245Y-93012670D01*
X114683073Y-93002870D01*
X114679154Y-92988239D01*
X114676316Y-92966152D01*
X114674385Y-92933982D01*
X114673188Y-92889103D01*
X114672552Y-92828889D01*
X114672303Y-92750713D01*
X114672266Y-92677923D01*
X114672300Y-92584707D01*
X114672535Y-92511431D01*
X114673170Y-92455458D01*
X114674406Y-92414151D01*
X114676444Y-92384872D01*
X114679483Y-92364984D01*
X114683723Y-92351850D01*
X114689365Y-92342832D01*
X114696609Y-92335293D01*
X114698394Y-92333612D01*
X114707055Y-92326172D01*
X114717118Y-92320409D01*
X114731375Y-92316112D01*
X114752617Y-92313064D01*
X114783636Y-92311051D01*
X114827223Y-92309860D01*
X114886169Y-92309275D01*
X114963266Y-92309083D01*
X115017999Y-92309067D01*
X115107206Y-92309146D01*
X115107206Y-92309146D01*
G37*
X115107206Y-92309146D02*
X115176614Y-92309518D01*
X115229003Y-92310385D01*
X115267153Y-92311946D01*
X115293841Y-92314403D01*
X115311847Y-92317957D01*
X115323951Y-92322810D01*
X115332931Y-92329161D01*
X115336182Y-92332084D01*
X115355957Y-92363142D01*
X115359518Y-92398828D01*
X115346509Y-92430510D01*
X115340494Y-92436913D01*
X115330765Y-92443121D01*
X115315099Y-92447910D01*
X115290592Y-92451514D01*
X115254339Y-92454164D01*
X115203435Y-92456095D01*
X115134974Y-92457539D01*
X115072383Y-92458418D01*
X114824666Y-92461467D01*
X114821281Y-92526378D01*
X114817895Y-92591289D01*
X114986042Y-92591289D01*
X115059041Y-92591919D01*
X115112483Y-92594553D01*
X115149372Y-92600309D01*
X115172712Y-92610304D01*
X115185506Y-92625656D01*
X115190758Y-92647482D01*
X115191555Y-92667738D01*
X115189077Y-92692592D01*
X115179723Y-92710906D01*
X115160617Y-92723637D01*
X115128882Y-92731741D01*
X115081641Y-92736176D01*
X115016017Y-92737899D01*
X114980199Y-92738045D01*
X114819022Y-92738045D01*
X114819022Y-92896089D01*
X115067378Y-92896089D01*
X115148787Y-92896202D01*
X115210658Y-92896712D01*
X115256032Y-92897870D01*
X115287946Y-92899930D01*
X115309441Y-92903146D01*
X115323557Y-92907772D01*
X115333332Y-92914059D01*
X115338311Y-92918667D01*
X115355390Y-92945560D01*
X115360889Y-92969467D01*
X115353037Y-92998667D01*
X115338311Y-93020267D01*
X115330454Y-93027066D01*
X115320312Y-93032346D01*
X115305156Y-93036298D01*
X115282259Y-93039113D01*
X115248891Y-93040982D01*
X115202325Y-93042098D01*
X115139833Y-93042651D01*
X115058686Y-93042833D01*
X115016578Y-93042845D01*
X114926402Y-93042765D01*
X114856076Y-93042398D01*
X114802871Y-93041552D01*
X114764060Y-93040036D01*
X114736913Y-93037659D01*
X114718702Y-93034229D01*
X114706700Y-93029554D01*
X114698178Y-93023444D01*
X114694844Y-93020267D01*
X114688245Y-93012670D01*
X114683073Y-93002870D01*
X114679154Y-92988239D01*
X114676316Y-92966152D01*
X114674385Y-92933982D01*
X114673188Y-92889103D01*
X114672552Y-92828889D01*
X114672303Y-92750713D01*
X114672266Y-92677923D01*
X114672300Y-92584707D01*
X114672535Y-92511431D01*
X114673170Y-92455458D01*
X114674406Y-92414151D01*
X114676444Y-92384872D01*
X114679483Y-92364984D01*
X114683723Y-92351850D01*
X114689365Y-92342832D01*
X114696609Y-92335293D01*
X114698394Y-92333612D01*
X114707055Y-92326172D01*
X114717118Y-92320409D01*
X114731375Y-92316112D01*
X114752617Y-92313064D01*
X114783636Y-92311051D01*
X114827223Y-92309860D01*
X114886169Y-92309275D01*
X114963266Y-92309083D01*
X115017999Y-92309067D01*
X115107206Y-92309146D01*
G36*
X113698629Y-92309066D02*
X113738111Y-92309467D01*
X113853800Y-92312259D01*
X113950689Y-92320550D01*
X114032081Y-92335232D01*
X114101277Y-92357193D01*
X114161580Y-92387322D01*
X114216292Y-92426510D01*
X114235833Y-92443532D01*
X114268250Y-92483363D01*
X114297480Y-92537413D01*
X114320009Y-92597323D01*
X114332321Y-92654739D01*
X114333600Y-92675956D01*
X114325583Y-92734769D01*
X114304101Y-92799013D01*
X114273001Y-92859821D01*
X114236134Y-92908330D01*
X114230146Y-92914182D01*
X114179421Y-92955321D01*
X114123875Y-92987435D01*
X114060304Y-93011365D01*
X113985506Y-93027953D01*
X113896278Y-93038041D01*
X113789418Y-93042469D01*
X113740472Y-93042845D01*
X113678238Y-93042545D01*
X113634472Y-93041292D01*
X113605069Y-93038554D01*
X113585921Y-93033801D01*
X113572923Y-93026501D01*
X113565955Y-93020267D01*
X113559374Y-93012694D01*
X113554212Y-93002924D01*
X113550297Y-92988340D01*
X113547457Y-92966326D01*
X113545520Y-92934264D01*
X113544316Y-92889536D01*
X113543672Y-92829526D01*
X113543417Y-92751617D01*
X113543378Y-92675956D01*
X113543130Y-92575041D01*
X113543183Y-92494427D01*
X113544143Y-92455822D01*
X113690133Y-92455822D01*
X113690133Y-92896089D01*
X113783266Y-92896004D01*
X113839307Y-92894396D01*
X113898001Y-92890256D01*
X113946972Y-92884464D01*
X113948462Y-92884226D01*
X114027608Y-92865090D01*
X114088998Y-92835287D01*
X114135695Y-92792878D01*
X114165365Y-92746961D01*
X114183647Y-92696026D01*
X114182229Y-92648200D01*
X114161012Y-92596933D01*
X114119511Y-92543899D01*
X114062002Y-92504600D01*
X113987250Y-92478331D01*
X113937292Y-92469035D01*
X113880584Y-92462507D01*
X113820481Y-92457782D01*
X113769361Y-92455817D01*
X113766333Y-92455808D01*
X113690133Y-92455822D01*
X113544143Y-92455822D01*
X113544740Y-92431851D01*
X113549002Y-92385055D01*
X113557170Y-92351778D01*
X113570444Y-92329759D01*
X113590026Y-92316739D01*
X113617117Y-92310457D01*
X113652918Y-92308653D01*
X113698629Y-92309066D01*
X113698629Y-92309066D01*
G37*
X113698629Y-92309066D02*
X113738111Y-92309467D01*
X113853800Y-92312259D01*
X113950689Y-92320550D01*
X114032081Y-92335232D01*
X114101277Y-92357193D01*
X114161580Y-92387322D01*
X114216292Y-92426510D01*
X114235833Y-92443532D01*
X114268250Y-92483363D01*
X114297480Y-92537413D01*
X114320009Y-92597323D01*
X114332321Y-92654739D01*
X114333600Y-92675956D01*
X114325583Y-92734769D01*
X114304101Y-92799013D01*
X114273001Y-92859821D01*
X114236134Y-92908330D01*
X114230146Y-92914182D01*
X114179421Y-92955321D01*
X114123875Y-92987435D01*
X114060304Y-93011365D01*
X113985506Y-93027953D01*
X113896278Y-93038041D01*
X113789418Y-93042469D01*
X113740472Y-93042845D01*
X113678238Y-93042545D01*
X113634472Y-93041292D01*
X113605069Y-93038554D01*
X113585921Y-93033801D01*
X113572923Y-93026501D01*
X113565955Y-93020267D01*
X113559374Y-93012694D01*
X113554212Y-93002924D01*
X113550297Y-92988340D01*
X113547457Y-92966326D01*
X113545520Y-92934264D01*
X113544316Y-92889536D01*
X113543672Y-92829526D01*
X113543417Y-92751617D01*
X113543378Y-92675956D01*
X113543130Y-92575041D01*
X113543183Y-92494427D01*
X113544143Y-92455822D01*
X113690133Y-92455822D01*
X113690133Y-92896089D01*
X113783266Y-92896004D01*
X113839307Y-92894396D01*
X113898001Y-92890256D01*
X113946972Y-92884464D01*
X113948462Y-92884226D01*
X114027608Y-92865090D01*
X114088998Y-92835287D01*
X114135695Y-92792878D01*
X114165365Y-92746961D01*
X114183647Y-92696026D01*
X114182229Y-92648200D01*
X114161012Y-92596933D01*
X114119511Y-92543899D01*
X114062002Y-92504600D01*
X113987250Y-92478331D01*
X113937292Y-92469035D01*
X113880584Y-92462507D01*
X113820481Y-92457782D01*
X113769361Y-92455817D01*
X113766333Y-92455808D01*
X113690133Y-92455822D01*
X113544143Y-92455822D01*
X113544740Y-92431851D01*
X113549002Y-92385055D01*
X113557170Y-92351778D01*
X113570444Y-92329759D01*
X113590026Y-92316739D01*
X113617117Y-92310457D01*
X113652918Y-92308653D01*
X113698629Y-92309066D01*
D13*
G04 #@! TO.C,D1*
X110400000Y-85260000D02*
X112100000Y-85260000D01*
X112100000Y-85260000D02*
X112100000Y-82110000D01*
X110400000Y-85260000D02*
X110400000Y-82110000D01*
G04 #@! TO.C,R16*
X150390000Y-115488748D02*
X150390000Y-116011252D01*
X151810000Y-115488748D02*
X151810000Y-116011252D01*
G04 #@! TO.C,C9*
X149738748Y-120190000D02*
X150261252Y-120190000D01*
X149738748Y-121610000D02*
X150261252Y-121610000D01*
D10*
G04 #@! TO.C,U2*
X136255000Y-95525000D02*
X136255000Y-97050000D01*
X131200000Y-97400000D02*
X136100000Y-97400000D01*
X131200000Y-100600000D02*
X131200000Y-97400000D01*
X136100000Y-100600000D02*
X131200000Y-100600000D01*
X136100000Y-97400000D02*
X136100000Y-100600000D01*
G04 #@! TO.C,U3*
X149305000Y-95525000D02*
X149305000Y-97050000D01*
X144250000Y-97400000D02*
X149150000Y-97400000D01*
X144250000Y-100600000D02*
X144250000Y-97400000D01*
X149150000Y-100600000D02*
X144250000Y-100600000D01*
X149150000Y-97400000D02*
X149150000Y-100600000D01*
G04 #@! TO.C,U5*
X130875000Y-119045000D02*
X132400000Y-119045000D01*
X132750000Y-124100000D02*
X132750000Y-119200000D01*
X135950000Y-124100000D02*
X132750000Y-124100000D01*
X135950000Y-119200000D02*
X135950000Y-124100000D01*
X132750000Y-119200000D02*
X135950000Y-119200000D01*
G04 #@! TO.C,U1*
X120600000Y-114450000D02*
X120600000Y-113050000D01*
X123600000Y-112700000D02*
X120600000Y-112700000D01*
X123600000Y-110400000D02*
X123600000Y-112700000D01*
X120600000Y-110400000D02*
X123600000Y-110400000D01*
X120600000Y-112700000D02*
X120600000Y-110400000D01*
G04 #@! TO.C,U4*
X110075000Y-128336000D02*
X111325000Y-128336000D01*
X111675000Y-131298000D02*
X111675000Y-128402000D01*
X112225000Y-131298000D02*
X111675000Y-131298000D01*
X112225000Y-128402000D02*
X112225000Y-131298000D01*
X111675000Y-128402000D02*
X112225000Y-128402000D01*
D13*
G04 #@! TO.C,J4*
X134770000Y-83970000D02*
X133530000Y-83970000D01*
X134770000Y-80230000D02*
X133530000Y-80230000D01*
X132280000Y-82720000D02*
X132280000Y-81480000D01*
X136020000Y-82720000D02*
X136020000Y-81480000D01*
G04 #@! TO.C,J3*
X108290000Y-89510000D02*
X108290000Y-88270000D01*
X104550000Y-89510000D02*
X104550000Y-88270000D01*
X107040000Y-87020000D02*
X105800000Y-87020000D01*
X107040000Y-90760000D02*
X105800000Y-90760000D01*
G04 #@! TO.C,C33*
X142190000Y-122188748D02*
X142190000Y-122711252D01*
X143610000Y-122188748D02*
X143610000Y-122711252D01*
G04 #@! TO.C,C32*
X129410000Y-120538748D02*
X129410000Y-121061252D01*
X127990000Y-120538748D02*
X127990000Y-121061252D01*
G04 #@! TO.C,C22*
X118160000Y-133550000D02*
X118160000Y-129340000D01*
X118160000Y-129340000D02*
X115140000Y-129340000D01*
X115140000Y-129340000D02*
X115140000Y-133550000D01*
G04 #@! TO.C,C16*
X105740000Y-125940000D02*
X105740000Y-130150000D01*
X108760000Y-125940000D02*
X105740000Y-125940000D01*
X108760000Y-130150000D02*
X108760000Y-125940000D01*
G04 #@! TO.C,C8*
X151750000Y-122890000D02*
X147540000Y-122890000D01*
X147540000Y-122890000D02*
X147540000Y-125910000D01*
X147540000Y-125910000D02*
X151750000Y-125910000D01*
G04 #@! TO.C,C4*
X141390000Y-132440000D02*
X141390000Y-136650000D01*
X144410000Y-132440000D02*
X141390000Y-132440000D01*
X144410000Y-136650000D02*
X144410000Y-132440000D01*
G04 #@! TO.C,C10*
X149060000Y-118150000D02*
X149060000Y-113940000D01*
X149060000Y-113940000D02*
X146040000Y-113940000D01*
X146040000Y-113940000D02*
X146040000Y-118150000D01*
G04 #@! TO.C,C7*
X153600000Y-127190000D02*
X145540000Y-127190000D01*
X145540000Y-127190000D02*
X145540000Y-131710000D01*
X145540000Y-131710000D02*
X153600000Y-131710000D01*
G04 #@! TO.C,C13*
X146590000Y-92188748D02*
X146590000Y-92711252D01*
X148010000Y-92188748D02*
X148010000Y-92711252D01*
G04 #@! TO.C,C5*
X133810000Y-134038748D02*
X133810000Y-134561252D01*
X132390000Y-134038748D02*
X132390000Y-134561252D01*
G04 #@! TO.C,C19*
X111761252Y-132640000D02*
X111238748Y-132640000D01*
X111761252Y-134060000D02*
X111238748Y-134060000D01*
G04 #@! TO.C,C29*
X147360000Y-110238748D02*
X147360000Y-110761252D01*
X145940000Y-110238748D02*
X145940000Y-110761252D01*
G04 #@! TO.C,C30*
X131911252Y-116340000D02*
X131388748Y-116340000D01*
X131911252Y-117760000D02*
X131388748Y-117760000D01*
G04 #@! TO.C,C31*
X139640000Y-122711252D02*
X139640000Y-122188748D01*
X141060000Y-122711252D02*
X141060000Y-122188748D01*
G04 #@! TO.C,L4*
X150590000Y-102361252D02*
X150590000Y-101838748D01*
X152010000Y-102361252D02*
X152010000Y-101838748D01*
G04 #@! TO.C,R21*
X137940000Y-112538748D02*
X137940000Y-113061252D01*
X139360000Y-112538748D02*
X139360000Y-113061252D01*
G04 #@! TO.C,R22*
X142010000Y-112538748D02*
X142010000Y-113061252D01*
X140590000Y-112538748D02*
X140590000Y-113061252D01*
G04 #@! TO.C,C1*
X115760000Y-111861252D02*
X115760000Y-111338748D01*
X114340000Y-111861252D02*
X114340000Y-111338748D01*
G04 #@! TO.C,C2*
X118360000Y-111861252D02*
X118360000Y-111338748D01*
X116940000Y-111861252D02*
X116940000Y-111338748D01*
G04 #@! TO.C,C3*
X140060000Y-138250000D02*
X140060000Y-130190000D01*
X140060000Y-130190000D02*
X135540000Y-130190000D01*
X135540000Y-130190000D02*
X135540000Y-138250000D01*
G04 #@! TO.C,C6*
X121860000Y-105861252D02*
X121860000Y-105338748D01*
X120440000Y-105861252D02*
X120440000Y-105338748D01*
G04 #@! TO.C,C11*
X144760000Y-115588748D02*
X144760000Y-116111252D01*
X143340000Y-115588748D02*
X143340000Y-116111252D01*
G04 #@! TO.C,C12*
X136290000Y-92188748D02*
X136290000Y-92711252D01*
X137710000Y-92188748D02*
X137710000Y-92711252D01*
G04 #@! TO.C,C14*
X151261252Y-92440000D02*
X150738748Y-92440000D01*
X151261252Y-93860000D02*
X150738748Y-93860000D01*
G04 #@! TO.C,C15*
X133840000Y-92711252D02*
X133840000Y-92188748D01*
X135260000Y-92711252D02*
X135260000Y-92188748D01*
G04 #@! TO.C,C17*
X133788748Y-105060000D02*
X134311252Y-105060000D01*
X133788748Y-103640000D02*
X134311252Y-103640000D01*
G04 #@! TO.C,C18*
X144738748Y-105060000D02*
X145261252Y-105060000D01*
X144738748Y-103640000D02*
X145261252Y-103640000D01*
G04 #@! TO.C,C20*
X137440000Y-97361252D02*
X137440000Y-96838748D01*
X138860000Y-97361252D02*
X138860000Y-96838748D01*
G04 #@! TO.C,C21*
X152010000Y-97386252D02*
X152010000Y-96863748D01*
X150590000Y-97386252D02*
X150590000Y-96863748D01*
G04 #@! TO.C,C23*
X116538748Y-126790000D02*
X117061252Y-126790000D01*
X116538748Y-128210000D02*
X117061252Y-128210000D01*
G04 #@! TO.C,C24*
X129810000Y-98288748D02*
X129810000Y-98811252D01*
X128390000Y-98288748D02*
X128390000Y-98811252D01*
G04 #@! TO.C,C25*
X142710000Y-101361252D02*
X142710000Y-100838748D01*
X141290000Y-101361252D02*
X141290000Y-100838748D01*
G04 #@! TO.C,C26*
X129890000Y-106138748D02*
X129890000Y-106661252D01*
X131310000Y-106138748D02*
X131310000Y-106661252D01*
G04 #@! TO.C,C27*
X145261252Y-107660000D02*
X144738748Y-107660000D01*
X145261252Y-106240000D02*
X144738748Y-106240000D01*
G04 #@! TO.C,C28*
X136060000Y-112538748D02*
X136060000Y-113061252D01*
X134640000Y-112538748D02*
X134640000Y-113061252D01*
G04 #@! TO.C,D2*
X114620000Y-81470000D02*
X114620000Y-84620000D01*
X112920000Y-81470000D02*
X112920000Y-84620000D01*
X114620000Y-81470000D02*
X112920000Y-81470000D01*
G04 #@! TO.C,J1*
X116545000Y-78120000D02*
X116545000Y-81020000D01*
X123255000Y-78120000D02*
X123255000Y-81020000D01*
X118450000Y-82925000D02*
X121350000Y-82925000D01*
X118450000Y-76215000D02*
X121350000Y-76215000D01*
G04 #@! TO.C,J5*
X147980000Y-79680000D02*
X145320000Y-79680000D01*
X147980000Y-82280000D02*
X147980000Y-79680000D01*
X145320000Y-82280000D02*
X145320000Y-79680000D01*
X147980000Y-82280000D02*
X145320000Y-82280000D01*
X147980000Y-83550000D02*
X147980000Y-84880000D01*
X147980000Y-84880000D02*
X146650000Y-84880000D01*
G04 #@! TO.C,J6*
X144380000Y-84880000D02*
X143050000Y-84880000D01*
X144380000Y-83550000D02*
X144380000Y-84880000D01*
X144380000Y-82280000D02*
X141720000Y-82280000D01*
X141720000Y-82280000D02*
X141720000Y-79680000D01*
X144380000Y-82280000D02*
X144380000Y-79680000D01*
X144380000Y-79680000D02*
X141720000Y-79680000D01*
G04 #@! TO.C,J7*
X135110000Y-128430000D02*
X135110000Y-125770000D01*
X129970000Y-128430000D02*
X135110000Y-128430000D01*
X129970000Y-125770000D02*
X135110000Y-125770000D01*
X129970000Y-128430000D02*
X129970000Y-125770000D01*
X128700000Y-128430000D02*
X127370000Y-128430000D01*
X127370000Y-128430000D02*
X127370000Y-127100000D01*
G04 #@! TO.C,L1*
X123588748Y-131190000D02*
X124111252Y-131190000D01*
X123588748Y-132610000D02*
X124111252Y-132610000D01*
G04 #@! TO.C,L2*
X113110000Y-111338748D02*
X113110000Y-111861252D01*
X111690000Y-111338748D02*
X111690000Y-111861252D01*
G04 #@! TO.C,L3*
X138860000Y-102361252D02*
X138860000Y-101838748D01*
X137440000Y-102361252D02*
X137440000Y-101838748D01*
G04 #@! TO.C,R1*
X111211252Y-118290000D02*
X110688748Y-118290000D01*
X111211252Y-119710000D02*
X110688748Y-119710000D01*
G04 #@! TO.C,R2*
X111236252Y-122260000D02*
X110713748Y-122260000D01*
X111236252Y-120840000D02*
X110713748Y-120840000D01*
G04 #@! TO.C,R3*
X128338748Y-131190000D02*
X128861252Y-131190000D01*
X128338748Y-132610000D02*
X128861252Y-132610000D01*
G04 #@! TO.C,R4*
X139940000Y-88661252D02*
X139940000Y-88138748D01*
X141360000Y-88661252D02*
X141360000Y-88138748D01*
G04 #@! TO.C,R5*
X136261252Y-88140000D02*
X135738748Y-88140000D01*
X136261252Y-89560000D02*
X135738748Y-89560000D01*
G04 #@! TO.C,R6*
X128810000Y-106138748D02*
X128810000Y-106661252D01*
X127390000Y-106138748D02*
X127390000Y-106661252D01*
G04 #@! TO.C,R7*
X142588748Y-130360000D02*
X143111252Y-130360000D01*
X142588748Y-128940000D02*
X143111252Y-128940000D01*
G04 #@! TO.C,R8*
X137088748Y-106340000D02*
X137611252Y-106340000D01*
X137088748Y-107760000D02*
X137611252Y-107760000D01*
G04 #@! TO.C,R9*
X138590000Y-82088748D02*
X138590000Y-82611252D01*
X140010000Y-82088748D02*
X140010000Y-82611252D01*
G04 #@! TO.C,R10*
X124438748Y-104110000D02*
X124961252Y-104110000D01*
X124438748Y-102690000D02*
X124961252Y-102690000D01*
G04 #@! TO.C,R11*
X140890000Y-93036252D02*
X140890000Y-92513748D01*
X142310000Y-93036252D02*
X142310000Y-92513748D01*
G04 #@! TO.C,R12*
X143838748Y-89610000D02*
X144361252Y-89610000D01*
X143838748Y-88190000D02*
X144361252Y-88190000D01*
G04 #@! TO.C,R13*
X148238748Y-88190000D02*
X148761252Y-88190000D01*
X148238748Y-89610000D02*
X148761252Y-89610000D01*
G04 #@! TO.C,R14*
X151240000Y-88138748D02*
X151240000Y-88661252D01*
X152660000Y-88138748D02*
X152660000Y-88661252D01*
G04 #@! TO.C,R15*
X151611252Y-112110000D02*
X151088748Y-112110000D01*
X151611252Y-110690000D02*
X151088748Y-110690000D01*
G04 #@! TO.C,R17*
X131388748Y-109040000D02*
X131911252Y-109040000D01*
X131388748Y-110460000D02*
X131911252Y-110460000D01*
G04 #@! TO.C,R18*
X143340000Y-110238748D02*
X143340000Y-110761252D01*
X144760000Y-110238748D02*
X144760000Y-110761252D01*
G04 #@! TO.C,R19*
X133360000Y-113138748D02*
X133360000Y-113661252D01*
X131940000Y-113138748D02*
X131940000Y-113661252D01*
G04 #@! TO.C,R20*
X129290000Y-113138748D02*
X129290000Y-113661252D01*
X130710000Y-113138748D02*
X130710000Y-113661252D01*
G04 #@! TO.C,Y1*
X116530000Y-119740000D02*
X122280000Y-119740000D01*
X122280000Y-119740000D02*
X122280000Y-116140000D01*
X122280000Y-116140000D02*
X116530000Y-116140000D01*
G04 #@! TO.C,J2*
D11*
X103802380Y-110433333D02*
X104516666Y-110433333D01*
X104659523Y-110480952D01*
X104754761Y-110576190D01*
X104802380Y-110719047D01*
X104802380Y-110814285D01*
X103897619Y-110004761D02*
X103850000Y-109957142D01*
X103802380Y-109861904D01*
X103802380Y-109623809D01*
X103850000Y-109528571D01*
X103897619Y-109480952D01*
X103992857Y-109433333D01*
X104088095Y-109433333D01*
X104230952Y-109480952D01*
X104802380Y-110052380D01*
X104802380Y-109433333D01*
G04 #@! TO.C,D1*
X108551904Y-85242380D02*
X108551904Y-84242380D01*
X108790000Y-84242380D01*
X108932857Y-84290000D01*
X109028095Y-84385238D01*
X109075714Y-84480476D01*
X109123333Y-84670952D01*
X109123333Y-84813809D01*
X109075714Y-85004285D01*
X109028095Y-85099523D01*
X108932857Y-85194761D01*
X108790000Y-85242380D01*
X108551904Y-85242380D01*
X110075714Y-85242380D02*
X109504285Y-85242380D01*
X109790000Y-85242380D02*
X109790000Y-84242380D01*
X109694761Y-84385238D01*
X109599523Y-84480476D01*
X109504285Y-84528095D01*
G04 #@! TO.C,R16*
X153202380Y-116392857D02*
X152726190Y-116726190D01*
X153202380Y-116964285D02*
X152202380Y-116964285D01*
X152202380Y-116583333D01*
X152250000Y-116488095D01*
X152297619Y-116440476D01*
X152392857Y-116392857D01*
X152535714Y-116392857D01*
X152630952Y-116440476D01*
X152678571Y-116488095D01*
X152726190Y-116583333D01*
X152726190Y-116964285D01*
X153202380Y-115440476D02*
X153202380Y-116011904D01*
X153202380Y-115726190D02*
X152202380Y-115726190D01*
X152345238Y-115821428D01*
X152440476Y-115916666D01*
X152488095Y-116011904D01*
X152202380Y-114583333D02*
X152202380Y-114773809D01*
X152250000Y-114869047D01*
X152297619Y-114916666D01*
X152440476Y-115011904D01*
X152630952Y-115059523D01*
X153011904Y-115059523D01*
X153107142Y-115011904D01*
X153154761Y-114964285D01*
X153202380Y-114869047D01*
X153202380Y-114678571D01*
X153154761Y-114583333D01*
X153107142Y-114535714D01*
X153011904Y-114488095D01*
X152773809Y-114488095D01*
X152678571Y-114535714D01*
X152630952Y-114583333D01*
X152583333Y-114678571D01*
X152583333Y-114869047D01*
X152630952Y-114964285D01*
X152678571Y-115011904D01*
X152773809Y-115059523D01*
G04 #@! TO.C,C9*
X152783333Y-121257142D02*
X152735714Y-121304761D01*
X152592857Y-121352380D01*
X152497619Y-121352380D01*
X152354761Y-121304761D01*
X152259523Y-121209523D01*
X152211904Y-121114285D01*
X152164285Y-120923809D01*
X152164285Y-120780952D01*
X152211904Y-120590476D01*
X152259523Y-120495238D01*
X152354761Y-120400000D01*
X152497619Y-120352380D01*
X152592857Y-120352380D01*
X152735714Y-120400000D01*
X152783333Y-120447619D01*
X153259523Y-121352380D02*
X153450000Y-121352380D01*
X153545238Y-121304761D01*
X153592857Y-121257142D01*
X153688095Y-121114285D01*
X153735714Y-120923809D01*
X153735714Y-120542857D01*
X153688095Y-120447619D01*
X153640476Y-120400000D01*
X153545238Y-120352380D01*
X153354761Y-120352380D01*
X153259523Y-120400000D01*
X153211904Y-120447619D01*
X153164285Y-120542857D01*
X153164285Y-120780952D01*
X153211904Y-120876190D01*
X153259523Y-120923809D01*
X153354761Y-120971428D01*
X153545238Y-120971428D01*
X153640476Y-120923809D01*
X153688095Y-120876190D01*
X153735714Y-120780952D01*
G04 #@! TO.C,U2*
X128738095Y-101152380D02*
X128738095Y-101961904D01*
X128785714Y-102057142D01*
X128833333Y-102104761D01*
X128928571Y-102152380D01*
X129119047Y-102152380D01*
X129214285Y-102104761D01*
X129261904Y-102057142D01*
X129309523Y-101961904D01*
X129309523Y-101152380D01*
X129738095Y-101247619D02*
X129785714Y-101200000D01*
X129880952Y-101152380D01*
X130119047Y-101152380D01*
X130214285Y-101200000D01*
X130261904Y-101247619D01*
X130309523Y-101342857D01*
X130309523Y-101438095D01*
X130261904Y-101580952D01*
X129690476Y-102152380D01*
X130309523Y-102152380D01*
G04 #@! TO.C,U3*
X141838095Y-97552380D02*
X141838095Y-98361904D01*
X141885714Y-98457142D01*
X141933333Y-98504761D01*
X142028571Y-98552380D01*
X142219047Y-98552380D01*
X142314285Y-98504761D01*
X142361904Y-98457142D01*
X142409523Y-98361904D01*
X142409523Y-97552380D01*
X142790476Y-97552380D02*
X143409523Y-97552380D01*
X143076190Y-97933333D01*
X143219047Y-97933333D01*
X143314285Y-97980952D01*
X143361904Y-98028571D01*
X143409523Y-98123809D01*
X143409523Y-98361904D01*
X143361904Y-98457142D01*
X143314285Y-98504761D01*
X143219047Y-98552380D01*
X142933333Y-98552380D01*
X142838095Y-98504761D01*
X142790476Y-98457142D01*
G04 #@! TO.C,U5*
X134088095Y-117652380D02*
X134088095Y-118461904D01*
X134135714Y-118557142D01*
X134183333Y-118604761D01*
X134278571Y-118652380D01*
X134469047Y-118652380D01*
X134564285Y-118604761D01*
X134611904Y-118557142D01*
X134659523Y-118461904D01*
X134659523Y-117652380D01*
X135611904Y-117652380D02*
X135135714Y-117652380D01*
X135088095Y-118128571D01*
X135135714Y-118080952D01*
X135230952Y-118033333D01*
X135469047Y-118033333D01*
X135564285Y-118080952D01*
X135611904Y-118128571D01*
X135659523Y-118223809D01*
X135659523Y-118461904D01*
X135611904Y-118557142D01*
X135564285Y-118604761D01*
X135469047Y-118652380D01*
X135230952Y-118652380D01*
X135135714Y-118604761D01*
X135088095Y-118557142D01*
G04 #@! TO.C,U1*
X124338095Y-111002380D02*
X124338095Y-111811904D01*
X124385714Y-111907142D01*
X124433333Y-111954761D01*
X124528571Y-112002380D01*
X124719047Y-112002380D01*
X124814285Y-111954761D01*
X124861904Y-111907142D01*
X124909523Y-111811904D01*
X124909523Y-111002380D01*
X125909523Y-112002380D02*
X125338095Y-112002380D01*
X125623809Y-112002380D02*
X125623809Y-111002380D01*
X125528571Y-111145238D01*
X125433333Y-111240476D01*
X125338095Y-111288095D01*
G04 #@! TO.C,U4*
X111188095Y-126802380D02*
X111188095Y-127611904D01*
X111235714Y-127707142D01*
X111283333Y-127754761D01*
X111378571Y-127802380D01*
X111569047Y-127802380D01*
X111664285Y-127754761D01*
X111711904Y-127707142D01*
X111759523Y-127611904D01*
X111759523Y-126802380D01*
X112664285Y-127135714D02*
X112664285Y-127802380D01*
X112426190Y-126754761D02*
X112188095Y-127469047D01*
X112807142Y-127469047D01*
G04 #@! TO.C,J4*
X133776666Y-78352380D02*
X133776666Y-79066666D01*
X133729047Y-79209523D01*
X133633809Y-79304761D01*
X133490952Y-79352380D01*
X133395714Y-79352380D01*
X134681428Y-78685714D02*
X134681428Y-79352380D01*
X134443333Y-78304761D02*
X134205238Y-79019047D01*
X134824285Y-79019047D01*
G04 #@! TO.C,J3*
X102636666Y-88342380D02*
X102636666Y-89056666D01*
X102589047Y-89199523D01*
X102493809Y-89294761D01*
X102350952Y-89342380D01*
X102255714Y-89342380D01*
X103017619Y-88342380D02*
X103636666Y-88342380D01*
X103303333Y-88723333D01*
X103446190Y-88723333D01*
X103541428Y-88770952D01*
X103589047Y-88818571D01*
X103636666Y-88913809D01*
X103636666Y-89151904D01*
X103589047Y-89247142D01*
X103541428Y-89294761D01*
X103446190Y-89342380D01*
X103160476Y-89342380D01*
X103065238Y-89294761D01*
X103017619Y-89247142D01*
G04 #@! TO.C,C33*
X145007142Y-123092857D02*
X145054761Y-123140476D01*
X145102380Y-123283333D01*
X145102380Y-123378571D01*
X145054761Y-123521428D01*
X144959523Y-123616666D01*
X144864285Y-123664285D01*
X144673809Y-123711904D01*
X144530952Y-123711904D01*
X144340476Y-123664285D01*
X144245238Y-123616666D01*
X144150000Y-123521428D01*
X144102380Y-123378571D01*
X144102380Y-123283333D01*
X144150000Y-123140476D01*
X144197619Y-123092857D01*
X144102380Y-122759523D02*
X144102380Y-122140476D01*
X144483333Y-122473809D01*
X144483333Y-122330952D01*
X144530952Y-122235714D01*
X144578571Y-122188095D01*
X144673809Y-122140476D01*
X144911904Y-122140476D01*
X145007142Y-122188095D01*
X145054761Y-122235714D01*
X145102380Y-122330952D01*
X145102380Y-122616666D01*
X145054761Y-122711904D01*
X145007142Y-122759523D01*
X144102380Y-121807142D02*
X144102380Y-121188095D01*
X144483333Y-121521428D01*
X144483333Y-121378571D01*
X144530952Y-121283333D01*
X144578571Y-121235714D01*
X144673809Y-121188095D01*
X144911904Y-121188095D01*
X145007142Y-121235714D01*
X145054761Y-121283333D01*
X145102380Y-121378571D01*
X145102380Y-121664285D01*
X145054761Y-121759523D01*
X145007142Y-121807142D01*
G04 #@! TO.C,C32*
X127457142Y-121442857D02*
X127504761Y-121490476D01*
X127552380Y-121633333D01*
X127552380Y-121728571D01*
X127504761Y-121871428D01*
X127409523Y-121966666D01*
X127314285Y-122014285D01*
X127123809Y-122061904D01*
X126980952Y-122061904D01*
X126790476Y-122014285D01*
X126695238Y-121966666D01*
X126600000Y-121871428D01*
X126552380Y-121728571D01*
X126552380Y-121633333D01*
X126600000Y-121490476D01*
X126647619Y-121442857D01*
X126552380Y-121109523D02*
X126552380Y-120490476D01*
X126933333Y-120823809D01*
X126933333Y-120680952D01*
X126980952Y-120585714D01*
X127028571Y-120538095D01*
X127123809Y-120490476D01*
X127361904Y-120490476D01*
X127457142Y-120538095D01*
X127504761Y-120585714D01*
X127552380Y-120680952D01*
X127552380Y-120966666D01*
X127504761Y-121061904D01*
X127457142Y-121109523D01*
X126647619Y-120109523D02*
X126600000Y-120061904D01*
X126552380Y-119966666D01*
X126552380Y-119728571D01*
X126600000Y-119633333D01*
X126647619Y-119585714D01*
X126742857Y-119538095D01*
X126838095Y-119538095D01*
X126980952Y-119585714D01*
X127552380Y-120157142D01*
X127552380Y-119538095D01*
G04 #@! TO.C,C22*
X119357142Y-132442857D02*
X119404761Y-132490476D01*
X119452380Y-132633333D01*
X119452380Y-132728571D01*
X119404761Y-132871428D01*
X119309523Y-132966666D01*
X119214285Y-133014285D01*
X119023809Y-133061904D01*
X118880952Y-133061904D01*
X118690476Y-133014285D01*
X118595238Y-132966666D01*
X118500000Y-132871428D01*
X118452380Y-132728571D01*
X118452380Y-132633333D01*
X118500000Y-132490476D01*
X118547619Y-132442857D01*
X118547619Y-132061904D02*
X118500000Y-132014285D01*
X118452380Y-131919047D01*
X118452380Y-131680952D01*
X118500000Y-131585714D01*
X118547619Y-131538095D01*
X118642857Y-131490476D01*
X118738095Y-131490476D01*
X118880952Y-131538095D01*
X119452380Y-132109523D01*
X119452380Y-131490476D01*
X118547619Y-131109523D02*
X118500000Y-131061904D01*
X118452380Y-130966666D01*
X118452380Y-130728571D01*
X118500000Y-130633333D01*
X118547619Y-130585714D01*
X118642857Y-130538095D01*
X118738095Y-130538095D01*
X118880952Y-130585714D01*
X119452380Y-131157142D01*
X119452380Y-130538095D01*
G04 #@! TO.C,C16*
X105207142Y-129042857D02*
X105254761Y-129090476D01*
X105302380Y-129233333D01*
X105302380Y-129328571D01*
X105254761Y-129471428D01*
X105159523Y-129566666D01*
X105064285Y-129614285D01*
X104873809Y-129661904D01*
X104730952Y-129661904D01*
X104540476Y-129614285D01*
X104445238Y-129566666D01*
X104350000Y-129471428D01*
X104302380Y-129328571D01*
X104302380Y-129233333D01*
X104350000Y-129090476D01*
X104397619Y-129042857D01*
X105302380Y-128090476D02*
X105302380Y-128661904D01*
X105302380Y-128376190D02*
X104302380Y-128376190D01*
X104445238Y-128471428D01*
X104540476Y-128566666D01*
X104588095Y-128661904D01*
X104302380Y-127233333D02*
X104302380Y-127423809D01*
X104350000Y-127519047D01*
X104397619Y-127566666D01*
X104540476Y-127661904D01*
X104730952Y-127709523D01*
X105111904Y-127709523D01*
X105207142Y-127661904D01*
X105254761Y-127614285D01*
X105302380Y-127519047D01*
X105302380Y-127328571D01*
X105254761Y-127233333D01*
X105207142Y-127185714D01*
X105111904Y-127138095D01*
X104873809Y-127138095D01*
X104778571Y-127185714D01*
X104730952Y-127233333D01*
X104683333Y-127328571D01*
X104683333Y-127519047D01*
X104730952Y-127614285D01*
X104778571Y-127661904D01*
X104873809Y-127709523D01*
G04 #@! TO.C,C8*
X153383333Y-124757142D02*
X153335714Y-124804761D01*
X153192857Y-124852380D01*
X153097619Y-124852380D01*
X152954761Y-124804761D01*
X152859523Y-124709523D01*
X152811904Y-124614285D01*
X152764285Y-124423809D01*
X152764285Y-124280952D01*
X152811904Y-124090476D01*
X152859523Y-123995238D01*
X152954761Y-123900000D01*
X153097619Y-123852380D01*
X153192857Y-123852380D01*
X153335714Y-123900000D01*
X153383333Y-123947619D01*
X153954761Y-124280952D02*
X153859523Y-124233333D01*
X153811904Y-124185714D01*
X153764285Y-124090476D01*
X153764285Y-124042857D01*
X153811904Y-123947619D01*
X153859523Y-123900000D01*
X153954761Y-123852380D01*
X154145238Y-123852380D01*
X154240476Y-123900000D01*
X154288095Y-123947619D01*
X154335714Y-124042857D01*
X154335714Y-124090476D01*
X154288095Y-124185714D01*
X154240476Y-124233333D01*
X154145238Y-124280952D01*
X153954761Y-124280952D01*
X153859523Y-124328571D01*
X153811904Y-124376190D01*
X153764285Y-124471428D01*
X153764285Y-124661904D01*
X153811904Y-124757142D01*
X153859523Y-124804761D01*
X153954761Y-124852380D01*
X154145238Y-124852380D01*
X154240476Y-124804761D01*
X154288095Y-124757142D01*
X154335714Y-124661904D01*
X154335714Y-124471428D01*
X154288095Y-124376190D01*
X154240476Y-124328571D01*
X154145238Y-124280952D01*
G04 #@! TO.C,C4*
X145707142Y-135066666D02*
X145754761Y-135114285D01*
X145802380Y-135257142D01*
X145802380Y-135352380D01*
X145754761Y-135495238D01*
X145659523Y-135590476D01*
X145564285Y-135638095D01*
X145373809Y-135685714D01*
X145230952Y-135685714D01*
X145040476Y-135638095D01*
X144945238Y-135590476D01*
X144850000Y-135495238D01*
X144802380Y-135352380D01*
X144802380Y-135257142D01*
X144850000Y-135114285D01*
X144897619Y-135066666D01*
X145135714Y-134209523D02*
X145802380Y-134209523D01*
X144754761Y-134447619D02*
X145469047Y-134685714D01*
X145469047Y-134066666D01*
G04 #@! TO.C,C10*
X146907142Y-113557142D02*
X146859523Y-113604761D01*
X146716666Y-113652380D01*
X146621428Y-113652380D01*
X146478571Y-113604761D01*
X146383333Y-113509523D01*
X146335714Y-113414285D01*
X146288095Y-113223809D01*
X146288095Y-113080952D01*
X146335714Y-112890476D01*
X146383333Y-112795238D01*
X146478571Y-112700000D01*
X146621428Y-112652380D01*
X146716666Y-112652380D01*
X146859523Y-112700000D01*
X146907142Y-112747619D01*
X147859523Y-113652380D02*
X147288095Y-113652380D01*
X147573809Y-113652380D02*
X147573809Y-112652380D01*
X147478571Y-112795238D01*
X147383333Y-112890476D01*
X147288095Y-112938095D01*
X148478571Y-112652380D02*
X148573809Y-112652380D01*
X148669047Y-112700000D01*
X148716666Y-112747619D01*
X148764285Y-112842857D01*
X148811904Y-113033333D01*
X148811904Y-113271428D01*
X148764285Y-113461904D01*
X148716666Y-113557142D01*
X148669047Y-113604761D01*
X148573809Y-113652380D01*
X148478571Y-113652380D01*
X148383333Y-113604761D01*
X148335714Y-113557142D01*
X148288095Y-113461904D01*
X148240476Y-113271428D01*
X148240476Y-113033333D01*
X148288095Y-112842857D01*
X148335714Y-112747619D01*
X148383333Y-112700000D01*
X148478571Y-112652380D01*
G04 #@! TO.C,C7*
X146083333Y-126557142D02*
X146035714Y-126604761D01*
X145892857Y-126652380D01*
X145797619Y-126652380D01*
X145654761Y-126604761D01*
X145559523Y-126509523D01*
X145511904Y-126414285D01*
X145464285Y-126223809D01*
X145464285Y-126080952D01*
X145511904Y-125890476D01*
X145559523Y-125795238D01*
X145654761Y-125700000D01*
X145797619Y-125652380D01*
X145892857Y-125652380D01*
X146035714Y-125700000D01*
X146083333Y-125747619D01*
X146416666Y-125652380D02*
X147083333Y-125652380D01*
X146654761Y-126652380D01*
G04 #@! TO.C,C13*
X146007142Y-93092857D02*
X146054761Y-93140476D01*
X146102380Y-93283333D01*
X146102380Y-93378571D01*
X146054761Y-93521428D01*
X145959523Y-93616666D01*
X145864285Y-93664285D01*
X145673809Y-93711904D01*
X145530952Y-93711904D01*
X145340476Y-93664285D01*
X145245238Y-93616666D01*
X145150000Y-93521428D01*
X145102380Y-93378571D01*
X145102380Y-93283333D01*
X145150000Y-93140476D01*
X145197619Y-93092857D01*
X146102380Y-92140476D02*
X146102380Y-92711904D01*
X146102380Y-92426190D02*
X145102380Y-92426190D01*
X145245238Y-92521428D01*
X145340476Y-92616666D01*
X145388095Y-92711904D01*
X145102380Y-91807142D02*
X145102380Y-91188095D01*
X145483333Y-91521428D01*
X145483333Y-91378571D01*
X145530952Y-91283333D01*
X145578571Y-91235714D01*
X145673809Y-91188095D01*
X145911904Y-91188095D01*
X146007142Y-91235714D01*
X146054761Y-91283333D01*
X146102380Y-91378571D01*
X146102380Y-91664285D01*
X146054761Y-91759523D01*
X146007142Y-91807142D01*
G04 #@! TO.C,C5*
X131857142Y-134466666D02*
X131904761Y-134514285D01*
X131952380Y-134657142D01*
X131952380Y-134752380D01*
X131904761Y-134895238D01*
X131809523Y-134990476D01*
X131714285Y-135038095D01*
X131523809Y-135085714D01*
X131380952Y-135085714D01*
X131190476Y-135038095D01*
X131095238Y-134990476D01*
X131000000Y-134895238D01*
X130952380Y-134752380D01*
X130952380Y-134657142D01*
X131000000Y-134514285D01*
X131047619Y-134466666D01*
X130952380Y-133561904D02*
X130952380Y-134038095D01*
X131428571Y-134085714D01*
X131380952Y-134038095D01*
X131333333Y-133942857D01*
X131333333Y-133704761D01*
X131380952Y-133609523D01*
X131428571Y-133561904D01*
X131523809Y-133514285D01*
X131761904Y-133514285D01*
X131857142Y-133561904D01*
X131904761Y-133609523D01*
X131952380Y-133704761D01*
X131952380Y-133942857D01*
X131904761Y-134038095D01*
X131857142Y-134085714D01*
G04 #@! TO.C,C19*
X110857142Y-135357142D02*
X110809523Y-135404761D01*
X110666666Y-135452380D01*
X110571428Y-135452380D01*
X110428571Y-135404761D01*
X110333333Y-135309523D01*
X110285714Y-135214285D01*
X110238095Y-135023809D01*
X110238095Y-134880952D01*
X110285714Y-134690476D01*
X110333333Y-134595238D01*
X110428571Y-134500000D01*
X110571428Y-134452380D01*
X110666666Y-134452380D01*
X110809523Y-134500000D01*
X110857142Y-134547619D01*
X111809523Y-135452380D02*
X111238095Y-135452380D01*
X111523809Y-135452380D02*
X111523809Y-134452380D01*
X111428571Y-134595238D01*
X111333333Y-134690476D01*
X111238095Y-134738095D01*
X112285714Y-135452380D02*
X112476190Y-135452380D01*
X112571428Y-135404761D01*
X112619047Y-135357142D01*
X112714285Y-135214285D01*
X112761904Y-135023809D01*
X112761904Y-134642857D01*
X112714285Y-134547619D01*
X112666666Y-134500000D01*
X112571428Y-134452380D01*
X112380952Y-134452380D01*
X112285714Y-134500000D01*
X112238095Y-134547619D01*
X112190476Y-134642857D01*
X112190476Y-134880952D01*
X112238095Y-134976190D01*
X112285714Y-135023809D01*
X112380952Y-135071428D01*
X112571428Y-135071428D01*
X112666666Y-135023809D01*
X112714285Y-134976190D01*
X112761904Y-134880952D01*
G04 #@! TO.C,C29*
X148707142Y-111142857D02*
X148754761Y-111190476D01*
X148802380Y-111333333D01*
X148802380Y-111428571D01*
X148754761Y-111571428D01*
X148659523Y-111666666D01*
X148564285Y-111714285D01*
X148373809Y-111761904D01*
X148230952Y-111761904D01*
X148040476Y-111714285D01*
X147945238Y-111666666D01*
X147850000Y-111571428D01*
X147802380Y-111428571D01*
X147802380Y-111333333D01*
X147850000Y-111190476D01*
X147897619Y-111142857D01*
X147897619Y-110761904D02*
X147850000Y-110714285D01*
X147802380Y-110619047D01*
X147802380Y-110380952D01*
X147850000Y-110285714D01*
X147897619Y-110238095D01*
X147992857Y-110190476D01*
X148088095Y-110190476D01*
X148230952Y-110238095D01*
X148802380Y-110809523D01*
X148802380Y-110190476D01*
X148802380Y-109714285D02*
X148802380Y-109523809D01*
X148754761Y-109428571D01*
X148707142Y-109380952D01*
X148564285Y-109285714D01*
X148373809Y-109238095D01*
X147992857Y-109238095D01*
X147897619Y-109285714D01*
X147850000Y-109333333D01*
X147802380Y-109428571D01*
X147802380Y-109619047D01*
X147850000Y-109714285D01*
X147897619Y-109761904D01*
X147992857Y-109809523D01*
X148230952Y-109809523D01*
X148326190Y-109761904D01*
X148373809Y-109714285D01*
X148421428Y-109619047D01*
X148421428Y-109428571D01*
X148373809Y-109333333D01*
X148326190Y-109285714D01*
X148230952Y-109238095D01*
G04 #@! TO.C,C30*
X127557142Y-117457142D02*
X127509523Y-117504761D01*
X127366666Y-117552380D01*
X127271428Y-117552380D01*
X127128571Y-117504761D01*
X127033333Y-117409523D01*
X126985714Y-117314285D01*
X126938095Y-117123809D01*
X126938095Y-116980952D01*
X126985714Y-116790476D01*
X127033333Y-116695238D01*
X127128571Y-116600000D01*
X127271428Y-116552380D01*
X127366666Y-116552380D01*
X127509523Y-116600000D01*
X127557142Y-116647619D01*
X127890476Y-116552380D02*
X128509523Y-116552380D01*
X128176190Y-116933333D01*
X128319047Y-116933333D01*
X128414285Y-116980952D01*
X128461904Y-117028571D01*
X128509523Y-117123809D01*
X128509523Y-117361904D01*
X128461904Y-117457142D01*
X128414285Y-117504761D01*
X128319047Y-117552380D01*
X128033333Y-117552380D01*
X127938095Y-117504761D01*
X127890476Y-117457142D01*
X129128571Y-116552380D02*
X129223809Y-116552380D01*
X129319047Y-116600000D01*
X129366666Y-116647619D01*
X129414285Y-116742857D01*
X129461904Y-116933333D01*
X129461904Y-117171428D01*
X129414285Y-117361904D01*
X129366666Y-117457142D01*
X129319047Y-117504761D01*
X129223809Y-117552380D01*
X129128571Y-117552380D01*
X129033333Y-117504761D01*
X128985714Y-117457142D01*
X128938095Y-117361904D01*
X128890476Y-117171428D01*
X128890476Y-116933333D01*
X128938095Y-116742857D01*
X128985714Y-116647619D01*
X129033333Y-116600000D01*
X129128571Y-116552380D01*
G04 #@! TO.C,C31*
X139457142Y-125407142D02*
X139409523Y-125454761D01*
X139266666Y-125502380D01*
X139171428Y-125502380D01*
X139028571Y-125454761D01*
X138933333Y-125359523D01*
X138885714Y-125264285D01*
X138838095Y-125073809D01*
X138838095Y-124930952D01*
X138885714Y-124740476D01*
X138933333Y-124645238D01*
X139028571Y-124550000D01*
X139171428Y-124502380D01*
X139266666Y-124502380D01*
X139409523Y-124550000D01*
X139457142Y-124597619D01*
X139790476Y-124502380D02*
X140409523Y-124502380D01*
X140076190Y-124883333D01*
X140219047Y-124883333D01*
X140314285Y-124930952D01*
X140361904Y-124978571D01*
X140409523Y-125073809D01*
X140409523Y-125311904D01*
X140361904Y-125407142D01*
X140314285Y-125454761D01*
X140219047Y-125502380D01*
X139933333Y-125502380D01*
X139838095Y-125454761D01*
X139790476Y-125407142D01*
X141361904Y-125502380D02*
X140790476Y-125502380D01*
X141076190Y-125502380D02*
X141076190Y-124502380D01*
X140980952Y-124645238D01*
X140885714Y-124740476D01*
X140790476Y-124788095D01*
G04 #@! TO.C,L4*
X153602380Y-102216666D02*
X153602380Y-102692857D01*
X152602380Y-102692857D01*
X152935714Y-101454761D02*
X153602380Y-101454761D01*
X152554761Y-101692857D02*
X153269047Y-101930952D01*
X153269047Y-101311904D01*
G04 #@! TO.C,R21*
X137757142Y-110702380D02*
X137423809Y-110226190D01*
X137185714Y-110702380D02*
X137185714Y-109702380D01*
X137566666Y-109702380D01*
X137661904Y-109750000D01*
X137709523Y-109797619D01*
X137757142Y-109892857D01*
X137757142Y-110035714D01*
X137709523Y-110130952D01*
X137661904Y-110178571D01*
X137566666Y-110226190D01*
X137185714Y-110226190D01*
X138138095Y-109797619D02*
X138185714Y-109750000D01*
X138280952Y-109702380D01*
X138519047Y-109702380D01*
X138614285Y-109750000D01*
X138661904Y-109797619D01*
X138709523Y-109892857D01*
X138709523Y-109988095D01*
X138661904Y-110130952D01*
X138090476Y-110702380D01*
X138709523Y-110702380D01*
X139661904Y-110702380D02*
X139090476Y-110702380D01*
X139376190Y-110702380D02*
X139376190Y-109702380D01*
X139280952Y-109845238D01*
X139185714Y-109940476D01*
X139090476Y-109988095D01*
G04 #@! TO.C,R22*
X140707142Y-110702380D02*
X140373809Y-110226190D01*
X140135714Y-110702380D02*
X140135714Y-109702380D01*
X140516666Y-109702380D01*
X140611904Y-109750000D01*
X140659523Y-109797619D01*
X140707142Y-109892857D01*
X140707142Y-110035714D01*
X140659523Y-110130952D01*
X140611904Y-110178571D01*
X140516666Y-110226190D01*
X140135714Y-110226190D01*
X141088095Y-109797619D02*
X141135714Y-109750000D01*
X141230952Y-109702380D01*
X141469047Y-109702380D01*
X141564285Y-109750000D01*
X141611904Y-109797619D01*
X141659523Y-109892857D01*
X141659523Y-109988095D01*
X141611904Y-110130952D01*
X141040476Y-110702380D01*
X141659523Y-110702380D01*
X142040476Y-109797619D02*
X142088095Y-109750000D01*
X142183333Y-109702380D01*
X142421428Y-109702380D01*
X142516666Y-109750000D01*
X142564285Y-109797619D01*
X142611904Y-109892857D01*
X142611904Y-109988095D01*
X142564285Y-110130952D01*
X141992857Y-110702380D01*
X142611904Y-110702380D01*
G04 #@! TO.C,C1*
X114883333Y-109407142D02*
X114835714Y-109454761D01*
X114692857Y-109502380D01*
X114597619Y-109502380D01*
X114454761Y-109454761D01*
X114359523Y-109359523D01*
X114311904Y-109264285D01*
X114264285Y-109073809D01*
X114264285Y-108930952D01*
X114311904Y-108740476D01*
X114359523Y-108645238D01*
X114454761Y-108550000D01*
X114597619Y-108502380D01*
X114692857Y-108502380D01*
X114835714Y-108550000D01*
X114883333Y-108597619D01*
X115835714Y-109502380D02*
X115264285Y-109502380D01*
X115550000Y-109502380D02*
X115550000Y-108502380D01*
X115454761Y-108645238D01*
X115359523Y-108740476D01*
X115264285Y-108788095D01*
G04 #@! TO.C,C2*
X117483333Y-109357142D02*
X117435714Y-109404761D01*
X117292857Y-109452380D01*
X117197619Y-109452380D01*
X117054761Y-109404761D01*
X116959523Y-109309523D01*
X116911904Y-109214285D01*
X116864285Y-109023809D01*
X116864285Y-108880952D01*
X116911904Y-108690476D01*
X116959523Y-108595238D01*
X117054761Y-108500000D01*
X117197619Y-108452380D01*
X117292857Y-108452380D01*
X117435714Y-108500000D01*
X117483333Y-108547619D01*
X117864285Y-108547619D02*
X117911904Y-108500000D01*
X118007142Y-108452380D01*
X118245238Y-108452380D01*
X118340476Y-108500000D01*
X118388095Y-108547619D01*
X118435714Y-108642857D01*
X118435714Y-108738095D01*
X118388095Y-108880952D01*
X117816666Y-109452380D01*
X118435714Y-109452380D01*
G04 #@! TO.C,C3*
X135057142Y-137816666D02*
X135104761Y-137864285D01*
X135152380Y-138007142D01*
X135152380Y-138102380D01*
X135104761Y-138245238D01*
X135009523Y-138340476D01*
X134914285Y-138388095D01*
X134723809Y-138435714D01*
X134580952Y-138435714D01*
X134390476Y-138388095D01*
X134295238Y-138340476D01*
X134200000Y-138245238D01*
X134152380Y-138102380D01*
X134152380Y-138007142D01*
X134200000Y-137864285D01*
X134247619Y-137816666D01*
X134152380Y-137483333D02*
X134152380Y-136864285D01*
X134533333Y-137197619D01*
X134533333Y-137054761D01*
X134580952Y-136959523D01*
X134628571Y-136911904D01*
X134723809Y-136864285D01*
X134961904Y-136864285D01*
X135057142Y-136911904D01*
X135104761Y-136959523D01*
X135152380Y-137054761D01*
X135152380Y-137340476D01*
X135104761Y-137435714D01*
X135057142Y-137483333D01*
G04 #@! TO.C,C6*
X119857142Y-105766666D02*
X119904761Y-105814285D01*
X119952380Y-105957142D01*
X119952380Y-106052380D01*
X119904761Y-106195238D01*
X119809523Y-106290476D01*
X119714285Y-106338095D01*
X119523809Y-106385714D01*
X119380952Y-106385714D01*
X119190476Y-106338095D01*
X119095238Y-106290476D01*
X119000000Y-106195238D01*
X118952380Y-106052380D01*
X118952380Y-105957142D01*
X119000000Y-105814285D01*
X119047619Y-105766666D01*
X118952380Y-104909523D02*
X118952380Y-105100000D01*
X119000000Y-105195238D01*
X119047619Y-105242857D01*
X119190476Y-105338095D01*
X119380952Y-105385714D01*
X119761904Y-105385714D01*
X119857142Y-105338095D01*
X119904761Y-105290476D01*
X119952380Y-105195238D01*
X119952380Y-105004761D01*
X119904761Y-104909523D01*
X119857142Y-104861904D01*
X119761904Y-104814285D01*
X119523809Y-104814285D01*
X119428571Y-104861904D01*
X119380952Y-104909523D01*
X119333333Y-105004761D01*
X119333333Y-105195238D01*
X119380952Y-105290476D01*
X119428571Y-105338095D01*
X119523809Y-105385714D01*
G04 #@! TO.C,C11*
X143257142Y-118857142D02*
X143209523Y-118904761D01*
X143066666Y-118952380D01*
X142971428Y-118952380D01*
X142828571Y-118904761D01*
X142733333Y-118809523D01*
X142685714Y-118714285D01*
X142638095Y-118523809D01*
X142638095Y-118380952D01*
X142685714Y-118190476D01*
X142733333Y-118095238D01*
X142828571Y-118000000D01*
X142971428Y-117952380D01*
X143066666Y-117952380D01*
X143209523Y-118000000D01*
X143257142Y-118047619D01*
X144209523Y-118952380D02*
X143638095Y-118952380D01*
X143923809Y-118952380D02*
X143923809Y-117952380D01*
X143828571Y-118095238D01*
X143733333Y-118190476D01*
X143638095Y-118238095D01*
X145161904Y-118952380D02*
X144590476Y-118952380D01*
X144876190Y-118952380D02*
X144876190Y-117952380D01*
X144780952Y-118095238D01*
X144685714Y-118190476D01*
X144590476Y-118238095D01*
G04 #@! TO.C,C12*
X139007142Y-93092857D02*
X139054761Y-93140476D01*
X139102380Y-93283333D01*
X139102380Y-93378571D01*
X139054761Y-93521428D01*
X138959523Y-93616666D01*
X138864285Y-93664285D01*
X138673809Y-93711904D01*
X138530952Y-93711904D01*
X138340476Y-93664285D01*
X138245238Y-93616666D01*
X138150000Y-93521428D01*
X138102380Y-93378571D01*
X138102380Y-93283333D01*
X138150000Y-93140476D01*
X138197619Y-93092857D01*
X139102380Y-92140476D02*
X139102380Y-92711904D01*
X139102380Y-92426190D02*
X138102380Y-92426190D01*
X138245238Y-92521428D01*
X138340476Y-92616666D01*
X138388095Y-92711904D01*
X138197619Y-91759523D02*
X138150000Y-91711904D01*
X138102380Y-91616666D01*
X138102380Y-91378571D01*
X138150000Y-91283333D01*
X138197619Y-91235714D01*
X138292857Y-91188095D01*
X138388095Y-91188095D01*
X138530952Y-91235714D01*
X139102380Y-91807142D01*
X139102380Y-91188095D01*
G04 #@! TO.C,C14*
X150357142Y-91857142D02*
X150309523Y-91904761D01*
X150166666Y-91952380D01*
X150071428Y-91952380D01*
X149928571Y-91904761D01*
X149833333Y-91809523D01*
X149785714Y-91714285D01*
X149738095Y-91523809D01*
X149738095Y-91380952D01*
X149785714Y-91190476D01*
X149833333Y-91095238D01*
X149928571Y-91000000D01*
X150071428Y-90952380D01*
X150166666Y-90952380D01*
X150309523Y-91000000D01*
X150357142Y-91047619D01*
X151309523Y-91952380D02*
X150738095Y-91952380D01*
X151023809Y-91952380D02*
X151023809Y-90952380D01*
X150928571Y-91095238D01*
X150833333Y-91190476D01*
X150738095Y-91238095D01*
X152166666Y-91285714D02*
X152166666Y-91952380D01*
X151928571Y-90904761D02*
X151690476Y-91619047D01*
X152309523Y-91619047D01*
G04 #@! TO.C,C15*
X133257142Y-93092857D02*
X133304761Y-93140476D01*
X133352380Y-93283333D01*
X133352380Y-93378571D01*
X133304761Y-93521428D01*
X133209523Y-93616666D01*
X133114285Y-93664285D01*
X132923809Y-93711904D01*
X132780952Y-93711904D01*
X132590476Y-93664285D01*
X132495238Y-93616666D01*
X132400000Y-93521428D01*
X132352380Y-93378571D01*
X132352380Y-93283333D01*
X132400000Y-93140476D01*
X132447619Y-93092857D01*
X133352380Y-92140476D02*
X133352380Y-92711904D01*
X133352380Y-92426190D02*
X132352380Y-92426190D01*
X132495238Y-92521428D01*
X132590476Y-92616666D01*
X132638095Y-92711904D01*
X132352380Y-91235714D02*
X132352380Y-91711904D01*
X132828571Y-91759523D01*
X132780952Y-91711904D01*
X132733333Y-91616666D01*
X132733333Y-91378571D01*
X132780952Y-91283333D01*
X132828571Y-91235714D01*
X132923809Y-91188095D01*
X133161904Y-91188095D01*
X133257142Y-91235714D01*
X133304761Y-91283333D01*
X133352380Y-91378571D01*
X133352380Y-91616666D01*
X133304761Y-91711904D01*
X133257142Y-91759523D01*
G04 #@! TO.C,C17*
X132957142Y-106457142D02*
X132909523Y-106504761D01*
X132766666Y-106552380D01*
X132671428Y-106552380D01*
X132528571Y-106504761D01*
X132433333Y-106409523D01*
X132385714Y-106314285D01*
X132338095Y-106123809D01*
X132338095Y-105980952D01*
X132385714Y-105790476D01*
X132433333Y-105695238D01*
X132528571Y-105600000D01*
X132671428Y-105552380D01*
X132766666Y-105552380D01*
X132909523Y-105600000D01*
X132957142Y-105647619D01*
X133909523Y-106552380D02*
X133338095Y-106552380D01*
X133623809Y-106552380D02*
X133623809Y-105552380D01*
X133528571Y-105695238D01*
X133433333Y-105790476D01*
X133338095Y-105838095D01*
X134242857Y-105552380D02*
X134909523Y-105552380D01*
X134480952Y-106552380D01*
G04 #@! TO.C,C18*
X147707142Y-104707142D02*
X147659523Y-104754761D01*
X147516666Y-104802380D01*
X147421428Y-104802380D01*
X147278571Y-104754761D01*
X147183333Y-104659523D01*
X147135714Y-104564285D01*
X147088095Y-104373809D01*
X147088095Y-104230952D01*
X147135714Y-104040476D01*
X147183333Y-103945238D01*
X147278571Y-103850000D01*
X147421428Y-103802380D01*
X147516666Y-103802380D01*
X147659523Y-103850000D01*
X147707142Y-103897619D01*
X148659523Y-104802380D02*
X148088095Y-104802380D01*
X148373809Y-104802380D02*
X148373809Y-103802380D01*
X148278571Y-103945238D01*
X148183333Y-104040476D01*
X148088095Y-104088095D01*
X149230952Y-104230952D02*
X149135714Y-104183333D01*
X149088095Y-104135714D01*
X149040476Y-104040476D01*
X149040476Y-103992857D01*
X149088095Y-103897619D01*
X149135714Y-103850000D01*
X149230952Y-103802380D01*
X149421428Y-103802380D01*
X149516666Y-103850000D01*
X149564285Y-103897619D01*
X149611904Y-103992857D01*
X149611904Y-104040476D01*
X149564285Y-104135714D01*
X149516666Y-104183333D01*
X149421428Y-104230952D01*
X149230952Y-104230952D01*
X149135714Y-104278571D01*
X149088095Y-104326190D01*
X149040476Y-104421428D01*
X149040476Y-104611904D01*
X149088095Y-104707142D01*
X149135714Y-104754761D01*
X149230952Y-104802380D01*
X149421428Y-104802380D01*
X149516666Y-104754761D01*
X149564285Y-104707142D01*
X149611904Y-104611904D01*
X149611904Y-104421428D01*
X149564285Y-104326190D01*
X149516666Y-104278571D01*
X149421428Y-104230952D01*
G04 #@! TO.C,C20*
X140257142Y-97742857D02*
X140304761Y-97790476D01*
X140352380Y-97933333D01*
X140352380Y-98028571D01*
X140304761Y-98171428D01*
X140209523Y-98266666D01*
X140114285Y-98314285D01*
X139923809Y-98361904D01*
X139780952Y-98361904D01*
X139590476Y-98314285D01*
X139495238Y-98266666D01*
X139400000Y-98171428D01*
X139352380Y-98028571D01*
X139352380Y-97933333D01*
X139400000Y-97790476D01*
X139447619Y-97742857D01*
X139447619Y-97361904D02*
X139400000Y-97314285D01*
X139352380Y-97219047D01*
X139352380Y-96980952D01*
X139400000Y-96885714D01*
X139447619Y-96838095D01*
X139542857Y-96790476D01*
X139638095Y-96790476D01*
X139780952Y-96838095D01*
X140352380Y-97409523D01*
X140352380Y-96790476D01*
X139352380Y-96171428D02*
X139352380Y-96076190D01*
X139400000Y-95980952D01*
X139447619Y-95933333D01*
X139542857Y-95885714D01*
X139733333Y-95838095D01*
X139971428Y-95838095D01*
X140161904Y-95885714D01*
X140257142Y-95933333D01*
X140304761Y-95980952D01*
X140352380Y-96076190D01*
X140352380Y-96171428D01*
X140304761Y-96266666D01*
X140257142Y-96314285D01*
X140161904Y-96361904D01*
X139971428Y-96409523D01*
X139733333Y-96409523D01*
X139542857Y-96361904D01*
X139447619Y-96314285D01*
X139400000Y-96266666D01*
X139352380Y-96171428D01*
G04 #@! TO.C,C21*
X153407142Y-97792857D02*
X153454761Y-97840476D01*
X153502380Y-97983333D01*
X153502380Y-98078571D01*
X153454761Y-98221428D01*
X153359523Y-98316666D01*
X153264285Y-98364285D01*
X153073809Y-98411904D01*
X152930952Y-98411904D01*
X152740476Y-98364285D01*
X152645238Y-98316666D01*
X152550000Y-98221428D01*
X152502380Y-98078571D01*
X152502380Y-97983333D01*
X152550000Y-97840476D01*
X152597619Y-97792857D01*
X152597619Y-97411904D02*
X152550000Y-97364285D01*
X152502380Y-97269047D01*
X152502380Y-97030952D01*
X152550000Y-96935714D01*
X152597619Y-96888095D01*
X152692857Y-96840476D01*
X152788095Y-96840476D01*
X152930952Y-96888095D01*
X153502380Y-97459523D01*
X153502380Y-96840476D01*
X153502380Y-95888095D02*
X153502380Y-96459523D01*
X153502380Y-96173809D02*
X152502380Y-96173809D01*
X152645238Y-96269047D01*
X152740476Y-96364285D01*
X152788095Y-96459523D01*
G04 #@! TO.C,C23*
X116157142Y-126207142D02*
X116109523Y-126254761D01*
X115966666Y-126302380D01*
X115871428Y-126302380D01*
X115728571Y-126254761D01*
X115633333Y-126159523D01*
X115585714Y-126064285D01*
X115538095Y-125873809D01*
X115538095Y-125730952D01*
X115585714Y-125540476D01*
X115633333Y-125445238D01*
X115728571Y-125350000D01*
X115871428Y-125302380D01*
X115966666Y-125302380D01*
X116109523Y-125350000D01*
X116157142Y-125397619D01*
X116538095Y-125397619D02*
X116585714Y-125350000D01*
X116680952Y-125302380D01*
X116919047Y-125302380D01*
X117014285Y-125350000D01*
X117061904Y-125397619D01*
X117109523Y-125492857D01*
X117109523Y-125588095D01*
X117061904Y-125730952D01*
X116490476Y-126302380D01*
X117109523Y-126302380D01*
X117442857Y-125302380D02*
X118061904Y-125302380D01*
X117728571Y-125683333D01*
X117871428Y-125683333D01*
X117966666Y-125730952D01*
X118014285Y-125778571D01*
X118061904Y-125873809D01*
X118061904Y-126111904D01*
X118014285Y-126207142D01*
X117966666Y-126254761D01*
X117871428Y-126302380D01*
X117585714Y-126302380D01*
X117490476Y-126254761D01*
X117442857Y-126207142D01*
G04 #@! TO.C,C24*
X127807142Y-99192857D02*
X127854761Y-99240476D01*
X127902380Y-99383333D01*
X127902380Y-99478571D01*
X127854761Y-99621428D01*
X127759523Y-99716666D01*
X127664285Y-99764285D01*
X127473809Y-99811904D01*
X127330952Y-99811904D01*
X127140476Y-99764285D01*
X127045238Y-99716666D01*
X126950000Y-99621428D01*
X126902380Y-99478571D01*
X126902380Y-99383333D01*
X126950000Y-99240476D01*
X126997619Y-99192857D01*
X126997619Y-98811904D02*
X126950000Y-98764285D01*
X126902380Y-98669047D01*
X126902380Y-98430952D01*
X126950000Y-98335714D01*
X126997619Y-98288095D01*
X127092857Y-98240476D01*
X127188095Y-98240476D01*
X127330952Y-98288095D01*
X127902380Y-98859523D01*
X127902380Y-98240476D01*
X127235714Y-97383333D02*
X127902380Y-97383333D01*
X126854761Y-97621428D02*
X127569047Y-97859523D01*
X127569047Y-97240476D01*
G04 #@! TO.C,C25*
X140707142Y-101742857D02*
X140754761Y-101790476D01*
X140802380Y-101933333D01*
X140802380Y-102028571D01*
X140754761Y-102171428D01*
X140659523Y-102266666D01*
X140564285Y-102314285D01*
X140373809Y-102361904D01*
X140230952Y-102361904D01*
X140040476Y-102314285D01*
X139945238Y-102266666D01*
X139850000Y-102171428D01*
X139802380Y-102028571D01*
X139802380Y-101933333D01*
X139850000Y-101790476D01*
X139897619Y-101742857D01*
X139897619Y-101361904D02*
X139850000Y-101314285D01*
X139802380Y-101219047D01*
X139802380Y-100980952D01*
X139850000Y-100885714D01*
X139897619Y-100838095D01*
X139992857Y-100790476D01*
X140088095Y-100790476D01*
X140230952Y-100838095D01*
X140802380Y-101409523D01*
X140802380Y-100790476D01*
X139802380Y-99885714D02*
X139802380Y-100361904D01*
X140278571Y-100409523D01*
X140230952Y-100361904D01*
X140183333Y-100266666D01*
X140183333Y-100028571D01*
X140230952Y-99933333D01*
X140278571Y-99885714D01*
X140373809Y-99838095D01*
X140611904Y-99838095D01*
X140707142Y-99885714D01*
X140754761Y-99933333D01*
X140802380Y-100028571D01*
X140802380Y-100266666D01*
X140754761Y-100361904D01*
X140707142Y-100409523D01*
G04 #@! TO.C,C26*
X130057142Y-104257142D02*
X130009523Y-104304761D01*
X129866666Y-104352380D01*
X129771428Y-104352380D01*
X129628571Y-104304761D01*
X129533333Y-104209523D01*
X129485714Y-104114285D01*
X129438095Y-103923809D01*
X129438095Y-103780952D01*
X129485714Y-103590476D01*
X129533333Y-103495238D01*
X129628571Y-103400000D01*
X129771428Y-103352380D01*
X129866666Y-103352380D01*
X130009523Y-103400000D01*
X130057142Y-103447619D01*
X130438095Y-103447619D02*
X130485714Y-103400000D01*
X130580952Y-103352380D01*
X130819047Y-103352380D01*
X130914285Y-103400000D01*
X130961904Y-103447619D01*
X131009523Y-103542857D01*
X131009523Y-103638095D01*
X130961904Y-103780952D01*
X130390476Y-104352380D01*
X131009523Y-104352380D01*
X131866666Y-103352380D02*
X131676190Y-103352380D01*
X131580952Y-103400000D01*
X131533333Y-103447619D01*
X131438095Y-103590476D01*
X131390476Y-103780952D01*
X131390476Y-104161904D01*
X131438095Y-104257142D01*
X131485714Y-104304761D01*
X131580952Y-104352380D01*
X131771428Y-104352380D01*
X131866666Y-104304761D01*
X131914285Y-104257142D01*
X131961904Y-104161904D01*
X131961904Y-103923809D01*
X131914285Y-103828571D01*
X131866666Y-103780952D01*
X131771428Y-103733333D01*
X131580952Y-103733333D01*
X131485714Y-103780952D01*
X131438095Y-103828571D01*
X131390476Y-103923809D01*
G04 #@! TO.C,C27*
X147757142Y-107307142D02*
X147709523Y-107354761D01*
X147566666Y-107402380D01*
X147471428Y-107402380D01*
X147328571Y-107354761D01*
X147233333Y-107259523D01*
X147185714Y-107164285D01*
X147138095Y-106973809D01*
X147138095Y-106830952D01*
X147185714Y-106640476D01*
X147233333Y-106545238D01*
X147328571Y-106450000D01*
X147471428Y-106402380D01*
X147566666Y-106402380D01*
X147709523Y-106450000D01*
X147757142Y-106497619D01*
X148138095Y-106497619D02*
X148185714Y-106450000D01*
X148280952Y-106402380D01*
X148519047Y-106402380D01*
X148614285Y-106450000D01*
X148661904Y-106497619D01*
X148709523Y-106592857D01*
X148709523Y-106688095D01*
X148661904Y-106830952D01*
X148090476Y-107402380D01*
X148709523Y-107402380D01*
X149042857Y-106402380D02*
X149709523Y-106402380D01*
X149280952Y-107402380D01*
G04 #@! TO.C,C28*
X134557142Y-110607142D02*
X134509523Y-110654761D01*
X134366666Y-110702380D01*
X134271428Y-110702380D01*
X134128571Y-110654761D01*
X134033333Y-110559523D01*
X133985714Y-110464285D01*
X133938095Y-110273809D01*
X133938095Y-110130952D01*
X133985714Y-109940476D01*
X134033333Y-109845238D01*
X134128571Y-109750000D01*
X134271428Y-109702380D01*
X134366666Y-109702380D01*
X134509523Y-109750000D01*
X134557142Y-109797619D01*
X134938095Y-109797619D02*
X134985714Y-109750000D01*
X135080952Y-109702380D01*
X135319047Y-109702380D01*
X135414285Y-109750000D01*
X135461904Y-109797619D01*
X135509523Y-109892857D01*
X135509523Y-109988095D01*
X135461904Y-110130952D01*
X134890476Y-110702380D01*
X135509523Y-110702380D01*
X136080952Y-110130952D02*
X135985714Y-110083333D01*
X135938095Y-110035714D01*
X135890476Y-109940476D01*
X135890476Y-109892857D01*
X135938095Y-109797619D01*
X135985714Y-109750000D01*
X136080952Y-109702380D01*
X136271428Y-109702380D01*
X136366666Y-109750000D01*
X136414285Y-109797619D01*
X136461904Y-109892857D01*
X136461904Y-109940476D01*
X136414285Y-110035714D01*
X136366666Y-110083333D01*
X136271428Y-110130952D01*
X136080952Y-110130952D01*
X135985714Y-110178571D01*
X135938095Y-110226190D01*
X135890476Y-110321428D01*
X135890476Y-110511904D01*
X135938095Y-110607142D01*
X135985714Y-110654761D01*
X136080952Y-110702380D01*
X136271428Y-110702380D01*
X136366666Y-110654761D01*
X136414285Y-110607142D01*
X136461904Y-110511904D01*
X136461904Y-110321428D01*
X136414285Y-110226190D01*
X136366666Y-110178571D01*
X136271428Y-110130952D01*
G04 #@! TO.C,D2*
X115021904Y-85222380D02*
X115021904Y-84222380D01*
X115260000Y-84222380D01*
X115402857Y-84270000D01*
X115498095Y-84365238D01*
X115545714Y-84460476D01*
X115593333Y-84650952D01*
X115593333Y-84793809D01*
X115545714Y-84984285D01*
X115498095Y-85079523D01*
X115402857Y-85174761D01*
X115260000Y-85222380D01*
X115021904Y-85222380D01*
X115974285Y-84317619D02*
X116021904Y-84270000D01*
X116117142Y-84222380D01*
X116355238Y-84222380D01*
X116450476Y-84270000D01*
X116498095Y-84317619D01*
X116545714Y-84412857D01*
X116545714Y-84508095D01*
X116498095Y-84650952D01*
X115926666Y-85222380D01*
X116545714Y-85222380D01*
G04 #@! TO.C,J1*
X124866666Y-79072380D02*
X124866666Y-79786666D01*
X124819047Y-79929523D01*
X124723809Y-80024761D01*
X124580952Y-80072380D01*
X124485714Y-80072380D01*
X125866666Y-80072380D02*
X125295238Y-80072380D01*
X125580952Y-80072380D02*
X125580952Y-79072380D01*
X125485714Y-79215238D01*
X125390476Y-79310476D01*
X125295238Y-79358095D01*
G04 #@! TO.C,J5*
X149166666Y-84652380D02*
X149166666Y-85366666D01*
X149119047Y-85509523D01*
X149023809Y-85604761D01*
X148880952Y-85652380D01*
X148785714Y-85652380D01*
X150119047Y-84652380D02*
X149642857Y-84652380D01*
X149595238Y-85128571D01*
X149642857Y-85080952D01*
X149738095Y-85033333D01*
X149976190Y-85033333D01*
X150071428Y-85080952D01*
X150119047Y-85128571D01*
X150166666Y-85223809D01*
X150166666Y-85461904D01*
X150119047Y-85557142D01*
X150071428Y-85604761D01*
X149976190Y-85652380D01*
X149738095Y-85652380D01*
X149642857Y-85604761D01*
X149595238Y-85557142D01*
G04 #@! TO.C,J6*
X139766666Y-78902380D02*
X139766666Y-79616666D01*
X139719047Y-79759523D01*
X139623809Y-79854761D01*
X139480952Y-79902380D01*
X139385714Y-79902380D01*
X140671428Y-78902380D02*
X140480952Y-78902380D01*
X140385714Y-78950000D01*
X140338095Y-78997619D01*
X140242857Y-79140476D01*
X140195238Y-79330952D01*
X140195238Y-79711904D01*
X140242857Y-79807142D01*
X140290476Y-79854761D01*
X140385714Y-79902380D01*
X140576190Y-79902380D01*
X140671428Y-79854761D01*
X140719047Y-79807142D01*
X140766666Y-79711904D01*
X140766666Y-79473809D01*
X140719047Y-79378571D01*
X140671428Y-79330952D01*
X140576190Y-79283333D01*
X140385714Y-79283333D01*
X140290476Y-79330952D01*
X140242857Y-79378571D01*
X140195238Y-79473809D01*
G04 #@! TO.C,J7*
X136316666Y-126552380D02*
X136316666Y-127266666D01*
X136269047Y-127409523D01*
X136173809Y-127504761D01*
X136030952Y-127552380D01*
X135935714Y-127552380D01*
X136697619Y-126552380D02*
X137364285Y-126552380D01*
X136935714Y-127552380D01*
G04 #@! TO.C,L1*
X123683333Y-130702380D02*
X123207142Y-130702380D01*
X123207142Y-129702380D01*
X124540476Y-130702380D02*
X123969047Y-130702380D01*
X124254761Y-130702380D02*
X124254761Y-129702380D01*
X124159523Y-129845238D01*
X124064285Y-129940476D01*
X123969047Y-129988095D01*
G04 #@! TO.C,L2*
X112233333Y-109502380D02*
X111757142Y-109502380D01*
X111757142Y-108502380D01*
X112519047Y-108597619D02*
X112566666Y-108550000D01*
X112661904Y-108502380D01*
X112900000Y-108502380D01*
X112995238Y-108550000D01*
X113042857Y-108597619D01*
X113090476Y-108692857D01*
X113090476Y-108788095D01*
X113042857Y-108930952D01*
X112471428Y-109502380D01*
X113090476Y-109502380D01*
G04 #@! TO.C,L3*
X137983333Y-105152380D02*
X137507142Y-105152380D01*
X137507142Y-104152380D01*
X138221428Y-104152380D02*
X138840476Y-104152380D01*
X138507142Y-104533333D01*
X138650000Y-104533333D01*
X138745238Y-104580952D01*
X138792857Y-104628571D01*
X138840476Y-104723809D01*
X138840476Y-104961904D01*
X138792857Y-105057142D01*
X138745238Y-105104761D01*
X138650000Y-105152380D01*
X138364285Y-105152380D01*
X138269047Y-105104761D01*
X138221428Y-105057142D01*
G04 #@! TO.C,R1*
X110783333Y-117802380D02*
X110450000Y-117326190D01*
X110211904Y-117802380D02*
X110211904Y-116802380D01*
X110592857Y-116802380D01*
X110688095Y-116850000D01*
X110735714Y-116897619D01*
X110783333Y-116992857D01*
X110783333Y-117135714D01*
X110735714Y-117230952D01*
X110688095Y-117278571D01*
X110592857Y-117326190D01*
X110211904Y-117326190D01*
X111735714Y-117802380D02*
X111164285Y-117802380D01*
X111450000Y-117802380D02*
X111450000Y-116802380D01*
X111354761Y-116945238D01*
X111259523Y-117040476D01*
X111164285Y-117088095D01*
G04 #@! TO.C,R2*
X110808333Y-123652380D02*
X110475000Y-123176190D01*
X110236904Y-123652380D02*
X110236904Y-122652380D01*
X110617857Y-122652380D01*
X110713095Y-122700000D01*
X110760714Y-122747619D01*
X110808333Y-122842857D01*
X110808333Y-122985714D01*
X110760714Y-123080952D01*
X110713095Y-123128571D01*
X110617857Y-123176190D01*
X110236904Y-123176190D01*
X111189285Y-122747619D02*
X111236904Y-122700000D01*
X111332142Y-122652380D01*
X111570238Y-122652380D01*
X111665476Y-122700000D01*
X111713095Y-122747619D01*
X111760714Y-122842857D01*
X111760714Y-122938095D01*
X111713095Y-123080952D01*
X111141666Y-123652380D01*
X111760714Y-123652380D01*
G04 #@! TO.C,R3*
X128433333Y-130702380D02*
X128100000Y-130226190D01*
X127861904Y-130702380D02*
X127861904Y-129702380D01*
X128242857Y-129702380D01*
X128338095Y-129750000D01*
X128385714Y-129797619D01*
X128433333Y-129892857D01*
X128433333Y-130035714D01*
X128385714Y-130130952D01*
X128338095Y-130178571D01*
X128242857Y-130226190D01*
X127861904Y-130226190D01*
X128766666Y-129702380D02*
X129385714Y-129702380D01*
X129052380Y-130083333D01*
X129195238Y-130083333D01*
X129290476Y-130130952D01*
X129338095Y-130178571D01*
X129385714Y-130273809D01*
X129385714Y-130511904D01*
X129338095Y-130607142D01*
X129290476Y-130654761D01*
X129195238Y-130702380D01*
X128909523Y-130702380D01*
X128814285Y-130654761D01*
X128766666Y-130607142D01*
G04 #@! TO.C,R4*
X139452380Y-88566666D02*
X138976190Y-88900000D01*
X139452380Y-89138095D02*
X138452380Y-89138095D01*
X138452380Y-88757142D01*
X138500000Y-88661904D01*
X138547619Y-88614285D01*
X138642857Y-88566666D01*
X138785714Y-88566666D01*
X138880952Y-88614285D01*
X138928571Y-88661904D01*
X138976190Y-88757142D01*
X138976190Y-89138095D01*
X138785714Y-87709523D02*
X139452380Y-87709523D01*
X138404761Y-87947619D02*
X139119047Y-88185714D01*
X139119047Y-87566666D01*
G04 #@! TO.C,R5*
X135883333Y-87702380D02*
X135550000Y-87226190D01*
X135311904Y-87702380D02*
X135311904Y-86702380D01*
X135692857Y-86702380D01*
X135788095Y-86750000D01*
X135835714Y-86797619D01*
X135883333Y-86892857D01*
X135883333Y-87035714D01*
X135835714Y-87130952D01*
X135788095Y-87178571D01*
X135692857Y-87226190D01*
X135311904Y-87226190D01*
X136788095Y-86702380D02*
X136311904Y-86702380D01*
X136264285Y-87178571D01*
X136311904Y-87130952D01*
X136407142Y-87083333D01*
X136645238Y-87083333D01*
X136740476Y-87130952D01*
X136788095Y-87178571D01*
X136835714Y-87273809D01*
X136835714Y-87511904D01*
X136788095Y-87607142D01*
X136740476Y-87654761D01*
X136645238Y-87702380D01*
X136407142Y-87702380D01*
X136311904Y-87654761D01*
X136264285Y-87607142D01*
G04 #@! TO.C,R6*
X126902380Y-106566666D02*
X126426190Y-106900000D01*
X126902380Y-107138095D02*
X125902380Y-107138095D01*
X125902380Y-106757142D01*
X125950000Y-106661904D01*
X125997619Y-106614285D01*
X126092857Y-106566666D01*
X126235714Y-106566666D01*
X126330952Y-106614285D01*
X126378571Y-106661904D01*
X126426190Y-106757142D01*
X126426190Y-107138095D01*
X125902380Y-105709523D02*
X125902380Y-105900000D01*
X125950000Y-105995238D01*
X125997619Y-106042857D01*
X126140476Y-106138095D01*
X126330952Y-106185714D01*
X126711904Y-106185714D01*
X126807142Y-106138095D01*
X126854761Y-106090476D01*
X126902380Y-105995238D01*
X126902380Y-105804761D01*
X126854761Y-105709523D01*
X126807142Y-105661904D01*
X126711904Y-105614285D01*
X126473809Y-105614285D01*
X126378571Y-105661904D01*
X126330952Y-105709523D01*
X126283333Y-105804761D01*
X126283333Y-105995238D01*
X126330952Y-106090476D01*
X126378571Y-106138095D01*
X126473809Y-106185714D01*
G04 #@! TO.C,R7*
X142633333Y-131852380D02*
X142300000Y-131376190D01*
X142061904Y-131852380D02*
X142061904Y-130852380D01*
X142442857Y-130852380D01*
X142538095Y-130900000D01*
X142585714Y-130947619D01*
X142633333Y-131042857D01*
X142633333Y-131185714D01*
X142585714Y-131280952D01*
X142538095Y-131328571D01*
X142442857Y-131376190D01*
X142061904Y-131376190D01*
X142966666Y-130852380D02*
X143633333Y-130852380D01*
X143204761Y-131852380D01*
G04 #@! TO.C,R8*
X137183333Y-109202380D02*
X136850000Y-108726190D01*
X136611904Y-109202380D02*
X136611904Y-108202380D01*
X136992857Y-108202380D01*
X137088095Y-108250000D01*
X137135714Y-108297619D01*
X137183333Y-108392857D01*
X137183333Y-108535714D01*
X137135714Y-108630952D01*
X137088095Y-108678571D01*
X136992857Y-108726190D01*
X136611904Y-108726190D01*
X137754761Y-108630952D02*
X137659523Y-108583333D01*
X137611904Y-108535714D01*
X137564285Y-108440476D01*
X137564285Y-108392857D01*
X137611904Y-108297619D01*
X137659523Y-108250000D01*
X137754761Y-108202380D01*
X137945238Y-108202380D01*
X138040476Y-108250000D01*
X138088095Y-108297619D01*
X138135714Y-108392857D01*
X138135714Y-108440476D01*
X138088095Y-108535714D01*
X138040476Y-108583333D01*
X137945238Y-108630952D01*
X137754761Y-108630952D01*
X137659523Y-108678571D01*
X137611904Y-108726190D01*
X137564285Y-108821428D01*
X137564285Y-109011904D01*
X137611904Y-109107142D01*
X137659523Y-109154761D01*
X137754761Y-109202380D01*
X137945238Y-109202380D01*
X138040476Y-109154761D01*
X138088095Y-109107142D01*
X138135714Y-109011904D01*
X138135714Y-108821428D01*
X138088095Y-108726190D01*
X138040476Y-108678571D01*
X137945238Y-108630952D01*
G04 #@! TO.C,R9*
X138102380Y-82516666D02*
X137626190Y-82850000D01*
X138102380Y-83088095D02*
X137102380Y-83088095D01*
X137102380Y-82707142D01*
X137150000Y-82611904D01*
X137197619Y-82564285D01*
X137292857Y-82516666D01*
X137435714Y-82516666D01*
X137530952Y-82564285D01*
X137578571Y-82611904D01*
X137626190Y-82707142D01*
X137626190Y-83088095D01*
X138102380Y-82040476D02*
X138102380Y-81850000D01*
X138054761Y-81754761D01*
X138007142Y-81707142D01*
X137864285Y-81611904D01*
X137673809Y-81564285D01*
X137292857Y-81564285D01*
X137197619Y-81611904D01*
X137150000Y-81659523D01*
X137102380Y-81754761D01*
X137102380Y-81945238D01*
X137150000Y-82040476D01*
X137197619Y-82088095D01*
X137292857Y-82135714D01*
X137530952Y-82135714D01*
X137626190Y-82088095D01*
X137673809Y-82040476D01*
X137721428Y-81945238D01*
X137721428Y-81754761D01*
X137673809Y-81659523D01*
X137626190Y-81611904D01*
X137530952Y-81564285D01*
G04 #@! TO.C,R10*
X124057142Y-102252380D02*
X123723809Y-101776190D01*
X123485714Y-102252380D02*
X123485714Y-101252380D01*
X123866666Y-101252380D01*
X123961904Y-101300000D01*
X124009523Y-101347619D01*
X124057142Y-101442857D01*
X124057142Y-101585714D01*
X124009523Y-101680952D01*
X123961904Y-101728571D01*
X123866666Y-101776190D01*
X123485714Y-101776190D01*
X125009523Y-102252380D02*
X124438095Y-102252380D01*
X124723809Y-102252380D02*
X124723809Y-101252380D01*
X124628571Y-101395238D01*
X124533333Y-101490476D01*
X124438095Y-101538095D01*
X125628571Y-101252380D02*
X125723809Y-101252380D01*
X125819047Y-101300000D01*
X125866666Y-101347619D01*
X125914285Y-101442857D01*
X125961904Y-101633333D01*
X125961904Y-101871428D01*
X125914285Y-102061904D01*
X125866666Y-102157142D01*
X125819047Y-102204761D01*
X125723809Y-102252380D01*
X125628571Y-102252380D01*
X125533333Y-102204761D01*
X125485714Y-102157142D01*
X125438095Y-102061904D01*
X125390476Y-101871428D01*
X125390476Y-101633333D01*
X125438095Y-101442857D01*
X125485714Y-101347619D01*
X125533333Y-101300000D01*
X125628571Y-101252380D01*
G04 #@! TO.C,R11*
X143752380Y-93417857D02*
X143276190Y-93751190D01*
X143752380Y-93989285D02*
X142752380Y-93989285D01*
X142752380Y-93608333D01*
X142800000Y-93513095D01*
X142847619Y-93465476D01*
X142942857Y-93417857D01*
X143085714Y-93417857D01*
X143180952Y-93465476D01*
X143228571Y-93513095D01*
X143276190Y-93608333D01*
X143276190Y-93989285D01*
X143752380Y-92465476D02*
X143752380Y-93036904D01*
X143752380Y-92751190D02*
X142752380Y-92751190D01*
X142895238Y-92846428D01*
X142990476Y-92941666D01*
X143038095Y-93036904D01*
X143752380Y-91513095D02*
X143752380Y-92084523D01*
X143752380Y-91798809D02*
X142752380Y-91798809D01*
X142895238Y-91894047D01*
X142990476Y-91989285D01*
X143038095Y-92084523D01*
G04 #@! TO.C,R12*
X143457142Y-87702380D02*
X143123809Y-87226190D01*
X142885714Y-87702380D02*
X142885714Y-86702380D01*
X143266666Y-86702380D01*
X143361904Y-86750000D01*
X143409523Y-86797619D01*
X143457142Y-86892857D01*
X143457142Y-87035714D01*
X143409523Y-87130952D01*
X143361904Y-87178571D01*
X143266666Y-87226190D01*
X142885714Y-87226190D01*
X144409523Y-87702380D02*
X143838095Y-87702380D01*
X144123809Y-87702380D02*
X144123809Y-86702380D01*
X144028571Y-86845238D01*
X143933333Y-86940476D01*
X143838095Y-86988095D01*
X144790476Y-86797619D02*
X144838095Y-86750000D01*
X144933333Y-86702380D01*
X145171428Y-86702380D01*
X145266666Y-86750000D01*
X145314285Y-86797619D01*
X145361904Y-86892857D01*
X145361904Y-86988095D01*
X145314285Y-87130952D01*
X144742857Y-87702380D01*
X145361904Y-87702380D01*
G04 #@! TO.C,R13*
X147857142Y-87702380D02*
X147523809Y-87226190D01*
X147285714Y-87702380D02*
X147285714Y-86702380D01*
X147666666Y-86702380D01*
X147761904Y-86750000D01*
X147809523Y-86797619D01*
X147857142Y-86892857D01*
X147857142Y-87035714D01*
X147809523Y-87130952D01*
X147761904Y-87178571D01*
X147666666Y-87226190D01*
X147285714Y-87226190D01*
X148809523Y-87702380D02*
X148238095Y-87702380D01*
X148523809Y-87702380D02*
X148523809Y-86702380D01*
X148428571Y-86845238D01*
X148333333Y-86940476D01*
X148238095Y-86988095D01*
X149142857Y-86702380D02*
X149761904Y-86702380D01*
X149428571Y-87083333D01*
X149571428Y-87083333D01*
X149666666Y-87130952D01*
X149714285Y-87178571D01*
X149761904Y-87273809D01*
X149761904Y-87511904D01*
X149714285Y-87607142D01*
X149666666Y-87654761D01*
X149571428Y-87702380D01*
X149285714Y-87702380D01*
X149190476Y-87654761D01*
X149142857Y-87607142D01*
G04 #@! TO.C,R14*
X154052380Y-89042857D02*
X153576190Y-89376190D01*
X154052380Y-89614285D02*
X153052380Y-89614285D01*
X153052380Y-89233333D01*
X153100000Y-89138095D01*
X153147619Y-89090476D01*
X153242857Y-89042857D01*
X153385714Y-89042857D01*
X153480952Y-89090476D01*
X153528571Y-89138095D01*
X153576190Y-89233333D01*
X153576190Y-89614285D01*
X154052380Y-88090476D02*
X154052380Y-88661904D01*
X154052380Y-88376190D02*
X153052380Y-88376190D01*
X153195238Y-88471428D01*
X153290476Y-88566666D01*
X153338095Y-88661904D01*
X153385714Y-87233333D02*
X154052380Y-87233333D01*
X153004761Y-87471428D02*
X153719047Y-87709523D01*
X153719047Y-87090476D01*
G04 #@! TO.C,R15*
X150707142Y-110202380D02*
X150373809Y-109726190D01*
X150135714Y-110202380D02*
X150135714Y-109202380D01*
X150516666Y-109202380D01*
X150611904Y-109250000D01*
X150659523Y-109297619D01*
X150707142Y-109392857D01*
X150707142Y-109535714D01*
X150659523Y-109630952D01*
X150611904Y-109678571D01*
X150516666Y-109726190D01*
X150135714Y-109726190D01*
X151659523Y-110202380D02*
X151088095Y-110202380D01*
X151373809Y-110202380D02*
X151373809Y-109202380D01*
X151278571Y-109345238D01*
X151183333Y-109440476D01*
X151088095Y-109488095D01*
X152564285Y-109202380D02*
X152088095Y-109202380D01*
X152040476Y-109678571D01*
X152088095Y-109630952D01*
X152183333Y-109583333D01*
X152421428Y-109583333D01*
X152516666Y-109630952D01*
X152564285Y-109678571D01*
X152611904Y-109773809D01*
X152611904Y-110011904D01*
X152564285Y-110107142D01*
X152516666Y-110154761D01*
X152421428Y-110202380D01*
X152183333Y-110202380D01*
X152088095Y-110154761D01*
X152040476Y-110107142D01*
G04 #@! TO.C,R17*
X127507142Y-110202380D02*
X127173809Y-109726190D01*
X126935714Y-110202380D02*
X126935714Y-109202380D01*
X127316666Y-109202380D01*
X127411904Y-109250000D01*
X127459523Y-109297619D01*
X127507142Y-109392857D01*
X127507142Y-109535714D01*
X127459523Y-109630952D01*
X127411904Y-109678571D01*
X127316666Y-109726190D01*
X126935714Y-109726190D01*
X128459523Y-110202380D02*
X127888095Y-110202380D01*
X128173809Y-110202380D02*
X128173809Y-109202380D01*
X128078571Y-109345238D01*
X127983333Y-109440476D01*
X127888095Y-109488095D01*
X128792857Y-109202380D02*
X129459523Y-109202380D01*
X129030952Y-110202380D01*
G04 #@! TO.C,R18*
X140957142Y-108952380D02*
X140623809Y-108476190D01*
X140385714Y-108952380D02*
X140385714Y-107952380D01*
X140766666Y-107952380D01*
X140861904Y-108000000D01*
X140909523Y-108047619D01*
X140957142Y-108142857D01*
X140957142Y-108285714D01*
X140909523Y-108380952D01*
X140861904Y-108428571D01*
X140766666Y-108476190D01*
X140385714Y-108476190D01*
X141909523Y-108952380D02*
X141338095Y-108952380D01*
X141623809Y-108952380D02*
X141623809Y-107952380D01*
X141528571Y-108095238D01*
X141433333Y-108190476D01*
X141338095Y-108238095D01*
X142480952Y-108380952D02*
X142385714Y-108333333D01*
X142338095Y-108285714D01*
X142290476Y-108190476D01*
X142290476Y-108142857D01*
X142338095Y-108047619D01*
X142385714Y-108000000D01*
X142480952Y-107952380D01*
X142671428Y-107952380D01*
X142766666Y-108000000D01*
X142814285Y-108047619D01*
X142861904Y-108142857D01*
X142861904Y-108190476D01*
X142814285Y-108285714D01*
X142766666Y-108333333D01*
X142671428Y-108380952D01*
X142480952Y-108380952D01*
X142385714Y-108428571D01*
X142338095Y-108476190D01*
X142290476Y-108571428D01*
X142290476Y-108761904D01*
X142338095Y-108857142D01*
X142385714Y-108904761D01*
X142480952Y-108952380D01*
X142671428Y-108952380D01*
X142766666Y-108904761D01*
X142814285Y-108857142D01*
X142861904Y-108761904D01*
X142861904Y-108571428D01*
X142814285Y-108476190D01*
X142766666Y-108428571D01*
X142671428Y-108380952D01*
G04 #@! TO.C,R19*
X134557142Y-115702380D02*
X134223809Y-115226190D01*
X133985714Y-115702380D02*
X133985714Y-114702380D01*
X134366666Y-114702380D01*
X134461904Y-114750000D01*
X134509523Y-114797619D01*
X134557142Y-114892857D01*
X134557142Y-115035714D01*
X134509523Y-115130952D01*
X134461904Y-115178571D01*
X134366666Y-115226190D01*
X133985714Y-115226190D01*
X135509523Y-115702380D02*
X134938095Y-115702380D01*
X135223809Y-115702380D02*
X135223809Y-114702380D01*
X135128571Y-114845238D01*
X135033333Y-114940476D01*
X134938095Y-114988095D01*
X135985714Y-115702380D02*
X136176190Y-115702380D01*
X136271428Y-115654761D01*
X136319047Y-115607142D01*
X136414285Y-115464285D01*
X136461904Y-115273809D01*
X136461904Y-114892857D01*
X136414285Y-114797619D01*
X136366666Y-114750000D01*
X136271428Y-114702380D01*
X136080952Y-114702380D01*
X135985714Y-114750000D01*
X135938095Y-114797619D01*
X135890476Y-114892857D01*
X135890476Y-115130952D01*
X135938095Y-115226190D01*
X135985714Y-115273809D01*
X136080952Y-115321428D01*
X136271428Y-115321428D01*
X136366666Y-115273809D01*
X136414285Y-115226190D01*
X136461904Y-115130952D01*
G04 #@! TO.C,R20*
X128752380Y-114042857D02*
X128276190Y-114376190D01*
X128752380Y-114614285D02*
X127752380Y-114614285D01*
X127752380Y-114233333D01*
X127800000Y-114138095D01*
X127847619Y-114090476D01*
X127942857Y-114042857D01*
X128085714Y-114042857D01*
X128180952Y-114090476D01*
X128228571Y-114138095D01*
X128276190Y-114233333D01*
X128276190Y-114614285D01*
X127847619Y-113661904D02*
X127800000Y-113614285D01*
X127752380Y-113519047D01*
X127752380Y-113280952D01*
X127800000Y-113185714D01*
X127847619Y-113138095D01*
X127942857Y-113090476D01*
X128038095Y-113090476D01*
X128180952Y-113138095D01*
X128752380Y-113709523D01*
X128752380Y-113090476D01*
X127752380Y-112471428D02*
X127752380Y-112376190D01*
X127800000Y-112280952D01*
X127847619Y-112233333D01*
X127942857Y-112185714D01*
X128133333Y-112138095D01*
X128371428Y-112138095D01*
X128561904Y-112185714D01*
X128657142Y-112233333D01*
X128704761Y-112280952D01*
X128752380Y-112376190D01*
X128752380Y-112471428D01*
X128704761Y-112566666D01*
X128657142Y-112614285D01*
X128561904Y-112661904D01*
X128371428Y-112709523D01*
X128133333Y-112709523D01*
X127942857Y-112661904D01*
X127847619Y-112614285D01*
X127800000Y-112566666D01*
X127752380Y-112471428D01*
G04 #@! TO.C,Y1*
X114653809Y-117916190D02*
X114653809Y-118392380D01*
X114320476Y-117392380D02*
X114653809Y-117916190D01*
X114987142Y-117392380D01*
X115844285Y-118392380D02*
X115272857Y-118392380D01*
X115558571Y-118392380D02*
X115558571Y-117392380D01*
X115463333Y-117535238D01*
X115368095Y-117630476D01*
X115272857Y-117678095D01*
G04 #@! TD*
M02*
