G04 #@! TF.GenerationSoftware,KiCad,Pcbnew,5.0.1-33cea8e~66~ubuntu18.04.1*
G04 #@! TF.CreationDate,2018-10-14T22:27:10+03:00*
G04 #@! TF.ProjectId,AA-PI-Radio-Board,41412D50492D526164696F2D426F6172,rev?*
G04 #@! TF.SameCoordinates,Original*
G04 #@! TF.FileFunction,Legend,Bot*
G04 #@! TF.FilePolarity,Positive*
%FSLAX46Y46*%
G04 Gerber Fmt 4.6, Leading zero omitted, Abs format (unit mm)*
G04 Created by KiCad (PCBNEW 5.0.1-33cea8e~66~ubuntu18.04.1) date Sun 14 Oct 2018 22:27:10 MSK*
%MOMM*%
%LPD*%
G01*
G04 APERTURE LIST*
%ADD10C,0.200000*%
G04 APERTURE END LIST*
D10*
X125726190Y-96591666D02*
X125778571Y-96539285D01*
X125883333Y-96382142D01*
X125935714Y-96277380D01*
X125988095Y-96120238D01*
X126040476Y-95858333D01*
X126040476Y-95648809D01*
X125988095Y-95386904D01*
X125935714Y-95229761D01*
X125883333Y-95125000D01*
X125778571Y-94967857D01*
X125726190Y-94915476D01*
X124678571Y-96067857D02*
X124730952Y-96120238D01*
X124888095Y-96172619D01*
X124992857Y-96172619D01*
X125150000Y-96120238D01*
X125254761Y-96015476D01*
X125307142Y-95910714D01*
X125359523Y-95701190D01*
X125359523Y-95544047D01*
X125307142Y-95334523D01*
X125254761Y-95229761D01*
X125150000Y-95125000D01*
X124992857Y-95072619D01*
X124888095Y-95072619D01*
X124730952Y-95125000D01*
X124678571Y-95177380D01*
X124311904Y-96591666D02*
X124259523Y-96539285D01*
X124154761Y-96382142D01*
X124102380Y-96277380D01*
X124050000Y-96120238D01*
X123997619Y-95858333D01*
X123997619Y-95648809D01*
X124050000Y-95386904D01*
X124102380Y-95229761D01*
X124154761Y-95125000D01*
X124259523Y-94967857D01*
X124311904Y-94915476D01*
X122688095Y-95177380D02*
X122635714Y-95125000D01*
X122530952Y-95072619D01*
X122269047Y-95072619D01*
X122164285Y-95125000D01*
X122111904Y-95177380D01*
X122059523Y-95282142D01*
X122059523Y-95386904D01*
X122111904Y-95544047D01*
X122740476Y-96172619D01*
X122059523Y-96172619D01*
X121378571Y-95072619D02*
X121273809Y-95072619D01*
X121169047Y-95125000D01*
X121116666Y-95177380D01*
X121064285Y-95282142D01*
X121011904Y-95491666D01*
X121011904Y-95753571D01*
X121064285Y-95963095D01*
X121116666Y-96067857D01*
X121169047Y-96120238D01*
X121273809Y-96172619D01*
X121378571Y-96172619D01*
X121483333Y-96120238D01*
X121535714Y-96067857D01*
X121588095Y-95963095D01*
X121640476Y-95753571D01*
X121640476Y-95491666D01*
X121588095Y-95282142D01*
X121535714Y-95177380D01*
X121483333Y-95125000D01*
X121378571Y-95072619D01*
X119964285Y-96172619D02*
X120592857Y-96172619D01*
X120278571Y-96172619D02*
X120278571Y-95072619D01*
X120383333Y-95229761D01*
X120488095Y-95334523D01*
X120592857Y-95386904D01*
X119335714Y-95544047D02*
X119440476Y-95491666D01*
X119492857Y-95439285D01*
X119545238Y-95334523D01*
X119545238Y-95282142D01*
X119492857Y-95177380D01*
X119440476Y-95125000D01*
X119335714Y-95072619D01*
X119126190Y-95072619D01*
X119021428Y-95125000D01*
X118969047Y-95177380D01*
X118916666Y-95282142D01*
X118916666Y-95334523D01*
X118969047Y-95439285D01*
X119021428Y-95491666D01*
X119126190Y-95544047D01*
X119335714Y-95544047D01*
X119440476Y-95596428D01*
X119492857Y-95648809D01*
X119545238Y-95753571D01*
X119545238Y-95963095D01*
X119492857Y-96067857D01*
X119440476Y-96120238D01*
X119335714Y-96172619D01*
X119126190Y-96172619D01*
X119021428Y-96120238D01*
X118969047Y-96067857D01*
X118916666Y-95963095D01*
X118916666Y-95753571D01*
X118969047Y-95648809D01*
X119021428Y-95596428D01*
X119126190Y-95544047D01*
X117397619Y-95072619D02*
X117188095Y-95072619D01*
X117083333Y-95125000D01*
X116978571Y-95229761D01*
X116926190Y-95439285D01*
X116926190Y-95805952D01*
X116978571Y-96015476D01*
X117083333Y-96120238D01*
X117188095Y-96172619D01*
X117397619Y-96172619D01*
X117502380Y-96120238D01*
X117607142Y-96015476D01*
X117659523Y-95805952D01*
X117659523Y-95439285D01*
X117607142Y-95229761D01*
X117502380Y-95125000D01*
X117397619Y-95072619D01*
X115826190Y-96172619D02*
X116192857Y-95648809D01*
X116454761Y-96172619D02*
X116454761Y-95072619D01*
X116035714Y-95072619D01*
X115930952Y-95125000D01*
X115878571Y-95177380D01*
X115826190Y-95282142D01*
X115826190Y-95439285D01*
X115878571Y-95544047D01*
X115930952Y-95596428D01*
X116035714Y-95648809D01*
X116454761Y-95648809D01*
X115354761Y-96172619D02*
X115354761Y-95072619D01*
X114935714Y-95072619D01*
X114830952Y-95125000D01*
X114778571Y-95177380D01*
X114726190Y-95282142D01*
X114726190Y-95439285D01*
X114778571Y-95544047D01*
X114830952Y-95596428D01*
X114935714Y-95648809D01*
X115354761Y-95648809D01*
X114307142Y-95858333D02*
X113783333Y-95858333D01*
X114411904Y-96172619D02*
X114045238Y-95072619D01*
X113678571Y-96172619D01*
X112788095Y-96172619D02*
X113311904Y-96172619D01*
X113311904Y-95072619D01*
X112578571Y-95072619D02*
X111950000Y-95072619D01*
X112264285Y-96172619D02*
X112264285Y-95072619D01*
X111583333Y-95596428D02*
X111216666Y-95596428D01*
X111059523Y-96172619D02*
X111583333Y-96172619D01*
X111583333Y-95072619D01*
X111059523Y-95072619D01*
X109959523Y-96067857D02*
X110011904Y-96120238D01*
X110169047Y-96172619D01*
X110273809Y-96172619D01*
X110430952Y-96120238D01*
X110535714Y-96015476D01*
X110588095Y-95910714D01*
X110640476Y-95701190D01*
X110640476Y-95544047D01*
X110588095Y-95334523D01*
X110535714Y-95229761D01*
X110430952Y-95125000D01*
X110273809Y-95072619D01*
X110169047Y-95072619D01*
X110011904Y-95125000D01*
X109959523Y-95177380D01*
X109488095Y-96172619D02*
X109488095Y-95072619D01*
X109488095Y-95596428D02*
X108859523Y-95596428D01*
X108859523Y-96172619D02*
X108859523Y-95072619D01*
X124809523Y-97708333D02*
X124285714Y-97708333D01*
X124914285Y-98022619D02*
X124547619Y-96922619D01*
X124180952Y-98022619D01*
X123866666Y-97708333D02*
X123342857Y-97708333D01*
X123971428Y-98022619D02*
X123604761Y-96922619D01*
X123238095Y-98022619D01*
X122871428Y-97603571D02*
X122033333Y-97603571D01*
X121509523Y-98022619D02*
X121509523Y-96922619D01*
X121090476Y-96922619D01*
X120985714Y-96975000D01*
X120933333Y-97027380D01*
X120880952Y-97132142D01*
X120880952Y-97289285D01*
X120933333Y-97394047D01*
X120985714Y-97446428D01*
X121090476Y-97498809D01*
X121509523Y-97498809D01*
X120409523Y-98022619D02*
X120409523Y-96922619D01*
X119204761Y-96922619D02*
X118838095Y-98022619D01*
X118471428Y-96922619D01*
X117685714Y-97970238D02*
X117790476Y-98022619D01*
X117999999Y-98022619D01*
X118104761Y-97970238D01*
X118157142Y-97865476D01*
X118157142Y-97446428D01*
X118104761Y-97341666D01*
X117999999Y-97289285D01*
X117790476Y-97289285D01*
X117685714Y-97341666D01*
X117633333Y-97446428D01*
X117633333Y-97551190D01*
X118157142Y-97655952D01*
X117161904Y-98022619D02*
X117161904Y-97289285D01*
X117161904Y-97498809D02*
X117109523Y-97394047D01*
X117057142Y-97341666D01*
X116952380Y-97289285D01*
X116847619Y-97289285D01*
X116533333Y-97970238D02*
X116428571Y-98022619D01*
X116219047Y-98022619D01*
X116114285Y-97970238D01*
X116061904Y-97865476D01*
X116061904Y-97813095D01*
X116114285Y-97708333D01*
X116219047Y-97655952D01*
X116376190Y-97655952D01*
X116480952Y-97603571D01*
X116533333Y-97498809D01*
X116533333Y-97446428D01*
X116480952Y-97341666D01*
X116376190Y-97289285D01*
X116219047Y-97289285D01*
X116114285Y-97341666D01*
X115590476Y-98022619D02*
X115590476Y-97289285D01*
X115590476Y-96922619D02*
X115642857Y-96975000D01*
X115590476Y-97027380D01*
X115538095Y-96975000D01*
X115590476Y-96922619D01*
X115590476Y-97027380D01*
X114909523Y-98022619D02*
X115014285Y-97970238D01*
X115066666Y-97917857D01*
X115119047Y-97813095D01*
X115119047Y-97498809D01*
X115066666Y-97394047D01*
X115014285Y-97341666D01*
X114909523Y-97289285D01*
X114752380Y-97289285D01*
X114647619Y-97341666D01*
X114595238Y-97394047D01*
X114542857Y-97498809D01*
X114542857Y-97813095D01*
X114595238Y-97917857D01*
X114647619Y-97970238D01*
X114752380Y-98022619D01*
X114909523Y-98022619D01*
X114071428Y-97289285D02*
X114071428Y-98022619D01*
X114071428Y-97394047D02*
X114019047Y-97341666D01*
X113914285Y-97289285D01*
X113757142Y-97289285D01*
X113652380Y-97341666D01*
X113600000Y-97446428D01*
X113600000Y-98022619D01*
X112290476Y-97027380D02*
X112238095Y-96975000D01*
X112133333Y-96922619D01*
X111871428Y-96922619D01*
X111766666Y-96975000D01*
X111714285Y-97027380D01*
X111661904Y-97132142D01*
X111661904Y-97236904D01*
X111714285Y-97394047D01*
X112342857Y-98022619D01*
X111661904Y-98022619D01*
X111190476Y-97917857D02*
X111138095Y-97970238D01*
X111190476Y-98022619D01*
X111242857Y-97970238D01*
X111190476Y-97917857D01*
X111190476Y-98022619D01*
X110457142Y-96922619D02*
X110352380Y-96922619D01*
X110247619Y-96975000D01*
X110195238Y-97027380D01*
X110142857Y-97132142D01*
X110090476Y-97341666D01*
X110090476Y-97603571D01*
X110142857Y-97813095D01*
X110195238Y-97917857D01*
X110247619Y-97970238D01*
X110352380Y-98022619D01*
X110457142Y-98022619D01*
X110561904Y-97970238D01*
X110614285Y-97917857D01*
X110666666Y-97813095D01*
X110719047Y-97603571D01*
X110719047Y-97341666D01*
X110666666Y-97132142D01*
X110614285Y-97027380D01*
X110561904Y-96975000D01*
X110457142Y-96922619D01*
M02*
