G04 #@! TF.GenerationSoftware,KiCad,Pcbnew,5.0.1-33cea8e~66~ubuntu18.04.1*
G04 #@! TF.CreationDate,2018-10-14T22:27:10+03:00*
G04 #@! TF.ProjectId,AA-PI-Radio-Board,41412D50492D526164696F2D426F6172,rev?*
G04 #@! TF.SameCoordinates,Original*
G04 #@! TF.FileFunction,Other,Fab,Top*
%FSLAX46Y46*%
G04 Gerber Fmt 4.6, Leading zero omitted, Abs format (unit mm)*
G04 Created by KiCad (PCBNEW 5.0.1-33cea8e~66~ubuntu18.04.1) date Sun 14 Oct 2018 22:27:10 MSK*
%MOMM*%
%LPD*%
G01*
G04 APERTURE LIST*
%ADD10C,0.100000*%
%ADD11C,0.080000*%
%ADD12C,0.120000*%
%ADD13C,0.130000*%
%ADD14C,0.150000*%
G04 APERTURE END LIST*
D10*
G04 #@! TO.C,D1*
X108900000Y-79700000D02*
X108900000Y-79450000D01*
X109250000Y-79700000D02*
X108900000Y-80200000D01*
X108550000Y-79700000D02*
X109250000Y-79700000D01*
X108900000Y-80200000D02*
X108550000Y-79700000D01*
X108900000Y-80200000D02*
X108900000Y-80400000D01*
X108550000Y-80200000D02*
X109250000Y-80200000D01*
X109600000Y-80800000D02*
X108200000Y-80800000D01*
X109600000Y-79000000D02*
X109600000Y-80800000D01*
X108200000Y-79000000D02*
X109600000Y-79000000D01*
X108200000Y-80800000D02*
X108200000Y-79000000D01*
G04 #@! TO.C,R16*
X150500000Y-116750000D02*
X150500000Y-114750000D01*
X151700000Y-116750000D02*
X150500000Y-116750000D01*
X151700000Y-114750000D02*
X151700000Y-116750000D01*
X150500000Y-114750000D02*
X151700000Y-114750000D01*
G04 #@! TO.C,C9*
X149000000Y-121500000D02*
X149000000Y-120300000D01*
X149000000Y-120300000D02*
X151000000Y-120300000D01*
X151000000Y-120300000D02*
X151000000Y-121500000D01*
X151000000Y-121500000D02*
X149000000Y-121500000D01*
G04 #@! TO.C,J4*
X132395000Y-83855000D02*
X135905000Y-83855000D01*
X132395000Y-80345000D02*
X135905000Y-80345000D01*
X135905000Y-80345000D02*
X135905000Y-83855000D01*
X132395000Y-80345000D02*
X132395000Y-83855000D01*
G04 #@! TO.C,J3*
X104945000Y-83245000D02*
X104945000Y-86755000D01*
X108455000Y-83245000D02*
X108455000Y-86755000D01*
X104945000Y-83245000D02*
X108455000Y-83245000D01*
X104945000Y-86755000D02*
X108455000Y-86755000D01*
G04 #@! TO.C,C33*
X142300000Y-123450000D02*
X142300000Y-121450000D01*
X143500000Y-123450000D02*
X142300000Y-123450000D01*
X143500000Y-121450000D02*
X143500000Y-123450000D01*
X142300000Y-121450000D02*
X143500000Y-121450000D01*
G04 #@! TO.C,C32*
X128100000Y-119800000D02*
X129300000Y-119800000D01*
X129300000Y-119800000D02*
X129300000Y-121800000D01*
X129300000Y-121800000D02*
X128100000Y-121800000D01*
X128100000Y-121800000D02*
X128100000Y-119800000D01*
G04 #@! TO.C,C22*
X118050000Y-133550000D02*
X118050000Y-130750000D01*
X118050000Y-130750000D02*
X117350000Y-130050000D01*
X117350000Y-130050000D02*
X115250000Y-130050000D01*
X115250000Y-130050000D02*
X115250000Y-133550000D01*
X115250000Y-133550000D02*
X118050000Y-133550000D01*
G04 #@! TO.C,C16*
X105850000Y-130150000D02*
X108650000Y-130150000D01*
X105850000Y-126650000D02*
X105850000Y-130150000D01*
X107950000Y-126650000D02*
X105850000Y-126650000D01*
X108650000Y-127350000D02*
X107950000Y-126650000D01*
X108650000Y-130150000D02*
X108650000Y-127350000D01*
G04 #@! TO.C,C8*
X151750000Y-123000000D02*
X148950000Y-123000000D01*
X148950000Y-123000000D02*
X148250000Y-123700000D01*
X148250000Y-123700000D02*
X148250000Y-125800000D01*
X148250000Y-125800000D02*
X151750000Y-125800000D01*
X151750000Y-125800000D02*
X151750000Y-123000000D01*
G04 #@! TO.C,C4*
X141500000Y-136650000D02*
X144300000Y-136650000D01*
X141500000Y-133150000D02*
X141500000Y-136650000D01*
X143600000Y-133150000D02*
X141500000Y-133150000D01*
X144300000Y-133850000D02*
X143600000Y-133150000D01*
X144300000Y-136650000D02*
X144300000Y-133850000D01*
G04 #@! TO.C,C10*
X148950000Y-118150000D02*
X148950000Y-115350000D01*
X148950000Y-115350000D02*
X148250000Y-114650000D01*
X148250000Y-114650000D02*
X146150000Y-114650000D01*
X146150000Y-114650000D02*
X146150000Y-118150000D01*
X146150000Y-118150000D02*
X148950000Y-118150000D01*
G04 #@! TO.C,C7*
X153600000Y-127300000D02*
X147300000Y-127300000D01*
X147300000Y-127300000D02*
X146300000Y-128300000D01*
X146300000Y-128300000D02*
X146300000Y-131600000D01*
X146300000Y-131600000D02*
X153600000Y-131600000D01*
X153600000Y-131600000D02*
X153600000Y-127300000D01*
G04 #@! TO.C,C13*
X146700000Y-93450000D02*
X146700000Y-91450000D01*
X147900000Y-93450000D02*
X146700000Y-93450000D01*
X147900000Y-91450000D02*
X147900000Y-93450000D01*
X146700000Y-91450000D02*
X147900000Y-91450000D01*
G04 #@! TO.C,C5*
X132500000Y-133300000D02*
X133700000Y-133300000D01*
X133700000Y-133300000D02*
X133700000Y-135300000D01*
X133700000Y-135300000D02*
X132500000Y-135300000D01*
X132500000Y-135300000D02*
X132500000Y-133300000D01*
G04 #@! TO.C,C19*
X110500000Y-132750000D02*
X112500000Y-132750000D01*
X110500000Y-133950000D02*
X110500000Y-132750000D01*
X112500000Y-133950000D02*
X110500000Y-133950000D01*
X112500000Y-132750000D02*
X112500000Y-133950000D01*
G04 #@! TO.C,C29*
X146050000Y-109500000D02*
X147250000Y-109500000D01*
X147250000Y-109500000D02*
X147250000Y-111500000D01*
X147250000Y-111500000D02*
X146050000Y-111500000D01*
X146050000Y-111500000D02*
X146050000Y-109500000D01*
G04 #@! TO.C,C30*
X130650000Y-116450000D02*
X132650000Y-116450000D01*
X130650000Y-117650000D02*
X130650000Y-116450000D01*
X132650000Y-117650000D02*
X130650000Y-117650000D01*
X132650000Y-116450000D02*
X132650000Y-117650000D01*
G04 #@! TO.C,C31*
X140950000Y-123450000D02*
X139750000Y-123450000D01*
X139750000Y-123450000D02*
X139750000Y-121450000D01*
X139750000Y-121450000D02*
X140950000Y-121450000D01*
X140950000Y-121450000D02*
X140950000Y-123450000D01*
G04 #@! TO.C,L4*
X151900000Y-103100000D02*
X150700000Y-103100000D01*
X150700000Y-103100000D02*
X150700000Y-101100000D01*
X150700000Y-101100000D02*
X151900000Y-101100000D01*
X151900000Y-101100000D02*
X151900000Y-103100000D01*
G04 #@! TO.C,R21*
X138050000Y-113800000D02*
X138050000Y-111800000D01*
X139250000Y-113800000D02*
X138050000Y-113800000D01*
X139250000Y-111800000D02*
X139250000Y-113800000D01*
X138050000Y-111800000D02*
X139250000Y-111800000D01*
G04 #@! TO.C,R22*
X140700000Y-111800000D02*
X141900000Y-111800000D01*
X141900000Y-111800000D02*
X141900000Y-113800000D01*
X141900000Y-113800000D02*
X140700000Y-113800000D01*
X140700000Y-113800000D02*
X140700000Y-111800000D01*
G04 #@! TO.C,C1*
X115650000Y-110600000D02*
X115650000Y-112600000D01*
X114450000Y-110600000D02*
X115650000Y-110600000D01*
X114450000Y-112600000D02*
X114450000Y-110600000D01*
X115650000Y-112600000D02*
X114450000Y-112600000D01*
G04 #@! TO.C,C2*
X118250000Y-110600000D02*
X118250000Y-112600000D01*
X117050000Y-110600000D02*
X118250000Y-110600000D01*
X117050000Y-112600000D02*
X117050000Y-110600000D01*
X118250000Y-112600000D02*
X117050000Y-112600000D01*
G04 #@! TO.C,C3*
X139950000Y-138250000D02*
X139950000Y-131950000D01*
X139950000Y-131950000D02*
X138950000Y-130950000D01*
X138950000Y-130950000D02*
X135650000Y-130950000D01*
X135650000Y-130950000D02*
X135650000Y-138250000D01*
X135650000Y-138250000D02*
X139950000Y-138250000D01*
G04 #@! TO.C,C6*
X121750000Y-104600000D02*
X121750000Y-106600000D01*
X120550000Y-104600000D02*
X121750000Y-104600000D01*
X120550000Y-106600000D02*
X120550000Y-104600000D01*
X121750000Y-106600000D02*
X120550000Y-106600000D01*
G04 #@! TO.C,C11*
X143450000Y-114850000D02*
X144650000Y-114850000D01*
X144650000Y-114850000D02*
X144650000Y-116850000D01*
X144650000Y-116850000D02*
X143450000Y-116850000D01*
X143450000Y-116850000D02*
X143450000Y-114850000D01*
G04 #@! TO.C,C12*
X136400000Y-93450000D02*
X136400000Y-91450000D01*
X137600000Y-93450000D02*
X136400000Y-93450000D01*
X137600000Y-91450000D02*
X137600000Y-93450000D01*
X136400000Y-91450000D02*
X137600000Y-91450000D01*
G04 #@! TO.C,C14*
X150000000Y-92550000D02*
X152000000Y-92550000D01*
X150000000Y-93750000D02*
X150000000Y-92550000D01*
X152000000Y-93750000D02*
X150000000Y-93750000D01*
X152000000Y-92550000D02*
X152000000Y-93750000D01*
G04 #@! TO.C,C15*
X135150000Y-93450000D02*
X133950000Y-93450000D01*
X133950000Y-93450000D02*
X133950000Y-91450000D01*
X133950000Y-91450000D02*
X135150000Y-91450000D01*
X135150000Y-91450000D02*
X135150000Y-93450000D01*
G04 #@! TO.C,C17*
X135050000Y-104950000D02*
X133050000Y-104950000D01*
X135050000Y-103750000D02*
X135050000Y-104950000D01*
X133050000Y-103750000D02*
X135050000Y-103750000D01*
X133050000Y-104950000D02*
X133050000Y-103750000D01*
G04 #@! TO.C,C18*
X146000000Y-104950000D02*
X144000000Y-104950000D01*
X146000000Y-103750000D02*
X146000000Y-104950000D01*
X144000000Y-103750000D02*
X146000000Y-103750000D01*
X144000000Y-104950000D02*
X144000000Y-103750000D01*
G04 #@! TO.C,C20*
X138750000Y-98100000D02*
X137550000Y-98100000D01*
X137550000Y-98100000D02*
X137550000Y-96100000D01*
X137550000Y-96100000D02*
X138750000Y-96100000D01*
X138750000Y-96100000D02*
X138750000Y-98100000D01*
G04 #@! TO.C,C21*
X151900000Y-96125000D02*
X151900000Y-98125000D01*
X150700000Y-96125000D02*
X151900000Y-96125000D01*
X150700000Y-98125000D02*
X150700000Y-96125000D01*
X151900000Y-98125000D02*
X150700000Y-98125000D01*
G04 #@! TO.C,C23*
X115800000Y-128100000D02*
X115800000Y-126900000D01*
X115800000Y-126900000D02*
X117800000Y-126900000D01*
X117800000Y-126900000D02*
X117800000Y-128100000D01*
X117800000Y-128100000D02*
X115800000Y-128100000D01*
G04 #@! TO.C,C24*
X128500000Y-97550000D02*
X129700000Y-97550000D01*
X129700000Y-97550000D02*
X129700000Y-99550000D01*
X129700000Y-99550000D02*
X128500000Y-99550000D01*
X128500000Y-99550000D02*
X128500000Y-97550000D01*
G04 #@! TO.C,C25*
X142600000Y-100100000D02*
X142600000Y-102100000D01*
X141400000Y-100100000D02*
X142600000Y-100100000D01*
X141400000Y-102100000D02*
X141400000Y-100100000D01*
X142600000Y-102100000D02*
X141400000Y-102100000D01*
G04 #@! TO.C,C26*
X130000000Y-107400000D02*
X130000000Y-105400000D01*
X131200000Y-107400000D02*
X130000000Y-107400000D01*
X131200000Y-105400000D02*
X131200000Y-107400000D01*
X130000000Y-105400000D02*
X131200000Y-105400000D01*
G04 #@! TO.C,C27*
X146000000Y-106350000D02*
X146000000Y-107550000D01*
X146000000Y-107550000D02*
X144000000Y-107550000D01*
X144000000Y-107550000D02*
X144000000Y-106350000D01*
X144000000Y-106350000D02*
X146000000Y-106350000D01*
G04 #@! TO.C,C28*
X134750000Y-111800000D02*
X135950000Y-111800000D01*
X135950000Y-111800000D02*
X135950000Y-113800000D01*
X135950000Y-113800000D02*
X134750000Y-113800000D01*
X134750000Y-113800000D02*
X134750000Y-111800000D01*
G04 #@! TO.C,D2*
X112500000Y-79000000D02*
X112500000Y-80800000D01*
X112500000Y-80800000D02*
X111100000Y-80800000D01*
X111100000Y-80800000D02*
X111100000Y-79000000D01*
X111100000Y-79000000D02*
X112500000Y-79000000D01*
X112150000Y-79600000D02*
X111450000Y-79600000D01*
X111800000Y-79600000D02*
X111800000Y-79400000D01*
X111800000Y-79600000D02*
X112150000Y-80100000D01*
X112150000Y-80100000D02*
X111450000Y-80100000D01*
X111450000Y-80100000D02*
X111800000Y-79600000D01*
X111800000Y-80100000D02*
X111800000Y-80350000D01*
G04 #@! TO.C,J1*
X121025000Y-79300000D02*
G75*
G03X121025000Y-79300000I-3175000J0D01*
G01*
X114675000Y-76125000D02*
X121025000Y-76125000D01*
X114675000Y-76125000D02*
X114675000Y-82475000D01*
X114675000Y-82475000D02*
X121025000Y-82475000D01*
X121025000Y-76125000D02*
X121025000Y-82475000D01*
G04 #@! TO.C,J5*
X147285000Y-84820000D02*
X145380000Y-84820000D01*
X145380000Y-84820000D02*
X145380000Y-79740000D01*
X145380000Y-79740000D02*
X147920000Y-79740000D01*
X147920000Y-79740000D02*
X147920000Y-84185000D01*
X147920000Y-84185000D02*
X147285000Y-84820000D01*
G04 #@! TO.C,J6*
X144320000Y-84185000D02*
X143685000Y-84820000D01*
X144320000Y-79740000D02*
X144320000Y-84185000D01*
X141780000Y-79740000D02*
X144320000Y-79740000D01*
X141780000Y-84820000D02*
X141780000Y-79740000D01*
X143685000Y-84820000D02*
X141780000Y-84820000D01*
G04 #@! TO.C,J7*
X127430000Y-127735000D02*
X127430000Y-125830000D01*
X127430000Y-125830000D02*
X135050000Y-125830000D01*
X135050000Y-125830000D02*
X135050000Y-128370000D01*
X135050000Y-128370000D02*
X128065000Y-128370000D01*
X128065000Y-128370000D02*
X127430000Y-127735000D01*
G04 #@! TO.C,L1*
X122850000Y-132500000D02*
X122850000Y-131300000D01*
X122850000Y-131300000D02*
X124850000Y-131300000D01*
X124850000Y-131300000D02*
X124850000Y-132500000D01*
X124850000Y-132500000D02*
X122850000Y-132500000D01*
G04 #@! TO.C,L2*
X111800000Y-110600000D02*
X113000000Y-110600000D01*
X113000000Y-110600000D02*
X113000000Y-112600000D01*
X113000000Y-112600000D02*
X111800000Y-112600000D01*
X111800000Y-112600000D02*
X111800000Y-110600000D01*
G04 #@! TO.C,L3*
X138750000Y-101100000D02*
X138750000Y-103100000D01*
X137550000Y-101100000D02*
X138750000Y-101100000D01*
X137550000Y-103100000D02*
X137550000Y-101100000D01*
X138750000Y-103100000D02*
X137550000Y-103100000D01*
G04 #@! TO.C,R1*
X109950000Y-118400000D02*
X111950000Y-118400000D01*
X109950000Y-119600000D02*
X109950000Y-118400000D01*
X111950000Y-119600000D02*
X109950000Y-119600000D01*
X111950000Y-118400000D02*
X111950000Y-119600000D01*
G04 #@! TO.C,R2*
X111975000Y-120950000D02*
X111975000Y-122150000D01*
X111975000Y-122150000D02*
X109975000Y-122150000D01*
X109975000Y-122150000D02*
X109975000Y-120950000D01*
X109975000Y-120950000D02*
X111975000Y-120950000D01*
G04 #@! TO.C,R3*
X127600000Y-132500000D02*
X127600000Y-131300000D01*
X127600000Y-131300000D02*
X129600000Y-131300000D01*
X129600000Y-131300000D02*
X129600000Y-132500000D01*
X129600000Y-132500000D02*
X127600000Y-132500000D01*
G04 #@! TO.C,R4*
X141250000Y-89400000D02*
X140050000Y-89400000D01*
X140050000Y-89400000D02*
X140050000Y-87400000D01*
X140050000Y-87400000D02*
X141250000Y-87400000D01*
X141250000Y-87400000D02*
X141250000Y-89400000D01*
G04 #@! TO.C,R5*
X135000000Y-88250000D02*
X137000000Y-88250000D01*
X135000000Y-89450000D02*
X135000000Y-88250000D01*
X137000000Y-89450000D02*
X135000000Y-89450000D01*
X137000000Y-88250000D02*
X137000000Y-89450000D01*
G04 #@! TO.C,R6*
X127500000Y-105400000D02*
X128700000Y-105400000D01*
X128700000Y-105400000D02*
X128700000Y-107400000D01*
X128700000Y-107400000D02*
X127500000Y-107400000D01*
X127500000Y-107400000D02*
X127500000Y-105400000D01*
G04 #@! TO.C,R7*
X143850000Y-130250000D02*
X141850000Y-130250000D01*
X143850000Y-129050000D02*
X143850000Y-130250000D01*
X141850000Y-129050000D02*
X143850000Y-129050000D01*
X141850000Y-130250000D02*
X141850000Y-129050000D01*
G04 #@! TO.C,R8*
X136350000Y-107650000D02*
X136350000Y-106450000D01*
X136350000Y-106450000D02*
X138350000Y-106450000D01*
X138350000Y-106450000D02*
X138350000Y-107650000D01*
X138350000Y-107650000D02*
X136350000Y-107650000D01*
G04 #@! TO.C,R9*
X138700000Y-83350000D02*
X138700000Y-81350000D01*
X139900000Y-83350000D02*
X138700000Y-83350000D01*
X139900000Y-81350000D02*
X139900000Y-83350000D01*
X138700000Y-81350000D02*
X139900000Y-81350000D01*
G04 #@! TO.C,R10*
X125700000Y-104000000D02*
X123700000Y-104000000D01*
X125700000Y-102800000D02*
X125700000Y-104000000D01*
X123700000Y-102800000D02*
X125700000Y-102800000D01*
X123700000Y-104000000D02*
X123700000Y-102800000D01*
G04 #@! TO.C,R11*
X142200000Y-93775000D02*
X141000000Y-93775000D01*
X141000000Y-93775000D02*
X141000000Y-91775000D01*
X141000000Y-91775000D02*
X142200000Y-91775000D01*
X142200000Y-91775000D02*
X142200000Y-93775000D01*
G04 #@! TO.C,R12*
X145100000Y-89500000D02*
X143100000Y-89500000D01*
X145100000Y-88300000D02*
X145100000Y-89500000D01*
X143100000Y-88300000D02*
X145100000Y-88300000D01*
X143100000Y-89500000D02*
X143100000Y-88300000D01*
G04 #@! TO.C,R13*
X147500000Y-89500000D02*
X147500000Y-88300000D01*
X147500000Y-88300000D02*
X149500000Y-88300000D01*
X149500000Y-88300000D02*
X149500000Y-89500000D01*
X149500000Y-89500000D02*
X147500000Y-89500000D01*
G04 #@! TO.C,R14*
X151350000Y-89400000D02*
X151350000Y-87400000D01*
X152550000Y-89400000D02*
X151350000Y-89400000D01*
X152550000Y-87400000D02*
X152550000Y-89400000D01*
X151350000Y-87400000D02*
X152550000Y-87400000D01*
G04 #@! TO.C,R15*
X152350000Y-110800000D02*
X152350000Y-112000000D01*
X152350000Y-112000000D02*
X150350000Y-112000000D01*
X150350000Y-112000000D02*
X150350000Y-110800000D01*
X150350000Y-110800000D02*
X152350000Y-110800000D01*
G04 #@! TO.C,R17*
X130650000Y-110350000D02*
X130650000Y-109150000D01*
X130650000Y-109150000D02*
X132650000Y-109150000D01*
X132650000Y-109150000D02*
X132650000Y-110350000D01*
X132650000Y-110350000D02*
X130650000Y-110350000D01*
G04 #@! TO.C,R18*
X143450000Y-111500000D02*
X143450000Y-109500000D01*
X144650000Y-111500000D02*
X143450000Y-111500000D01*
X144650000Y-109500000D02*
X144650000Y-111500000D01*
X143450000Y-109500000D02*
X144650000Y-109500000D01*
G04 #@! TO.C,R19*
X132050000Y-112400000D02*
X133250000Y-112400000D01*
X133250000Y-112400000D02*
X133250000Y-114400000D01*
X133250000Y-114400000D02*
X132050000Y-114400000D01*
X132050000Y-114400000D02*
X132050000Y-112400000D01*
G04 #@! TO.C,R20*
X129400000Y-114400000D02*
X129400000Y-112400000D01*
X130600000Y-114400000D02*
X129400000Y-114400000D01*
X130600000Y-112400000D02*
X130600000Y-114400000D01*
X129400000Y-112400000D02*
X130600000Y-112400000D01*
G04 #@! TO.C,Y1*
X121530000Y-119540000D02*
X116930000Y-119540000D01*
X116930000Y-119540000D02*
X116730000Y-119340000D01*
X116730000Y-119340000D02*
X116730000Y-116540000D01*
X116730000Y-116540000D02*
X116930000Y-116340000D01*
X116930000Y-116340000D02*
X121530000Y-116340000D01*
X121530000Y-116340000D02*
X121730000Y-116540000D01*
X121730000Y-116540000D02*
X121730000Y-119340000D01*
X121730000Y-119340000D02*
X121530000Y-119540000D01*
X121730000Y-117340000D02*
X120730000Y-116340000D01*
G04 #@! TD*
G04 #@! TO.C,R16*
D11*
X151326190Y-116071428D02*
X151088095Y-116238095D01*
X151326190Y-116357142D02*
X150826190Y-116357142D01*
X150826190Y-116166666D01*
X150850000Y-116119047D01*
X150873809Y-116095238D01*
X150921428Y-116071428D01*
X150992857Y-116071428D01*
X151040476Y-116095238D01*
X151064285Y-116119047D01*
X151088095Y-116166666D01*
X151088095Y-116357142D01*
X151326190Y-115595238D02*
X151326190Y-115880952D01*
X151326190Y-115738095D02*
X150826190Y-115738095D01*
X150897619Y-115785714D01*
X150945238Y-115833333D01*
X150969047Y-115880952D01*
X150826190Y-115166666D02*
X150826190Y-115261904D01*
X150850000Y-115309523D01*
X150873809Y-115333333D01*
X150945238Y-115380952D01*
X151040476Y-115404761D01*
X151230952Y-115404761D01*
X151278571Y-115380952D01*
X151302380Y-115357142D01*
X151326190Y-115309523D01*
X151326190Y-115214285D01*
X151302380Y-115166666D01*
X151278571Y-115142857D01*
X151230952Y-115119047D01*
X151111904Y-115119047D01*
X151064285Y-115142857D01*
X151040476Y-115166666D01*
X151016666Y-115214285D01*
X151016666Y-115309523D01*
X151040476Y-115357142D01*
X151064285Y-115380952D01*
X151111904Y-115404761D01*
G04 #@! TO.C,C9*
X149916666Y-121078571D02*
X149892857Y-121102380D01*
X149821428Y-121126190D01*
X149773809Y-121126190D01*
X149702380Y-121102380D01*
X149654761Y-121054761D01*
X149630952Y-121007142D01*
X149607142Y-120911904D01*
X149607142Y-120840476D01*
X149630952Y-120745238D01*
X149654761Y-120697619D01*
X149702380Y-120650000D01*
X149773809Y-120626190D01*
X149821428Y-120626190D01*
X149892857Y-120650000D01*
X149916666Y-120673809D01*
X150154761Y-121126190D02*
X150250000Y-121126190D01*
X150297619Y-121102380D01*
X150321428Y-121078571D01*
X150369047Y-121007142D01*
X150392857Y-120911904D01*
X150392857Y-120721428D01*
X150369047Y-120673809D01*
X150345238Y-120650000D01*
X150297619Y-120626190D01*
X150202380Y-120626190D01*
X150154761Y-120650000D01*
X150130952Y-120673809D01*
X150107142Y-120721428D01*
X150107142Y-120840476D01*
X150130952Y-120888095D01*
X150154761Y-120911904D01*
X150202380Y-120935714D01*
X150297619Y-120935714D01*
X150345238Y-120911904D01*
X150369047Y-120888095D01*
X150392857Y-120840476D01*
G04 #@! TO.C,J4*
D12*
X133883333Y-81661904D02*
X133883333Y-82233333D01*
X133845238Y-82347619D01*
X133769047Y-82423809D01*
X133654761Y-82461904D01*
X133578571Y-82461904D01*
X134607142Y-81928571D02*
X134607142Y-82461904D01*
X134416666Y-81623809D02*
X134226190Y-82195238D01*
X134721428Y-82195238D01*
G04 #@! TO.C,J3*
X106433333Y-84561904D02*
X106433333Y-85133333D01*
X106395238Y-85247619D01*
X106319047Y-85323809D01*
X106204761Y-85361904D01*
X106128571Y-85361904D01*
X106738095Y-84561904D02*
X107233333Y-84561904D01*
X106966666Y-84866666D01*
X107080952Y-84866666D01*
X107157142Y-84904761D01*
X107195238Y-84942857D01*
X107233333Y-85019047D01*
X107233333Y-85209523D01*
X107195238Y-85285714D01*
X107157142Y-85323809D01*
X107080952Y-85361904D01*
X106852380Y-85361904D01*
X106776190Y-85323809D01*
X106738095Y-85285714D01*
G04 #@! TO.C,C33*
D11*
X143078571Y-122771428D02*
X143102380Y-122795238D01*
X143126190Y-122866666D01*
X143126190Y-122914285D01*
X143102380Y-122985714D01*
X143054761Y-123033333D01*
X143007142Y-123057142D01*
X142911904Y-123080952D01*
X142840476Y-123080952D01*
X142745238Y-123057142D01*
X142697619Y-123033333D01*
X142650000Y-122985714D01*
X142626190Y-122914285D01*
X142626190Y-122866666D01*
X142650000Y-122795238D01*
X142673809Y-122771428D01*
X142626190Y-122604761D02*
X142626190Y-122295238D01*
X142816666Y-122461904D01*
X142816666Y-122390476D01*
X142840476Y-122342857D01*
X142864285Y-122319047D01*
X142911904Y-122295238D01*
X143030952Y-122295238D01*
X143078571Y-122319047D01*
X143102380Y-122342857D01*
X143126190Y-122390476D01*
X143126190Y-122533333D01*
X143102380Y-122580952D01*
X143078571Y-122604761D01*
X142626190Y-122128571D02*
X142626190Y-121819047D01*
X142816666Y-121985714D01*
X142816666Y-121914285D01*
X142840476Y-121866666D01*
X142864285Y-121842857D01*
X142911904Y-121819047D01*
X143030952Y-121819047D01*
X143078571Y-121842857D01*
X143102380Y-121866666D01*
X143126190Y-121914285D01*
X143126190Y-122057142D01*
X143102380Y-122104761D01*
X143078571Y-122128571D01*
G04 #@! TO.C,C32*
X128878571Y-121121428D02*
X128902380Y-121145238D01*
X128926190Y-121216666D01*
X128926190Y-121264285D01*
X128902380Y-121335714D01*
X128854761Y-121383333D01*
X128807142Y-121407142D01*
X128711904Y-121430952D01*
X128640476Y-121430952D01*
X128545238Y-121407142D01*
X128497619Y-121383333D01*
X128450000Y-121335714D01*
X128426190Y-121264285D01*
X128426190Y-121216666D01*
X128450000Y-121145238D01*
X128473809Y-121121428D01*
X128426190Y-120954761D02*
X128426190Y-120645238D01*
X128616666Y-120811904D01*
X128616666Y-120740476D01*
X128640476Y-120692857D01*
X128664285Y-120669047D01*
X128711904Y-120645238D01*
X128830952Y-120645238D01*
X128878571Y-120669047D01*
X128902380Y-120692857D01*
X128926190Y-120740476D01*
X128926190Y-120883333D01*
X128902380Y-120930952D01*
X128878571Y-120954761D01*
X128473809Y-120454761D02*
X128450000Y-120430952D01*
X128426190Y-120383333D01*
X128426190Y-120264285D01*
X128450000Y-120216666D01*
X128473809Y-120192857D01*
X128521428Y-120169047D01*
X128569047Y-120169047D01*
X128640476Y-120192857D01*
X128926190Y-120478571D01*
X128926190Y-120169047D01*
G04 #@! TO.C,C22*
D13*
X116964285Y-132365714D02*
X117006190Y-132407619D01*
X117048095Y-132533333D01*
X117048095Y-132617142D01*
X117006190Y-132742857D01*
X116922380Y-132826666D01*
X116838571Y-132868571D01*
X116670952Y-132910476D01*
X116545238Y-132910476D01*
X116377619Y-132868571D01*
X116293809Y-132826666D01*
X116210000Y-132742857D01*
X116168095Y-132617142D01*
X116168095Y-132533333D01*
X116210000Y-132407619D01*
X116251904Y-132365714D01*
X116251904Y-132030476D02*
X116210000Y-131988571D01*
X116168095Y-131904761D01*
X116168095Y-131695238D01*
X116210000Y-131611428D01*
X116251904Y-131569523D01*
X116335714Y-131527619D01*
X116419523Y-131527619D01*
X116545238Y-131569523D01*
X117048095Y-132072380D01*
X117048095Y-131527619D01*
X116251904Y-131192380D02*
X116210000Y-131150476D01*
X116168095Y-131066666D01*
X116168095Y-130857142D01*
X116210000Y-130773333D01*
X116251904Y-130731428D01*
X116335714Y-130689523D01*
X116419523Y-130689523D01*
X116545238Y-130731428D01*
X117048095Y-131234285D01*
X117048095Y-130689523D01*
G04 #@! TO.C,C16*
X107564285Y-128965714D02*
X107606190Y-129007619D01*
X107648095Y-129133333D01*
X107648095Y-129217142D01*
X107606190Y-129342857D01*
X107522380Y-129426666D01*
X107438571Y-129468571D01*
X107270952Y-129510476D01*
X107145238Y-129510476D01*
X106977619Y-129468571D01*
X106893809Y-129426666D01*
X106810000Y-129342857D01*
X106768095Y-129217142D01*
X106768095Y-129133333D01*
X106810000Y-129007619D01*
X106851904Y-128965714D01*
X107648095Y-128127619D02*
X107648095Y-128630476D01*
X107648095Y-128379047D02*
X106768095Y-128379047D01*
X106893809Y-128462857D01*
X106977619Y-128546666D01*
X107019523Y-128630476D01*
X106768095Y-127373333D02*
X106768095Y-127540952D01*
X106810000Y-127624761D01*
X106851904Y-127666666D01*
X106977619Y-127750476D01*
X107145238Y-127792380D01*
X107480476Y-127792380D01*
X107564285Y-127750476D01*
X107606190Y-127708571D01*
X107648095Y-127624761D01*
X107648095Y-127457142D01*
X107606190Y-127373333D01*
X107564285Y-127331428D01*
X107480476Y-127289523D01*
X107270952Y-127289523D01*
X107187142Y-127331428D01*
X107145238Y-127373333D01*
X107103333Y-127457142D01*
X107103333Y-127624761D01*
X107145238Y-127708571D01*
X107187142Y-127750476D01*
X107270952Y-127792380D01*
G04 #@! TO.C,C8*
X149853333Y-124714285D02*
X149811428Y-124756190D01*
X149685714Y-124798095D01*
X149601904Y-124798095D01*
X149476190Y-124756190D01*
X149392380Y-124672380D01*
X149350476Y-124588571D01*
X149308571Y-124420952D01*
X149308571Y-124295238D01*
X149350476Y-124127619D01*
X149392380Y-124043809D01*
X149476190Y-123960000D01*
X149601904Y-123918095D01*
X149685714Y-123918095D01*
X149811428Y-123960000D01*
X149853333Y-124001904D01*
X150356190Y-124295238D02*
X150272380Y-124253333D01*
X150230476Y-124211428D01*
X150188571Y-124127619D01*
X150188571Y-124085714D01*
X150230476Y-124001904D01*
X150272380Y-123960000D01*
X150356190Y-123918095D01*
X150523809Y-123918095D01*
X150607619Y-123960000D01*
X150649523Y-124001904D01*
X150691428Y-124085714D01*
X150691428Y-124127619D01*
X150649523Y-124211428D01*
X150607619Y-124253333D01*
X150523809Y-124295238D01*
X150356190Y-124295238D01*
X150272380Y-124337142D01*
X150230476Y-124379047D01*
X150188571Y-124462857D01*
X150188571Y-124630476D01*
X150230476Y-124714285D01*
X150272380Y-124756190D01*
X150356190Y-124798095D01*
X150523809Y-124798095D01*
X150607619Y-124756190D01*
X150649523Y-124714285D01*
X150691428Y-124630476D01*
X150691428Y-124462857D01*
X150649523Y-124379047D01*
X150607619Y-124337142D01*
X150523809Y-124295238D01*
G04 #@! TO.C,C4*
X143214285Y-135046666D02*
X143256190Y-135088571D01*
X143298095Y-135214285D01*
X143298095Y-135298095D01*
X143256190Y-135423809D01*
X143172380Y-135507619D01*
X143088571Y-135549523D01*
X142920952Y-135591428D01*
X142795238Y-135591428D01*
X142627619Y-135549523D01*
X142543809Y-135507619D01*
X142460000Y-135423809D01*
X142418095Y-135298095D01*
X142418095Y-135214285D01*
X142460000Y-135088571D01*
X142501904Y-135046666D01*
X142711428Y-134292380D02*
X143298095Y-134292380D01*
X142376190Y-134501904D02*
X143004761Y-134711428D01*
X143004761Y-134166666D01*
G04 #@! TO.C,C10*
X147864285Y-116965714D02*
X147906190Y-117007619D01*
X147948095Y-117133333D01*
X147948095Y-117217142D01*
X147906190Y-117342857D01*
X147822380Y-117426666D01*
X147738571Y-117468571D01*
X147570952Y-117510476D01*
X147445238Y-117510476D01*
X147277619Y-117468571D01*
X147193809Y-117426666D01*
X147110000Y-117342857D01*
X147068095Y-117217142D01*
X147068095Y-117133333D01*
X147110000Y-117007619D01*
X147151904Y-116965714D01*
X147948095Y-116127619D02*
X147948095Y-116630476D01*
X147948095Y-116379047D02*
X147068095Y-116379047D01*
X147193809Y-116462857D01*
X147277619Y-116546666D01*
X147319523Y-116630476D01*
X147068095Y-115582857D02*
X147068095Y-115499047D01*
X147110000Y-115415238D01*
X147151904Y-115373333D01*
X147235714Y-115331428D01*
X147403333Y-115289523D01*
X147612857Y-115289523D01*
X147780476Y-115331428D01*
X147864285Y-115373333D01*
X147906190Y-115415238D01*
X147948095Y-115499047D01*
X147948095Y-115582857D01*
X147906190Y-115666666D01*
X147864285Y-115708571D01*
X147780476Y-115750476D01*
X147612857Y-115792380D01*
X147403333Y-115792380D01*
X147235714Y-115750476D01*
X147151904Y-115708571D01*
X147110000Y-115666666D01*
X147068095Y-115582857D01*
G04 #@! TO.C,C7*
D14*
X149783333Y-129807142D02*
X149735714Y-129854761D01*
X149592857Y-129902380D01*
X149497619Y-129902380D01*
X149354761Y-129854761D01*
X149259523Y-129759523D01*
X149211904Y-129664285D01*
X149164285Y-129473809D01*
X149164285Y-129330952D01*
X149211904Y-129140476D01*
X149259523Y-129045238D01*
X149354761Y-128950000D01*
X149497619Y-128902380D01*
X149592857Y-128902380D01*
X149735714Y-128950000D01*
X149783333Y-128997619D01*
X150116666Y-128902380D02*
X150783333Y-128902380D01*
X150354761Y-129902380D01*
G04 #@! TO.C,C13*
D11*
X147478571Y-92771428D02*
X147502380Y-92795238D01*
X147526190Y-92866666D01*
X147526190Y-92914285D01*
X147502380Y-92985714D01*
X147454761Y-93033333D01*
X147407142Y-93057142D01*
X147311904Y-93080952D01*
X147240476Y-93080952D01*
X147145238Y-93057142D01*
X147097619Y-93033333D01*
X147050000Y-92985714D01*
X147026190Y-92914285D01*
X147026190Y-92866666D01*
X147050000Y-92795238D01*
X147073809Y-92771428D01*
X147526190Y-92295238D02*
X147526190Y-92580952D01*
X147526190Y-92438095D02*
X147026190Y-92438095D01*
X147097619Y-92485714D01*
X147145238Y-92533333D01*
X147169047Y-92580952D01*
X147026190Y-92128571D02*
X147026190Y-91819047D01*
X147216666Y-91985714D01*
X147216666Y-91914285D01*
X147240476Y-91866666D01*
X147264285Y-91842857D01*
X147311904Y-91819047D01*
X147430952Y-91819047D01*
X147478571Y-91842857D01*
X147502380Y-91866666D01*
X147526190Y-91914285D01*
X147526190Y-92057142D01*
X147502380Y-92104761D01*
X147478571Y-92128571D01*
G04 #@! TO.C,C5*
X133278571Y-134383333D02*
X133302380Y-134407142D01*
X133326190Y-134478571D01*
X133326190Y-134526190D01*
X133302380Y-134597619D01*
X133254761Y-134645238D01*
X133207142Y-134669047D01*
X133111904Y-134692857D01*
X133040476Y-134692857D01*
X132945238Y-134669047D01*
X132897619Y-134645238D01*
X132850000Y-134597619D01*
X132826190Y-134526190D01*
X132826190Y-134478571D01*
X132850000Y-134407142D01*
X132873809Y-134383333D01*
X132826190Y-133930952D02*
X132826190Y-134169047D01*
X133064285Y-134192857D01*
X133040476Y-134169047D01*
X133016666Y-134121428D01*
X133016666Y-134002380D01*
X133040476Y-133954761D01*
X133064285Y-133930952D01*
X133111904Y-133907142D01*
X133230952Y-133907142D01*
X133278571Y-133930952D01*
X133302380Y-133954761D01*
X133326190Y-134002380D01*
X133326190Y-134121428D01*
X133302380Y-134169047D01*
X133278571Y-134192857D01*
G04 #@! TO.C,C19*
X111178571Y-133528571D02*
X111154761Y-133552380D01*
X111083333Y-133576190D01*
X111035714Y-133576190D01*
X110964285Y-133552380D01*
X110916666Y-133504761D01*
X110892857Y-133457142D01*
X110869047Y-133361904D01*
X110869047Y-133290476D01*
X110892857Y-133195238D01*
X110916666Y-133147619D01*
X110964285Y-133100000D01*
X111035714Y-133076190D01*
X111083333Y-133076190D01*
X111154761Y-133100000D01*
X111178571Y-133123809D01*
X111654761Y-133576190D02*
X111369047Y-133576190D01*
X111511904Y-133576190D02*
X111511904Y-133076190D01*
X111464285Y-133147619D01*
X111416666Y-133195238D01*
X111369047Y-133219047D01*
X111892857Y-133576190D02*
X111988095Y-133576190D01*
X112035714Y-133552380D01*
X112059523Y-133528571D01*
X112107142Y-133457142D01*
X112130952Y-133361904D01*
X112130952Y-133171428D01*
X112107142Y-133123809D01*
X112083333Y-133100000D01*
X112035714Y-133076190D01*
X111940476Y-133076190D01*
X111892857Y-133100000D01*
X111869047Y-133123809D01*
X111845238Y-133171428D01*
X111845238Y-133290476D01*
X111869047Y-133338095D01*
X111892857Y-133361904D01*
X111940476Y-133385714D01*
X112035714Y-133385714D01*
X112083333Y-133361904D01*
X112107142Y-133338095D01*
X112130952Y-133290476D01*
G04 #@! TO.C,C29*
X146828571Y-110821428D02*
X146852380Y-110845238D01*
X146876190Y-110916666D01*
X146876190Y-110964285D01*
X146852380Y-111035714D01*
X146804761Y-111083333D01*
X146757142Y-111107142D01*
X146661904Y-111130952D01*
X146590476Y-111130952D01*
X146495238Y-111107142D01*
X146447619Y-111083333D01*
X146400000Y-111035714D01*
X146376190Y-110964285D01*
X146376190Y-110916666D01*
X146400000Y-110845238D01*
X146423809Y-110821428D01*
X146423809Y-110630952D02*
X146400000Y-110607142D01*
X146376190Y-110559523D01*
X146376190Y-110440476D01*
X146400000Y-110392857D01*
X146423809Y-110369047D01*
X146471428Y-110345238D01*
X146519047Y-110345238D01*
X146590476Y-110369047D01*
X146876190Y-110654761D01*
X146876190Y-110345238D01*
X146876190Y-110107142D02*
X146876190Y-110011904D01*
X146852380Y-109964285D01*
X146828571Y-109940476D01*
X146757142Y-109892857D01*
X146661904Y-109869047D01*
X146471428Y-109869047D01*
X146423809Y-109892857D01*
X146400000Y-109916666D01*
X146376190Y-109964285D01*
X146376190Y-110059523D01*
X146400000Y-110107142D01*
X146423809Y-110130952D01*
X146471428Y-110154761D01*
X146590476Y-110154761D01*
X146638095Y-110130952D01*
X146661904Y-110107142D01*
X146685714Y-110059523D01*
X146685714Y-109964285D01*
X146661904Y-109916666D01*
X146638095Y-109892857D01*
X146590476Y-109869047D01*
G04 #@! TO.C,C30*
X131328571Y-117228571D02*
X131304761Y-117252380D01*
X131233333Y-117276190D01*
X131185714Y-117276190D01*
X131114285Y-117252380D01*
X131066666Y-117204761D01*
X131042857Y-117157142D01*
X131019047Y-117061904D01*
X131019047Y-116990476D01*
X131042857Y-116895238D01*
X131066666Y-116847619D01*
X131114285Y-116800000D01*
X131185714Y-116776190D01*
X131233333Y-116776190D01*
X131304761Y-116800000D01*
X131328571Y-116823809D01*
X131495238Y-116776190D02*
X131804761Y-116776190D01*
X131638095Y-116966666D01*
X131709523Y-116966666D01*
X131757142Y-116990476D01*
X131780952Y-117014285D01*
X131804761Y-117061904D01*
X131804761Y-117180952D01*
X131780952Y-117228571D01*
X131757142Y-117252380D01*
X131709523Y-117276190D01*
X131566666Y-117276190D01*
X131519047Y-117252380D01*
X131495238Y-117228571D01*
X132114285Y-116776190D02*
X132161904Y-116776190D01*
X132209523Y-116800000D01*
X132233333Y-116823809D01*
X132257142Y-116871428D01*
X132280952Y-116966666D01*
X132280952Y-117085714D01*
X132257142Y-117180952D01*
X132233333Y-117228571D01*
X132209523Y-117252380D01*
X132161904Y-117276190D01*
X132114285Y-117276190D01*
X132066666Y-117252380D01*
X132042857Y-117228571D01*
X132019047Y-117180952D01*
X131995238Y-117085714D01*
X131995238Y-116966666D01*
X132019047Y-116871428D01*
X132042857Y-116823809D01*
X132066666Y-116800000D01*
X132114285Y-116776190D01*
G04 #@! TO.C,C31*
X140528571Y-122771428D02*
X140552380Y-122795238D01*
X140576190Y-122866666D01*
X140576190Y-122914285D01*
X140552380Y-122985714D01*
X140504761Y-123033333D01*
X140457142Y-123057142D01*
X140361904Y-123080952D01*
X140290476Y-123080952D01*
X140195238Y-123057142D01*
X140147619Y-123033333D01*
X140100000Y-122985714D01*
X140076190Y-122914285D01*
X140076190Y-122866666D01*
X140100000Y-122795238D01*
X140123809Y-122771428D01*
X140076190Y-122604761D02*
X140076190Y-122295238D01*
X140266666Y-122461904D01*
X140266666Y-122390476D01*
X140290476Y-122342857D01*
X140314285Y-122319047D01*
X140361904Y-122295238D01*
X140480952Y-122295238D01*
X140528571Y-122319047D01*
X140552380Y-122342857D01*
X140576190Y-122390476D01*
X140576190Y-122533333D01*
X140552380Y-122580952D01*
X140528571Y-122604761D01*
X140576190Y-121819047D02*
X140576190Y-122104761D01*
X140576190Y-121961904D02*
X140076190Y-121961904D01*
X140147619Y-122009523D01*
X140195238Y-122057142D01*
X140219047Y-122104761D01*
G04 #@! TO.C,L4*
X151526190Y-102183333D02*
X151526190Y-102421428D01*
X151026190Y-102421428D01*
X151192857Y-101802380D02*
X151526190Y-101802380D01*
X151002380Y-101921428D02*
X151359523Y-102040476D01*
X151359523Y-101730952D01*
G04 #@! TO.C,R21*
X138876190Y-113121428D02*
X138638095Y-113288095D01*
X138876190Y-113407142D02*
X138376190Y-113407142D01*
X138376190Y-113216666D01*
X138400000Y-113169047D01*
X138423809Y-113145238D01*
X138471428Y-113121428D01*
X138542857Y-113121428D01*
X138590476Y-113145238D01*
X138614285Y-113169047D01*
X138638095Y-113216666D01*
X138638095Y-113407142D01*
X138423809Y-112930952D02*
X138400000Y-112907142D01*
X138376190Y-112859523D01*
X138376190Y-112740476D01*
X138400000Y-112692857D01*
X138423809Y-112669047D01*
X138471428Y-112645238D01*
X138519047Y-112645238D01*
X138590476Y-112669047D01*
X138876190Y-112954761D01*
X138876190Y-112645238D01*
X138876190Y-112169047D02*
X138876190Y-112454761D01*
X138876190Y-112311904D02*
X138376190Y-112311904D01*
X138447619Y-112359523D01*
X138495238Y-112407142D01*
X138519047Y-112454761D01*
G04 #@! TO.C,R22*
X141526190Y-113121428D02*
X141288095Y-113288095D01*
X141526190Y-113407142D02*
X141026190Y-113407142D01*
X141026190Y-113216666D01*
X141050000Y-113169047D01*
X141073809Y-113145238D01*
X141121428Y-113121428D01*
X141192857Y-113121428D01*
X141240476Y-113145238D01*
X141264285Y-113169047D01*
X141288095Y-113216666D01*
X141288095Y-113407142D01*
X141073809Y-112930952D02*
X141050000Y-112907142D01*
X141026190Y-112859523D01*
X141026190Y-112740476D01*
X141050000Y-112692857D01*
X141073809Y-112669047D01*
X141121428Y-112645238D01*
X141169047Y-112645238D01*
X141240476Y-112669047D01*
X141526190Y-112954761D01*
X141526190Y-112645238D01*
X141073809Y-112454761D02*
X141050000Y-112430952D01*
X141026190Y-112383333D01*
X141026190Y-112264285D01*
X141050000Y-112216666D01*
X141073809Y-112192857D01*
X141121428Y-112169047D01*
X141169047Y-112169047D01*
X141240476Y-112192857D01*
X141526190Y-112478571D01*
X141526190Y-112169047D01*
G04 #@! TO.C,C1*
X115228571Y-111683333D02*
X115252380Y-111707142D01*
X115276190Y-111778571D01*
X115276190Y-111826190D01*
X115252380Y-111897619D01*
X115204761Y-111945238D01*
X115157142Y-111969047D01*
X115061904Y-111992857D01*
X114990476Y-111992857D01*
X114895238Y-111969047D01*
X114847619Y-111945238D01*
X114800000Y-111897619D01*
X114776190Y-111826190D01*
X114776190Y-111778571D01*
X114800000Y-111707142D01*
X114823809Y-111683333D01*
X115276190Y-111207142D02*
X115276190Y-111492857D01*
X115276190Y-111350000D02*
X114776190Y-111350000D01*
X114847619Y-111397619D01*
X114895238Y-111445238D01*
X114919047Y-111492857D01*
G04 #@! TO.C,C2*
X117828571Y-111683333D02*
X117852380Y-111707142D01*
X117876190Y-111778571D01*
X117876190Y-111826190D01*
X117852380Y-111897619D01*
X117804761Y-111945238D01*
X117757142Y-111969047D01*
X117661904Y-111992857D01*
X117590476Y-111992857D01*
X117495238Y-111969047D01*
X117447619Y-111945238D01*
X117400000Y-111897619D01*
X117376190Y-111826190D01*
X117376190Y-111778571D01*
X117400000Y-111707142D01*
X117423809Y-111683333D01*
X117423809Y-111492857D02*
X117400000Y-111469047D01*
X117376190Y-111421428D01*
X117376190Y-111302380D01*
X117400000Y-111254761D01*
X117423809Y-111230952D01*
X117471428Y-111207142D01*
X117519047Y-111207142D01*
X117590476Y-111230952D01*
X117876190Y-111516666D01*
X117876190Y-111207142D01*
G04 #@! TO.C,C3*
D14*
X138157142Y-134766666D02*
X138204761Y-134814285D01*
X138252380Y-134957142D01*
X138252380Y-135052380D01*
X138204761Y-135195238D01*
X138109523Y-135290476D01*
X138014285Y-135338095D01*
X137823809Y-135385714D01*
X137680952Y-135385714D01*
X137490476Y-135338095D01*
X137395238Y-135290476D01*
X137300000Y-135195238D01*
X137252380Y-135052380D01*
X137252380Y-134957142D01*
X137300000Y-134814285D01*
X137347619Y-134766666D01*
X137252380Y-134433333D02*
X137252380Y-133814285D01*
X137633333Y-134147619D01*
X137633333Y-134004761D01*
X137680952Y-133909523D01*
X137728571Y-133861904D01*
X137823809Y-133814285D01*
X138061904Y-133814285D01*
X138157142Y-133861904D01*
X138204761Y-133909523D01*
X138252380Y-134004761D01*
X138252380Y-134290476D01*
X138204761Y-134385714D01*
X138157142Y-134433333D01*
G04 #@! TO.C,C6*
D11*
X121328571Y-105683333D02*
X121352380Y-105707142D01*
X121376190Y-105778571D01*
X121376190Y-105826190D01*
X121352380Y-105897619D01*
X121304761Y-105945238D01*
X121257142Y-105969047D01*
X121161904Y-105992857D01*
X121090476Y-105992857D01*
X120995238Y-105969047D01*
X120947619Y-105945238D01*
X120900000Y-105897619D01*
X120876190Y-105826190D01*
X120876190Y-105778571D01*
X120900000Y-105707142D01*
X120923809Y-105683333D01*
X120876190Y-105254761D02*
X120876190Y-105350000D01*
X120900000Y-105397619D01*
X120923809Y-105421428D01*
X120995238Y-105469047D01*
X121090476Y-105492857D01*
X121280952Y-105492857D01*
X121328571Y-105469047D01*
X121352380Y-105445238D01*
X121376190Y-105397619D01*
X121376190Y-105302380D01*
X121352380Y-105254761D01*
X121328571Y-105230952D01*
X121280952Y-105207142D01*
X121161904Y-105207142D01*
X121114285Y-105230952D01*
X121090476Y-105254761D01*
X121066666Y-105302380D01*
X121066666Y-105397619D01*
X121090476Y-105445238D01*
X121114285Y-105469047D01*
X121161904Y-105492857D01*
G04 #@! TO.C,C11*
X144228571Y-116171428D02*
X144252380Y-116195238D01*
X144276190Y-116266666D01*
X144276190Y-116314285D01*
X144252380Y-116385714D01*
X144204761Y-116433333D01*
X144157142Y-116457142D01*
X144061904Y-116480952D01*
X143990476Y-116480952D01*
X143895238Y-116457142D01*
X143847619Y-116433333D01*
X143800000Y-116385714D01*
X143776190Y-116314285D01*
X143776190Y-116266666D01*
X143800000Y-116195238D01*
X143823809Y-116171428D01*
X144276190Y-115695238D02*
X144276190Y-115980952D01*
X144276190Y-115838095D02*
X143776190Y-115838095D01*
X143847619Y-115885714D01*
X143895238Y-115933333D01*
X143919047Y-115980952D01*
X144276190Y-115219047D02*
X144276190Y-115504761D01*
X144276190Y-115361904D02*
X143776190Y-115361904D01*
X143847619Y-115409523D01*
X143895238Y-115457142D01*
X143919047Y-115504761D01*
G04 #@! TO.C,C12*
X137178571Y-92771428D02*
X137202380Y-92795238D01*
X137226190Y-92866666D01*
X137226190Y-92914285D01*
X137202380Y-92985714D01*
X137154761Y-93033333D01*
X137107142Y-93057142D01*
X137011904Y-93080952D01*
X136940476Y-93080952D01*
X136845238Y-93057142D01*
X136797619Y-93033333D01*
X136750000Y-92985714D01*
X136726190Y-92914285D01*
X136726190Y-92866666D01*
X136750000Y-92795238D01*
X136773809Y-92771428D01*
X137226190Y-92295238D02*
X137226190Y-92580952D01*
X137226190Y-92438095D02*
X136726190Y-92438095D01*
X136797619Y-92485714D01*
X136845238Y-92533333D01*
X136869047Y-92580952D01*
X136773809Y-92104761D02*
X136750000Y-92080952D01*
X136726190Y-92033333D01*
X136726190Y-91914285D01*
X136750000Y-91866666D01*
X136773809Y-91842857D01*
X136821428Y-91819047D01*
X136869047Y-91819047D01*
X136940476Y-91842857D01*
X137226190Y-92128571D01*
X137226190Y-91819047D01*
G04 #@! TO.C,C14*
X150678571Y-93328571D02*
X150654761Y-93352380D01*
X150583333Y-93376190D01*
X150535714Y-93376190D01*
X150464285Y-93352380D01*
X150416666Y-93304761D01*
X150392857Y-93257142D01*
X150369047Y-93161904D01*
X150369047Y-93090476D01*
X150392857Y-92995238D01*
X150416666Y-92947619D01*
X150464285Y-92900000D01*
X150535714Y-92876190D01*
X150583333Y-92876190D01*
X150654761Y-92900000D01*
X150678571Y-92923809D01*
X151154761Y-93376190D02*
X150869047Y-93376190D01*
X151011904Y-93376190D02*
X151011904Y-92876190D01*
X150964285Y-92947619D01*
X150916666Y-92995238D01*
X150869047Y-93019047D01*
X151583333Y-93042857D02*
X151583333Y-93376190D01*
X151464285Y-92852380D02*
X151345238Y-93209523D01*
X151654761Y-93209523D01*
G04 #@! TO.C,C15*
X134728571Y-92771428D02*
X134752380Y-92795238D01*
X134776190Y-92866666D01*
X134776190Y-92914285D01*
X134752380Y-92985714D01*
X134704761Y-93033333D01*
X134657142Y-93057142D01*
X134561904Y-93080952D01*
X134490476Y-93080952D01*
X134395238Y-93057142D01*
X134347619Y-93033333D01*
X134300000Y-92985714D01*
X134276190Y-92914285D01*
X134276190Y-92866666D01*
X134300000Y-92795238D01*
X134323809Y-92771428D01*
X134776190Y-92295238D02*
X134776190Y-92580952D01*
X134776190Y-92438095D02*
X134276190Y-92438095D01*
X134347619Y-92485714D01*
X134395238Y-92533333D01*
X134419047Y-92580952D01*
X134276190Y-91842857D02*
X134276190Y-92080952D01*
X134514285Y-92104761D01*
X134490476Y-92080952D01*
X134466666Y-92033333D01*
X134466666Y-91914285D01*
X134490476Y-91866666D01*
X134514285Y-91842857D01*
X134561904Y-91819047D01*
X134680952Y-91819047D01*
X134728571Y-91842857D01*
X134752380Y-91866666D01*
X134776190Y-91914285D01*
X134776190Y-92033333D01*
X134752380Y-92080952D01*
X134728571Y-92104761D01*
G04 #@! TO.C,C17*
X133728571Y-104528571D02*
X133704761Y-104552380D01*
X133633333Y-104576190D01*
X133585714Y-104576190D01*
X133514285Y-104552380D01*
X133466666Y-104504761D01*
X133442857Y-104457142D01*
X133419047Y-104361904D01*
X133419047Y-104290476D01*
X133442857Y-104195238D01*
X133466666Y-104147619D01*
X133514285Y-104100000D01*
X133585714Y-104076190D01*
X133633333Y-104076190D01*
X133704761Y-104100000D01*
X133728571Y-104123809D01*
X134204761Y-104576190D02*
X133919047Y-104576190D01*
X134061904Y-104576190D02*
X134061904Y-104076190D01*
X134014285Y-104147619D01*
X133966666Y-104195238D01*
X133919047Y-104219047D01*
X134371428Y-104076190D02*
X134704761Y-104076190D01*
X134490476Y-104576190D01*
G04 #@! TO.C,C18*
X144678571Y-104528571D02*
X144654761Y-104552380D01*
X144583333Y-104576190D01*
X144535714Y-104576190D01*
X144464285Y-104552380D01*
X144416666Y-104504761D01*
X144392857Y-104457142D01*
X144369047Y-104361904D01*
X144369047Y-104290476D01*
X144392857Y-104195238D01*
X144416666Y-104147619D01*
X144464285Y-104100000D01*
X144535714Y-104076190D01*
X144583333Y-104076190D01*
X144654761Y-104100000D01*
X144678571Y-104123809D01*
X145154761Y-104576190D02*
X144869047Y-104576190D01*
X145011904Y-104576190D02*
X145011904Y-104076190D01*
X144964285Y-104147619D01*
X144916666Y-104195238D01*
X144869047Y-104219047D01*
X145440476Y-104290476D02*
X145392857Y-104266666D01*
X145369047Y-104242857D01*
X145345238Y-104195238D01*
X145345238Y-104171428D01*
X145369047Y-104123809D01*
X145392857Y-104100000D01*
X145440476Y-104076190D01*
X145535714Y-104076190D01*
X145583333Y-104100000D01*
X145607142Y-104123809D01*
X145630952Y-104171428D01*
X145630952Y-104195238D01*
X145607142Y-104242857D01*
X145583333Y-104266666D01*
X145535714Y-104290476D01*
X145440476Y-104290476D01*
X145392857Y-104314285D01*
X145369047Y-104338095D01*
X145345238Y-104385714D01*
X145345238Y-104480952D01*
X145369047Y-104528571D01*
X145392857Y-104552380D01*
X145440476Y-104576190D01*
X145535714Y-104576190D01*
X145583333Y-104552380D01*
X145607142Y-104528571D01*
X145630952Y-104480952D01*
X145630952Y-104385714D01*
X145607142Y-104338095D01*
X145583333Y-104314285D01*
X145535714Y-104290476D01*
G04 #@! TO.C,C20*
X138328571Y-97421428D02*
X138352380Y-97445238D01*
X138376190Y-97516666D01*
X138376190Y-97564285D01*
X138352380Y-97635714D01*
X138304761Y-97683333D01*
X138257142Y-97707142D01*
X138161904Y-97730952D01*
X138090476Y-97730952D01*
X137995238Y-97707142D01*
X137947619Y-97683333D01*
X137900000Y-97635714D01*
X137876190Y-97564285D01*
X137876190Y-97516666D01*
X137900000Y-97445238D01*
X137923809Y-97421428D01*
X137923809Y-97230952D02*
X137900000Y-97207142D01*
X137876190Y-97159523D01*
X137876190Y-97040476D01*
X137900000Y-96992857D01*
X137923809Y-96969047D01*
X137971428Y-96945238D01*
X138019047Y-96945238D01*
X138090476Y-96969047D01*
X138376190Y-97254761D01*
X138376190Y-96945238D01*
X137876190Y-96635714D02*
X137876190Y-96588095D01*
X137900000Y-96540476D01*
X137923809Y-96516666D01*
X137971428Y-96492857D01*
X138066666Y-96469047D01*
X138185714Y-96469047D01*
X138280952Y-96492857D01*
X138328571Y-96516666D01*
X138352380Y-96540476D01*
X138376190Y-96588095D01*
X138376190Y-96635714D01*
X138352380Y-96683333D01*
X138328571Y-96707142D01*
X138280952Y-96730952D01*
X138185714Y-96754761D01*
X138066666Y-96754761D01*
X137971428Y-96730952D01*
X137923809Y-96707142D01*
X137900000Y-96683333D01*
X137876190Y-96635714D01*
G04 #@! TO.C,C21*
X151478571Y-97446428D02*
X151502380Y-97470238D01*
X151526190Y-97541666D01*
X151526190Y-97589285D01*
X151502380Y-97660714D01*
X151454761Y-97708333D01*
X151407142Y-97732142D01*
X151311904Y-97755952D01*
X151240476Y-97755952D01*
X151145238Y-97732142D01*
X151097619Y-97708333D01*
X151050000Y-97660714D01*
X151026190Y-97589285D01*
X151026190Y-97541666D01*
X151050000Y-97470238D01*
X151073809Y-97446428D01*
X151073809Y-97255952D02*
X151050000Y-97232142D01*
X151026190Y-97184523D01*
X151026190Y-97065476D01*
X151050000Y-97017857D01*
X151073809Y-96994047D01*
X151121428Y-96970238D01*
X151169047Y-96970238D01*
X151240476Y-96994047D01*
X151526190Y-97279761D01*
X151526190Y-96970238D01*
X151526190Y-96494047D02*
X151526190Y-96779761D01*
X151526190Y-96636904D02*
X151026190Y-96636904D01*
X151097619Y-96684523D01*
X151145238Y-96732142D01*
X151169047Y-96779761D01*
G04 #@! TO.C,C23*
X116478571Y-127678571D02*
X116454761Y-127702380D01*
X116383333Y-127726190D01*
X116335714Y-127726190D01*
X116264285Y-127702380D01*
X116216666Y-127654761D01*
X116192857Y-127607142D01*
X116169047Y-127511904D01*
X116169047Y-127440476D01*
X116192857Y-127345238D01*
X116216666Y-127297619D01*
X116264285Y-127250000D01*
X116335714Y-127226190D01*
X116383333Y-127226190D01*
X116454761Y-127250000D01*
X116478571Y-127273809D01*
X116669047Y-127273809D02*
X116692857Y-127250000D01*
X116740476Y-127226190D01*
X116859523Y-127226190D01*
X116907142Y-127250000D01*
X116930952Y-127273809D01*
X116954761Y-127321428D01*
X116954761Y-127369047D01*
X116930952Y-127440476D01*
X116645238Y-127726190D01*
X116954761Y-127726190D01*
X117121428Y-127226190D02*
X117430952Y-127226190D01*
X117264285Y-127416666D01*
X117335714Y-127416666D01*
X117383333Y-127440476D01*
X117407142Y-127464285D01*
X117430952Y-127511904D01*
X117430952Y-127630952D01*
X117407142Y-127678571D01*
X117383333Y-127702380D01*
X117335714Y-127726190D01*
X117192857Y-127726190D01*
X117145238Y-127702380D01*
X117121428Y-127678571D01*
G04 #@! TO.C,C24*
X129278571Y-98871428D02*
X129302380Y-98895238D01*
X129326190Y-98966666D01*
X129326190Y-99014285D01*
X129302380Y-99085714D01*
X129254761Y-99133333D01*
X129207142Y-99157142D01*
X129111904Y-99180952D01*
X129040476Y-99180952D01*
X128945238Y-99157142D01*
X128897619Y-99133333D01*
X128850000Y-99085714D01*
X128826190Y-99014285D01*
X128826190Y-98966666D01*
X128850000Y-98895238D01*
X128873809Y-98871428D01*
X128873809Y-98680952D02*
X128850000Y-98657142D01*
X128826190Y-98609523D01*
X128826190Y-98490476D01*
X128850000Y-98442857D01*
X128873809Y-98419047D01*
X128921428Y-98395238D01*
X128969047Y-98395238D01*
X129040476Y-98419047D01*
X129326190Y-98704761D01*
X129326190Y-98395238D01*
X128992857Y-97966666D02*
X129326190Y-97966666D01*
X128802380Y-98085714D02*
X129159523Y-98204761D01*
X129159523Y-97895238D01*
G04 #@! TO.C,C25*
X142178571Y-101421428D02*
X142202380Y-101445238D01*
X142226190Y-101516666D01*
X142226190Y-101564285D01*
X142202380Y-101635714D01*
X142154761Y-101683333D01*
X142107142Y-101707142D01*
X142011904Y-101730952D01*
X141940476Y-101730952D01*
X141845238Y-101707142D01*
X141797619Y-101683333D01*
X141750000Y-101635714D01*
X141726190Y-101564285D01*
X141726190Y-101516666D01*
X141750000Y-101445238D01*
X141773809Y-101421428D01*
X141773809Y-101230952D02*
X141750000Y-101207142D01*
X141726190Y-101159523D01*
X141726190Y-101040476D01*
X141750000Y-100992857D01*
X141773809Y-100969047D01*
X141821428Y-100945238D01*
X141869047Y-100945238D01*
X141940476Y-100969047D01*
X142226190Y-101254761D01*
X142226190Y-100945238D01*
X141726190Y-100492857D02*
X141726190Y-100730952D01*
X141964285Y-100754761D01*
X141940476Y-100730952D01*
X141916666Y-100683333D01*
X141916666Y-100564285D01*
X141940476Y-100516666D01*
X141964285Y-100492857D01*
X142011904Y-100469047D01*
X142130952Y-100469047D01*
X142178571Y-100492857D01*
X142202380Y-100516666D01*
X142226190Y-100564285D01*
X142226190Y-100683333D01*
X142202380Y-100730952D01*
X142178571Y-100754761D01*
G04 #@! TO.C,C26*
X130778571Y-106721428D02*
X130802380Y-106745238D01*
X130826190Y-106816666D01*
X130826190Y-106864285D01*
X130802380Y-106935714D01*
X130754761Y-106983333D01*
X130707142Y-107007142D01*
X130611904Y-107030952D01*
X130540476Y-107030952D01*
X130445238Y-107007142D01*
X130397619Y-106983333D01*
X130350000Y-106935714D01*
X130326190Y-106864285D01*
X130326190Y-106816666D01*
X130350000Y-106745238D01*
X130373809Y-106721428D01*
X130373809Y-106530952D02*
X130350000Y-106507142D01*
X130326190Y-106459523D01*
X130326190Y-106340476D01*
X130350000Y-106292857D01*
X130373809Y-106269047D01*
X130421428Y-106245238D01*
X130469047Y-106245238D01*
X130540476Y-106269047D01*
X130826190Y-106554761D01*
X130826190Y-106245238D01*
X130326190Y-105816666D02*
X130326190Y-105911904D01*
X130350000Y-105959523D01*
X130373809Y-105983333D01*
X130445238Y-106030952D01*
X130540476Y-106054761D01*
X130730952Y-106054761D01*
X130778571Y-106030952D01*
X130802380Y-106007142D01*
X130826190Y-105959523D01*
X130826190Y-105864285D01*
X130802380Y-105816666D01*
X130778571Y-105792857D01*
X130730952Y-105769047D01*
X130611904Y-105769047D01*
X130564285Y-105792857D01*
X130540476Y-105816666D01*
X130516666Y-105864285D01*
X130516666Y-105959523D01*
X130540476Y-106007142D01*
X130564285Y-106030952D01*
X130611904Y-106054761D01*
G04 #@! TO.C,C27*
X144678571Y-107128571D02*
X144654761Y-107152380D01*
X144583333Y-107176190D01*
X144535714Y-107176190D01*
X144464285Y-107152380D01*
X144416666Y-107104761D01*
X144392857Y-107057142D01*
X144369047Y-106961904D01*
X144369047Y-106890476D01*
X144392857Y-106795238D01*
X144416666Y-106747619D01*
X144464285Y-106700000D01*
X144535714Y-106676190D01*
X144583333Y-106676190D01*
X144654761Y-106700000D01*
X144678571Y-106723809D01*
X144869047Y-106723809D02*
X144892857Y-106700000D01*
X144940476Y-106676190D01*
X145059523Y-106676190D01*
X145107142Y-106700000D01*
X145130952Y-106723809D01*
X145154761Y-106771428D01*
X145154761Y-106819047D01*
X145130952Y-106890476D01*
X144845238Y-107176190D01*
X145154761Y-107176190D01*
X145321428Y-106676190D02*
X145654761Y-106676190D01*
X145440476Y-107176190D01*
G04 #@! TO.C,C28*
X135528571Y-113121428D02*
X135552380Y-113145238D01*
X135576190Y-113216666D01*
X135576190Y-113264285D01*
X135552380Y-113335714D01*
X135504761Y-113383333D01*
X135457142Y-113407142D01*
X135361904Y-113430952D01*
X135290476Y-113430952D01*
X135195238Y-113407142D01*
X135147619Y-113383333D01*
X135100000Y-113335714D01*
X135076190Y-113264285D01*
X135076190Y-113216666D01*
X135100000Y-113145238D01*
X135123809Y-113121428D01*
X135123809Y-112930952D02*
X135100000Y-112907142D01*
X135076190Y-112859523D01*
X135076190Y-112740476D01*
X135100000Y-112692857D01*
X135123809Y-112669047D01*
X135171428Y-112645238D01*
X135219047Y-112645238D01*
X135290476Y-112669047D01*
X135576190Y-112954761D01*
X135576190Y-112645238D01*
X135290476Y-112359523D02*
X135266666Y-112407142D01*
X135242857Y-112430952D01*
X135195238Y-112454761D01*
X135171428Y-112454761D01*
X135123809Y-112430952D01*
X135100000Y-112407142D01*
X135076190Y-112359523D01*
X135076190Y-112264285D01*
X135100000Y-112216666D01*
X135123809Y-112192857D01*
X135171428Y-112169047D01*
X135195238Y-112169047D01*
X135242857Y-112192857D01*
X135266666Y-112216666D01*
X135290476Y-112264285D01*
X135290476Y-112359523D01*
X135314285Y-112407142D01*
X135338095Y-112430952D01*
X135385714Y-112454761D01*
X135480952Y-112454761D01*
X135528571Y-112430952D01*
X135552380Y-112407142D01*
X135576190Y-112359523D01*
X135576190Y-112264285D01*
X135552380Y-112216666D01*
X135528571Y-112192857D01*
X135480952Y-112169047D01*
X135385714Y-112169047D01*
X135338095Y-112192857D01*
X135314285Y-112216666D01*
X135290476Y-112264285D01*
G04 #@! TO.C,J1*
D14*
X117516666Y-78752380D02*
X117516666Y-79466666D01*
X117469047Y-79609523D01*
X117373809Y-79704761D01*
X117230952Y-79752380D01*
X117135714Y-79752380D01*
X118516666Y-79752380D02*
X117945238Y-79752380D01*
X118230952Y-79752380D02*
X118230952Y-78752380D01*
X118135714Y-78895238D01*
X118040476Y-78990476D01*
X117945238Y-79038095D01*
G04 #@! TO.C,J5*
X147197619Y-81946666D02*
X146483333Y-81946666D01*
X146340476Y-81899047D01*
X146245238Y-81803809D01*
X146197619Y-81660952D01*
X146197619Y-81565714D01*
X147197619Y-82899047D02*
X147197619Y-82422857D01*
X146721428Y-82375238D01*
X146769047Y-82422857D01*
X146816666Y-82518095D01*
X146816666Y-82756190D01*
X146769047Y-82851428D01*
X146721428Y-82899047D01*
X146626190Y-82946666D01*
X146388095Y-82946666D01*
X146292857Y-82899047D01*
X146245238Y-82851428D01*
X146197619Y-82756190D01*
X146197619Y-82518095D01*
X146245238Y-82422857D01*
X146292857Y-82375238D01*
G04 #@! TO.C,J6*
X143597619Y-81946666D02*
X142883333Y-81946666D01*
X142740476Y-81899047D01*
X142645238Y-81803809D01*
X142597619Y-81660952D01*
X142597619Y-81565714D01*
X143597619Y-82851428D02*
X143597619Y-82660952D01*
X143550000Y-82565714D01*
X143502380Y-82518095D01*
X143359523Y-82422857D01*
X143169047Y-82375238D01*
X142788095Y-82375238D01*
X142692857Y-82422857D01*
X142645238Y-82470476D01*
X142597619Y-82565714D01*
X142597619Y-82756190D01*
X142645238Y-82851428D01*
X142692857Y-82899047D01*
X142788095Y-82946666D01*
X143026190Y-82946666D01*
X143121428Y-82899047D01*
X143169047Y-82851428D01*
X143216666Y-82756190D01*
X143216666Y-82565714D01*
X143169047Y-82470476D01*
X143121428Y-82422857D01*
X143026190Y-82375238D01*
G04 #@! TO.C,J7*
X130906666Y-126552380D02*
X130906666Y-127266666D01*
X130859047Y-127409523D01*
X130763809Y-127504761D01*
X130620952Y-127552380D01*
X130525714Y-127552380D01*
X131287619Y-126552380D02*
X131954285Y-126552380D01*
X131525714Y-127552380D01*
G04 #@! TO.C,L1*
D11*
X123766666Y-132126190D02*
X123528571Y-132126190D01*
X123528571Y-131626190D01*
X124195238Y-132126190D02*
X123909523Y-132126190D01*
X124052380Y-132126190D02*
X124052380Y-131626190D01*
X124004761Y-131697619D01*
X123957142Y-131745238D01*
X123909523Y-131769047D01*
G04 #@! TO.C,L2*
X112626190Y-111683333D02*
X112626190Y-111921428D01*
X112126190Y-111921428D01*
X112173809Y-111540476D02*
X112150000Y-111516666D01*
X112126190Y-111469047D01*
X112126190Y-111350000D01*
X112150000Y-111302380D01*
X112173809Y-111278571D01*
X112221428Y-111254761D01*
X112269047Y-111254761D01*
X112340476Y-111278571D01*
X112626190Y-111564285D01*
X112626190Y-111254761D01*
G04 #@! TO.C,L3*
X138376190Y-102183333D02*
X138376190Y-102421428D01*
X137876190Y-102421428D01*
X137876190Y-102064285D02*
X137876190Y-101754761D01*
X138066666Y-101921428D01*
X138066666Y-101850000D01*
X138090476Y-101802380D01*
X138114285Y-101778571D01*
X138161904Y-101754761D01*
X138280952Y-101754761D01*
X138328571Y-101778571D01*
X138352380Y-101802380D01*
X138376190Y-101850000D01*
X138376190Y-101992857D01*
X138352380Y-102040476D01*
X138328571Y-102064285D01*
G04 #@! TO.C,R1*
X110866666Y-119226190D02*
X110700000Y-118988095D01*
X110580952Y-119226190D02*
X110580952Y-118726190D01*
X110771428Y-118726190D01*
X110819047Y-118750000D01*
X110842857Y-118773809D01*
X110866666Y-118821428D01*
X110866666Y-118892857D01*
X110842857Y-118940476D01*
X110819047Y-118964285D01*
X110771428Y-118988095D01*
X110580952Y-118988095D01*
X111342857Y-119226190D02*
X111057142Y-119226190D01*
X111200000Y-119226190D02*
X111200000Y-118726190D01*
X111152380Y-118797619D01*
X111104761Y-118845238D01*
X111057142Y-118869047D01*
G04 #@! TO.C,R2*
X110891666Y-121776190D02*
X110725000Y-121538095D01*
X110605952Y-121776190D02*
X110605952Y-121276190D01*
X110796428Y-121276190D01*
X110844047Y-121300000D01*
X110867857Y-121323809D01*
X110891666Y-121371428D01*
X110891666Y-121442857D01*
X110867857Y-121490476D01*
X110844047Y-121514285D01*
X110796428Y-121538095D01*
X110605952Y-121538095D01*
X111082142Y-121323809D02*
X111105952Y-121300000D01*
X111153571Y-121276190D01*
X111272619Y-121276190D01*
X111320238Y-121300000D01*
X111344047Y-121323809D01*
X111367857Y-121371428D01*
X111367857Y-121419047D01*
X111344047Y-121490476D01*
X111058333Y-121776190D01*
X111367857Y-121776190D01*
G04 #@! TO.C,R3*
X128516666Y-132126190D02*
X128350000Y-131888095D01*
X128230952Y-132126190D02*
X128230952Y-131626190D01*
X128421428Y-131626190D01*
X128469047Y-131650000D01*
X128492857Y-131673809D01*
X128516666Y-131721428D01*
X128516666Y-131792857D01*
X128492857Y-131840476D01*
X128469047Y-131864285D01*
X128421428Y-131888095D01*
X128230952Y-131888095D01*
X128683333Y-131626190D02*
X128992857Y-131626190D01*
X128826190Y-131816666D01*
X128897619Y-131816666D01*
X128945238Y-131840476D01*
X128969047Y-131864285D01*
X128992857Y-131911904D01*
X128992857Y-132030952D01*
X128969047Y-132078571D01*
X128945238Y-132102380D01*
X128897619Y-132126190D01*
X128754761Y-132126190D01*
X128707142Y-132102380D01*
X128683333Y-132078571D01*
G04 #@! TO.C,R4*
X140876190Y-88483333D02*
X140638095Y-88650000D01*
X140876190Y-88769047D02*
X140376190Y-88769047D01*
X140376190Y-88578571D01*
X140400000Y-88530952D01*
X140423809Y-88507142D01*
X140471428Y-88483333D01*
X140542857Y-88483333D01*
X140590476Y-88507142D01*
X140614285Y-88530952D01*
X140638095Y-88578571D01*
X140638095Y-88769047D01*
X140542857Y-88054761D02*
X140876190Y-88054761D01*
X140352380Y-88173809D02*
X140709523Y-88292857D01*
X140709523Y-87983333D01*
G04 #@! TO.C,R5*
X135916666Y-89076190D02*
X135750000Y-88838095D01*
X135630952Y-89076190D02*
X135630952Y-88576190D01*
X135821428Y-88576190D01*
X135869047Y-88600000D01*
X135892857Y-88623809D01*
X135916666Y-88671428D01*
X135916666Y-88742857D01*
X135892857Y-88790476D01*
X135869047Y-88814285D01*
X135821428Y-88838095D01*
X135630952Y-88838095D01*
X136369047Y-88576190D02*
X136130952Y-88576190D01*
X136107142Y-88814285D01*
X136130952Y-88790476D01*
X136178571Y-88766666D01*
X136297619Y-88766666D01*
X136345238Y-88790476D01*
X136369047Y-88814285D01*
X136392857Y-88861904D01*
X136392857Y-88980952D01*
X136369047Y-89028571D01*
X136345238Y-89052380D01*
X136297619Y-89076190D01*
X136178571Y-89076190D01*
X136130952Y-89052380D01*
X136107142Y-89028571D01*
G04 #@! TO.C,R6*
X128326190Y-106483333D02*
X128088095Y-106650000D01*
X128326190Y-106769047D02*
X127826190Y-106769047D01*
X127826190Y-106578571D01*
X127850000Y-106530952D01*
X127873809Y-106507142D01*
X127921428Y-106483333D01*
X127992857Y-106483333D01*
X128040476Y-106507142D01*
X128064285Y-106530952D01*
X128088095Y-106578571D01*
X128088095Y-106769047D01*
X127826190Y-106054761D02*
X127826190Y-106150000D01*
X127850000Y-106197619D01*
X127873809Y-106221428D01*
X127945238Y-106269047D01*
X128040476Y-106292857D01*
X128230952Y-106292857D01*
X128278571Y-106269047D01*
X128302380Y-106245238D01*
X128326190Y-106197619D01*
X128326190Y-106102380D01*
X128302380Y-106054761D01*
X128278571Y-106030952D01*
X128230952Y-106007142D01*
X128111904Y-106007142D01*
X128064285Y-106030952D01*
X128040476Y-106054761D01*
X128016666Y-106102380D01*
X128016666Y-106197619D01*
X128040476Y-106245238D01*
X128064285Y-106269047D01*
X128111904Y-106292857D01*
G04 #@! TO.C,R7*
X142766666Y-129876190D02*
X142600000Y-129638095D01*
X142480952Y-129876190D02*
X142480952Y-129376190D01*
X142671428Y-129376190D01*
X142719047Y-129400000D01*
X142742857Y-129423809D01*
X142766666Y-129471428D01*
X142766666Y-129542857D01*
X142742857Y-129590476D01*
X142719047Y-129614285D01*
X142671428Y-129638095D01*
X142480952Y-129638095D01*
X142933333Y-129376190D02*
X143266666Y-129376190D01*
X143052380Y-129876190D01*
G04 #@! TO.C,R8*
X137266666Y-107276190D02*
X137100000Y-107038095D01*
X136980952Y-107276190D02*
X136980952Y-106776190D01*
X137171428Y-106776190D01*
X137219047Y-106800000D01*
X137242857Y-106823809D01*
X137266666Y-106871428D01*
X137266666Y-106942857D01*
X137242857Y-106990476D01*
X137219047Y-107014285D01*
X137171428Y-107038095D01*
X136980952Y-107038095D01*
X137552380Y-106990476D02*
X137504761Y-106966666D01*
X137480952Y-106942857D01*
X137457142Y-106895238D01*
X137457142Y-106871428D01*
X137480952Y-106823809D01*
X137504761Y-106800000D01*
X137552380Y-106776190D01*
X137647619Y-106776190D01*
X137695238Y-106800000D01*
X137719047Y-106823809D01*
X137742857Y-106871428D01*
X137742857Y-106895238D01*
X137719047Y-106942857D01*
X137695238Y-106966666D01*
X137647619Y-106990476D01*
X137552380Y-106990476D01*
X137504761Y-107014285D01*
X137480952Y-107038095D01*
X137457142Y-107085714D01*
X137457142Y-107180952D01*
X137480952Y-107228571D01*
X137504761Y-107252380D01*
X137552380Y-107276190D01*
X137647619Y-107276190D01*
X137695238Y-107252380D01*
X137719047Y-107228571D01*
X137742857Y-107180952D01*
X137742857Y-107085714D01*
X137719047Y-107038095D01*
X137695238Y-107014285D01*
X137647619Y-106990476D01*
G04 #@! TO.C,R9*
X139526190Y-82433333D02*
X139288095Y-82600000D01*
X139526190Y-82719047D02*
X139026190Y-82719047D01*
X139026190Y-82528571D01*
X139050000Y-82480952D01*
X139073809Y-82457142D01*
X139121428Y-82433333D01*
X139192857Y-82433333D01*
X139240476Y-82457142D01*
X139264285Y-82480952D01*
X139288095Y-82528571D01*
X139288095Y-82719047D01*
X139526190Y-82195238D02*
X139526190Y-82100000D01*
X139502380Y-82052380D01*
X139478571Y-82028571D01*
X139407142Y-81980952D01*
X139311904Y-81957142D01*
X139121428Y-81957142D01*
X139073809Y-81980952D01*
X139050000Y-82004761D01*
X139026190Y-82052380D01*
X139026190Y-82147619D01*
X139050000Y-82195238D01*
X139073809Y-82219047D01*
X139121428Y-82242857D01*
X139240476Y-82242857D01*
X139288095Y-82219047D01*
X139311904Y-82195238D01*
X139335714Y-82147619D01*
X139335714Y-82052380D01*
X139311904Y-82004761D01*
X139288095Y-81980952D01*
X139240476Y-81957142D01*
G04 #@! TO.C,R10*
X124378571Y-103626190D02*
X124211904Y-103388095D01*
X124092857Y-103626190D02*
X124092857Y-103126190D01*
X124283333Y-103126190D01*
X124330952Y-103150000D01*
X124354761Y-103173809D01*
X124378571Y-103221428D01*
X124378571Y-103292857D01*
X124354761Y-103340476D01*
X124330952Y-103364285D01*
X124283333Y-103388095D01*
X124092857Y-103388095D01*
X124854761Y-103626190D02*
X124569047Y-103626190D01*
X124711904Y-103626190D02*
X124711904Y-103126190D01*
X124664285Y-103197619D01*
X124616666Y-103245238D01*
X124569047Y-103269047D01*
X125164285Y-103126190D02*
X125211904Y-103126190D01*
X125259523Y-103150000D01*
X125283333Y-103173809D01*
X125307142Y-103221428D01*
X125330952Y-103316666D01*
X125330952Y-103435714D01*
X125307142Y-103530952D01*
X125283333Y-103578571D01*
X125259523Y-103602380D01*
X125211904Y-103626190D01*
X125164285Y-103626190D01*
X125116666Y-103602380D01*
X125092857Y-103578571D01*
X125069047Y-103530952D01*
X125045238Y-103435714D01*
X125045238Y-103316666D01*
X125069047Y-103221428D01*
X125092857Y-103173809D01*
X125116666Y-103150000D01*
X125164285Y-103126190D01*
G04 #@! TO.C,R11*
X141826190Y-93096428D02*
X141588095Y-93263095D01*
X141826190Y-93382142D02*
X141326190Y-93382142D01*
X141326190Y-93191666D01*
X141350000Y-93144047D01*
X141373809Y-93120238D01*
X141421428Y-93096428D01*
X141492857Y-93096428D01*
X141540476Y-93120238D01*
X141564285Y-93144047D01*
X141588095Y-93191666D01*
X141588095Y-93382142D01*
X141826190Y-92620238D02*
X141826190Y-92905952D01*
X141826190Y-92763095D02*
X141326190Y-92763095D01*
X141397619Y-92810714D01*
X141445238Y-92858333D01*
X141469047Y-92905952D01*
X141826190Y-92144047D02*
X141826190Y-92429761D01*
X141826190Y-92286904D02*
X141326190Y-92286904D01*
X141397619Y-92334523D01*
X141445238Y-92382142D01*
X141469047Y-92429761D01*
G04 #@! TO.C,R12*
X143778571Y-89126190D02*
X143611904Y-88888095D01*
X143492857Y-89126190D02*
X143492857Y-88626190D01*
X143683333Y-88626190D01*
X143730952Y-88650000D01*
X143754761Y-88673809D01*
X143778571Y-88721428D01*
X143778571Y-88792857D01*
X143754761Y-88840476D01*
X143730952Y-88864285D01*
X143683333Y-88888095D01*
X143492857Y-88888095D01*
X144254761Y-89126190D02*
X143969047Y-89126190D01*
X144111904Y-89126190D02*
X144111904Y-88626190D01*
X144064285Y-88697619D01*
X144016666Y-88745238D01*
X143969047Y-88769047D01*
X144445238Y-88673809D02*
X144469047Y-88650000D01*
X144516666Y-88626190D01*
X144635714Y-88626190D01*
X144683333Y-88650000D01*
X144707142Y-88673809D01*
X144730952Y-88721428D01*
X144730952Y-88769047D01*
X144707142Y-88840476D01*
X144421428Y-89126190D01*
X144730952Y-89126190D01*
G04 #@! TO.C,R13*
X148178571Y-89126190D02*
X148011904Y-88888095D01*
X147892857Y-89126190D02*
X147892857Y-88626190D01*
X148083333Y-88626190D01*
X148130952Y-88650000D01*
X148154761Y-88673809D01*
X148178571Y-88721428D01*
X148178571Y-88792857D01*
X148154761Y-88840476D01*
X148130952Y-88864285D01*
X148083333Y-88888095D01*
X147892857Y-88888095D01*
X148654761Y-89126190D02*
X148369047Y-89126190D01*
X148511904Y-89126190D02*
X148511904Y-88626190D01*
X148464285Y-88697619D01*
X148416666Y-88745238D01*
X148369047Y-88769047D01*
X148821428Y-88626190D02*
X149130952Y-88626190D01*
X148964285Y-88816666D01*
X149035714Y-88816666D01*
X149083333Y-88840476D01*
X149107142Y-88864285D01*
X149130952Y-88911904D01*
X149130952Y-89030952D01*
X149107142Y-89078571D01*
X149083333Y-89102380D01*
X149035714Y-89126190D01*
X148892857Y-89126190D01*
X148845238Y-89102380D01*
X148821428Y-89078571D01*
G04 #@! TO.C,R14*
X152176190Y-88721428D02*
X151938095Y-88888095D01*
X152176190Y-89007142D02*
X151676190Y-89007142D01*
X151676190Y-88816666D01*
X151700000Y-88769047D01*
X151723809Y-88745238D01*
X151771428Y-88721428D01*
X151842857Y-88721428D01*
X151890476Y-88745238D01*
X151914285Y-88769047D01*
X151938095Y-88816666D01*
X151938095Y-89007142D01*
X152176190Y-88245238D02*
X152176190Y-88530952D01*
X152176190Y-88388095D02*
X151676190Y-88388095D01*
X151747619Y-88435714D01*
X151795238Y-88483333D01*
X151819047Y-88530952D01*
X151842857Y-87816666D02*
X152176190Y-87816666D01*
X151652380Y-87935714D02*
X152009523Y-88054761D01*
X152009523Y-87745238D01*
G04 #@! TO.C,R15*
X151028571Y-111626190D02*
X150861904Y-111388095D01*
X150742857Y-111626190D02*
X150742857Y-111126190D01*
X150933333Y-111126190D01*
X150980952Y-111150000D01*
X151004761Y-111173809D01*
X151028571Y-111221428D01*
X151028571Y-111292857D01*
X151004761Y-111340476D01*
X150980952Y-111364285D01*
X150933333Y-111388095D01*
X150742857Y-111388095D01*
X151504761Y-111626190D02*
X151219047Y-111626190D01*
X151361904Y-111626190D02*
X151361904Y-111126190D01*
X151314285Y-111197619D01*
X151266666Y-111245238D01*
X151219047Y-111269047D01*
X151957142Y-111126190D02*
X151719047Y-111126190D01*
X151695238Y-111364285D01*
X151719047Y-111340476D01*
X151766666Y-111316666D01*
X151885714Y-111316666D01*
X151933333Y-111340476D01*
X151957142Y-111364285D01*
X151980952Y-111411904D01*
X151980952Y-111530952D01*
X151957142Y-111578571D01*
X151933333Y-111602380D01*
X151885714Y-111626190D01*
X151766666Y-111626190D01*
X151719047Y-111602380D01*
X151695238Y-111578571D01*
G04 #@! TO.C,R17*
X131328571Y-109976190D02*
X131161904Y-109738095D01*
X131042857Y-109976190D02*
X131042857Y-109476190D01*
X131233333Y-109476190D01*
X131280952Y-109500000D01*
X131304761Y-109523809D01*
X131328571Y-109571428D01*
X131328571Y-109642857D01*
X131304761Y-109690476D01*
X131280952Y-109714285D01*
X131233333Y-109738095D01*
X131042857Y-109738095D01*
X131804761Y-109976190D02*
X131519047Y-109976190D01*
X131661904Y-109976190D02*
X131661904Y-109476190D01*
X131614285Y-109547619D01*
X131566666Y-109595238D01*
X131519047Y-109619047D01*
X131971428Y-109476190D02*
X132304761Y-109476190D01*
X132090476Y-109976190D01*
G04 #@! TO.C,R18*
X144276190Y-110821428D02*
X144038095Y-110988095D01*
X144276190Y-111107142D02*
X143776190Y-111107142D01*
X143776190Y-110916666D01*
X143800000Y-110869047D01*
X143823809Y-110845238D01*
X143871428Y-110821428D01*
X143942857Y-110821428D01*
X143990476Y-110845238D01*
X144014285Y-110869047D01*
X144038095Y-110916666D01*
X144038095Y-111107142D01*
X144276190Y-110345238D02*
X144276190Y-110630952D01*
X144276190Y-110488095D02*
X143776190Y-110488095D01*
X143847619Y-110535714D01*
X143895238Y-110583333D01*
X143919047Y-110630952D01*
X143990476Y-110059523D02*
X143966666Y-110107142D01*
X143942857Y-110130952D01*
X143895238Y-110154761D01*
X143871428Y-110154761D01*
X143823809Y-110130952D01*
X143800000Y-110107142D01*
X143776190Y-110059523D01*
X143776190Y-109964285D01*
X143800000Y-109916666D01*
X143823809Y-109892857D01*
X143871428Y-109869047D01*
X143895238Y-109869047D01*
X143942857Y-109892857D01*
X143966666Y-109916666D01*
X143990476Y-109964285D01*
X143990476Y-110059523D01*
X144014285Y-110107142D01*
X144038095Y-110130952D01*
X144085714Y-110154761D01*
X144180952Y-110154761D01*
X144228571Y-110130952D01*
X144252380Y-110107142D01*
X144276190Y-110059523D01*
X144276190Y-109964285D01*
X144252380Y-109916666D01*
X144228571Y-109892857D01*
X144180952Y-109869047D01*
X144085714Y-109869047D01*
X144038095Y-109892857D01*
X144014285Y-109916666D01*
X143990476Y-109964285D01*
G04 #@! TO.C,R19*
X132876190Y-113721428D02*
X132638095Y-113888095D01*
X132876190Y-114007142D02*
X132376190Y-114007142D01*
X132376190Y-113816666D01*
X132400000Y-113769047D01*
X132423809Y-113745238D01*
X132471428Y-113721428D01*
X132542857Y-113721428D01*
X132590476Y-113745238D01*
X132614285Y-113769047D01*
X132638095Y-113816666D01*
X132638095Y-114007142D01*
X132876190Y-113245238D02*
X132876190Y-113530952D01*
X132876190Y-113388095D02*
X132376190Y-113388095D01*
X132447619Y-113435714D01*
X132495238Y-113483333D01*
X132519047Y-113530952D01*
X132876190Y-113007142D02*
X132876190Y-112911904D01*
X132852380Y-112864285D01*
X132828571Y-112840476D01*
X132757142Y-112792857D01*
X132661904Y-112769047D01*
X132471428Y-112769047D01*
X132423809Y-112792857D01*
X132400000Y-112816666D01*
X132376190Y-112864285D01*
X132376190Y-112959523D01*
X132400000Y-113007142D01*
X132423809Y-113030952D01*
X132471428Y-113054761D01*
X132590476Y-113054761D01*
X132638095Y-113030952D01*
X132661904Y-113007142D01*
X132685714Y-112959523D01*
X132685714Y-112864285D01*
X132661904Y-112816666D01*
X132638095Y-112792857D01*
X132590476Y-112769047D01*
G04 #@! TO.C,R20*
X130226190Y-113721428D02*
X129988095Y-113888095D01*
X130226190Y-114007142D02*
X129726190Y-114007142D01*
X129726190Y-113816666D01*
X129750000Y-113769047D01*
X129773809Y-113745238D01*
X129821428Y-113721428D01*
X129892857Y-113721428D01*
X129940476Y-113745238D01*
X129964285Y-113769047D01*
X129988095Y-113816666D01*
X129988095Y-114007142D01*
X129773809Y-113530952D02*
X129750000Y-113507142D01*
X129726190Y-113459523D01*
X129726190Y-113340476D01*
X129750000Y-113292857D01*
X129773809Y-113269047D01*
X129821428Y-113245238D01*
X129869047Y-113245238D01*
X129940476Y-113269047D01*
X130226190Y-113554761D01*
X130226190Y-113245238D01*
X129726190Y-112935714D02*
X129726190Y-112888095D01*
X129750000Y-112840476D01*
X129773809Y-112816666D01*
X129821428Y-112792857D01*
X129916666Y-112769047D01*
X130035714Y-112769047D01*
X130130952Y-112792857D01*
X130178571Y-112816666D01*
X130202380Y-112840476D01*
X130226190Y-112888095D01*
X130226190Y-112935714D01*
X130202380Y-112983333D01*
X130178571Y-113007142D01*
X130130952Y-113030952D01*
X130035714Y-113054761D01*
X129916666Y-113054761D01*
X129821428Y-113030952D01*
X129773809Y-113007142D01*
X129750000Y-112983333D01*
X129726190Y-112935714D01*
G04 #@! TO.C,Y1*
D14*
X118753809Y-117916190D02*
X118753809Y-118392380D01*
X118420476Y-117392380D02*
X118753809Y-117916190D01*
X119087142Y-117392380D01*
X119944285Y-118392380D02*
X119372857Y-118392380D01*
X119658571Y-118392380D02*
X119658571Y-117392380D01*
X119563333Y-117535238D01*
X119468095Y-117630476D01*
X119372857Y-117678095D01*
G04 #@! TD*
M02*
