M48
;DRILL file {KiCad 5.0.1-33cea8e~68~ubuntu18.04.1} date Sun 04 Nov 2018 18:35:09 MSK
;FORMAT={-:-/ absolute / inch / decimal}
FMAT,2
INCH,TZ
T1C0.0150
T2C0.0200
T3C0.0331
T4C0.0394
T5C0.0591
T6C0.0669
%
G90
G05
M72
T1
X4.3307Y-3.5433
X4.3307Y-3.937
X4.3307Y-4.1732
X4.3307Y-4.9606
X4.3307Y-5.3937
X4.5669Y-3.937
X4.5669Y-4.1732
X4.5669Y-4.5276
X4.5669Y-5.3937
X4.7244Y-4.7441
X4.7616Y-4.9574
X4.7851Y-5.0931
X4.8819Y-3.937
X4.8819Y-4.1732
X4.9606Y-4.8819
X5.1181Y-3.1496
X5.1181Y-3.5433
X5.1181Y-5.1181
X5.1181Y-5.3937
X5.1353Y-3.8454
X5.143Y-4.1009
X5.3543Y-3.937
X5.5118Y-3.3465
X5.5512Y-3.8189
X5.5512Y-4.1732
X5.7087Y-4.9213
X5.748Y-5.3937
X5.8661Y-4.1732
X6.0236Y-3.3465
X6.063Y-4.1732
X6.063Y-4.7244
X6.063Y-5.2165
T2
X4.3851Y-4.108
X4.4611Y-4.66
X4.576Y-4.9671
X5.8933Y-4.5697
X5.9228Y-4.665
T3
X5.2315Y-3.1823
X5.2315Y-3.2823
X5.2815Y-3.2323
X5.3315Y-3.1823
X5.3315Y-3.2823
X4.1398Y-3.4496
X4.1398Y-3.5496
X4.1898Y-3.4996
X4.2398Y-3.4496
X4.2398Y-3.5496
T4
X5.7736Y-3.1894
X5.7736Y-3.2894
X5.6319Y-3.1894
X5.6319Y-3.2894
X5.0669Y-5.0039
X5.1669Y-5.0039
X5.2669Y-5.0039
T5
X4.7205Y-3.1327
T6
X4.6205Y-3.0327
X4.6205Y-3.2327
X4.8205Y-3.0327
X4.8205Y-3.2327
T0
M30
