G04 #@! TF.GenerationSoftware,KiCad,Pcbnew,5.0.1-33cea8e~68~ubuntu18.04.1*
G04 #@! TF.CreationDate,2018-11-04T18:35:11+03:00*
G04 #@! TF.ProjectId,AA-PI-Radio-Board,41412D50492D526164696F2D426F6172,rev?*
G04 #@! TF.SameCoordinates,Original*
G04 #@! TF.FileFunction,Copper,L2,Bot,Signal*
G04 #@! TF.FilePolarity,Positive*
%FSLAX46Y46*%
G04 Gerber Fmt 4.6, Leading zero omitted, Abs format (unit mm)*
G04 Created by KiCad (PCBNEW 5.0.1-33cea8e~68~ubuntu18.04.1) date Sun 04 Nov 2018 18:35:11 MSK*
%MOMM*%
%LPD*%
G01*
G04 APERTURE LIST*
G04 #@! TA.AperFunction,ComponentPad*
%ADD10C,1.240000*%
G04 #@! TD*
G04 #@! TA.AperFunction,ComponentPad*
%ADD11C,2.050000*%
G04 #@! TD*
G04 #@! TA.AperFunction,ComponentPad*
%ADD12C,2.250000*%
G04 #@! TD*
G04 #@! TA.AperFunction,ComponentPad*
%ADD13R,1.700000X1.700000*%
G04 #@! TD*
G04 #@! TA.AperFunction,ComponentPad*
%ADD14O,1.700000X1.700000*%
G04 #@! TD*
G04 #@! TA.AperFunction,ViaPad*
%ADD15C,0.762000*%
G04 #@! TD*
G04 #@! TA.AperFunction,ViaPad*
%ADD16C,1.016000*%
G04 #@! TD*
G04 #@! TA.AperFunction,Conductor*
%ADD17C,0.508000*%
G04 #@! TD*
G04 #@! TA.AperFunction,Conductor*
%ADD18C,0.254000*%
G04 #@! TD*
G04 APERTURE END LIST*
D10*
G04 #@! TO.P,J4,2*
G04 #@! TO.N,VI*
X132880000Y-83370000D03*
X135420000Y-80830000D03*
X135420000Y-83370000D03*
X132880000Y-80830000D03*
G04 #@! TO.P,J4,1*
G04 #@! TO.N,Net-(J4-Pad1)*
X134150000Y-82100000D03*
G04 #@! TD*
G04 #@! TO.P,J3,1*
G04 #@! TO.N,Net-(D1-Pad2)*
X106420000Y-88890000D03*
G04 #@! TO.P,J3,2*
G04 #@! TO.N,GND*
X105150000Y-87620000D03*
X107690000Y-90160000D03*
X107690000Y-87620000D03*
X105150000Y-90160000D03*
G04 #@! TD*
D11*
G04 #@! TO.P,J1,1*
G04 #@! TO.N,Net-(D1-Pad2)*
X119900000Y-79570000D03*
D12*
G04 #@! TO.P,J1,2*
G04 #@! TO.N,GND*
X122440000Y-82110000D03*
X122440000Y-77030000D03*
X117360000Y-77030000D03*
X117360000Y-82110000D03*
G04 #@! TD*
D13*
G04 #@! TO.P,J5,1*
G04 #@! TO.N,Net-(J5-Pad1)*
X146650000Y-83550000D03*
D14*
G04 #@! TO.P,J5,2*
G04 #@! TO.N,Net-(J4-Pad1)*
X146650000Y-81010000D03*
G04 #@! TD*
G04 #@! TO.P,J6,2*
G04 #@! TO.N,Net-(J6-Pad2)*
X143050000Y-81010000D03*
D13*
G04 #@! TO.P,J6,1*
G04 #@! TO.N,Net-(J5-Pad1)*
X143050000Y-83550000D03*
G04 #@! TD*
G04 #@! TO.P,J7,1*
G04 #@! TO.N,OUT_VI*
X128700000Y-127100000D03*
D14*
G04 #@! TO.P,J7,2*
G04 #@! TO.N,GND*
X131240000Y-127100000D03*
G04 #@! TO.P,J7,3*
G04 #@! TO.N,OUT_VV*
X133780000Y-127100000D03*
G04 #@! TD*
D15*
G04 #@! TO.N,GND*
X140000000Y-85000000D03*
X110000000Y-90000000D03*
X130000000Y-90000000D03*
X130000000Y-80000000D03*
X110000000Y-100000000D03*
X116000000Y-100000000D03*
X110000000Y-106000000D03*
X110000000Y-126000000D03*
X116000000Y-106000000D03*
X110000000Y-137000000D03*
X116000000Y-137000000D03*
X130000000Y-137000000D03*
X153000000Y-85000000D03*
X154000000Y-120000000D03*
X154000000Y-132500000D03*
X154000000Y-106000000D03*
X116000000Y-115000000D03*
X130000000Y-130000000D03*
X149000000Y-106000000D03*
X146000000Y-137000000D03*
X145000000Y-125000000D03*
X136000000Y-100000000D03*
X124000000Y-100000000D03*
X124000000Y-106000000D03*
X126000000Y-124000000D03*
X141000000Y-106000000D03*
X141000000Y-97000000D03*
X120000000Y-120500000D03*
D16*
G04 #@! TO.N,+5V*
X150440000Y-118490000D03*
X149690000Y-116070000D03*
G04 #@! TO.N,+3V3*
X113313100Y-118364200D03*
D15*
X116230700Y-126163900D03*
G04 #@! TO.N,OUT_VI*
X120943500Y-125919200D03*
G04 #@! TO.N,Net-(C24-Pad1)*
X130632400Y-104163900D03*
X130436100Y-97672200D03*
D16*
G04 #@! TO.N,/V_IN*
X111381700Y-104343900D03*
D15*
X121542600Y-129364600D03*
G04 #@! TD*
D17*
G04 #@! TO.N,+5V*
X149690000Y-117740000D02*
X150440000Y-118490000D01*
X149690000Y-116070000D02*
X149690000Y-117740000D01*
D18*
G04 #@! TO.N,VI*
X135420000Y-83370000D02*
X132880000Y-83370000D01*
X132880000Y-80830000D02*
X132880000Y-83370000D01*
X135420000Y-80830000D02*
X135420000Y-83370000D01*
D17*
G04 #@! TO.N,+3V3*
X113313100Y-118364200D02*
X113313100Y-123246300D01*
X113313100Y-123246300D02*
X116230700Y-126163900D01*
D18*
G04 #@! TO.N,OUT_VI*
X120943500Y-125919200D02*
X121401300Y-126377000D01*
X121401300Y-126377000D02*
X127850000Y-126377000D01*
X127850000Y-126377000D02*
X127977000Y-126377000D01*
X127977000Y-126377000D02*
X128700000Y-127100000D01*
D17*
G04 #@! TO.N,Net-(J4-Pad1)*
X134150000Y-80360000D02*
X134150000Y-82100000D01*
X135020000Y-79490000D02*
X134150000Y-80360000D01*
X143650000Y-79490000D02*
X135020000Y-79490000D01*
X146650000Y-81010000D02*
X145170000Y-81010000D01*
X145170000Y-81010000D02*
X143650000Y-79490000D01*
D18*
G04 #@! TO.N,Net-(J5-Pad1)*
X146650000Y-83550000D02*
X143050000Y-83550000D01*
G04 #@! TO.N,Net-(C24-Pad1)*
X130632400Y-104163900D02*
X130436100Y-103967600D01*
X130436100Y-103967600D02*
X130436100Y-97672200D01*
D17*
G04 #@! TO.N,/V_IN*
X121161601Y-128983601D02*
X121542600Y-129364600D01*
X114329101Y-122151101D02*
X121161601Y-128983601D01*
X114329101Y-107291301D02*
X114329101Y-122151101D01*
X111381700Y-104343900D02*
X114329101Y-107291301D01*
G04 #@! TD*
D18*
G04 #@! TO.N,GND*
G36*
X116315074Y-75805469D02*
X117360000Y-76850395D01*
X118404926Y-75805469D01*
X118362149Y-75698500D01*
X121437851Y-75698500D01*
X121395074Y-75805469D01*
X122440000Y-76850395D01*
X123484926Y-75805469D01*
X123442149Y-75698500D01*
X152965840Y-75698500D01*
X153446378Y-75745618D01*
X153875761Y-75875256D01*
X154271777Y-76085821D01*
X154619358Y-76369302D01*
X154905252Y-76714889D01*
X155118579Y-77109430D01*
X155251211Y-77537892D01*
X155301501Y-78016371D01*
X155301500Y-136965840D01*
X155254383Y-137446378D01*
X155124745Y-137875757D01*
X154914179Y-138271777D01*
X154630700Y-138619356D01*
X154285111Y-138905252D01*
X153890569Y-139118580D01*
X153462108Y-139251211D01*
X152983638Y-139301500D01*
X103034160Y-139301500D01*
X102553622Y-139254383D01*
X102124243Y-139124745D01*
X101728223Y-138914179D01*
X101380644Y-138630700D01*
X101094748Y-138285111D01*
X100881420Y-137890569D01*
X100748789Y-137462108D01*
X100698500Y-136983638D01*
X100698500Y-136274868D01*
X101214200Y-136274868D01*
X101214200Y-136725132D01*
X101302042Y-137166743D01*
X101474350Y-137582732D01*
X101724503Y-137957113D01*
X102042887Y-138275497D01*
X102417268Y-138525650D01*
X102833257Y-138697958D01*
X103274868Y-138785800D01*
X103725132Y-138785800D01*
X104166743Y-138697958D01*
X104582732Y-138525650D01*
X104957113Y-138275497D01*
X105275497Y-137957113D01*
X105525650Y-137582732D01*
X105697958Y-137166743D01*
X105785800Y-136725132D01*
X105785800Y-136274868D01*
X150214200Y-136274868D01*
X150214200Y-136725132D01*
X150302042Y-137166743D01*
X150474350Y-137582732D01*
X150724503Y-137957113D01*
X151042887Y-138275497D01*
X151417268Y-138525650D01*
X151833257Y-138697958D01*
X152274868Y-138785800D01*
X152725132Y-138785800D01*
X153166743Y-138697958D01*
X153582732Y-138525650D01*
X153957113Y-138275497D01*
X154275497Y-137957113D01*
X154525650Y-137582732D01*
X154697958Y-137166743D01*
X154785800Y-136725132D01*
X154785800Y-136274868D01*
X154697958Y-135833257D01*
X154525650Y-135417268D01*
X154275497Y-135042887D01*
X153957113Y-134724503D01*
X153582732Y-134474350D01*
X153166743Y-134302042D01*
X152725132Y-134214200D01*
X152274868Y-134214200D01*
X151833257Y-134302042D01*
X151417268Y-134474350D01*
X151042887Y-134724503D01*
X150724503Y-135042887D01*
X150474350Y-135417268D01*
X150302042Y-135833257D01*
X150214200Y-136274868D01*
X105785800Y-136274868D01*
X105697958Y-135833257D01*
X105525650Y-135417268D01*
X105275497Y-135042887D01*
X104957113Y-134724503D01*
X104582732Y-134474350D01*
X104166743Y-134302042D01*
X103725132Y-134214200D01*
X103274868Y-134214200D01*
X102833257Y-134302042D01*
X102417268Y-134474350D01*
X102042887Y-134724503D01*
X101724503Y-135042887D01*
X101474350Y-135417268D01*
X101302042Y-135833257D01*
X101214200Y-136274868D01*
X100698500Y-136274868D01*
X100698500Y-104226321D01*
X110187900Y-104226321D01*
X110187900Y-104461479D01*
X110233777Y-104692119D01*
X110323768Y-104909376D01*
X110454415Y-105104903D01*
X110620697Y-105271185D01*
X110816224Y-105401832D01*
X111033481Y-105491823D01*
X111242029Y-105533306D01*
X113389301Y-107680579D01*
X113389302Y-117170400D01*
X113195521Y-117170400D01*
X112964881Y-117216277D01*
X112747624Y-117306268D01*
X112552097Y-117436915D01*
X112385815Y-117603197D01*
X112255168Y-117798724D01*
X112165177Y-118015981D01*
X112119300Y-118246621D01*
X112119300Y-118481779D01*
X112165177Y-118712419D01*
X112255168Y-118929676D01*
X112373300Y-119106473D01*
X112373301Y-123200133D01*
X112368754Y-123246300D01*
X112386899Y-123430533D01*
X112440638Y-123607686D01*
X112527904Y-123770951D01*
X112588059Y-123844248D01*
X112645347Y-123914054D01*
X112681210Y-123943486D01*
X115202934Y-126465212D01*
X115204896Y-126475074D01*
X115285314Y-126669219D01*
X115402062Y-126843945D01*
X115550655Y-126992538D01*
X115725381Y-127109286D01*
X115919526Y-127189704D01*
X116125629Y-127230700D01*
X116335771Y-127230700D01*
X116541874Y-127189704D01*
X116736019Y-127109286D01*
X116910745Y-126992538D01*
X117059338Y-126843945D01*
X117176086Y-126669219D01*
X117256504Y-126475074D01*
X117267702Y-126418779D01*
X120514834Y-129665912D01*
X120516796Y-129675774D01*
X120597214Y-129869919D01*
X120713962Y-130044645D01*
X120862555Y-130193238D01*
X121037281Y-130309986D01*
X121231426Y-130390404D01*
X121437529Y-130431400D01*
X121647671Y-130431400D01*
X121853774Y-130390404D01*
X122047919Y-130309986D01*
X122222645Y-130193238D01*
X122371238Y-130044645D01*
X122487986Y-129869919D01*
X122568404Y-129675774D01*
X122609400Y-129469671D01*
X122609400Y-129259529D01*
X122568404Y-129053426D01*
X122487986Y-128859281D01*
X122371238Y-128684555D01*
X122222645Y-128535962D01*
X122047919Y-128419214D01*
X121853774Y-128338796D01*
X121843912Y-128336834D01*
X119321207Y-125814129D01*
X119876700Y-125814129D01*
X119876700Y-126024271D01*
X119917696Y-126230374D01*
X119998114Y-126424519D01*
X120114862Y-126599245D01*
X120263455Y-126747838D01*
X120438181Y-126864586D01*
X120632326Y-126945004D01*
X120838429Y-126986000D01*
X120862145Y-126986000D01*
X120947548Y-127056088D01*
X121088750Y-127131562D01*
X121241963Y-127178039D01*
X121361377Y-127189800D01*
X121361379Y-127189800D01*
X121401300Y-127193732D01*
X121441220Y-127189800D01*
X127160882Y-127189800D01*
X127160882Y-127950000D01*
X127174123Y-128084440D01*
X127213338Y-128213714D01*
X127277019Y-128332853D01*
X127362720Y-128437280D01*
X127467147Y-128522981D01*
X127586286Y-128586662D01*
X127715560Y-128625877D01*
X127850000Y-128639118D01*
X129550000Y-128639118D01*
X129684440Y-128625877D01*
X129813714Y-128586662D01*
X129932853Y-128522981D01*
X130037280Y-128437280D01*
X130122981Y-128332853D01*
X130186662Y-128213714D01*
X130203685Y-128157598D01*
X130239731Y-128197588D01*
X130473080Y-128371641D01*
X130735901Y-128496825D01*
X130883110Y-128541476D01*
X131113000Y-128420155D01*
X131113000Y-127227000D01*
X131093000Y-127227000D01*
X131093000Y-126973000D01*
X131113000Y-126973000D01*
X131113000Y-125779845D01*
X131367000Y-125779845D01*
X131367000Y-126973000D01*
X131387000Y-126973000D01*
X131387000Y-127227000D01*
X131367000Y-127227000D01*
X131367000Y-128420155D01*
X131596890Y-128541476D01*
X131744099Y-128496825D01*
X132006920Y-128371641D01*
X132240269Y-128197588D01*
X132435178Y-127981355D01*
X132474439Y-127915445D01*
X132496850Y-127957373D01*
X132688771Y-128191229D01*
X132922627Y-128383150D01*
X133189431Y-128525760D01*
X133478931Y-128613578D01*
X133704553Y-128635800D01*
X133855447Y-128635800D01*
X134081069Y-128613578D01*
X134370569Y-128525760D01*
X134637373Y-128383150D01*
X134871229Y-128191229D01*
X135063150Y-127957373D01*
X135205760Y-127690569D01*
X135293578Y-127401069D01*
X135323231Y-127100000D01*
X135293578Y-126798931D01*
X135205760Y-126509431D01*
X135063150Y-126242627D01*
X134871229Y-126008771D01*
X134637373Y-125816850D01*
X134370569Y-125674240D01*
X134081069Y-125586422D01*
X133855447Y-125564200D01*
X133704553Y-125564200D01*
X133478931Y-125586422D01*
X133189431Y-125674240D01*
X132922627Y-125816850D01*
X132688771Y-126008771D01*
X132496850Y-126242627D01*
X132474439Y-126284555D01*
X132435178Y-126218645D01*
X132240269Y-126002412D01*
X132006920Y-125828359D01*
X131744099Y-125703175D01*
X131596890Y-125658524D01*
X131367000Y-125779845D01*
X131113000Y-125779845D01*
X130883110Y-125658524D01*
X130735901Y-125703175D01*
X130473080Y-125828359D01*
X130239731Y-126002412D01*
X130203685Y-126042402D01*
X130186662Y-125986286D01*
X130122981Y-125867147D01*
X130037280Y-125762720D01*
X129932853Y-125677019D01*
X129813714Y-125613338D01*
X129684440Y-125574123D01*
X129550000Y-125560882D01*
X127983234Y-125560882D01*
X127977000Y-125560268D01*
X127970766Y-125560882D01*
X127850000Y-125560882D01*
X127816311Y-125564200D01*
X121951151Y-125564200D01*
X121888886Y-125413881D01*
X121772138Y-125239155D01*
X121623545Y-125090562D01*
X121448819Y-124973814D01*
X121254674Y-124893396D01*
X121048571Y-124852400D01*
X120838429Y-124852400D01*
X120632326Y-124893396D01*
X120438181Y-124973814D01*
X120263455Y-125090562D01*
X120114862Y-125239155D01*
X119998114Y-125413881D01*
X119917696Y-125608026D01*
X119876700Y-125814129D01*
X119321207Y-125814129D01*
X115268901Y-121761825D01*
X115268901Y-115952421D01*
X148496200Y-115952421D01*
X148496200Y-116187579D01*
X148542077Y-116418219D01*
X148632068Y-116635476D01*
X148750200Y-116812274D01*
X148750201Y-117693833D01*
X148745654Y-117740000D01*
X148763799Y-117924233D01*
X148817538Y-118101386D01*
X148904804Y-118264651D01*
X148948615Y-118318034D01*
X149022247Y-118407754D01*
X149058110Y-118437186D01*
X149250594Y-118629671D01*
X149292077Y-118838219D01*
X149382068Y-119055476D01*
X149512715Y-119251003D01*
X149678997Y-119417285D01*
X149874524Y-119547932D01*
X150091781Y-119637923D01*
X150322421Y-119683800D01*
X150557579Y-119683800D01*
X150788219Y-119637923D01*
X151005476Y-119547932D01*
X151201003Y-119417285D01*
X151367285Y-119251003D01*
X151497932Y-119055476D01*
X151587923Y-118838219D01*
X151633800Y-118607579D01*
X151633800Y-118372421D01*
X151587923Y-118141781D01*
X151497932Y-117924524D01*
X151367285Y-117728997D01*
X151201003Y-117562715D01*
X151005476Y-117432068D01*
X150788219Y-117342077D01*
X150629800Y-117310566D01*
X150629800Y-116812273D01*
X150747932Y-116635476D01*
X150837923Y-116418219D01*
X150883800Y-116187579D01*
X150883800Y-115952421D01*
X150837923Y-115721781D01*
X150747932Y-115504524D01*
X150617285Y-115308997D01*
X150451003Y-115142715D01*
X150255476Y-115012068D01*
X150038219Y-114922077D01*
X149807579Y-114876200D01*
X149572421Y-114876200D01*
X149341781Y-114922077D01*
X149124524Y-115012068D01*
X148928997Y-115142715D01*
X148762715Y-115308997D01*
X148632068Y-115504524D01*
X148542077Y-115721781D01*
X148496200Y-115952421D01*
X115268901Y-115952421D01*
X115268901Y-107337457D01*
X115273447Y-107291300D01*
X115268901Y-107245143D01*
X115268901Y-107245134D01*
X115255303Y-107107068D01*
X115201564Y-106929915D01*
X115114297Y-106766650D01*
X114996855Y-106623547D01*
X114960997Y-106594119D01*
X112571106Y-104204229D01*
X112529623Y-103995681D01*
X112439632Y-103778424D01*
X112308985Y-103582897D01*
X112142703Y-103416615D01*
X111947176Y-103285968D01*
X111729919Y-103195977D01*
X111499279Y-103150100D01*
X111264121Y-103150100D01*
X111033481Y-103195977D01*
X110816224Y-103285968D01*
X110620697Y-103416615D01*
X110454415Y-103582897D01*
X110323768Y-103778424D01*
X110233777Y-103995681D01*
X110187900Y-104226321D01*
X100698500Y-104226321D01*
X100698500Y-97567129D01*
X129369300Y-97567129D01*
X129369300Y-97777271D01*
X129410296Y-97983374D01*
X129490714Y-98177519D01*
X129607462Y-98352245D01*
X129623301Y-98368084D01*
X129623300Y-103812399D01*
X129606596Y-103852726D01*
X129565600Y-104058829D01*
X129565600Y-104268971D01*
X129606596Y-104475074D01*
X129687014Y-104669219D01*
X129803762Y-104843945D01*
X129952355Y-104992538D01*
X130127081Y-105109286D01*
X130321226Y-105189704D01*
X130527329Y-105230700D01*
X130737471Y-105230700D01*
X130943574Y-105189704D01*
X131137719Y-105109286D01*
X131312445Y-104992538D01*
X131461038Y-104843945D01*
X131577786Y-104669219D01*
X131658204Y-104475074D01*
X131699200Y-104268971D01*
X131699200Y-104058829D01*
X131658204Y-103852726D01*
X131577786Y-103658581D01*
X131461038Y-103483855D01*
X131312445Y-103335262D01*
X131248900Y-103292803D01*
X131248900Y-98368083D01*
X131264738Y-98352245D01*
X131381486Y-98177519D01*
X131461904Y-97983374D01*
X131502900Y-97777271D01*
X131502900Y-97567129D01*
X131461904Y-97361026D01*
X131381486Y-97166881D01*
X131264738Y-96992155D01*
X131116145Y-96843562D01*
X130941419Y-96726814D01*
X130747274Y-96646396D01*
X130541171Y-96605400D01*
X130331029Y-96605400D01*
X130124926Y-96646396D01*
X129930781Y-96726814D01*
X129756055Y-96843562D01*
X129607462Y-96992155D01*
X129490714Y-97166881D01*
X129410296Y-97361026D01*
X129369300Y-97567129D01*
X100698500Y-97567129D01*
X100698500Y-91024072D01*
X104465533Y-91024072D01*
X104515274Y-91249691D01*
X104740058Y-91352582D01*
X104980596Y-91409642D01*
X105227645Y-91418680D01*
X105471709Y-91379347D01*
X105703410Y-91293156D01*
X105784726Y-91249691D01*
X105834467Y-91024072D01*
X107005533Y-91024072D01*
X107055274Y-91249691D01*
X107280058Y-91352582D01*
X107520596Y-91409642D01*
X107767645Y-91418680D01*
X108011709Y-91379347D01*
X108243410Y-91293156D01*
X108324726Y-91249691D01*
X108374467Y-91024072D01*
X107690000Y-90339605D01*
X107005533Y-91024072D01*
X105834467Y-91024072D01*
X105150000Y-90339605D01*
X104465533Y-91024072D01*
X100698500Y-91024072D01*
X100698500Y-90237645D01*
X103891320Y-90237645D01*
X103930653Y-90481709D01*
X104016844Y-90713410D01*
X104060309Y-90794726D01*
X104285928Y-90844467D01*
X104970395Y-90160000D01*
X104285928Y-89475533D01*
X104060309Y-89525274D01*
X103957418Y-89750058D01*
X103900358Y-89990596D01*
X103891320Y-90237645D01*
X100698500Y-90237645D01*
X100698500Y-88484072D01*
X104465533Y-88484072D01*
X104515274Y-88709691D01*
X104740058Y-88812582D01*
X104980596Y-88869642D01*
X105114200Y-88874530D01*
X105114200Y-88902851D01*
X105072355Y-88901320D01*
X104828291Y-88940653D01*
X104596590Y-89026844D01*
X104515274Y-89070309D01*
X104465533Y-89295928D01*
X105150000Y-89980395D01*
X105164143Y-89966253D01*
X105343748Y-90145858D01*
X105329605Y-90160000D01*
X106014072Y-90844467D01*
X106239691Y-90794726D01*
X106342582Y-90569942D01*
X106399642Y-90329404D01*
X106404530Y-90195800D01*
X106432851Y-90195800D01*
X106431320Y-90237645D01*
X106470653Y-90481709D01*
X106556844Y-90713410D01*
X106600309Y-90794726D01*
X106825928Y-90844467D01*
X107510395Y-90160000D01*
X107869605Y-90160000D01*
X108554072Y-90844467D01*
X108779691Y-90794726D01*
X108882582Y-90569942D01*
X108939642Y-90329404D01*
X108948680Y-90082355D01*
X108909347Y-89838291D01*
X108823156Y-89606590D01*
X108779691Y-89525274D01*
X108554072Y-89475533D01*
X107869605Y-90160000D01*
X107510395Y-90160000D01*
X107496253Y-90145858D01*
X107675858Y-89966253D01*
X107690000Y-89980395D01*
X108374467Y-89295928D01*
X108324726Y-89070309D01*
X108099942Y-88967418D01*
X107859404Y-88910358D01*
X107725800Y-88905470D01*
X107725800Y-88877149D01*
X107767645Y-88878680D01*
X108011709Y-88839347D01*
X108243410Y-88753156D01*
X108324726Y-88709691D01*
X108374467Y-88484072D01*
X107690000Y-87799605D01*
X107675858Y-87813748D01*
X107496253Y-87634143D01*
X107510395Y-87620000D01*
X107869605Y-87620000D01*
X108554072Y-88304467D01*
X108779691Y-88254726D01*
X108882582Y-88029942D01*
X108939642Y-87789404D01*
X108948680Y-87542355D01*
X108909347Y-87298291D01*
X108823156Y-87066590D01*
X108779691Y-86985274D01*
X108554072Y-86935533D01*
X107869605Y-87620000D01*
X107510395Y-87620000D01*
X106825928Y-86935533D01*
X106600309Y-86985274D01*
X106497418Y-87210058D01*
X106440358Y-87450596D01*
X106435470Y-87584200D01*
X106407149Y-87584200D01*
X106408680Y-87542355D01*
X106369347Y-87298291D01*
X106283156Y-87066590D01*
X106239691Y-86985274D01*
X106014072Y-86935533D01*
X105329605Y-87620000D01*
X105343748Y-87634143D01*
X105164143Y-87813748D01*
X105150000Y-87799605D01*
X104465533Y-88484072D01*
X100698500Y-88484072D01*
X100698500Y-87697645D01*
X103891320Y-87697645D01*
X103930653Y-87941709D01*
X104016844Y-88173410D01*
X104060309Y-88254726D01*
X104285928Y-88304467D01*
X104970395Y-87620000D01*
X104285928Y-86935533D01*
X104060309Y-86985274D01*
X103957418Y-87210058D01*
X103900358Y-87450596D01*
X103891320Y-87697645D01*
X100698500Y-87697645D01*
X100698500Y-86755928D01*
X104465533Y-86755928D01*
X105150000Y-87440395D01*
X105834467Y-86755928D01*
X107005533Y-86755928D01*
X107690000Y-87440395D01*
X108374467Y-86755928D01*
X108324726Y-86530309D01*
X108099942Y-86427418D01*
X107859404Y-86370358D01*
X107612355Y-86361320D01*
X107368291Y-86400653D01*
X107136590Y-86486844D01*
X107055274Y-86530309D01*
X107005533Y-86755928D01*
X105834467Y-86755928D01*
X105784726Y-86530309D01*
X105559942Y-86427418D01*
X105319404Y-86370358D01*
X105072355Y-86361320D01*
X104828291Y-86400653D01*
X104596590Y-86486844D01*
X104515274Y-86530309D01*
X104465533Y-86755928D01*
X100698500Y-86755928D01*
X100698500Y-83334531D01*
X116315074Y-83334531D01*
X116425921Y-83611714D01*
X116736840Y-83765089D01*
X117071705Y-83854860D01*
X117417650Y-83877576D01*
X117761380Y-83832366D01*
X118089685Y-83720966D01*
X118294079Y-83611714D01*
X118404926Y-83334531D01*
X121395074Y-83334531D01*
X121505921Y-83611714D01*
X121816840Y-83765089D01*
X122151705Y-83854860D01*
X122497650Y-83877576D01*
X122841380Y-83832366D01*
X123169685Y-83720966D01*
X123374079Y-83611714D01*
X123484926Y-83334531D01*
X122440000Y-82289605D01*
X121395074Y-83334531D01*
X118404926Y-83334531D01*
X117360000Y-82289605D01*
X116315074Y-83334531D01*
X100698500Y-83334531D01*
X100698500Y-82167650D01*
X115592424Y-82167650D01*
X115637634Y-82511380D01*
X115749034Y-82839685D01*
X115858286Y-83044079D01*
X116135469Y-83154926D01*
X117180395Y-82110000D01*
X117539605Y-82110000D01*
X118584531Y-83154926D01*
X118861714Y-83044079D01*
X119015089Y-82733160D01*
X119104860Y-82398295D01*
X119120004Y-82167650D01*
X120672424Y-82167650D01*
X120717634Y-82511380D01*
X120829034Y-82839685D01*
X120938286Y-83044079D01*
X121215469Y-83154926D01*
X122260395Y-82110000D01*
X122619605Y-82110000D01*
X123664531Y-83154926D01*
X123941714Y-83044079D01*
X124095089Y-82733160D01*
X124184860Y-82398295D01*
X124207576Y-82052350D01*
X124162366Y-81708620D01*
X124050966Y-81380315D01*
X123941714Y-81175921D01*
X123664531Y-81065074D01*
X122619605Y-82110000D01*
X122260395Y-82110000D01*
X121215469Y-81065074D01*
X120938286Y-81175921D01*
X120784911Y-81486840D01*
X120695140Y-81821705D01*
X120672424Y-82167650D01*
X119120004Y-82167650D01*
X119127576Y-82052350D01*
X119082366Y-81708620D01*
X118970966Y-81380315D01*
X118861714Y-81175921D01*
X118584531Y-81065074D01*
X117539605Y-82110000D01*
X117180395Y-82110000D01*
X116135469Y-81065074D01*
X115858286Y-81175921D01*
X115704911Y-81486840D01*
X115615140Y-81821705D01*
X115592424Y-82167650D01*
X100698500Y-82167650D01*
X100698500Y-80885469D01*
X116315074Y-80885469D01*
X117360000Y-81930395D01*
X118404926Y-80885469D01*
X118294079Y-80608286D01*
X117983160Y-80454911D01*
X117648295Y-80365140D01*
X117302350Y-80342424D01*
X116958620Y-80387634D01*
X116630315Y-80499034D01*
X116425921Y-80608286D01*
X116315074Y-80885469D01*
X100698500Y-80885469D01*
X100698500Y-78274868D01*
X101214200Y-78274868D01*
X101214200Y-78725132D01*
X101302042Y-79166743D01*
X101474350Y-79582732D01*
X101724503Y-79957113D01*
X102042887Y-80275497D01*
X102417268Y-80525650D01*
X102833257Y-80697958D01*
X103274868Y-80785800D01*
X103725132Y-80785800D01*
X104166743Y-80697958D01*
X104582732Y-80525650D01*
X104957113Y-80275497D01*
X105275497Y-79957113D01*
X105525650Y-79582732D01*
X105600718Y-79401501D01*
X118189200Y-79401501D01*
X118189200Y-79738499D01*
X118254945Y-80069022D01*
X118383909Y-80380368D01*
X118571135Y-80660572D01*
X118809428Y-80898865D01*
X119089632Y-81086091D01*
X119400978Y-81215055D01*
X119731501Y-81280800D01*
X120068499Y-81280800D01*
X120399022Y-81215055D01*
X120710368Y-81086091D01*
X120990572Y-80898865D01*
X121003968Y-80885469D01*
X121395074Y-80885469D01*
X122440000Y-81930395D01*
X123484926Y-80885469D01*
X123411312Y-80701390D01*
X131574200Y-80701390D01*
X131574200Y-80958610D01*
X131624381Y-81210888D01*
X131722815Y-81448528D01*
X131865719Y-81662399D01*
X132047601Y-81844281D01*
X132067200Y-81857377D01*
X132067201Y-82342623D01*
X132047601Y-82355719D01*
X131865719Y-82537601D01*
X131722815Y-82751472D01*
X131624381Y-82989112D01*
X131574200Y-83241390D01*
X131574200Y-83498610D01*
X131624381Y-83750888D01*
X131722815Y-83988528D01*
X131865719Y-84202399D01*
X132047601Y-84384281D01*
X132261472Y-84527185D01*
X132499112Y-84625619D01*
X132751390Y-84675800D01*
X133008610Y-84675800D01*
X133260888Y-84625619D01*
X133498528Y-84527185D01*
X133712399Y-84384281D01*
X133894281Y-84202399D01*
X133907377Y-84182800D01*
X134392623Y-84182800D01*
X134405719Y-84202399D01*
X134587601Y-84384281D01*
X134801472Y-84527185D01*
X135039112Y-84625619D01*
X135291390Y-84675800D01*
X135548610Y-84675800D01*
X135800888Y-84625619D01*
X136038528Y-84527185D01*
X136252399Y-84384281D01*
X136434281Y-84202399D01*
X136577185Y-83988528D01*
X136675619Y-83750888D01*
X136725800Y-83498610D01*
X136725800Y-83241390D01*
X136675619Y-82989112D01*
X136577185Y-82751472D01*
X136434281Y-82537601D01*
X136252399Y-82355719D01*
X136232800Y-82342623D01*
X136232800Y-81857377D01*
X136252399Y-81844281D01*
X136434281Y-81662399D01*
X136577185Y-81448528D01*
X136675619Y-81210888D01*
X136725800Y-80958610D01*
X136725800Y-80701390D01*
X136675619Y-80449112D01*
X136667620Y-80429800D01*
X141621095Y-80429800D01*
X141536422Y-80708931D01*
X141506769Y-81010000D01*
X141536422Y-81311069D01*
X141624240Y-81600569D01*
X141766850Y-81867373D01*
X141930300Y-82066537D01*
X141817147Y-82127019D01*
X141712720Y-82212720D01*
X141627019Y-82317147D01*
X141563338Y-82436286D01*
X141524123Y-82565560D01*
X141510882Y-82700000D01*
X141510882Y-84400000D01*
X141524123Y-84534440D01*
X141563338Y-84663714D01*
X141627019Y-84782853D01*
X141712720Y-84887280D01*
X141817147Y-84972981D01*
X141936286Y-85036662D01*
X142065560Y-85075877D01*
X142200000Y-85089118D01*
X143900000Y-85089118D01*
X144034440Y-85075877D01*
X144163714Y-85036662D01*
X144282853Y-84972981D01*
X144387280Y-84887280D01*
X144472981Y-84782853D01*
X144536662Y-84663714D01*
X144575877Y-84534440D01*
X144589118Y-84400000D01*
X144589118Y-84362800D01*
X145110882Y-84362800D01*
X145110882Y-84400000D01*
X145124123Y-84534440D01*
X145163338Y-84663714D01*
X145227019Y-84782853D01*
X145312720Y-84887280D01*
X145417147Y-84972981D01*
X145536286Y-85036662D01*
X145665560Y-85075877D01*
X145800000Y-85089118D01*
X147500000Y-85089118D01*
X147634440Y-85075877D01*
X147763714Y-85036662D01*
X147882853Y-84972981D01*
X147987280Y-84887280D01*
X148072981Y-84782853D01*
X148136662Y-84663714D01*
X148175877Y-84534440D01*
X148189118Y-84400000D01*
X148189118Y-82700000D01*
X148175877Y-82565560D01*
X148136662Y-82436286D01*
X148072981Y-82317147D01*
X147987280Y-82212720D01*
X147882853Y-82127019D01*
X147769700Y-82066537D01*
X147933150Y-81867373D01*
X148075760Y-81600569D01*
X148163578Y-81311069D01*
X148193231Y-81010000D01*
X148163578Y-80708931D01*
X148075760Y-80419431D01*
X147933150Y-80152627D01*
X147741229Y-79918771D01*
X147507373Y-79726850D01*
X147240569Y-79584240D01*
X146951069Y-79496422D01*
X146725447Y-79474200D01*
X146574553Y-79474200D01*
X146348931Y-79496422D01*
X146059431Y-79584240D01*
X145792627Y-79726850D01*
X145558771Y-79918771D01*
X145490742Y-80001664D01*
X144347191Y-78858115D01*
X144317754Y-78822246D01*
X144174651Y-78704804D01*
X144011386Y-78617537D01*
X143834233Y-78563798D01*
X143696167Y-78550200D01*
X143696157Y-78550200D01*
X143650000Y-78545654D01*
X143603843Y-78550200D01*
X135066157Y-78550200D01*
X135020000Y-78545654D01*
X134973843Y-78550200D01*
X134973833Y-78550200D01*
X134835767Y-78563798D01*
X134668843Y-78614434D01*
X134658614Y-78617537D01*
X134495348Y-78704804D01*
X134388106Y-78792816D01*
X134352246Y-78822246D01*
X134322817Y-78858105D01*
X133518114Y-79662809D01*
X133502604Y-79675539D01*
X133498528Y-79672815D01*
X133260888Y-79574381D01*
X133008610Y-79524200D01*
X132751390Y-79524200D01*
X132499112Y-79574381D01*
X132261472Y-79672815D01*
X132047601Y-79815719D01*
X131865719Y-79997601D01*
X131722815Y-80211472D01*
X131624381Y-80449112D01*
X131574200Y-80701390D01*
X123411312Y-80701390D01*
X123374079Y-80608286D01*
X123063160Y-80454911D01*
X122728295Y-80365140D01*
X122382350Y-80342424D01*
X122038620Y-80387634D01*
X121710315Y-80499034D01*
X121505921Y-80608286D01*
X121395074Y-80885469D01*
X121003968Y-80885469D01*
X121228865Y-80660572D01*
X121416091Y-80380368D01*
X121545055Y-80069022D01*
X121610800Y-79738499D01*
X121610800Y-79401501D01*
X121545055Y-79070978D01*
X121416091Y-78759632D01*
X121228865Y-78479428D01*
X121003968Y-78254531D01*
X121395074Y-78254531D01*
X121505921Y-78531714D01*
X121816840Y-78685089D01*
X122151705Y-78774860D01*
X122497650Y-78797576D01*
X122841380Y-78752366D01*
X123169685Y-78640966D01*
X123374079Y-78531714D01*
X123476793Y-78274868D01*
X150214200Y-78274868D01*
X150214200Y-78725132D01*
X150302042Y-79166743D01*
X150474350Y-79582732D01*
X150724503Y-79957113D01*
X151042887Y-80275497D01*
X151417268Y-80525650D01*
X151833257Y-80697958D01*
X152274868Y-80785800D01*
X152725132Y-80785800D01*
X153166743Y-80697958D01*
X153582732Y-80525650D01*
X153957113Y-80275497D01*
X154275497Y-79957113D01*
X154525650Y-79582732D01*
X154697958Y-79166743D01*
X154785800Y-78725132D01*
X154785800Y-78274868D01*
X154697958Y-77833257D01*
X154525650Y-77417268D01*
X154275497Y-77042887D01*
X153957113Y-76724503D01*
X153582732Y-76474350D01*
X153166743Y-76302042D01*
X152725132Y-76214200D01*
X152274868Y-76214200D01*
X151833257Y-76302042D01*
X151417268Y-76474350D01*
X151042887Y-76724503D01*
X150724503Y-77042887D01*
X150474350Y-77417268D01*
X150302042Y-77833257D01*
X150214200Y-78274868D01*
X123476793Y-78274868D01*
X123484926Y-78254531D01*
X122440000Y-77209605D01*
X121395074Y-78254531D01*
X121003968Y-78254531D01*
X120990572Y-78241135D01*
X120710368Y-78053909D01*
X120399022Y-77924945D01*
X120068499Y-77859200D01*
X119731501Y-77859200D01*
X119400978Y-77924945D01*
X119089632Y-78053909D01*
X118809428Y-78241135D01*
X118571135Y-78479428D01*
X118383909Y-78759632D01*
X118254945Y-79070978D01*
X118189200Y-79401501D01*
X105600718Y-79401501D01*
X105697958Y-79166743D01*
X105785800Y-78725132D01*
X105785800Y-78274868D01*
X105781755Y-78254531D01*
X116315074Y-78254531D01*
X116425921Y-78531714D01*
X116736840Y-78685089D01*
X117071705Y-78774860D01*
X117417650Y-78797576D01*
X117761380Y-78752366D01*
X118089685Y-78640966D01*
X118294079Y-78531714D01*
X118404926Y-78254531D01*
X117360000Y-77209605D01*
X116315074Y-78254531D01*
X105781755Y-78254531D01*
X105697958Y-77833257D01*
X105525650Y-77417268D01*
X105305407Y-77087650D01*
X115592424Y-77087650D01*
X115637634Y-77431380D01*
X115749034Y-77759685D01*
X115858286Y-77964079D01*
X116135469Y-78074926D01*
X117180395Y-77030000D01*
X117539605Y-77030000D01*
X118584531Y-78074926D01*
X118861714Y-77964079D01*
X119015089Y-77653160D01*
X119104860Y-77318295D01*
X119120004Y-77087650D01*
X120672424Y-77087650D01*
X120717634Y-77431380D01*
X120829034Y-77759685D01*
X120938286Y-77964079D01*
X121215469Y-78074926D01*
X122260395Y-77030000D01*
X122619605Y-77030000D01*
X123664531Y-78074926D01*
X123941714Y-77964079D01*
X124095089Y-77653160D01*
X124184860Y-77318295D01*
X124207576Y-76972350D01*
X124162366Y-76628620D01*
X124050966Y-76300315D01*
X123941714Y-76095921D01*
X123664531Y-75985074D01*
X122619605Y-77030000D01*
X122260395Y-77030000D01*
X121215469Y-75985074D01*
X120938286Y-76095921D01*
X120784911Y-76406840D01*
X120695140Y-76741705D01*
X120672424Y-77087650D01*
X119120004Y-77087650D01*
X119127576Y-76972350D01*
X119082366Y-76628620D01*
X118970966Y-76300315D01*
X118861714Y-76095921D01*
X118584531Y-75985074D01*
X117539605Y-77030000D01*
X117180395Y-77030000D01*
X116135469Y-75985074D01*
X115858286Y-76095921D01*
X115704911Y-76406840D01*
X115615140Y-76741705D01*
X115592424Y-77087650D01*
X105305407Y-77087650D01*
X105275497Y-77042887D01*
X104957113Y-76724503D01*
X104582732Y-76474350D01*
X104166743Y-76302042D01*
X103725132Y-76214200D01*
X103274868Y-76214200D01*
X102833257Y-76302042D01*
X102417268Y-76474350D01*
X102042887Y-76724503D01*
X101724503Y-77042887D01*
X101474350Y-77417268D01*
X101302042Y-77833257D01*
X101214200Y-78274868D01*
X100698500Y-78274868D01*
X100698500Y-78034160D01*
X100745618Y-77553622D01*
X100875256Y-77124239D01*
X101085821Y-76728223D01*
X101369302Y-76380642D01*
X101714889Y-76094748D01*
X102109430Y-75881421D01*
X102537892Y-75748789D01*
X103016362Y-75698500D01*
X116357851Y-75698500D01*
X116315074Y-75805469D01*
X116315074Y-75805469D01*
G37*
X116315074Y-75805469D02*
X117360000Y-76850395D01*
X118404926Y-75805469D01*
X118362149Y-75698500D01*
X121437851Y-75698500D01*
X121395074Y-75805469D01*
X122440000Y-76850395D01*
X123484926Y-75805469D01*
X123442149Y-75698500D01*
X152965840Y-75698500D01*
X153446378Y-75745618D01*
X153875761Y-75875256D01*
X154271777Y-76085821D01*
X154619358Y-76369302D01*
X154905252Y-76714889D01*
X155118579Y-77109430D01*
X155251211Y-77537892D01*
X155301501Y-78016371D01*
X155301500Y-136965840D01*
X155254383Y-137446378D01*
X155124745Y-137875757D01*
X154914179Y-138271777D01*
X154630700Y-138619356D01*
X154285111Y-138905252D01*
X153890569Y-139118580D01*
X153462108Y-139251211D01*
X152983638Y-139301500D01*
X103034160Y-139301500D01*
X102553622Y-139254383D01*
X102124243Y-139124745D01*
X101728223Y-138914179D01*
X101380644Y-138630700D01*
X101094748Y-138285111D01*
X100881420Y-137890569D01*
X100748789Y-137462108D01*
X100698500Y-136983638D01*
X100698500Y-136274868D01*
X101214200Y-136274868D01*
X101214200Y-136725132D01*
X101302042Y-137166743D01*
X101474350Y-137582732D01*
X101724503Y-137957113D01*
X102042887Y-138275497D01*
X102417268Y-138525650D01*
X102833257Y-138697958D01*
X103274868Y-138785800D01*
X103725132Y-138785800D01*
X104166743Y-138697958D01*
X104582732Y-138525650D01*
X104957113Y-138275497D01*
X105275497Y-137957113D01*
X105525650Y-137582732D01*
X105697958Y-137166743D01*
X105785800Y-136725132D01*
X105785800Y-136274868D01*
X150214200Y-136274868D01*
X150214200Y-136725132D01*
X150302042Y-137166743D01*
X150474350Y-137582732D01*
X150724503Y-137957113D01*
X151042887Y-138275497D01*
X151417268Y-138525650D01*
X151833257Y-138697958D01*
X152274868Y-138785800D01*
X152725132Y-138785800D01*
X153166743Y-138697958D01*
X153582732Y-138525650D01*
X153957113Y-138275497D01*
X154275497Y-137957113D01*
X154525650Y-137582732D01*
X154697958Y-137166743D01*
X154785800Y-136725132D01*
X154785800Y-136274868D01*
X154697958Y-135833257D01*
X154525650Y-135417268D01*
X154275497Y-135042887D01*
X153957113Y-134724503D01*
X153582732Y-134474350D01*
X153166743Y-134302042D01*
X152725132Y-134214200D01*
X152274868Y-134214200D01*
X151833257Y-134302042D01*
X151417268Y-134474350D01*
X151042887Y-134724503D01*
X150724503Y-135042887D01*
X150474350Y-135417268D01*
X150302042Y-135833257D01*
X150214200Y-136274868D01*
X105785800Y-136274868D01*
X105697958Y-135833257D01*
X105525650Y-135417268D01*
X105275497Y-135042887D01*
X104957113Y-134724503D01*
X104582732Y-134474350D01*
X104166743Y-134302042D01*
X103725132Y-134214200D01*
X103274868Y-134214200D01*
X102833257Y-134302042D01*
X102417268Y-134474350D01*
X102042887Y-134724503D01*
X101724503Y-135042887D01*
X101474350Y-135417268D01*
X101302042Y-135833257D01*
X101214200Y-136274868D01*
X100698500Y-136274868D01*
X100698500Y-104226321D01*
X110187900Y-104226321D01*
X110187900Y-104461479D01*
X110233777Y-104692119D01*
X110323768Y-104909376D01*
X110454415Y-105104903D01*
X110620697Y-105271185D01*
X110816224Y-105401832D01*
X111033481Y-105491823D01*
X111242029Y-105533306D01*
X113389301Y-107680579D01*
X113389302Y-117170400D01*
X113195521Y-117170400D01*
X112964881Y-117216277D01*
X112747624Y-117306268D01*
X112552097Y-117436915D01*
X112385815Y-117603197D01*
X112255168Y-117798724D01*
X112165177Y-118015981D01*
X112119300Y-118246621D01*
X112119300Y-118481779D01*
X112165177Y-118712419D01*
X112255168Y-118929676D01*
X112373300Y-119106473D01*
X112373301Y-123200133D01*
X112368754Y-123246300D01*
X112386899Y-123430533D01*
X112440638Y-123607686D01*
X112527904Y-123770951D01*
X112588059Y-123844248D01*
X112645347Y-123914054D01*
X112681210Y-123943486D01*
X115202934Y-126465212D01*
X115204896Y-126475074D01*
X115285314Y-126669219D01*
X115402062Y-126843945D01*
X115550655Y-126992538D01*
X115725381Y-127109286D01*
X115919526Y-127189704D01*
X116125629Y-127230700D01*
X116335771Y-127230700D01*
X116541874Y-127189704D01*
X116736019Y-127109286D01*
X116910745Y-126992538D01*
X117059338Y-126843945D01*
X117176086Y-126669219D01*
X117256504Y-126475074D01*
X117267702Y-126418779D01*
X120514834Y-129665912D01*
X120516796Y-129675774D01*
X120597214Y-129869919D01*
X120713962Y-130044645D01*
X120862555Y-130193238D01*
X121037281Y-130309986D01*
X121231426Y-130390404D01*
X121437529Y-130431400D01*
X121647671Y-130431400D01*
X121853774Y-130390404D01*
X122047919Y-130309986D01*
X122222645Y-130193238D01*
X122371238Y-130044645D01*
X122487986Y-129869919D01*
X122568404Y-129675774D01*
X122609400Y-129469671D01*
X122609400Y-129259529D01*
X122568404Y-129053426D01*
X122487986Y-128859281D01*
X122371238Y-128684555D01*
X122222645Y-128535962D01*
X122047919Y-128419214D01*
X121853774Y-128338796D01*
X121843912Y-128336834D01*
X119321207Y-125814129D01*
X119876700Y-125814129D01*
X119876700Y-126024271D01*
X119917696Y-126230374D01*
X119998114Y-126424519D01*
X120114862Y-126599245D01*
X120263455Y-126747838D01*
X120438181Y-126864586D01*
X120632326Y-126945004D01*
X120838429Y-126986000D01*
X120862145Y-126986000D01*
X120947548Y-127056088D01*
X121088750Y-127131562D01*
X121241963Y-127178039D01*
X121361377Y-127189800D01*
X121361379Y-127189800D01*
X121401300Y-127193732D01*
X121441220Y-127189800D01*
X127160882Y-127189800D01*
X127160882Y-127950000D01*
X127174123Y-128084440D01*
X127213338Y-128213714D01*
X127277019Y-128332853D01*
X127362720Y-128437280D01*
X127467147Y-128522981D01*
X127586286Y-128586662D01*
X127715560Y-128625877D01*
X127850000Y-128639118D01*
X129550000Y-128639118D01*
X129684440Y-128625877D01*
X129813714Y-128586662D01*
X129932853Y-128522981D01*
X130037280Y-128437280D01*
X130122981Y-128332853D01*
X130186662Y-128213714D01*
X130203685Y-128157598D01*
X130239731Y-128197588D01*
X130473080Y-128371641D01*
X130735901Y-128496825D01*
X130883110Y-128541476D01*
X131113000Y-128420155D01*
X131113000Y-127227000D01*
X131093000Y-127227000D01*
X131093000Y-126973000D01*
X131113000Y-126973000D01*
X131113000Y-125779845D01*
X131367000Y-125779845D01*
X131367000Y-126973000D01*
X131387000Y-126973000D01*
X131387000Y-127227000D01*
X131367000Y-127227000D01*
X131367000Y-128420155D01*
X131596890Y-128541476D01*
X131744099Y-128496825D01*
X132006920Y-128371641D01*
X132240269Y-128197588D01*
X132435178Y-127981355D01*
X132474439Y-127915445D01*
X132496850Y-127957373D01*
X132688771Y-128191229D01*
X132922627Y-128383150D01*
X133189431Y-128525760D01*
X133478931Y-128613578D01*
X133704553Y-128635800D01*
X133855447Y-128635800D01*
X134081069Y-128613578D01*
X134370569Y-128525760D01*
X134637373Y-128383150D01*
X134871229Y-128191229D01*
X135063150Y-127957373D01*
X135205760Y-127690569D01*
X135293578Y-127401069D01*
X135323231Y-127100000D01*
X135293578Y-126798931D01*
X135205760Y-126509431D01*
X135063150Y-126242627D01*
X134871229Y-126008771D01*
X134637373Y-125816850D01*
X134370569Y-125674240D01*
X134081069Y-125586422D01*
X133855447Y-125564200D01*
X133704553Y-125564200D01*
X133478931Y-125586422D01*
X133189431Y-125674240D01*
X132922627Y-125816850D01*
X132688771Y-126008771D01*
X132496850Y-126242627D01*
X132474439Y-126284555D01*
X132435178Y-126218645D01*
X132240269Y-126002412D01*
X132006920Y-125828359D01*
X131744099Y-125703175D01*
X131596890Y-125658524D01*
X131367000Y-125779845D01*
X131113000Y-125779845D01*
X130883110Y-125658524D01*
X130735901Y-125703175D01*
X130473080Y-125828359D01*
X130239731Y-126002412D01*
X130203685Y-126042402D01*
X130186662Y-125986286D01*
X130122981Y-125867147D01*
X130037280Y-125762720D01*
X129932853Y-125677019D01*
X129813714Y-125613338D01*
X129684440Y-125574123D01*
X129550000Y-125560882D01*
X127983234Y-125560882D01*
X127977000Y-125560268D01*
X127970766Y-125560882D01*
X127850000Y-125560882D01*
X127816311Y-125564200D01*
X121951151Y-125564200D01*
X121888886Y-125413881D01*
X121772138Y-125239155D01*
X121623545Y-125090562D01*
X121448819Y-124973814D01*
X121254674Y-124893396D01*
X121048571Y-124852400D01*
X120838429Y-124852400D01*
X120632326Y-124893396D01*
X120438181Y-124973814D01*
X120263455Y-125090562D01*
X120114862Y-125239155D01*
X119998114Y-125413881D01*
X119917696Y-125608026D01*
X119876700Y-125814129D01*
X119321207Y-125814129D01*
X115268901Y-121761825D01*
X115268901Y-115952421D01*
X148496200Y-115952421D01*
X148496200Y-116187579D01*
X148542077Y-116418219D01*
X148632068Y-116635476D01*
X148750200Y-116812274D01*
X148750201Y-117693833D01*
X148745654Y-117740000D01*
X148763799Y-117924233D01*
X148817538Y-118101386D01*
X148904804Y-118264651D01*
X148948615Y-118318034D01*
X149022247Y-118407754D01*
X149058110Y-118437186D01*
X149250594Y-118629671D01*
X149292077Y-118838219D01*
X149382068Y-119055476D01*
X149512715Y-119251003D01*
X149678997Y-119417285D01*
X149874524Y-119547932D01*
X150091781Y-119637923D01*
X150322421Y-119683800D01*
X150557579Y-119683800D01*
X150788219Y-119637923D01*
X151005476Y-119547932D01*
X151201003Y-119417285D01*
X151367285Y-119251003D01*
X151497932Y-119055476D01*
X151587923Y-118838219D01*
X151633800Y-118607579D01*
X151633800Y-118372421D01*
X151587923Y-118141781D01*
X151497932Y-117924524D01*
X151367285Y-117728997D01*
X151201003Y-117562715D01*
X151005476Y-117432068D01*
X150788219Y-117342077D01*
X150629800Y-117310566D01*
X150629800Y-116812273D01*
X150747932Y-116635476D01*
X150837923Y-116418219D01*
X150883800Y-116187579D01*
X150883800Y-115952421D01*
X150837923Y-115721781D01*
X150747932Y-115504524D01*
X150617285Y-115308997D01*
X150451003Y-115142715D01*
X150255476Y-115012068D01*
X150038219Y-114922077D01*
X149807579Y-114876200D01*
X149572421Y-114876200D01*
X149341781Y-114922077D01*
X149124524Y-115012068D01*
X148928997Y-115142715D01*
X148762715Y-115308997D01*
X148632068Y-115504524D01*
X148542077Y-115721781D01*
X148496200Y-115952421D01*
X115268901Y-115952421D01*
X115268901Y-107337457D01*
X115273447Y-107291300D01*
X115268901Y-107245143D01*
X115268901Y-107245134D01*
X115255303Y-107107068D01*
X115201564Y-106929915D01*
X115114297Y-106766650D01*
X114996855Y-106623547D01*
X114960997Y-106594119D01*
X112571106Y-104204229D01*
X112529623Y-103995681D01*
X112439632Y-103778424D01*
X112308985Y-103582897D01*
X112142703Y-103416615D01*
X111947176Y-103285968D01*
X111729919Y-103195977D01*
X111499279Y-103150100D01*
X111264121Y-103150100D01*
X111033481Y-103195977D01*
X110816224Y-103285968D01*
X110620697Y-103416615D01*
X110454415Y-103582897D01*
X110323768Y-103778424D01*
X110233777Y-103995681D01*
X110187900Y-104226321D01*
X100698500Y-104226321D01*
X100698500Y-97567129D01*
X129369300Y-97567129D01*
X129369300Y-97777271D01*
X129410296Y-97983374D01*
X129490714Y-98177519D01*
X129607462Y-98352245D01*
X129623301Y-98368084D01*
X129623300Y-103812399D01*
X129606596Y-103852726D01*
X129565600Y-104058829D01*
X129565600Y-104268971D01*
X129606596Y-104475074D01*
X129687014Y-104669219D01*
X129803762Y-104843945D01*
X129952355Y-104992538D01*
X130127081Y-105109286D01*
X130321226Y-105189704D01*
X130527329Y-105230700D01*
X130737471Y-105230700D01*
X130943574Y-105189704D01*
X131137719Y-105109286D01*
X131312445Y-104992538D01*
X131461038Y-104843945D01*
X131577786Y-104669219D01*
X131658204Y-104475074D01*
X131699200Y-104268971D01*
X131699200Y-104058829D01*
X131658204Y-103852726D01*
X131577786Y-103658581D01*
X131461038Y-103483855D01*
X131312445Y-103335262D01*
X131248900Y-103292803D01*
X131248900Y-98368083D01*
X131264738Y-98352245D01*
X131381486Y-98177519D01*
X131461904Y-97983374D01*
X131502900Y-97777271D01*
X131502900Y-97567129D01*
X131461904Y-97361026D01*
X131381486Y-97166881D01*
X131264738Y-96992155D01*
X131116145Y-96843562D01*
X130941419Y-96726814D01*
X130747274Y-96646396D01*
X130541171Y-96605400D01*
X130331029Y-96605400D01*
X130124926Y-96646396D01*
X129930781Y-96726814D01*
X129756055Y-96843562D01*
X129607462Y-96992155D01*
X129490714Y-97166881D01*
X129410296Y-97361026D01*
X129369300Y-97567129D01*
X100698500Y-97567129D01*
X100698500Y-91024072D01*
X104465533Y-91024072D01*
X104515274Y-91249691D01*
X104740058Y-91352582D01*
X104980596Y-91409642D01*
X105227645Y-91418680D01*
X105471709Y-91379347D01*
X105703410Y-91293156D01*
X105784726Y-91249691D01*
X105834467Y-91024072D01*
X107005533Y-91024072D01*
X107055274Y-91249691D01*
X107280058Y-91352582D01*
X107520596Y-91409642D01*
X107767645Y-91418680D01*
X108011709Y-91379347D01*
X108243410Y-91293156D01*
X108324726Y-91249691D01*
X108374467Y-91024072D01*
X107690000Y-90339605D01*
X107005533Y-91024072D01*
X105834467Y-91024072D01*
X105150000Y-90339605D01*
X104465533Y-91024072D01*
X100698500Y-91024072D01*
X100698500Y-90237645D01*
X103891320Y-90237645D01*
X103930653Y-90481709D01*
X104016844Y-90713410D01*
X104060309Y-90794726D01*
X104285928Y-90844467D01*
X104970395Y-90160000D01*
X104285928Y-89475533D01*
X104060309Y-89525274D01*
X103957418Y-89750058D01*
X103900358Y-89990596D01*
X103891320Y-90237645D01*
X100698500Y-90237645D01*
X100698500Y-88484072D01*
X104465533Y-88484072D01*
X104515274Y-88709691D01*
X104740058Y-88812582D01*
X104980596Y-88869642D01*
X105114200Y-88874530D01*
X105114200Y-88902851D01*
X105072355Y-88901320D01*
X104828291Y-88940653D01*
X104596590Y-89026844D01*
X104515274Y-89070309D01*
X104465533Y-89295928D01*
X105150000Y-89980395D01*
X105164143Y-89966253D01*
X105343748Y-90145858D01*
X105329605Y-90160000D01*
X106014072Y-90844467D01*
X106239691Y-90794726D01*
X106342582Y-90569942D01*
X106399642Y-90329404D01*
X106404530Y-90195800D01*
X106432851Y-90195800D01*
X106431320Y-90237645D01*
X106470653Y-90481709D01*
X106556844Y-90713410D01*
X106600309Y-90794726D01*
X106825928Y-90844467D01*
X107510395Y-90160000D01*
X107869605Y-90160000D01*
X108554072Y-90844467D01*
X108779691Y-90794726D01*
X108882582Y-90569942D01*
X108939642Y-90329404D01*
X108948680Y-90082355D01*
X108909347Y-89838291D01*
X108823156Y-89606590D01*
X108779691Y-89525274D01*
X108554072Y-89475533D01*
X107869605Y-90160000D01*
X107510395Y-90160000D01*
X107496253Y-90145858D01*
X107675858Y-89966253D01*
X107690000Y-89980395D01*
X108374467Y-89295928D01*
X108324726Y-89070309D01*
X108099942Y-88967418D01*
X107859404Y-88910358D01*
X107725800Y-88905470D01*
X107725800Y-88877149D01*
X107767645Y-88878680D01*
X108011709Y-88839347D01*
X108243410Y-88753156D01*
X108324726Y-88709691D01*
X108374467Y-88484072D01*
X107690000Y-87799605D01*
X107675858Y-87813748D01*
X107496253Y-87634143D01*
X107510395Y-87620000D01*
X107869605Y-87620000D01*
X108554072Y-88304467D01*
X108779691Y-88254726D01*
X108882582Y-88029942D01*
X108939642Y-87789404D01*
X108948680Y-87542355D01*
X108909347Y-87298291D01*
X108823156Y-87066590D01*
X108779691Y-86985274D01*
X108554072Y-86935533D01*
X107869605Y-87620000D01*
X107510395Y-87620000D01*
X106825928Y-86935533D01*
X106600309Y-86985274D01*
X106497418Y-87210058D01*
X106440358Y-87450596D01*
X106435470Y-87584200D01*
X106407149Y-87584200D01*
X106408680Y-87542355D01*
X106369347Y-87298291D01*
X106283156Y-87066590D01*
X106239691Y-86985274D01*
X106014072Y-86935533D01*
X105329605Y-87620000D01*
X105343748Y-87634143D01*
X105164143Y-87813748D01*
X105150000Y-87799605D01*
X104465533Y-88484072D01*
X100698500Y-88484072D01*
X100698500Y-87697645D01*
X103891320Y-87697645D01*
X103930653Y-87941709D01*
X104016844Y-88173410D01*
X104060309Y-88254726D01*
X104285928Y-88304467D01*
X104970395Y-87620000D01*
X104285928Y-86935533D01*
X104060309Y-86985274D01*
X103957418Y-87210058D01*
X103900358Y-87450596D01*
X103891320Y-87697645D01*
X100698500Y-87697645D01*
X100698500Y-86755928D01*
X104465533Y-86755928D01*
X105150000Y-87440395D01*
X105834467Y-86755928D01*
X107005533Y-86755928D01*
X107690000Y-87440395D01*
X108374467Y-86755928D01*
X108324726Y-86530309D01*
X108099942Y-86427418D01*
X107859404Y-86370358D01*
X107612355Y-86361320D01*
X107368291Y-86400653D01*
X107136590Y-86486844D01*
X107055274Y-86530309D01*
X107005533Y-86755928D01*
X105834467Y-86755928D01*
X105784726Y-86530309D01*
X105559942Y-86427418D01*
X105319404Y-86370358D01*
X105072355Y-86361320D01*
X104828291Y-86400653D01*
X104596590Y-86486844D01*
X104515274Y-86530309D01*
X104465533Y-86755928D01*
X100698500Y-86755928D01*
X100698500Y-83334531D01*
X116315074Y-83334531D01*
X116425921Y-83611714D01*
X116736840Y-83765089D01*
X117071705Y-83854860D01*
X117417650Y-83877576D01*
X117761380Y-83832366D01*
X118089685Y-83720966D01*
X118294079Y-83611714D01*
X118404926Y-83334531D01*
X121395074Y-83334531D01*
X121505921Y-83611714D01*
X121816840Y-83765089D01*
X122151705Y-83854860D01*
X122497650Y-83877576D01*
X122841380Y-83832366D01*
X123169685Y-83720966D01*
X123374079Y-83611714D01*
X123484926Y-83334531D01*
X122440000Y-82289605D01*
X121395074Y-83334531D01*
X118404926Y-83334531D01*
X117360000Y-82289605D01*
X116315074Y-83334531D01*
X100698500Y-83334531D01*
X100698500Y-82167650D01*
X115592424Y-82167650D01*
X115637634Y-82511380D01*
X115749034Y-82839685D01*
X115858286Y-83044079D01*
X116135469Y-83154926D01*
X117180395Y-82110000D01*
X117539605Y-82110000D01*
X118584531Y-83154926D01*
X118861714Y-83044079D01*
X119015089Y-82733160D01*
X119104860Y-82398295D01*
X119120004Y-82167650D01*
X120672424Y-82167650D01*
X120717634Y-82511380D01*
X120829034Y-82839685D01*
X120938286Y-83044079D01*
X121215469Y-83154926D01*
X122260395Y-82110000D01*
X122619605Y-82110000D01*
X123664531Y-83154926D01*
X123941714Y-83044079D01*
X124095089Y-82733160D01*
X124184860Y-82398295D01*
X124207576Y-82052350D01*
X124162366Y-81708620D01*
X124050966Y-81380315D01*
X123941714Y-81175921D01*
X123664531Y-81065074D01*
X122619605Y-82110000D01*
X122260395Y-82110000D01*
X121215469Y-81065074D01*
X120938286Y-81175921D01*
X120784911Y-81486840D01*
X120695140Y-81821705D01*
X120672424Y-82167650D01*
X119120004Y-82167650D01*
X119127576Y-82052350D01*
X119082366Y-81708620D01*
X118970966Y-81380315D01*
X118861714Y-81175921D01*
X118584531Y-81065074D01*
X117539605Y-82110000D01*
X117180395Y-82110000D01*
X116135469Y-81065074D01*
X115858286Y-81175921D01*
X115704911Y-81486840D01*
X115615140Y-81821705D01*
X115592424Y-82167650D01*
X100698500Y-82167650D01*
X100698500Y-80885469D01*
X116315074Y-80885469D01*
X117360000Y-81930395D01*
X118404926Y-80885469D01*
X118294079Y-80608286D01*
X117983160Y-80454911D01*
X117648295Y-80365140D01*
X117302350Y-80342424D01*
X116958620Y-80387634D01*
X116630315Y-80499034D01*
X116425921Y-80608286D01*
X116315074Y-80885469D01*
X100698500Y-80885469D01*
X100698500Y-78274868D01*
X101214200Y-78274868D01*
X101214200Y-78725132D01*
X101302042Y-79166743D01*
X101474350Y-79582732D01*
X101724503Y-79957113D01*
X102042887Y-80275497D01*
X102417268Y-80525650D01*
X102833257Y-80697958D01*
X103274868Y-80785800D01*
X103725132Y-80785800D01*
X104166743Y-80697958D01*
X104582732Y-80525650D01*
X104957113Y-80275497D01*
X105275497Y-79957113D01*
X105525650Y-79582732D01*
X105600718Y-79401501D01*
X118189200Y-79401501D01*
X118189200Y-79738499D01*
X118254945Y-80069022D01*
X118383909Y-80380368D01*
X118571135Y-80660572D01*
X118809428Y-80898865D01*
X119089632Y-81086091D01*
X119400978Y-81215055D01*
X119731501Y-81280800D01*
X120068499Y-81280800D01*
X120399022Y-81215055D01*
X120710368Y-81086091D01*
X120990572Y-80898865D01*
X121003968Y-80885469D01*
X121395074Y-80885469D01*
X122440000Y-81930395D01*
X123484926Y-80885469D01*
X123411312Y-80701390D01*
X131574200Y-80701390D01*
X131574200Y-80958610D01*
X131624381Y-81210888D01*
X131722815Y-81448528D01*
X131865719Y-81662399D01*
X132047601Y-81844281D01*
X132067200Y-81857377D01*
X132067201Y-82342623D01*
X132047601Y-82355719D01*
X131865719Y-82537601D01*
X131722815Y-82751472D01*
X131624381Y-82989112D01*
X131574200Y-83241390D01*
X131574200Y-83498610D01*
X131624381Y-83750888D01*
X131722815Y-83988528D01*
X131865719Y-84202399D01*
X132047601Y-84384281D01*
X132261472Y-84527185D01*
X132499112Y-84625619D01*
X132751390Y-84675800D01*
X133008610Y-84675800D01*
X133260888Y-84625619D01*
X133498528Y-84527185D01*
X133712399Y-84384281D01*
X133894281Y-84202399D01*
X133907377Y-84182800D01*
X134392623Y-84182800D01*
X134405719Y-84202399D01*
X134587601Y-84384281D01*
X134801472Y-84527185D01*
X135039112Y-84625619D01*
X135291390Y-84675800D01*
X135548610Y-84675800D01*
X135800888Y-84625619D01*
X136038528Y-84527185D01*
X136252399Y-84384281D01*
X136434281Y-84202399D01*
X136577185Y-83988528D01*
X136675619Y-83750888D01*
X136725800Y-83498610D01*
X136725800Y-83241390D01*
X136675619Y-82989112D01*
X136577185Y-82751472D01*
X136434281Y-82537601D01*
X136252399Y-82355719D01*
X136232800Y-82342623D01*
X136232800Y-81857377D01*
X136252399Y-81844281D01*
X136434281Y-81662399D01*
X136577185Y-81448528D01*
X136675619Y-81210888D01*
X136725800Y-80958610D01*
X136725800Y-80701390D01*
X136675619Y-80449112D01*
X136667620Y-80429800D01*
X141621095Y-80429800D01*
X141536422Y-80708931D01*
X141506769Y-81010000D01*
X141536422Y-81311069D01*
X141624240Y-81600569D01*
X141766850Y-81867373D01*
X141930300Y-82066537D01*
X141817147Y-82127019D01*
X141712720Y-82212720D01*
X141627019Y-82317147D01*
X141563338Y-82436286D01*
X141524123Y-82565560D01*
X141510882Y-82700000D01*
X141510882Y-84400000D01*
X141524123Y-84534440D01*
X141563338Y-84663714D01*
X141627019Y-84782853D01*
X141712720Y-84887280D01*
X141817147Y-84972981D01*
X141936286Y-85036662D01*
X142065560Y-85075877D01*
X142200000Y-85089118D01*
X143900000Y-85089118D01*
X144034440Y-85075877D01*
X144163714Y-85036662D01*
X144282853Y-84972981D01*
X144387280Y-84887280D01*
X144472981Y-84782853D01*
X144536662Y-84663714D01*
X144575877Y-84534440D01*
X144589118Y-84400000D01*
X144589118Y-84362800D01*
X145110882Y-84362800D01*
X145110882Y-84400000D01*
X145124123Y-84534440D01*
X145163338Y-84663714D01*
X145227019Y-84782853D01*
X145312720Y-84887280D01*
X145417147Y-84972981D01*
X145536286Y-85036662D01*
X145665560Y-85075877D01*
X145800000Y-85089118D01*
X147500000Y-85089118D01*
X147634440Y-85075877D01*
X147763714Y-85036662D01*
X147882853Y-84972981D01*
X147987280Y-84887280D01*
X148072981Y-84782853D01*
X148136662Y-84663714D01*
X148175877Y-84534440D01*
X148189118Y-84400000D01*
X148189118Y-82700000D01*
X148175877Y-82565560D01*
X148136662Y-82436286D01*
X148072981Y-82317147D01*
X147987280Y-82212720D01*
X147882853Y-82127019D01*
X147769700Y-82066537D01*
X147933150Y-81867373D01*
X148075760Y-81600569D01*
X148163578Y-81311069D01*
X148193231Y-81010000D01*
X148163578Y-80708931D01*
X148075760Y-80419431D01*
X147933150Y-80152627D01*
X147741229Y-79918771D01*
X147507373Y-79726850D01*
X147240569Y-79584240D01*
X146951069Y-79496422D01*
X146725447Y-79474200D01*
X146574553Y-79474200D01*
X146348931Y-79496422D01*
X146059431Y-79584240D01*
X145792627Y-79726850D01*
X145558771Y-79918771D01*
X145490742Y-80001664D01*
X144347191Y-78858115D01*
X144317754Y-78822246D01*
X144174651Y-78704804D01*
X144011386Y-78617537D01*
X143834233Y-78563798D01*
X143696167Y-78550200D01*
X143696157Y-78550200D01*
X143650000Y-78545654D01*
X143603843Y-78550200D01*
X135066157Y-78550200D01*
X135020000Y-78545654D01*
X134973843Y-78550200D01*
X134973833Y-78550200D01*
X134835767Y-78563798D01*
X134668843Y-78614434D01*
X134658614Y-78617537D01*
X134495348Y-78704804D01*
X134388106Y-78792816D01*
X134352246Y-78822246D01*
X134322817Y-78858105D01*
X133518114Y-79662809D01*
X133502604Y-79675539D01*
X133498528Y-79672815D01*
X133260888Y-79574381D01*
X133008610Y-79524200D01*
X132751390Y-79524200D01*
X132499112Y-79574381D01*
X132261472Y-79672815D01*
X132047601Y-79815719D01*
X131865719Y-79997601D01*
X131722815Y-80211472D01*
X131624381Y-80449112D01*
X131574200Y-80701390D01*
X123411312Y-80701390D01*
X123374079Y-80608286D01*
X123063160Y-80454911D01*
X122728295Y-80365140D01*
X122382350Y-80342424D01*
X122038620Y-80387634D01*
X121710315Y-80499034D01*
X121505921Y-80608286D01*
X121395074Y-80885469D01*
X121003968Y-80885469D01*
X121228865Y-80660572D01*
X121416091Y-80380368D01*
X121545055Y-80069022D01*
X121610800Y-79738499D01*
X121610800Y-79401501D01*
X121545055Y-79070978D01*
X121416091Y-78759632D01*
X121228865Y-78479428D01*
X121003968Y-78254531D01*
X121395074Y-78254531D01*
X121505921Y-78531714D01*
X121816840Y-78685089D01*
X122151705Y-78774860D01*
X122497650Y-78797576D01*
X122841380Y-78752366D01*
X123169685Y-78640966D01*
X123374079Y-78531714D01*
X123476793Y-78274868D01*
X150214200Y-78274868D01*
X150214200Y-78725132D01*
X150302042Y-79166743D01*
X150474350Y-79582732D01*
X150724503Y-79957113D01*
X151042887Y-80275497D01*
X151417268Y-80525650D01*
X151833257Y-80697958D01*
X152274868Y-80785800D01*
X152725132Y-80785800D01*
X153166743Y-80697958D01*
X153582732Y-80525650D01*
X153957113Y-80275497D01*
X154275497Y-79957113D01*
X154525650Y-79582732D01*
X154697958Y-79166743D01*
X154785800Y-78725132D01*
X154785800Y-78274868D01*
X154697958Y-77833257D01*
X154525650Y-77417268D01*
X154275497Y-77042887D01*
X153957113Y-76724503D01*
X153582732Y-76474350D01*
X153166743Y-76302042D01*
X152725132Y-76214200D01*
X152274868Y-76214200D01*
X151833257Y-76302042D01*
X151417268Y-76474350D01*
X151042887Y-76724503D01*
X150724503Y-77042887D01*
X150474350Y-77417268D01*
X150302042Y-77833257D01*
X150214200Y-78274868D01*
X123476793Y-78274868D01*
X123484926Y-78254531D01*
X122440000Y-77209605D01*
X121395074Y-78254531D01*
X121003968Y-78254531D01*
X120990572Y-78241135D01*
X120710368Y-78053909D01*
X120399022Y-77924945D01*
X120068499Y-77859200D01*
X119731501Y-77859200D01*
X119400978Y-77924945D01*
X119089632Y-78053909D01*
X118809428Y-78241135D01*
X118571135Y-78479428D01*
X118383909Y-78759632D01*
X118254945Y-79070978D01*
X118189200Y-79401501D01*
X105600718Y-79401501D01*
X105697958Y-79166743D01*
X105785800Y-78725132D01*
X105785800Y-78274868D01*
X105781755Y-78254531D01*
X116315074Y-78254531D01*
X116425921Y-78531714D01*
X116736840Y-78685089D01*
X117071705Y-78774860D01*
X117417650Y-78797576D01*
X117761380Y-78752366D01*
X118089685Y-78640966D01*
X118294079Y-78531714D01*
X118404926Y-78254531D01*
X117360000Y-77209605D01*
X116315074Y-78254531D01*
X105781755Y-78254531D01*
X105697958Y-77833257D01*
X105525650Y-77417268D01*
X105305407Y-77087650D01*
X115592424Y-77087650D01*
X115637634Y-77431380D01*
X115749034Y-77759685D01*
X115858286Y-77964079D01*
X116135469Y-78074926D01*
X117180395Y-77030000D01*
X117539605Y-77030000D01*
X118584531Y-78074926D01*
X118861714Y-77964079D01*
X119015089Y-77653160D01*
X119104860Y-77318295D01*
X119120004Y-77087650D01*
X120672424Y-77087650D01*
X120717634Y-77431380D01*
X120829034Y-77759685D01*
X120938286Y-77964079D01*
X121215469Y-78074926D01*
X122260395Y-77030000D01*
X122619605Y-77030000D01*
X123664531Y-78074926D01*
X123941714Y-77964079D01*
X124095089Y-77653160D01*
X124184860Y-77318295D01*
X124207576Y-76972350D01*
X124162366Y-76628620D01*
X124050966Y-76300315D01*
X123941714Y-76095921D01*
X123664531Y-75985074D01*
X122619605Y-77030000D01*
X122260395Y-77030000D01*
X121215469Y-75985074D01*
X120938286Y-76095921D01*
X120784911Y-76406840D01*
X120695140Y-76741705D01*
X120672424Y-77087650D01*
X119120004Y-77087650D01*
X119127576Y-76972350D01*
X119082366Y-76628620D01*
X118970966Y-76300315D01*
X118861714Y-76095921D01*
X118584531Y-75985074D01*
X117539605Y-77030000D01*
X117180395Y-77030000D01*
X116135469Y-75985074D01*
X115858286Y-76095921D01*
X115704911Y-76406840D01*
X115615140Y-76741705D01*
X115592424Y-77087650D01*
X105305407Y-77087650D01*
X105275497Y-77042887D01*
X104957113Y-76724503D01*
X104582732Y-76474350D01*
X104166743Y-76302042D01*
X103725132Y-76214200D01*
X103274868Y-76214200D01*
X102833257Y-76302042D01*
X102417268Y-76474350D01*
X102042887Y-76724503D01*
X101724503Y-77042887D01*
X101474350Y-77417268D01*
X101302042Y-77833257D01*
X101214200Y-78274868D01*
X100698500Y-78274868D01*
X100698500Y-78034160D01*
X100745618Y-77553622D01*
X100875256Y-77124239D01*
X101085821Y-76728223D01*
X101369302Y-76380642D01*
X101714889Y-76094748D01*
X102109430Y-75881421D01*
X102537892Y-75748789D01*
X103016362Y-75698500D01*
X116357851Y-75698500D01*
X116315074Y-75805469D01*
G04 #@! TD*
M02*
