G04 #@! TF.GenerationSoftware,KiCad,Pcbnew,5.0.1-33cea8e~68~ubuntu18.04.1*
G04 #@! TF.CreationDate,2018-11-04T18:35:11+03:00*
G04 #@! TF.ProjectId,AA-PI-Radio-Board,41412D50492D526164696F2D426F6172,rev?*
G04 #@! TF.SameCoordinates,Original*
G04 #@! TF.FileFunction,Soldermask,Bot*
G04 #@! TF.FilePolarity,Negative*
%FSLAX46Y46*%
G04 Gerber Fmt 4.6, Leading zero omitted, Abs format (unit mm)*
G04 Created by KiCad (PCBNEW 5.0.1-33cea8e~68~ubuntu18.04.1) date Sun 04 Nov 2018 18:35:11 MSK*
%MOMM*%
%LPD*%
G01*
G04 APERTURE LIST*
%ADD10C,0.100000*%
G04 APERTURE END LIST*
D10*
G36*
X152742323Y-134865060D02*
X152981521Y-134912639D01*
X153281947Y-135037080D01*
X153552324Y-135217740D01*
X153782260Y-135447676D01*
X153962920Y-135718053D01*
X154087361Y-136018479D01*
X154150800Y-136337410D01*
X154150800Y-136662590D01*
X154087361Y-136981521D01*
X153962920Y-137281947D01*
X153782260Y-137552324D01*
X153552324Y-137782260D01*
X153281947Y-137962920D01*
X152981521Y-138087361D01*
X152742323Y-138134940D01*
X152662591Y-138150800D01*
X152337409Y-138150800D01*
X152257677Y-138134940D01*
X152018479Y-138087361D01*
X151718053Y-137962920D01*
X151447676Y-137782260D01*
X151217740Y-137552324D01*
X151037080Y-137281947D01*
X150912639Y-136981521D01*
X150849200Y-136662590D01*
X150849200Y-136337410D01*
X150912639Y-136018479D01*
X151037080Y-135718053D01*
X151217740Y-135447676D01*
X151447676Y-135217740D01*
X151718053Y-135037080D01*
X152018479Y-134912639D01*
X152257677Y-134865060D01*
X152337409Y-134849200D01*
X152662591Y-134849200D01*
X152742323Y-134865060D01*
X152742323Y-134865060D01*
G37*
G36*
X103742323Y-134865060D02*
X103981521Y-134912639D01*
X104281947Y-135037080D01*
X104552324Y-135217740D01*
X104782260Y-135447676D01*
X104962920Y-135718053D01*
X105087361Y-136018479D01*
X105150800Y-136337410D01*
X105150800Y-136662590D01*
X105087361Y-136981521D01*
X104962920Y-137281947D01*
X104782260Y-137552324D01*
X104552324Y-137782260D01*
X104281947Y-137962920D01*
X103981521Y-138087361D01*
X103742323Y-138134940D01*
X103662591Y-138150800D01*
X103337409Y-138150800D01*
X103257677Y-138134940D01*
X103018479Y-138087361D01*
X102718053Y-137962920D01*
X102447676Y-137782260D01*
X102217740Y-137552324D01*
X102037080Y-137281947D01*
X101912639Y-136981521D01*
X101849200Y-136662590D01*
X101849200Y-136337410D01*
X101912639Y-136018479D01*
X102037080Y-135718053D01*
X102217740Y-135447676D01*
X102447676Y-135217740D01*
X102718053Y-135037080D01*
X103018479Y-134912639D01*
X103257677Y-134865060D01*
X103337409Y-134849200D01*
X103662591Y-134849200D01*
X103742323Y-134865060D01*
X103742323Y-134865060D01*
G37*
G36*
X129600800Y-128000800D02*
X127799200Y-128000800D01*
X127799200Y-126199200D01*
X129600800Y-126199200D01*
X129600800Y-128000800D01*
X129600800Y-128000800D01*
G37*
G36*
X133868362Y-126203545D02*
X133956588Y-126212234D01*
X134069789Y-126246573D01*
X134126390Y-126263743D01*
X134264980Y-126337822D01*
X134282879Y-126347389D01*
X134318609Y-126376712D01*
X134420044Y-126459956D01*
X134503288Y-126561391D01*
X134532611Y-126597121D01*
X134532612Y-126597123D01*
X134616257Y-126753610D01*
X134616257Y-126753611D01*
X134667766Y-126923412D01*
X134685158Y-127100000D01*
X134667766Y-127276588D01*
X134633427Y-127389789D01*
X134616257Y-127446390D01*
X134542178Y-127584980D01*
X134532611Y-127602879D01*
X134503288Y-127638609D01*
X134420044Y-127740044D01*
X134318609Y-127823288D01*
X134282879Y-127852611D01*
X134282877Y-127852612D01*
X134126390Y-127936257D01*
X134069789Y-127953427D01*
X133956588Y-127987766D01*
X133868362Y-127996455D01*
X133824250Y-128000800D01*
X133735750Y-128000800D01*
X133691638Y-127996455D01*
X133603412Y-127987766D01*
X133490211Y-127953427D01*
X133433610Y-127936257D01*
X133277123Y-127852612D01*
X133277121Y-127852611D01*
X133241391Y-127823288D01*
X133139956Y-127740044D01*
X133056712Y-127638609D01*
X133027389Y-127602879D01*
X133017822Y-127584980D01*
X132943743Y-127446390D01*
X132926573Y-127389789D01*
X132892234Y-127276588D01*
X132874842Y-127100000D01*
X132892234Y-126923412D01*
X132943743Y-126753611D01*
X132943743Y-126753610D01*
X133027388Y-126597123D01*
X133027389Y-126597121D01*
X133056712Y-126561391D01*
X133139956Y-126459956D01*
X133241391Y-126376712D01*
X133277121Y-126347389D01*
X133295020Y-126337822D01*
X133433610Y-126263743D01*
X133490211Y-126246573D01*
X133603412Y-126212234D01*
X133691638Y-126203545D01*
X133735750Y-126199200D01*
X133824250Y-126199200D01*
X133868362Y-126203545D01*
X133868362Y-126203545D01*
G37*
G36*
X131328362Y-126203545D02*
X131416588Y-126212234D01*
X131529789Y-126246573D01*
X131586390Y-126263743D01*
X131724980Y-126337822D01*
X131742879Y-126347389D01*
X131778609Y-126376712D01*
X131880044Y-126459956D01*
X131963288Y-126561391D01*
X131992611Y-126597121D01*
X131992612Y-126597123D01*
X132076257Y-126753610D01*
X132076257Y-126753611D01*
X132127766Y-126923412D01*
X132145158Y-127100000D01*
X132127766Y-127276588D01*
X132093427Y-127389789D01*
X132076257Y-127446390D01*
X132002178Y-127584980D01*
X131992611Y-127602879D01*
X131963288Y-127638609D01*
X131880044Y-127740044D01*
X131778609Y-127823288D01*
X131742879Y-127852611D01*
X131742877Y-127852612D01*
X131586390Y-127936257D01*
X131529789Y-127953427D01*
X131416588Y-127987766D01*
X131328362Y-127996455D01*
X131284250Y-128000800D01*
X131195750Y-128000800D01*
X131151638Y-127996455D01*
X131063412Y-127987766D01*
X130950211Y-127953427D01*
X130893610Y-127936257D01*
X130737123Y-127852612D01*
X130737121Y-127852611D01*
X130701391Y-127823288D01*
X130599956Y-127740044D01*
X130516712Y-127638609D01*
X130487389Y-127602879D01*
X130477822Y-127584980D01*
X130403743Y-127446390D01*
X130386573Y-127389789D01*
X130352234Y-127276588D01*
X130334842Y-127100000D01*
X130352234Y-126923412D01*
X130403743Y-126753611D01*
X130403743Y-126753610D01*
X130487388Y-126597123D01*
X130487389Y-126597121D01*
X130516712Y-126561391D01*
X130599956Y-126459956D01*
X130701391Y-126376712D01*
X130737121Y-126347389D01*
X130755020Y-126337822D01*
X130893610Y-126263743D01*
X130950211Y-126246573D01*
X131063412Y-126212234D01*
X131151638Y-126203545D01*
X131195750Y-126199200D01*
X131284250Y-126199200D01*
X131328362Y-126203545D01*
X131328362Y-126203545D01*
G37*
G36*
X107842466Y-89506385D02*
X107885665Y-89514978D01*
X107996290Y-89560800D01*
X108007743Y-89565544D01*
X108117613Y-89638957D01*
X108211043Y-89732387D01*
X108284456Y-89842257D01*
X108335022Y-89964336D01*
X108360800Y-90093930D01*
X108360800Y-90226070D01*
X108335022Y-90355664D01*
X108284456Y-90477743D01*
X108211043Y-90587613D01*
X108117613Y-90681043D01*
X108117610Y-90681045D01*
X108007743Y-90754456D01*
X107885665Y-90805022D01*
X107842466Y-90813615D01*
X107756070Y-90830800D01*
X107623930Y-90830800D01*
X107537534Y-90813615D01*
X107494335Y-90805022D01*
X107372257Y-90754456D01*
X107262390Y-90681045D01*
X107262387Y-90681043D01*
X107168957Y-90587613D01*
X107095544Y-90477743D01*
X107044978Y-90355664D01*
X107019200Y-90226070D01*
X107019200Y-90093930D01*
X107044978Y-89964336D01*
X107095544Y-89842257D01*
X107168957Y-89732387D01*
X107262387Y-89638957D01*
X107372257Y-89565544D01*
X107383710Y-89560800D01*
X107494335Y-89514978D01*
X107537534Y-89506385D01*
X107623930Y-89489200D01*
X107756070Y-89489200D01*
X107842466Y-89506385D01*
X107842466Y-89506385D01*
G37*
G36*
X105302466Y-89506385D02*
X105345665Y-89514978D01*
X105456290Y-89560800D01*
X105467743Y-89565544D01*
X105577613Y-89638957D01*
X105671043Y-89732387D01*
X105744456Y-89842257D01*
X105795022Y-89964336D01*
X105820800Y-90093930D01*
X105820800Y-90226070D01*
X105795022Y-90355664D01*
X105744456Y-90477743D01*
X105671043Y-90587613D01*
X105577613Y-90681043D01*
X105577610Y-90681045D01*
X105467743Y-90754456D01*
X105345665Y-90805022D01*
X105302466Y-90813615D01*
X105216070Y-90830800D01*
X105083930Y-90830800D01*
X104997534Y-90813615D01*
X104954335Y-90805022D01*
X104832257Y-90754456D01*
X104722390Y-90681045D01*
X104722387Y-90681043D01*
X104628957Y-90587613D01*
X104555544Y-90477743D01*
X104504978Y-90355664D01*
X104479200Y-90226070D01*
X104479200Y-90093930D01*
X104504978Y-89964336D01*
X104555544Y-89842257D01*
X104628957Y-89732387D01*
X104722387Y-89638957D01*
X104832257Y-89565544D01*
X104843710Y-89560800D01*
X104954335Y-89514978D01*
X104997534Y-89506385D01*
X105083930Y-89489200D01*
X105216070Y-89489200D01*
X105302466Y-89506385D01*
X105302466Y-89506385D01*
G37*
G36*
X106572466Y-88236385D02*
X106615665Y-88244978D01*
X106726290Y-88290800D01*
X106737743Y-88295544D01*
X106847613Y-88368957D01*
X106941043Y-88462387D01*
X107014456Y-88572257D01*
X107065022Y-88694336D01*
X107090800Y-88823930D01*
X107090800Y-88956070D01*
X107065022Y-89085664D01*
X107014456Y-89207743D01*
X106941043Y-89317613D01*
X106847613Y-89411043D01*
X106847610Y-89411045D01*
X106737743Y-89484456D01*
X106615665Y-89535022D01*
X106572466Y-89543615D01*
X106486070Y-89560800D01*
X106353930Y-89560800D01*
X106267534Y-89543615D01*
X106224335Y-89535022D01*
X106102257Y-89484456D01*
X105992390Y-89411045D01*
X105992387Y-89411043D01*
X105898957Y-89317613D01*
X105825544Y-89207743D01*
X105774978Y-89085664D01*
X105749200Y-88956070D01*
X105749200Y-88823930D01*
X105774978Y-88694336D01*
X105825544Y-88572257D01*
X105898957Y-88462387D01*
X105992387Y-88368957D01*
X106102257Y-88295544D01*
X106113710Y-88290800D01*
X106224335Y-88244978D01*
X106267534Y-88236385D01*
X106353930Y-88219200D01*
X106486070Y-88219200D01*
X106572466Y-88236385D01*
X106572466Y-88236385D01*
G37*
G36*
X107842466Y-86966385D02*
X107885665Y-86974978D01*
X108007743Y-87025544D01*
X108117613Y-87098957D01*
X108211043Y-87192387D01*
X108284456Y-87302257D01*
X108335022Y-87424336D01*
X108360800Y-87553930D01*
X108360800Y-87686070D01*
X108335022Y-87815664D01*
X108284456Y-87937743D01*
X108211043Y-88047613D01*
X108117613Y-88141043D01*
X108117610Y-88141045D01*
X108007743Y-88214456D01*
X107885665Y-88265022D01*
X107842466Y-88273615D01*
X107756070Y-88290800D01*
X107623930Y-88290800D01*
X107537534Y-88273615D01*
X107494335Y-88265022D01*
X107372257Y-88214456D01*
X107262390Y-88141045D01*
X107262387Y-88141043D01*
X107168957Y-88047613D01*
X107095544Y-87937743D01*
X107044978Y-87815664D01*
X107019200Y-87686070D01*
X107019200Y-87553930D01*
X107044978Y-87424336D01*
X107095544Y-87302257D01*
X107168957Y-87192387D01*
X107262387Y-87098957D01*
X107372257Y-87025544D01*
X107494335Y-86974978D01*
X107537534Y-86966385D01*
X107623930Y-86949200D01*
X107756070Y-86949200D01*
X107842466Y-86966385D01*
X107842466Y-86966385D01*
G37*
G36*
X105302466Y-86966385D02*
X105345665Y-86974978D01*
X105467743Y-87025544D01*
X105577613Y-87098957D01*
X105671043Y-87192387D01*
X105744456Y-87302257D01*
X105795022Y-87424336D01*
X105820800Y-87553930D01*
X105820800Y-87686070D01*
X105795022Y-87815664D01*
X105744456Y-87937743D01*
X105671043Y-88047613D01*
X105577613Y-88141043D01*
X105577610Y-88141045D01*
X105467743Y-88214456D01*
X105345665Y-88265022D01*
X105302466Y-88273615D01*
X105216070Y-88290800D01*
X105083930Y-88290800D01*
X104997534Y-88273615D01*
X104954335Y-88265022D01*
X104832257Y-88214456D01*
X104722390Y-88141045D01*
X104722387Y-88141043D01*
X104628957Y-88047613D01*
X104555544Y-87937743D01*
X104504978Y-87815664D01*
X104479200Y-87686070D01*
X104479200Y-87553930D01*
X104504978Y-87424336D01*
X104555544Y-87302257D01*
X104628957Y-87192387D01*
X104722387Y-87098957D01*
X104832257Y-87025544D01*
X104954335Y-86974978D01*
X104997534Y-86966385D01*
X105083930Y-86949200D01*
X105216070Y-86949200D01*
X105302466Y-86966385D01*
X105302466Y-86966385D01*
G37*
G36*
X147550800Y-84450800D02*
X145749200Y-84450800D01*
X145749200Y-82649200D01*
X147550800Y-82649200D01*
X147550800Y-84450800D01*
X147550800Y-84450800D01*
G37*
G36*
X143950800Y-84450800D02*
X142149200Y-84450800D01*
X142149200Y-82649200D01*
X143950800Y-82649200D01*
X143950800Y-84450800D01*
X143950800Y-84450800D01*
G37*
G36*
X133032466Y-82716385D02*
X133075665Y-82724978D01*
X133186290Y-82770800D01*
X133197743Y-82775544D01*
X133307613Y-82848957D01*
X133401043Y-82942387D01*
X133401045Y-82942390D01*
X133474456Y-83052257D01*
X133515763Y-83151981D01*
X133525022Y-83174336D01*
X133550800Y-83303930D01*
X133550800Y-83436070D01*
X133525022Y-83565664D01*
X133474456Y-83687743D01*
X133401043Y-83797613D01*
X133307613Y-83891043D01*
X133307610Y-83891045D01*
X133197743Y-83964456D01*
X133075665Y-84015022D01*
X133032466Y-84023615D01*
X132946070Y-84040800D01*
X132813930Y-84040800D01*
X132727534Y-84023615D01*
X132684335Y-84015022D01*
X132562257Y-83964456D01*
X132452390Y-83891045D01*
X132452387Y-83891043D01*
X132358957Y-83797613D01*
X132285544Y-83687743D01*
X132234978Y-83565664D01*
X132209200Y-83436070D01*
X132209200Y-83303930D01*
X132234978Y-83174336D01*
X132244238Y-83151981D01*
X132285544Y-83052257D01*
X132358955Y-82942390D01*
X132358957Y-82942387D01*
X132452387Y-82848957D01*
X132562257Y-82775544D01*
X132573710Y-82770800D01*
X132684335Y-82724978D01*
X132727534Y-82716385D01*
X132813930Y-82699200D01*
X132946070Y-82699200D01*
X133032466Y-82716385D01*
X133032466Y-82716385D01*
G37*
G36*
X135572466Y-82716385D02*
X135615665Y-82724978D01*
X135726290Y-82770800D01*
X135737743Y-82775544D01*
X135847613Y-82848957D01*
X135941043Y-82942387D01*
X135941045Y-82942390D01*
X136014456Y-83052257D01*
X136055763Y-83151981D01*
X136065022Y-83174336D01*
X136090800Y-83303930D01*
X136090800Y-83436070D01*
X136065022Y-83565664D01*
X136014456Y-83687743D01*
X135941043Y-83797613D01*
X135847613Y-83891043D01*
X135847610Y-83891045D01*
X135737743Y-83964456D01*
X135615665Y-84015022D01*
X135572466Y-84023615D01*
X135486070Y-84040800D01*
X135353930Y-84040800D01*
X135267534Y-84023615D01*
X135224335Y-84015022D01*
X135102257Y-83964456D01*
X134992390Y-83891045D01*
X134992387Y-83891043D01*
X134898957Y-83797613D01*
X134825544Y-83687743D01*
X134774978Y-83565664D01*
X134749200Y-83436070D01*
X134749200Y-83303930D01*
X134774978Y-83174336D01*
X134784238Y-83151981D01*
X134825544Y-83052257D01*
X134898955Y-82942390D01*
X134898957Y-82942387D01*
X134992387Y-82848957D01*
X135102257Y-82775544D01*
X135113710Y-82770800D01*
X135224335Y-82724978D01*
X135267534Y-82716385D01*
X135353930Y-82699200D01*
X135486070Y-82699200D01*
X135572466Y-82716385D01*
X135572466Y-82716385D01*
G37*
G36*
X122782967Y-80979385D02*
X122996949Y-81068019D01*
X123189532Y-81196699D01*
X123353301Y-81360468D01*
X123481981Y-81553051D01*
X123570615Y-81767033D01*
X123615800Y-81994192D01*
X123615800Y-82225808D01*
X123570615Y-82452967D01*
X123481981Y-82666949D01*
X123353301Y-82859532D01*
X123189532Y-83023301D01*
X122996949Y-83151981D01*
X122782967Y-83240615D01*
X122555808Y-83285800D01*
X122324192Y-83285800D01*
X122097033Y-83240615D01*
X121883051Y-83151981D01*
X121690468Y-83023301D01*
X121526699Y-82859532D01*
X121398019Y-82666949D01*
X121309385Y-82452967D01*
X121264200Y-82225808D01*
X121264200Y-81994192D01*
X121309385Y-81767033D01*
X121398019Y-81553051D01*
X121526699Y-81360468D01*
X121690468Y-81196699D01*
X121883051Y-81068019D01*
X122097033Y-80979385D01*
X122324192Y-80934200D01*
X122555808Y-80934200D01*
X122782967Y-80979385D01*
X122782967Y-80979385D01*
G37*
G36*
X117702967Y-80979385D02*
X117916949Y-81068019D01*
X118109532Y-81196699D01*
X118273301Y-81360468D01*
X118401981Y-81553051D01*
X118490615Y-81767033D01*
X118535800Y-81994192D01*
X118535800Y-82225808D01*
X118490615Y-82452967D01*
X118401981Y-82666949D01*
X118273301Y-82859532D01*
X118109532Y-83023301D01*
X117916949Y-83151981D01*
X117702967Y-83240615D01*
X117475808Y-83285800D01*
X117244192Y-83285800D01*
X117017033Y-83240615D01*
X116803051Y-83151981D01*
X116610468Y-83023301D01*
X116446699Y-82859532D01*
X116318019Y-82666949D01*
X116229385Y-82452967D01*
X116184200Y-82225808D01*
X116184200Y-81994192D01*
X116229385Y-81767033D01*
X116318019Y-81553051D01*
X116446699Y-81360468D01*
X116610468Y-81196699D01*
X116803051Y-81068019D01*
X117017033Y-80979385D01*
X117244192Y-80934200D01*
X117475808Y-80934200D01*
X117702967Y-80979385D01*
X117702967Y-80979385D01*
G37*
G36*
X134302466Y-81446385D02*
X134345665Y-81454978D01*
X134456290Y-81500800D01*
X134467743Y-81505544D01*
X134577613Y-81578957D01*
X134671043Y-81672387D01*
X134744456Y-81782257D01*
X134795022Y-81904336D01*
X134820800Y-82033930D01*
X134820800Y-82166070D01*
X134795022Y-82295664D01*
X134744456Y-82417743D01*
X134671043Y-82527613D01*
X134577613Y-82621043D01*
X134577610Y-82621045D01*
X134467743Y-82694456D01*
X134345665Y-82745022D01*
X134302466Y-82753615D01*
X134216070Y-82770800D01*
X134083930Y-82770800D01*
X133997534Y-82753615D01*
X133954335Y-82745022D01*
X133832257Y-82694456D01*
X133722390Y-82621045D01*
X133722387Y-82621043D01*
X133628957Y-82527613D01*
X133555544Y-82417743D01*
X133504978Y-82295664D01*
X133479200Y-82166070D01*
X133479200Y-82033930D01*
X133504978Y-81904336D01*
X133555544Y-81782257D01*
X133628957Y-81672387D01*
X133722387Y-81578957D01*
X133832257Y-81505544D01*
X133843710Y-81500800D01*
X133954335Y-81454978D01*
X133997534Y-81446385D01*
X134083930Y-81429200D01*
X134216070Y-81429200D01*
X134302466Y-81446385D01*
X134302466Y-81446385D01*
G37*
G36*
X143138362Y-80113545D02*
X143226588Y-80122234D01*
X143339789Y-80156573D01*
X143396390Y-80173743D01*
X143512010Y-80235544D01*
X143552879Y-80257389D01*
X143588609Y-80286712D01*
X143690044Y-80369956D01*
X143773288Y-80471391D01*
X143802611Y-80507121D01*
X143802612Y-80507123D01*
X143886257Y-80663610D01*
X143886257Y-80663611D01*
X143937766Y-80833412D01*
X143955158Y-81010000D01*
X143937766Y-81186588D01*
X143903427Y-81299789D01*
X143886257Y-81356390D01*
X143847339Y-81429200D01*
X143802611Y-81512879D01*
X143773288Y-81548609D01*
X143690044Y-81650044D01*
X143588609Y-81733288D01*
X143552879Y-81762611D01*
X143552877Y-81762612D01*
X143396390Y-81846257D01*
X143339789Y-81863427D01*
X143226588Y-81897766D01*
X143159880Y-81904336D01*
X143094250Y-81910800D01*
X143005750Y-81910800D01*
X142940120Y-81904336D01*
X142873412Y-81897766D01*
X142760211Y-81863427D01*
X142703610Y-81846257D01*
X142547123Y-81762612D01*
X142547121Y-81762611D01*
X142511391Y-81733288D01*
X142409956Y-81650044D01*
X142326712Y-81548609D01*
X142297389Y-81512879D01*
X142252661Y-81429200D01*
X142213743Y-81356390D01*
X142196573Y-81299789D01*
X142162234Y-81186588D01*
X142144842Y-81010000D01*
X142162234Y-80833412D01*
X142213743Y-80663611D01*
X142213743Y-80663610D01*
X142297388Y-80507123D01*
X142297389Y-80507121D01*
X142326712Y-80471391D01*
X142409956Y-80369956D01*
X142511391Y-80286712D01*
X142547121Y-80257389D01*
X142587990Y-80235544D01*
X142703610Y-80173743D01*
X142760211Y-80156573D01*
X142873412Y-80122234D01*
X142961638Y-80113545D01*
X143005750Y-80109200D01*
X143094250Y-80109200D01*
X143138362Y-80113545D01*
X143138362Y-80113545D01*
G37*
G36*
X146738362Y-80113545D02*
X146826588Y-80122234D01*
X146939789Y-80156573D01*
X146996390Y-80173743D01*
X147112010Y-80235544D01*
X147152879Y-80257389D01*
X147188609Y-80286712D01*
X147290044Y-80369956D01*
X147373288Y-80471391D01*
X147402611Y-80507121D01*
X147402612Y-80507123D01*
X147486257Y-80663610D01*
X147486257Y-80663611D01*
X147537766Y-80833412D01*
X147555158Y-81010000D01*
X147537766Y-81186588D01*
X147503427Y-81299789D01*
X147486257Y-81356390D01*
X147447339Y-81429200D01*
X147402611Y-81512879D01*
X147373288Y-81548609D01*
X147290044Y-81650044D01*
X147188609Y-81733288D01*
X147152879Y-81762611D01*
X147152877Y-81762612D01*
X146996390Y-81846257D01*
X146939789Y-81863427D01*
X146826588Y-81897766D01*
X146759880Y-81904336D01*
X146694250Y-81910800D01*
X146605750Y-81910800D01*
X146540120Y-81904336D01*
X146473412Y-81897766D01*
X146360211Y-81863427D01*
X146303610Y-81846257D01*
X146147123Y-81762612D01*
X146147121Y-81762611D01*
X146111391Y-81733288D01*
X146009956Y-81650044D01*
X145926712Y-81548609D01*
X145897389Y-81512879D01*
X145852661Y-81429200D01*
X145813743Y-81356390D01*
X145796573Y-81299789D01*
X145762234Y-81186588D01*
X145744842Y-81010000D01*
X145762234Y-80833412D01*
X145813743Y-80663611D01*
X145813743Y-80663610D01*
X145897388Y-80507123D01*
X145897389Y-80507121D01*
X145926712Y-80471391D01*
X146009956Y-80369956D01*
X146111391Y-80286712D01*
X146147121Y-80257389D01*
X146187990Y-80235544D01*
X146303610Y-80173743D01*
X146360211Y-80156573D01*
X146473412Y-80122234D01*
X146561638Y-80113545D01*
X146605750Y-80109200D01*
X146694250Y-80109200D01*
X146738362Y-80113545D01*
X146738362Y-80113545D01*
G37*
G36*
X135559182Y-80173743D02*
X135615665Y-80184978D01*
X135737743Y-80235544D01*
X135847613Y-80308957D01*
X135941043Y-80402387D01*
X135941045Y-80402390D01*
X136014456Y-80512257D01*
X136065022Y-80634335D01*
X136090800Y-80763932D01*
X136090800Y-80896068D01*
X136065022Y-81025665D01*
X136047478Y-81068020D01*
X136014456Y-81147743D01*
X135941043Y-81257613D01*
X135847613Y-81351043D01*
X135847610Y-81351045D01*
X135737743Y-81424456D01*
X135615665Y-81475022D01*
X135572466Y-81483615D01*
X135486070Y-81500800D01*
X135353930Y-81500800D01*
X135267534Y-81483615D01*
X135224335Y-81475022D01*
X135102257Y-81424456D01*
X134992390Y-81351045D01*
X134992387Y-81351043D01*
X134898957Y-81257613D01*
X134825544Y-81147743D01*
X134792522Y-81068020D01*
X134774978Y-81025665D01*
X134749200Y-80896068D01*
X134749200Y-80763932D01*
X134774978Y-80634335D01*
X134825544Y-80512257D01*
X134898955Y-80402390D01*
X134898957Y-80402387D01*
X134992387Y-80308957D01*
X135102257Y-80235544D01*
X135224335Y-80184978D01*
X135280818Y-80173743D01*
X135353930Y-80159200D01*
X135486070Y-80159200D01*
X135559182Y-80173743D01*
X135559182Y-80173743D01*
G37*
G36*
X133019182Y-80173743D02*
X133075665Y-80184978D01*
X133197743Y-80235544D01*
X133307613Y-80308957D01*
X133401043Y-80402387D01*
X133401045Y-80402390D01*
X133474456Y-80512257D01*
X133525022Y-80634335D01*
X133550800Y-80763932D01*
X133550800Y-80896068D01*
X133525022Y-81025665D01*
X133507478Y-81068020D01*
X133474456Y-81147743D01*
X133401043Y-81257613D01*
X133307613Y-81351043D01*
X133307610Y-81351045D01*
X133197743Y-81424456D01*
X133075665Y-81475022D01*
X133032466Y-81483615D01*
X132946070Y-81500800D01*
X132813930Y-81500800D01*
X132727534Y-81483615D01*
X132684335Y-81475022D01*
X132562257Y-81424456D01*
X132452390Y-81351045D01*
X132452387Y-81351043D01*
X132358957Y-81257613D01*
X132285544Y-81147743D01*
X132252522Y-81068020D01*
X132234978Y-81025665D01*
X132209200Y-80896068D01*
X132209200Y-80763932D01*
X132234978Y-80634335D01*
X132285544Y-80512257D01*
X132358955Y-80402390D01*
X132358957Y-80402387D01*
X132452387Y-80308957D01*
X132562257Y-80235544D01*
X132684335Y-80184978D01*
X132740818Y-80173743D01*
X132813930Y-80159200D01*
X132946070Y-80159200D01*
X133019182Y-80173743D01*
X133019182Y-80173743D01*
G37*
G36*
X120213798Y-78535542D02*
X120409581Y-78616638D01*
X120585785Y-78734374D01*
X120735626Y-78884215D01*
X120853362Y-79060419D01*
X120934458Y-79256202D01*
X120975800Y-79464042D01*
X120975800Y-79675958D01*
X120934458Y-79883798D01*
X120853362Y-80079581D01*
X120735626Y-80255785D01*
X120585785Y-80405626D01*
X120409581Y-80523362D01*
X120213798Y-80604458D01*
X120005958Y-80645800D01*
X119794042Y-80645800D01*
X119586202Y-80604458D01*
X119390419Y-80523362D01*
X119214215Y-80405626D01*
X119064374Y-80255785D01*
X118946638Y-80079581D01*
X118865542Y-79883798D01*
X118824200Y-79675958D01*
X118824200Y-79464042D01*
X118865542Y-79256202D01*
X118946638Y-79060419D01*
X119064374Y-78884215D01*
X119214215Y-78734374D01*
X119390419Y-78616638D01*
X119586202Y-78535542D01*
X119794042Y-78494200D01*
X120005958Y-78494200D01*
X120213798Y-78535542D01*
X120213798Y-78535542D01*
G37*
G36*
X103742323Y-76865060D02*
X103981521Y-76912639D01*
X104281947Y-77037080D01*
X104552324Y-77217740D01*
X104782260Y-77447676D01*
X104962920Y-77718053D01*
X105087361Y-78018479D01*
X105150800Y-78337410D01*
X105150800Y-78662590D01*
X105087361Y-78981521D01*
X104962920Y-79281947D01*
X104782260Y-79552324D01*
X104552324Y-79782260D01*
X104281947Y-79962920D01*
X103981521Y-80087361D01*
X103742323Y-80134940D01*
X103662591Y-80150800D01*
X103337409Y-80150800D01*
X103257677Y-80134940D01*
X103018479Y-80087361D01*
X102718053Y-79962920D01*
X102447676Y-79782260D01*
X102217740Y-79552324D01*
X102037080Y-79281947D01*
X101912639Y-78981521D01*
X101849200Y-78662590D01*
X101849200Y-78337410D01*
X101912639Y-78018479D01*
X102037080Y-77718053D01*
X102217740Y-77447676D01*
X102447676Y-77217740D01*
X102718053Y-77037080D01*
X103018479Y-76912639D01*
X103257677Y-76865060D01*
X103337409Y-76849200D01*
X103662591Y-76849200D01*
X103742323Y-76865060D01*
X103742323Y-76865060D01*
G37*
G36*
X152742323Y-76865060D02*
X152981521Y-76912639D01*
X153281947Y-77037080D01*
X153552324Y-77217740D01*
X153782260Y-77447676D01*
X153962920Y-77718053D01*
X154087361Y-78018479D01*
X154150800Y-78337410D01*
X154150800Y-78662590D01*
X154087361Y-78981521D01*
X153962920Y-79281947D01*
X153782260Y-79552324D01*
X153552324Y-79782260D01*
X153281947Y-79962920D01*
X152981521Y-80087361D01*
X152742323Y-80134940D01*
X152662591Y-80150800D01*
X152337409Y-80150800D01*
X152257677Y-80134940D01*
X152018479Y-80087361D01*
X151718053Y-79962920D01*
X151447676Y-79782260D01*
X151217740Y-79552324D01*
X151037080Y-79281947D01*
X150912639Y-78981521D01*
X150849200Y-78662590D01*
X150849200Y-78337410D01*
X150912639Y-78018479D01*
X151037080Y-77718053D01*
X151217740Y-77447676D01*
X151447676Y-77217740D01*
X151718053Y-77037080D01*
X152018479Y-76912639D01*
X152257677Y-76865060D01*
X152337409Y-76849200D01*
X152662591Y-76849200D01*
X152742323Y-76865060D01*
X152742323Y-76865060D01*
G37*
G36*
X117702967Y-75899385D02*
X117916949Y-75988019D01*
X118109532Y-76116699D01*
X118273301Y-76280468D01*
X118401981Y-76473051D01*
X118490615Y-76687033D01*
X118535800Y-76914192D01*
X118535800Y-77145808D01*
X118490615Y-77372967D01*
X118401981Y-77586949D01*
X118273301Y-77779532D01*
X118109532Y-77943301D01*
X117916949Y-78071981D01*
X117702967Y-78160615D01*
X117475808Y-78205800D01*
X117244192Y-78205800D01*
X117017033Y-78160615D01*
X116803051Y-78071981D01*
X116610468Y-77943301D01*
X116446699Y-77779532D01*
X116318019Y-77586949D01*
X116229385Y-77372967D01*
X116184200Y-77145808D01*
X116184200Y-76914192D01*
X116229385Y-76687033D01*
X116318019Y-76473051D01*
X116446699Y-76280468D01*
X116610468Y-76116699D01*
X116803051Y-75988019D01*
X117017033Y-75899385D01*
X117244192Y-75854200D01*
X117475808Y-75854200D01*
X117702967Y-75899385D01*
X117702967Y-75899385D01*
G37*
G36*
X122782967Y-75899385D02*
X122996949Y-75988019D01*
X123189532Y-76116699D01*
X123353301Y-76280468D01*
X123481981Y-76473051D01*
X123570615Y-76687033D01*
X123615800Y-76914192D01*
X123615800Y-77145808D01*
X123570615Y-77372967D01*
X123481981Y-77586949D01*
X123353301Y-77779532D01*
X123189532Y-77943301D01*
X122996949Y-78071981D01*
X122782967Y-78160615D01*
X122555808Y-78205800D01*
X122324192Y-78205800D01*
X122097033Y-78160615D01*
X121883051Y-78071981D01*
X121690468Y-77943301D01*
X121526699Y-77779532D01*
X121398019Y-77586949D01*
X121309385Y-77372967D01*
X121264200Y-77145808D01*
X121264200Y-76914192D01*
X121309385Y-76687033D01*
X121398019Y-76473051D01*
X121526699Y-76280468D01*
X121690468Y-76116699D01*
X121883051Y-75988019D01*
X122097033Y-75899385D01*
X122324192Y-75854200D01*
X122555808Y-75854200D01*
X122782967Y-75899385D01*
X122782967Y-75899385D01*
G37*
M02*
